<svg aria-hidden="true" style="position: absolute; width: 0; height: 0; overflow: hidden;" version="1.1" xmlns="http://www.w3.org/2000/svg" xmlns:xlink="http://www.w3.org/1999/xlink">
<defs>
<symbol id="icon-app-and-services" viewBox="0 0 32 32">
<path d="M7.2 27.2c-1.248 0-2.273-0.952-2.389-2.169l-0.011-0.231v-17.6c0-1.248 0.952-2.273 2.169-2.389l0.231-0.011h7.2c1.248 0 2.273 0.952 2.389 2.169l0.011 0.231v0.407l3.502-3.631c0.862-0.895 2.252-0.975 3.211-0.221l0.186 0.162 4.412 4.359c0.884 0.873 0.947 2.264 0.177 3.218l-0.165 0.185-3.697 3.52 0.374 0.001c1.248 0 2.273 0.952 2.389 2.169l0.011 0.231v7.2c0 1.248-0.952 2.273-2.169 2.389l-0.231 0.011h-17.6zM15.2 16.8h-8.8v8c0 0.344 0.217 0.637 0.521 0.75l0.135 0.037 0.144 0.013h8v-8.8zM24.8 16.8h-8v8.8h8c0.393 0 0.719-0.283 0.787-0.656l0.013-0.144v-7.2c0-0.393-0.283-0.719-0.656-0.787l-0.144-0.013zM16.8 12.335v2.864h2.864l-2.864-2.864zM14.4 6.4h-7.2c-0.393 0-0.719 0.283-0.787 0.656l-0.013 0.144v8h8.8v-8c0-0.344-0.217-0.637-0.521-0.75l-0.135-0.037-0.144-0.013zM22.596 5.076c-0.292-0.282-0.725-0.306-1.033-0.084l-0.109 0.095-4.186 4.343c-0.265 0.275-0.294 0.691-0.091 0.997l0.101 0.124 4.185 4.185c0.269 0.269 0.682 0.307 0.992 0.112l0.126-0.098 4.412-4.203c0.276-0.279 0.304-0.711 0.086-1.021l-0.093-0.11-4.391-4.339z"></path>
</symbol>
<symbol id="icon-document-lines" viewBox="0 0 32 32">
<path d="M9.6 3.2c-1.767 0-3.2 1.433-3.2 3.2v11.2h1.6v-11.2c0-0.884 0.716-1.6 1.6-1.6h6.4v5.6c0 1.325 1.075 2.4 2.4 2.4h5.6v12.8c0 0.884-0.716 1.6-1.6 1.6h-12.8c-0.884 0-1.6-0.716-1.6-1.6v-3.2h-1.6v3.2c0 1.767 1.433 3.2 3.2 3.2h12.8c1.767 0 3.2-1.433 3.2-3.2v-13.737c0-0.636-0.253-1.247-0.703-1.697l-6.263-6.263c-0.45-0.45-1.060-0.703-1.697-0.703h-7.337zM23.669 11.2h-5.269c-0.442 0-0.8-0.358-0.8-0.8v-5.269l6.069 6.069zM10.4 16c-0.442 0-0.8 0.358-0.8 0.8s0.358 0.8 0.8 0.8h11.2c0.442 0 0.8-0.358 0.8-0.8s-0.358-0.8-0.8-0.8h-11.2zM4 19.2c-0.442 0-0.8 0.358-0.8 0.8s0.358 0.8 0.8 0.8h11.2c0.442 0 0.8-0.358 0.8-0.8s-0.358-0.8-0.8-0.8h-11.2zM10.4 22.4c-0.442 0-0.8 0.358-0.8 0.8s0.358 0.8 0.8 0.8h11.2c0.442 0 0.8-0.358 0.8-0.8s-0.358-0.8-0.8-0.8h-11.2z"></path>
</symbol>
<symbol id="icon-right" viewBox="0 0 32 32">
<path d="M12.233 6.635c0.312-0.313 0.818-0.314 1.131-0.002l8.775 8.744c0.345 0.344 0.345 0.903 0 1.247l-8.775 8.744c-0.313 0.312-0.819 0.311-1.131-0.002s-0.311-0.82 0.002-1.131l8.263-8.234-8.263-8.234c-0.313-0.312-0.314-0.818-0.002-1.131z"></path>
</symbol>
<symbol id="icon-left" viewBox="0 0 32 32">
<path d="M19.767 25.364c-0.312 0.313-0.818 0.314-1.132 0.002l-8.775-8.744c-0.345-0.344-0.345-0.903 0-1.247l8.775-8.744c0.313-0.312 0.82-0.311 1.132 0.002s0.311 0.819-0.002 1.131l-8.263 8.234 8.263 8.234c0.313 0.312 0.314 0.818 0.002 1.131z"></path>
</symbol>
<symbol id="icon-up" viewBox="0 0 32 32">
<path d="M6.635 19.767c-0.313-0.312-0.314-0.818-0.002-1.132l8.744-8.775c0.344-0.345 0.903-0.345 1.247 0l8.744 8.775c0.312 0.313 0.311 0.82-0.002 1.132s-0.82 0.311-1.131-0.002l-8.234-8.263-8.234 8.263c-0.312 0.313-0.818 0.314-1.131 0.002z"></path>
</symbol>
<symbol id="icon-down" viewBox="0 0 32 32">
<path d="M25.364 12.233c0.313 0.312 0.314 0.818 0.002 1.131l-8.744 8.775c-0.344 0.345-0.903 0.345-1.247 0l-8.744-8.775c-0.312-0.313-0.311-0.819 0.002-1.131s0.819-0.311 1.131 0.002l8.234 8.263 8.234-8.263c0.312-0.313 0.818-0.314 1.131-0.002z"></path>
</symbol>
<symbol id="icon-docket-check" viewBox="0 0 32 32">
<path d="M28.8 8.8c0 3.976-3.224 7.2-7.2 7.2s-7.2-3.224-7.2-7.2c0-3.976 3.224-7.2 7.2-7.2s7.2 3.224 7.2 7.2zM24.234 5.834l-4.234 4.234-1.034-1.034c-0.312-0.312-0.819-0.312-1.132 0s-0.312 0.819 0 1.131l1.6 1.6c0.312 0.312 0.819 0.312 1.132 0l4.8-4.8c0.312-0.312 0.312-0.819 0-1.131s-0.819-0.312-1.132 0zM12.836 8h-3.236c-1.767 0-3.2 1.433-3.2 3.2v6.4h5.6c0.441 0 0.799 0.358 0.8 0.799l0.001 0.019c0.001 0.020 0.002 0.053 0.005 0.097 0.006 0.088 0.019 0.219 0.046 0.379 0.054 0.323 0.16 0.741 0.364 1.149 0.203 0.405 0.494 0.786 0.916 1.067 0.417 0.278 1.009 0.491 1.869 0.491s1.452-0.213 1.869-0.491c0.422-0.281 0.713-0.662 0.916-1.067 0.204-0.408 0.31-0.826 0.364-1.149 0.027-0.159 0.040-0.29 0.046-0.379 0.003-0.044 0.005-0.077 0.005-0.097l0-0.020c0-0.442 0.358-0.799 0.8-0.799h5.6v-0.96c0.572-0.293 1.109-0.646 1.6-1.052v8.411c0 2.651-2.149 4.8-4.8 4.8h-12.8c-2.651 0-4.8-2.149-4.8-4.8v-12.8c0-2.651 2.149-4.8 4.8-4.8h3.531c-0.146 0.516-0.246 1.051-0.295 1.6zM11.281 19.2h-4.881v4.8c0 1.767 1.433 3.2 3.2 3.2h12.8c1.767 0 3.2-1.433 3.2-3.2v-4.8h-4.881c-0.074 0.423-0.218 0.986-0.504 1.558-0.297 0.595-0.756 1.214-1.459 1.683-0.708 0.472-1.616 0.759-2.756 0.759s-2.048-0.287-2.756-0.759c-0.703-0.469-1.162-1.088-1.459-1.683-0.286-0.572-0.43-1.135-0.504-1.558z"></path>
</symbol>
<symbol id="icon-error-tag" viewBox="0 0 32 32">
<path d="M22.4 11.2c0.884 0 1.6-0.716 1.6-1.6s-0.716-1.6-1.6-1.6c-0.884 0-1.6 0.716-1.6 1.6s0.716 1.6 1.6 1.6zM17.807 3.2c-0.855-0.006-1.676 0.331-2.281 0.934l-10.69 10.663c-1.252 1.249-1.254 3.278-0.003 4.528l7.917 7.917c0.844 0.844 2.042 1.118 3.116 0.822-0.31-0.466-0.576-0.963-0.794-1.486-0.429 0.016-0.863-0.14-1.191-0.468l-7.917-7.917c-0.625-0.625-0.625-1.64 0.001-2.264l10.69-10.663c0.303-0.302 0.713-0.47 1.14-0.467l7.824 0.051c0.879 0.006 1.588 0.719 1.59 1.598l0.012 7.92c0 0.313-0.091 0.616-0.258 0.874 0.485 0.23 0.946 0.503 1.378 0.814 0.312-0.504 0.481-1.089 0.48-1.691l-0.012-7.92c-0.003-1.757-1.422-3.184-3.179-3.195l-7.825-0.051zM30.4 23.2c0 3.976-3.224 7.2-7.2 7.2s-7.2-3.224-7.2-7.2c0-3.976 3.224-7.2 7.2-7.2s7.2 3.224 7.2 7.2zM23.2 19.2c-0.442 0-0.8 0.358-0.8 0.8v3.2c0 0.442 0.358 0.8 0.8 0.8s0.8-0.358 0.8-0.8v-3.2c0-0.442-0.358-0.8-0.8-0.8zM23.2 27.4c0.552 0 1-0.448 1-1s-0.448-1-1-1c-0.552 0-1 0.448-1 1s0.448 1 1 1z"></path>
</symbol>
<symbol id="icon-flash" viewBox="0 0 32 32">
<path d="M9.905 4.433c0.209-0.73 0.876-1.233 1.634-1.233h8.399c1.16 0 1.98 1.137 1.613 2.237l-0.004 0.012-0-0-2.018 5.751h4.102c1.514 0 2.252 1.83 1.226 2.898l-0.006 0.006v-0l-13.882 14.172c-1.207 1.252-3.295 0.096-2.872-1.592l1.872-7.486h-2.028c-1.129 0-1.945-1.081-1.634-2.167l3.599-12.598zM11.54 4.8c-0.045 0-0.084 0.030-0.096 0.072l-3.599 12.598c-0.018 0.064 0.030 0.127 0.096 0.127h3.052c0.246 0 0.479 0.114 0.631 0.308s0.205 0.447 0.146 0.686l-2.12 8.48c-0.006 0.025-0.006 0.040-0.005 0.047s0.002 0.012 0.005 0.018c0.006 0.012 0.021 0.032 0.049 0.047s0.053 0.018 0.066 0.016c0.006-0.001 0.011-0.002 0.018-0.005s0.019-0.011 0.037-0.029l0.006-0.006h0l13.881-14.171c0.020-0.021 0.025-0.037 0.027-0.050 0.003-0.018 0.001-0.044-0.010-0.071s-0.028-0.045-0.040-0.054c-0.008-0.006-0.021-0.013-0.050-0.013h-5.231c-0.26 0-0.503-0.126-0.653-0.337s-0.188-0.483-0.102-0.728l2.389-6.807c0.019-0.064-0.029-0.128-0.096-0.128h-8.399z"></path>
</symbol>
<symbol id="icon-speed" viewBox="0 0 32 32">
<path d="M3.252 17.318c2.034-5.392 6.532-9.318 12.748-9.318 0 0 0 0 0 0 1.584 0 3.057 0.255 4.406 0.724-0.103 0.102-0.197 0.216-0.282 0.339l-0.706 1.025c-0.825-0.247-1.699-0.405-2.618-0.463v3.975c0 0.442-0.358 0.8-0.8 0.8s-0.8-0.358-0.8-0.8v-3.975c-3.582 0.226-6.483 1.968-8.487 4.639 0.058 0.025 0.114 0.057 0.167 0.096l2.4 1.8c0.353 0.265 0.425 0.767 0.16 1.12s-0.767 0.425-1.12 0.16l-2.4-1.8c-0.027-0.020-0.053-0.042-0.077-0.065-0.422 0.722-0.788 1.494-1.095 2.308-0.156 0.413-0.618 0.622-1.031 0.466s-0.622-0.617-0.466-1.031zM24.364 11.222c0.023-0.065 0.043-0.131 0.060-0.197 1.919 1.623 3.385 3.801 4.325 6.293 0.156 0.413-0.053 0.875-0.466 1.031s-0.875-0.053-1.031-0.466c-0.307-0.814-0.673-1.586-1.095-2.308-0.024 0.023-0.049 0.045-0.077 0.065l-2.4 1.8c-0.353 0.265-0.855 0.193-1.12-0.16s-0.193-0.855 0.16-1.12l2.4-1.8c0.053-0.040 0.109-0.072 0.167-0.097-0.435-0.58-0.913-1.116-1.43-1.602l0.507-1.439zM22.436 9.711c0.358 0.181 0.526 0.6 0.393 0.978l-4.221 12.050c-0.198 0.565-0.49 1.093-0.865 1.561-1.745 2.182-5.18 0.276-4.305-2.349 0.157-0.471 0.379-0.918 0.661-1.328l7.315-10.651c0.227-0.331 0.664-0.442 1.021-0.261zM19.334 15.828l-3.915 5.701c-0.196 0.286-0.352 0.599-0.462 0.928-0.319 0.956 0.925 1.61 1.537 0.844 0.261-0.327 0.466-0.695 0.604-1.090l2.236-6.382z"></path>
</symbol>
<symbol id="icon-developer" viewBox="0 0 32 32">
<path d="M16 11.2c-2.651 0-4.8 2.149-4.8 4.8s2.149 4.8 4.8 4.8c2.651 0 4.8-2.149 4.8-4.8s-2.149-4.8-4.8-4.8zM12.8 16c0-1.767 1.433-3.2 3.2-3.2s3.2 1.433 3.2 3.2c0 1.767-1.433 3.2-3.2 3.2s-3.2-1.433-3.2-3.2zM12 3.2c0.442 0 0.8 0.358 0.8 0.8v2.4h2.4v-2.4c0-0.442 0.358-0.8 0.8-0.8s0.8 0.358 0.8 0.8v2.4h2.4v-2.4c0-0.442 0.358-0.8 0.8-0.8s0.8 0.358 0.8 0.8v2.4h0.8c2.209 0 4 1.791 4 4v0.8h2.4c0.442 0 0.8 0.358 0.8 0.8s-0.358 0.8-0.8 0.8h-2.4v2.4h2.4c0.442 0 0.8 0.358 0.8 0.8s-0.358 0.8-0.8 0.8h-2.4v2.4h2.4c0.442 0 0.8 0.358 0.8 0.8s-0.358 0.8-0.8 0.8h-2.4v0.8c0 2.209-1.791 4-4 4h-0.8v2.4c0 0.442-0.358 0.8-0.8 0.8s-0.8-0.358-0.8-0.8v-2.4h-2.4v2.4c0 0.442-0.358 0.8-0.8 0.8s-0.8-0.358-0.8-0.8v-2.4h-2.4v2.4c0 0.442-0.358 0.8-0.8 0.8s-0.8-0.358-0.8-0.8v-2.4h-0.8c-2.209 0-4-1.791-4-4v-0.8h-2.4c-0.442 0-0.8-0.358-0.8-0.8s0.358-0.8 0.8-0.8h2.4v-2.4h-2.4c-0.442 0-0.8-0.358-0.8-0.8s0.358-0.8 0.8-0.8h2.4v-2.4h-2.4c-0.442 0-0.8-0.358-0.8-0.8s0.358-0.8 0.8-0.8h2.4v-0.8c0-2.209 1.791-4 4-4h0.8v-2.4c0-0.442 0.358-0.8 0.8-0.8zM24 10.4c0-1.325-1.075-2.4-2.4-2.4h-11.2c-1.325 0-2.4 1.075-2.4 2.4v11.2c0 1.325 1.075 2.4 2.4 2.4h11.2c1.325 0 2.4-1.075 2.4-2.4v-11.2z"></path>
</symbol>
<symbol id="icon-timeline" viewBox="0 0 32 32">
<path d="M5.6 4.8c-1.325 0-2.4 1.074-2.4 2.4v6.4c0 1.325 1.075 2.4 2.4 2.4h14.4c1.325 0 2.4-1.075 2.4-2.4v-6.4c0-1.325-1.075-2.4-2.4-2.4h-14.4zM4.8 7.2c0-0.442 0.358-0.8 0.8-0.8h14.4c0.442 0 0.8 0.358 0.8 0.8v6.4c0 0.442-0.358 0.8-0.8 0.8h-14.4c-0.442 0-0.8-0.358-0.8-0.8v-6.4zM5.6 17.6c-1.325 0-2.4 1.075-2.4 2.4v6.4c0 1.325 1.075 2.4 2.4 2.4h14.4c1.325 0 2.4-1.075 2.4-2.4v-6.4c0-1.325-1.075-2.4-2.4-2.4h-14.4zM4.8 20c0-0.442 0.358-0.8 0.8-0.8h14.4c0.442 0 0.8 0.358 0.8 0.8v6.4c0 0.442-0.358 0.8-0.8 0.8h-14.4c-0.442 0-0.8-0.358-0.8-0.8v-6.4zM27.2 19.899c-0.256 0.066-0.524 0.101-0.8 0.101s-0.544-0.035-0.8-0.101c-1.38-0.355-2.4-1.608-2.4-3.099s1.020-2.744 2.4-3.099c0-0-0 0 0 0 0.256-0.066 0.524-0.101 0.8-0.101s0.544 0.035 0.8 0.101c1.38 0.355 2.4 1.608 2.4 3.099s-1.020 2.744-2.4 3.099c0 0 0 0 0 0zM26.4 4.8c0.442 0 0.8 0.358 0.8 0.8v6.466c-0.26-0.044-0.527-0.066-0.8-0.066s-0.54 0.023-0.8 0.066v-6.466c0-0.442 0.358-0.8 0.8-0.8zM26.4 21.6c-0.273 0-0.54-0.023-0.8-0.066v6.466c0 0.442 0.358 0.8 0.8 0.8s0.8-0.358 0.8-0.8v-6.466c-0.26 0.044-0.527 0.066-0.8 0.066z"></path>
</symbol>
<symbol id="icon-time" viewBox="0 0 32 32">
<path d="M12 3.2c-0.442 0-0.8 0.358-0.8 0.8s0.358 0.8 0.8 0.8h6.4c0.442 0 0.8-0.358 0.8-0.8s-0.358-0.8-0.8-0.8h-6.4z"></path>
<path d="M24.25 6.286c-0.312-0.312-0.819-0.312-1.131 0s-0.312 0.819 0 1.131l2.263 2.263c0.312 0.312 0.819 0.312 1.131 0s0.312-0.819 0-1.131l-2.263-2.263z"></path>
<path d="M15.2 9.6c-0.442 0-0.8 0.358-0.8 0.8v8c0 0.442 0.358 0.8 0.8 0.8s0.8-0.358 0.8-0.8v-8c0-0.442-0.358-0.8-0.8-0.8z"></path>
<path d="M15.2 28.8c6.186 0 11.2-5.014 11.2-11.2s-5.014-11.2-11.2-11.2c-6.186 0-11.2 5.014-11.2 11.2s5.014 11.2 11.2 11.2zM15.2 27.2c-5.302 0-9.6-4.298-9.6-9.6s4.298-9.6 9.6-9.6c5.302 0 9.6 4.298 9.6 9.6s-4.298 9.6-9.6 9.6z"></path>
</symbol>
<symbol id="icon-vimeo" viewBox="0 0 32 32">
<path d="M31.969 8.556c-0.14 3.117-2.319 7.391-6.525 12.812-4.357 5.663-8.034 8.493-11.053 8.493-1.879 0-3.437-1.725-4.737-5.175l-2.557-9.485c-0.959-3.445-1.984-5.171-3.083-5.171-0.239 0-1.075 0.504-2.508 1.509l-1.505-1.943c1.981-1.742 3.5-3.104 5.010-4.477l-0.342 0.306c2.105-1.824 3.687-2.78 4.739-2.879 2.489-0.24 4.021 1.467 4.596 5.117 0.62 3.937 1.052 6.385 1.295 7.343 0.719 3.267 1.508 4.899 2.368 4.899 0.669 0 1.675-1.061 3.020-3.18 1.339-2.119 2.053-3.729 2.149-4.837 0.192-1.828-0.527-2.748-2.152-2.748-0.765 0-1.556 0.161-2.369 0.521 1.581-5.157 4.579-7.676 9.016-7.516 3.297 0.080 4.837 2.219 4.657 6.396z"></path>
</symbol>
<symbol id="icon-instagram" viewBox="0 0 32 32">
<path d="M9.373 0.112c-1.702 0.080-2.865 0.352-3.881 0.751-1.052 0.41-1.943 0.96-2.83 1.85s-1.433 1.782-1.84 2.836c-0.394 1.018-0.661 2.182-0.736 3.885s-0.092 2.251-0.083 6.596c0.008 4.345 0.027 4.889 0.11 6.596 0.081 1.702 0.352 2.864 0.751 3.881 0.411 1.052 0.96 1.943 1.851 2.83s1.782 1.432 2.838 1.84c1.018 0.393 2.181 0.661 3.885 0.736s2.251 0.092 6.595 0.084c4.344-0.008 4.891-0.028 6.597-0.109s2.863-0.354 3.88-0.751c1.052-0.411 1.944-0.96 2.83-1.851s1.433-1.784 1.839-2.838c0.394-1.018 0.662-2.181 0.736-3.883 0.075-1.708 0.092-2.253 0.084-6.597s-0.028-4.889-0.109-6.595-0.352-2.865-0.751-3.882c-0.411-1.052-0.96-1.942-1.85-2.83s-1.784-1.434-2.837-1.839c-1.018-0.394-2.181-0.662-3.885-0.736s-2.251-0.093-6.597-0.084c-4.345 0.008-4.889 0.027-6.596 0.11zM9.56 29.036c-1.56-0.068-2.407-0.327-2.972-0.544-0.747-0.288-1.28-0.636-1.843-1.193s-0.908-1.091-1.2-1.837c-0.219-0.565-0.483-1.411-0.556-2.971-0.079-1.686-0.096-2.192-0.105-6.464s0.007-4.777 0.081-6.464c0.067-1.559 0.327-2.407 0.544-2.971 0.288-0.748 0.635-1.28 1.193-1.842s1.091-0.909 1.838-1.2c0.564-0.22 1.41-0.482 2.969-0.556 1.687-0.080 2.193-0.096 6.464-0.105s4.778 0.007 6.466 0.081c1.559 0.068 2.407 0.326 2.971 0.544 0.748 0.288 1.28 0.634 1.842 1.193s0.909 1.090 1.201 1.838c0.22 0.562 0.482 1.408 0.556 2.968 0.080 1.687 0.099 2.193 0.106 6.464s-0.007 4.778-0.081 6.464c-0.068 1.56-0.327 2.407-0.544 2.973-0.288 0.747-0.635 1.28-1.194 1.842s-1.091 0.908-1.838 1.2c-0.563 0.22-1.41 0.482-2.968 0.557-1.687 0.079-2.193 0.096-6.466 0.105s-4.777-0.008-6.464-0.081zM22.604 7.449c0.002 1.059 0.861 1.917 1.92 1.917 1.060 0 1.92-0.86 1.92-1.92s-0.86-1.92-1.92-1.92c-0.001 0-0.003 0-0.004 0h0c-1.059 0.002-1.916 0.861-1.916 1.92 0 0.001 0 0.002 0 0.003v-0zM7.785 16.016c0.009 4.538 3.694 8.208 8.231 8.199s8.209-3.693 8.201-8.231c-0.009-4.538-3.695-8.209-8.232-8.2s-8.208 3.695-8.199 8.232zM10.667 16.010c0-0.003 0-0.007 0-0.011 0-2.946 2.388-5.333 5.333-5.333s5.333 2.388 5.333 5.333c0 2.942-2.382 5.327-5.322 5.333h-0.001c-0.003 0-0.007 0-0.011 0-2.942 0-5.327-2.382-5.333-5.322v-0.001z"></path>
</symbol>
<symbol id="icon-x" viewBox="0 0 32 32">
<path d="M18.979 13.549l11.657-13.549h-2.763l-10.121 11.765-8.084-11.765h-9.324l12.224 17.791-12.224 14.209h2.763l10.688-12.424 8.537 12.424h9.324zM15.196 17.948l-11.095-15.868h4.243l19.531 27.935h-4.243z"></path>
</symbol>
<symbol id="icon-language" viewBox="0 0 32 32">
<path d="M15.199 3.194c-0.442 0-0.8 0.358-0.8 0.8s0.358 0.8 0.8 0.8l5.601 0v2.989c0 1.866-1.87 3.416-4 3.416-0.442 0-0.8 0.358-0.8 0.8s0.358 0.8 0.8 0.8c2.735 0 5.6-2.012 5.6-5.016v-3.789c0-0.442-0.358-0.8-0.8-0.8l-6.401-0zM12.739 8.492c-0.124-0.298-0.415-0.492-0.738-0.492s-0.614 0.194-0.739 0.492l-8 19.2c-0.17 0.408 0.023 0.876 0.431 1.046s0.876-0.023 1.046-0.431l2.459-5.903h9.602l2.462 5.91c0.17 0.408 0.638 0.601 1.046 0.431s0.601-0.638 0.431-1.046l-2.66-6.385c-0.004-0.011-0.009-0.023-0.014-0.034l-5.326-12.789zM16.134 20.805h-8.269l4.135-9.925 4.134 9.925zM24.802 3.194c0.442 0 0.8 0.358 0.8 0.8v5.609h2.398c0.442 0 0.8 0.358 0.8 0.8s-0.358 0.8-0.8 0.8h-2.398v10.391c0 0.442-0.358 0.8-0.8 0.8s-0.8-0.358-0.8-0.8v-17.6c0-0.442 0.358-0.8 0.8-0.8z"></path>
</symbol>
<symbol id="icon-database" viewBox="0 0 32 32">
<path d="M6.4 8c0-1.611 1.4-2.808 3.046-3.557 1.718-0.781 4.036-1.243 6.554-1.243s4.835 0.462 6.554 1.243c1.646 0.748 3.046 1.946 3.046 3.557v12.8h-1.6v-10.083c-0.434 0.324-0.928 0.604-1.446 0.84-1.718 0.781-4.036 1.243-6.554 1.243s-4.835-0.462-6.554-1.243c-0.519-0.236-1.013-0.516-1.446-0.84v13.283c0 0.598 0.57 1.401 2.109 2.1 1.133 0.515 2.634 0.891 4.339 1.035 0.076 0.578 0.24 1.128 0.478 1.636-2.098-0.112-4.008-0.546-5.479-1.215-1.646-0.748-3.046-1.945-3.046-3.557v-16zM8 8c0 0.598 0.57 1.401 2.108 2.1 1.467 0.667 3.549 1.1 5.892 1.1s4.425-0.433 5.892-1.1c1.539-0.699 2.108-1.502 2.108-2.1s-0.57-1.401-2.108-2.1c-1.467-0.667-3.549-1.1-5.892-1.1s-4.425 0.433-5.892 1.1c-1.539 0.699-2.108 1.502-2.108 2.1zM20 22.4c-2.209 0-4 1.791-4 4s1.791 4 4 4h0.8c0.442 0 0.8-0.358 0.8-0.8s-0.358-0.8-0.8-0.8h-0.8c-1.325 0-2.4-1.075-2.4-2.4s1.075-2.4 2.4-2.4h0.8c0.442 0 0.8-0.358 0.8-0.8s-0.358-0.8-0.8-0.8h-0.8zM25.6 22.4c-0.442 0-0.8 0.358-0.8 0.8s0.358 0.8 0.8 0.8h0.8c1.325 0 2.4 1.075 2.4 2.4s-1.075 2.4-2.4 2.4h-0.8c-0.442 0-0.8 0.358-0.8 0.8s0.358 0.8 0.8 0.8h0.8c2.209 0 4-1.791 4-4s-1.791-4-4-4h-0.8zM19.2 26.4c0-0.442 0.358-0.8 0.8-0.8h6.4c0.442 0 0.8 0.358 0.8 0.8s-0.358 0.8-0.8 0.8h-6.4c-0.442 0-0.8-0.358-0.8-0.8z"></path>
</symbol>
<symbol id="icon-team-alt" viewBox="0 0 32 32">
<path d="M17.6 16c1.767 0 3.2 1.433 3.2 3.2h-0.8c-0.28 0-0.55 0.048-0.8 0.137v-0.137c0-0.884-0.716-1.6-1.6-1.6h-11.2c-0.884 0-1.6 0.716-1.6 1.6v2.4c0 2.251 2.526 4 7.2 4 2.501 0 4.387-0.501 5.6-1.311v1.819c-1.447 0.696-3.342 1.092-5.6 1.092-5.459 0-8.8-2.313-8.8-5.6v-2.4c0-1.767 1.433-3.2 3.2-3.2h11.2zM28 19.2c0.28 0 0.55 0.048 0.8 0.137v-0.137c0-1.767-1.433-3.2-3.2-3.2l-4.424-0.001c0.413 0.462 0.739 1.004 0.95 1.6l3.474 0.001c0.884 0 1.6 0.716 1.6 1.6h0.8zM12 3.2c3.093 0 5.6 2.507 5.6 5.6s-2.507 5.6-5.6 5.6c-3.093 0-5.6-2.507-5.6-5.6s2.507-5.6 5.6-5.6zM12 4.8c-2.209 0-4 1.791-4 4s1.791 4 4 4c2.209 0 4-1.791 4-4s-1.791-4-4-4zM23.2 6.4c2.209 0 4 1.791 4 4s-1.791 4-4 4c-2.209 0-4-1.791-4-4s1.791-4 4-4zM23.2 8c-1.325 0-2.4 1.075-2.4 2.4s1.075 2.4 2.4 2.4c1.325 0 2.4-1.075 2.4-2.4s-1.075-2.4-2.4-2.4zM20 20.8c-0.442 0-0.8 0.358-0.8 0.8s0.358 0.8 0.8 0.8h8c0.442 0 0.8-0.358 0.8-0.8s-0.358-0.8-0.8-0.8h-8zM20 24c-0.442 0-0.8 0.358-0.8 0.8s0.358 0.8 0.8 0.8h8c0.442 0 0.8-0.358 0.8-0.8s-0.358-0.8-0.8-0.8h-8zM20 27.2c-0.442 0-0.8 0.358-0.8 0.8s0.358 0.8 0.8 0.8h8c0.442 0 0.8-0.358 0.8-0.8s-0.358-0.8-0.8-0.8h-8z"></path>
</symbol>
<symbol id="icon-info-calendar" viewBox="0 0 32 32">
<path d="M23.2 4.8c2.209 0 4 1.791 4 4v6.56c-0.507-0.259-1.042-0.47-1.6-0.628v-3.531h-19.2v12c0 1.325 1.075 2.4 2.4 2.4h5.931c0.158 0.558 0.369 1.093 0.628 1.6h-6.56c-2.209 0-4-1.791-4-4v-14.4c0-2.209 1.791-4 4-4h14.4zM23.2 6.4h-14.4c-1.325 0-2.4 1.075-2.4 2.4v0.8h19.2v-0.8c0-1.325-1.075-2.4-2.4-2.4zM22.2 20c0-0.552 0.448-1 1-1s1 0.448 1 1c0 0.552-0.448 1-1 1s-1-0.448-1-1zM24 26.4c0 0.442-0.358 0.8-0.8 0.8s-0.8-0.358-0.8-0.8v-3.2c0-0.442 0.358-0.8 0.8-0.8s0.8 0.358 0.8 0.8v3.2zM16 23.2c0-3.976 3.224-7.2 7.2-7.2s7.2 3.224 7.2 7.2c0 3.976-3.224 7.2-7.2 7.2s-7.2-3.224-7.2-7.2zM17.6 23.2c0 3.093 2.507 5.6 5.6 5.6s5.6-2.507 5.6-5.6c0-3.093-2.507-5.6-5.6-5.6s-5.6 2.507-5.6 5.6z"></path>
</symbol>
<symbol id="icon-secure-info" viewBox="0 0 32 32">
<path d="M27.2 14.4c0-7.069-5.731-12.8-12.8-12.8s-12.8 5.731-12.8 12.8c0 7.069 5.731 12.8 12.8 12.8 0.946 0 1.868-0.103 2.755-0.297-0.115-0.223-0.221-0.451-0.319-0.685-0.112-0.268-0.213-0.542-0.302-0.821-0.691 0.133-1.404 0.203-2.134 0.203-6.186 0-11.2-5.014-11.2-11.2s5.014-11.2 11.2-11.2c5.862 0 10.672 4.503 11.159 10.238 0.017 0.017 0.033 0.033 0.050 0.050 0.319 0.333 0.638 0.618 0.956 0.858 0.21 0.159 0.42 0.299 0.63 0.421 0.003-0.122 0.005-0.245 0.005-0.368z"></path>
<path d="M14.478 8c0.663 0 1.2 0.537 1.2 1.2s-0.537 1.2-1.2 1.2c-0.663 0-1.2-0.537-1.2-1.2s0.537-1.2 1.2-1.2z"></path>
<path d="M14.4 12c0.393 0 0.719 0.283 0.787 0.656l0.013 0.144v7.203c0 0.442-0.358 0.8-0.8 0.8-0.393 0-0.719-0.283-0.787-0.656l-0.013-0.144v-7.203c0-0.442 0.358-0.8 0.8-0.8z"></path>
<path d="M27.2 16.555c-0.551-0.232-1.084-0.542-1.6-0.932-0.392-0.296-0.774-0.639-1.146-1.027-0.25-0.261-0.655-0.261-0.905-0.001-1.591 1.657-3.351 2.472-5.308 2.472-0.353 0-0.64 0.298-0.64 0.667v4.002l0.007 0.424c0.042 1.275 0.278 2.423 0.704 3.44 0.241 0.575 0.543 1.109 0.905 1.6 0.439 0.596 0.967 1.13 1.583 1.6 0.838 0.64 1.838 1.163 2.998 1.566 0.131 0.046 0.273 0.046 0.405 0 4.097-1.422 6.198-4.34 6.198-8.631v-4.002l-0.013-0.134c-0.060-0.304-0.318-0.532-0.627-0.532-0.325 0-0.645-0.023-0.96-0.068-0.55-0.079-1.083-0.227-1.6-0.444z"></path>
</symbol>
<symbol id="icon-search-multiple" viewBox="0 0 32 32">
<path d="M24 9.6h0.8c2.209 0 4 1.791 4 4v9.6c0 2.209-1.791 4-4 4h-8.606l-1.6-1.6h10.206c1.325 0 2.4-1.075 2.4-2.4v-9.6c0-1.325-1.075-2.4-2.4-2.4h-12.8c-1.325 0-2.4 1.075-2.4 2.4v1.21c-0.509-0.18-1.045-0.304-1.6-0.366v-0.844c0-2.209 1.791-4 4-4h10.4v-0.8c0-1.325-1.074-2.4-2.4-2.4h-12.8c-1.326 0-2.4 1.075-2.4 2.4v6.010c-0.57 0.201-1.106 0.472-1.6 0.803v-6.812c0-2.209 1.791-4 4-4h12.8c2.209 0 4 1.791 4 4v0.8zM7.2 27.2c1.258 0 2.419-0.415 3.354-1.115l4.080 4.080c0.312 0.312 0.819 0.312 1.131 0s0.312-0.819 0-1.131l-4.080-4.080c0.7-0.935 1.115-2.096 1.115-3.354 0-3.093-2.507-5.6-5.6-5.6s-5.6 2.507-5.6 5.6c0 3.093 2.507 5.6 5.6 5.6zM7.2 25.6c-2.209 0-4-1.791-4-4s1.791-4 4-4c2.209 0 4 1.791 4 4s-1.791 4-4 4z"></path>
</symbol>
<symbol id="icon-chat-email" viewBox="0 0 32 32">
<path d="M9.6 9.6c0-0.442 0.358-0.8 0.8-0.8h4.8c0.442 0 0.8 0.358 0.8 0.8s-0.358 0.8-0.8 0.8h-4.8c-0.442 0-0.8-0.358-0.8-0.8z"></path>
<path d="M10.4 12c-0.442 0-0.8 0.358-0.8 0.8s0.358 0.8 0.8 0.8h3.2c0.442 0 0.8-0.358 0.8-0.8s-0.358-0.8-0.8-0.8h-3.2z"></path>
<path d="M12.8 1.6c-5.302 0-9.6 4.298-9.6 9.6 0 1.663 0.424 3.23 1.169 4.595l-1.139 3.985c-0.082 0.285 0.002 0.592 0.216 0.798s0.525 0.275 0.806 0.181l3.741-1.247c1.414 0.819 3.056 1.288 4.806 1.288 5.302 0 9.6-4.298 9.6-9.6s-4.298-9.6-9.6-9.6zM4.8 11.2c0-4.418 3.582-8 8-8s8 3.582 8 8-3.582 8-8 8c-1.575 0-3.042-0.455-4.279-1.24-0.203-0.129-0.453-0.16-0.682-0.083l-2.653 0.884 0.814-2.85c0.061-0.212 0.031-0.439-0.082-0.629-0.71-1.195-1.119-2.59-1.119-4.083z"></path>
<path d="M19.642 23.916l-3.843-1.922c0.704-0.195 1.379-0.457 2.020-0.779l2.181 1.090 7.2-3.6v-1.105c0-0.884-0.716-1.6-1.6-1.6h-2.678c0.244-0.513 0.45-1.048 0.614-1.6h2.064c1.767 0 3.2 1.433 3.2 3.2v8c0 1.767-1.433 3.2-3.2 3.2h-11.2c-1.767 0-3.2-1.433-3.2-3.2v-3.313c0.523 0.075 1.057 0.113 1.6 0.113v3.2c0 0.884 0.716 1.6 1.6 1.6h11.2c0.884 0 1.6-0.716 1.6-1.6v-5.106l-6.842 3.421c-0.225 0.112-0.49 0.112-0.716 0z"></path>
</symbol>
<symbol id="icon-knowledge" viewBox="0 0 32 32">
<path d="M9.809 4.468c1.048-0.815 2.423-1.268 3.791-1.268 0.797 0 1.436 0.272 1.919 0.702 0.188 0.167 0.347 0.353 0.481 0.546 0.134-0.193 0.293-0.379 0.481-0.546 0.483-0.43 1.122-0.702 1.919-0.702 1.368 0 2.743 0.453 3.791 1.268 0.84 0.653 1.487 1.557 1.718 2.649 0.525 0.041 1.004 0.259 1.407 0.586 0.612 0.496 1.056 1.24 1.337 2.027 0.437 1.224 0.557 2.783 0.101 4.113 0.117 0.054 0.23 0.117 0.339 0.19 0.441 0.294 0.774 0.713 1.022 1.208 0.484 0.967 0.684 2.317 0.684 3.958 0 1.826-0.696 3.051-1.579 3.807-0.552 0.473-1.164 0.752-1.687 0.888-0.16 0.893-0.607 1.927-1.309 2.804-0.914 1.143-2.327 2.1-4.225 2.1-1.505 0-2.7-0.832-3.479-1.648-0.194-0.203-0.368-0.412-0.521-0.616-0.153 0.204-0.327 0.412-0.521 0.616-0.778 0.815-1.973 1.648-3.479 1.648-1.897 0-3.31-0.957-4.225-2.1-0.702-0.877-1.149-1.911-1.309-2.804-0.523-0.136-1.135-0.415-1.687-0.888-0.883-0.757-1.579-1.981-1.579-3.807 0-1.641 0.201-2.991 0.684-3.958 0.247-0.495 0.581-0.914 1.022-1.208 0.109-0.073 0.223-0.136 0.339-0.19-0.456-1.33-0.336-2.889 0.101-4.113 0.281-0.787 0.725-1.531 1.337-2.027 0.403-0.327 0.883-0.545 1.407-0.586 0.23-1.092 0.878-1.996 1.718-2.649zM15.2 7.201l-0-0.017c-0-0.016-0.001-0.043-0.003-0.079-0.004-0.072-0.012-0.177-0.028-0.306-0.033-0.261-0.097-0.596-0.218-0.918-0.122-0.326-0.287-0.598-0.495-0.783-0.192-0.17-0.453-0.298-0.856-0.298-1.032 0-2.057 0.347-2.809 0.931-0.743 0.578-1.191 1.36-1.191 2.269 0 0.257-0.124 0.499-0.332 0.649s-0.477 0.191-0.721 0.11c-0.3-0.1-0.57-0.044-0.856 0.187-0.313 0.254-0.619 0.71-0.838 1.323-0.447 1.251-0.402 2.766 0.212 3.687 0.089 0.134 0.134 0.289 0.134 0.444h1.2c1.988 0 3.6 1.612 3.6 3.6v0.537c0.932 0.329 1.6 1.218 1.6 2.263 0 1.325-1.075 2.4-2.4 2.4s-2.4-1.075-2.4-2.4c0-1.045 0.668-1.934 1.6-2.263v-0.537c0-1.105-0.895-2-2-2h-2.8c-0.099 0-0.193-0.018-0.28-0.050-0.001 0.003-0.003 0.006-0.004 0.008-0.316 0.633-0.516 1.683-0.516 3.242 0 1.374 0.503 2.149 1.021 2.593 0.555 0.476 1.171 0.607 1.379 0.607 0.442 0 0.8 0.358 0.8 0.8 0 0.589 0.319 1.618 1.025 2.5 0.686 0.857 1.673 1.5 2.975 1.5 0.895 0 1.699-0.501 2.321-1.152 0.305-0.319 0.542-0.651 0.698-0.922 0.079-0.136 0.131-0.247 0.162-0.326 0.009-0.023 0.015-0.040 0.019-0.052v-12.748h-1.737c-0.329 0.932-1.218 1.6-2.263 1.6-1.325 0-2.4-1.075-2.4-2.4s1.075-2.4 2.4-2.4c1.045 0 1.934 0.668 2.263 1.6h1.737v-3.199zM16.8 23.2v1.548c0.004 0.012 0.010 0.029 0.019 0.052 0.031 0.078 0.083 0.19 0.162 0.326 0.157 0.272 0.394 0.603 0.698 0.922 0.622 0.651 1.427 1.152 2.321 1.152 1.303 0 2.29-0.643 2.975-1.5 0.706-0.883 1.025-1.911 1.025-2.5 0-0.442 0.358-0.8 0.8-0.8 0.209 0 0.824-0.131 1.379-0.607 0.517-0.443 1.021-1.219 1.021-2.593 0-1.559-0.199-2.609-0.516-3.242-0.153-0.305-0.319-0.486-0.478-0.592-0.154-0.103-0.346-0.166-0.606-0.166-0.295 0-0.566-0.162-0.705-0.422s-0.124-0.576 0.040-0.821c0.614-0.921 0.659-2.436 0.212-3.687-0.219-0.613-0.525-1.069-0.838-1.323-0.286-0.232-0.556-0.287-0.856-0.187-0.244 0.081-0.512 0.040-0.721-0.11s-0.332-0.392-0.332-0.649c0-0.909-0.448-1.69-1.191-2.269-0.752-0.585-1.777-0.931-2.809-0.931-0.403 0-0.664 0.128-0.856 0.298-0.208 0.185-0.373 0.457-0.495 0.783-0.121 0.323-0.185 0.657-0.218 0.918-0.016 0.129-0.024 0.235-0.028 0.306-0.002 0.036-0.003 0.062-0.003 0.079l-0 0.018v14.398h1.2c1.105 0 2-0.895 2-2v-2.937c-0.932-0.329-1.6-1.218-1.6-2.263 0-1.325 1.075-2.4 2.4-2.4s2.4 1.075 2.4 2.4c0 1.045-0.668 1.934-1.6 2.263v2.937c0 1.988-1.612 3.6-3.6 3.6h-1.2zM10.4 11.2c0 0.442 0.358 0.8 0.8 0.8s0.8-0.358 0.8-0.8c0-0.442-0.358-0.8-0.8-0.8s-0.8 0.358-0.8 0.8zM20.8 15.2c0.442 0 0.8-0.358 0.8-0.8s-0.358-0.8-0.8-0.8c-0.442 0-0.8 0.358-0.8 0.8s0.358 0.8 0.8 0.8zM11.2 20c-0.442 0-0.8 0.358-0.8 0.8s0.358 0.8 0.8 0.8c0.442 0 0.8-0.358 0.8-0.8s-0.358-0.8-0.8-0.8z"></path>
</symbol>
<symbol id="icon-premium" viewBox="0 0 32 32">
<path d="M14.567 4.638c0.587-1.189 2.283-1.189 2.87 0l3.089 6.258 6.907 1.004c1.312 0.191 1.836 1.803 0.887 2.729l-4.998 4.871 1.18 6.879c0.224 1.307-1.148 2.304-2.322 1.687l-6.177-3.248-6.177 3.248c-1.174 0.617-2.546-0.38-2.322-1.687l1.18-6.879-4.998-4.871c-0.95-0.926-0.426-2.538 0.887-2.729l6.907-1.004 3.089-6.258zM16.002 5.346l-3.089 6.258c-0.233 0.472-0.684 0.8-1.205 0.875l-6.907 1.004 4.998 4.872c0.377 0.368 0.549 0.897 0.46 1.416l-1.18 6.879 6.177-3.248c0.466-0.245 1.023-0.245 1.489 0l6.177 3.248-1.18-6.879c-0.089-0.519 0.083-1.049 0.46-1.416l4.998-4.872-6.907-1.004c-0.521-0.076-0.972-0.403-1.205-0.875l-3.089-6.258z"></path>
<path d="M7.025 20.3c0.276 0.345 0.22 0.848-0.125 1.124l-4 3.2c-0.345 0.276-0.848 0.22-1.124-0.125s-0.22-0.848 0.125-1.124l4-3.2c0.345-0.276 0.848-0.22 1.124 0.125z"></path>
<path d="M6.9 8.175c0.345 0.276 0.401 0.779 0.125 1.124s-0.779 0.401-1.124 0.125l-4-3.2c-0.345-0.276-0.401-0.779-0.125-1.124s0.779-0.401 1.124-0.125l4 3.2z"></path>
<path d="M24.975 20.3c-0.276 0.345-0.22 0.848 0.125 1.124l4 3.2c0.345 0.276 0.848 0.22 1.124-0.125s0.22-0.848-0.125-1.124l-4-3.2c-0.345-0.276-0.848-0.22-1.124 0.125z"></path>
<path d="M25.1 8.175c-0.345 0.276-0.401 0.779-0.125 1.124s0.78 0.401 1.124 0.125l4-3.2c0.345-0.276 0.401-0.779 0.125-1.124s-0.779-0.401-1.124-0.125l-4 3.2z"></path>
</symbol>
<symbol id="icon-support" viewBox="0 0 32 32">
<path d="M6.4 12.8c0-5.302 4.298-9.6 9.6-9.6s9.6 4.298 9.6 9.6v4.8c0 1.767-1.433 3.2-3.2 3.2h-1.6c-0.884 0-1.6-0.716-1.6-1.6v-4.8c0-0.884 0.716-1.6 1.6-1.6h3.2c0-4.418-3.582-8-8-8s-8 3.582-8 8h3.2c0.884 0 1.6 0.716 1.6 1.6v4.8c0 0.884-0.716 1.6-1.6 1.6h-3.2v1.6c0 1.767 1.433 3.2 3.2 3.2h1.6c0-1.767 1.433-3.2 3.2-3.2s3.2 1.433 3.2 3.2-1.433 3.2-3.2 3.2c-1.184 0-2.219-0.644-2.772-1.6h-2.028c-2.651 0-4.8-2.149-4.8-4.8v-9.6zM24 14.4h-3.2v4.8h1.6c0.884 0 1.6-0.716 1.6-1.6v-3.2zM8 19.2h3.2v-4.8h-3.2v4.8zM14.4 25.6c0 0.884 0.716 1.6 1.6 1.6s1.6-0.716 1.6-1.6-0.716-1.6-1.6-1.6c-0.884 0-1.6 0.716-1.6 1.6z"></path>
</symbol>
<symbol id="icon-mail" viewBox="0 0 32 32">
<path d="M15.588 4.914c0.253-0.152 0.57-0.152 0.823 0l10.835 6.501c0.964 0.578 1.554 1.62 1.554 2.744v9.041c0 2.209-1.791 4-4 4h-17.6c-2.209 0-4-1.791-4-4v-9.041c0-1.124 0.59-2.166 1.554-2.744v0l10.835-6.501zM16 6.533l-10.423 6.254c-0.007 0.004-0.014 0.009-0.022 0.013l10.445 6.267 10.445-6.267c-0.007-0.004-0.015-0.009-0.022-0.013l-10.423-6.254zM27.2 14.213l-10.788 6.473c-0.253 0.152-0.57 0.152-0.823 0l-10.788-6.473v8.987c0 1.325 1.075 2.4 2.4 2.4h17.6c1.325 0 2.4-1.075 2.4-2.4v-8.987z"></path>
</symbol>
<symbol id="icon-calendar" viewBox="0 0 32 32">
<path d="M11.2 17.6c0.884 0 1.6-0.716 1.6-1.6s-0.716-1.6-1.6-1.6c-0.884 0-1.6 0.716-1.6 1.6s0.716 1.6 1.6 1.6zM12.8 20.8c0 0.884-0.716 1.6-1.6 1.6s-1.6-0.716-1.6-1.6c0-0.884 0.716-1.6 1.6-1.6s1.6 0.716 1.6 1.6zM16 17.6c0.884 0 1.6-0.716 1.6-1.6s-0.716-1.6-1.6-1.6c-0.884 0-1.6 0.716-1.6 1.6s0.716 1.6 1.6 1.6zM17.6 20.8c0 0.884-0.716 1.6-1.6 1.6s-1.6-0.716-1.6-1.6c0-0.884 0.716-1.6 1.6-1.6s1.6 0.716 1.6 1.6zM20.8 17.6c0.884 0 1.6-0.716 1.6-1.6s-0.716-1.6-1.6-1.6c-0.884 0-1.6 0.716-1.6 1.6s0.716 1.6 1.6 1.6zM27.2 8.8c0-2.209-1.791-4-4-4h-14.4c-2.209 0-4 1.791-4 4v14.4c0 2.209 1.791 4 4 4h14.4c2.209 0 4-1.791 4-4v-14.4zM6.4 11.2h19.2v12c0 1.325-1.075 2.4-2.4 2.4h-14.4c-1.325 0-2.4-1.075-2.4-2.4v-12zM8.8 6.4h14.4c1.325 0 2.4 1.075 2.4 2.4v0.8h-19.2v-0.8c0-1.325 1.075-2.4 2.4-2.4z"></path>
</symbol>
<symbol id="icon-checkmark-2" viewBox="0 0 32 32">
<path d="M13.538 3.035l1.583 0.623c0.565 0.222 1.193 0.222 1.758 0l1.583-0.623c1.938-0.763 4.132 0.146 4.963 2.056l0.679 1.56c0.242 0.557 0.686 1.001 1.243 1.243l1.56 0.679c1.91 0.831 2.819 3.025 2.056 4.963l-0.623 1.583c-0.222 0.565-0.222 1.193 0 1.758l0.623 1.583c0.763 1.938-0.146 4.132-2.056 4.964l-1.56 0.679c-0.557 0.242-1.001 0.686-1.243 1.243l-0.679 1.56c-0.831 1.91-3.025 2.819-4.963 2.056l-1.583-0.623c-0.565-0.222-1.193-0.222-1.758 0l-1.583 0.623c-1.938 0.763-4.132-0.146-4.963-2.056l-0.679-1.56c-0.242-0.557-0.686-1.001-1.243-1.243l-1.56-0.679c-1.91-0.831-2.819-3.025-2.056-4.964l0.623-1.583c0.222-0.565 0.222-1.193 0-1.758l-0.623-1.583c-0.763-1.938 0.146-4.132 2.056-4.963l1.56-0.679c0.557-0.242 1.001-0.686 1.243-1.243l0.679-1.56c0.831-1.91 3.025-2.819 4.963-2.056zM19.049 4.524l-1.583 0.623c-0.941 0.37-1.988 0.37-2.93 0l-1.583-0.623c-1.136-0.447-2.423 0.086-2.91 1.205l-0.679 1.56c-0.404 0.928-1.144 1.668-2.072 2.072l-1.56 0.679c-1.12 0.487-1.653 1.774-1.205 2.91l0.623 1.583c0.37 0.941 0.37 1.988 0 2.93l-0.623 1.584c-0.447 1.136 0.086 2.423 1.205 2.91l1.56 0.679c0.928 0.404 1.668 1.144 2.072 2.072l0.679 1.56c0.487 1.12 1.774 1.653 2.91 1.205l1.583-0.623c0.941-0.37 1.988-0.37 2.93 0l1.583 0.623c1.136 0.447 2.423-0.086 2.91-1.205l0.679-1.56c0.404-0.928 1.144-1.668 2.072-2.072l1.56-0.679c1.12-0.487 1.653-1.774 1.206-2.91l-0.623-1.584c-0.371-0.941-0.371-1.988 0-2.93l0.623-1.583c0.447-1.136-0.086-2.423-1.206-2.91l-1.56-0.679c-0.928-0.404-1.668-1.144-2.072-2.072l-0.679-1.56c-0.487-1.12-1.774-1.653-2.91-1.205zM14.366 18.834l5.836-6.566c0.294-0.33 0.799-0.36 1.129-0.066 0.294 0.261 0.35 0.689 0.152 1.013l-0.086 0.116-6.4 7.2c-0.272 0.306-0.723 0.352-1.048 0.13l-0.116-0.096-3.2-3.2c-0.312-0.312-0.312-0.819 0-1.131 0.278-0.278 0.709-0.309 1.021-0.092l0.111 0.092 2.6 2.6z"></path>
</symbol>
<symbol id="icon-checkmark" viewBox="0 0 32 32">
<path d="M5.398 16.268c-0.294-0.33-0.799-0.36-1.129-0.066s-0.36 0.799-0.066 1.129l6.4 7.2c0.306 0.344 0.838 0.36 1.164 0.034l16.8-16.8c0.312-0.312 0.312-0.819 0-1.131s-0.819-0.312-1.131 0l-16.2 16.2-5.836-6.566z"></path>
</symbol>
<symbol id="icon-document" viewBox="0 0 32 32">
<path d="M9.6 6.4c0-1.767 1.433-3.2 3.2-3.2h5.737c0.636 0 1.247 0.253 1.697 0.703l6.263 6.263c0.45 0.45 0.703 1.061 0.703 1.697v10.537c0 1.767-1.433 3.2-3.2 3.2h-11.2c-1.767 0-3.2-1.433-3.2-3.2v-16zM12.8 4.8c-0.884 0-1.6 0.716-1.6 1.6v16c0 0.884 0.716 1.6 1.6 1.6h11.2c0.884 0 1.6-0.716 1.6-1.6v-9.6h-5.6c-1.325 0-2.4-1.075-2.4-2.4v-5.6h-4.8zM19.2 5.131v5.269c0 0.442 0.358 0.8 0.8 0.8h5.269l-6.069-6.069z"></path>
<path d="M6.4 8c0-0.884 0.716-1.6 1.6-1.6v16c0 2.651 2.149 4.8 4.8 4.8h11.2c0 0.884-0.716 1.6-1.6 1.6h-9.697c-3.481 0-6.303-2.822-6.303-6.303v-14.497z"></path>
</symbol>
<symbol id="icon-launch" viewBox="0 0 32 32">
<path d="M17.208 10.282c1.249-1.249 3.273-1.248 4.522 0.001s1.25 3.273 0.001 4.522c-1.249 1.249-3.273 1.248-4.522-0.001s-1.25-3.273-0.001-4.522zM20.598 11.415c-0.624-0.624-1.636-0.624-2.259-0.001s-0.623 1.635 0.001 2.259c0.624 0.624 1.636 0.624 2.259 0.001s0.624-1.635-0.001-2.259z"></path>
<path d="M18.798 23.208c-0.891 0.422-1.988 0.265-2.726-0.472l-0.975-0.975-1.171 1.952c-0.127 0.211-0.344 0.352-0.588 0.383s-0.489-0.054-0.663-0.228l-4.529-4.529c-0.174-0.174-0.258-0.419-0.228-0.664s0.171-0.462 0.383-0.588l1.953-1.17-0.976-0.976c-0.737-0.737-0.895-1.835-0.472-2.726l-1.792-1.791c-0.312-0.312-0.312-0.819 0-1.131l1.696-1.696c1.477-1.477 3.676-1.791 5.46-0.942l1.5-1.5c2.65-2.65 6.552-3.609 10.129-2.49 1.217 0.381 2.17 1.334 2.551 2.551 1.119 3.577 0.16 7.479-2.49 10.129l-1.5 1.5c0.849 1.784 0.535 3.984-0.942 5.46l-1.696 1.696c-0.312 0.312-0.819 0.312-1.131 0l-1.792-1.792zM25.32 5.191c-3.008-0.941-6.291-0.134-8.52 2.095l-1.305 1.305 0.006 0.006-1.131 1.131-0.006-0.006-3.395 3.395 0.006 0.006-0.644 0.644c-0.233 0.313-0.207 0.758 0.077 1.042l6.796 6.795c0.285 0.285 0.731 0.31 1.044 0.075l0.642-0.642 0.006 0.006 3.395-3.395-0.006-0.006 1.131-1.131 0.006 0.006 1.305-1.305c2.229-2.229 3.036-5.511 2.095-8.52-0.224-0.717-0.785-1.278-1.502-1.502zM20.028 22.175l1.128 1.128 1.13-1.13c0.836-0.836 1.114-2.020 0.831-3.087l-3.089 3.089zM12.927 8.896c-1.067-0.282-2.25-0.005-3.087 0.832l-1.13 1.13 1.128 1.128 3.089-3.089zM13.931 20.595l-2.512-2.512-1.417 0.849 3.080 3.080 0.85-1.417z"></path>
<path d="M9.284 23.86c0.312-0.312 0.312-0.819 0-1.131s-0.819-0.312-1.131 0l-2.829 2.829c-0.312 0.312-0.312 0.819 0 1.131s0.819 0.312 1.131 0l2.829-2.829z"></path>
<path d="M7.020 20.464c0.312 0.312 0.312 0.819 0 1.132l-1.134 1.134c-0.312 0.312-0.819 0.312-1.131 0s-0.312-0.819 0-1.131l1.134-1.134c0.312-0.312 0.819-0.312 1.131 0z"></path>
<path d="M11.549 26.124c0.312-0.312 0.312-0.819 0-1.131s-0.819-0.312-1.131 0l-1.134 1.134c-0.312 0.312-0.312 0.819 0 1.131s0.819 0.312 1.131 0l1.134-1.134z"></path>
</symbol>
<symbol id="icon-network" viewBox="0 0 32 32">
<path d="M25.6 6.386c0 1.767-1.433 3.2-3.2 3.2-0.363 0-0.711-0.060-1.036-0.171l-2.054 3.109c0.914 0.87 1.485 2.098 1.49 3.458l1.872 0.324c0.497-1.123 1.621-1.906 2.928-1.906 1.767 0 3.2 1.433 3.2 3.2s-1.433 3.2-3.2 3.2c-1.671 0-3.043-1.281-3.188-2.915l-1.872-0.324c-0.396 1.153-1.22 2.108-2.282 2.676l0.711 2.172c0.076-0.005 0.153-0.008 0.23-0.008 1.767 0 3.2 1.433 3.2 3.2s-1.433 3.2-3.2 3.2c-1.767 0-3.2-1.433-3.2-3.2 0-1.123 0.578-2.11 1.453-2.682l-0.712-2.175c-0.241 0.037-0.489 0.057-0.741 0.057-1.581 0-2.984-0.764-3.858-1.944l-2.615 1.259c0.048 0.221 0.073 0.45 0.073 0.685 0 1.767-1.433 3.2-3.2 3.2s-3.2-1.433-3.2-3.2c0-1.767 1.433-3.2 3.2-3.2 0.958 0 1.817 0.421 2.404 1.088l2.613-1.258c-0.141-0.452-0.216-0.932-0.216-1.43 0-1.236 0.467-2.364 1.235-3.215l-1.496-1.878c-0.407 0.188-0.861 0.293-1.339 0.293-1.767 0-3.2-1.433-3.2-3.2s1.433-3.2 3.2-3.2c1.767 0 3.2 1.433 3.2 3.2 0 0.709-0.231 1.365-0.622 1.896l1.511 1.896c0.685-0.377 1.473-0.592 2.311-0.592 0.708 0 1.38 0.153 1.984 0.428l2.044-3.093c-0.515-0.568-0.828-1.321-0.828-2.148 0-1.767 1.433-3.2 3.2-3.2s3.2 1.433 3.2 3.2zM24 6.386c0-0.884-0.716-1.6-1.6-1.6s-1.6 0.716-1.6 1.6c0 0.884 0.716 1.6 1.6 1.6s1.6-0.716 1.6-1.6zM9.6 9.6c0.884 0 1.6-0.716 1.6-1.6s-0.716-1.6-1.6-1.6c-0.884 0-1.6 0.716-1.6 1.6s0.716 1.6 1.6 1.6zM16 19.2c1.767 0 3.2-1.433 3.2-3.2s-1.433-3.2-3.2-3.2c-1.767 0-3.2 1.433-3.2 3.2s1.433 3.2 3.2 3.2zM8 20.8c0-0.884-0.716-1.6-1.6-1.6s-1.6 0.716-1.6 1.6c0 0.884 0.716 1.6 1.6 1.6s1.6-0.716 1.6-1.6zM20.8 25.6c0-0.884-0.716-1.6-1.6-1.6s-1.6 0.716-1.6 1.6c0 0.884 0.716 1.6 1.6 1.6s1.6-0.716 1.6-1.6zM25.6 19.2c0.884 0 1.6-0.716 1.6-1.6s-0.716-1.6-1.6-1.6c-0.884 0-1.6 0.716-1.6 1.6s0.716 1.6 1.6 1.6z"></path>
</symbol>
</defs>
</svg>
