<?xml version="1.0" encoding="UTF-8"?>
<svg id="Group_45" xmlns="http://www.w3.org/2000/svg" version="1.1" viewBox="0 0 305.4 270">
  <!-- Generator: Adobe Illustrator 29.6.1, SVG Export Plug-In . SVG Version: 2.1.1 Build 9)  -->
  <defs>
    <style>
      .st0 {
        fill: #ddd;
      }
    </style>
  </defs>
  <path id="Path_138" class="st0" d="M189.3,9.4c-3-5.1-10.3-9.4-16.2-9.4h-40.8c-5.9,0-13.2,4.2-16.2,9.4L2.2,206.6c-3,5.1-3,13.6,0,18.7l20.4,35.3c3,5.1,10.3,9.4,16.2,9.4h40.4c5.9,0,13.2-4.2,16.2-9.4l20.4-35.3c3-5.1,3-13.6,0-18.7l-20.4-35.3c-3-5.1-3-13.6,0-18.7l20.4-35.3c3-5.1,7.8-5.1,10.8,0l82.7,143.3c3,5.1,10.3,9.4,16.2,9.4h41.1c5.9,0,13.2-4.2,16.2-9.4l20.4-35.3c3-5.1,3-13.6,0-18.7L189.3,9.4Z"/>
</svg>