<svg id="Group_45" data-name="Group 45" xmlns="http://www.w3.org/2000/svg" xmlns:xlink="http://www.w3.org/1999/xlink" width="305.424" height="270" viewBox="0 0 305.424 270">
  <defs>
    <clipPath id="clip-path">
      <rect id="Rectangle_33" data-name="Rectangle 33" width="305.424" height="270" fill="none"/>
    </clipPath>
  </defs>
  <g id="Group_44" data-name="Group 44" clip-path="url(#clip-path)">
    <path id="Path_138" data-name="Path 138" d="M189.289,9.353C186.319,4.209,179.029,0,173.089,0H132.335c-5.94,0-13.23,4.209-16.2,9.353L2.228,206.647c-2.97,5.144-2.97,13.562,0,18.706L22.6,260.647c2.97,5.144,10.26,9.353,16.2,9.353H79.239c5.94,0,13.23-4.209,16.2-9.353l20.376-35.294c2.97-5.144,2.97-13.562,0-18.706L95.439,171.353c-2.97-5.144-2.97-13.562,0-18.706l20.376-35.294c2.97-5.144,7.83-5.144,10.8,0l82.731,143.294c2.97,5.144,10.26,9.353,16.2,9.353H266.62c5.94,0,13.23-4.209,16.2-9.353L303.2,225.353c2.97-5.144,2.97-13.562,0-18.706Z" fill="#ffde59"/>
  </g>
</svg>