<?xml version="1.0" encoding="UTF-8"?>
<svg id="Layer_1" xmlns="http://www.w3.org/2000/svg" version="1.1" viewBox="0 0 500 500">
  <!-- Generator: Adobe Illustrator 29.6.1, SVG Export Plug-In . SVG Version: 2.1.1 Build 9)  -->
  <defs>
    <style>
      .st0 {
        fill: #e0e0e0;
      }

      .st1 {
        fill: #ebebeb;
      }

      .st2 {
        fill: #263238;
      }

      .st3 {
        fill: #1211ca;
      }

      .st4 {
        fill: #ffde59;
      }

      .st5, .st6 {
        fill: #fff;
      }

      .st7 {
        fill: #1abc9c;
      }

      .st8 {
        fill: #fafafa;
      }

      .st9 {
        opacity: .3;
      }

      .st10 {
        fill: #f5f5f5;
      }

      .st11 {
        fill: #455a64;
      }

      .st6 {
        isolation: isolate;
        opacity: .6;
      }
    </style>
  </defs>
  <g id="freepik--background-complete--inject-54">
    <path class="st10" d="M467.7,191.7c.7-5.4-6.9-9.9-12.7-10.4-2.8-.2-5.6.2-8.2-.7-5.6-2-7.9-9.2-13.4-11.6-4.1-1.7-8.9-.2-12.8,1.8s-7.9,4.5-12.4,4.8c-3.9.2-8.1-1.2-11.5.7-2.5,1.4-3.9,4.3-6.2,6s-5.3,2-8.1,2.2-5.8.2-8.3,1.4-4.7,3.9-4.2,6.7l97.8-.9Z"/>
    <path class="st8" d="M216.8,102.4c.6-4.3-5.4-7.8-10-8.2-2.2-.2-4.4.2-6.5-.6-4.4-1.6-6.2-7.3-10.5-9.1-3.2-1.4-7-.2-10.1,1.4s-6.2,3.6-9.8,3.8c-3,.2-6.4-.9-9,.6-2,1.1-3,3.4-4.9,4.8s-4.1,1.6-6.4,1.7-4.5.2-6.6,1.1-3.7,3.1-3.3,5.3l76.9-.8Z"/>
    <path class="st10" d="M170.4,74.1c1-7.2-9.1-13-16.7-13.7-3.6-.3-7.4.3-10.8-.9-7.4-2.6-10.4-12.2-17.7-15.2-5.4-2.3-11.7-.2-16.9,2.4s-10.4,6-16.3,6.4c-5.1.3-10.7-1.6-15.1.9-3.3,1.9-5.1,5.7-8.1,8-3.1,2.3-6.9,2.7-10.6,2.9s-7.6.2-11,1.8-6.2,5.1-5.5,8.8l128.8-1.4Z"/>
    <path class="st1" d="M90.9,338.7s-7.5-2.4-11,14.9-4,26.9-4,26.9c0,0-1.2,3.8-3.9,2.3s-7.4-6.5-10.8-4.5-3.6,6.8-1.1,12.9,7.4,19.7,7.9,20.9.2,3.2-1.8,2.5-14.9-8.9-18.5-2.6,6.2,22.2,7.2,24,.9,2.7.1,3.4-4.8-2.5-8.6-4.6-8.5-4.1-10.2-.2,1,17,19.2,34.6l8.9,7.6,11.1-3.8c23.4-9.5,30.9-20.7,30.7-24.9s-5.3-4.2-9.6-3.6-9.3,2-9.7,1.1-.2-1.9,1.4-3.1,16.6-12.3,15.6-19.5-16-4.4-18.1-4.5-1.6-2-.7-3,10.5-11.8,15.2-16.5,6.2-9.1,3.8-12.4-8.6-.2-11.7,0-2.8-3.6-2.8-3.6c0,0,3.1-9,6.3-26.4s-4.9-17.9-4.9-17.9"/>
    <path class="st0" d="M62.9,479.3c2.4-12.7,7.1-35.3,11-54.7s7.4-37,9.9-49.7c1.2-6.4,2.2-11.5,2.9-15.1.3-1.8.6-3.1.8-4.1,0-.5.2-.8.2-1.1s0-.4,0-.4v.4c0,.2,0,.6-.2,1.1-.2,1-.4,2.3-.7,4.1-.6,3.6-1.6,8.7-2.8,15.1-2.4,12.7-5.9,30.3-9.8,49.7s-8.6,42-11,54.7"/>
    <path class="st0" d="M67.3,385.6c.2.2.4.4.5.7.3.5.7,1.1,1.2,2,1,1.7,2.4,4,3.8,6.6l3.7,6.7,1.1,2c.2.2.3.5.4.8-.2-.2-.4-.4-.5-.7-.3-.5-.7-1.1-1.2-2-1-1.7-2.3-4-3.8-6.6s-2.7-4.9-3.7-6.6l-1.1-2c-.2-.2-.3-.5-.4-.8Z"/>
    <path class="st0" d="M79.1,404.3c0,0,4.6-3.1,10.5-6.6s10.6-6.4,10.7-6.3-4.6,3.1-10.5,6.6-10.6,6.4-10.7,6.3Z"/>
    <path class="st0" d="M71.7,433.8c.3-.1.5-.2.8-.3l2.3-.6c1.9-.5,4.6-1.3,7.4-2.2s5.5-1.8,7.3-2.5l2.2-.8c.3-.1.5-.2.8-.3-.2.2-.5.3-.8.4-.5.2-1.2.5-2.2.9-1.8.7-4.4,1.7-7.3,2.6s-5.6,1.6-7.5,2.1c-1,.2-1.8.4-2.3.5-.3,0-.6.1-.9.1Z"/>
    <path class="st0" d="M57.4,419.3c.2.1.4.3.6.5l1.6,1.5c1.3,1.3,3.2,3,5.2,5,2,2,3.8,3.8,5.1,5.1l1.5,1.6c.2.2.4.4.5.6-.2-.1-.4-.3-.6-.5l-1.6-1.5c-1.3-1.3-3.2-3-5.2-5s-3.8-3.8-5.1-5.1l-1.5-1.6c-.2-.2-.4-.4-.5-.6Z"/>
    <path class="st0" d="M47.6,444.5c.3.2.5.4.8.7l2,1.9c1.7,1.6,4.1,3.9,6.7,6.4s4.9,4.8,6.6,6.4l2,2c.3.2.5.5.7.8-.3-.2-.5-.4-.8-.7-.5-.5-1.2-1.1-2-1.9-1.7-1.6-4.1-3.9-6.7-6.4s-4.9-4.8-6.6-6.4l-2-2c-.3-.2-.5-.5-.7-.8Z"/>
    <path class="st0" d="M66,462.1c.3-.1.7-.3,1-.4l2.8-.9c2.4-.8,5.7-1.8,9.4-3.1s6.9-2.5,9.2-3.4l2.8-1.1c.3-.1.7-.3,1-.4-.3.2-.7.3-1,.5-.6.3-1.6.7-2.7,1.2-2.3,1-5.6,2.2-9.2,3.5s-7,2.3-9.4,3c-1.2.3-2.2.6-2.9.8-.3,0-.7.2-1,.2Z"/>
    <path class="st1" d="M297.8,409c4.1,0,8.1,1.7,10.9,4.6,2.8,3,4.9,6.5,6.1,10.4,2.6,7.4,2,16.5.4,24.1-8.4-2.3-14.1-10.7-16.7-15.1-4.1-7-7.4-22.2-.7-24"/>
    <path class="st1" d="M327.7,456.5c-2.8-3.7-3.4-8.6-1.5-12.9,1.9-4.2,5.4-7.4,9.7-9,2-.8,4.3-1.2,6.1-.1,1.7,1.1,2.6,3,2.5,5-.2,2-.9,3.9-2,5.5-3.6,5.7-8.1,10.5-14.8,11.6"/>
    <path class="st0" d="M328.5,476.2c-.6-1.6-1.1-3.3-1.4-5-.4-1.9-.6-3.8-.5-5.7,0-2.3.2-4.6.5-6.9.6-4.2,2.2-8.2,4.6-11.7.8-1,1.7-2,2.6-2.8.7-.6,1.1-.8,1.1-.8s-1.5,1.4-3.3,4c-2.3,3.4-3.7,7.4-4.3,11.4-.3,2.3-.5,4.5-.5,6.8,0,1.8,0,3.7.3,5.5.4,1.7.6,3.4.8,5.1Z"/>
    <path class="st0" d="M301.3,420.4c.5.7,1,1.5,1.4,2.2.8,1.5,2,3.6,3.4,6.3,2.8,5.3,6.7,12.7,10.7,21s7.5,15.9,9.9,21.5c1.2,2.8,2.1,5,2.8,6.6.4.8.7,1.6.9,2.5-.5-.7-.9-1.5-1.2-2.3-.8-1.7-1.8-3.9-3-6.5-2.5-5.5-6.1-13-10.1-21.3s-7.8-15.6-10.5-21.1c-1.3-2.6-2.4-4.8-3.2-6.4-.4-.8-.8-1.6-1.1-2.4Z"/>
    <path class="st1" d="M320,463.5c-6.7-7.1-16.3-10.6-26-9.4-2.4.3-5.2,1.3-5.8,3.7s1.4,4.6,3.4,6c8.6,5.9,19.9,6,28.6.3"/>
    <path class="st0" d="M299.2,459.1c.4-.1.9-.2,1.4-.1.9,0,2.2,0,3.8,0,4.2.1,8.3,1,12.1,2.6,2.1.9,4.1,2.2,5.8,3.8,2.3,2.2,4,4.9,5.1,7.8.2.4.3.9.4,1.3-.2,0-.9-1.8-2.5-4.4-1-1.5-2.2-2.9-3.5-4.1-1.7-1.5-3.5-2.7-5.6-3.6-3.8-1.6-7.8-2.5-11.8-2.8-1.7,0-3.4-.2-5.1-.5Z"/>
    <polygon class="st0" points="73.5 199.3 61.2 174 48.9 181.8 29.9 165.6 47.1 190.6 59.6 182.6 73.5 199.3"/>
    <polygon class="st0" points="69.8 206.2 52.7 197.9 49.4 207.2 32.5 206.5 52.2 212.6 55.5 203.1 69.8 206.2"/>
  </g>
  <g id="freepik--Plant--inject-54">
    <path class="st2" d="M401.5,452.9c-.2,0-.4,0-.6-.1-.4-.1-1-.3-1.8-.5-5.4-1.3-11.1-1.5-16.6-.6-13.8,2.4-25.4,11.7-30.8,24.7-.3.7-.5,1.3-.7,1.7,0,.2-.2.4-.3.6,0-.2,0-.4.2-.6.1-.4.3-1,.6-1.8.8-2.1,1.8-4.2,3-6.1,7.9-13.2,22.7-20.7,38-19.3,2.3.2,4.5.6,6.7,1.2.8.2,1.4.4,1.8.6.2,0,.4.1.6.2Z"/>
    <path class="st7" d="M398,451.3c-3.6,4.1-4.7,9.9-2.8,15.1.4,1,1.1,2.1,2.2,2.1s1.9-1.2,2.2-2.3c1.5-4.6,1.1-9.6-1.2-13.9,1.5,3.7,4,6.8,7.3,9,1.2.8,3,1.5,4.2.6s1-2.6.6-4c-1.8-4.8-6.6-7.9-11.8-7.6,4.6.3,8.9-2.2,10.9-6.4.7-1.6.8-3.8-.8-4.6-1-.4-2.1-.3-3,.2-3.8,1.6-6.7,4.9-7.9,8.8,2-4.5,1.1-9.8-2.3-13.4-1.1-1.1-2.6-2.1-4.1-1.6-1.9.5-2.5,2.9-2.4,4.8.2,4.9,2.6,9.5,6.5,12.4-2.6-1.6-5.8-1.9-8.5-.7-1.8.8-3.5,2.8-2.7,4.5s3.1,1.9,5,1.5c3.4-.6,6.5-2,9.3-4"/>
    <path class="st11" d="M363.6,459.2c5.7,7.1,14.2,11.3,23.2,11.5-.1-2-1.7-3.5-3.3-4.7-5.6-4.3-12.5-6.5-19.6-6.4"/>
    <path class="st2" d="M397.1,461.9c.4-1.9.8-3.8,1-5.8,0-2,0-3.9-.3-5.9,1.3,3.8,1.1,8-.7,11.6Z"/>
    <path class="st2" d="M404.6,457.7c-.8-1.3-1.8-2.6-2.9-3.7-1.9-1.8-3.9-2.8-3.8-2.9,1.6.5,3,1.4,4.2,2.6,1.3,1.1,2.2,2.5,2.5,4.1Z"/>
    <path class="st2" d="M404.2,444.6c-.4,1.5-1.2,2.9-2.4,4-1,1.2-2.4,2.1-4,2.4,1.3-.8,2.5-1.7,3.6-2.8,1-1.2,1.9-2.4,2.7-3.6Z"/>
    <path class="st8" d="M398,448.8c1,0,1.9.7,1.9,1.7,0,.5-.1,1-.4,1.3-.5-.4-1-.6-1.5-.8.1-.7.1-1.5,0-2.2"/>
    <path class="st2" d="M392.7,438.2c.6.4,1,1,1.4,1.6,2,2.8,3.2,6,3.5,9.4.1.7.1,1.4,0,2.1-.3-2.3-.8-4.6-1.6-6.9-.9-2.2-2.1-4.3-3.4-6.2Z"/>
    <path class="st7" d="M38.3,440.8c2.2,0,4.2.9,5.7,2.5,1.5,1.6,2.5,3.5,3.2,5.5,1.3,3.9,1,8.7,0,12.7-4.4-1.3-7.4-5.7-8.7-8.1-2.1-3.7-3.8-11.7-.2-12.7"/>
    <path class="st7" d="M53.8,466c-1.4-2-1.7-4.6-.7-6.8,1-2.2,2.9-3.9,5.2-4.7,1-.5,2.2-.5,3.2,0,.9.6,1.4,1.6,1.3,2.6-.1,1-.5,2-1.1,2.8-1.9,3-4.3,5.5-7.9,6"/>
    <path class="st2" d="M55.1,479.4c-.1-.3-.2-.5-.2-.8-.2-.6-.3-1.3-.6-2.2-.7-2.5-1.1-5-1-7.6.1-2.6,1-5.1,2.4-7.3.4-.6,1-1.2,1.5-1.8.2-.2.4-.3.5-.4s.2-.1.2-.1c-.7.7-1.4,1.5-2,2.4-1.4,2.2-2.1,4.6-2.3,7.2,0,2.5.2,5.1.8,7.5.2,1,.4,1.7.5,2.3,0,.3.1.6.1.8Z"/>
    <path class="st2" d="M40.1,446.8c0,0,.1.2.2.3l.5.9c.4.8,1,2,1.8,3.5,1.5,3,3.5,7,5.6,11.6s3.9,8.8,5.2,11.8c.6,1.5,1.1,2.8,1.5,3.6.2.4.3.7.4,1,0,.1,0,.2.1.4,0-.1-.1-.2-.2-.3-.1-.2-.3-.6-.4-1-.4-.9-.9-2.1-1.6-3.6-1.3-3-3.2-7.2-5.3-11.8s-4.1-8.7-5.5-11.7c-.7-1.5-1.3-2.6-1.7-3.5-.2-.4-.3-.7-.5-1,0,0-.1-.2-.2-.3Z"/>
    <path class="st7" d="M49.4,470.9c-2.9-4.2-7.7-6.8-12.8-6.9-1.3,0-2.8.3-3.3,1.5s.3,2.5,1.3,3.4c4,3.7,9.9,4.7,14.9,2.4"/>
    <path class="st2" d="M38.8,467.2c.3,0,.5,0,.8,0,.3,0,.6,0,.9,0,.4,0,.8,0,1.2.2.5,0,1,.2,1.5.3.6.1,1.1.3,1.7.5,1.2.5,2.4,1.1,3.5,1.8,1.1.8,2.1,1.6,3,2.6.4.4.7.9,1.1,1.4.3.4.6.8.8,1.3.2.4.4.7.6,1.1.1.3.3.6.4.9.1.2.2.5.3.8,0,0-.4-1.1-1.4-2.6-.2-.4-.5-.8-.8-1.2-.3-.5-.7-.9-1.1-1.3-.9-1-1.9-1.8-3-2.6-1.1-.7-2.3-1.3-3.5-1.8-.5-.2-1.1-.4-1.6-.5-.5-.2-1-.2-1.5-.4-1.8-.3-2.9-.3-2.9-.4Z"/>
  </g>
  <g id="freepik--404-error--inject-54">
    <polygon class="st11" points="323.8 480.1 351 480.1 389.9 291.3 363.9 285.9 323.8 480.1"/>
    <polygon class="st2" points="440.8 420.3 276.6 386.3 272 382.2 289.3 324.8 297 325.3 285.2 319.1 291.9 285.6 456.1 319.5 460.8 323.7 454 356.6 441 356.9 448.1 358.2 452.8 362.4 440.8 420.3"/>
    <polygon class="st11" points="436.2 416.1 272 382.2 284.7 320.6 292.3 321.1 286 314.5 291.9 285.6 456.1 319.5 449.3 352.4 436.3 352.7 448.1 358.2 436.2 416.1"/>
    <path class="st2" d="M439.8,352.3h-1.5c0,0-4.4-.4-4.4-.4l-3.2-.3-3.8-.5c-2.7-.3-5.8-.7-9.2-1.2l-5.4-.8c-1.9-.3-3.8-.7-5.8-1-4-.7-8.2-1.6-12.7-2.5-8.9-1.9-18.7-4.2-28.8-6.8-20.4-5.2-38.7-10.3-52.1-13.5-3.3-.9-6.4-1.5-9-2.2s-5-1.2-6.8-1.6l-4.3-1-1.1-.3c-.1,0-.3,0-.4-.1.1,0,.3,0,.4,0l1.1.2,4.3.9c1.9.4,4.2.9,6.9,1.5s5.7,1.3,9.1,2.1c13.4,3.2,31.8,8.1,52.1,13.4,10.2,2.6,19.9,4.9,28.8,6.8,4.5.9,8.7,1.8,12.7,2.5,2,.4,3.9.7,5.8,1l5.3.9c3.4.6,6.5.9,9.2,1.3l3.8.5,3.2.3,4.4.5h1.1c0,.1.4.2.4.2Z"/>
    <path class="st2" d="M448.1,347.1c-.1,0-.3-.2-.4-.2l-1-.8c-.9-.6-2.2-1.7-4-2.9-4.9-3.5-10.1-6.6-15.4-9.4-7.9-4.2-16.1-7.6-24.7-10.3-10.4-3.2-21.2-5.2-32.1-5.9-11.6-.9-22.7.3-32.8.5-4.8.2-9.6,0-14.4-.3-10.2-.8-20.2-3.3-29.6-7.2-2-.8-3.5-1.5-4.5-2l-1.1-.6-.4-.2c.1,0,.3,0,.4.2l1.2.5c1,.5,2.5,1.1,4.5,1.9,5.6,2.2,11.4,4,17.3,5.2,4.1.8,8.2,1.4,12.3,1.7,4.8.3,9.5.4,14.3.2,10.1-.3,21.2-1.4,32.8-.6,11,.7,21.8,2.7,32.3,6,8.5,2.7,16.8,6.2,24.7,10.4,5.3,2.9,10.4,6.1,15.3,9.6,1.7,1.2,3,2.3,3.9,3l1,.8c.1,0,.2.2.3.3Z"/>
    <path class="st2" d="M368.7,303c-.2.1-.5.2-.8.3l-2.2.7c-1,.3-2.2.6-3.6,1s-3,.8-4.8,1.1-3.7.8-5.9,1-4.4.6-6.8.9c-5.2.5-10.4.7-15.7.6-5.2-.1-10.4-.6-15.6-1.3-2.4-.4-4.6-.7-6.7-1.2s-4-.9-5.8-1.3-3.4-.9-4.7-1.3-2.6-.8-3.5-1.1l-2.2-.8c-.3,0-.5-.2-.8-.3.3,0,.5,0,.8.2l2.2.7c1,.3,2.2.6,3.6,1s3,.8,4.8,1.2,3.7.9,5.8,1.2,4.4.8,6.7,1.1c5.2.7,10.3,1.1,15.5,1.2,5.2,0,10.4,0,15.6-.6,2.4-.3,4.6-.5,6.8-.8s4.1-.6,5.9-1,3.4-.7,4.8-1,2.6-.6,3.6-.9l2.3-.5c.3,0,.6,0,.8,0Z"/>
    <path class="st2" d="M325,361.7s.3.1.7.4l2.2,1.3c1.9,1.1,4.7,2.9,8.4,4.9,4.5,2.5,9.3,4.4,14.3,5.5,1.5.3,3,.6,4.6.7,1.6.2,3.2-.2,4.6-1,.7-.5,1.2-1.2,1.4-2,.2-.8.2-1.7,0-2.5-.5-1.7-1.6-3.2-3.1-4.2-12.5-8.3-30.1-14.4-50.1-14.9-2.5,0-5,0-7.6,0s-5.2.7-6.9,2.6c-.9.9-1.3,2.1-1.3,3.4,0,1.3.6,2.5,1.4,3.5,1.6,2.1,3.9,3.5,6.2,5,9,6.1,18.5,12.2,29.2,16.4s22.1,6.1,32.8,4.5c2.6-.4,5.3-1,7.8-1.8,2.5-.7,4.8-2.1,6.5-4.1,1.5-2,2.3-4.5,2.3-7.1,0-2.5-.5-5-1.6-7.2-2.2-4.3-5.5-8-9.7-10.5-3.9-2.4-8.1-4.2-12.5-5.4-4.2-1.2-8.5-2.1-12.5-3l-11.6-2.6-34.9-7.9-9.5-2.2-2.5-.6c-.6-.1-.8-.2-.8-.2l.9.2,2.5.5,9.5,2.1,35,7.7,11.6,2.6c4,.9,8.2,1.8,12.5,3,4.5,1.2,8.7,3,12.7,5.5,4.2,2.6,7.6,6.3,9.9,10.7,1.1,2.3,1.7,4.9,1.7,7.5,0,2.7-.8,5.3-2.4,7.4-1.8,2-4.1,3.5-6.7,4.3-2.6.9-5.2,1.5-7.9,1.9-10.9,1.6-22.4-.3-33.1-4.5s-20.4-10.3-29.3-16.4c-2.2-1.5-4.6-3-6.3-5.2-.9-1.1-1.4-2.4-1.5-3.8,0-1.4.5-2.8,1.5-3.8.9-1,2.1-1.7,3.4-2.1,1.3-.4,2.6-.6,3.9-.6,2.6-.1,5.1,0,7.6,0,20.1.6,37.8,6.7,50.4,15.1,1.6,1.1,2.8,2.6,3.3,4.5.2.9.2,1.8,0,2.7-.2.9-.8,1.6-1.5,2.2-1.5.9-3.2,1.3-4.9,1.1-1.6-.1-3.1-.4-4.6-.7-5-1.2-9.8-3.1-14.3-5.7-3.7-2-6.5-3.8-8.4-5-.9-.6-1.6-1-2.1-1.4s-.8-.5-.8-.5Z"/>
    <path class="st2" d="M444.9,372.3c-.3,0-.7-.1-1-.2-.6-.2-1.5-.4-2.7-.6-3.4-.5-6.8-.5-10.2,0-5,.8-9.9,2.4-14.5,4.7-5.6,2.8-10.9,6-16.1,9.6-5.2,3.6-10.6,6.7-16.2,9.5-4.6,2.2-9.6,3.7-14.7,4.4-3.4.5-6.9.4-10.3-.3-.9-.2-1.8-.4-2.7-.7-.3,0-.6-.2-.9-.3.3,0,.6.1,1,.2.6.2,1.5.4,2.7.6,3.4.6,6.8.6,10.2,0,5-.8,9.9-2.3,14.5-4.5,5.6-2.8,11-6,16.1-9.5,5.2-3.5,10.6-6.7,16.2-9.6,4.6-2.3,9.6-3.8,14.6-4.6,3.4-.5,6.9-.5,10.3.1.9.2,1.9.4,2.8.7.3,0,.6.2.9.3Z"/>
    <path class="st2" d="M441.9,388.6c0,0-.8-.3-2.2-.6-2-.4-4.1-.5-6.2-.2-3,.5-6,1.4-8.8,2.7-3.5,1.5-6.8,3.3-10.1,5.3-3.5,2.1-6.8,4.1-10,5.6-2.8,1.4-5.8,2.5-8.8,3.2-2.1.5-4.2.7-6.3.6-.6,0-1.1,0-1.7-.1-.2,0-.4,0-.6-.1,0,0,.8,0,2.3,0,2.1,0,4.2-.3,6.2-.8,3-.8,5.9-1.9,8.7-3.3,3.1-1.5,6.4-3.5,9.9-5.6,3.3-2,6.7-3.8,10.2-5.3,2.9-1.3,5.9-2.2,9-2.6,2.1-.3,4.2-.1,6.3.4.6.2,1.1.3,1.6.5.2,0,.4.2.5.3Z"/>
    <path class="st2" d="M389,305.8c0,.2-6.3-1.1-14.1-2.8s-14-3.2-13.9-3.4,6.3,1.1,14.1,2.8,13.9,3.2,13.9,3.4Z"/>
    <path class="st5" d="M343.5,343.7l-5.1-1.1-1.4,6.6-9.5-2.1,1.4-6.6-18.3-4,1.4-6.4,20.2-18.2,10.1,2.2-18.5,17.2,7,1.5,1.3-5.9,9.2,2-1.3,5.9,5.1,1.1-1.7,7.8Z"/>
    <path class="st5" d="M347.8,333.4c2.5-11.4,10.3-16.6,19.2-14.7s13.8,9.9,11.3,21.3-10.4,16.6-19.1,14.7-13.8-9.9-11.3-21.3ZM368.5,337.9c1.6-7.3-.1-10.5-3.2-11.2s-6,1.5-7.6,8.8.1,10.5,3.3,11.2,6-1.5,7.6-8.8Z"/>
    <path class="st5" d="M412,358.6l-5.1-1.1-1.4,6.6-9.6-2.1,1.5-6.6-18.3-4,1.4-6.4,20.2-18.2,10.1,2.2-18.5,17.1,7,1.5,1.3-5.9,9.2,2-1.3,5.9,5.1,1.1-1.7,7.8Z"/>
    <path class="st5" d="M336.2,368.2l-.5,2.2-10.4-2.4,3.2-13.9,10.1,2.4-.5,2.2-7.5-1.8-.9,3.6,6.7,1.6-.5,2.1-6.7-1.6-.9,3.8,7.8,1.8Z"/>
    <path class="st5" d="M347.6,373.2l-1.9-4.7c-.2,0-.4,0-.5-.1l-3.1-.7-1,4-2.6-.6,3.3-13.9,5.7,1.3c3.6.9,5.5,3.2,4.8,6.3-.4,2-2,3.5-4,3.7l2.1,5.3-2.8-.6ZM346.9,360.7l-3-.7-1.3,5.5,3,.7c2.3.5,3.7-.2,4.1-2s-.5-3-2.8-3.5h0Z"/>
    <path class="st5" d="M362.1,376.6l-1.9-4.7c-.2,0-.4,0-.5-.1l-3.1-.8-1,4-2.6-.6,3.2-13.9,5.7,1.3c3.6.9,5.5,3.2,4.8,6.3-.4,2-2,3.5-4,3.7l2.1,5.3-2.7-.6ZM361.4,364.1l-3-.7-1.3,5.5,3,.7c2.3.5,3.7-.2,4.1-2s-.5-3-2.8-3.5h0Z"/>
    <path class="st5" d="M368.2,370.7c1-4.1,4.9-6.4,9.1-5.4s6.8,4.8,5.8,8.9-4.9,6.4-9.1,5.4-6.8-4.8-5.8-8.9ZM380.6,373.6c.6-2.7-1-5.4-3.7-6-2.7-.6-5.4,1-6,3.7-.6,2.7,1,5.4,3.7,6,0,0,0,0,0,0,2.6.7,5.3-.9,5.9-3.5,0,0,0-.2,0-.3h0Z"/>
    <path class="st5" d="M393.4,383.9l-1.9-4.7h-.5c0-.1-3.1-.8-3.1-.8l-1,4-2.6-.6,3.3-13.9,5.7,1.3c3.6.9,5.5,3.2,4.8,6.3-.4,2-2,3.5-4,3.7l2.1,5.3-2.8-.6ZM392.6,371.4l-3-.7-1.3,5.5,3,.7c2.3.5,3.7-.2,4.1-2s-.5-3-2.8-3.5Z"/>
  </g>
  <g id="freepik--Ballon--inject-54">
    <path class="st2" d="M348.7,143.2c.1,0,.3.1.4.2l1.1.6c1.3.8,2.6,1.8,3.8,2.8,4.5,3.8,7.8,8.7,9.9,14.2,1.4,3.8,2.1,7.8,2.1,11.8,0,4.6-.8,9.2-2.4,13.6-1.7,4.8-4.5,9.3-8,13-1.9,2-4,3.7-6.3,5.1-2.4,1.4-5,2.5-7.7,3.2-5.4,1.2-10.9,1.5-16.3.9-5.3-.4-10.3-1.1-15.2-1.3-4.6-.3-9.2,0-13.6,1.1-3.9.9-7.5,2.7-10.6,5.3-2.5,2.1-4.4,4.9-5.4,8.1-.8,2.4-1,4.9-.7,7.3.2,1.6.7,3.1,1.5,4.4.5.9.9,1.4.9,1.4-.3-.4-.7-.9-.9-1.4-.8-1.4-1.3-2.9-1.6-4.5-.4-2.5-.2-5,.6-7.4,1-3.2,2.9-6.1,5.4-8.2,3.1-2.6,6.8-4.5,10.7-5.4,4.5-1.1,9.1-1.5,13.8-1.2,4.9.2,9.9.9,15.2,1.3,5.4.5,10.9.2,16.2-.9,2.7-.7,5.2-1.7,7.6-3.1,2.3-1.4,4.4-3.1,6.2-5,3.5-3.7,6.2-8,7.9-12.8,1.6-4.3,2.4-8.8,2.4-13.4,0-4-.7-7.9-2-11.7-2.5-7-7.2-13-13.4-17l-1-.6-.4-.2Z"/>
    <path class="st10" d="M279.5,17c2.6,7.5,5.2,15.2,5.6,23.2s-1.8,16.4-7.6,21.8c-6.7,6.4-16.6,7.6-25.8,8.5,6.6.2,13.9,1.8,17.8,7.1,4.5,6.1,3.1,14.8,0,21.7s-7.6,13.4-8.9,20.8c16.1-10.2,37.5-5.4,47.7,10.7,3.6,5.7,5.5,12.3,5.4,19,5.7-10.7,15.5-19.5,27.1-22.8s25.2-.6,33.9,7.8c-14.1-20.3-9-48.2,11.3-62.3.3-.2.6-.4,1-.7-5.3,4.4-13.6,3.9-19.3,0s-8.9-10.7-10.1-17.5-.6-13.8,0-20.7c-6,7.8-18.4,9.6-26.4,3.7-8.1-6-10.2-17-11.6-27,.7,9.8-6.8,19.5-16.4,21.3-9.6,1.8-20.1-4.7-22.9-14.1"/>
    <path class="st3" d="M343.7,137.6c-.7,4.7.6,9.5,2.1,14.1.2.9.7,1.7,1.3,2.4.6.7,1.6.9,2.5.6.7-.4,1.3-1.2,1.5-2,.6-1.8.9-3.6.9-5.4,1.5,1.1,3.1,2.2,5,2.3s3.9-1.4,3.6-3.2c-.3-1-.9-1.9-1.8-2.5l-9.9-9.1-5.1,2.9"/>
    <path class="st3" d="M290.9,42.4s-26.3,19.4-18.3,50.5l2.6.3,9.3-9.6,12.8,17.8-1.8-18.1,5.5,4,9.4-19.6s-14-10-12-19.8c0,0-8.2-.5-7.6-5.4Z"/>
    <path class="st3" d="M280.6,108c1.3,8.1,5.3,15.6,11.4,21.2l15.6-9.4s-20.3-3.7-27-11.8Z"/>
    <path class="st3" d="M313.4,128.8s7.2,11.6,25.5,11c13-.4,21.4-17,18.1-32.8l-10.6,8-3.9-2.6v8.4s-4.3,6.2-9.8,2.7c0,0-4.8,10.2-19.3,5.3Z"/>
    <path class="st3" d="M320.1,39c-.6.3,12.5,15.7,12.6,25,0,0,4.3-8.5,13.2-8.8,0,0,.3-7.3,7.5-5.8,0,0-15.2-18.2-33.2-10.4Z"/>
    <path class="st3" d="M362.8,69.3s6.2,10.9,6,22c0,0-9-9.2-16.2-2.7l-1.8-4.4s4.3-.8,4.2-6-5.1-8.2-5.1-8.2c0,0,9.8,8.2,12.8-.7Z"/>
    <path class="st2" d="M309.3,96.1c0,.1-11.4,3-25.5,6.4s-25.6,6-25.7,5.9,11.4-3,25.5-6.4,25.6-6,25.7-5.9Z"/>
    <path class="st2" d="M312.3,78c0,.1-6.2-2-13.8-4.7s-13.6-5-13.6-5.2,6.2,2,13.8,4.7,13.6,5.1,13.6,5.2Z"/>
    <path class="st2" d="M303.3,10.5c.1,0,4.9,13.5,10.7,30.2s10.4,30.3,10.2,30.3-4.9-13.5-10.7-30.2-10.4-30.3-10.2-30.3Z"/>
    <path class="st2" d="M341.4,49.3c0,1,0,2,0,3-.1,1.8-.4,4.3-.9,7.1s-1,5.2-1.5,7c-.2,1-.5,1.9-.9,2.8.1-1,.3-2,.5-2.9.4-1.8.9-4.3,1.3-7s.8-5.2,1-7c0-1,.2-2,.5-3Z"/>
    <path class="st2" d="M379.5,51.2c0,.1-8.7,5.4-19.5,11.7s-19.7,11.4-19.8,11.3,8.7-5.4,19.5-11.7,19.7-11.4,19.8-11.3Z"/>
    <path class="st2" d="M379.6,99.9c-.5,0-1,0-1.5,0-.9-.1-2.3-.3-3.9-.5-3.3-.4-7.9-1.1-12.9-2s-9.6-1.8-12.8-2.5c-1.6-.3-3-.6-3.9-.9-.5,0-.9-.2-1.4-.4.5,0,1,0,1.4.2l3.9.7,12.9,2.3,12.9,2.2,3.9.7c.5,0,1,.2,1.4.3Z"/>
    <path class="st2" d="M365.1,143.1c-.1.1-7.7-8.2-17-18.5s-16.8-18.8-16.6-18.9,7.7,8.2,17,18.6c9.3,10.3,16.8,18.8,16.6,18.9Z"/>
    <path class="st2" d="M304.5,139.3c0-.4.2-.8.4-1.1.3-.7.7-1.8,1.2-3,1-2.6,2.5-6.1,4.3-9.9s3.4-7.3,4.6-9.8c.6-1.2,1.1-2.2,1.5-2.9.2-.4.4-.7.6-1-.1.4-.3.8-.4,1.1l-1.3,3c-1.2,2.6-2.8,6-4.5,9.8-1.7,3.8-3.2,7.2-4.4,9.8-.5,1.2-1,2.2-1.4,3-.1.3-.3.6-.6.9Z"/>
    <path class="st2" d="M312.3,89c0,0,.8-.2,2-.7,3.2-1.2,5.3-4.2,5.5-7.6,0-1.3-.1-2.1,0-2.1.3.7.4,1.4.4,2.1,0,3.6-2.3,6.8-5.7,7.9-.7.3-1.4.4-2.2.3Z"/>
    <path class="st2" d="M320.5,103.2c0,0,.4-.7.6-1.9.7-3.2-1.3-6.4-4.5-7.3-1.2-.3-2-.2-2-.3.7-.2,1.4-.2,2.1,0,3.4.7,5.6,3.9,4.9,7.3,0,.1,0,.3-.1.4-.1.7-.4,1.3-.9,1.8Z"/>
    <path class="st2" d="M340,94.7c0,0-.9-.2-2.3-.4-1.9-.2-3.7,0-5.5.7-1.7.7-3.3,1.8-4.5,3.3-.9,1.1-1.3,1.9-1.4,1.9.2-.8.6-1.5,1.1-2.2,2.4-3.2,6.4-4.8,10.3-4.1.8,0,1.6.4,2.3.8Z"/>
    <path class="st2" d="M339.5,88.9c-.6,0-1.2,0-1.7-.4-1.3-.6-2.4-1.6-3.1-2.9-.6-1.3-.8-2.8-.5-4.2,0-.6.3-1.1.7-1.6,0,0-.2.6-.4,1.7-.2,1.3,0,2.7.6,3.9.6,1.2,1.6,2.2,2.8,2.8.9.5,1.5.6,1.5.7Z"/>
    <path class="st2" d="M333.6,76.3c-.4.4-.8.8-1.3,1.1-1.1.8-2.4,1.3-3.8,1.5-1.4,0-2.8-.6-3.6-1.7-.6-.9-.4-1.7-.4-1.7.1.5.4,1,.6,1.4.8,1,2,1.5,3.3,1.4,1.3-.1,2.5-.6,3.6-1.3.5-.3,1-.6,1.5-.7Z"/>
    <g class="st9">
      <path d="M343.5,138.9c2.1-1,4-2.2,5.8-3.7l1.9,1.7c-2.5,1.8-5.4,3.5-7.6,5.8-.1-1.3-.2-2.5,0-3.8"/>
    </g>
    <path class="st2" d="M349.9,134.5c-1.6,2.4-4.1,4-6.9,4.5,0-.1,1.7-.7,3.6-1.9s3.2-2.6,3.3-2.5Z"/>
    <path class="st8" d="M345.9,134.8c-.3.2-.7.4-1.1.5-.4.2-.9.4-1.3.5-.6.2-1.2.4-1.8.6-1.6.4-3.2.7-4.8.9-2,.2-4,.1-6,0-2-.3-3.9-.7-5.8-1.3-1.5-.5-3-1.2-4.5-2-.6-.3-1.1-.7-1.6-1-.4-.2-.8-.5-1.1-.8-.3-.2-.6-.5-.9-.8,0,0,1.4,1,3.9,2.2,1.4.7,2.9,1.3,4.4,1.8,3.7,1.2,7.7,1.7,11.6,1.4,1.6-.1,3.2-.4,4.7-.8,2.7-.6,4.2-1.3,4.3-1.2Z"/>
    <path class="st8" d="M346.5,151.2c-.7-1.2-1.2-2.5-1.3-3.9-.3-1.3-.3-2.8,0-4.1.2,0,.1,1.8.5,4s.9,3.9.8,4Z"/>
    <path class="st8" d="M290.7,124.7c-.6-.4-1.2-.9-1.7-1.4-2.5-2.5-4.6-5.5-6.1-8.8-.3-.7-.6-1.4-.8-2.1.1,0,1.5,3,3.8,6.4s4.8,5.7,4.7,5.8Z"/>
    <path class="st8" d="M281.3,57.8c0,0-.9,1.6-2.3,4.1-3.5,6.7-5.3,14.2-5.4,21.8,0,2.9.1,4.7,0,4.7-.1-.4-.2-.8-.2-1.2-.1-1.1-.2-2.3-.2-3.5,0-3.8.4-7.6,1.3-11.3.9-3.7,2.3-7.3,4.1-10.6.7-1.3,1.3-2.3,1.8-3,.2-.3.5-.7.8-1Z"/>
    <path class="st8" d="M288.6,49.1c0,.1-.5.8-1.4,1.5s-1.6,1.2-1.7,1.1.5-.8,1.4-1.5,1.6-1.2,1.7-1.1Z"/>
    <path class="st2" d="M309.1,294.6c.2.2.4.4.6.7.4.7.6,1.6.5,2.4-.2,1.3-.8,2.6-1.7,3.5-1.2,1.3-2.7,2.3-4.3,3-2,.9-4.1,1.2-6.2,1-2.5-.3-4.8-1.3-6.6-3-2-1.9-3.3-4.4-3.6-7.1-.4-2.9,0-5.8,1.3-8.5,1.2-2.6,2.7-5.1,4.7-7.2,1.8-2.1,3.7-4,5.2-6,1.5-1.8,2.6-4,3.1-6.3,1.1-5.1-.6-10.4-4.5-13.7-.8-.7-1.8-1.3-2.7-1.9,1,.4,2,1,2.8,1.8,2.4,2,4.1,4.7,4.8,7.7.5,2.1.5,4.2,0,6.3-.6,2.4-1.6,4.6-3.2,6.5-1.5,2-3.4,3.9-5.2,6-1.9,2.1-3.4,4.5-4.6,7.1-1.1,2.6-1.6,5.4-1.2,8.2.3,2.6,1.5,5,3.4,6.9,1.8,1.6,4,2.6,6.3,2.9,2.1.2,4.1,0,6-.9,3.5-1.5,5.8-4,5.9-6.2,0-.8,0-1.6-.4-2.4-.3-.5-.5-.7-.5-.7Z"/>
  </g>
  <g id="freepik--Character--inject-54">
    <path class="st4" d="M106.6,427.8c2.9-13.7,19.7-113.2,19.7-113.2,0,0-12.1,1.9-14.6,6.3-2.7,4.8-15.7,78.1-17.2,102.9-1.2,0-2.4,0-3.6,0-3,.2-5.9,1.4-8.2,3.5-2.6,2.7-3.4,6.6-2.2,10.1.7,1.8,1.9,3.4,3.5,4.5-.2,2.1.5,4.7,2.2,5.8,2,1.3,4.5,1.2,6.5-.2.6,1.9,2.6,2.9,4.5,2.3.8-.3,1.5-.8,1.9-1.5.8,1.9,3.4,2,5.3,1.3,3.6-1.4,6.2-4.5,7-8.3.7-3.7-.1-7.6-2.3-10.7-.7-1-1.6-2-2.6-2.8Z"/>
    <g class="st9">
      <path d="M109,413.5c-7.2-12.6-10.8-26-5.4-45.5,3.9-14,11.6-28.2,18.7-40.8"/>
    </g>
    <path class="st2" d="M105.1,440.3c.3-.2.6-.5.9-.8.7-.8,1-1.9.7-2.9-.4-1.5-1.7-2.6-3.2-2.8-1.9-.2-3.8.7-4.9,2.2-1.2,1.5-1.8,3.4-1.8,5.3,0,1.6.2,3.1.9,4.6.6,1.3,1.5,2.5,2.5,3.5,0,0,0,0-.3-.2-.2-.2-.5-.4-.7-.6-.8-.8-1.4-1.7-1.9-2.7-.7-1.5-1-3.1-1-4.8,0-2,.7-4,1.9-5.6,1.3-1.7,3.3-2.6,5.4-2.3,1.7.3,3.1,1.5,3.5,3.2.2,1.1-.1,2.3-.9,3.1-.2.2-.5.4-.7.5-.2,0-.3,0-.3,0Z"/>
    <path class="st2" d="M82.9,441.2c.3.2.7.3,1,.5.9.5,1.9.7,2.9.8,1.5.1,2.9-.1,4.3-.8.8-.4,1.5-.9,2-1.6.6-.7.8-1.6.7-2.5-.4-1.6-1.2-3.1-2.4-4.2-1-1-2.2-1.7-3.5-2.2l-.6-.2.6-.2c1.6-.4,3.1-1,4.6-1.7-.3.3-.7.6-1.1.7-1.1.6-2.2,1-3.3,1.4v-.4c1.4.5,2.6,1.2,3.7,2.2.6.6,1.2,1.2,1.6,2,.5.8.8,1.6,1,2.5.2,1-.1,2.1-.8,2.9-.6.7-1.3,1.3-2.2,1.7-1.4.7-3,1-4.5.8-1-.1-2-.5-2.9-1-.2-.1-.5-.3-.7-.5-.2-.1-.2-.2-.2-.2Z"/>
    <path class="st2" d="M92.1,441.3c.2,0-.4,1.5-.2,3.3.3,1.1.6,2.1,1,3.1-.9-.8-1.4-1.9-1.5-3.1-.2-1.2,0-2.4.7-3.4Z"/>
    <path class="st2" d="M99.4,434.3c0-.4-.2-.8-.5-1.2-.2-.4-.6-.7-1-.9-.5-.2-1.1-.3-1.6-.1-1,.3-1.9.9-2.6,1.7-.5.6-.8,1.1-.8,1.1s0-.5.5-1.3c.6-1,1.6-1.7,2.7-2,.7-.1,1.3,0,1.9.2.5.2.9.6,1.1,1.1.4.8.2,1.4.1,1.4Z"/>
    <g class="st9">
      <path d="M88.2,430.9c1.6-.4,3.4,0,4.6,1.2,1-1.2,2.4-2.1,4-2.5,1.6-.3,3.2.6,3.7,2.2,2-.9,4.4,0,5.3,2,.2.4.3.8.3,1.2-1.8-1.9-4.7-2.2-6.9-.8,0-1-.7-1.9-1.7-2.2-1-.3-2,0-2.8.5-.8.6-1.4,1.4-1.9,2.3-1.1-1.9-2.8-3.3-4.9-4.1"/>
    </g>
    <path class="st5" d="M84.8,440.6c-.7-.3-1.3-.8-1.8-1.4-2.6-2.9-2.9-7.2-.8-10.5.4-.7.9-1.3,1.5-1.7,0,0-.6.7-1.2,1.9-1.8,3.2-1.5,7.2.7,10,.8,1.1,1.6,1.6,1.5,1.7Z"/>
    <path class="st4" d="M301.6,245.2c-.7-1.9-2.5-3.8-4.4-3.3.6-1.9-.4-3.9-2.3-4.5-.8-.3-1.7-.2-2.5,0-.2-2.4-1.7-4.4-4-5.1-1.9-.6-4.4.5-5.9,2-1.9-.5-3.8-.5-5.7.1-3.5,1.2-6,4.3-6.4,8-.2,3,.7,6.1,2.5,8.5,1.5,2.1,3.3,4,5.2,5.7-10.3,48.1-63.1,56.5-63.1,56.5l4.9,19.4c50.6-12.5,64.5-52.8,68.3-71.8h1.3c3.8-.3,7.3-2.1,9.8-5,2.4-3,3.2-6.9,2.1-10.6Z"/>
    <path class="st2" d="M294.7,251.7c0,0,0,.2.1.3,0,.3,0,.6,0,.9-.1,1.1-.8,2.1-1.8,2.7-1.6.7-3.4.5-4.7-.7-1.5-1.5-2.1-3.6-1.6-5.7.5-2,1.6-3.8,3.1-5.1,1.3-1.1,2.7-1.8,4.3-2.2,1.1-.3,2.2-.3,3.3-.2.3,0,.6,0,.9.2.2,0,.3,0,.3.1-1.5-.2-2.9,0-4.3.3-1.5.4-2.9,1.2-4.1,2.2-1.5,1.3-2.5,2.9-3,4.8-.5,1.9,0,3.8,1.4,5.2,1.1,1.1,2.8,1.4,4.2.8.9-.5,1.6-1.4,1.8-2.4,0-.4,0-.8,0-1.2Z"/>
    <path class="st2" d="M281.4,234h.3c.3,0,.6.1.8.2,1,.3,1.9.9,2.6,1.6,1.1,1.1,1.9,2.5,2.3,4,.2.9.2,1.9,0,2.8-.2,1-.9,1.9-1.8,2.4-.8.5-1.7.7-2.6.8-2.3.3-4.6-.3-6.6-1.5l.3-.2c.5,1.1.8,2.3,1.1,3.4.1.4.2.9.1,1.3-.4-1.6-.9-3.1-1.5-4.6l-.3-.6.6.3c1.2.7,2.5,1.2,3.9,1.3,1.6.2,3.3,0,4.8-.8.8-.5,1.3-1.2,1.5-2.1.2-.8.2-1.7,0-2.5-.3-1.4-1-2.8-2-3.8-.7-.7-1.5-1.3-2.5-1.7-.6-.3-1-.4-1-.4Z"/>
    <path class="st2" d="M287.3,240.9c.3-1.1,1.1-2.1,2.1-2.7,1-.7,2.2-1,3.3-.8-1,.3-2.1.7-3.1,1.2-1.5.9-2.3,2.3-2.4,2.2Z"/>
    <path class="st2" d="M286.5,251.1s-.3.6-1.2.8c-.5,0-1.1,0-1.6-.2-.6-.3-1.1-.8-1.4-1.4-.5-1.1-.6-2.3-.2-3.4.3-.8.6-1.3.7-1.2,0,.5-.2.9-.3,1.3-.3,1-.2,2.1.3,3.1.2.5.6.9,1.1,1.2.4.2.9.3,1.3.3.4,0,.9-.2,1.2-.4Z"/>
    <g class="st9">
      <path d="M276.8,244.6c.7,1.5,2.2,2.6,3.9,2.8-.3,1.6,0,3.2.6,4.7.8,1.4,2.7,2.2,4.1,1.5.6,2.1,2.8,3.4,4.9,2.8.4-.1.7-.3,1.1-.5-2.6-.2-4.7-2.3-5-4.9-.8.6-1.9.7-2.8,0-.8-.6-1.3-1.5-1.4-2.5,0-1,.1-2,.6-2.9-2.1.4-4.4,0-6.2-1.2"/>
    </g>
    <path class="st4" d="M147.7,431.7c3.2,13.5,6.4,27,9.5,40.5-4.9-.7-9.9.2-14.3,2.7-1.5.9-3.1,2.5-2.3,4,.6,1.2,2.3,1.3,3.6,1.2,10.5-.5,21,.4,31.6,0l-.6-41"/>
    <path class="st4" d="M204.7,431.7c-3.2,13.5-6.3,27-9.5,40.5,4.9-.7,10,.2,14.3,2.7,1.5.9,3.1,2.5,2.3,4-.6,1.2-2.3,1.3-3.6,1.2-10.5-.5-21,.4-31.6,0l.6-41"/>
    <g class="st9">
      <path d="M149.9,441.1l1.3,5.4c8.6.5,16.9,1.8,24.2.2v-4.7c0,0-9-.5-14.1-1.8h0l2.3,4.3c-4.7-.6-9.3-1.7-13.7-3.3Z"/>
    </g>
    <g class="st9">
      <path d="M177,446.6s8.5,2.3,16.7.9c6.9-1.2,7.9-2.4,7.9-2.4l2.1-9s-9.6,5.5-24.5,2.5l7.8,3.2h-9.9v4.9Z"/>
    </g>
    <path class="st4" d="M243.2,379.8c-3.3-6.7-7.5-13-12.3-18.7h0c2.6.5,5.3.7,8,.5-4.7-3.5-8.7-7.8-11.7-12.8-4.1-15.1-8.5-30.2-8.6-45.7l-91.8-.7c-2.4,18.4-6.7,36.5-12.7,54-6.3,19-13.5,41.6-.8,60.2,2.3,3.3,5.2,6.2,8.5,8.5,3.9,4.2,8.1,8,12.6,11.6-.8-2-1.5-3.9-2.3-5.9l1.6.7c9,7.3,19.8,11.9,31.3,13.4l-1.7-4.1c13.1,2.3,26.5,1.6,38.4-4,22.3-10.5,34-22.9,36.8-39.2,1.4-8.3-.2-15.7-2.7-23.1l7.4,5.2Z"/>
    <path class="st2" d="M212.9,384.4h-.4c-.2,0-.6-.1-1-.2-1.3-.3-2.6-.7-3.8-1.1-4.2-1.6-8.1-4.1-11.3-7.3l.4-.3c.4,1.1.9,2.3,1.4,3.5.8,2.2,1.7,4.3,2.4,6.2l.6,1.5-1-1.2c-2.9-3.5-5.3-6.6-7.2-8.9l-2-2.6c-.3-.3-.5-.6-.7-1,.3.3.6.5.8.9l2.1,2.5,7.3,8.8-.4.2c-.8-1.9-1.6-4-2.4-6.2-.5-1.2-.9-2.4-1.4-3.5l-.4-1.1.9.9c3.1,3.1,6.9,5.6,11,7.3,1.2.5,2.5.9,3.7,1.3.5.1.9.2,1.3.4Z"/>
    <path class="st2" d="M133.6,366.2c-.4-.7-.8-1.5-1-2.4-.7-2-1.1-4.1-1.2-6.1-.2-2.1,0-4.2.2-6.3,0-.9.3-1.7.6-2.5,0,.9-.1,1.7-.3,2.6-.2,2-.2,4.1,0,6.2.2,2.1.5,4.1,1.1,6.1.3.8.5,1.6.6,2.5Z"/>
    <path class="st2" d="M136.7,358.4c-.3-.6-.5-1.2-.6-1.8-.4-1.5-.6-3-.6-4.6,0-1.5.1-3.1.4-4.6,0-.6.3-1.2.6-1.8-.3,2.1-.4,4.3-.5,6.4.1,2.1.3,4.3.7,6.4Z"/>
    <path class="st2" d="M169.3,417.1c-.2,0-.4,0-.6-.1-.4,0-.9-.2-1.6-.4-1.9-.5-3.8-1.2-5.6-2-6.1-2.6-11.6-6.3-16.3-10.9l.4-.3c.2.3.4.6.6.9,1.9,2.8,3.4,5.9,4.5,9.2l.2.6-.5-.3c-3.9-2.3-7.2-5.5-9.6-9.3-.7-1.1-1.3-2.3-1.8-3.4-.2-.4-.3-.8-.4-1,0-.1,0-.2-.1-.4.2.4.4.8.6,1.2.6,1.2,1.2,2.3,1.9,3.4,2.4,3.7,5.7,6.9,9.6,9.1l-.4.3c-1-3.2-2.5-6.2-4.4-9l-.6-.9.4-.3c4.7,4.6,10.1,8.3,16.1,11,1.8.8,3.6,1.5,5.5,2.1.7.2,1.2.4,1.5.5.2,0,.4.1.5.2Z"/>
    <path class="st2" d="M122.3,324.1c0,0,0,.2,0,.2v.7c0,.6-.2,1.5-.3,2.6-.3,2.3-.9,5.5-1.9,9.5s-2.3,8.7-4,13.9-3.5,10.8-5.2,16.9c-1.7,5.6-2.9,11.4-3.8,17.2-.7,4.7-.7,9.5-.2,14.3.4,3.2,1.1,6.4,2.2,9.4.4,1.1.8,1.9,1,2.4l.3.6c0,0,0,.1,0,.2,0,0,0,0-.1-.2s-.2-.4-.3-.6c-.3-.5-.7-1.4-1.1-2.4-1.2-3-2-6.2-2.4-9.4-.6-4.8-.5-9.6.1-14.4.8-5.8,2-11.6,3.7-17.3,1.7-6,3.6-11.7,5.2-16.9s3.1-9.8,4.1-13.8,1.7-7.2,2-9.5c.2-1.1.3-2,.4-2.6v-.7c.1,0,.2-.1.2-.2Z"/>
    <path class="st5" d="M126.2,421.7c-.2-.2-.4-.3-.7-.5-.4-.4-1-.9-1.8-1.6-2.1-2.1-3.9-4.5-5.4-7-2.2-3.8-3.9-7.9-5-12.1-1.3-5.2-1.9-10.6-1.8-16,.2-5.4.9-10.7,2.1-16,1.1-4.8,2.3-9.1,3.4-12.7s2.1-6.4,2.8-8.4c.3-1,.6-1.7.8-2.3,0-.3.2-.5.3-.8,0,.3-.1.6-.2.8-.2.6-.4,1.3-.7,2.3-.6,2-1.5,4.9-2.6,8.4s-2.3,7.9-3.3,12.7c-1.1,5.2-1.8,10.5-2,15.9-.1,5.3.5,10.7,1.8,15.9,1,4.2,2.7,8.3,4.8,12.1,1.5,2.6,3.2,4.9,5.2,7.1.7.8,1.3,1.3,1.7,1.7.2.2.4.4.5.6Z"/>
    <path class="st5" d="M135.6,424.8c-1.7-1.1-3.3-2.3-4.8-3.7-1.6-1.2-3.1-2.6-4.5-4.1,1.7,1.1,3.3,2.4,4.8,3.7,1.6,1.2,3.1,2.6,4.5,4.1Z"/>
    <path class="st11" d="M99.4,144.1c-.8.2-19.2,8.7-15.8,33.2,3,21.5,15.8,22,15.8,22l23.7-20.7s-17.2-1.8-21.6-14.4c-4.5-12.8-2.1-20.2-2.1-20.2Z"/>
    <path class="st2" d="M109.7,173.8c0,.1-1.7,0-4.4.7-7,1.6-12.8,6.7-15.4,13.5-1,2.6-1.2,4.3-1.3,4.2,0-.4,0-.8,0-1.2.2-1.1.4-2.1.8-3.2,2.4-7,8.3-12.2,15.6-13.7,1.1-.2,2.2-.4,3.2-.4.4,0,.8,0,1.2,0Z"/>
    <path class="st2" d="M102.7,166c0,.1-1.4-.2-3.6,0-5.9.4-11.1,3.8-13.8,9-1,2-1.4,3.3-1.5,3.3,0-.3,0-.7.2-1,.3-.9.6-1.7,1-2.5,2.7-5.4,8.1-9,14.1-9.2.9,0,1.8,0,2.7.1.3,0,.6.1.9.3Z"/>
    <path class="st2" d="M84.6,161.6s0-.2.2-.7c.3-.6.6-1.1,1-1.7,1.3-1.7,3.1-3,5.1-3.7,2.1-.7,4.3-.5,6.3.3.6.3,1.2.6,1.7,1,.4.3.5.5.5.5s-.8-.6-2.3-1.1c-1.9-.7-4-.8-6-.2-2,.6-3.7,1.8-5,3.4-1,1.2-1.4,2.1-1.5,2.1Z"/>
    <path class="st8" d="M94.8,148.3s-.5.5-1.3,1.5c-1.2,1.3-2.3,2.8-3.3,4.3-6.8,10.1-7.4,23.1-1.6,33.8.9,1.6,1.8,3.1,2.9,4.6.8,1,1.2,1.6,1.2,1.6-.1-.1-.3-.2-.4-.4-.2-.2-.6-.6-1-1.1-1.2-1.4-2.2-2.9-3.1-4.5-6.1-10.8-5.5-24.1,1.6-34.2,1-1.5,2.2-2.9,3.5-4.2.4-.5.8-.8,1.1-1,.1-.1.3-.2.4-.3Z"/>
    <path class="st11" d="M239.6,146.2c.7.2,19.2,8.7,15.7,33.2-3,21.5-15.7,22-15.7,22l-23.7-20.7s17.2-1.8,21.6-14.4c4.5-12.8,2.1-20.2,2.1-20.2Z"/>
    <path class="st2" d="M229.2,175.9c.4,0,.8,0,1.2,0,1.1,0,2.2.2,3.2.4,7.3,1.5,13.2,6.7,15.6,13.7.4,1,.6,2.1.8,3.2,0,.4.1.8.1,1.2-.1,0-.3-1.7-1.3-4.2-2.5-6.8-8.3-11.8-15.3-13.5-2.6-.6-4.4-.6-4.4-.7Z"/>
    <path class="st2" d="M236.8,168.2c.3-.1.6-.2.9-.2.9-.1,1.7-.2,2.6-.1,2.9.1,5.7,1.1,8.1,2.7,2.4,1.6,4.3,3.8,5.6,6.4.4.8.7,1.6.9,2.4.1.3.2.6.2.9,0,0-.4-1.3-1.4-3.2-1.3-2.5-3.3-4.6-5.6-6.2-2.3-1.6-5-2.6-7.9-2.8-2.2-.2-3.5.1-3.5,0Z"/>
    <path class="st2" d="M254.4,163.8c0,0-.5-.9-1.5-2.1-1.3-1.6-3-2.8-5-3.4-2-.6-4.1-.6-6,.2-1.5.5-2.3,1.2-2.3,1.1s.1-.2.5-.5c.5-.4,1.1-.7,1.7-1,2-.9,4.2-1,6.3-.3,2,.7,3.8,2,5.1,3.7.4.5.7,1.1,1,1.7.1.2.2.5.2.7Z"/>
    <path class="st8" d="M241.3,148.4c.2.4.3.7.4,1.1.2.5.3.9.4,1.4.1.6.3,1.2.3,1.9.1.8.2,1.5.2,2.3,0,.9,0,1.8,0,2.6-.1,2-.5,4-1,5.9-.6,1.9-1.4,3.8-2.4,5.6-.5.8-.9,1.6-1.4,2.2-.4.6-.9,1.2-1.4,1.8-.4.5-.8.9-1.3,1.4-.3.4-.7.7-1.1,1-.3.3-.6.5-1,.7,0,0,1.3-1.2,3-3.3.5-.6.9-1.2,1.3-1.8.5-.6.9-1.4,1.4-2.2.9-1.7,1.7-3.6,2.3-5.5.5-1.9.9-3.9,1.1-5.8,0-.9.1-1.8,0-2.6,0-.8,0-1.5-.1-2.2-.3-2.8-.9-4.4-.7-4.5Z"/>
    <path class="st4" d="M154.9,160.3s-3.1.9-1.8-11.6l10.7,11.6s-4.4-7.2-5.5-13.4c0,0,13.5,12.5,18.2,13.4s36.9,2.7,55.6,18.8,27.3,31.7,29.3,48.5c3.3,27.3-1.6,50.6-14.6,66.2l-.4-4.5s-13.9,20.1-34.8,25.9-83.1,0-83.1,0c0,0-34.8-9.4-46.9-36.6s-5.4-31.3-5.4-31.3l-5.2,4.9s-1.4-39.2,33.8-67c27.7-21.9,50-25,50-25Z"/>
    <path class="st2" d="M222.4,310.8s0,0-.2.1l-.7.4c-.6.3-1.5.8-2.8,1.4-2.4,1.2-6,2.8-10.6,4.5-5.4,2.1-11,3.6-16.7,4.6-3.4.6-6.9.9-10.4,1-3.8,0-7.6-.3-11.3-1.1l.2-.5,8.7,6,1.1.7-1.3-.3-2.3-.5-20.6-4.4.2-.4,4.8,5.1.6.6-.8-.2c-9.2-2.2-18.2-5.6-26.7-9.9-3.1-1.6-5.5-3-7.1-3.9-.8-.5-1.4-.9-1.8-1.1l-.5-.3c-.1,0-.2-.1-.2-.1h.2c0,0,.5.3.5.3l1.9,1.1c1.6.9,4,2.3,7.1,3.8,8.5,4.2,17.4,7.5,26.6,9.7l-.2.4c-1.6-1.6-3.2-3.3-4.9-5.1l-.6-.6.8.2,20.6,4.4,2.3.5-.2.5-8.7-6-1-.7,1.2.3c3.7.8,7.4,1.1,11.2,1.1,3.5,0,6.9-.3,10.3-.9,5.7-1,11.2-2.5,16.6-4.5,4.6-1.7,8.1-3.2,10.6-4.3l2.8-1.3.7-.3h.2Z"/>
    <g class="st9">
      <path d="M222.4,310.8c-16.9,8.5-35.9,14.3-52.5,10.7l8.7,6-23-4.9c1.6,1.7,3.2,3.4,4.9,5.1-12.8-3.1-25-8.2-36.2-15.1,0,0,18.3,19.1,39.4,20.1,34.9,1.7,58.8-21.9,58.8-21.9Z"/>
    </g>
    <path class="st2" d="M105.8,283.9c-.2,0-.4-.2-.6-.4-.4-.2-1-.6-1.7-1.1-2.1-1.4-4-3.1-5.8-4.9-5.9-6-10-13.4-11.8-21.6h.5v.3c.2,5.4.3,10.4.4,14.9v1.2l-.5-1.1c-2-4.5-3.3-9.4-3.8-14.3-.2-1.4-.2-2.8-.3-4.2v-1.1c0-.1,0-.3,0-.4,0,.1,0,.3,0,.4,0,.3,0,.7,0,1.1,0,1,.2,2.4.4,4.2.6,4.9,2,9.6,4,14.1h-.4c-.2-4.4-.3-9.5-.5-14.8v-.3h.5c1,4.4,2.7,8.6,4.9,12.5,3.1,5.4,7.3,10.1,12.3,13.8.7.5,1.3.9,1.7,1.2.2.1.5.3.7.4Z"/>
    <path class="st2" d="M244.1,259.2s0-.2.3-.5l1-1.3c.4-.6.8-1.3,1.3-2.2l.7-1.4.4-.8c.1-.3.2-.6.3-.9,1.8-4.6,2.9-11.4,2.8-19,0-1.1,0-2.1-.1-3.1v-2c-.1,0,.5,1.9.5,1.9.7,2,1.3,3.9,1.9,5.6h-.5c.9-2.3,1.3-4.7,1.2-7.1,0-1.9-.3-3.8-.9-5.6-.5-1.6-1.2-3.2-2-4.7,0,0,0,0,.2.3s.3.5.6.9c.6,1.1,1.2,2.3,1.6,3.5.6,1.9,1,3.8,1,5.7,0,2.5-.3,5-1.2,7.3l-.2.6-.2-.7-1.9-5.6h.5c0,.9.1,2,.1,3.1,0,7.6-1.1,14.5-3,19.1-.1.3-.2.6-.3.9l-.4.8-.7,1.4c-.5.8-1,1.6-1.4,2.1l-1,1.2c-.4.3-.5.4-.5.4Z"/>
    <path class="st2" d="M199.8,184.9c-.2,0-.5,0-.7,0-.4,0-1.1,0-2,0-2.4-.1-4.9-.5-7.3-.9-8-1.6-15.5-5-22-9.9l.3-.4.2.2c3.3,3.3,6.4,6.5,9.2,9.4l.6.6-.8-.2c-2.8-.6-5.5-1.6-8-3.1-1.9-1.2-3.7-2.6-5.2-4.3-1-1.1-1.9-2.3-2.7-3.5-.3-.4-.4-.8-.6-1s-.2-.4-.2-.4c.3.4.6.9.9,1.3.8,1.2,1.8,2.3,2.8,3.4,1.5,1.6,3.3,3,5.2,4.1,2.4,1.5,5.1,2.5,7.9,3l-.2.4-9.3-9.4-.2-.2.3-.4c6.4,4.9,13.8,8.3,21.7,10,2.4.5,4.8.9,7.2,1.1.9.1,1.5.1,2,.2.2,0,.5,0,.7,0Z"/>
    <path class="st8" d="M133.7,171.9c0,0-.2,0-.2.1l-.7.3c-.6.2-1.6.5-2.7,1-29.4,10.9-50.7,36.7-55.9,67.6-.2,1.2-.3,2.2-.4,2.9,0,.3,0,.6-.1.8,0,0,0,.2,0,.2v-.3c0-.2,0-.4,0-.8,0-.7.2-1.6.4-2.9.5-3.5,1.3-7,2.3-10.5,1.4-5.1,3.4-10.1,5.7-14.8,5.8-11.7,14.2-21.9,24.7-29.8,4.2-3.2,8.7-6,13.5-8.4,3.2-1.6,6.5-3,9.9-4.2,1.2-.4,2.1-.7,2.8-.9l.7-.2c0,0,.2,0,.3,0Z"/>
    <path class="st8" d="M88.4,281.4c-.4-.3-.7-.6-1-1-.3-.3-.7-.8-1.1-1.3s-.9-1.1-1.4-1.8c-1.1-1.6-2.2-3.2-3.1-4.9-1.1-2.1-2-4.3-2.7-6.5-.7-2.3-1.3-4.6-1.6-6.9-.3-1.9-.4-3.8-.4-5.8,0-.8,0-1.6,0-2.2,0-.6,0-1.1.2-1.7,0-.5.1-.9.2-1.4,0,.5,0,.9,0,1.4,0,.5,0,1,0,1.7v2.2c0,1.9.2,3.8.5,5.7.4,2.3.9,4.6,1.6,6.8.7,2.2,1.6,4.4,2.7,6.5.9,1.7,1.8,3.3,2.9,4.9.4.7.9,1.3,1.3,1.8s.7,1,1,1.3c.3.3.6.7.8,1.1Z"/>
    <path class="st8" d="M96.7,290.8c0,.1-1,0-2-.8s-1.6-1.5-1.4-1.6.8.5,1.8,1.2,1.8,1.1,1.7,1.2Z"/>
    <path class="st8" d="M157.5,161.9c-2.9-2.5-4.4-6.3-4-10.1.2,1.8.6,3.6,1.2,5.3.8,1.7,1.7,3.2,2.8,4.7Z"/>
    <g class="st9">
      <path d="M148.4,272.7c.6-1,1.2-2,1.8-3-.1.6,0,1.2.4,1.6.4.4.9.8,1.4,1,1,.6,2.3,1,3.3.5,1-.7,1.4-2,1-3.1-.2-.9-.6-1.8-.9-2.7-.3-.9-.2-1.9.2-2.8.7-.9,1.7-1.4,2.7-1.6,3.9-1.1,7.9-1.6,11.9-1.3,4,.3,7.9,1.8,11.1,4.2-.3-1.4-1.5-2.4-2.8-3.2-5.2-3.1-11.5-4-17.4-2.4-5.9,1.7-10.6,6-12.9,11.6"/>
    </g>
    <path class="st8" d="M151.1,267.4c.4,1.7,1.3,3.2,2.6,4.4.4.5,1.1.7,1.7.5.6-.3.7-1.2.6-2-.4-2.1-1.1-4.1-2.3-6"/>
    <path class="st8" d="M184.8,267.4c-.4,1.7-1.3,3.2-2.6,4.4-.4.5-1.1.7-1.8.5-.6-.3-.7-1.2-.6-2,.4-2.1,1.1-4.1,2.3-6"/>
    <path class="st2" d="M189.4,271.9c-.3.2-2.1-2-5.7-4.9-2.1-1.6-4.3-3-6.8-4.1-2.9-1.3-6-2-9.2-2.2-3.1-.2-6.3.4-9.2,1.5-2.4,1-4.5,2.5-6.3,4.4-3,3.3-3.5,6.2-3.9,6.1-.2,0-.2-.8,0-2.1.5-1.9,1.3-3.6,2.5-5.2,1.8-2.3,4.1-4.1,6.7-5.4,3.2-1.5,6.8-2.1,10.3-2,3.5.2,6.9,1,10.1,2.6,2.5,1.3,4.9,2.9,6.9,4.9,3.5,3.3,4.8,6.1,4.5,6.2Z"/>
    <g class="st9">
      <path d="M176.1,284.9c.2.3-.7,1.1-2.4,2-4.5,2.1-9.7,2.3-14.4.6-1.8-.7-2.7-1.5-2.5-1.8.3-.7,4.5.6,9.7.4s9.3-1.8,9.6-1.1Z"/>
    </g>
    <path class="st8" d="M129.8,211.2c24.8,8.6,51.8,8.8,76.8.7,0,0-4.9,35.1-38.3,37s-38.5-37.7-38.5-37.7Z"/>
    <path class="st2" d="M155.3,217.2c-1.2,8.2.1,16.6,3.9,24,.9,2.1,2.2,3.9,3.9,5.4,1.8,1.5,4.2,1.9,6.3,1.2,2-.8,3.3-2.9,4.2-4.9,4-8.7,4.4-15.8,4.8-25.4-7.3,1.9-15.1,1.5-23.2-.4Z"/>
    <g class="st9">
      <path d="M201.7,230.4c.1,0-.3,1.2-1.4,3.1-1.6,2.7-3.7,5.2-6,7.3-1.6,1.5-3.3,2.9-5.1,4.1-2.1,1.4-4.3,2.6-6.6,3.6-10.8,4.7-23.2,4.1-33.5-1.6-2.2-1.2-4.3-2.6-6.3-4.2-1.7-1.4-3.3-2.9-4.7-4.5-2.1-2.3-3.9-5-5.2-7.8-.9-2-1.2-3.2-1.1-3.3s.8,1,2,2.8c1.6,2.5,3.6,4.9,5.7,7.1,1.5,1.5,3,2.8,4.7,4.1,1.9,1.4,3.9,2.7,6.1,3.8,9.8,5.1,21.3,5.7,31.5,1.5,2.2-.9,4.3-1.9,6.4-3.2,1.8-1.1,3.5-2.3,5.1-3.6,2.3-1.9,4.4-4.1,6.3-6.5,1.3-1.7,2-2.7,2.2-2.6Z"/>
    </g>
    <g class="st9">
      <path d="M199.1,206c-1-.2-2.1,0-3,.6-9.2,4.6-19.6,6.3-29.8,5.1-10.1-1.3-20.6-4.8-28.3-11.5-2.1,1.1-2.6,4.1-1.7,6.3s2.9,3.8,4.9,5c7,4.4,14.9,6.9,23.2,7.5,8.2.6,16.4-.2,24.4-2.3,3.9-1,8-2.3,10.6-5.4.7-.8,1.2-1.8,1.3-2.8,0-1.1-.6-2.1-1.6-2.5Z"/>
    </g>
    <path class="st2" d="M197.8,205.8c.4.5-2.2,3.4-7.8,6.2-3.2,1.6-6.7,2.8-10.2,3.6-8.8,1.9-18,1-26.3-2.5-3.4-1.4-6.5-3.2-9.4-5.4-4.9-3.8-6.9-7.1-6.4-7.6s3.4,1.7,8.4,4.5c13,7.4,28.4,8.9,42.6,4.1,5.4-1.7,8.7-3.4,9.1-2.8Z"/>
    <path class="st8" d="M162.6,241.1s-.2-.2-.6-.6c-.5-.6-.9-1.2-1.3-1.9-1.3-2.2-2.2-4.5-2.7-7-.5-2.5-.7-5-.5-7.5,0-.8.2-1.5.4-2.3.1-.5.2-.8.2-.8s-.1,1.2-.2,3.1c-.2,5,.8,9.9,3.2,14.3.9,1.7,1.6,2.6,1.5,2.7Z"/>
    <path class="st2" d="M214.6,209.8c-1,.6-2.1,1.1-3.3,1.5-1.1.4-2.4.9-4,1.4s-3.4,1.1-5.4,1.6-4.2,1.2-6.6,1.6c-1.2.2-2.4.6-3.7.8l-4,.7c-5.9.9-11.9,1.3-17.9,1.4-6,0-12-.5-17.9-1.3-2.7-.5-5.3-.9-7.7-1.4-1.2-.3-2.4-.5-3.5-.8l-3.2-.9c-2-.5-3.8-1.1-5.4-1.7-.8-.3-1.5-.5-2.2-.7l-1.8-.7c-1.2-.4-2.3-.9-3.3-1.5,0-.3,4.9,1.6,12.9,3.5l3.1.8c1.1.2,2.3.4,3.4.7,2.4.5,4.9.8,7.6,1.3,5.9.7,11.8,1.1,17.7,1.2,5.9,0,11.8-.4,17.7-1.2l3.9-.6c1.3-.2,2.5-.5,3.7-.7,2.4-.4,4.6-1,6.6-1.4s3.8-1,5.4-1.4,2.9-.8,4-1.2c1.1-.4,2.3-.7,3.6-.9Z"/>
  </g>
  <g id="freepik--Floor--inject-54">
    <path class="st2" d="M477,480.1c0,.1-102,.3-227.8.3s-227.8-.1-227.8-.3,102-.3,227.8-.3,227.8.1,227.8.3Z"/>
  </g>
  <g id="freepik--Lightning--inject-54">
    <polygon class="st4" points="198.7 153.6 193.3 129.2 206.2 127.8 210.4 106.1 212.3 133 199.1 134.3 198.7 153.6"/>
    <polygon class="st4" points="206 156.8 214.4 139.3 222.9 144.7 235.9 133.4 224.1 150.7 215.5 145.2 206 156.8"/>
    <polygon class="st6" points="198.7 153.6 193.3 129.2 206.2 127.8 210.4 106.1 212.3 133 199.1 134.3 198.7 153.6"/>
    <polygon class="st6" points="206 156.8 214.4 139.3 222.9 144.7 235.9 133.4 224.1 150.7 215.5 145.2 206 156.8"/>
  </g>
</svg>