<?xml version="1.0" encoding="UTF-8"?>
<svg id="Layer_1" xmlns="http://www.w3.org/2000/svg" version="1.1" viewBox="0 0 750 500">
  <!-- Generator: Adobe Illustrator 29.6.1, SVG Export Plug-In . SVG Version: 2.1.1 Build 9)  -->
  <defs>
    <style>
      .st0 {
        fill: #e0e0e0;
      }

      .st1 {
        fill: #b78876;
      }

      .st2 {
        fill: #a36957;
      }

      .st3 {
        fill: #ffbe9d;
      }

      .st4 {
        fill: #ebebeb;
      }

      .st5 {
        fill: #263238;
      }

      .st6 {
        fill: #eb996e;
      }

      .st7 {
        fill: #ffde59;
      }

      .st8 {
        fill: #fff;
      }

      .st9 {
        fill: #1abc9c;
      }

      .st10 {
        fill: #fafafa;
      }

      .st11 {
        opacity: .4;
      }

      .st12 {
        opacity: .2;
      }

      .st13 {
        opacity: .3;
      }

      .st14 {
        fill: #f5f5f5;
      }

      .st15 {
        fill: #455a64;
      }

      .st16 {
        display: none;
      }
    </style>
  </defs>
  <g id="freepik--background-complete--inject-11">
    <rect class="st0" x="260.6" y="70.8" width="87.7" height="145.2"/>
    <rect class="st4" x="257.7" y="70.8" width="87.7" height="145.2"/>
    <rect class="st10" x="261.5" y="73.8" width="80.2" height="139.3"/>
    <rect class="st4" x="276.7" y="91.9" width="49.3" height="103.1"/>
    <path class="st0" d="M276.7,158.5c-.1-9.6,8.5-19,18.1-20.4,4.5-.6,9.4.3,13.6-1.5,7.6-3.1,10-13.2,17.6-16.2l.4,74.5h-49.7v-36.5Z"/>
    <polygon class="st0" points="573.5 56.3 573.5 117.1 486.2 117.1 483 56.8 573.5 56.3"/>
    <rect class="st8" x="483" y="56.8" width="87.3" height="60.3"/>
    <path class="st0" d="M570.8,117.4h-88.2v-61.1h88.2v61.1ZM483.4,116.6h86.6v-59.4h-86.5v59.4Z"/>
    <rect class="st8" x="492.5" y="64.2" width="68.4" height="45.3"/>
    <path class="st0" d="M560.9,64.2h-19.2c0,0-49.2.1-49.2.1l.2-.2v45.3h0l-.2-.2h68.4l-.2.2c0-13.8,0-25.1,0-32.9v-12.3,12.2c0,7.9,0,19.2,0,33.1v.2h-68.8v-.2h0v-45.5h49.6c0,.1,14.1.1,14.1.1h4.7l.5.2Z"/>
    <path class="st0" d="M483,56.6c.5.3,1,.6,1.5,1,.9.7,2.1,1.6,3.4,2.6s2.5,2,3.3,2.8c.5.4.9.8,1.2,1.3,0,0-2.2-1.6-4.8-3.7-1.6-1.2-3.2-2.5-4.7-3.9Z"/>
    <path class="st0" d="M570.4,56.8c-1.4,1.4-3,2.7-4.6,3.9-1.5,1.3-3.2,2.5-4.9,3.6,1.4-1.4,3-2.7,4.6-3.9,1.5-1.3,3.2-2.5,4.9-3.6Z"/>
    <path class="st8" d="M570.3,117l-9.7-7.9"/>
    <path class="st0" d="M560.6,109.1c1.8,1.1,3.4,2.4,5,3.8,1.7,1.3,3.3,2.6,4.7,4.1-1.8-1.1-3.4-2.4-5-3.8-1.7-1.3-3.2-2.6-4.7-4.1Z"/>
    <path class="st0" d="M483,117c1.4-1.4,2.9-2.7,4.5-3.9,1.5-1.3,3.1-2.5,4.8-3.5-1.4,1.4-2.9,2.7-4.5,3.9-1.5,1.3-3.1,2.5-4.8,3.5Z"/>
    <rect class="st0" x="506.4" y="78.4" width="43.1" height="15.2"/>
    <path class="st4" d="M98.8,226.7s-8.7-.6-7.9,18.9c.8,19.5,2.8,29.9,2.8,29.9,0,0-.2,4.3-3.6,3.5s-9.7-5.1-12.8-1.9-2.1,8.3,2.2,14.2,13.2,19.2,14,20.4,1.1,3.4-1.3,3.2-18.4-5.7-20.6,2.1,12.5,22.3,14.1,23.9,1.7,2.6,1,3.6-5.9-1.4-10.5-2.7-10.2-2.1-11.1,2.5,5.6,18,29.8,32.1l11.6,5.8,11-7c22.6-16.5,27.7-30.5,26.4-34.9s-6.8-3.2-11.3-1.3-9.4,4.7-10.2,3.8-.8-1.9.7-3.7,14.5-17.6,11.6-25.2-18.3-.5-20.7,0-2.2-1.8-1.6-3,8.2-15.4,11.9-21.7,4.3-11.4.8-14.3-9.3,2-12.5,3.2-3.9-3.1-3.9-3.1c0,0,.9-10.5-.2-30.1s-10-17.9-10-17.9"/>
    <path class="st0" d="M99.5,244.2c0,.1,0,.3,0,.4,0,.3,0,.7,0,1.2,0,1.1.2,2.6.3,4.6.3,4,.6,9.8,1,17,.8,14.3,1.7,34.2,2.7,56s1.8,41.7,2.6,56.1c.4,7.1.7,13,.9,17s.2,3.5.2,4.6v1.6-.4c0-.3,0-.7,0-1.2,0-1.1-.2-2.6-.3-4.6-.3-4-.6-9.8-1-17-.8-14.3-1.7-34.1-2.7-56s-1.8-41.7-2.6-56c-.4-7.2-.7-13-.9-17,0-2-.2-3.5-.2-4.6v-1.2c0-.3,0-.5,0-.5Z"/>
    <path class="st0" d="M85.9,283.4c.3.2.5.4.7.6.4.4,1.1,1,1.8,1.8,1.5,1.5,3.6,3.7,5.8,6.1l5.7,6.2,1.7,1.9c.2.2.4.5.6.7-.3-.2-.5-.4-.7-.6-.4-.4-1.1-1-1.8-1.8-1.5-1.5-3.6-3.7-5.8-6.1l-5.7-6.2-1.7-1.9c-.2-.2-.4-.5-.6-.7Z"/>
    <path class="st0" d="M103.4,300.3c0,0,4.2-4.5,9.5-9.9s9.7-9.7,9.8-9.6-4.2,4.5-9.5,9.9-9.7,9.7-9.8,9.6Z"/>
    <path class="st0" d="M103.4,334c.3-.2.5-.4.8-.5l2.3-1.3c1.9-1.1,4.6-2.6,7.4-4.3s5.4-3.4,7.2-4.6l2.2-1.5c.3-.2.5-.4.8-.5-.2.2-.5.5-.7.6-.5.4-1.2.9-2.1,1.6-1.8,1.3-4.3,3-7.2,4.8s-5.6,3.2-7.5,4.2c-1,.5-1.8.9-2.3,1.1-.3.2-.6.3-.9.4Z"/>
    <path class="st0" d="M84.1,322.2c.3,0,.6.2.8.4l2.1,1.2c1.8,1,4.2,2.4,6.9,4s5.1,3,6.8,4.1c.9.5,1.6,1,2,1.3.3.1.5.3.7.5-.3,0-.6-.2-.8-.4-.5-.3-1.2-.7-2.1-1.2-1.8-1-4.2-2.4-6.9-4s-5.1-3-6.8-4.1c-.9-.5-1.6-1-2-1.3-.3-.1-.5-.3-.7-.5Z"/>
    <path class="st0" d="M80.3,351.9c.3.1.7.3,1,.5l2.7,1.5c2.3,1.3,5.4,3.1,8.8,5.1s6.6,3.8,8.8,5.2l2.6,1.6c.3.2.6.4.9.6-.4-.1-.7-.3-1-.5l-2.7-1.5c-2.3-1.3-5.4-3.1-8.8-5.1s-6.5-3.8-8.8-5.2l-2.6-1.6c-.3-.2-.6-.4-.9-.6Z"/>
    <path class="st0" d="M104.7,365.9c.3-.3.6-.5,1-.7l2.8-1.7c2.4-1.5,5.7-3.5,9.2-5.8s6.8-4.5,9-6.1l2.7-1.9c.3-.2.6-.5,1-.6-.3.3-.6.6-.9.8-.6.5-1.5,1.2-2.6,2-2.2,1.7-5.4,3.9-9,6.2s-6.9,4.3-9.3,5.7c-1.2.7-2.2,1.2-2.9,1.6-.3.2-.6.4-1,.5Z"/>
    <polygon class="st0" points="122.2 386 90.1 386 100.6 465.4 111.7 465.4 122.2 386"/>
    <path class="st14" d="M91.7,395.7c0,.1,0,.2.2.3.2.2.5.4.8.5,1.1.4,2.4.2,3.4-.4,1.3-.7,2.4-2.1,4.2-2.8,1.9-.6,4-.6,5.9.1,1.9.7,3.8,1.6,5.5,2.7,1.4.9,2.9,1.7,4.5,2.4,1.1.5,2.2.8,3.3,1,.3,0,.6,0,.9,0,.2,0,.3,0,.3,0-1.5-.2-3-.7-4.4-1.3-1.5-.7-3-1.6-4.4-2.5-1.7-1.2-3.6-2.1-5.6-2.8-2-.7-4.2-.8-6.2,0-.9.4-1.7.8-2.3,1.5-.6.5-1.2,1-1.8,1.4-.9.6-2.1.8-3.1.5-.4-.2-.7-.4-1-.7Z"/>
    <path class="st14" d="M92.9,410.4s.2-.3.8-.9c.7-.7,1.6-1.3,2.6-1.6,1.4-.5,2.9-.7,4.5-.7,1.9.1,3.8.4,5.6.8,1.9.4,3.8.4,5.7.2,1.6-.2,3.1-.6,4.5-1.3,1-.4,1.9-1,2.7-1.6.3-.2.6-.5.9-.8-1.2.8-2.4,1.4-3.7,2-1.4.6-2.9,1-4.4,1.1-1.9.2-3.7,0-5.6-.3-1.9-.4-3.8-.6-5.7-.7-1.6,0-3.2.2-4.6.8-1,.4-1.9,1-2.6,1.8-.2.2-.3.5-.5.7,0,.2-.1.3-.1.3Z"/>
    <path class="st14" d="M118.6,418.2c-.3-.2-.6-.4-.9-.5-.9-.3-1.8-.5-2.7-.6-1.3,0-2.7,0-4,.2-1.5.2-3.1.7-4.8,1-1.6.4-3.2.5-4.8.5-1.3,0-2.6-.3-3.8-.8-1.1-.5-2.1-1.2-2.9-2.1.1.3.3.6.5.8.6.7,1.4,1.2,2.2,1.6,1.2.6,2.6.9,3.9,1,1.7,0,3.3-.1,4.9-.5,1.7-.4,3.3-.8,4.8-1,1.3-.3,2.6-.4,3.9-.3,1.2,0,2.4.3,3.6.6Z"/>
    <path class="st14" d="M95.7,429.2c1-.4,2.1-.5,3.1-.3,1.1.3,2.2.7,3.3,1.2,1.3.6,2.8,1,4.2,1.2,2.7.2,5.4-.4,7.7-1.8.7-.4,1.4-.9,1.9-1.5.4-.4.6-.7.6-.7-.9.7-1.7,1.3-2.7,1.8-2.3,1.2-4.9,1.8-7.5,1.6-3-.2-5.4-2-7.5-2.2-.8-.1-1.7,0-2.4.2-.5.3-.8.5-.8.5Z"/>
    <path class="st14" d="M97.5,444.5c.9,0,1.8-.1,2.7-.5,1.6-.5,3.6-1.8,6-2.7,1.1-.4,2.2-.7,3.4-.7,1,0,1.9.2,2.8.6.8.4,1.5,1,2,1.7,0,0,0-.3-.3-.7-.4-.6-.9-1-1.5-1.4-.9-.5-1.9-.8-2.9-.8-1.2,0-2.5.2-3.6.7-2.4,1-4.4,2.2-5.9,2.9s-2.6.8-2.6.9Z"/>
    <path class="st14" d="M99.1,451.6c.6.3,1.3.5,2,.7,1.7.4,3.4.7,5.1.9,1.7.2,3.4.2,5.2.1.7,0,1.4,0,2.1-.3,0-.1-3.3,0-7.2-.4s-7.1-1.1-7.1-1Z"/>
    <path class="st14" d="M160.7,129.8l-3.4,4.8s7.5,2.1,7.5,8.8-4.6,7.9-9.6,7.9-9.8-1.5-9.6-8.2,6.5-9.2,6.5-9.2l-3.1-4.2h11.7Z"/>
    <rect class="st14" x="62.9" y="122.7" width="7.6" height="28.4"/>
    <rect class="st4" x="50" y="115.4" width="13.2" height="35.7"/>
    <rect class="st0" x="33.4" y="151.1" width="152.9" height="5.4"/>
    <rect class="st0" x="62.1" y="153.7" width="4.2" height="13.9"/>
    <rect class="st0" x="144.4" y="153.7" width="4.2" height="13.9"/>
    <rect class="st4" x="87" y="138" width="35.7" height="13.2"/>
    <rect class="st14" x="73.8" y="106.7" width="13.2" height="44.5"/>
    <rect class="st4" x="69.8" y="115.4" width="4" height="35.7"/>
    <rect class="st4" x="90" y="134" width="35.7" height="4"/>
    <rect class="st4" x="604.8" y="252.2" width="54.9" height="177.6"/>
    <rect class="st0" x="659.7" y="252.2" width="46.6" height="177.6"/>
    <rect class="st0" x="609.1" y="259.4" width="44" height="38.3"/>
    <rect class="st0" x="609.1" y="302" width="44" height="38.3"/>
    <rect class="st0" x="609.1" y="344.6" width="44" height="38.3"/>
    <rect class="st0" x="609.1" y="387.2" width="44" height="38.3"/>
    <path class="st10" d="M631.1,266.4c0,.8-.7,1.5-1.5,1.5s-1.5-.7-1.5-1.5.7-1.5,1.5-1.5,1.5.7,1.5,1.5h0Z"/>
    <path class="st10" d="M631.1,309.5c0,.8-.7,1.5-1.5,1.5s-1.5-.7-1.5-1.5.7-1.5,1.5-1.5,1.5.7,1.5,1.5h0Z"/>
    <path class="st10" d="M631.1,352.6c0,.8-.7,1.5-1.5,1.5s-1.5-.7-1.5-1.5.7-1.5,1.5-1.5,1.5.7,1.5,1.5h0Z"/>
    <path class="st10" d="M631.1,395.8c0,.8-.7,1.5-1.5,1.5s-1.5-.7-1.5-1.5.7-1.5,1.5-1.5c.8,0,1.5.7,1.5,1.5Z"/>
    <rect class="st0" x="604.8" y="429.8" width="6.3" height="35.6"/>
    <rect class="st0" x="653.1" y="429.8" width="6.3" height="35.6"/>
    <rect class="st0" x="699.2" y="429.8" width="6.3" height="35.6"/>
    <path class="st14" d="M655.8,213.1c1.7-4.5,4-8.7,6.7-12.7.8-1.4,2-2.5,3.5-3.2,2.5-1,5.2.6,7.5,2.1l5.2,3.4c.3.2.6.5.7.8,0,.6-.7,1-1.4,1.1-2.2.3-4.5-.3-6.3-1.6-1.4-1-2.8-2.4-4.5-2.2-2.1.2-3,2.7-3.8,4.6-1.8,4.2-4.9,7.7-8.8,10"/>
    <path class="st14" d="M655.8,213.9c.4-10.4.8-20.9,3.3-31s7.2-19.9,15.1-26.8c-1,8.8-4.2,17.1-7.4,25.4l-12.8,33.3"/>
    <path class="st14" d="M654,217.7c-1.5-9.5-4.1-18.7-7.9-27.6-.4-1.3-1.3-2.5-2.4-3.4-1.8-1.1-4.1-.4-6,.5-4.5,2-8.7,4.7-12.4,8-.3.2-.6.6-.7.9,0,.6.4,1.2,1,1.3.6.1,1.2,0,1.7-.1l10.4-2.4c2-.9,4.5,0,5.4,2,.1.3.2.6.3.8,3.4,6.9,6.8,13.7,10.2,20.6"/>
    <path class="st4" d="M669.8,139.3c-8.7,10.3-13.8,23.2-14.5,36.7-1,22.1-2.3,38.1-2.3,38.1h2.4s4.9-44.6,8.2-52.4,8.3-18.9,6.2-22.3Z"/>
    <path class="st0" d="M669.8,139.3c0,.2-.2.5-.3.7-.2.5-.5,1.1-.9,2-.8,1.7-1.9,4.3-3.2,7.5s-2.6,7-3.9,11.4c-1.4,4.7-2.6,9.5-3.4,14.3-.4,2.6-.6,5.1-.8,7.6s-.3,4.8-.5,7.1c-.3,4.5-.5,8.6-.9,12s-.8,6.2-1.2,8c-.2.9-.4,1.7-.5,2.2,0,.3-.1.5-.2.7,0-.3,0-.5.1-.8,0-.5.2-1.2.4-2.2.3-1.9.7-4.6,1-8s.6-7.5.8-12c.1-2.3.3-4.6.4-7.1s.4-5,.8-7.6c.8-4.9,2-9.6,3.5-14.4,1.3-4.3,2.7-8.2,4-11.4s2.5-5.7,3.3-7.4c.4-.9.8-1.5,1-2,.1-.2.3-.4.5-.6Z"/>
    <path class="st4" d="M678.9,160s-16.5,15.8-18.4,30.6-2.8,22.8-2.8,22.8h1.6s3.9-21.2,9-27.9,11.6-23.8,10.5-25.6Z"/>
    <path class="st0" d="M678.7,161c0,.2-.1.3-.2.5-.2.4-.5.8-.8,1.4-.7,1.2-1.7,3-2.9,5.1-2.4,4.3-5.8,10.2-8.8,17.1-2.6,5.9-4.6,12-5.9,18.3-.5,2.4-.7,4.4-.9,5.8,0,.7-.1,1.2-.2,1.6,0,.2,0,.4,0,.6,0-.2,0-.4,0-.6,0-.4,0-.9,0-1.6.2-1.9.4-3.9.8-5.8,1.2-6.3,3.2-12.5,5.8-18.3,2.6-5.9,5.6-11.6,8.9-17.1,1.2-2.1,2.3-3.8,3-5l.8-1.4c0-.2.2-.4.3-.5Z"/>
    <path class="st4" d="M647,162.8s-2.4,31.1,3.3,49.7h2s1.3-40.2-5.3-49.7Z"/>
    <path class="st0" d="M648.4,168.6c0,.1,0,.3,0,.4,0,.3,0,.8.1,1.3,0,1.2.2,2.7.4,4.6.3,3.9.7,9.3,1.2,15.3s.8,11.4,1,15.3c.1,1.9.2,3.5.3,4.6,0,.5,0,.9,0,1.3,0,.1,0,.3,0,.4,0-.1,0-.3,0-.4,0-.3,0-.8-.1-1.3-.1-1.2-.2-2.7-.4-4.6-.3-3.9-.7-9.4-1.2-15.3s-.8-11.4-1-15.3c-.1-1.9-.2-3.5-.3-4.6v-1.3c0-.1,0-.3,0-.4Z"/>
    <path class="st0" d="M643.1,210.6s6,4.3,5.7,6.3-14.7,12.7-13.8,21.2,7.8,14.3,19.6,13.8,19.8-7.8,18.7-15.3-12.8-19.5-12.9-20.1c-.4-1.6,5.3-5.9,5.3-5.9h-22.6Z"/>
    <path class="st10" d="M664.6,221.6c0,.1-4.4.2-9.7.2s-9.7-.1-9.7-.2,4.3-.2,9.7-.2,9.7.1,9.7.2Z"/>
    <path class="st10" d="M666,223.6c0,.1-5.1.2-11.5.2s-11.5-.1-11.5-.2,5.1-.2,11.5-.2,11.5.1,11.5.2Z"/>
    <path class="st10" d="M668.1,225.9c0,.1-6.1.2-13.5.2s-13.5,0-13.5-.2,6.1-.2,13.5-.2,13.5.1,13.5.2Z"/>
    <path class="st10" d="M669.9,228.9c0,.1-7,.2-15.6.2s-15.6-.1-15.6-.2,7-.2,15.6-.2,15.6.1,15.6.2Z"/>
  </g>
  <g id="freepik--Floor--inject-11">
    <path class="st5" d="M687.2,465.7c0,.1-139.8.3-312.2.3s-312.2-.1-312.2-.3,139.8-.3,312.2-.3,312.2.1,312.2.3Z"/>
  </g>
  <g id="freepik--character-3--inject-11">
    <path class="st1" d="M517.2,208.7l-6.2,11.2-3.8-30.4c-.2-2.2.3-4.4,1.3-6.4.4-.9.9-1.7,1.5-2.5.8-.9,1.7-1.8,2.7-2.5,1-.6.8-2-.2-2.1s-3.7,1.4-5.8,4.3-2.4-2.7-2.5-4.7-.8-8.3-1.4-8.8c-1-.6-1.9.3-1.7,2.3s.2,8.2-.8,8.2-1.5-10.4-1.5-10.4c0,0,.3-2.2-1-2.2-2.2,0-1,11-.8,12,.1.7-1.1.8-1.1,0s-.2-10.4-2.5-10.4c-1.8,0,1,9.1,0,11.1s-1.4-7.1-3.1-7.1c-.6,0-1.1.1-.1,5.3.5,2.8,2.3,6.8,2.9,12.3v1.4c.2,6.8,1.8,27.3,7.9,42.9,2.6,6.5,10,9.6,16.4,7,2.4-1,4.4-2.6,5.8-4.7,3.8-5.7,9.8-20.7,9.8-20.7l-15.7-5.1Z"/>
    <path class="st2" d="M496.3,185.1s.4,0,.9.2c.7.3,1.3.8,1.7,1.4l.2.4v-.4c.3-.6.6-1.2.9-1.7.7-1,1.7-1.7,2.9-2.1.9-.3,1.5-.3,1.5-.4-.5-.1-1.1,0-1.6.1-1.2.3-2.3,1.1-3.1,2.1-.4.5-.7,1.1-.9,1.8h.3c-.4-.8-1.2-1.3-2-1.5-.3-.1-.6-.1-.9,0Z"/>
    <path class="st5" d="M537.7,133.2c-2.9.7-5.6,2.2-5.8,5.1s0,6.1-1.1,8.8c-1.4,3-4.7,5.3-4.8,8.6,0,2,1.1,3.9,1.1,6,0,3.3-3.5,5.9-3.7,9.2-.1,2.4,1.5,4.7,1.1,7.1-.3,1.9-1.7,3.3-2.3,5.1-1.2,3.5,1.2,7.4,4.4,9.4,6.7,4.2,15.6,2.2,19.8-4.5.4-.7.8-1.4,1.1-2.2,1.8-4.2,1.4-9,1-13.6-1.2-14.3-2.1-28.6-2.7-42.9"/>
    <path class="st1" d="M598.3,450s-28.5-89.6-29.1-92.4c-.5-2.5,9.9-64.6,11.2-80.7l-36.7,1.4v.3l-15.6.9,14.5,181.3,16-.3-1.3-63.2c10.4,28,26.4,58.8,26.4,58.8l14.7-6.1Z"/>
    <path class="st2" d="M558,418.3c0-.5-.2-19.6-.2-19.6-.2,1.1-6.5-16.6-6.3-17.6,0-.6,6.5,37.3,6.5,37.3Z"/>
    <path class="st2" d="M550.7,372.6c0,.3-.1.7-.1,1.1,0,1,0,1.9,0,2.9,0,.6,0,1.3.2,2s.2,1.5.4,2.3c.3,1.7.8,3.5,1.4,5.1,1.2,3.6,2.6,6.7,3.5,9l1.2,2.7c.1.3.3.7.5,1,0-.3-.2-.7-.3-1-.2-.6-.6-1.6-1-2.7-.9-2.3-2.2-5.5-3.4-9-.6-1.7-1-3.3-1.4-5.1-.2-.8-.3-1.5-.4-2.3s-.2-1.4-.2-2c-.1-1.2-.2-2.2-.2-2.9,0-.4,0-.7,0-1.1Z"/>
    <path class="st15" d="M541.7,461.4v-1.6l17.3-.8v6.5s-1,0-1,0c-4.8.3-24.2,1.1-27.3.1-3.5-1.1,11.1-4.4,11.1-4.4Z"/>
    <path class="st5" d="M559.3,465.2h-1.1c0,0-3.1.2-3.1.2-2.7.1-6.3.2-10.3.2s-7.7,0-10.3-.1h-3.1c0-.1-.8-.2-.8-.2h-.3,4.3c2.6,0,6.3.1,10.3.1s7.7,0,10.3-.1h3.1c0,0,.8,0,.8,0h.3Z"/>
    <path class="st5" d="M536.1,465.8c-.1-.5-.3-1-.6-1.5-.3-.4-.7-.8-1.1-1.2.5.2,1,.6,1.2,1.1.3.5.5,1,.4,1.6Z"/>
    <path class="st5" d="M541.2,463.2s-.3-.3-.5-.7-.4-.7-.4-.8.3.3.5.7.4.7.4.8Z"/>
    <path class="st5" d="M542.6,462.5s-.3-.1-.6-.4-.5-.5-.5-.6.3.1.6.4.5.5.5.6Z"/>
    <path class="st5" d="M543.5,460.8c-.3.1-.6.1-.9.1-.3,0-.6,0-.9,0,.3-.1.6-.1.9-.1.3,0,.6,0,.9,0Z"/>
    <path class="st5" d="M543.8,459.7c-.3.2-.6.3-1,.3-.3,0-.7,0-1-.1.3,0,.7,0,1,0,.3,0,.7,0,1,0Z"/>
    <path class="st5" d="M540.6,461.7c-.4,0-.7,0-1.1,0-.4,0-.8-.1-1.2-.2-.2,0-.5-.2-.7-.3-.1,0-.2-.2-.3-.3,0-.2,0-.3.2-.5.9-.4,1.9-.2,2.5.6.2.2.3.5.4.7,0,0,0,.2,0,.3-.1-.3-.3-.7-.5-.9-.2-.3-.6-.5-.9-.6-.4-.1-.9-.1-1.3.1-.2.1-.1.3,0,.5.2.1.4.2.6.3.4.1.8.2,1.1.3.7.1,1.1.1,1.1.1Z"/>
    <path class="st5" d="M540.3,461.8c-.1-.2-.2-.5-.1-.8,0-.3.1-.6.3-.8.2-.3.5-.5.9-.6.2,0,.4.3.3.5,0,.2,0,.3-.2.5-.1.2-.3.5-.5.7-.2.2-.4.4-.6.5,0,0,.2-.2.5-.5.2-.2.3-.4.5-.7.2-.2.3-.7,0-.7s-.6.2-.7.5c-.1.2-.3.5-.3.7,0,.2,0,.5,0,.7Z"/>
    <path class="st5" d="M558.9,460.5s-.5,0-1.3,0c-2.1.2-3.8,1.6-4.5,3.6-.3.7-.3,1.2-.3,1.2,0-.1,0-.2,0-.4,0-.3,0-.6.2-.9.6-2.1,2.5-3.5,4.6-3.7.3,0,.7,0,1,0,.1,0,.2,0,.3.1Z"/>
    <path class="st5" d="M550.7,463.9c-.8.2-1.7.3-2.5.2-.8,0-1.7,0-2.5-.2,0,0,1.1,0,2.5,0s2.5,0,2.5,0Z"/>
    <path class="st5" d="M554,463.8s0,.2-.2.5-.2.5-.2.5,0-.3,0-.6.4-.4.4-.4Z"/>
    <path class="st5" d="M555.3,462.2s0,.2-.2.4-.4.3-.4.2,0-.2.2-.4.4-.3.4-.2Z"/>
    <path class="st5" d="M557.1,461.5s-.2,0-.5.1-.4.2-.5.2,0-.3.4-.4.6,0,.6,0Z"/>
    <path class="st5" d="M558.4,461.2s0,.1-.2.2-.3,0-.3,0,0-.1.2-.2.3,0,.3,0Z"/>
    <path class="st15" d="M583.3,457.8l-.7-1.4,15.5-7.8,2.7,5.9-.9.5c-4.2,2.2-21.6,10.9-24.9,11.3-3.7.5,8.3-8.6,8.3-8.6Z"/>
    <path class="st5" d="M600.9,454.1s0,0-.2.1l-.8.4-2.8,1.4c-2.4,1.2-5.7,2.8-9.3,4.4s-7,3.1-9.5,4.1l-2.9,1.2-.8.3c0,0-.2,0-.3,0h.3c0-.1.8-.5.8-.5l2.9-1.2c2.4-1,5.8-2.5,9.4-4.2s7-3.2,9.4-4.4l2.8-1.4.8-.4h.3Z"/>
    <path class="st5" d="M580,464.1c-.3-.4-.7-.8-1.2-1.1-.5-.3-.9-.5-1.5-.6,1.2,0,2.2.7,2.6,1.8h0Z"/>
    <path class="st5" d="M583.6,459.6c-.3,0-.5-.2-.8-.4-.4-.3-.7-.5-.7-.5s.4.1.8.4.7.5.6.6Z"/>
    <path class="st5" d="M584.5,458.4s-.3,0-.7-.1-.7-.3-.7-.3.3,0,.7.1.7.3.7.3Z"/>
    <path class="st5" d="M584.7,456.6c-.5.4-1,.6-1.6.8,0,0,.3-.3.8-.5s.8-.3.9-.3Z"/>
    <path class="st5" d="M584.5,455.4s-.3.4-.8.7c-.3.2-.6.3-1,.3.3-.2.6-.4.9-.5.5-.3.8-.5.9-.5Z"/>
    <path class="st5" d="M582.4,458.5c-.3.2-.6.4-1,.5-.4.1-.8.2-1.2.2-.2,0-.5,0-.7,0-.2,0-.3,0-.4-.2,0-.1,0-.3,0-.5.6-.8,1.7-1,2.5-.5.2.1.5.3.6.5.1.1.2.2.2.3-.2-.3-.5-.5-.8-.6-.3-.2-.7-.2-1.1-.2-.5,0-.9.3-1.2.6-.1.2,0,.4.3.4.2,0,.4,0,.7,0,.4,0,.8-.1,1.2-.2.6-.2,1-.3,1-.3Z"/>
    <path class="st5" d="M582.2,458.7c-.2-.2-.4-.4-.4-.6,0-.3-.1-.6,0-.9,0-.4.3-.7.6-.9.2,0,.8.4.9.6s-.3,0-.3.2c0,.3,0,.6-.2.8-.2.5-.4.7-.4.7s.1-.3.2-.7c0-.3.1-.5.2-.8,0-.3,0-.7-.3-.6s-.4.5-.5.7c0,.3,0,.5,0,.8,0,.2.2.5.3.7Z"/>
    <path class="st5" d="M598.7,449.9s-.5.2-1.1.6c-1.8,1.1-2.8,3.1-2.6,5.1,0,.4.1.8.2,1.2,0,0,0-.1-.2-.3-.1-.3-.2-.6-.2-.9-.3-2.1.8-4.2,2.7-5.3.3-.2.6-.3.9-.4.1,0,.2,0,.3,0Z"/>
    <path class="st5" d="M592.5,456.4c-.7.5-1.4.9-2.2,1.2-.8.4-1.6.7-2.4.8,0,0,1-.5,2.3-1s2.3-1.1,2.3-1.1Z"/>
    <path class="st5" d="M595.5,455s0,.3,0,.5v.5s-.2-.2-.2-.5.1-.6.2-.5Z"/>
    <path class="st5" d="M596,453c0,0,0,.2,0,.5s-.2.4-.2.4,0-.2,0-.5.2-.4.2-.4Z"/>
    <path class="st5" d="M597.4,451.6c0,0-.2.1-.4.3s-.3.4-.4.4,0-.3.2-.5.5-.2.5-.2Z"/>
    <path class="st5" d="M598.4,450.7s0,.2-.1.3-.2.2-.3.1,0-.2.1-.3.2-.2.3-.1Z"/>
    <path class="st7" d="M574.8,246.3l-.2-30.5,18.7-3.4s-2-9-4.6-17.7c-2-6.8-6.3-9.7-11.5-12.2h0c0,0-.5-.2-.5-.2-4.3-1.9-8.9-3.1-13.5-3.5l-18.2.2s-13.9-1.7-21.6,8.2c-3,3.8-12.1,29.9-12.1,29.9l21.8,10.5-2.1-14.5s.4,10.5,1.8,13.8c.7,1.9,2.9,7.6,2.9,7.6l-.3,17.3,39.3-5.5Z"/>
    <path class="st5" d="M535.8,234.4c-.2-.3-.3-.6-.4-1-.2-.6-.6-1.6-1-2.8-1-3.1-1.8-6.2-2.4-9.3-.6-3.1-1-6.3-1.2-9.5,0-1.2,0-2.2,0-2.9,0-.4,0-.7,0-1.1,0,0,.1,1.5.3,4,.3,3.2.7,6.3,1.3,9.5.7,3.7,1.6,6.9,2.3,9.3l.8,2.8c.1.3.2.7.3,1Z"/>
    <path class="st5" d="M542.2,246.5c-.4-.6-.7-1.3-.9-2-.3-.7-.4-1.4-.4-2.2.1,0,.5.9.9,2,.3.7.4,1.4.4,2.2Z"/>
    <path class="st5" d="M544.4,246.3c-.5-1-.7-2-.6-3.1,0-1.1,0-2.1.5-3.1,0,1,0,2,0,3.1.1,1,.1,2,0,3.1Z"/>
    <path class="st5" d="M533.6,228c0,.1-5.1-2.3-11.3-5.4s-11.2-5.7-11.1-5.8,5.1,2.3,11.3,5.4,11.2,5.7,11.1,5.8Z"/>
    <path class="st10" d="M588.3,192.7c-.2.3-1.2-.2-2.8-.5-2.3-.5-4.7-.3-7,.4-2.9.8-6,2.7-9.7,5-2,1.3-4.1,2.5-6.2,3.6-2.5,1.2-5.2,2-8,2.1-2.8.1-5.5-.3-8.1-1.2-2.3-.8-4.5-1.6-6.6-2.6-2-.9-3.8-1.8-5.5-2.4-1.6-.6-3.2-1-4.8-1.3-2.3-.5-4.8-.5-7.1,0-1.7.4-2.6.9-2.9.6s.3-1.3,2-2.4c2.5-1.5,5.4-2.1,8.3-1.9,1.9,0,3.9.4,5.7.9,2.1.6,4.1,1.2,6.1,2,4.1,1.5,8.4,3.3,12.6,3.1s8.2-2.5,12-4.6,7.7-4.1,11.4-4.5c2.9-.5,5.9,0,8.5,1.4,1.9,1.2,2.4,2.2,2.2,2.5Z"/>
    <path class="st10" d="M574.9,221.2c-.2.3-.9.2-2,0-1.4-.3-2.9-.4-4.4-.4-.9,0-1.8.1-2.6.4h-.3c0,.1-.4.2-.4.2l-.8.3c-.5.2-1,.5-1.6.8-1.1.6-2.3,1.3-3.7,2-1.5.7-3,1.3-4.6,1.7-3.1.8-6.3,1.1-9.4.7-2.6-.2-5.1-.9-7.4-1.9-4-1.8-5.8-3.9-5.4-4.5s2.8.3,6.5,1c4.8,1,9.7.8,14.4-.4,1.3-.4,2.6-.8,3.9-1.4,1.3-.5,2.5-1.1,3.9-1.7.7-.3,1.3-.5,2-.7.3-.1.7-.2,1-.3h.5c0-.1.6-.2.6-.2,1.3-.2,2.7-.1,4,.2,1.8.4,3.4,1.1,4.8,2.2,1,.8,1.3,1.5,1.1,1.8Z"/>
    <path class="st5" d="M574.9,231.3c-.2,0-.3-5.6-.3-12.6s0-12.6.2-12.6.3,5.6.3,12.6,0,12.6-.2,12.6Z"/>
    <path class="st15" d="M574.8,246.3l-.2-30.5,18.7-3.4s-2-9-4.6-17.7c-2-6.8-6.3-9.7-11.5-12.2h0c0,0-.5-.2-.5-.2-4.3-1.9-8.9-3.1-13.5-3.5l-18.2.2s-13.9-1.7-21.6,8.2c-3,3.8-12.1,29.9-12.1,29.9l21.8,10.5-2.1-14.5s.4,10.5,1.8,13.8c.7,1.9,2.9,7.6,2.9,7.6l-.3,17.3,39.3-5.5Z"/>
    <path class="st5" d="M535.8,234.4c-.2-.3-.3-.6-.4-1-.2-.6-.6-1.6-1-2.8-1-3.1-1.8-6.2-2.4-9.3-.6-3.1-1-6.3-1.2-9.5,0-1.2,0-2.2,0-2.9,0-.4,0-.7,0-1.1,0,0,.1,1.5.3,4,.3,3.2.7,6.3,1.3,9.5.7,3.7,1.6,6.9,2.3,9.3l.8,2.8c.1.3.2.7.3,1Z"/>
    <path class="st5" d="M542.2,246.5c-.4-.6-.7-1.3-.9-2-.3-.7-.4-1.4-.4-2.2.1,0,.5.9.9,2,.3.7.4,1.4.4,2.2Z"/>
    <path class="st5" d="M544.4,246.3c-.5-1-.7-2-.6-3.1,0-1.1,0-2.1.5-3.1,0,1,0,2,0,3.1.1,1,.1,2,0,3.1Z"/>
    <path class="st5" d="M533.6,228c0,.1-5.1-2.3-11.3-5.4s-11.2-5.7-11.1-5.8,5.1,2.3,11.3,5.4,11.2,5.7,11.1,5.8Z"/>
    <path class="st10" d="M588.3,192.7c-.2.3-1.2-.2-2.8-.5-2.3-.5-4.7-.3-7,.4-2.9.8-6,2.7-9.7,5-2,1.3-4.1,2.5-6.2,3.6-2.5,1.2-5.2,2-8,2.1-2.8.1-5.5-.3-8.1-1.2-2.3-.8-4.5-1.6-6.6-2.6-2-.9-3.8-1.8-5.5-2.4-1.6-.6-3.2-1-4.8-1.3-2.3-.5-4.8-.5-7.1,0-1.7.4-2.6.9-2.9.6s.3-1.3,2-2.4c2.5-1.5,5.4-2.1,8.3-1.9,1.9,0,3.9.4,5.7.9,2.1.6,4.1,1.2,6.1,2,4.1,1.5,8.4,3.3,12.6,3.1s8.2-2.5,12-4.6,7.7-4.1,11.4-4.5c2.9-.5,5.9,0,8.5,1.4,1.9,1.2,2.4,2.2,2.2,2.5Z"/>
    <path class="st10" d="M574.9,221.2c-.2.3-.9.2-2,0-1.4-.3-2.9-.4-4.4-.4-.9,0-1.8.1-2.6.4h-.3c0,.1-.4.2-.4.2l-.8.3c-.5.2-1,.5-1.6.8-1.1.6-2.3,1.3-3.7,2-1.5.7-3,1.3-4.6,1.7-3.1.8-6.3,1.1-9.4.7-2.6-.2-5.1-.9-7.4-1.9-4-1.8-5.8-3.9-5.4-4.5s2.8.3,6.5,1c4.8,1,9.7.8,14.4-.4,1.3-.4,2.6-.8,3.9-1.4,1.3-.5,2.5-1.1,3.9-1.7.7-.3,1.3-.5,2-.7.3-.1.7-.2,1-.3h.5c0-.1.6-.2.6-.2,1.3-.2,2.7-.1,4,.2,1.8.4,3.4,1.1,4.8,2.2,1,.8,1.3,1.5,1.1,1.8Z"/>
    <path class="st5" d="M586.5,278.5c-.2-9.9-8.5-33.5-8.5-33.5l-42.4,1.8s-10.8,22.9-10.4,46.1,7,86.1,7,86.1h51.3l-1.5-47.1c-.6-15.2,4.8-34.2,4.5-53.5Z"/>
    <path class="st15" d="M579.8,250.3c0,.1,0,.2-.1.3l-.4,1-1.6,3.6c-1.4,3.2-3.5,7.7-6.1,13.2-5.1,11.2-12.2,26.7-19.2,44.1-3.5,8.7-6.5,17.1-9.1,24.8-1.2,3.9-2.5,7.5-3.4,11-.5,1.7-1,3.4-1.5,5s-.8,3.2-1.2,4.7c-.8,3-1.4,5.7-2,8.1-.3,1.2-.5,2.3-.8,3.3s-.4,2-.6,2.8c-.3,1.7-.6,3-.8,3.9,0,.4-.2.8-.2,1,0,.1,0,.2,0,.3,0,0,1.1-7.5,4.1-19.5.4-1.5.8-3,1.2-4.7s.9-3.3,1.4-5c1-3.5,2.2-7.2,3.4-11,2.6-7.7,5.6-16.1,9.1-24.9,7-17.4,14.1-32.9,19.3-44l6.2-13.2c.7-1.5,1.3-2.7,1.7-3.6.2-.4.3-.7.5-.9,0-.2.1-.3.2-.4Z"/>
    <path class="st15" d="M570.8,379c-.1-.2-.2-.4-.3-.6l-.8-1.9c-.7-1.6-1.7-4.1-2.8-7.1-6-15.7-10-32-12.2-48.6-.4-3.2-.7-5.8-.8-7.6,0-.9-.1-1.5-.2-2.1,0-.2,0-.5,0-.7,0,.2.1.5.1.7,0,.5.2,1.2.3,2,.2,1.8.5,4.4,1,7.5,2.3,16.6,6.4,32.8,12.1,48.5,1.1,3,2,5.4,2.7,7.1l.7,1.9c0,.2.2.5.2.7Z"/>
    <path class="st5" d="M574.9,231.3c-.2,0-.3-5.6-.3-12.6s0-12.6.2-12.6.3,5.6.3,12.6,0,12.6-.2,12.6Z"/>
    <path class="st1" d="M542.6,182.4c.1-5,.1-10.2.1-10.2,0,0-6.4-1.2-7.5-9.6-.8-6.1.2-16.6.7-21.3.2-1.6.8-3.1,1.8-4.3h0c9.3-3.5,18.5-1.5,24.8,6h0l-1.6,40.5c-.2,4.7-4.4,8.3-9.4,8h0c-5.1-.2-9.1-4.2-9-9Z"/>
    <path class="st5" d="M537.7,150.4c0,.6.4,1.1,1,1.1.5,0,1.1-.3,1.1-.8,0,0,0,0,0,0,0-.6-.4-1.1-1-1.1-.5,0-1.1.3-1.1.8,0,0,0,0,0,0Z"/>
    <path class="st5" d="M536.2,149.3c.1.1,1-.4,2.1-.4s2,.6,2.1.5,0-.3-.4-.6c-.5-.4-1.1-.6-1.7-.6-.6,0-1.2.2-1.7.5-.4.3-.5.5-.4.6Z"/>
    <path class="st5" d="M549.6,151.1c0,.6.4,1.1,1,1.1.5,0,1.1-.3,1.1-.8,0,0,0,0,0,0,0-.6-.4-1.1-1-1.1-.5,0-1.1.3-1.1.8,0,0,0,0,0,0Z"/>
    <path class="st5" d="M548.3,150c.1.1,1-.4,2.1-.4s2,.6,2.1.5,0-.3-.4-.6c-.5-.4-1.1-.6-1.7-.6-.6,0-1.2.2-1.7.5-.4.3-.5.6-.4.6Z"/>
    <path class="st5" d="M543.9,158.5c-.6-.2-1.2-.3-1.9-.4-.3,0-.6-.1-.6-.3,0-.3,0-.6.2-.9l.9-2.2c.9-1.9,1.6-3.8,2.1-5.8-1,1.8-1.9,3.7-2.6,5.6-.3.8-.6,1.5-.9,2.2-.2.4-.3.8-.2,1.2,0,.2.3.4.5.4.2,0,.3,0,.5,0,.6.1,1.3.1,1.9,0Z"/>
    <path class="st2" d="M542.7,172.1c3.9.2,7.8-.8,11.3-2.7,0,0-2.9,5.7-11.2,4.7v-2Z"/>
    <path class="st5" d="M558.7,153.6c-1,2.3-3.4,4.1-3.1,6.6.2,1.6,1.2,3.1,1,4.7-.2,2-2.3,3.4-2.7,5.4-.4,2.5,2,4.4,3,6.7,1.4,3.4-.4,7.1-.4,10.8.1,5.8,4.5,10.6,10.3,11.2,2.2.2,4.8-.5,6-2.4,1-1.6.8-3.6,1.3-5.4.8-2.6,3.4-4.6,3.9-7.3,1-5-5-9.1-4.6-14.1.2-2.1,1.5-4,2.1-6.1.7-2.8,0-5.8-1.8-8-1.5-1.8-3.6-2.9-4.9-4.8-1.4-2.2-1.5-5-2-7.5-2.1-10.2-12.1-16.7-22.3-14.6-2.8.6-5.4,1.8-7.7,3.5,0,0-1.4,6.5,5.2,7.6s9.8-.2,10.5,2.5c-.3,2.2.4,4.5,2,6.1,2.7,3.1,5.3,2.4,4.1,5.1Z"/>
    <path class="st2" d="M545.2,161.5c0-.9.5-1.6,1.4-1.7.6,0,1.1.2,1.5.7.2.3.3.7.2,1-.1.2-.3.5-.6.6-.5.3-1,.4-1.6.3-.6-.1-.9-.6-.9-1.2"/>
    <path class="st5" d="M547.8,159c0,0,.1.3,0,.7-.2.5-.5,1-1,1.4-.5.3-1,.5-1.6.6-.4,0-.7-.1-.7-.2.7-.2,1.4-.4,2-.8.9-.6,1.1-1.6,1.3-1.6Z"/>
    <path class="st2" d="M550,155.6c0,.1-.3,0-.5-.1s-.2-.4-.1-.5.3,0,.5.1.2.4.1.5Z"/>
    <path class="st2" d="M551.6,154.6c.1,0,.1.3,0,.5s-.3.3-.4.2-.1-.3,0-.5.3-.3.4-.2Z"/>
    <path class="st2" d="M553.4,155.4c-.1,0-.3,0-.4-.2s-.1-.4,0-.5.3,0,.4.2.1.4,0,.5Z"/>
    <path class="st2" d="M551.6,156.8c-.1.1-.3,0-.5,0,0-.1,0-.3,0-.4.1-.1.3,0,.5,0,0,.1,0,.3,0,.4Z"/>
    <path class="st2" d="M537,155.8c0,.1-.4,0-.5-.2s0-.6,0-.6.3.1.4.3c.1.1.1.3,0,.5Z"/>
    <path class="st2" d="M538.3,155.3c-.1,0-.2-.3-.1-.5s.2-.4.4-.3.2.3.1.5-.3.4-.4.3Z"/>
    <path class="st2" d="M539.4,155.8c-.1,0-.1-.3,0-.6s.4-.4.5-.4.1.3,0,.6-.4.4-.5.4Z"/>
    <path class="st2" d="M537.7,157.7c-.1.1-.4,0-.5-.3s0-.5.1-.6.3.1.4.4.1.4,0,.5Z"/>
    <path class="st5" d="M551.2,146.6c-.1.3-1.1.1-2.2.1s-2.1.2-2.2-.1.8-.9,2.2-.9,2.4.7,2.2.9Z"/>
    <path class="st5" d="M538.8,147c0,.3-.8.4-1.6.3s-1.6-.2-1.6-.5.7-.6,1.6-.5,1.6.4,1.6.7Z"/>
    <path class="st1" d="M527.8,265.7c-.2-2.2,9-3.4,9.8-3.6s.6-1.3-.1-1.1c-1,.3-11.4,2.8-11.6.6-.1-1.2,2.1-1.2,2.1-1.2,0,0,9.9-1.6,9.8-2.6s-6-.3-7.9.1-2.9-.4-2.4-1.4c.4-.7,6.3-2,8.3-2.4s7.3-1.1,4.3-2.9-4.6-4.2-4.6-5.1c0-.6.6-1,1.2-.9.3,0,.6.2.8.5.8.9,1.6,1.6,2.6,2.3.8.6,1.7,1,2.6,1.2,1,.3,1.9.5,2.6.6,5.2-1.6,29.7-12.8,29.7-12.8v-21.2s16.8-3.1,16.8-3.1l.3,20.6c.1,8.8-5.4,16.6-13.6,19.5l-31.2,10.8h0c-3.3,1.5-6.8,3-10.2,4.2-4.9,1.5-5,1-5.1.5-.2-1.6,8.5-2.9,6.5-3.7s-10.5,2.9-10.6,1.2Z"/>
  </g>
  <g id="freepik--character-2--inject-11">
    <path class="st3" d="M346.4,384.2c-.6,1.8-6.7,75.5-6.7,75.5l16.5,1.1,10-69.6-19.8-7Z"/>
    <path class="st5" d="M394.5,131.9c1.8,4.8,2.8,8,4.6,11.8,1,2.2,2.3,4.4,2.2,6.7,0,1.6-.8,3.2-.8,4.8,0,2.9,2.5,5.1,4.7,6.9s4.4,4.4,4,7.2c-.2,1.2-.9,2.4-1,3.6,0,1.5.6,3,1.6,4.2,1,1.1,2,2.3,2.8,3.6l.3,2.3-27.1-8.6"/>
    <path class="st3" d="M389.3,381.4c.5,1.8,4.9,80.2,4.9,80.2l16.5-1.2,1.1-79h-22.4Z"/>
    <path class="st15" d="M411.1,461.4v-1.7s-17.6.4-17.6.4v5.7h1.2c4.8.2,24.5.5,27.7-.5,3.6-1-11.3-3.9-11.3-3.9Z"/>
    <g class="st13">
      <path d="M400,465.4c-.3-1.4-1.1-2.6-2.3-3.4-1.2-.8-2.6-1.2-4.1-1.1v4.5c.1,0,6.4,0,6.4,0Z"/>
    </g>
    <g class="st13">
      <path d="M418.4,463s5.2,1.3,4.6,2.1-20.5,1.2-29.4.6v-.4l23.2-.2s.5-2.1,1.5-2.1Z"/>
    </g>
    <path class="st5" d="M393.4,465.3h4.3c2.7,0,6.4.1,10.5,0s7.8-.2,10.5-.4l3.2-.2h.9c0,0,.3,0,.3,0h-4.3c-2.7.2-6.4.3-10.5.4s-7.8,0-10.5,0h-4.3,0Z"/>
    <path class="st5" d="M416.9,465.3c.1-.5.3-1,.6-1.4.3-.4.7-.8,1.1-1.1-.5.2-1,.6-1.2,1-.3.4-.5,1-.4,1.5Z"/>
    <path class="st5" d="M411.7,463s.3-.3.5-.6.4-.7.4-.7-.3.2-.5.6-.4.7-.3.7Z"/>
    <path class="st5" d="M410.3,462.3s.3-.1.6-.4.5-.5.5-.5-.3.1-.6.4-.5.5-.5.5Z"/>
    <path class="st5" d="M409.3,460.8c.3,0,.6.1.9,0,.3,0,.6,0,.9-.1-.3,0-.6-.1-.9,0-.3,0-.6,0-.9.1Z"/>
    <path class="st5" d="M409,459.8c.3.2.6.3,1,.2.4,0,.7,0,1-.1-.3,0-.7,0-1,0-.3,0-.7-.1-1-.1Z"/>
    <path class="st5" d="M412.3,461.6c.4,0,.7,0,1.1,0,.4,0,.8-.1,1.2-.3.2,0,.5-.2.7-.3.1,0,.2-.2.3-.3,0-.2,0-.3-.2-.4-.9-.4-1.9-.1-2.5.6-.2.2-.3.5-.4.7,0,0,0,.2,0,.3.1-.3.3-.6.5-.9.3-.3.6-.5,1-.6.4-.1.9-.1,1.3,0,.2.1.1.3,0,.4-.2.1-.4.2-.6.3-.4.1-.8.2-1.1.3-.7,0-1.1.1-1.1.1Z"/>
    <path class="st5" d="M412.5,461.6c.1-.2.2-.5.1-.7,0-.3-.2-.5-.3-.8-.2-.3-.6-.5-1-.5-.2,0-.4.2-.3.5,0,0,0,0,0,0,0,.2,0,.3.2.5.2.2.3.4.5.6.2.2.4.3.6.4,0,0-.2-.2-.5-.5-.2-.2-.3-.4-.5-.6-.2-.2-.3-.6,0-.7.3,0,.6.2.8.4.2.2.3.4.3.7,0,.2,0,.5,0,.7Z"/>
    <path class="st5" d="M393.6,460.9c.4,0,.9,0,1.3,0,1,0,2,.4,2.8,1,.8.6,1.4,1.4,1.8,2.3.3.7.3,1.2.4,1.1,0-.1,0-.2,0-.3,0-.3-.1-.6-.2-.9-.3-1-1-1.8-1.8-2.4-.9-.6-1.9-1-3-1-.3,0-.7,0-1,0-.2,0-.3.1-.3.1Z"/>
    <path class="st5" d="M402.1,463.8c.8.2,1.7.2,2.5.2.9,0,1.7,0,2.5-.2h-2.5c-1.4,0-2.5,0-2.5,0Z"/>
    <path class="st5" d="M398.7,463.9s.1.2.2.5.2.5.2.5,0-.2,0-.5-.4-.4-.4-.4Z"/>
    <path class="st5" d="M397.4,462.4s0,.2.3.4.4.3.4.2,0-.2-.3-.4-.4-.3-.4-.2Z"/>
    <path class="st5" d="M395.5,461.8c0,0,.2,0,.5.1s.5.2.5.2-.1-.3-.4-.4-.6,0-.6,0Z"/>
    <path class="st5" d="M394.2,461.5s0,.1.2.2.3,0,.3,0,0-.1-.2-.2-.3,0-.3,0Z"/>
    <path class="st3" d="M322.8,233.9c-4.9-6.7-4.2-16,1.8-21.8l28.9-27.9,5.5,20.4c-.5.3-22.4,20.2-22.4,20.2l15.5,22.9c2.4,3.5,2.8,8.1,1.1,12l-1,3.1c-1.3,4-5.7,6.2-9.7,4.8-.4-.1-.9-.3-1.3-.6l-4.7-2.6c-.5-.2-.7-.8-.5-1.3,0,0,0-.1.1-.2h0c.2-.3.6-.4.9-.4l6.6.5c1.4.1,2.6-.7,3.1-2h0l-24.1-27.3Z"/>
    <path class="st3" d="M337,225.4c-1.1-1.7-2.6-3.2-3.8-4.7"/>
    <path class="st3" d="M418.1,206.3l6.5,11.7,4-31.8c.2-2.3-.3-4.6-1.3-6.7-.4-.9-1-1.8-1.6-2.6-.8-1-1.7-1.9-2.8-2.6-.6-.3-.9-.9-.6-1.5.1-.3.4-.6.8-.7,1-.1,3.9,1.4,6.1,4.5s2.5-2.8,2.6-5,.8-8.7,1.5-9.2c1-.7,2,.3,1.8,2.4s-.2,8.6.9,8.6,1.6-10.8,1.6-10.8c0,0-.3-2.4,1-2.3,2.4,0,1,11.5.8,12.6-.1.8,1.1.8,1.2,0s.2-10.9,2.6-10.9c1.8,0-1,9.5,0,11.6s1.4-7.4,3.2-7.4c.6,0,1.1.1.2,5.6-.5,2.9-2.5,7.1-3,12.8l-.2,1.5s-3.3,27.9-8.2,44.9c-2.9,10.2-17.4,11.2-23.2,2.4-4-6-10.3-21.7-10.3-21.7l16.4-5.4Z"/>
    <path class="st6" d="M441,181.2c0,0-.4,0-.9.2-.8.3-1.4.8-1.8,1.5l-.2.4v-.4c-.3-.6-.6-1.2-1-1.7-.8-1-1.8-1.8-3-2.2-.9-.3-1.6-.3-1.5-.4.5-.1,1.1,0,1.6.1,1.3.4,2.5,1.2,3.2,2.2.4.6.7,1.2.9,1.9h-.4c.5-.8,1.2-1.3,2.1-1.5.3-.1.7-.1,1,0Z"/>
    <path class="st15" d="M338.6,461.3v-1.7s17.6.4,17.6.4v5.7h-1.2c-4.8.2-24.5.5-27.7-.5-3.6-1,11.3-3.9,11.3-3.9Z"/>
    <g class="st13">
      <path d="M349.8,465.4c.3-1.4,1.1-2.6,2.3-3.4,1.2-.8,2.7-1.2,4.1-1.1v4.5c-.1,0-6.4,0-6.4,0Z"/>
    </g>
    <g class="st13">
      <path d="M331.4,462.9s-5.2,1.3-4.6,2.1,20.6,1.2,29.4.6v-.4l-23.3-.2s-.5-2-1.5-2.1Z"/>
    </g>
    <path class="st5" d="M356.4,465.2h-4.3c-2.7,0-6.4.1-10.5,0s-7.8-.2-10.5-.4l-3.2-.2h-.9c0,0-.3,0-.3,0h4.3c2.7.2,6.4.3,10.5.4s7.8,0,10.5,0h4.3Z"/>
    <path class="st5" d="M332.9,465.3c-.1-.5-.3-1-.6-1.4-.3-.4-.7-.8-1.1-1.1.5.2,1,.6,1.2,1,.3.4.5,1,.4,1.5Z"/>
    <path class="st5" d="M338,462.9s-.3-.2-.5-.6-.4-.7-.4-.7.3.3.5.6.4.7.4.7Z"/>
    <path class="st5" d="M339.5,462.3s-.3-.1-.6-.4-.5-.5-.5-.5.3.1.6.4.5.5.5.5Z"/>
    <path class="st5" d="M340.4,460.8c-.3,0-.6.1-.9,0-.3,0-.6,0-.9-.1.3,0,.6-.1.9,0,.3,0,.6,0,.9.1Z"/>
    <path class="st5" d="M340.7,459.7c-.6.3-1.4.3-2.1.1.3,0,.7,0,1,0,.4,0,.7,0,1.1-.1Z"/>
    <path class="st5" d="M337.5,461.5c-.4,0-.7,0-1.1,0-.4,0-.8-.1-1.2-.3-.2,0-.5-.2-.7-.3-.1,0-.2-.2-.3-.3,0-.2,0-.3.2-.4.9-.4,1.9-.1,2.5.6.2.2.3.4.4.7v.3c-.1-.3-.3-.6-.5-.9-.3-.3-.6-.5-.9-.6-.4-.2-.9-.1-1.3,0-.2.1-.1.3,0,.4.2.1.4.2.6.3.4.1.8.2,1.1.3.7,0,1.1,0,1.1.1Z"/>
    <path class="st5" d="M337.2,461.5c-.1-.2-.2-.5-.1-.7,0-.3.2-.5.3-.8.2-.3.6-.5.9-.5.2,0,.4.2.3.5,0,0,0,0,0,0,0,.2-.1.3-.2.5-.2.2-.3.4-.5.6-.2.2-.4.3-.6.4,0,0,.2-.2.5-.5.2-.2.3-.4.5-.6.2-.2.3-.6,0-.7-.3,0-.6.2-.8.4-.2.2-.3.4-.3.7,0,.2,0,.5,0,.7Z"/>
    <path class="st5" d="M356.1,460.8s-.5,0-1.3,0c-1,0-2,.4-2.8,1-.8.6-1.4,1.4-1.8,2.3-.1.4-.3.8-.4,1.1v-.3c0-.3.1-.6.2-.9.3-1,1-1.8,1.8-2.4.9-.6,1.9-1,3-1,.3,0,.7,0,1,0,0,0,.2,0,.3.2Z"/>
    <path class="st5" d="M347.6,463.8c-.8.2-1.7.2-2.6.2-.9,0-1.7,0-2.5-.2,0,0,1.1,0,2.5,0s2.5,0,2.6,0Z"/>
    <path class="st5" d="M351,463.8s-.1.2-.2.5-.2.5-.2.5,0-.3,0-.5.4-.4.4-.4Z"/>
    <path class="st5" d="M352.4,462.3s0,.2-.3.4-.4.3-.4.2,0-.2.3-.4.4-.3.4-.2Z"/>
    <path class="st5" d="M354.2,461.7c0,0-.2,0-.5.1s-.4.2-.5.2.1-.3.4-.4.6,0,.6,0Z"/>
    <path class="st5" d="M355.5,461.4s0,.1-.2.2-.3,0-.3,0,0-.1.2-.2.3,0,.3,0Z"/>
    <path class="st5" d="M361.3,241.8l-11.6,27-13.5,149,34.8,3.8,11.3-128.5,3.4,129.6,31.9-1-4.7-152.6c-.2-4.1-1.2-8.2-3-11.9l-7.7-15.7-41,.3Z"/>
    <path class="st15" d="M385.8,282.8s0,.1-.3.3c-.4.2-.8.3-1.2.3-.7,0-1.3-.2-1.9-.5-.7-.5-1.3-1.1-1.6-1.9-.8-1.8-.6-4-.7-6.5s0-5.1,0-7.9v-14.4c0-1.8,0-3.2,0-4.4,0-.5,0-1.1.1-1.6,0,.5.1,1.1.1,1.6,0,1.1,0,2.6.1,4.4,0,3.7.1,8.7.1,14.4v7.9c0,2.4-.2,4.6.5,6.3.5,1.3,1.7,2.3,3.2,2.4.5,0,1-.1,1.5-.4Z"/>
    <path class="st15" d="M410.6,258.2c-.3.2-.5.4-.9.5-.8.3-1.7.6-2.6.7-1.3.2-2.7.1-4-.2-1.6-.4-3.1-.9-4.5-1.7-2.6-1.4-4.7-3.7-6-6.3-.4-.8-.7-1.6-.9-2.5,0-.3-.1-.7-.1-1,.1,0,.4,1.4,1.4,3.3,1.3,2.5,3.4,4.6,5.9,6.1,1.4.8,2.9,1.3,4.4,1.7,1.3.3,2.5.4,3.8.2,1.2-.2,2.4-.4,3.5-.8Z"/>
    <path class="st15" d="M369.5,248.1c0,.3,0,.6,0,.9,0,.8-.2,1.7-.5,2.5-1.7,5.6-6.6,9.5-12.3,10.1-.8,0-1.7,0-2.5,0-.3,0-.6,0-.9-.2,0-.1,1.3,0,3.4-.2,5.5-.8,10.2-4.6,12-9.9.7-2,.8-3.3.9-3.3Z"/>
    <path class="st15" d="M383.8,245.7s.1,0,.4,0c.3,0,.7.2.9.4.4.4.6.9.5,1.4-.2.9-1.1,1.5-2.1,1.3-.4,0-.8-.3-1-.7-.3-.5-.3-1,0-1.5.1-.3.4-.6.7-.8.2-.1.4-.1.4,0s-.5.2-.7,1c-.1.4,0,.8.1,1.2.3.4.8.6,1.2.4.5,0,.9-.4,1-.9,0-.4,0-.8-.3-1.1-.5-.6-1-.6-1-.7Z"/>
    <path class="st15" d="M371.3,412.5c-.4,0-.9,0-1.3,0-.9,0-2.1-.1-3.6-.2-3-.2-7.3-.6-11.9-1.2s-8.8-1.2-11.8-1.7c-1.5-.2-2.7-.5-3.6-.6-.4,0-.9-.2-1.3-.3.4,0,.9,0,1.3.1l3.6.5c3,.4,7.2,1,11.8,1.5s8.8,1,11.9,1.4l3.6.4c.4,0,.9,0,1.3.2Z"/>
    <path class="st15" d="M416,411c-.4,0-.8.1-1.2.1h-3.3c-2.8.3-6.6.5-10.8.8s-8,.7-10.8,1.1l-3.3.4c-.4,0-.8,0-1.2,0,.4-.1.8-.2,1.2-.3.8-.1,1.9-.3,3.2-.5,2.8-.4,6.6-.9,10.8-1.2s8.1-.5,10.9-.5h3.3c.4,0,.8,0,1.2.1Z"/>
    <path class="st15" d="M412.7,405.5c.4,1.6.5,3.3.2,5-.3-.8-.4-1.6-.4-2.5-.1-.8,0-1.7.2-2.5Z"/>
    <path class="st15" d="M412.3,395.5c.3.8.4,1.6.4,2.5.1.8,0,1.7-.2,2.5-.3-.8-.4-1.6-.4-2.5-.1-.8,0-1.7.1-2.5Z"/>
    <path class="st15" d="M411.9,385.5c.4,1.6.5,3.3.2,5-.3-.8-.4-1.6-.4-2.5-.1-.8,0-1.7.2-2.5Z"/>
    <path class="st15" d="M411.5,375.6c.3.8.4,1.6.4,2.5.1.8,0,1.7-.2,2.5-.3-.8-.4-1.6-.4-2.5-.1-.8,0-1.7.2-2.5Z"/>
    <path class="st15" d="M411.1,365.6c.3.8.4,1.6.4,2.5.1.8,0,1.7-.2,2.5-.3-.8-.4-1.6-.4-2.5-.1-.8,0-1.7.2-2.5Z"/>
    <path class="st15" d="M410.7,355.6c.3.8.4,1.6.4,2.5.1.8,0,1.7-.2,2.5-.3-.8-.4-1.6-.4-2.5-.1-.8,0-1.7.1-2.5Z"/>
    <path class="st15" d="M410.3,345.6c.3.8.4,1.6.4,2.5.1.8,0,1.7-.2,2.5-.3-.8-.4-1.6-.4-2.5-.1-.8,0-1.7.2-2.5Z"/>
    <path class="st15" d="M409.9,335.6c.3.8.4,1.6.4,2.5.1.8,0,1.7-.2,2.5-.3-.8-.4-1.6-.4-2.5-.1-.8,0-1.7.2-2.5Z"/>
    <path class="st15" d="M409.5,325.6c.3.8.4,1.6.4,2.5.1.8,0,1.7-.1,2.5-.3-.8-.4-1.6-.4-2.5-.1-.8,0-1.7.2-2.5Z"/>
    <path class="st15" d="M409.1,315.6c.3.8.4,1.6.4,2.5.1.8,0,1.7-.2,2.5-.3-.8-.4-1.6-.4-2.5-.1-.8,0-1.7.1-2.5Z"/>
    <path class="st15" d="M408.7,305.6c.4,1.6.5,3.3.2,5-.3-.8-.4-1.6-.4-2.5-.1-.8,0-1.7.2-2.5Z"/>
    <path class="st15" d="M408.2,295.6c.3.8.4,1.6.4,2.5.1.8,0,1.7-.2,2.5-.3-.8-.4-1.6-.4-2.5-.1-.8,0-1.7.2-2.5Z"/>
    <path class="st15" d="M407.8,285.6c.3.8.4,1.6.4,2.5.1.8,0,1.7-.1,2.5-.3-.8-.4-1.6-.4-2.5-.1-.8,0-1.7.2-2.5Z"/>
    <path class="st15" d="M407.4,275.6c.3.8.4,1.6.4,2.5.1.8,0,1.7-.2,2.5-.3-.8-.4-1.6-.4-2.5-.1-.8,0-1.7.1-2.5Z"/>
    <path class="st15" d="M407,265.6c.4,1.6.5,3.3.2,5-.3-.8-.4-1.6-.4-2.5-.1-.8,0-1.7.2-2.5Z"/>
    <path class="st15" d="M406.8,259c.1,0,.3.4.3.8s0,.8-.2.8-.3-.4-.3-.8,0-.8.2-.8Z"/>
    <path class="st15" d="M342.1,404c.2.8.2,1.7,0,2.5,0,.8-.2,1.7-.5,2.5-.2-1.7,0-3.4.5-5h0Z"/>
    <path class="st15" d="M343,394.1c.2.8.2,1.7,0,2.5,0,.8-.2,1.7-.5,2.5-.2-.8-.2-1.7,0-2.5,0-.8.2-1.7.5-2.5Z"/>
    <path class="st15" d="M344,384.1c.2,1.7,0,3.4-.5,5-.2-.8-.2-1.7,0-2.5,0-.9.1-1.7.5-2.5Z"/>
    <path class="st15" d="M344.9,374.1c.2.8.2,1.7,0,2.5,0,.8-.2,1.7-.5,2.5-.2-1.7,0-3.4.5-5h0Z"/>
    <path class="st15" d="M345.8,364.2c.2.8.2,1.7,0,2.5,0,.8-.2,1.7-.5,2.5-.2-.8-.2-1.7,0-2.5,0-.8.2-1.7.5-2.5Z"/>
    <path class="st15" d="M346.8,354.2c.2,1.7,0,3.4-.5,5-.2-.8-.2-1.7,0-2.5,0-.9.1-1.7.5-2.5Z"/>
    <path class="st15" d="M347.7,344.3c.2.8.2,1.7,0,2.5,0,.8-.2,1.7-.5,2.5-.2-1.7,0-3.4.5-5h0Z"/>
    <path class="st15" d="M348.6,334.3c.2.8.2,1.7,0,2.5,0,.8-.2,1.7-.5,2.5-.2-.8-.2-1.7,0-2.5,0-.8.2-1.7.5-2.5Z"/>
    <path class="st15" d="M349.6,324.4c.2,1.7,0,3.4-.5,5-.2-.8-.2-1.7,0-2.5,0-.9.1-1.7.5-2.5Z"/>
    <path class="st15" d="M350.5,314.4c.2.8.2,1.7,0,2.5,0,.8-.2,1.7-.5,2.5-.2-1.7,0-3.4.5-5h0Z"/>
    <path class="st15" d="M351.4,304.5c.2.8.2,1.7,0,2.5,0,.8-.2,1.7-.5,2.5-.2-.8-.2-1.7,0-2.5,0-.8.2-1.7.5-2.5Z"/>
    <path class="st15" d="M352.4,294.5c.2,1.7,0,3.4-.5,5-.2-.8-.2-1.7,0-2.5,0-.9.1-1.7.5-2.5Z"/>
    <path class="st15" d="M353.3,284.5c.2.8.2,1.7,0,2.5,0,.8-.2,1.7-.5,2.5-.2-1.7,0-3.4.5-5h0Z"/>
    <path class="st15" d="M354.2,274.6c.2.8.2,1.7,0,2.5,0,.8-.2,1.7-.5,2.5-.2-.8-.2-1.7,0-2.5,0-.8.2-1.7.5-2.5Z"/>
    <path class="st15" d="M355.2,264.6c.2,1.7,0,3.4-.5,5-.2-.8-.2-1.7,0-2.5,0-.9.1-1.7.5-2.5Z"/>
    <path class="st7" d="M402.4,241.4s.3-28.5.3-29l18.4-2.1s-5.6-21.3-8.7-25.3c-8-10.4-20.8-8.5-20.8-8.5l-19-.2c-.5-.1-1.1-.2-1.6-.3-5.6-.7-11.3,1.2-15.5,5l-21.6,19.6,17.2,15.7,7.9-6.5,2.4,31.9,41.1-.3Z"/>
    <path class="st5" d="M417.9,199.3c0,.1-12.8,8.3-28.8,18.3s-29,18-29.1,17.9,12.8-8.3,28.8-18.3,29-18,29.1-17.9Z"/>
    <path class="st5" d="M396.4,176.9c.1,0-8,11-18.1,24.4s-18.5,24.2-18.6,24.1,8-11,18.2-24.4,18.5-24.2,18.6-24.1Z"/>
    <path class="st5" d="M350.7,185.4c.1-3.7-1.8-7.6-.4-11.1,1-2.6,3.8-4.1,4.9-6.7s.4-5.3,0-7.9-.5-5.7,1.3-7.6c1.5-1.6,4-1.9,5.6-3.4,1.4-1.5,2.1-3.4,2.1-5.5.1-2-.1-4,.2-6,.6-4.1,3.1-7.8,6.9-9.7,3.9-2.1,8.7-1.3,11.7,1.8l-12.4,46.9c-7.3,1.5-14.1,4.6-19.9,9.1Z"/>
    <path class="st5" d="M350.8,166.2s-.1,0-.3.3c-.3.3-.5.6-.5,1-.1.6,0,1.2.5,1.7.6.5,1.5.7,2.3.4.9-.3,1.7-1.1,1.9-2.1.3-1.1.3-2.3-.1-3.4-.3-1.2-.9-2.4-1.3-3.7-.5-1.4-.6-2.9-.3-4.3.5-2.8,2.3-5.3,4.9-6.5,1.2-.6,2.3-.9,3.3-1.4.9-.4,1.8-1,2.4-1.8.9-1.2,1.4-2.6,1.4-4.1,0-.5,0-1.1-.2-1.6,0,0,0,.1.2.4.1.4.2.8.2,1.2,0,1.6-.4,3.1-1.3,4.3-.7.9-1.5,1.5-2.5,2-1,.5-2.2.9-3.3,1.4-2.4,1.2-4.1,3.5-4.6,6.2-.2,1.4-.1,2.8.3,4.1.4,1.3,1,2.5,1.3,3.8.4,1.2.4,2.5,0,3.7-.3,1.1-1.1,1.9-2.2,2.3-.9.3-1.9,0-2.6-.5-.5-.5-.7-1.2-.5-1.9,0-.4.3-.8.7-1.1.1,0,.3-.2.4-.2Z"/>
    <path class="st5" d="M389.2,175.6c-.4-5.2-6.5-2.1-5.8-7.3,1.5-11.8,2.1-23.6,1.7-35.5"/>
    <path class="st3" d="M370.8,175.7l-2.3-35.9c6-8.2,14-9.9,23.9-7,0,0,4.2,17.3,3.7,25.6-.5,8.7-7,10.4-7,10.4,0,0,.2,2.9.5,6.5,1.7.3,4.4.7,6.2,1.2.7.2-13.9,19.9-13.9,19.9l-17.1-18.5c1.9-1,4-1.7,6.1-2.2Z"/>
    <path class="st5" d="M392.3,146.4c0,.6-.4,1.1-1,1.2-.6.1-1.1-.3-1.2-.8,0,0,0,0,0,0,0-.6.4-1.1,1-1.2.6,0,1.1.3,1.2.9Z"/>
    <path class="st5" d="M393.6,145.4c-.1.1-1-.4-2.2-.3s-2,.8-2.1.7,0-.3.4-.6c1-.8,2.3-1,3.5-.3.4.2.5.5.5.6Z"/>
    <path class="st5" d="M380.3,147.8c0,.6-.4,1.1-1,1.2-.6.1-1.1-.3-1.2-.9,0,0,0,0,0,0,0-.6.4-1.1,1-1.2.6-.1,1.1.3,1.2.9,0,0,0,0,0,0Z"/>
    <path class="st5" d="M381.6,146.8c-.1.1-1-.4-2.2-.3s-2,.8-2.1.7,0-.3.4-.6c.5-.4,1.1-.7,1.7-.7.6,0,1.2,0,1.8.4.4.2.5.5.5.6Z"/>
    <path class="st5" d="M386.9,154.9c.6-.3,1.2-.4,1.9-.5.3,0,.6-.1.6-.4,0-.3-.1-.6-.3-.9-.4-.7-.7-1.4-1.1-2.2-1-1.9-1.9-3.8-2.6-5.8,1.2,1.8,2.2,3.6,3.1,5.6.4.8.7,1.5,1.1,2.2.2.3.3.8.3,1.2,0,.2-.2.4-.5.5-.2,0-.3,0-.5.1-.6.1-1.3.2-1.9.2Z"/>
    <path class="st6" d="M389,168.8c-4,.5-8.1-.2-11.8-1.9,0,0,3.4,5.6,11.8,4v-2.1Z"/>
    <path class="st6" d="M386.6,157.8c-.5-.5-1.3-.8-2-.6-.5.1-1,.4-1.3.9-.3.4-.3,1,0,1.4.4.4,1.1.5,1.6.2.5-.3,1-.6,1.4-1.1.1-.1.2-.2.3-.4,0-.1,0-.3,0-.4"/>
    <path class="st5" d="M383.5,156.1c.2,0,.3,1.2,1.5,2.1s2.5.5,2.6.7-.3.3-.9.4c-.7,0-1.5-.1-2.1-.5-.6-.4-1-1-1.2-1.7,0-.5,0-.9.1-.9Z"/>
    <path class="st5" d="M389.6,143.7c0,.2.9,0,1.9,0s1.8.1,1.9,0-.8-.7-1.9-.6-2,.5-1.9.6Z"/>
    <path class="st5" d="M377.7,144.2v-.2.2c.6-.2,1.2-.4,1.9-.5,1.1-.1,2,.2,2.1,0s-.1-.3-.5-.5c-.5-.2-1.1-.3-1.6-.3-.7,0-1.4.4-1.9.9h0c.1.2.2.3.2.2Z"/>
    <path class="st6" d="M377.4,151.9c.1,0,.2-.1.2-.3s0-.3-.1-.3-.2.1-.2.3,0,.3.1.3Z"/>
    <path class="st6" d="M380.1,151.8c0,0,.2-.2,0-.3s-.2-.2-.3-.2,0,.2,0,.3,0,.2.2.2Z"/>
    <path class="st6" d="M378.7,153c.1,0,.2-.1.1-.2,0-.1,0-.2-.2-.2-.1,0-.2.1-.2.2,0,0,0,.2.2.2Z"/>
    <path class="st6" d="M394.1,151.2c0,0,.1-.2.1-.3s-.1-.3-.2-.3-.1.2-.1.3.1.3.2.3Z"/>
    <path class="st6" d="M391.4,151.3c.1,0,.2-.1.2-.3s0-.2-.2-.2-.2.1-.2.3,0,.2.2.2Z"/>
    <path class="st6" d="M392.7,152.2c.1,0,.2-.1.2-.3s0-.3-.2-.3-.2.1-.2.3,0,.3.2.3Z"/>
    <path class="st5" d="M384.1,128.7c.4,4.1,2.1,8,4.9,11.1,2.8,3.1,5.9,5.7,10,6.4-1.1-3.5-1.3-6.3-2.2-9.2s-2.1-5.9-4.4-7.9c-2.9-2.5-7.1-3.2-10.7-1.7"/>
    <path class="st15" d="M398,143s-.2,0-.7.1c-.7,0-1.3,0-2-.2-.9-.2-1.8-.7-2.6-1.2-1-.7-1.9-1.4-2.7-2.3-1.5-1.5-2.8-3.3-3.8-5.1-.5-.8-.8-1.6-1.1-2.4.6.7,1.1,1.4,1.5,2.2,1.1,1.8,2.4,3.5,3.9,5,1.4,1.6,3.2,2.8,5.1,3.5.8.2,1.7.3,2.5.4Z"/>
    <path class="st15" d="M395.4,143.4s.1,0,.3.3c.3.3.5.6.8.9.8,1.2,1.5,2.5,1.8,3.9.2,1,.3,2,.3,3,0,1.1-.2,2.3-.5,3.4-.3,1.2-.5,2.4-.5,3.6,0,1.3.2,2.6.8,3.8.6,1.2,1.4,2.2,2.4,3,1,.8,2.1,1.3,3.1,2.1,1,.7,1.6,1.8,1.6,3.1,0,1-.4,2-1,2.8-.4.7-.8,1.4-1.1,2.1-.2.6-.3,1.1-.4,1.7,0,.5.2,1,.5,1.4,0,0-.1,0-.3-.3-.2-.3-.3-.7-.4-1.1,0-.6,0-1.3.3-1.9.3-.8.7-1.5,1.1-2.2.5-.8.8-1.7.9-2.7,0-1.1-.6-2.1-1.5-2.7-.9-.7-2-1.3-3.1-2.1-1.1-.8-2-1.9-2.6-3.2-.6-1.2-.9-2.6-.8-4,0-1.3.3-2.5.6-3.7.3-1.1.4-2.2.5-3.3,0-1,0-1.9-.2-2.9-.3-1.4-.8-2.7-1.6-3.9-.5-.8-.9-1.3-.9-1.3Z"/>
    <path class="st5" d="M405.1,161.5c0,.2,0,.3-.2.4-.2.4-.6.8-1,1-.7.4-1.4.5-2.1.4-1-.2-1.9-.8-2.4-1.6-.6-1-.9-2.2-.7-3.4.2-1.3.7-2.6,1.5-3.7.8-1.2,1.8-2.2,2.6-3.5.8-1.2,1.1-2.8.7-4.2-.4-1.4-1.4-2.6-2.8-3.3-.6-.3-1.3-.5-2-.6-.7-.1-1.4-.3-2.1-.5-1.3-.4-2.5-.9-3.6-1.7-.9-.7-1.8-1.4-2.7-2.2-1.3-1.1-2.4-2.3-3.3-3.8-.2-.4-.4-.8-.6-1.2,0-.1,0-.3-.1-.5.3.5.6,1.1.9,1.6.9,1.3,2.1,2.5,3.3,3.6,1.8,1.7,3.9,2.9,6.2,3.7.6.2,1.3.3,2,.5.8.1,1.5.4,2.2.7,1.5.8,2.5,2.1,3,3.6.4,1.6.2,3.3-.8,4.7-.8,1.3-1.9,2.3-2.6,3.5-.7,1-1.3,2.2-1.5,3.5-.2,1.1,0,2.2.6,3.2.4.8,1.2,1.4,2.1,1.5.7.1,1.4,0,2-.3.5-.3,1-.7,1.2-1.3Z"/>
    <path class="st15" d="M354.4,182.8s-.1-.1-.4-.4c-.3-.4-.6-.8-.8-1.2-.8-1.6-1.1-3.5-.8-5.3.2-1.3.8-2.4,1.5-3.4.9-1.1,2-2.1,3.1-3,1.2-.9,2.3-2.1,3.2-3.3.4-.7.7-1.4.9-2.2.1-.8,0-1.6-.3-2.4-.6-1.6-1.8-2.9-2.5-4.4-.3-.8-.5-1.6-.4-2.5.1-.8.5-1.6,1-2.2.9-1.1,2-2.1,3.3-2.8,1.1-.6,2.1-1.3,3-2.1,1.4-1.1,2.1-2.8,2.1-4.6-.1-.6-.3-1.3-.6-1.9,0,0,.1.1.3.4.2.4.4.9.5,1.4.2,1.9-.6,3.7-2,4.9-.9.8-1.9,1.6-3,2.2-1.2.7-2.3,1.6-3.2,2.7-.4.6-.7,1.3-.8,2,0,.8,0,1.5.4,2.2.6,1.5,1.8,2.8,2.5,4.4.4.8.5,1.8.4,2.6-.1.9-.5,1.7-.9,2.4-.9,1.3-2,2.5-3.3,3.4-1.1.8-2.2,1.8-3.1,2.9-.8.9-1.3,2.1-1.5,3.2-.4,1.7-.1,3.6.6,5.2.3.6.6,1.2,1,1.7Z"/>
    <path class="st5" d="M358.7,181.4c.5-3.9,1.2-5.6,1.2-9.5,0-3.6,3.3-8.4,1.3-12.7.7-2.7,1.7-5.3,2.9-7.8.7-1.6,3.2-6.3,3.9-7.9-.4-2.9-2.5-2.7-2.1-5.7.5-3.5,2.1-7.1,5.1-9,1.9-1.1,4.1-1.8,6.3-1.9,1.5-.2,3.1-.1,4.6.2,1.5.4,2.8,1.3,3.7,2.6l-.8-.7c.6,3.4-.3,6.8-2.6,9.4-2.3,2.5-5.2,4.3-8.5,5,0,1.1-.2,2.2-.7,3.2h0c0,.1-.2.2-.2.2-.2.4-.5.7-.7,1-.4.4-.8.8-1.2,1.1-.7,1.3-.7,2.9,0,4.3.8,1.5,2.5,2.6,2.8,4.3.4,1.9-1.1,3.7-1,5.7,0,1,.4,2,1,2.9,3.5,4.5,2.9,9.2.9,14.6-.7,2-1.9,4.1-1.3,6.1s2.5,3.2,3.1,5.1c.9,2.7-1.1,5.3-3,7.4-3.9-1.7-8-3.1-12.2-4,.4-1.8.6-3.6.6-5.4-.5,2.5-2.9,4.2-5.5,3.8-1.4-.3-2.6-1.2-3.3-2.4,3.4-1.8,5.2-5.9,5.7-9.8Z"/>
    <path class="st15" d="M364.4,139.4c1.1.7,2.2,1.4,3.4,1.9,6,2.6,12.9,0,15.8-5.8.6-1.2,1.1-2.4,1.5-3.6,0,.3,0,.7-.1,1-.2.9-.6,1.8-1,2.7-.6,1.3-1.5,2.5-2.5,3.5-1.2,1.3-2.7,2.3-4.4,2.9-3.1,1.1-6.4.9-9.4-.4-.9-.4-1.7-.9-2.5-1.5-.3-.2-.6-.5-.8-.8Z"/>
    <path class="st15" d="M365,135c0,0,.9.1,2.4.2,3.9.2,7.6-1.3,10.4-4,1-1,1.6-1.8,1.6-1.8-.3.7-.8,1.4-1.4,2-1.3,1.5-3,2.6-4.8,3.3-1.8.7-3.8,1-5.8.8-.8,0-1.6-.2-2.4-.6Z"/>
    <path class="st15" d="M364.4,136.9c.1-.1.9.8,2.2,1.4s2.5.8,2.5.9c-.9.2-1.9,0-2.7-.5-1.4-.7-2.1-1.9-2-1.9Z"/>
    <path class="st15" d="M365.3,196.4c0-.2,0-.4,0-.6.1-.6.5-1.2,1-1.6.8-.5,1.5-1.2,1.9-2,.5-1.1.5-2.4-.1-3.5-.4-.6-1-1-1.6-1.3-.8-.4-1.4-1-1.8-1.8-.2-.4-.3-.9-.3-1.3,0-.5.1-.9.3-1.4.4-.8.8-1.6,1.4-2.4,2.1-3.5,1.7-7.9-1-11-.8-.8-1.3-1.9-1.4-3,0-1.1.5-2.1,1.2-3,.6-.8,1.3-1.6,1.8-2.4.6-.7.8-1.6.8-2.5-.1-.9-.5-1.7-1.1-2.3-.6-.7-1.1-1.4-1.5-2.3-.7-1.5-.6-3.2.2-4.6.8-1,1.8-1.9,2.9-2.5.8-.5,1.4-1.2,1.8-2.1.2-.6.3-1.2.2-1.8,0-.4-.2-.6-.2-.6.1.2.2.4.3.6.1.6,0,1.3-.1,1.8-.3.9-1,1.7-1.8,2.3-1.1.6-2,1.5-2.8,2.5-.7,1.3-.7,2.9,0,4.3.4.8.8,1.5,1.4,2.1,1.5,1.4,1.7,3.8.3,5.4-.5.9-1.3,1.6-1.8,2.4-.6.8-1,1.7-1.1,2.7.1,1,.6,2,1.3,2.7,1.5,1.6,2.3,3.7,2.5,5.8.1,2-.4,4-1.4,5.8-.5.7-1,1.5-1.3,2.3-.2.4-.3.8-.3,1.2,0,.4,0,.8.2,1.1.3.7.9,1.3,1.6,1.6.7.3,1.3.9,1.7,1.5.4.6.6,1.3.5,2,0,.6-.2,1.2-.5,1.8-.2.5-.5.9-1,1.3-.4.3-.8.5-1.1.8-.5.4-.8.9-1,1.4,0,.2-.1.4-.2.6Z"/>
    <path class="st15" d="M364.3,138.3c.9.9,2,1.7,3.2,2.3,1.3.6,2.7.9,4.1.9,1.7,0,3.4-.4,5-1.2,1.5-.8,2.8-2.1,3.5-3.7.7-1.4,1.1-2.9,1.6-4,.4-.9.9-1.8,1.5-2.5.2-.2.4-.4.6-.6.1-.1.2-.2.2-.2-.9,1-1.5,2.2-2,3.4-.5,1.1-.8,2.6-1.5,4.1-.7,1.7-2,3.1-3.6,3.9-1.6.8-3.4,1.2-5.2,1.2-1.5,0-2.9-.3-4.3-1-.9-.5-1.7-1-2.4-1.8-.3-.3-.5-.6-.6-.9Z"/>
  </g>
  <g id="freepik--character-1--inject-11">
    <path class="st15" d="M167.2,455.6l-1.9,7.8s-12.8,16.6-16.8,15.8c-2.6-.5.6-4.9,5.5-17.5l1-5.2,12.2-.9Z"/>
    <path class="st5" d="M148.1,476.8c.2.3.4.5.7.7.8.4,1.8.2,2.4-.3,2.2-1.9,4.4-3.9,6.4-6,2.4-2.5,4.4-4.9,5.8-6.6l1.6-2.1c.1-.2.3-.4.4-.6,0,0,.1-.1.2-.2,0,0,0,0-.1.2s-.3.4-.4.6c-.4.5-.9,1.3-1.6,2.1-1.8,2.3-3.7,4.6-5.7,6.7-2,2.1-4.2,4.2-6.4,6-.4.3-.9.5-1.4.5-.4,0-.8,0-1.1-.2-.2-.1-.4-.3-.5-.5,0,0,0-.2,0-.3Z"/>
    <path class="st5" d="M149.9,471.5c.3-.1.7-.2,1.1-.1.9,0,1.7.4,2.4.8.8.4,1.4,1.1,1.8,1.9.2.3.3.6.3,1,0,0-.1-.4-.4-1-.4-.7-1-1.3-1.7-1.7-.7-.4-1.5-.7-2.3-.9-.6,0-1,0-1,0Z"/>
    <path class="st5" d="M162.1,467.6s0-.1-.2-.4c-.1-.3-.2-.7-.2-1.1-.2-1.2,0-2.5.6-3.6.6-1.1,1.5-2,2.6-2.5.3-.2.7-.3,1-.3.1,0,.3,0,.4,0-.5.1-.9.3-1.4.5-1.1.5-1.9,1.4-2.5,2.5-.5,1.1-.8,2.3-.6,3.4.2.9.3,1.4.3,1.4Z"/>
    <path class="st5" d="M166.4,457c0,0-.2,1.1-.5,2.5,0,.8-.3,1.7-.7,2.5,0,0,.2-1.1.4-2.5.1-.8.3-1.7.7-2.4Z"/>
    <path class="st5" d="M153.9,462.9c.5-.2,1.1-.2,1.6,0,.6,0,1.1.3,1.5.7,0,0-.7-.3-1.5-.5s-1.6-.1-1.6-.2Z"/>
    <path class="st5" d="M153.6,464.2c.4-.2.9-.2,1.4,0,.5,0,.9.3,1.2.7,0,0-.6-.3-1.3-.5s-1.3-.1-1.3-.2Z"/>
    <path class="st5" d="M152.6,465.9c.4-.3.9-.3,1.4-.2.5,0,.9.4,1.2.8-.4-.2-.8-.4-1.2-.5-.5,0-.9-.1-1.4,0Z"/>
    <path class="st5" d="M154.8,462.3s.6-.2,1.5-.5c.5-.2,1.1-.5,1.6-.7.3-.2.6-.3.9-.5s.5-.5.5-.8-.4-.5-.7-.4c-.3.1-.6.3-.8.5-.5.4-.9.9-1.2,1.2-.6.7-1,1.2-1,1.2,0-.1.1-.3.2-.4.2-.2.4-.5.7-.9.4-.5.8-.9,1.2-1.3.2-.3.5-.5.9-.6.4-.1.8,0,1,.5,0,0,0,0,0,.1,0,.4-.3.8-.6,1-.3.2-.6.4-.9.5-.5.3-1,.5-1.6.7-.4.1-.7.2-1.1.3-.2,0-.3,0-.5,0Z"/>
    <path class="st5" d="M155.4,462.2c-.1-.5-.2-.9-.2-1.4,0-.5-.2-1-.4-1.5-.1-.3-.3-.5-.5-.8-.2-.2-.5-.4-.7-.3s-.3.5-.2.8c0,.3.1.6.2.9.2.5.5.9.8,1.3.6.7,1.1,1,1,1-.1,0-.2-.1-.3-.2-.3-.2-.6-.4-.8-.7-.4-.4-.7-.8-.9-1.3-.1-.3-.2-.6-.3-.9,0-.4,0-.8.4-1,.4-.1.8,0,1,.3.2.2.4.5.5.8.2.5.4,1,.4,1.5,0,.5,0,.8,0,1.1,0,.1,0,.3,0,.4Z"/>
    <g class="st11">
      <path d="M165.4,463.5l.9-3.8s-3.1.6-3.9,2.9c-.5,1.3-.7,2.6-.6,4l-6.8,7.4s-1.7-3.3-4.8-2.5c0,0-2.4,5.4-2.4,6.7s1.6,1.2,2.2.9c2.3-1.3,4.3-2.9,6.1-4.8,3.6-3.7,7.6-8.5,9.4-10.8Z"/>
    </g>
    <path class="st15" d="M228.6,460.7v-10.4c0,0-19.5-.2-19.5-.2l-.2,15.3h1.2c5.4.5,27.4,1.6,31.1.5,4-1.2-12.5-5.1-12.5-5.1Z"/>
    <g class="st11">
      <path d="M215.9,465.2c-.3-1.7-1.1-3.1-2.4-4.2-1.3-1-2.9-1.6-4.6-1.5v5.5c0,0,7,.2,7,.2Z"/>
    </g>
    <g class="st11">
      <path d="M236.7,462.9s5.8,1.8,5.1,2.7-23.1.7-32.9-.3v-.4l26,.5s.7-2.5,1.9-2.5Z"/>
    </g>
    <path class="st5" d="M208.6,464.8h1.3c0,0,3.6.3,3.6.3,3,.1,7.1.3,11.7.4s8.7,0,11.7,0h3.6c0-.1,1-.1,1-.1.1,0,.2,0,.3,0-.1,0-.2,0-.3,0h-16.3c-4.6,0-8.7-.2-11.7-.3h-3.6c0-.1-1-.1-1-.1h-.3Z"/>
    <path class="st5" d="M234.9,465.7c.2-.6.4-1.2.7-1.7.4-.5.8-.9,1.2-1.3-1.2.5-2,1.7-1.9,3h0Z"/>
    <path class="st5" d="M229.2,462.7c0,0,.3-.3.6-.7.2-.3.4-.6.4-.9,0,0-.3.3-.6.7-.2.3-.4.6-.4.9Z"/>
    <path class="st5" d="M227.6,461.8s.4-.1.7-.5.6-.6.5-.6-.4.2-.7.5-.6.6-.5.6Z"/>
    <path class="st5" d="M226.6,460c.3.1.7.2,1,.1.3,0,.7,0,1-.1-.3-.1-.7-.2-1-.1-.3,0-.7,0-1,0Z"/>
    <path class="st5" d="M226.3,458.7c.3.2.7.3,1.1.3.4,0,.8,0,1.2-.1-.4,0-.8,0-1.2,0-.4,0-.8-.1-1.2-.1Z"/>
    <path class="st5" d="M229.9,461c.4,0,.8,0,1.2,0,.5,0,.9-.1,1.4-.3.3,0,.5-.2.8-.3.1,0,.3-.2.3-.4,0-.2,0-.4-.2-.5-1-.5-2.2-.2-2.9.6-.2.2-.3.5-.4.8,0,.1,0,.2,0,.3.1-.4.3-.8.6-1.1.3-.3.7-.6,1.1-.7.5-.2,1-.1,1.5.1.2.1.1.4-.1.5-.2.1-.5.2-.7.3-.4.1-.9.3-1.3.3-.8.2-1.3.2-1.3.2Z"/>
    <path class="st5" d="M230.2,461.1c.2-.3.2-.6.2-.9,0-.3-.2-.6-.3-.9-.2-.4-.6-.6-1-.7-.3,0-.4.3-.4.6,0,.2,0,.4.2.6.2.3.4.5.6.8.2.2.4.4.7.5,0,0-.2-.2-.6-.6-.2-.2-.4-.5-.5-.8-.2-.3-.3-.8,0-.8s.6.3.8.5c.2.2.3.5.3.8,0,.3,0,.6,0,.9Z"/>
    <path class="st5" d="M209,459.5s.6,0,1.4,0c2.4.3,4.3,1.9,5.1,4.1.3.8.3,1.4.4,1.4,0-.1,0-.3,0-.4,0-.4,0-.7-.2-1.1-.3-1.2-1-2.2-1.9-2.9-.9-.8-2.1-1.2-3.3-1.3-.4,0-.7,0-1.1,0-.1,0-.3,0-.4,0Z"/>
    <path class="st5" d="M211.2,451.4c-.2,1.3-.2,2.7-.2,4,0,1.3,0,2.7,0,4,.1-1.3.2-2.7.2-4,0-1.3,0-2.7,0-4Z"/>
    <path class="st5" d="M218.4,463.3c.9.2,1.9.3,2.9.3,1,0,1.9,0,2.9-.2,0,0-1.3,0-2.9,0s-2.9-.2-2.9-.1Z"/>
    <path class="st5" d="M214.6,463.3c0,0,.1.3.2.6s.2.6.3.5.1-.3,0-.6-.4-.5-.5-.5Z"/>
    <path class="st5" d="M213.2,461.5s0,.2.3.5.4.3.4.3,0-.2-.3-.5-.4-.3-.4-.3Z"/>
    <path class="st5" d="M211.1,460.6c0,0,.3,0,.6.2s.5.3.5.2-.1-.3-.5-.4-.7,0-.6,0Z"/>
    <path class="st5" d="M209.6,460.2c0,0,0,.2.2.2s.3,0,.3,0,0-.2-.2-.2-.3,0-.3,0Z"/>
    <polygon class="st5" points="241.8 259.3 234.3 455.3 203.8 456 208.9 286.1 174.6 457.3 145.7 457.3 183 259.7 241.8 259.3"/>
    <path class="st15" d="M215.9,266.4c0,1.1-.1,2.2-.4,3.2-.3,2-.7,4.7-1.2,7.7-.2,1.4-.5,2.9-.9,4.2-.3,1.2-1,2.2-2,3-.6.5-1.4.9-2.2,1-.3,0-.6,0-.9,0,2.2-.3,4.1-1.9,4.6-4.1.3-1.4.6-2.8.8-4.2.5-3,1-5.8,1.4-7.7.2-1.1.4-2.2.7-3.2Z"/>
    <path class="st15" d="M209.6,267.4c0,0-.2.4,0,.9,0,.3.3.5.5.6.3.1.7,0,.9-.2.3-.2.4-.5.3-.9-.1-.3-.3-.5-.6-.6-.5-.2-.8,0-.9,0s.3-.4,1-.3c.4,0,.8.4.9.8.2.7-.2,1.5-.9,1.7-.3.1-.7,0-1,0-.4-.2-.6-.6-.6-1-.1-.8.3-1,.4-1Z"/>
    <path class="st15" d="M193.2,270.1c-.7-1.8-.5-3.8.6-5.4.1,0-.3,1.2-.4,2.7s0,2.7-.1,2.7Z"/>
    <path class="st15" d="M196.9,269.9c-.4-.9-.6-1.9-.4-2.9,0-1,.3-2,.8-2.8,0,.9-.1,1.9-.3,2.8,0,.9,0,1.9,0,2.8Z"/>
    <path class="st15" d="M228.4,270.7c0-1,0-2,.2-2.9,0-1,0-2,.1-3,.4.9.6,2,.4,3,0,1-.2,2-.7,2.9Z"/>
    <path class="st15" d="M232.4,270.5c-.1,0,.3-1.3.4-3s-.2-3,0-3c.5.9.7,2,.6,3.1,0,1.1-.3,2.1-1,2.9Z"/>
    <path class="st3" d="M199.4,177.7l18.8-1.5c.1-2.2,0-10.7,0-10.7,0,0,7.8-1.2,7.9-9s-1.3-25.8-1.3-25.8h0c-9.1-3.9-19.5-2.6-27.3,3.4l-1.2.9,3,42.6Z"/>
    <path class="st6" d="M218.1,165.4c-3.6,0-7.2-.9-10.2-2.9,0,0,2.4,5.6,10.2,4.9v-2Z"/>
    <path class="st3" d="M197.3,143.1c-.1,0-5.4-1.6-5.2,3.8s5.5,4.1,5.5,3.9-.3-7.7-.3-7.7Z"/>
    <path class="st6" d="M195.9,148.9s-.1,0-.2.1c-.2,0-.5,0-.7,0-.7-.4-1.1-1.2-1.1-2,0-.5,0-.9.2-1.3,0-.3.3-.6.7-.7.2,0,.4,0,.6.2,0,.1,0,.3,0,.3s.1,0,0-.3c0-.1-.1-.2-.2-.3-.2-.1-.3-.1-.5-.1-.4.1-.8.4-.9.9-.2.5-.3,1-.3,1.5,0,1,.5,1.9,1.4,2.3.3,0,.6,0,.9-.2.2-.1.2-.3.2-.3Z"/>
    <path class="st5" d="M222.2,142.8c0,.6-.5,1.1-1.1,1.1-.6,0-1.1-.4-1.1-1,0,0,0,0,0,0,0-.6.5-1.1,1.1-1.1.6,0,1.1.4,1.1,1,0,0,0,0,0,0Z"/>
    <path class="st5" d="M223.3,141.7c-.1.1-1-.5-2.2-.5s-2.1.6-2.2.5,0-.3.5-.6c.5-.4,1.1-.6,1.8-.6.6,0,1.2.2,1.7.6.4.3.5.5.4.6Z"/>
    <path class="st5" d="M210.2,142.8c0,.6-.4,1.1-1.1,1.2,0,0,0,0,0,0-.6,0-1.1-.4-1.1-1,0,0,0,0,0,0,0-.6.5-1.1,1.1-1.1.6,0,1.1.4,1.1,1Z"/>
    <path class="st5" d="M211.5,141.9c-.1.1-1-.5-2.2-.5s-2.1.6-2.2.5,0-.3.5-.6c.5-.4,1.1-.6,1.8-.5.6,0,1.2.2,1.7.6.4.3.5.5.4.6Z"/>
    <path class="st5" d="M215.9,150.9c.6-.2,1.3-.3,1.9-.4.3,0,.6,0,.6-.3,0-.3,0-.6-.2-.9l-.9-2.3c-.8-2-1.5-4-2-6.1,1,1.9,1.8,3.9,2.5,5.9l.9,2.4c.2.4.2.8.1,1.2,0,.2-.3.4-.5.4-.2,0-.3,0-.5,0-.7,0-1.3,0-2,0Z"/>
    <path class="st5" d="M212.3,151.7c.2,0,.2,1.3,1.3,2.2s2.5.8,2.5,1-.3.3-.9.3c-.8,0-1.5-.2-2.1-.7-.6-.5-.9-1.1-1-1.9,0-.6,0-.9.2-.9Z"/>
    <path class="st5" d="M211.8,137.2c-.1.3-1.3.2-2.7.3s-2.6.6-2.7.3c0-.1.1-.4.6-.8.6-.4,1.3-.6,2-.7.7,0,1.5,0,2.1.2.6.2.8.5.8.6Z"/>
    <path class="st5" d="M222.9,138.2c-.2.3-1,0-2,0s-1.8.2-2-.1,0-.4.4-.7c1-.6,2.3-.6,3.3.1.3.2.4.5.3.7Z"/>
    <path class="st5" d="M228.6,125.8c.1-1-.3-2-1.1-2.6-.8-.6-1.9-.5-2.7.2.3-1.3-.5-2.6-1.8-2.9,0,0-.1,0-.2,0-1.3,0-2.4.9-3.6,1.2-1.2.3-2.5.1-3.6-.4-1.2-.5-2.2-1.1-3.4-1.5-5.2-1.9-10.9.7-12.8,5.9-1.8-.4-3.7.3-4.7,1.8-1,1.5-1.4,3.3-1.1,5.1.2,1.2.5,2.4.9,3.5v.3c0,4.3.6,9.4,2.4,9.4,3.2,0,2.4-6,2.4-6,3.9-1.5,2.5-7.4,3.4-8.3s3-3,11.2,1.2c3.1,1.4,6.5,1.7,9.8,1.1h.3c.7-.2,1.5-.5,2.1-.9.8-.4,1.4-1.1,1.7-1.9.3-.8.2-1.8-.4-2.4.6-.8,1-1.7,1.1-2.7Z"/>
    <path class="st5" d="M214,142.8c0,0,0-.4-.2-1.2-.3-1-.9-1.9-1.8-2.6-2-1.5-5-1.1-6.5.9s-1.1,5,.9,6.5c1.6,1.2,3.9,1.2,5.5,0,.9-.6,1.5-1.5,1.8-2.6.2-.7.2-1.2.2-1.2s0,.1,0,.3c0,.3,0,.6,0,.9-.2,1.1-.9,2.1-1.8,2.8-1.4,1.1-3.2,1.4-4.8.8-2.6-.9-4-3.8-3.1-6.5.9-2.6,3.8-4,6.5-3.1.5.2,1,.4,1.4.8.9.7,1.5,1.7,1.8,2.8,0,.3,0,.6,0,.9v.3Z"/>
    <path class="st5" d="M227,142.8s0-.4-.2-1.2c-.3-1-.9-1.9-1.8-2.6-2-1.5-5-1.1-6.5.9s-1.1,5,.9,6.5c1.6,1.2,3.9,1.2,5.5,0,.9-.6,1.5-1.5,1.8-2.6.2-.7.2-1.2.2-1.2s0,.1,0,.3c0,.3,0,.6,0,.9-.2,1.1-.9,2.1-1.8,2.8-1.4,1.1-3.2,1.4-4.8.8-2.6-.9-4-3.8-3.1-6.5.5-1.4,1.6-2.6,3.1-3.1,1.6-.6,3.4-.3,4.8.8.9.7,1.5,1.7,1.8,2.8,0,.3,0,.6,0,.9v.3Z"/>
    <path class="st5" d="M217.6,142.5c0,.1-.9-.1-1.9,0s-1.8.3-1.9.2.7-.7,1.9-.7,2,.4,1.9.6Z"/>
    <path class="st5" d="M204.2,142.4c-1.1.3-2.3.5-3.4.4-1.1.1-2.3.1-3.4,0,1.1-.3,2.3-.5,3.4-.4,1.1-.1,2.3-.1,3.4,0Z"/>
    <path class="st3" d="M251.8,204.8l6.2,11.2,3.8-30.4c.2-2.2-.3-4.4-1.3-6.4-.4-.9-.9-1.7-1.5-2.5-.8-.9-1.7-1.8-2.6-2.5-.6-.3-.8-.9-.6-1.5.1-.3.4-.5.8-.6,1-.1,3.7,1.3,5.8,4.3s2.4-2.7,2.5-4.7.8-8.3,1.4-8.8c1-.6,1.9.3,1.7,2.3s-.2,8.2.8,8.2,1.5-10.4,1.5-10.4c0,0-.3-2.2,1-2.2,2.2,0,.9,11,.8,12-.1.7,1.1.8,1.1,0s.2-10.4,2.5-10.4c1.8,0-1,9.1,0,11.1s1.4-7.1,3.1-7.1c.6,0,1.1.1.2,5.3-.5,2.8-2.4,6.8-2.9,12.3v1.4c-.3,6.8-1.8,27.3-7.9,42.9-2.6,6.5-10,9.6-16.5,7-2.4-1-4.4-2.6-5.8-4.7-3.8-5.7-9.8-20.7-9.8-20.7l15.6-5.1Z"/>
    <path class="st6" d="M272.8,181.3c0,0-.4,0-.9.2-.7.3-1.3.8-1.7,1.4l-.2.4v-.4c-.3-.6-.6-1.2-.9-1.7-.7-1-1.7-1.7-2.9-2.1-.9-.3-1.5-.3-1.5-.4.5-.1,1.1,0,1.6.1,1.2.3,2.3,1.1,3.1,2.1.4.5.7,1.1.9,1.8h-.3c.4-.7,1.2-1.3,2-1.5.3-.1.6-.1.9,0Z"/>
    <path class="st15" d="M240.4,182.6l17.6,33.4,3-29.5h15.8l-5.8,42.1c-.6,4.7-3.8,8.7-8.3,10.2h0c-5.7,1.9-13.4-.3-16.2-5.7l-10.3-17.6,4.2-32.9Z"/>
    <path class="st5" d="M259.1,229.8c-.5-.6-.9-1.2-1.2-1.9-1.5-3.3-1.9-7-1-10.5.2-.7.4-1.4.8-2.1-1.4,4.8-1,10,1.3,14.5h0Z"/>
    <g class="st13">
      <path d="M257.5,214.9c-1.6,1.1-2.7,2.8-3.1,4.8-.4,1.9-.4,3.9-.1,5.8,0,.6.2,1.1.4,1.6.3.5.9.7,1.4.5.4-.2.7-.7.6-1.2,0-.5-.1-.9-.3-1.4-1-3.3-.5-6.9,1.5-9.8"/>
    </g>
    <path class="st15" d="M190.3,174.8c2.6-.5,5.2-1.5,8.3-1.6h0c6.5,2.1,13.5,2.1,20,0,.8.1,2,.2,3.4.4,8.7,1,12.1,2.9,18.3,9l-.7,35.2s2.1,40.1,2,46.6h-59.5v-27.2c0,0,0-7.4,0-7.4l-19.5,7.2,1.8-10.3s8.8-34.1,10.1-38.7c1.6-5.6,7.6-11.6,15.9-13.2Z"/>
    <path class="st15" d="M171.4,227.3l28.6-7.4,8.2,13.3-29.1,12.2c-1.5.7-3.2,1-4.8,1h0c-4.8,0-9.1-2.9-10.9-7.3l-.9-2.2,9-9.6Z"/>
    <path class="st5" d="M186.3,224.4c-.1,0-.3-5.2-.3-11.7s.1-11.7.3-11.7.3,5.2.3,11.7-.1,11.7-.3,11.7Z"/>
    <g class="st13">
      <path d="M181.8,244.3c.9,1.5,2.2,2.7,3.8,3.6,3.6,1.9,8,1.9,11.8.6,3.8-1.4,7.3-3.5,10.4-6.2,4.2-3.4,8.1-7.2,11.6-11.3.3-.2.4-.6.4-.9-.1-.6-1-.7-1.6-.6-5.9.9-11.3,3.8-16.7,6.4-6.4,3.1-13,5.9-19.7,8.4"/>
    </g>
    <path class="st0" d="M238,204.4c0,0,0,.2-.1.3l-.4.8c-.2.3-.4.7-.7,1.2-.4.5-.7,1-1.1,1.5-1.1,1.3-2.4,2.5-3.9,3.4-1.9,1.2-4.1,2.1-6.4,2.5-2.8.5-5.6.3-8.3-.6-3.1-1-5.9-2.7-8.1-5.1-2.5-2.6-4.3-5.8-5-9.3-.4-1.9-.4-3.8,0-5.6.4-1.9,1.2-3.7,2.4-5.3,1.2-1.6,2.9-2.7,4.7-3.4.9-.3,1.9-.4,2.9-.3,1,.1,1.9.6,2.6,1.2.7.7,1.1,1.6,1.1,2.6,0,.9-.3,1.9-.8,2.6-1.1,1.4-2.6,2.4-4.4,2.8-3.2.7-6.4.6-9.6-.2-6.7-1.8-12-7-14-13.6-.5-1.4-.7-2.9-.7-4.4,0,0,0,.2,0,.3v.8c.3,1.1.5,2.1.9,3.2,1.2,3.8,3.5,7.2,6.6,9.7,2.2,1.7,4.7,2.9,7.3,3.6,3,.8,6.2.8,9.3.1,1.6-.3,3.1-1.2,4.1-2.6.5-.7.7-1.5.7-2.4,0-.9-.4-1.7-1-2.2-.6-.6-1.4-1-2.3-1.1-.9-.1-1.8,0-2.6.3-1.8.6-3.3,1.7-4.5,3.2-1.2,1.5-2,3.2-2.3,5.1-.4,1.8-.4,3.6,0,5.4.7,3.4,2.4,6.6,4.8,9.1,2.2,2.3,4.9,4,7.9,5,2.6.9,5.4,1.1,8.1.6,2.2-.4,4.4-1.2,6.3-2.4,1.5-.9,2.8-2,3.9-3.3,1-1.1,1.8-2.3,2.5-3.6Z"/>
    <path class="st0" d="M240.5,243.4c-.4-1.3-1-2.5-1.6-3.6-1.9-3.1-5.1-5.2-8.7-5.8-2.5-.4-5-.3-7.4.3-1.3.3-2.6.8-3.9,1.4-1.3.6-2.5,1.4-3.6,2.4-1.1,1-1.9,2.4-2.1,3.9-.3,1.6.4,3.1,1.7,4,1.3,1,3.2.7,4.2-.6,1-1.4,1.7-3,2-4.6.7-3.3.5-6.8-.7-9.9-1-3-2.8-5.7-5.2-7.8-2.1-1.9-4.6-3.4-7.3-4.3-5.8-2-12.3-1.5-17.7,1.5-1.1.6-1.9,1.2-2.5,1.5l-.6.4h-.2c1-.7,2.1-1.5,3.3-2.1,3.2-1.9,6.8-2.9,10.4-2.9,2.5,0,5.1.3,7.5,1.2,2.8.9,5.3,2.4,7.5,4.3,2.4,2.2,4.3,4.9,5.3,7.9,1.2,3.3,1.4,6.8.7,10.2-.3,1.8-1,3.4-2.1,4.9-1.2,1.5-3.3,1.8-4.9.7-.7-.5-1.3-1.2-1.6-2-.3-.8-.4-1.6-.3-2.5.2-1.6,1-3.1,2.2-4.2,1.1-1,2.4-1.9,3.7-2.5,1.3-.6,2.6-1.1,4-1.4,2.5-.6,5-.7,7.6-.3,3.7.6,6.9,2.9,8.8,6.1.5.9.9,1.8,1.2,2.7,0,.2.1.5.2.8,0,0,0,.2,0,.3Z"/>
    <path class="st0" d="M186.1,209.9s-.1.2-.5.6c-.5.5-1,1.1-1.6,1.5-.8.7-1.8,1.3-2.7,1.7-1.2.6-2.5,1-3.8,1.3-2.4.4-4.8.4-7.2,0-.7-.1-1.4-.3-2.1-.5-.5-.1-.8-.2-.8-.3s1.1.2,2.9.4c2.3.3,4.7.3,7-.2,1.3-.3,2.5-.7,3.6-1.2,1-.4,1.9-1,2.7-1.6,1.4-1.1,2.2-1.9,2.3-1.8Z"/>
    <path class="st0" d="M180.7,244.6c-.3-1.1-.6-2.1-1.1-3.1-2.4-4.9-8.2-6.9-13.1-4.5-.1,0-.2.1-.3.2-1,.5-1.9,1.2-2.7,1.9.1-.3.3-.5.6-.7.6-.6,1.3-1.1,2-1.5,4.7-2.7,10.7-1.1,13.4,3.6.2.3.3.6.5.9.3.7.6,1.5.7,2.4,0,.3,0,.6,0,.9Z"/>
    <path class="st0" d="M243.8,228c-.1-.3-.2-.7-.3-1-.2-.9-.3-1.8-.4-2.7,0-1.4,0-2.7.1-4.1.2-1.7.6-3.3,1.1-4.9.6-1.6,1.3-3.1,2.2-4.5.7-1.2,1.6-2.2,2.5-3.2.6-.7,1.3-1.3,2-1.9.2-.2.5-.4.8-.6,0,0-1.1,1-2.6,2.7-.9,1-1.7,2.1-2.4,3.2-1.7,2.8-2.9,6-3.3,9.2-.2,1.3-.3,2.7-.2,4,0,2.4.4,3.8.3,3.8Z"/>
    <path class="st0" d="M273.7,208.4s-.2.2-.5.6c-.6.5-1.2.8-1.9,1.1-2.3.9-4.9.7-7.1-.6-1.2-.7-2.2-1.7-2.8-2.9-.5-1-.9-2-1.1-3.1-.2-.7-.2-1.4-.3-2.2,0-.3,0-.5,0-.8,0,0,.2,1.1.6,2.9.3,1,.6,2,1.2,2.9.6,1.1,1.6,2,2.7,2.6,2.1,1.1,4.5,1.4,6.8.6.9-.3,1.8-.8,2.6-1.3Z"/>
    <path class="st0" d="M241.6,185.1c-.2.2-.5.4-.7.5-.7.3-1.4.6-2.2.7-1.1.2-2.3.1-3.4-.1-1.4-.3-2.7-.9-3.8-1.8-2.1-1.5-3.5-3.8-4-6.4-.1-.8-.2-1.5-.1-2.3,0-.3,0-.6.2-.8,0,1,.1,2.1.3,3.1.6,2.4,1.9,4.5,3.9,6,1.1.8,2.3,1.4,3.6,1.7,1.1.3,2.2.3,3.3.2,1-.2,2-.4,3-.8Z"/>
    <path class="st0" d="M210.2,264c-.8-1.5-1.7-2.9-2.6-4.2-2.3-3.2-5.4-5.9-8.9-7.7-1.9-1-4-1.8-6.1-2.3-1.7-.4-3.5-.6-5.3-.6-1.7,0-3.3.2-4.9.4.4-.2.8-.3,1.3-.4,1.2-.3,2.4-.4,3.6-.4,1.8,0,3.6.1,5.4.5,2.2.5,4.3,1.3,6.3,2.3,3.6,1.9,6.7,4.6,9,7.9.7,1,1.3,2.1,1.8,3.2.2.4.4.8.5,1.3Z"/>
    <path class="st5" d="M238.9,197.9c.1,0,1,14.7,1.9,32.9s1.5,32.9,1.4,33-1-14.7-1.9-32.9-1.5-33-1.4-33Z"/>
    <path class="st3" d="M200,219.8c2-1,3.7-2.5,4.9-4.4.6-.8,1-1.7,1.4-2.6.4-1.1.7-2.4.8-3.6,0-1.1,1.3-1.7,1.9-.9s.7,3.9-.7,7.2,3.6.7,5.4-.3,7.6-3.6,8.3-3.3c1.1.5.7,1.8-1.1,2.7s-7.2,4-6.7,5,9.8-4,9.8-4c0,0,1.8-1.4,2.4-.3,1.1,2-9,6.5-10,6.9-.7.3-.1,1.3.6,1s9.1-5.2,10.3-3.2c.9,1.5-8.4,3.8-9.6,5.8s6.9-2.5,7.7-1c.3.6.4,1-4.5,2.9-2.7,1-7.1,1.5-12.1,3.8l-1.3.6"/>
    <path class="st5" d="M180.2,244.9c.2-.1.4-.2.5-.3l1.6-.7,5.9-2.6,19.9-8.5v.4c-.1,0-2.8-4.3-2.8-4.3l-5.7-9h.3c0,.1-16.9,5.5-16.9,5.5l-4.9,1.5-1.3.4h-.5c.1,0,.3,0,.4,0l1.3-.5,4.9-1.6,16.8-5.6h.2c0,0,.1.1.1.1l5.7,9,2.7,4.3.2.2h-.3c0,.1-20,8.4-20,8.4l-5.9,2.4-1.6.6c-.2,0-.3.2-.5.2Z"/>
    <path class="st5" d="M179.5,222.1c2.4-.8,5.1,0,6.7,1.8-1-.6-2.1-1-3.2-1.4-1.2-.2-2.3-.4-3.5-.4Z"/>
  </g>
  <g id="freepik--magnifying-glass--inject-11" class="st16">
    <path class="st15" d="M524,420.9l-84.5-147.3c19-13.4,32.5-33.1,38.3-55.6,13.2-51-16.7-103.8-67.2-118.8-52-15.5-106.8,14.2-122.3,66.2-.1.4-.2.8-.3,1.2-14.8,52,15.8,106.7,67.8,121.4,21.1,6,43.6,4.8,63.9-3.5l83.2,148.4c3.3,5.9,10.7,7.9,16.5,4.7,0,0,0,0,0,0h0c5.8-3.3,7.9-10.7,4.6-16.6,0,0,0,0,0,0ZM358.3,280.4c-48.2-13.3-76.5-63.1-63.2-111.3,13.3-48.2,63.1-76.5,111.3-63.2,48.2,13.3,76.5,63.1,63.2,111.3,0,0,0,0,0,0-13.3,48.2-63.1,76.5-111.3,63.2Z"/>
    <path class="st0" d="M327.9,254.4s-.1,0-.3-.2l-.7-.7c-.6-.6-1.6-1.5-2.8-2.8-3.3-3.6-6.3-7.5-9-11.6-1.8-2.8-3.5-5.8-5-8.8-1.7-3.5-3.2-7.1-4.4-10.8-5.8-17-5.9-35.3-.4-52.4,2.2-6.9,5.2-13.6,9.1-19.7,2.6-4.2,5.5-8.1,8.8-11.7,1.1-1.3,2.1-2.2,2.8-2.9l.7-.7c.2-.2.3-.2.3-.2,0,0-.1.2-.2.3l-.7.8c-.6.7-1.6,1.6-2.7,2.9-3.2,3.7-6.1,7.6-8.6,11.8-1.8,2.9-3.3,5.8-4.8,8.9-1.6,3.5-3,7.1-4.2,10.8-5.4,17-5.3,35.2.4,52.1,1.2,3.7,2.7,7.2,4.3,10.7,1.5,3,3.1,6,4.9,8.8,2.6,4.1,5.5,8,8.8,11.6,1.1,1.3,2.1,2.2,2.7,2.9.3.3.5.6.7.8,0,0,.2.2.3.3Z"/>
    <path class="st0" d="M357,116c-.9.4-1.7.8-2.6,1.1-1.6.6-3.9,1.5-6.3,2.7s-4.5,2.4-6,3.3c-.8.5-1.6,1-2.5,1.4.7-.7,1.5-1.2,2.3-1.7,1.9-1.3,3.9-2.4,6-3.4,2.1-1,4.2-1.9,6.4-2.6.9-.4,1.8-.6,2.8-.7Z"/>
  </g>
  <g id="freepik--Plant--inject-11">
    <path class="st9" d="M286.7,428.7c-1.7,2.5-5.1,1.6-6.6.1s-2.2-3.7-2.8-5.8c-1.4-4.8-2.8-9.7-1.7-14.6.2-1.5.9-2.9,1.9-4,1-1.1,2.5-1.6,4-1.3,1.7.5,2.7,2.1,3.5,3.7,2.2,4.7,3.4,9.7,3.4,14.9.2,2.4-.4,4.8-1.6,6.9"/>
    <g class="st12">
      <path d="M286.7,428.7c-1.7,2.5-5.1,1.6-6.6.1s-2.2-3.7-2.8-5.8c-1.4-4.8-2.8-9.7-1.7-14.6.2-1.5.9-2.9,1.9-4,1-1.1,2.5-1.6,4-1.3,1.7.5,2.7,2.1,3.5,3.7,2.2,4.7,3.4,9.7,3.4,14.9.2,2.4-.4,4.8-1.6,6.9"/>
    </g>
    <path class="st9" d="M280.2,441.2c-2.9-1.4-6.1-1.8-9.3-1.1-1.7.2-3.3.9-4.6,2-1.1,1.3-1.4,3.5,0,4.6.8.6,1.9.8,2.9.7,2.5,0,5.2-.5,7.1,1,1.1.8,1.9,2.2,3.2,2.7,1.4.3,2.8-.3,3.5-1.5.6-1.2.8-2.7.4-4-.3-1.9-1.5-3.5-3.2-4.3Z"/>
    <path class="st9" d="M291.4,432.3c-1.8-2.4-2.4-5.4-1.4-8.3.9-2.8,2.6-5.2,4.9-7.1,2.6-2.3,5.5-4,8.8-5.2,1.2-.5,2.6-.7,3.9-.7,1.4,0,2.6.8,3.3,2,.9,1.8,0,3.9-.9,5.6-1.7,3.1-3.6,6-5.8,8.8-1.7,2.2-3.7,4.4-6.3,5.4s-5.4.9-6.8-.9"/>
    <path class="st5" d="M286.8,465.9c0-.4-.1-.7-.2-1.1l-.3-3c-.1-1.3-.3-2.8-.7-4.5-.4-1.8-1-3.6-1.6-5.3-.7-1.7-1.6-3.3-2.7-4.8-.9-1.2-2.1-2.2-3.4-2.8-.9-.5-1.9-.8-2.9-.9-.4,0-.7,0-1.1-.2.4,0,.8,0,1.1,0,1,0,2.1.3,3,.8,1.4.7,2.6,1.6,3.6,2.9,1.2,1.5,2.1,3.1,2.8,4.9.7,1.7,1.2,3.5,1.6,5.4.3,1.5.5,3,.6,4.5.1,1.3.1,2.4.1,3.1,0,.4,0,.7,0,1.1Z"/>
    <path class="st5" d="M286.6,463.6c0-.2,0-.3,0-.5v-1.5c0-1.3,0-3.2,0-5.5-.1-4.6-.5-11-1.3-18s-1.8-13.3-2.7-17.8c-.2-1.1-.4-2.1-.6-3s-.4-1.7-.5-2.3l-.3-1.4c0-.2,0-.3,0-.5,0,.2.1.3.2.5.1.4.2.9.4,1.4s.4,1.4.6,2.3.5,1.9.7,3c1.3,5.9,2.2,11.8,2.9,17.8.8,7,1.1,13.4,1.1,18,0,2.3,0,4.2,0,5.5,0,.6,0,1.1,0,1.5,0,.2,0,.4,0,.5Z"/>
    <path class="st5" d="M286.6,451.3c0-.5,0-1,0-1.6,0-1,.2-2.4.5-4.2.3-2.1.8-4.1,1.4-6.1.7-2.5,1.5-4.9,2.6-7.2,1.8-4.3,4.3-8.3,7.5-11.7.6-.6,1.1-1.1,1.8-1.6.3-.2.5-.5.8-.6l.7-.5c.4-.3.9-.6,1.3-.8-1.5,1.2-2.9,2.5-4.3,3.8-3.1,3.4-5.6,7.4-7.3,11.7-1,2.3-1.9,4.7-2.6,7.2-.6,2-1.1,4-1.5,6.1-.3,1.8-.5,3.2-.6,4.2,0,.5,0,1-.2,1.5Z"/>
  </g>
</svg>