<?xml version="1.0" encoding="UTF-8"?>
<svg id="Layer_1" xmlns="http://www.w3.org/2000/svg" version="1.1" viewBox="0 0 500 500">
  <!-- Generator: Adobe Illustrator 29.6.1, SVG Export Plug-In . SVG Version: 2.1.1 Build 9)  -->
  <defs>
    <style>
      .st0 {
        fill: #e0e0e0;
      }

      .st1 {
        isolation: isolate;
      }

      .st1, .st2 {
        opacity: .3;
      }

      .st3 {
        fill: #ebebeb;
      }

      .st4 {
        fill: #263238;
      }

      .st5 {
        fill: #1211ca;
      }

      .st6 {
        fill: #ffde59;
      }

      .st7 {
        fill: #fff;
      }

      .st8 {
        fill: #1abc9c;
      }

      .st9 {
        fill: #fafafa;
      }

      .st10 {
        opacity: .2;
      }

      .st11 {
        fill: #ffbf9d;
      }

      .st12 {
        fill: #f5f5f5;
      }

      .st13 {
        fill: #455a64;
      }

      .st14 {
        fill: #ff9a6c;
      }
    </style>
  </defs>
  <g id="freepik--background-complete--inject-3">
    <path class="st0" d="M368.6,24.7l-29.2,14.7c-2.2.9-3.6,3.1-3.6,5.5v13.7c0,12.4,3.6,24.6,10.4,35,5.3,8,12.3,18.3,23.9,24.2h5.2c13-4,22.6-14.5,28.5-23.5,6.8-10.4,10.5-22.6,10.4-35v-14.4c0-2.4-1.4-4.5-3.6-5.5l-33.3-14.2c-1.5-.6-7.2-1.1-8.7-.5Z"/>
    <path class="st12" d="M367.4,25.2l-33.3,14.2c-2.2.9-3.6,3.1-3.6,5.5v13.7c0,25.9,15.6,49.3,39.6,59.2,12.9-4,22.6-14.5,28.5-23.5,6.8-10.4,10.5-22.6,10.4-35v-14.4c0-2.4-1.4-4.5-3.6-5.5l-33.3-14.2c-1.5-.6-3.2-.6-4.6,0Z"/>
    <path class="st0" d="M408.9,55.5c0,.2,0,.4,0,.6,0,.5,0,1.1,0,1.8s0,1.8,0,2.9,0,2.4-.2,3.8-.2,3-.5,4.6c-.1.8-.2,1.7-.4,2.5s-.4,1.8-.6,2.7c-.9,3.9-2.2,7.8-3.9,11.5-1.7,3.7-3.7,7.2-6,10.6-1.1,1.5-2.1,3-3.2,4.2-.5.6-1,1.3-1.5,1.8l-1.5,1.6c-1,1-1.9,1.9-2.7,2.7s-1.5,1.4-2.2,1.9l-1.3,1.1c-.2.1-.3.3-.5.4.1-.2.3-.3.5-.4l1.4-1.2c.6-.5,1.3-1.2,2.1-2s1.7-1.6,2.7-2.7l1.5-1.6c.5-.6,1-1.2,1.5-1.8,1.1-1.2,2.1-2.7,3.2-4.2,2.3-3.3,4.2-6.8,5.9-10.5,1.6-3.7,2.9-7.5,3.9-11.4l.6-2.6c.2-.9.3-1.7.4-2.5.3-1.6.4-3.2.6-4.6s.2-2.7.2-3.8,0-2.1,0-2.9v-1.8c0-.2,0-.4,0-.6Z"/>
    <polygon class="st7" points="367.3 85.2 348.1 70 353.5 63.4 366.3 73.6 385 52.6 391.3 58.3 367.3 85.2"/>
    <path class="st3" d="M457.5,99.6h-3.6v-19.7c0-4.6-3.8-8.4-8.4-8.4-4.6,0-8.4,3.8-8.4,8.4v19.7h-3.6v-19.7c0-6.6,5.4-12,12-12s12,5.4,12,12v19.7Z"/>
    <rect class="st3" x="429.3" y="86.2" width="32.4" height="25.4" rx="3.1" ry="3.1"/>
    <path class="st9" d="M448,99.6c.7-.7,1-1.6,1-2.5,0-2-1.6-3.6-3.5-3.6-2,0-3.6,1.6-3.6,3.5,0,1.6,1.1,3,2.6,3.5l-.8,3.4h3.4l-.7-3.4c.6-.2,1.1-.5,1.6-.9"/>
    <path class="st0" d="M46.4,386.9c-3.9-2.4-8.3-3.9-12.8-4.4-2.1-.2-4.4-.2-6.1,1.1-.4.2-.6.7-.6,1.1.1.3.3.6.6.8,5.6,4,12.8,4.5,18.9,1.4"/>
    <path class="st0" d="M46.1,386.6c-3-2.2-5.7-4.6-8.3-7.3-2.6-2.7-4.3-6-5.2-9.6-.3-1.1-.2-2.3.4-3.2,6.6,5.2,11.8,11.8,13.1,20.1"/>
    <path class="st0" d="M46.4,386.9c-.6-3.6-.6-7.3.2-10.9.7-3.6,2.8-6.8,5.8-9,1.1,2.7.7,5.8-.2,8.5-1.2,4.3-3.2,8.4-5.8,12.1"/>
    <path class="st0" d="M52.8,398.5c-3.9.6-7.5,2.4-10.3,5.2-3,2.7-5,6.2-5.9,10.1,3.9-.2,7.1-3,9.5-6s4-6.4,6.6-9.2"/>
    <path class="st0" d="M54.2,400.4c-3.1-8-2-17,2.9-24,2.2,8,1.4,17-2.9,24"/>
    <path class="st0" d="M62.8,410.5c-7.3-.4-14.2,3.5-17.5,10.1-.2.4-.4,1-.1,1.4.3.3.7.4,1.2.3,3.5-.2,6.5-2.3,9-4.7s4.7-5.1,7.5-7.2"/>
    <path class="st0" d="M62.5,410c-1.8-5.9-2-12.3-.3-18.3.7-2.4,1.7-4.8,3.9-5.9.2-.1.4-.2.6-.1.2,0,.3.3.4.4.7,1.6,1,3.4.9,5.2-.1,1.8-.4,3.6-.8,5.3-.7,3.2-1,6.7-2.8,9.5-.4.7-.8,1.4-1.1,2.1-.3.7-.3,1-.6,1.5"/>
    <path class="st0" d="M85.2,413.4c-1.5-6.7,0-13.8,4.1-19.4.3-.4.7-.8,1.2-.8.7,0,.9,1.1.9,1.8-.3,6.6-2.5,12.9-6.2,18.3"/>
    <path class="st0" d="M87.2,414.8c8,1.9,16.5.2,23.1-4.7-3.9-1.9-8.3-2.5-12.5-1.5-4.2,1-8,2.8-10.6,6.2"/>
    <path class="st0" d="M88.9,410.5c4.3-7.1,12.7-11.7,21-12.1-1,3.4-3.7,6-6.9,7.6-3.2,1.4-6.6,2.4-10.1,2.9-1.3.3-3.2.5-4,1.6"/>
    <path class="st0" d="M85.6,389.9c1.3-4,2.2-8.1,2.7-12.3.5-4.2-.4-8.4-2.4-12.1-4.1,7.9-4.5,17-.4,24.9"/>
    <path class="st0" d="M99.3,383c4.8-8.6,14.4-15.5,24.2-16.5-3.8,9.4-14.1,16.7-24.2,16.5"/>
    <path class="st0" d="M96.3,384.7c7.1,1.1,13.1,5.6,19.7,8.3,1.4.7,2.9,1,4.5.9,1.9,0,3.5-1.6,3.4-3.5,0-1-.5-2-1.3-2.6-.9-.9-2-1.6-3.2-2-7.2-3-14.9-3.1-22.5-1.2"/>
    <path class="st0" d="M92.2,389.6c1.6.5,2.2,1.3,3.4,2.4,4.3,3.7,9.5,6.3,15,7.7.6.1,1.3.2,1.6-.3s0-1-.4-1.4c-2.4-2.8-5.5-4.9-9-6.1-3.4-1.3-6.4-2.8-10.6-2.5"/>
    <path class="st0" d="M87.6,359.7c5.9,5.4,13.7,8.1,21.7,7.4.4,0,.7-.1,1-.4.6-.6-.1-1.5-.7-2-6.4-5-14.1-7-21.9-5"/>
    <path class="st0" d="M93.1,357.6c7.8-5.7,17.9-7.4,27.1-4.5-3.5,3.3-8.1,5.3-12.9,5.7-4.8.4-9.6,0-14.2-1.2"/>
    <path class="st0" d="M90.9,343.9c-.6-6.4-.2-11.4-.7-17.8,0-.5-.1-1.1-.6-1.3-.7-.2-1.2.6-1.4,1.2-1.9,6-.9,12.5,2.7,17.7"/>
    <path class="st0" d="M90.4,344.6c4.2-2.7,7.8-6.2,10.6-10.2,2.1-2.9,3.8-6.3,3.4-9.8-3,0-5.8,1.5-7.6,3.8-1.8,2.3-3.1,5-3.9,7.8-.8,2.8-1.4,5.7-2.4,8.4"/>
    <path class="st0" d="M100.8,341.7c9.5-3.5,18.3-8.7,26-15.3-3.1-1.2-6.7-.5-9.8.8-7,2.7-12.9,7.8-16.3,14.5"/>
    <path class="st0" d="M93.3,348.1c4.8.7,9.6.7,14.4,0,4.7-.8,9.1-2.6,13.4-4.5.4-.1.7-.4.9-.7.1-.4,0-.9-.3-1.1-.3-.3-.7-.4-1.2-.5-4.8-1.3-9.9-.7-14.5.9-4.4,1.5-8.7,3.5-12.8,5.9"/>
    <path class="st0" d="M66,359.9c-3.3-6.6-3-14.3-.2-21.1,2,3,2.2,6.9,1.9,10.5s-1.5,7.3-1.5,10.9"/>
    <path class="st0" d="M52.9,353.3c-8.3-.1-16.2,3.3-21.9,9.3,4.1.5,8.3-.3,12-2.2,3.6-1.9,7.1-4.2,10.3-6.9"/>
    <path class="st0" d="M44.1,350.4c-4-.3-7.8-.8-11.7.4-3.9,1.1-7.2,3.9-8.9,7.5,3.8.3,7.5-.4,10.9-2.1,3.4-1.7,6.6-3.6,9.6-5.8"/>
    <path class="st0" d="M57.1,350.5c-3.6-2.4-7.3-4.8-11.5-5.7s-9-.2-11.9,2.9c3.4,2,7.5,2.2,11.4,2.2s8.7,0,12.4,1.3"/>
    <path class="st0" d="M57.2,350.7c-6.1-6-8.5-16.9-6-25.1,4.8,7.4,7,16.3,6,25.1"/>
    <path class="st0" d="M74,333.6c1.2-2.7,2-5.5,3-8.3.9-2.8,2.4-5.4,4.3-7.6,1.9-2.3,4.6-3.7,7.6-4-1.9,8.4-7.3,15.6-14.8,19.9"/>
    <path class="st0" d="M71,337.2c-1.9-2.6-4.1-6.2-6.7-8.2s-6-3.2-9.2-2.4c3.3,5.8,9.2,9.8,15.9,10.6"/>
    <path class="st0" d="M71.6,333.8c-1.4-3.1-2.4-6.4-3-9.8-.6-3.4,0-6.9,1.5-10,3.4,6.4,4.5,13.2,1.7,19.9"/>
    <path class="st0" d="M74.1,314c1.9-6.3,7.7-11,13.9-13.1.8-.3,1.6-.4,2.4-.4.8,0,1.6.7,1.8,1.5.2,1.1-.7,2-1.5,2.8-4.9,4.2-10.6,7.3-16.7,9.2"/>
    <path class="st0" d="M74.1,308.9c.2-4.1.5-8.2,1.8-12.1s3.9-7.5,7.6-9.2c.6,4.1-1.2,8.2-3.4,11.7s-4.8,6.9-6.1,10.8"/>
    <path class="st0" d="M74,311.7c-1.6-4.6-1.7-10.5-4.5-14.5-1.9-2.8-5-4.7-6.7-7.7-1,2.8-.9,6,.4,8.7,1.3,2.7,3,5.2,5.1,7.3,2,2.2,3.8,3.8,5.7,6.1"/>
    <path class="st0" d="M74.1,447.2c-.1,0-.2-30.7-.2-68.6s0-68.6.2-68.6.2,30.7.2,68.6,0,68.6-.2,68.6Z"/>
    <path class="st0" d="M100.9,355.2c-.4.2-.8.3-1.2.4l-3.2,1.1c-2.7.9-6.4,2.2-10.3,3.9s-7.7,3.1-9.8,4.9c-.9.7-1.5,1.6-2,2.6-.3.7-.4,1.2-.4,1.2s0-.1,0-.3c0-.3.1-.6.2-.9.4-1.1,1.1-2,1.9-2.8,1.3-1.1,2.7-2,4.3-2.6,1.7-.8,3.6-1.6,5.6-2.5,4-1.6,7.7-2.9,10.4-3.8,1.4-.4,2.5-.7,3.2-.9.4-.1.8-.2,1.2-.3Z"/>
    <path class="st0" d="M109.7,333.6c0,.1-.2.2-.3.3l-1,.9-3.7,3.3-12.2,10.9c-4.8,4.3-8.9,8.3-11.8,11.4-1.4,1.5-2.6,2.8-3.3,3.7l-.9,1c0,.1-.2.2-.3.3,0-.1.2-.3.3-.4.2-.2.4-.6.8-1.1.7-.9,1.8-2.2,3.2-3.8,3.7-4,7.6-7.9,11.7-11.5,4.8-4.2,9.2-8.1,12.3-10.8,1.6-1.3,2.8-2.4,3.8-3.2l1-.9c.1-.1.3-.2.5-.3Z"/>
    <path class="st0" d="M87.3,353.5c-.1,0,.9-2.4,1.9-5.3s1.5-5.4,1.6-5.4c-.1,1.9-.5,3.7-1.2,5.5-.4,1.2-.9,2.5-1.5,3.7-.2.5-.5,1-.8,1.5Z"/>
    <path class="st0" d="M74.1,372.1c-.3-.3-.5-.5-.7-.9l-1.9-2.4c-1.6-2-3.8-4.9-6.2-8s-4.7-5.9-6.3-7.9l-1.9-2.4c-.3-.3-.5-.6-.7-.9.3.2.6.5.8.8.5.5,1.2,1.3,2,2.3,1.7,2,4,4.7,6.5,7.8,2.5,3.1,4.6,6,6.1,8.1.8,1,1.4,1.9,1.8,2.5.2.3.4.6.6,1Z"/>
    <path class="st0" d="M68.2,364.5c-1.2-1.3-2-2.9-2.5-4.6-.5-1.5-.7-3.1-.6-4.7h.2c0,.2,0,.4-.2.5v-.6h.2c0,1.5.4,3.1.8,4.5.6,1.6,1.2,3.2,2,4.8Z"/>
    <path class="st0" d="M60.6,355c-.5-.4-1.1-.7-1.7-1-1.5-.5-3.2-.6-4.8-.4-1.6.1-3.2.4-4.8.8-.7.2-1.3.4-2,.5.6-.4,1.2-.6,1.9-.8,1.6-.5,3.2-.8,4.9-.9,1.7-.2,3.3,0,4.9.5.7.2,1.3.7,1.6,1.3Z"/>
    <path class="st0" d="M58.8,352.6c0,0-1-.4-2.6-1-4.3-1.5-8.8-1.8-13.3-1-1.7.3-2.7.6-2.8.5.2-.1.5-.2.7-.3.7-.2,1.3-.4,2-.6,2.2-.5,4.5-.7,6.8-.5,2.3.2,4.5.7,6.7,1.5.6.2,1.3.5,1.9.9.2.1.4.3.6.4Z"/>
    <path class="st0" d="M74,342.9c-.8-2.2-1.4-4.4-1.9-6.7-.6-2.2-1.1-4.5-1.5-6.8.8,2.2,1.4,4.4,1.9,6.7.6,2.2,1.1,4.5,1.5,6.8Z"/>
    <path class="st0" d="M74.2,342.9c-.6-1.4-1.3-2.7-2.1-4-.9-1.2-2-2.3-3.1-3.2.4.1.9.3,1.2.6.9.6,1.7,1.4,2.3,2.4,1,1.2,1.6,2.7,1.8,4.3Z"/>
    <path class="st0" d="M74.1,430.9s-.1-.7-.5-2c-.5-1.8-1.2-3.6-2-5.3-3-5.6-6.6-10.7-10.9-15.3-2.4-2.8-4.8-5.4-6.8-7.9-1.8-2.2-3.4-4.5-4.9-7-1-1.7-1.8-3.4-2.5-5.2-.2-.6-.4-1.1-.5-1.5,0-.2-.1-.3-.1-.5,0,0,.3.7.8,2,.7,1.8,1.6,3.5,2.6,5.1,1.5,2.4,3.1,4.7,4.9,6.9,2,2.5,4.4,5.1,6.8,7.9,4.3,4.7,7.9,9.9,10.8,15.5.8,1.7,1.5,3.5,1.9,5.4.1.5.2,1,.3,1.5,0,.2,0,.3,0,.5Z"/>
    <path class="st0" d="M98.3,403.5c-.4.3-.8.5-1.3.7-1.2.6-2.3,1.4-3.3,2.2-1.5,1.2-3,2.5-4.3,4-1.5,1.6-3.1,3.5-4.7,5.5-3.2,4-6.2,7.6-8,10.4-.9,1.4-1.6,2.6-2,3.4-.2.4-.4.9-.7,1.3,0,0,0-.1.1-.4s.2-.6.4-1c.6-1.2,1.2-2.4,1.9-3.5,2.4-3.6,5.1-7.2,7.9-10.5,1.6-2,3.2-3.9,4.7-5.5,1.4-1.4,2.8-2.7,4.4-3.9,1.1-.8,2.2-1.5,3.4-2.1.3-.2.7-.3,1-.4.2,0,.3-.1.3,0Z"/>
    <path class="st0" d="M98.8,412.4c-.9.2-1.8.3-2.7.4-2.2.2-4.3.6-6.4,1.3-2.1.7-4,1.7-5.7,3-1.3,1-1.9,1.9-2,1.8s0-.2.4-.6c.4-.5.9-1,1.4-1.4,1.7-1.4,3.7-2.5,5.8-3.2,2.1-.6,4.3-1,6.5-1.1.9-.1,1.8-.1,2.7,0Z"/>
    <path class="st0" d="M82.8,417.8c-.1,0,1.1-1.9,2-4.4s1.1-4.7,1.2-4.7c0,.5,0,1,0,1.4-.1,1.2-.4,2.3-.8,3.4-.4,1.1-.9,2.1-1.6,3.1-.2.4-.5.8-.9,1.2Z"/>
    <path class="st0" d="M106.2,379.6c-.1,0-.3.2-.4.2l-1.3.6c-.6.2-1.2.5-2,.9s-1.7.8-2.6,1.4l-1.5.8c-.5.3-1,.6-1.6,1-1.1.6-2.2,1.5-3.3,2.3-2.5,1.9-4.8,3.9-6.9,6.1-2.1,2.2-4.1,4.6-5.8,7.1-.8,1.2-1.6,2.3-2.2,3.4-.3.5-.6,1.1-.9,1.6l-.7,1.5c-.5.9-.9,1.8-1.3,2.6s-.7,1.5-.9,2-.4.9-.5,1.3c0,.2-.1.3-.2.4,0-.2,0-.3.1-.5l.4-1.3c.2-.6.4-1.3.8-2s.7-1.7,1.2-2.6c.2-.5.5-1,.8-1.5s.6-1,.9-1.6c.6-1.1,1.4-2.2,2.2-3.4,3.5-5.1,7.9-9.6,12.9-13.3,1.2-.8,2.3-1.6,3.4-2.3.6-.3,1.1-.7,1.6-1l1.5-.8c.9-.5,1.8-.9,2.6-1.3.7-.3,1.3-.6,2-.9l1.3-.5c.1,0,.3,0,.4-.1Z"/>
    <path class="st0" d="M87,392.5c.2-.6.5-1.2,1-1.6,1.2-1,2.7-1.6,4.3-1.6,1.5,0,3.1.3,4.5.9.6.2,1.2.5,1.7.8-.6-.1-1.2-.3-1.8-.5-1.4-.5-2.9-.7-4.4-.7-1.5,0-2.9.5-4.1,1.4-.4.4-.8.9-1.2,1.3Z"/>
    <path class="st0" d="M84.1,395.4c.6-1.3,1-2.6,1.2-3.9,0-1.4,0-2.7-.3-4.1.3.3.4.7.5,1.1.5,2,.3,4.1-.7,5.9-.4.7-.7,1-.8,1Z"/>
    <path class="st0" d="M52.9,435.2c.7,11.7,4.2,23.7,9.6,35.7h23.7c5.2-12,8.5-23.9,9.1-35.7h-42.3Z"/>
    <path class="st9" d="M91.4,454.2c0,.1-7.8.2-17.4.2s-17.4-.1-17.4-.2,7.8-.2,17.4-.2,17.4.1,17.4.2Z"/>
    <path class="st9" d="M90.8,458.5c0,.1-7.3.2-16.3.2s-16.3-.1-16.3-.2,7.3-.2,16.3-.2,16.3.1,16.3.2Z"/>
    <path class="st9" d="M62.9,443c.3,3.6.3,7.3,0,10.9-.3-3.6-.3-7.3,0-10.9Z"/>
    <path class="st9" d="M75.6,443c.3,3.8.3,7.5,0,11.3-.3-3.8-.3-7.5,0-11.3Z"/>
    <path class="st9" d="M87.4,442.9c.3,3.8.3,7.7,0,11.5-.3-3.8-.3-7.7,0-11.5Z"/>
    <path class="st9" d="M94.5,443c0,.1-9.1.2-20.4.2s-20.4-.1-20.4-.2,9.1-.2,20.4-.2,20.4,0,20.4.2Z"/>
    <path class="st3" d="M461.4,333.5c4.4-2,7.3-6.4,7.2-11.2,0-6.7-5-12.1-11.3-12.1s-11.4,5.4-11.4,12c0,4.9,2.8,9.3,7.2,11.3-17.5,2.6-16.7,21.6-16.7,21.6l41.3.2s.9-19.1-16.4-21.7Z"/>
    <path class="st3" d="M275.9,57.8c3.1-.6,5.6-3,6.3-6.1,1.2-3.9-1.1-8.1-5-9.2-3.9-1.2-8.1,1.1-9.2,5,0,.3-.1.5-.2.8-.8,3.1.4,6.4,2.9,8.3-11.5-.9-13.8,11.3-13.8,11.3l26.3,6.2s3.4-12.1-7.2-16.3Z"/>
    <path class="st12" d="M462.5,159.6c2.6-1.6,3.9-4.6,3.5-7.6-.3-3.9-3.7-6.9-7.7-6.6-3.9.3-6.9,3.7-6.6,7.7,0,.3,0,.6.1.9.4,3,2.6,5.6,5.5,6.4-10.6,3.2-8.4,14.9-8.4,14.9l25.7-3.6s-1.1-12-12.1-12.1Z"/>
    <polygon class="st12" points="50.5 163.2 36.6 152.2 40.5 147.4 49.8 154.8 63.3 139.6 67.9 143.7 50.5 163.2"/>
  </g>
  <g id="freepik--Floor--inject-3">
    <path class="st4" d="M470.7,471.3c0,.1-100.1.3-223.6.3s-223.7-.1-223.7-.3,100.1-.3,223.7-.3,223.6.1,223.6.3Z"/>
  </g>
  <g id="freepik--Icon--inject-3">
    <path class="st6" d="M69.4,179.2l-30.7,15.4c-2.3,1-3.7,3.2-3.7,5.7v14.4c0,13.1,3.8,25.8,10.9,36.7,5.5,8.4,12.9,19.2,25,25.3h5.5c13.6-4.1,23.7-15.2,29.9-24.6,7.2-10.9,11-23.7,10.9-36.7v-15.1c0-2.5-1.5-4.7-3.8-5.7l-35-14.9c-1.6-.7-7.6-1.2-9.2-.5Z"/>
    <path class="st1" d="M69.4,179.2l-30.7,15.4c-2.3,1-3.7,3.2-3.7,5.7v14.4c0,13.1,3.8,25.8,10.9,36.7,5.5,8.4,12.9,19.2,25,25.3h5.5c13.6-4.1,23.7-15.2,29.9-24.6,7.2-10.9,11-23.7,10.9-36.7v-15.1c0-2.5-1.5-4.7-3.8-5.7l-35-14.9c-1.6-.7-7.6-1.2-9.2-.5Z"/>
    <path class="st8" d="M68.2,179.7l-34.9,14.9c-2.3,1-3.8,3.2-3.8,5.7v14.4c0,27.2,16.4,51.7,41.5,62.1,13.6-4.1,23.7-15.2,29.9-24.6,7.2-10.9,11-23.7,10.9-36.7v-15.1c0-2.5-1.5-4.7-3.8-5.7l-35-14.9c-1.5-.6-3.3-.6-4.8,0Z"/>
    <circle class="st1" cx="70.6" cy="223.4" r="22.9"/>
    <circle class="st7" cx="70.6" cy="215.2" r="9.5"/>
    <path class="st7" d="M53.2,238.4c3.1-6.5,9.8-10.7,17-10.6,7.4,0,14.2,4.1,17.8,10.6,0,0-5.6,8.3-18,8-6.5,0-12.7-3-16.8-8Z"/>
    <path class="st4" d="M93.5,223.4c0-.1,0-.2,0-.4,0-.3,0-.6,0-1.1v-.8c0-.3,0-.6-.2-1-.1-.8-.3-1.6-.5-2.4-.5-2.1-1.4-4.2-2.6-6.1-1.5-2.5-3.5-4.7-5.8-6.4-2.8-2.1-6.1-3.6-9.6-4.2-4-.7-8.1-.4-11.9,1-1,.4-2,.8-3,1.3-1,.5-1.9,1.1-2.8,1.8-.9.7-1.8,1.4-2.6,2.2-.8.8-1.5,1.7-2.2,2.6-1.4,1.9-2.5,4-3.2,6.2-1.6,4.6-1.6,9.7,0,14.3.7,2.2,1.8,4.3,3.2,6.2.7.9,1.4,1.8,2.2,2.6.8.8,1.7,1.5,2.6,2.2,1.7,1.3,3.7,2.4,5.7,3.1,3.8,1.4,7.9,1.7,11.9,1,6.4-1.2,12-5.1,15.4-10.7,1.1-1.9,2-3.9,2.5-6,.2-.8.4-1.6.5-2.4,0-.3.1-.7.2-1s0-.6,0-.8v-1.1c0-.1,0-.2,0-.4,0,.1,0,.2,0,.4v1.9c0,.3,0,.6-.1,1,0,.8-.2,1.6-.4,2.4-.5,2.2-1.3,4.2-2.5,6.1-5.6,9.6-17.2,13.8-27.7,10-1-.4-2-.8-3-1.3-1-.6-1.9-1.2-2.8-1.9-.9-.7-1.8-1.4-2.6-2.2-.8-.8-1.5-1.7-2.2-2.6-1.4-1.9-2.6-4.1-3.3-6.4-.8-2.4-1.2-4.8-1.2-7.3,0-2.5.4-4.9,1.2-7.3.8-2.3,1.9-4.4,3.3-6.4.7-.9,1.5-1.8,2.3-2.7.8-.8,1.7-1.5,2.6-2.2.9-.7,1.8-1.3,2.8-1.8,1-.5,2-1,3-1.3,3.9-1.4,8.1-1.8,12.1-1,6.5,1.3,12.2,5.3,15.6,11,1.1,1.9,2,4,2.5,6.2.2.8.4,1.6.4,2.4,0,.4.1.7.1,1v1.9c0,.1,0,.2,0,.3Z"/>
    <path class="st4" d="M111.7,211.5c0,.2,0,.4,0,.7,0,.5,0,1.1,0,1.9s0,1.8,0,3v1.9c0,.7,0,1.4-.1,2.1-.1,1.5-.2,3.1-.6,4.8-.1.9-.2,1.8-.4,2.7s-.4,1.8-.6,2.8c-1,4.1-2.3,8.2-4,12.1-1.8,3.9-3.9,7.6-6.3,11.1-1.2,1.6-2.2,3.1-3.4,4.4-.6.7-1.1,1.3-1.6,1.9l-1.6,1.7c-1,1.1-2,2-2.9,2.8-.7.7-1.5,1.4-2.3,2l-1.5,1.2c-.2.1-.3.3-.5.4.1-.2.3-.3.5-.5l1.4-1.3c.6-.5,1.4-1.2,2.2-2s1.8-1.7,2.8-2.8l1.6-1.7c.5-.6,1-1.3,1.6-1.9,1.1-1.3,2.2-2.8,3.3-4.4,2.4-3.5,4.4-7.2,6.2-11,1.7-3.9,3-7.9,4-12l.6-2.8c.2-.9.3-1.8.4-2.6.3-1.7.4-3.3.6-4.8,0-.7.2-1.4.2-2.1v-1.9c.2-1.2.2-2.2.2-3v-1.9c0-.2,0-.5,0-.7Z"/>
  </g>
  <g id="freepik--Device--inject-3">
    <path class="st4" d="M354.8,471.3H118.3c-6.5-.1-11.7-5.5-11.6-12,0,0,0,0,0,0V97.9c-.1-6.5,5.1-11.9,11.6-12,0,0,0,0,0,0h236.5c6.5.1,11.7,5.5,11.6,12,0,0,0,0,0,0v361.4c.1,6.5-5.1,11.9-11.6,12,0,0,0,0,0,0Z"/>
    <path class="st13" d="M241.1,453.8c.1,6.1-4.7,11.1-10.8,11.2-6.1.1-11.1-4.7-11.2-10.8s4.7-11.1,10.8-11.2c0,0,.1,0,.2,0,6,0,10.9,4.8,11,10.8Z"/>
    <path class="st13" d="M263.2,106.3h-53c-2.1,0-3.7-1.7-3.7-3.8,0,0,0,0,0,0h0c0-2.1,1.6-3.8,3.7-3.8h53c2.1,0,3.7,1.8,3.7,3.8h0c0,2.1-1.6,3.8-3.7,3.8,0,0,0,0,0,0Z"/>
    <rect class="st7" x="114.7" y="113.4" width="243.3" height="321.9"/>
    <rect class="st12" x="347.6" y="113.4" width="10.4" height="321.9"/>
    <path class="st0" d="M352.8,229.1h0c-1.8,0-3.2-1.5-3.2-3.2v-71.2c0-1.8,1.4-3.2,3.2-3.2h0c1.8,0,3.2,1.5,3.2,3.2v71.2c0,1.8-1.5,3.2-3.2,3.2Z"/>
    <path class="st0" d="M326.3,186.7h-179.4c-2.8,0-5.2-2.3-5.2-5.2h0c0-2.8,2.3-5.2,5.2-5.2h179.4c2.8,0,5.2,2.3,5.2,5.2h0c0,2.8-2.3,5.2-5.2,5.2h0Z"/>
    <path class="st5" d="M298.7,149h-112.8c-2.8,0-5.2-2.3-5.2-5.2h0c0-2.8,2.3-5.2,5.2-5.2h112.8c2.8,0,5.2,2.3,5.2,5.2h0c0,2.8-2.3,5.2-5.2,5.2h0Z"/>
    <path class="st0" d="M300.8,207.4h-128.4c-2.8,0-5.2-2.3-5.2-5.2h0c0-2.8,2.3-5.2,5.2-5.2h128.4c2.8,0,5.2,2.3,5.2,5.2h0c0,2.8-2.3,5.2-5.2,5.2h0Z"/>
    <path class="st0" d="M242.8,298h-98.8c-2.8,0-5.2-2.3-5.2-5.2h0c0-2.8,2.3-5.2,5.2-5.2h98.8c2.8,0,5.2,2.3,5.2,5.2h0c0,2.8-2.3,5.2-5.2,5.2h0Z"/>
    <path class="st0" d="M323.4,276.4h-179.4c-2.8,0-5.2-2.3-5.2-5.2h0c0-2.8,2.3-5.1,5.1-5.1h179.4c2.8,0,5.2,2.3,5.2,5.1h0c0,2.9-2.3,5.2-5.2,5.2h0Z"/>
    <path class="st0" d="M166.4,335.6h157c2.8,0,5.2,2.3,5.2,5.2h0c0,2.8-2.3,5.2-5.2,5.2h-157c-2.8,0-5.2-2.3-5.2-5.2h0c0-2.8,2.3-5.2,5.2-5.2Z"/>
    <path class="st0" d="M323.4,368h-179.4c-2.8,0-5.2-2.3-5.2-5.2h0c0-2.8,2.3-5.1,5.2-5.1h179.4c2.8,0,5.2,2.3,5.2,5.2h0c0,2.8-2.3,5.1-5.2,5.1Z"/>
    <path class="st0" d="M323.4,390.4h-179.4c-2.8,0-5.2-2.3-5.2-5.2h0c0-2.8,2.3-5.2,5.2-5.2h179.4c2.8,0,5.2,2.3,5.2,5.2h0c0,2.8-2.3,5.2-5.2,5.2h0Z"/>
    <path class="st5" d="M152.1,340.8c0,3-2.4,5.4-5.4,5.4s-5.4-2.4-5.4-5.4,2.4-5.4,5.4-5.4h0c3,0,5.4,2.4,5.4,5.4Z"/>
    <path class="st0" d="M323.4,256.2h-157c-2.8,0-5.2-2.3-5.2-5.2h0c0-2.8,2.3-5.2,5.2-5.2h157c2.8,0,5.2,2.3,5.2,5.2h0c0,2.8-2.3,5.2-5.2,5.2h0Z"/>
    <circle class="st5" cx="146.7" cy="251.1" r="5.4"/>
    <path class="st5" d="M318.4,423.2h-40.2c-4.5,0-8.2-3.7-8.2-8.2h0c0-4.5,3.7-8.2,8.2-8.2h40.2c4.5,0,8.2,3.7,8.2,8.2h0c0,4.5-3.7,8.2-8.2,8.2h0Z"/>
  </g>
  <g id="freepik--Padlock--inject-3">
    <path class="st6" d="M111,35.3l-41.7,20.9c-3.1,1.3-5.1,4.4-5.2,7.8v19.5c0,17.8,5.1,35.2,14.9,50,7.5,11.4,17.5,26.1,34.1,34.4h7.5c18.5-5.6,32.2-20.6,40.7-33.5,9.8-14.8,14.9-32.2,14.9-50v-20.5c0-3.4-2-6.4-5.1-7.8l-47.6-20.3c-2.1-.9-10.3-1.5-12.4-.7Z"/>
    <path class="st1" d="M111,35.3l-41.7,20.9c-3.1,1.3-5.1,4.4-5.2,7.8v19.5c0,17.8,5.1,35.2,14.9,50,7.5,11.4,17.5,26.1,34.1,34.4h7.5c18.5-5.6,32.2-20.6,40.7-33.5,9.8-14.8,14.9-32.2,14.9-50v-20.5c0-3.4-2-6.4-5.1-7.8l-47.6-20.3c-2.1-.9-10.3-1.5-12.4-.7Z"/>
    <path class="st6" d="M109.3,36l-47.5,20.3c-3.1,1.3-5.1,4.4-5.1,7.8v19.5c0,37,22.3,70.3,56.4,84.4,18.5-5.6,32.2-20.6,40.7-33.5,9.8-14.8,14.9-32.2,14.9-50v-20.5c0-3.4-2-6.5-5.1-7.8l-47.5-20.3c-2.1-.9-4.5-.9-6.7,0Z"/>
    <path class="st4" d="M168.5,79.3c0,0,0,.2,0,.2v.7c0,.6,0,1.5,0,2.6s.1,2.5,0,4.1c0,.8,0,1.7,0,2.6v1.4c0,.5,0,1-.1,1.5-.2,2-.3,4.2-.8,6.5-.2,1.2-.3,2.4-.6,3.6s-.5,2.5-.8,3.8c-1.3,5.6-3.2,11.1-5.5,16.4-2.4,5.3-5.2,10.3-8.5,15-1.6,2.1-3,4.2-4.6,6-.8.9-1.5,1.8-2.2,2.6l-2.2,2.3c-1.3,1.5-2.7,2.7-3.9,3.8-.6.5-1.1,1.1-1.6,1.5l-1.4,1.1-2,1.6-.5.4c-.1,0-.2.1-.2.1s0,0,.1-.2l.5-.4,1.9-1.7,1.4-1.2c.5-.4,1-1,1.6-1.5,1.1-1.1,2.5-2.3,3.8-3.8l2.1-2.3c.7-.8,1.4-1.7,2.2-2.6,1.6-1.8,3-3.9,4.5-6,3.2-4.7,6.1-9.8,8.4-15,2.3-5.3,4.1-10.7,5.5-16.3.3-1.3.6-2.6.8-3.8s.4-2.4.6-3.6c.4-2.3.6-4.5.8-6.5,0-.5.1-1,.2-1.4s0-.9,0-1.4c0-.9,0-1.8.1-2.6.1-1.6,0-3,0-4.1v-3.2c0,0,0-.2,0-.2Z"/>
    <path class="st12" d="M131.5,105.5h-5.1v-27.6c-.2-6.5-5.6-11.6-12.1-11.4-6.2.2-11.2,5.2-11.4,11.4v27.6h-5.1v-27.6c.2-9.3,8-16.7,17.3-16.4,9,.2,16.2,7.5,16.4,16.4v27.6Z"/>
    <rect class="st7" x="91.9" y="86.8" width="45.4" height="35.6" rx="5.8" ry="5.8"/>
    <path class="st4" d="M131.5,122.4c.5,0,1-.1,1.5-.3,2.5-.7,4.2-3,4.2-5.6v-24.3c-.2-2.1-1.4-3.9-3.3-4.7-1-.4-2-.6-3.1-.5h-33c-2.6,0-4.8,1.8-5.4,4.2-.1.6-.2,1.2-.2,1.8v19.9c0,2.3-.4,4.6.8,6.4,1,1.8,3,2.8,5.1,2.8h27.5c0,0,4.4,0,4.4,0h1.1c.1,0,.3,0,.4,0-.1,0-.3,0-.4,0h-21.9c0,0-11.2,0-11.2,0-3.3.1-6.2-2.4-6.3-5.8,0-.1,0-.3,0-.4v-23c0-.7,0-1.3.2-2,.3-1.3,1.1-2.5,2.1-3.3,1.1-.9,2.4-1.3,3.8-1.3h32.9c1.1,0,2.3,0,3.3.5,2,.9,3.4,2.9,3.5,5.1v24.3c0,1.1-.3,2.2-.9,3.1-.8,1.3-2,2.2-3.5,2.6-.5.2-1.1.2-1.7.2Z"/>
    <path class="st6" d="M118.1,105.5c.9-.9,1.4-2.2,1.4-3.5,0-2.8-2.2-5-5-5-2.8,0-5,2.2-5,5,0,2.2,1.5,4.2,3.6,4.8l-1.1,4.7h4.8l-1-4.7c.8-.2,1.6-.7,2.2-1.3"/>
  </g>
  <g id="freepik--Character--inject-3">
    <path class="st11" d="M427.8,141.2v40.5c0,7,1.1,18-10,17.6h0c-9.6-1-12.1-10.1-12.2-16.7,0-3.1,0-5.7-.1-6,0,0-10.5-.9-11.4-11.2-.4-5-.5-15.4-.4-24.8,0-10.1,7.9-18.5,18-19.2h1c10.9-.2,15.3,8.9,15.1,19.7Z"/>
    <path class="st14" d="M405.5,176.7c4.8-.4,9.4-2.1,13.2-5,0,0-2.7,7.8-13.2,7.6v-2.6Z"/>
    <path class="st4" d="M411.5,144.9c.2.2,1.4-.8,3.1-.8s3,.8,3.2.6-.1-.5-.7-.9c-.8-.5-1.7-.8-2.6-.7-.9,0-1.8.3-2.5.9-.5.4-.7.8-.6.9Z"/>
    <path class="st4" d="M411.5,149.8c0,.8.7,1.4,1.5,1.3.7,0,1.3-.6,1.4-1.3,0,0,0,0,0,0,0-.8-.7-1.3-1.5-1.3-.8,0-1.4.6-1.4,1.4s0,0,0,0Z"/>
    <path class="st4" d="M407.1,157c-.9-.2-1.7-.3-2.6-.3-.4,0-.8,0-.9-.3,0-.4,0-.8.2-1.2.3-1,.6-2.1,1-3.2,1.4-4.5,2.3-8.3,2.1-8.3s-1.4,3.6-2.8,8.1c-.3,1.1-.6,2.2-.9,3.2-.2.5-.2,1.1,0,1.6.1.3.4.5.7.6.2,0,.5,0,.7,0,.9,0,1.7,0,2.6-.1Z"/>
    <path class="st4" d="M412.2,137.5c.2.4,1.6.1,3.2.2s3,.4,3.2,0c0-.2-.2-.5-.7-.9-1.5-.8-3.3-.9-4.9-.2-.6.3-.9.6-.8.8Z"/>
    <path class="st4" d="M395.7,140.1c.2.3,1.5,0,3.2,0s3,.2,3.2-.2c0-.2-.2-.4-.8-.7-.8-.3-1.6-.4-2.4-.4-.8,0-1.7.2-2.4.6-.6.3-.8.6-.8.7Z"/>
    <path class="st4" d="M380,131.3c.1-.4.4-.8.8-1,.8-.4,1.7-.5,2.6-.4,2.8,0,5.5-.9,7.8-2.4,1.1-1.6,2.3-3,3.6-4.4,3.1-3.2,5.7-5.4,8.4-6.5,3.5-1.4,9.2-2,12.9-1s6.9,3.9,7.4,7.6c2-1.7,5.1-1.7,7.5-.7h0c2.7,1,4.3,3.9,5.1,6.7s1.2,5.8,2.6,8.3c.3.5.7,1.1.4,1.7-.3.4-.7.6-1.2.5-.5,0-.9-.3-1.3-.6.3.7.6,1.5.9,2.2-1,.2-2,.1-3-.2-.5,2.5-1.2,5-2,7.4-1-.1-2.1.1-2.9.7-1,.9-1.4,2.5-3,1.9-.8-.3-1.5-2-1.8-2.9-1.8-5.5-2.4-11.4-1.8-17.2-1.1-1.2-2.5-2.2-4-2.9h.1c-2.9-.9-6.2-1.9-8.9-.5-2.1,1.1-3.4,3.3-5,5-3,3.3-7.2,5.3-11.6,5.4-.1,2.9,0,7.1,0,10l-2.5-4.7h0c-.2-.3-.4-.7-.5-1h0c-.2-.7-.5-1.2-.8-1.8h0c-.8.6-1.9.5-2.6-.3-.5-.6-.5-1.5,0-2.2.2-.3.5-.6.9-.9-.7.7-1.8,1-2.8.7-1-.3-1.6-1.2-1.6-2.2,0-.7.5-1.3,1.1-1.5-1.3.1-2.6-.2-3.7-.8-.8-.4-1.5-1.1-1.2-2Z"/>
    <path class="st13" d="M420.2,124.3c.4.3.7.6,1,1,.8,1,1.4,2.2,1.6,3.4.2.9.3,1.8.3,2.6,0,1,0,2-.1,3.1,0,1.1-.1,2.3,0,3.4,0,.6.1,1.2.2,1.8,0,.6.3,1.2.7,1.7.4.4.9.6,1.5.5.5,0,1-.4,1.3-.7.6-.8.9-1.7,1-2.6h-.2c.3.8.7,1.5,1.3,2.2.5.6,1.2,1,2,1.1.4,0,.7,0,1.1-.2.3-.2.6-.4.7-.7.2-.3.2-.6.2-.9,0-.3-.1-.6-.3-.8h-.1c.6.8,1.4,1.4,2.2,1.8.3.1.5.2.7.3h.2c0,0-.2,0-.2,0-.2,0-.4-.2-.7-.3-.8-.4-1.6-1-2.2-1.7h-.1c.3.5.4,1.2,0,1.6-.1.3-.4.5-.6.6-.3.1-.7.2-1,.2-.7,0-1.4-.4-1.9-1-.5-.6-.9-1.4-1.2-2.1v-.3c-.1,0-.2.4-.2.4-.1.9-.5,1.8-1,2.5-.3.3-.7.6-1.2.7-.5,0-.9,0-1.2-.4-.4-.5-.6-1-.7-1.6-.1-.6-.2-1.2-.2-1.8,0-1.1,0-2.3,0-3.4,0-1.1.1-2.1.1-3.1,0-.9-.1-1.8-.3-2.7-.2-1.3-.8-2.5-1.7-3.5-.3-.4-.6-.7-1-.9Z"/>
    <path class="st13" d="M388.1,134.4h0c0,.1.2.2.3.3.1.1.3.2.4.3.2.1.4.2.6.3,1.4.6,2.9.9,4.4.8,2.3-.2,4.4-1,6.3-2.3,2.2-1.7,4-3.8,5.4-6.2.8-1.2,1.4-2.5,2-3.7.6-1.2,1.5-2.2,2.4-3.2.8-.8,1.9-1.5,3-1.8.5-.1,1-.2,1.6-.2.5,0,1,.1,1.4.3.8.3,1.5.7,2.2,1.3.5.4.9,1,1.2,1.5.2.5.4,1,.5,1.6h0c0-.2,0-.3,0-.4,0-.4-.2-.8-.4-1.2-.7-1.4-1.9-2.4-3.4-2.9-.5-.2-1-.3-1.5-.3-.6,0-1.1,0-1.6.2-1.2.3-2.2,1-3.1,1.8-.9.9-1.7,2-2.4,3.2-.7,1.2-1.3,2.5-2,3.7-1.3,2.4-3.1,4.5-5.3,6.1-1.8,1.3-3.9,2.2-6.1,2.3-1.5.1-3-.1-4.4-.7-.5-.2-1-.5-1.5-.8Z"/>
    <path class="st13" d="M387.2,129.9s.1.1.4.3c.4.2.7.4,1.1.6.6.2,1.2.4,1.8.6.7.2,1.5.3,2.2.3.8,0,1.5,0,2.2-.1.6-.1,1.2-.3,1.8-.5.4-.1.8-.3,1.1-.5.1,0,.3-.1.4-.2,0,0-.6.2-1.6.6-.6.2-1.2.3-1.8.4-.7.1-1.5.1-2.2.1-.7,0-1.5-.1-2.2-.3-.6-.1-1.2-.3-1.7-.5-1-.4-1.5-.7-1.5-.7Z"/>
    <path class="st4" d="M395.6,144.9c.2.2,1.4-.8,3.1-.8s3,.8,3.2.6-.1-.5-.7-.9c-.8-.5-1.7-.8-2.6-.7-.9,0-1.8.3-2.5.9-.5.4-.7.8-.6.9Z"/>
    <path class="st4" d="M397.4,149.8c0,.8.7,1.3,1.5,1.3.7,0,1.4-.6,1.4-1.3,0,0,0,0,0,0,0-.8-.7-1.3-1.5-1.3-.7,0-1.4.6-1.4,1.3,0,0,0,0,0,0Z"/>
    <path class="st11" d="M427.5,148.9c.2,0,7-2.6,7.3,4.5s-6.9,5.9-6.9,5.7-.3-10.2-.3-10.2Z"/>
    <path class="st14" d="M430,156.4s.1,0,.3.2c.3.1.6.1.9,0,.9-.6,1.4-1.7,1.3-2.8,0-.6-.1-1.2-.4-1.8-.2-.5-.5-.8-1-.9-.3,0-.6,0-.7.4,0,.2,0,.3,0,.4s-.1-.1-.1-.4c0-.2.1-.3.3-.5.2-.2.4-.2.7-.2.6,0,1.1.5,1.3,1.1.3.6.5,1.3.5,2,0,1.4-.7,2.8-1.7,3.1-.4.1-.8,0-1.1-.1-.2-.2-.3-.4-.2-.4Z"/>
    <path class="st4" d="M412.2,158.4c0,0,0,.4-.2,1-.3.8-.9,1.4-1.6,1.9-.7.5-1.5.7-2.4.7-.6,0-1-.3-1-.3s.4,0,1,0c.8,0,1.5-.3,2.1-.7.6-.4,1.2-1,1.6-1.6.3-.5.4-.9.5-.9Z"/>
    <path class="st13" d="M448,439.6l2.1,24,7.5,18.6c.5,1.3-.2,2.7-1.4,3.1,0,0-.2,0-.3,0h0c-.8.2-1.7,0-2.4-.4-4.3-3.1-19.8-14.6-19.9-16.1-.2-1.9-4.2-25.6-4.2-25.6l18.5-3.7Z"/>
    <path class="st4" d="M456,485.4l-22.7-19.2.2,1.8c.1,1,.2,1.5.9,2.1,6,5.5,12.4,10.6,19,15.3.8.4,1.8.4,2.6,0h0Z"/>
    <path class="st7" d="M437.7,458.7c.7.4,1,1.2.7,1.9-.4.7-1.3,1-2,.6-.7-.4-1-1.3-.7-2,.5-.7,1.4-.9,2.1-.4"/>
    <path class="st4" d="M448.9,475.5c.1,0,.6-1.3,2-2.1.9-.4,1.9-.7,2.9-.8,0,0-.3-.2-.9-.2-.8,0-1.6.2-2.2.6-.7.4-1.2,1-1.5,1.6-.2.5-.2.9-.1.9Z"/>
    <path class="st4" d="M451.1,478.5c.1.1.9-.8,2.1-1.2.8-.2,1.6-.4,2.5-.5-.9-.4-1.8-.4-2.7,0-1.5.6-2,1.7-1.9,1.7Z"/>
    <path class="st4" d="M445.1,471.8c1-.8,2.1-1.5,3.2-2.1,1.2-.5,2.4-.9,3.7-1.2-1.4-.2-2.8,0-4,.7-2.1,1-3,2.6-2.9,2.6Z"/>
    <path class="st4" d="M443.8,464.5c0,.1,1.4-.6,3.2-.8s3.3,0,3.4-.1c-1.1-.5-2.3-.7-3.5-.4-1.2,0-2.3.5-3.2,1.3Z"/>
    <path class="st4" d="M443,457.5c2.1-1.1,4.6-1.2,6.8-.5,0,0-.3-.3-.9-.6-.8-.3-1.7-.5-2.6-.4-.9,0-1.7.3-2.5.8-.6.3-.9.6-.8.7Z"/>
    <path class="st4" d="M446.1,455.2s0-.3,0-.9c-.2-.8-.5-1.6-1-2.3-.3-.5-.8-1-1.4-1.2-.4-.1-.9,0-1.2.3-.2.3-.3.7-.3,1.1.4,1.7,1.9,2.9,3.6,2.9,1.7,0,3.3-1,4-2.5.2-.4.1-.8,0-1.2-.3-.4-.7-.5-1.1-.4-.6.2-1.2.5-1.6,1-.6.6-1.1,1.2-1.5,2-.2.3-.3.6-.3.9.6-1,1.3-1.9,2.1-2.6.4-.4.9-.7,1.4-.8.2,0,.5,0,.6.2.1.2.1.5,0,.8-.6,1.3-2,2.2-3.5,2.2-1.5,0-2.7-1-3.1-2.4,0-.3,0-.6.2-.8.2-.2.4-.3.6-.2.5.2.9.6,1.2,1,.6.9,1.1,1.9,1.4,3Z"/>
    <path class="st13" d="M387.5,440.8l.9,20.4s-21.7,7.7-21.9,11.5l42-.3v-31.8c0,0-21.1.2-21.1.2Z"/>
    <path class="st0" d="M401.4,459.4c.8.2,1.3,1,1.2,1.8-.3.8-1.1,1.3-1.9,1.1-.9-.2-1.4-1.1-1.3-1.9.3-.8,1.3-1.3,2.1-1"/>
    <path class="st4" d="M408.5,472.4v-3.2c-.1,0-40.4,1.5-40.4,1.5,0,0-1.9.8-1.6,2l42.1-.3Z"/>
    <path class="st4" d="M387.7,461c0,.2,1,.3,2,.9s1.6,1.4,1.8,1.3-.1-1.2-1.4-1.9-2.4-.5-2.4-.3Z"/>
    <path class="st4" d="M383.3,462.7c0,.2.9.5,1.5,1.3s.9,1.7,1.1,1.7.3-1.1-.6-2.1-2.1-1.1-2.1-.9Z"/>
    <path class="st4" d="M380.9,467.7c.2,0,.5-.9,0-2s-1.5-1.5-1.6-1.3.5.7.9,1.6.5,1.7.7,1.7Z"/>
    <path class="st4" d="M388,456.3c0,.2,1,0,2.2,0s2.1.4,2.2.2-.8-.9-2.1-.9-2.3.5-2.2.7Z"/>
    <path class="st4" d="M380.1,294.7c0,1.2,4.9,163.9,4.9,163.9h26l5.3-139.2s6.1,72.8,6.1,74.3,5.4,65.6,5.4,65.6l24.1-1.9-1.6-146.5-2.9-21.5-67.3,5.2Z"/>
    <path class="st13" d="M419,314.2c-.3.2-.7.3-1,.4-.7.2-1.7.6-2.9,1h-.2c0,0,0-.2,0-.2-.1-2-.3-4.6-.5-7.4-.2-3.1-.3-5.9-.4-8,0-1,0-1.9,0-2.4,0-.3,0-.6,0-.9,0,.3.1.6.1.9,0,.6.1,1.4.2,2.4.2,2,.3,4.9.5,8,.2,2.9.3,5.5.3,7.5l-.2-.2c1.3-.4,2.3-.6,3-.8.4-.1.7-.2,1.1-.3Z"/>
    <path class="st13" d="M417,297.3s0-.1.4-.2c.4-.1.8,0,1.1.1.6.2.9.7.9,1.3,0,.7-.6,1.3-1.4,1.5-.7.1-1.5-.2-1.9-.8-.3-.5-.3-1.1,0-1.5.2-.3.5-.5.9-.7.3,0,.4,0,.4,0s-.6.2-1,.9c-.2.4-.2.8,0,1.2.3.4.9.7,1.4.6.5,0,.9-.5,1-1,0-.4-.2-.8-.6-1-.4-.2-.9-.3-1.3-.2Z"/>
    <path class="st13" d="M428.9,299c-.1,0-.3-.7-.4-1.6s0-1.6,0-1.6.3.7.4,1.6,0,1.6,0,1.6Z"/>
    <path class="st13" d="M430.7,298.8c-.1,0-.3-.8-.3-1.7s.1-1.7.2-1.7.3.8.3,1.7,0,1.7-.2,1.7Z"/>
    <path class="st13" d="M399.4,299.9c-.1,0-.4-.8-.5-1.9s-.1-1.9,0-1.9.4.8.5,1.9.1,1.9,0,1.9Z"/>
    <path class="st13" d="M401.6,300.1c-.5-.6-.7-1.3-.6-2-.1-.7,0-1.4.5-2,.1,0,0,.9,0,2s.3,2,.1,2Z"/>
    <path class="st13" d="M393.4,297.9c0,.2,0,.5,0,.7-.1.6-.3,1.3-.5,1.9-.7,2.1-1.8,4.1-3.2,5.8-1.4,1.8-3.2,3.4-5.1,4.6-.6.4-1.2.7-1.8,1.1-.2.1-.5.2-.7.3,0,0,.9-.6,2.4-1.6,1.8-1.3,3.5-2.9,4.9-4.6,1.4-1.7,2.5-3.6,3.3-5.6.6-1.6.8-2.6.9-2.5Z"/>
    <path class="st13" d="M449.6,308.9c-.3,0-.5.1-.8.1-.7,0-1.5,0-2.2,0-2.4-.2-4.7-1-6.7-2.3-1.9-1.2-3.4-3-4.4-5-.3-.6-.5-1.2-.7-1.9,0-.2-.1-.5-.1-.7,0,0,.3,1,1.1,2.4,1.1,1.9,2.6,3.6,4.4,4.8,1.9,1.3,4.1,2.1,6.4,2.4,1.8.2,2.9,0,2.9.2Z"/>
    <path class="st13" d="M407.2,391.3c0,.1-4.3-.8-9.6-2.1s-9.5-2.4-9.5-2.5,4.3.8,9.6,2.1,9.5,2.4,9.5,2.5Z"/>
    <path class="st13" d="M449.1,385.3c0,.1-3.7,2-8.4,4.4s-8.5,4.1-8.6,4,3.7-2.1,8.4-4.4,8.5-4.1,8.6-4Z"/>
    <path class="st11" d="M367.5,239.6l3.5,4.4v-7.6h11.2s1.2,17.5,1,21.2c-.3,1.9-.7,3.9-1.4,5.7-1.1,3.5-4.8,5.4-8.2,4.3-1-.3-1.9-.9-2.7-1.6-1.3-1.2-2.4-2.5-3.5-3.9-5-6.4-13.2-22-13.2-22l8.6-5.2,4.6,4.6Z"/>
    <path class="st14" d="M366.8,238.8c.4.7.9,1.4,1.5,2,1,1.2,2.3,2.8,3.8,4.5s2.9,3.3,4,4.3c.6.6,1.2,1.1,1.9,1.5-.5-.6-1.1-1.2-1.6-1.8-1-1.1-2.4-2.7-3.9-4.4-2.9-3.5-5.5-6.3-5.6-6.2Z"/>
    <polygon class="st11" points="393.1 185.8 404.9 181.2 426.6 179.9 436.8 183.8 422.8 191.6 410.8 191.2 393.1 185.8"/>
    <path class="st13" d="M379.1,296.9c1.1.2,72.3,3.2,72.3,3.2l-2.5-64.1-.2-12.6-4-38.1s-10.7-3.7-16.1-5.4c0,0-5.7,6-16.6,5.8-10.6-.1-12.9-2.6-12.9-2.6l-14.9,5.7s-10.6,3.8-12.4,8.5-5,30.6-5,30.6h15.4l-.4,46-2.9,23.1Z"/>
    <g class="st10">
      <polyline points="423.9 211.4 426.1 227.5 436.8 232.3 444.7 225.6 444.7 210.6 423.9 211.4"/>
    </g>
    <path class="st4" d="M444.5,216c0,.1-4.4.2-9.9.2s-9.9-.1-9.9-.2c3.3-.3,6.6-.3,9.9-.2,3.3,0,6.6,0,9.9.2Z"/>
    <path class="st4" d="M374.3,204c0,.1,0,.3.1.4,0,.3.2.7.3,1.2.4,1.5.9,3.1,1.4,4.6.7,1.9,1.7,4.2,2.9,6.7s2.2,5.5,3.3,8.7h0c0,3.8,0,8,0,12.4-.1,9.8-.2,18.7-.3,25.1,0,3.2-.1,5.8-.1,7.6,0,.9,0,1.6,0,2.1,0,.2,0,.5,0,.7,0-.2,0-.5,0-.7,0-.5,0-1.2,0-2.1v-7.6c0-6.5,0-15.3.1-25.1,0-4.4,0-8.6.1-12.4h0c-1.1-3.1-2.1-6.1-3.2-8.6-1.1-2.2-2-4.4-2.9-6.7-.5-1.5-1-3-1.3-4.6-.1-.6-.2-1-.2-1.3,0-.1,0-.2-.1-.4Z"/>
    <path class="st4" d="M449.9,196.5c0,.5,0,.9,0,1.4,0,1,0,2.2-.1,3.7-.1,3.2-.3,7.5-.5,12.3s-.4,9.1-.5,12.3c0,1.5-.2,2.8-.2,3.7,0,.5,0,.9-.1,1.4,0-.5,0-.9,0-1.4,0-1,0-2.2,0-3.7,0-3.1.2-7.5.4-12.3s.4-9.1.6-12.3c.1-1.6.2-2.8.3-3.7,0-.5,0-.9.1-1.4Z"/>
    <g class="st2">
      <path d="M374.4,206.4c-.3,7,2.2,13.9,7,19.1-1.4-6.6-5.1-12.8-7-19.1Z"/>
    </g>
    <g class="st2">
      <path d="M405.7,269.8c3.4-.4,6.4-2.1,8.5-4.8,2.3-2.5,4.2-5.3,5.8-8.3,2-4.1,3.2-8.5,3.4-13.1-4.1,11.1-10.2,19.9-17.7,26.2Z"/>
    </g>
    <path class="st4" d="M424.6,238.8c0,.1,0,.3,0,.4,0,.3-.2.7-.3,1.2s-.3,1.1-.5,1.8-.4,1.5-.8,2.4c-.7,2-1.5,4.1-2.5,6-2.3,4.8-5.2,9.2-8.8,13.2-1.4,1.6-3,3.1-4.6,4.6-.7.6-1.3,1.1-1.9,1.6s-1.1.8-1.5,1.1l-1,.7c-.2.1-.4.2-.4.2,0-.1.2-.2.3-.3l.9-.7c.4-.3.9-.7,1.5-1.2s1.2-1,1.9-1.6c1.6-1.5,3.1-3,4.5-4.6,1.7-2,3.3-4.1,4.8-6.3,1.4-2.2,2.7-4.5,3.9-6.8.9-1.9,1.8-3.9,2.5-5.9.3-.9.6-1.6.8-2.3s.4-1.3.6-1.8.2-.8.3-1.1.2-.4.2-.4Z"/>
    <path class="st4" d="M422.6,218.7c0,.2,0,.4,0,.7,0,.5-.2,1.1-.3,1.9s-.3,1.8-.6,2.9-.5,2.4-1,3.8c-.2.7-.4,1.4-.6,2.2s-.5,1.6-.8,2.4c-.5,1.6-1.2,3.4-2,5.1-3.3,7.8-7.7,15-13.1,21.5-1.3,1.5-2.5,2.9-3.7,4.1-.6.6-1.2,1.2-1.7,1.8s-1.1,1.1-1.7,1.6c-1,1-2.1,1.9-3,2.6s-1.7,1.4-2.3,1.9l-1.5,1.1c-.2.1-.3.3-.5.4.1-.2.3-.3.5-.4l1.5-1.2c.6-.5,1.4-1.1,2.3-1.9s1.9-1.6,2.9-2.7l1.6-1.6c.6-.6,1.1-1.2,1.7-1.8,1.2-1.2,2.4-2.6,3.6-4.1,5.4-6.5,9.8-13.7,13.1-21.4.7-1.8,1.5-3.5,2-5.1.3-.8.6-1.6.8-2.4s.5-1.5.7-2.2c.5-1.4.8-2.7,1.1-3.8s.5-2.1.7-2.9.3-1.4.4-1.8c0-.2.1-.4.2-.6Z"/>
    <path class="st0" d="M366.3,198.8l27.4,41.7c.4.6.2,1.3-.3,1.7-.2.2-.6.2-.8.2l-31.6-4c-.3,0-.6-.2-.8-.5l-30.2-41.2c-.4-.5-.3-1.3.2-1.7.2-.2.6-.3.9-.3l32.5,2.4c1.1.1,2.2.7,2.8,1.7Z"/>
    <path class="st4" d="M366.3,198.8c0-.1-.2-.3-.2-.4-.3-.3-.6-.6-1-.9-.7-.3-1.4-.5-2.1-.5l-2.9-.2-18.7-1.5-6.2-.5-3.3-.2h-.9c-.3,0-.7.1-.9.4-.5.5-.6,1.3-.2,1.9l8.8,12.1c6.2,8.5,13,17.8,20.1,27.6.5.6.9,1.2,1.4,1.8.2.2.3.3.6.4.2,0,.4.1.6.1h1.1c0,.1,4.4.7,4.4.7l8.6,1.1,16.3,2c.3,0,.6,0,1,.1.4,0,.8-.2,1-.4.3-.3.4-.6.4-1,0-.4-.1-.7-.4-1l-2.1-3.2-4-6-7.2-10.8c-4.4-6.6-7.9-11.9-10.4-15.6l-2.9-4.2c-.3-.5-.6-.8-.8-1.1,0-.1-.2-.3-.3-.4,0,.1.1.3.2.4l.7,1.1c.6,1,1.6,2.4,2.8,4.3l10.3,15.8,7.1,10.9,4,6.1,2.1,3.2c.2.2.3.5.3.8,0,.3-.1.5-.3.7-.2.2-.4.3-.7.3-.3,0-.6,0-1-.1l-16.4-2.1-8.6-1.1-4.4-.6h-1.1c-.2-.2-.3-.2-.5-.2-.1,0-.3-.1-.4-.2-.4-.6-.9-1.2-1.3-1.8-7.2-9.8-14-19.1-20.2-27.5-3.1-4.2-6-8.2-8.8-12-.3-.5-.2-1.1.3-1.4.2-.1.4-.2.5-.2.2,0,.5,0,.8,0l3.3.2,6.2.4,18.8,1.3,2.9.2c.7,0,1.4.1,2.1.4.5.3.9.7,1.3,1.1Z"/>
    <path class="st4" d="M329.9,196.7c.2,0,.4,0,.7.1l1.9.2,7.1.6,24.3,2h-.2c1.5,2.1,3.1,4.5,4.7,6.9,6.4,9.9,12,18.9,16.2,25.4,2.1,3.2,3.9,5.8,5.1,7.6l1.4,2c.2.2.3.5.5.7-.1-.3-.3-.5-.4-.7l-1.3-2.1-4.9-7.7c-4.1-6.5-9.7-15.6-16.1-25.4-1.6-2.4-3.1-4.8-4.7-7h0c0-.1,0-.1,0-.1l-24.3-1.8-7.1-.5h-1.9c-.2-.1-.5-.1-.7-.1Z"/>
    <path class="st7" d="M349.5,202.6"/>
    <path class="st7" d="M348.7,203.1c0-.3.4-.6.8-.5,0,0,0,0,0,0,.3,0,.6.2.9.5.3.3.4.7.1,1.1-.3.4-1,.2-1.3,0-.3-.2-.5-.6-.4-1Z"/>
    <path class="st11" d="M363.5,226.5s1.2-3-1.9-3.4c-3.8-.2-7.6-.2-11.5,0,0,0-4.5.5-3.6,3.7,0,0-2.7,2.4-1.2,5s2,1.8,2,1.8c0,0-.4,3.2,2,3.6,0,0,2.6,3.1,5,2.9s12.5-5.1,13.2-6,1.6-1.5,1.1-2.6c0,0,1.2-2.8-1.4-3.2,0,0-.2-2.4-3.6-1.9Z"/>
    <path class="st14" d="M349.1,227.5c.7.1,1.4.2,2.1.2h5.1c1.7,0,3.5,0,5.2-.3,1.4-.3,1.9-1.1,1.8-1.1-.6.4-1.2.6-1.9.8-1.2.2-3.1,0-5.1.1s-3.8,0-5.1.1c-.7,0-1.4,0-2.1.2Z"/>
    <path class="st14" d="M351.3,232.3c.2.1.4.2.7.2.7.1,1.3.2,2,.1,1,0,1.9-.3,2.9-.5,1.1-.3,2.2-.7,3.4-1.1,1.1-.4,2.2-.6,3.4-.7,1,0,2-.1,2.9-.6.3-.2.6-.6.7-1,0-.3,0-.6-.1-.9-.2-.4-.6-.5-.6-.5s.2.1.4.6c.2.6,0,1.2-.6,1.5-.9.4-1.8.5-2.7.4-1.2,0-2.4.3-3.5.7l-3.4,1.1c-.9.3-1.8.5-2.8.6-.9,0-1.8,0-2.7,0Z"/>
    <path class="st14" d="M354.7,236.4c.7,0,1.4-.2,2.1-.4,1.3-.3,3.1-.8,5-1.5s3.7-1.3,4.9-1.8c.7-.2,1.4-.5,2-.9,0-.1-3.2,1-7,2.2s-7.1,2.2-7.1,2.4Z"/>
    <path class="st14" d="M353.9,240.1c.6,0,1.2,0,1.8-.2,1.4-.3,2.8-.8,4-1.4,1.5-.7,2.9-1.4,3.8-1.9.5-.2,1.1-.5,1.5-.9-1.9.6-3.8,1.4-5.5,2.4-3,1.4-5.6,2-5.6,2.1Z"/>
    <path class="st11" d="M454.9,211.6s-6.5,25.9-14.5,35.4c-7.8,9.3-20.1,5-24.3-7s-11.8-39.3-11.8-39.3l9.3-7.1,16,31.1,7.2-21.2,18.1,8.1Z"/>
    <path class="st11" d="M404.7,201.4l-6.8-9.9c-1-.2-2-.5-2.9-.9-.8-.4-1.5-4.4-1.5-5.1s-1.3-2.6-.8-3.1,2.4-.5,2.3-1.3c0-.2-1.4-1.8-.3-3,.6-.4,1.2-.7,1.9-.8v-3.8c-.1,0,1.9-4.4,4-2.8,0,0,7.8,6,8.6,7s3.8,13.5,4.3,15.8"/>
    <path class="st14" d="M413.6,193.6c0-.2,0-.4-.1-.7-.1-.5-.2-1.1-.4-1.9-.4-1.6-.9-4-1.6-6.9-.4-1.5-.8-3-1.3-4.8-.1-.4-.3-.9-.5-1.3-.2-.4-.5-.8-.9-1.1-.7-.6-1.5-1.2-2.2-1.9-1.5-1.2-3.2-2.6-4.9-3.9-.4-.4-.9-.7-1.4-.9-.6-.1-1.3,0-1.8.4-.9.8-1.6,1.7-2.1,2.8h0v1.2c0,.9,0,1.8,0,2.6l.2-.2c-.5.1-.9.3-1.4.5-.2.1-.5.3-.7.4-.2.2-.3.4-.4.7-.1.5,0,1,.1,1.5,0,.2.2.4.3.6l.2.3h0c0,0,0,.1,0,.1,0,0-.2.2-.4.3s-.4.1-.6.2c-.2,0-.4.1-.6.2-.3,0-.5.2-.6.5-.1.3-.1.5,0,.8,0,.2.1.4.2.6.2.4.4.8.5,1.1,0,.2.1.3.1.5,0,.2,0,.4,0,.6,0,.4.1.8.2,1.2.2.8.4,1.5.6,2.3.1.4.3.7.6,1.1.3.2.7.4,1.1.5.7.2,1.4.4,2,.5h-.1c0,0,5,7.1,5,7.1l1.4,1.9c.2.2.3.5.5.7-.1-.2-.3-.5-.4-.7l-1.3-2c-1.2-1.8-2.9-4.2-4.9-7.3h0c0,0,0,0,0,0-.6-.2-1.3-.3-2-.6-.3,0-.6-.2-.9-.4-.2-.3-.4-.6-.5-.9-.3-.7-.5-1.5-.6-2.2,0-.4-.1-.8-.2-1.2v-.6c0-.2,0-.5-.1-.7-.1-.4-.3-.8-.5-1.2,0-.2-.2-.4-.2-.6,0-.1,0-.3,0-.5.1-.1.3-.2.4-.2.2,0,.4-.1.6-.2.2,0,.4-.1.6-.2.3,0,.5-.3.6-.5,0,0,0-.2,0-.3,0,0,0-.1,0-.2h0c0,0-.2-.4-.2-.4-.1-.2-.2-.4-.3-.6-.2-.4-.2-.8-.1-1.2,0-.2.1-.4.3-.5.2-.1.3-.2.5-.3.4-.2.9-.3,1.3-.4h.2v-.2c0-.9,0-1.7,0-2.6v-1.1h0c.4-.9,1.1-1.8,1.9-2.5.4-.3.9-.5,1.3-.4.5.2.9.5,1.3.9,1.7,1.3,3.4,2.6,4.9,3.9.8.6,1.5,1.2,2.2,1.8.4.3.6.6.8,1,.2.4.3.8.5,1.2.5,1.7,1,3.3,1.4,4.7.8,2.9,1.4,5.2,1.8,6.9.2.8.4,1.4.5,1.9,0,.2,0,.4,0,.6Z"/>
    <path class="st14" d="M396.6,177.4c0,0,.8,0,2,.1.7.1,1.4.3,2.1.5.9.1,1.9.1,2.8,0,1.6-.2,3.2.3,4.4,1.4.4.5.8,1.1,1,1.7,0-.7-.3-1.4-.8-1.9-.5-.6-1.2-1-1.9-1.3-.9-.3-1.8-.5-2.8-.4-.9.1-1.8.1-2.6,0-.7-.2-1.5-.3-2.2-.4-.7,0-1.4,0-2,.2Z"/>
    <path class="st14" d="M399.4,177.2c.1,0,.4-.4.4-1.1s-.4-1.1-.5-1,0,.5,0,1,0,1,.1,1.1Z"/>
    <path class="st14" d="M394.7,181.3c2,.2,4,0,5.9-.5.7-.2,1.4-.3,2.2-.3.6.1,1.1.5,1.4.9.3.5.6,1,.8,1.5,0-.6-.1-1.2-.5-1.7-.4-.6-.9-1-1.6-1.2-.8,0-1.6,0-2.4.2-3.2.7-5.8.8-5.8,1Z"/>
    <path class="st14" d="M393.7,184.9c.5.1,1,.1,1.5,0,.9-.1,2.1-.4,3.4-.7.6-.1,1.2-.2,1.8-.2.5,0,.9.2,1.3.5.3.3.6.7.6,1.1,0,0,0-.1,0-.4,0-.4-.2-.7-.5-1-.4-.4-.9-.6-1.5-.7-.7,0-1.3,0-2,.1-1.3.3-2.5.6-3.4.8-.5,0-.9.2-1.4.3Z"/>
    <path class="st14" d="M396,187.7c0,0,.6.8,1.8.8l-.2-.2c0,.2,0,.4,0,.6,0,.9.2,1.7.6,2.5.1-.8.1-1.7,0-2.5v-.6c0,0,0-.2,0-.2h-.2c-.6,0-1.2-.1-1.8-.3Z"/>
    <path class="st13" d="M444.7,185.4s13.2,3.2,13.2,20.8-4,26.2-4,26.2l-24.4-13.3,5.5-13.6,9.7-20Z"/>
    <path class="st4" d="M453.9,232.3c-.2,0-.3-.1-.5-.2l-1.4-.7-5.2-2.7-17.4-9.4h-.2c0-.1,0-.3,0-.3l1.3-3.4c1.6-4.1,3-7.9,4.4-11.4.7-1.8,1.3-3.4,1.9-5,.5-1.5,1.2-2.9,1.9-4.3,1-2,2.5-3.8,4.4-5.1.5-.3,1.1-.6,1.7-.7.2,0,.3,0,.5,0h.2c-.8.2-1.6.5-2.2.9-1.8,1.3-3.2,3.1-4.2,5.1-.7,1.4-1.3,2.8-1.9,4.2-.6,1.6-1.2,3.2-1.9,5l-4.4,11.4-1.3,3.4v-.3c-.1,0,17.2,9.5,17.2,9.5l5.1,2.9,1.4.8c.2,0,.3.2.4.3Z"/>
  </g>
</svg>