<?xml version="1.0" encoding="UTF-8"?>
<svg id="Group_110" xmlns="http://www.w3.org/2000/svg" xmlns:xlink="http://www.w3.org/1999/xlink" version="1.1" viewBox="0 0 677.3 407.9">
  <!-- Generator: Adobe Illustrator 29.6.1, SVG Export Plug-In . SVG Version: 2.1.1 Build 9)  -->
  <defs>
    <style>
      .st0 {
        fill: none;
      }

      .st1 {
        fill: #e0e0e0;
      }

      .st2 {
        isolation: isolate;
      }

      .st2, .st3 {
        opacity: .6;
      }

      .st4 {
        fill: #aa6550;
      }

      .st5 {
        fill: #b78876;
      }

      .st6 {
        fill: #ffbe9d;
      }

      .st7 {
        fill: #ebebeb;
      }

      .st8 {
        fill: #263238;
      }

      .st9 {
        fill: #eb996e;
      }

      .st10 {
        fill: #1211ca;
      }

      .st11 {
        clip-path: url(#clippath-11);
      }

      .st12 {
        clip-path: url(#clippath-10);
      }

      .st13 {
        clip-path: url(#clippath-15);
      }

      .st14 {
        clip-path: url(#clippath-13);
      }

      .st15 {
        clip-path: url(#clippath-14);
      }

      .st16 {
        clip-path: url(#clippath-12);
      }

      .st17 {
        clip-path: url(#clippath-1);
      }

      .st18 {
        clip-path: url(#clippath-3);
      }

      .st19 {
        clip-path: url(#clippath-4);
      }

      .st20 {
        clip-path: url(#clippath-2);
      }

      .st21 {
        clip-path: url(#clippath-7);
      }

      .st22 {
        clip-path: url(#clippath-6);
      }

      .st23 {
        clip-path: url(#clippath-9);
      }

      .st24 {
        clip-path: url(#clippath-8);
      }

      .st25 {
        clip-path: url(#clippath-5);
      }

      .st26 {
        fill: #ffde59;
      }

      .st27 {
        fill: #fff;
      }

      .st28 {
        fill: #1abc9c;
      }

      .st29 {
        fill: #fafafa;
      }

      .st30 {
        opacity: .4;
      }

      .st31 {
        opacity: .3;
      }

      .st32 {
        opacity: .1;
      }

      .st33 {
        fill: #f5f5f5;
      }

      .st34 {
        fill: #455a64;
      }

      .st35 {
        clip-path: url(#clippath);
      }
    </style>
    <clipPath id="clippath">
      <rect class="st0" width="677.3" height="407.9"/>
    </clipPath>
    <clipPath id="clippath-1">
      <rect class="st0" width="677.3" height="407.9"/>
    </clipPath>
    <clipPath id="clippath-2">
      <rect class="st26" x="353.9" y="149.1" width="4.6" height="33.9"/>
    </clipPath>
    <clipPath id="clippath-3">
      <rect class="st26" x="371.7" y="133.6" width="4.6" height="49.3"/>
    </clipPath>
    <clipPath id="clippath-4">
      <rect class="st26" x="389.4" y="156.6" width="4.6" height="26.4"/>
    </clipPath>
    <clipPath id="clippath-5">
      <rect class="st26" x="407.2" y="145.2" width="4.6" height="37.7"/>
    </clipPath>
    <clipPath id="clippath-6">
      <rect class="st26" x="424.9" y="152.7" width="4.6" height="30.2"/>
    </clipPath>
    <clipPath id="clippath-7">
      <rect class="st0" x="503.7" y="402.7" width="4.7" height="3.4"/>
    </clipPath>
    <clipPath id="clippath-8">
      <rect class="st0" x="486.6" y="404" width="21.7" height="2.3"/>
    </clipPath>
    <clipPath id="clippath-9">
      <rect class="st0" x="552" y="404.6" width="15.9" height="2"/>
    </clipPath>
    <clipPath id="clippath-10">
      <rect class="st0" x="527.5" y="273.5" width="18.5" height="88.9"/>
    </clipPath>
    <clipPath id="clippath-11">
      <rect class="st0" x="392" y="389.6" width="19.9" height="15.7"/>
    </clipPath>
    <clipPath id="clippath-12">
      <rect class="st0" x="395.9" y="385.3" width="12.9" height="9.9"/>
    </clipPath>
    <clipPath id="clippath-13">
      <rect class="st0" x="334" y="404.2" width="25.1" height="2.5"/>
    </clipPath>
    <clipPath id="clippath-14">
      <rect class="st0" x="344.1" y="399.3" width="15" height="1.9"/>
    </clipPath>
    <clipPath id="clippath-15">
      <rect class="st0" x="395.4" y="266" width="34.5" height="38.5"/>
    </clipPath>
  </defs>
  <g class="st35">
    <g id="Group_109">
      <rect id="Rectangle_34" class="st1" x="430.6" y="251.8" width="42" height="5.6"/>
      <g id="Group_108">
        <g class="st17">
          <g id="Group_107">
            <path id="Path_141" class="st29" d="M436.3,252c.3,1.7.3,3.5,0,5.3-.4-1.7-.4-3.5,0-5.3"/>
            <path id="Path_142" class="st29" d="M435.4,251.9c.3,1.7.3,3.5,0,5.3-.3-1.7-.3-3.5,0-5.3"/>
            <path id="Path_143" class="st29" d="M469.4,252c.4,1.7.4,3.5,0,5.3-.3-1.7-.3-3.5,0-5.3"/>
            <path id="Path_144" class="st29" d="M468.5,251.9c.3,1.7.3,3.5,0,5.3-.3-1.7-.3-3.5,0-5.3"/>
            <path id="Path_145" class="st29" d="M463,254.8c0,.1-4.8.3-10.8.3s-10.8-.1-10.8-.3c3.6-.3,7.2-.4,10.8-.3,3.6,0,7.2,0,10.8.3"/>
            <rect id="Rectangle_35" class="st1" x="430.4" y="277.1" width="42" height="11.2"/>
            <path id="Path_146" class="st29" d="M473,285.2c0,0-.1,0-.2.1-.1,0-.4.2-.7.3-.9.4-1.9.7-2.9.8-1.6.3-3.2,0-4.6-.7-.9-.5-1.6-1.2-2.2-2-.6-.9-.9-2.1-.8-3.2.1-.6.4-1.2.8-1.7.4-.5,1.1-.8,1.8-.8.7,0,1.4.4,1.8,1,.5.5.7,1.2.8,1.9.1,1.5-.4,2.9-1.5,4-1.1,1.1-2.5,1.8-4,2-1.6.2-3.2,0-4.7-.6-1.6-.5-3.1-1.5-4.1-2.8-.6-.7-.9-1.5-1-2.4,0-.9.2-1.9.9-2.5.4-.3.8-.5,1.3-.6.5,0,1,.1,1.4.4.8.5,1.3,1.3,1.5,2.3.4,1.8-.3,3.7-1.6,5-1.3,1.1-3,1.8-4.7,1.9-1.7.2-3.3,0-4.9-.5-1.6-.5-2.9-1.5-3.7-2.9-.9-1.3-1-3-.5-4.5.3-.7.9-1.3,1.7-1.5.7-.1,1.5,0,2.1.5,1.1.9,1.5,2.4,1,3.8-.4,1.2-1.1,2.2-2.1,3-1.6,1.4-3.7,2.1-5.8,2.2-1.6,0-3.2-.3-4.6-1-.9-.5-1.7-1.1-2.4-1.8-.2-.2-.3-.4-.5-.6-.1-.1-.2-.2-.1-.2.9,1,1.9,1.8,3.1,2.4,1.4.7,2.9,1,4.5.9,2-.1,4-.9,5.5-2.2.9-.7,1.6-1.7,2-2.8.4-1.2,0-2.5-.9-3.3-.5-.4-1.1-.5-1.8-.4-.6.1-1.2.6-1.4,1.2-.5,1.3-.3,2.8.5,4,.8,1.3,2,2.2,3.5,2.7,1.5.5,3.1.6,4.7.5,1.6-.1,3.2-.7,4.4-1.8,1.2-1.1,1.8-2.8,1.5-4.4-.2-.8-.6-1.5-1.3-1.9-.6-.5-1.5-.4-2,.1-.5.6-.8,1.3-.7,2.1,0,.8.4,1.5.9,2.1,1,1.2,2.3,2.1,3.9,2.6,1.4.5,3,.7,4.5.6,1.4-.1,2.8-.8,3.8-1.8.9-1,1.4-2.3,1.3-3.6,0-1.2-1-2.3-2.2-2.5-.6,0-1.1.2-1.5.7-.4.4-.6.9-.7,1.5-.2,1,0,2.1.7,3,.5.8,1.2,1.5,2.1,1.9,1.4.7,2.9,1,4.5.7,1-.1,1.9-.4,2.8-.7.3-.2.6-.3,1-.4"/>
            <rect id="Rectangle_36" class="st7" x="434.2" y="257.6" width="38.3" height="19.5"/>
            <path id="Path_147" class="st1" d="M440.5,258.2c.3,3.1.4,6.3.3,9.4,0,3.1,0,6.3-.3,9.4-.3-3.1-.3-6.3-.3-9.4,0-3.1,0-6.3.3-9.4"/>
            <path id="Path_148" class="st1" d="M443.4,258c.3,3.1.3,6.2.3,9.3,0,3.1,0,6.2-.3,9.3-.3-3.1-.4-6.2-.3-9.3,0-3.1,0-6.2.3-9.3"/>
            <path id="Path_149" class="st1" d="M468.1,257.4c.3,3.3.4,6.5.3,9.8,0,3.3,0,6.5-.3,9.8-.3-3.3-.3-6.5-.3-9.8,0-3.3,0-6.5.3-9.8"/>
            <path id="Path_150" class="st1" d="M464.7,257.6c.3,3.2.4,6.4.3,9.5,0,3.2,0,6.4-.3,9.6-.3-3.2-.4-6.4-.3-9.6,0-3.2,0-6.4.3-9.5"/>
            <rect id="Rectangle_37" class="st1" x="206.2" y="35.7" width="258.1" height="171.2"/>
            <path id="Path_151" class="st33" d="M0,48.2C-.3,24,19.1,4.2,43.2,3.9c24.2-.3,44,19.1,44.2,43.2.3,24.1-19,43.8-43,44.2C20.3,91.8.4,72.5,0,48.4c0,0,0-.1,0-.2M64.6,47.2c0,11.8-9.6,21.4-21.4,21.4-11.8,0-21.4-9.6-21.4-21.4s9.6-21.4,21.4-21.4c11.8,0,21.4,9.6,21.4,21.4h0Z"/>
            <path id="Path_152" class="st1" d="M0,48.2C-.4,24,18.8,4,43,3.5l.4,22.9c-11.6.2-20.8,9.7-20.7,21.3s9.7,20.8,21.3,20.7h0l.4,22.9C20.2,91.7.4,72.4,0,48.2"/>
            <path id="Path_153" class="st7" d="M39.1,0c28.2-.5,50.7,21.4,51.2,49.8l-26.7.4c-.2-13.5-10.5-22.1-24-21.9L39.1,0Z"/>
            <path id="Path_154" class="st33" d="M209.2,400.6c-1.1-1-3.6-4-1.7-7.6.7-1.3,2.2-1.9,3.6-2.5,1.4-.5,2.7-1.1,3.9-2,2.1-1.8,2.7-4.8,4.1-7.2,1.6-2.8,4.6-4.9,7.8-4.7,3.7.2,6.7,3.1,8.1,6.6s1.4,7.2,1.5,10.9c0,2,0,4.3-1.6,5.7s-3.4,1.3-5.3,1.2l-20-.6"/>
            <path id="Path_155" class="st1" d="M247.5,345.6h-52.6l9.5,56.5c.4,2.4,2.2,4.3,4.5,5h.2c.2,0,.3.1.5.2.4,0,.7.1,1.1.1h0s23.7,0,23.7,0c.4,0,.9,0,1.3-.1,2.8-.4,5-2.7,5.3-5.5l4.6-38.9.2-1.5,1.8-15.4v-.3ZM237.6,381.6h-5.4l.5-16.4h6.2l-1.4,16.4ZM239.5,365.2h5.2l-1.9,16.4h-4.6l1.4-16.4ZM224.1,399.8l-.3-14.2h7.8l-.5,14.2h-7ZM215.7,385.5h7.6l.3,14.2h-6.8l-1.1-14.2ZM216.3,399.8h-6.3c-.6-3.9-1.4-8.9-2.2-14.2h7.5l1.1,14.2ZM215.4,381.6l-1.3-16.4h8.7l.4,16.4h-7.8ZM223.7,381.6l-.4-16.4h8.9l-.6,16.4h-8ZM223.2,361.3l-.4-15.2h10l-.5,15.2h-9.1ZM222.7,361.3h-8.9l-1.2-15.2h9.7l.4,15.2ZM213.3,361.3h-9.4c-.3-2.1-.6-4.1-.9-5.9-1-6.1-1.4-8.5-1.6-9.3h10.7l1.2,15.2ZM213.6,365.2l1.3,16.4h-7.8c-.3-1.7-.5-3.3-.8-5-.6-3.9-1.2-7.7-1.8-11.4h9.1ZM206.6,381.6h-5.1l-2.8-16.4h5.2c.8,5.1,1.7,10.7,2.6,16.4h0ZM207.2,385.5c.8,4.9,1.5,9.8,2.2,14.2h-4.9l-2.4-14.2h5ZM231.6,399.8l.5-14.2h5.2l-1.2,14.2h-4.4ZM232.9,361.3l.5-15.2h7.2l-1.3,15.2h-6.5ZM200.9,346.1c.2,1.1,1.2,7.1,2.4,15.2h-5.3l-2.5-15.2h5.4ZM240.6,399.8h-4.1l1.3-14.2h4.5l-1.7,14.2ZM245.1,361.3h-5.3l1.3-15.2h5.8l-1.8,15.2Z"/>
            <rect id="Rectangle_38" class="st1" x="616.8" y="62.3" width="11.3" height="45.2"/>
            <rect id="Rectangle_39" class="st1" x="633.5" y="72.2" width="11.3" height="35.4"/>
            <rect id="Rectangle_40" class="st1" x="650.4" y="80.3" width="11.3" height="27.3"/>
            <rect id="Rectangle_41" class="st1" x="666" y="91.4" width="11.3" height="16.2"/>
            <path id="Path_156" class="st33" d="M659.1,163.9c-15.8-14.6-40.3-13.8-55.1,1.9-14.6,15.5-13.9,40,1.7,54.6l.2.2c15.8,14.6,40.4,13.8,55.1-1.9,14.6-15.5,13.8-40-1.7-54.6,0,0-.1-.1-.2-.2M646.1,204.9c-7.1,7.5-18.8,7.9-26.3.9-7.5-6.9-7.9-18.6-1-26.1,0,0,0,0,0,0h0c7.1-7.5,18.8-7.9,26.3-1,7.5,6.9,7.9,18.6.9,26.1,0,0,0,0,0,0h0Z"/>
            <path id="Path_157" class="st7" d="M604,165.7c14.7-15.6,39.3-16.4,55.1-1.9l-13.9,14.8c-7.5-7-19.3-6.6-26.4.9-7,7.4-6.6,19.1.8,26.1,0,0,0,0,0,0,0,0,0,0,0,0l-13.9,14.8c-15.6-14.5-16.5-39-2-54.6,0,0,0-.1.1-.2"/>
            <path id="Path_158" class="st29" d="M657.5,157.5c19.2,17.9,21.5,46.9,3.6,66l-19.5-16.9c8.6-9.1,10.5-21.4,1.3-29.9l14.7-19.2Z"/>
            <path id="Path_159" class="st1" d="M132.4,227.9h104c1.8,0,3.2,1.4,3.2,3.2h0v24.7c0,1.8-1.4,3.2-3.2,3.2h-104c-1.8,0-3.2-1.4-3.2-3.2v-24.6c0-1.8,1.4-3.2,3.2-3.2"/>
            <path id="Path_160" class="st33" d="M147.2,237.7c3.7,0,6.8,3,6.8,6.7,0,3.7-3,6.8-6.7,6.8-3.7,0-6.8-3-6.8-6.7,0,0,0,0,0,0,0-3.7,3-6.8,6.7-6.8h0"/>
            <path id="Path_161" class="st1" d="M151,242.2c-1.1,1.4-2.3,2.7-3.6,3.9-.3.3-.6.6-.9.9l-.2.2-.2-.2c-1-.9-1.9-2-2.7-3.1,1.1.8,2.1,1.7,3.1,2.7h-.4l.9-.9c1.2-1.3,2.5-2.5,4-3.5"/>
            <path id="Path_162" class="st29" d="M228.8,241.1c0,.1-14.8.3-33.1.3s-33.1-.1-33.1-.3,14.8-.3,33.1-.3,33.1.1,33.1.3"/>
            <path id="Path_163" class="st29" d="M229.1,246.8c0,.1-14.8.3-33.1.3s-33.1-.1-33.1-.3,14.8-.3,33.1-.3,33.1.1,33.1.3"/>
            <path id="Path_164" class="st33" d="M577.9,250.9l-2,157h90.3v-154.9l-88.3-2.1Z"/>
            <path id="Path_165" class="st1" d="M626.5,252l-.8,155.8h40.4v-154.9l-39.6-1Z"/>
            <path id="Path_166" class="st1" d="M580.7,253.7v32.1h42.8v-30.6l-42.8-1.5Z"/>
            <path id="Path_167" class="st33" d="M595.4,262.5v4.8h13.1v-5.2l-13.1.4Z"/>
            <rect id="Rectangle_42" class="st33" x="595.4" y="271.2" width="13.5" height="1.9"/>
            <path id="Path_168" class="st1" d="M580.7,366.2v32.1h42.8v-30.6l-42.8-1.5Z"/>
            <path id="Path_169" class="st33" d="M595.4,375v4.8h13.1v-5.2l-13.1.4Z"/>
            <rect id="Rectangle_43" class="st33" x="595.4" y="383.8" width="13.5" height="1.9"/>
            <path id="Path_170" class="st1" d="M580.7,289.9v32.1h42.8v-30.6l-42.8-1.5Z"/>
            <path id="Path_171" class="st33" d="M595.4,298.7v4.8h13.1v-5.2l-13.1.4Z"/>
            <rect id="Rectangle_44" class="st33" x="595.4" y="307.4" width="13.5" height="1.9"/>
            <rect id="Rectangle_45" class="st1" x="580.1" y="328.3" width="42.8" height="32.1"/>
            <path id="Path_172" class="st33" d="M595.2,342.8v4.5h12.3v-4.9l-12.3.4Z"/>
            <rect id="Rectangle_46" class="st33" x="595.2" y="351" width="12.7" height="1.8"/>
            <path id="Path_173" class="st8" d="M669.6,406.5c0,.1-148.1.3-330.8.3s-330.8-.1-330.8-.3,148.1-.3,330.8-.3,330.8.1,330.8.3"/>
            <rect id="Rectangle_47" class="st29" x="190.7" y="40" width="267.3" height="175.4"/>
            <path id="Path_174" class="st8" d="M458,215.3c0-1.7,0-68.4-.2-175.4l.2.2H190.7l.3-.3v175.4l-.2-.2,267.3.2-267.3.2h-.2V39.6h267.6c0,0,.2,0,.2,0v.2c-.2,107-.3,173.7-.3,175.4"/>
            <path id="Path_175" class="st34" d="M272.4,136.8l26.3.4c-.2,14-12,25.4-26.3,25.4h-.2l.2-25.8Z"/>
            <path id="Path_176" class="st8" d="M315.9,172.4c-.2,0-.4,0-.6,0h-7.5c0,0,0,0,0,0h0c-2.4-3-5.4-6.8-8.7-11l-7-8.9h.1c0,0-7.7,0-7.7,0h-2.2c-.3,0-.5,0-.8,0,.3,0,.5,0,.8,0h9.9c0,0,0,0,0,0h0c0,0,7,8.9,7,8.9l8.6,11h-.1c0,0,5.9,0,5.9,0h1.6c.2,0,.4,0,.7,0"/>
            <path id="Path_177" class="st8" d="M325.3,175.4c0,.1-3.8.2-8.5.2s-8.5,0-8.5-.2,3.8-.2,8.5-.2,8.5,0,8.5.2"/>
            <path id="Path_178" class="st8" d="M325.3,178.6c0,.1-3.8.2-8.5.2s-8.5,0-8.5-.2,3.8-.2,8.5-.2c2.8,0,5.7,0,8.5.2"/>
            <path id="Path_179" class="st26" d="M268.2,133l-.4,25.8c-14.3-.2-25.9-11.8-25.9-25.8s11.9-25.8,26.3-25.8,26.3,11.6,26.3,25.8h-26.3Z"/>
            <path id="Path_180" class="st8" d="M258,124.6c-.1,0-.3,0-.5,0l-1.3.2-4.7.7h-.1c0,0-6.3-6.2-6.3-6.2-3-3-5.8-5.7-7.7-7.6l-2.3-2.3c-.3-.3-.6-.6-.8-.9.3.2.6.5.9.8l2.4,2.2c2,1.9,4.8,4.6,7.8,7.6l6.2,6.2h-.1l4.7-.5h1.3c.2-.2.3-.2.5-.2"/>
            <path id="Path_181" class="st8" d="M227.6,107.4c0,.1-3.8.2-8.5.2s-8.5,0-8.5-.2,3.8-.2,8.5-.2,8.5,0,8.5.2"/>
            <path id="Path_182" class="st8" d="M227.6,110.5c0,.1-3.8.2-8.5.2s-8.5,0-8.5-.2,3.8-.2,8.5-.2,8.5,0,8.5.2"/>
            <path id="Path_183" class="st10" d="M360.2,82.1v-16c-5,0-9.7,1.9-13.3,5.2-4.7,4.1-7.1,10.4-6.4,16.6,0,.8.2,1.6.4,2.3,0,0,0,0,0,0l19.3-4.3v-3.8Z"/>
            <path id="Path_185" class="st26" d="M380.1,77.2c-2.9-6.2-8.8-10.3-15.6-10.9h-.6c0,0-1.7,0-1.7,0v16c.1,0,.1,3.8.1,3.8l19.4,4.2c.3-1.4.4-2.8.4-4.2,0-3.1-.7-6.1-2.1-8.8"/>
            <path id="Path_187" class="st34" d="M361.3,87.9l-19.3,4.3c2.4,10.7,13,17.4,23.7,15,7.5-1.7,13.4-7.6,15-15.1l-19.3-4.2"/>
            <path id="Path_188" class="st8" d="M436.5,85c0,.1-10,.3-22.3.3s-22.3-.1-22.3-.3,10-.3,22.3-.3,22.3.1,22.3.3"/>
            <path id="Path_189" class="st8" d="M436.5,79.9c0,.1-10,.3-22.3.3s-22.3-.1-22.3-.3,10-.3,22.3-.3,22.3.1,22.3.3"/>
            <path id="Path_190" class="st8" d="M436.5,74.8c0,.1-10,.3-22.3.3s-22.3-.1-22.3-.3,10-.3,22.3-.3,22.3.1,22.3.3"/>
            <path id="Path_191" class="st8" d="M436.5,89.7c0,.1-10,.3-22.3.3s-22.3-.1-22.3-.3,10-.3,22.3-.3,22.3.2,22.3.3"/>
            <path id="Path_192" class="st8" d="M422.6,94.8c0,.2-6.9.3-15.3.3s-15.3-.1-15.3-.3,6.9-.3,15.3-.3,15.3.1,15.3.3"/>
            <rect id="Rectangle_50" class="st26" x="345.1" y="131.7" width="4.6" height="51.3"/>
            <rect id="Rectangle_51" class="st26" x="353.9" y="149.1" width="4.6" height="33.9"/>
            <rect id="Rectangle_52" class="st26" x="362.8" y="138" width="4.6" height="45.2"/>
            <rect id="Rectangle_53" class="st26" x="371.7" y="133.6" width="4.6" height="49.3"/>
            <rect id="Rectangle_54" class="st26" x="380.5" y="150.1" width="4.6" height="32.8"/>
            <rect id="Rectangle_55" class="st26" x="389.4" y="156.6" width="4.6" height="26.4"/>
            <rect id="Rectangle_56" class="st26" x="398.3" y="136.9" width="4.6" height="46"/>
            <rect id="Rectangle_57" class="st26" x="407.2" y="145.2" width="4.6" height="37.7"/>
            <rect id="Rectangle_58" class="st26" x="416" y="138.6" width="4.6" height="44.4"/>
            <rect id="Rectangle_59" class="st26" x="424.9" y="152.7" width="4.6" height="30.2"/>
            <rect id="Rectangle_60" class="st26" x="433.8" y="147" width="4.6" height="36"/>
            <path id="Path_193" class="st8" d="M440.2,186.5c0,.1-21.8.2-48.7.2s-48.7,0-48.7-.2,21.8-.2,48.7-.2,48.7,0,48.7.2"/>
            <path id="Path_194" class="st8" d="M351.6,190.6c-2.3.2-4.6.2-6.8,0,2.3-.3,4.6-.3,6.8,0"/>
            <path id="Path_195" class="st8" d="M362.9,190.8c-2.7.3-5.4.3-8.1,0,2.7-.3,5.4-.3,8.1,0"/>
            <path id="Path_196" class="st8" d="M372.6,190.8c-2.7.3-5.4.3-8.1,0,2.7-.3,5.4-.3,8.1,0"/>
            <path id="Path_197" class="st8" d="M382.2,190.8c-2.7.3-5.4.3-8.1,0,2.7-.3,5.4-.3,8.1,0"/>
            <path id="Path_198" class="st8" d="M391.9,190.8c-2.7.3-5.4.3-8.1,0,2.7-.3,5.4-.3,8.1,0"/>
            <path id="Path_199" class="st8" d="M401.5,190.8c-2.7.3-5.4.3-8.1,0,2.7-.3,5.4-.3,8.1,0"/>
            <path id="Path_200" class="st8" d="M411.2,190.8c-2.7.3-5.4.3-8.1,0,2.7-.3,5.4-.3,8.1,0"/>
            <path id="Path_201" class="st8" d="M420.8,190.8c-2.7.3-5.4.3-8.1,0,2.7-.3,5.4-.3,8.1,0"/>
            <path id="Path_202" class="st8" d="M430.5,190.8c-2.7.3-5.4.3-8.1,0,2.7-.3,5.4-.3,8.1,0"/>
            <path id="Path_203" class="st8" d="M440.1,190.8c-2.7.3-5.4.3-8.1,0,2.7-.3,5.4-.3,8.1,0"/>
            <g id="Group_55" class="st31">
              <g id="Group_54">
                <g>
                  <rect class="st26" x="353.9" y="149.1" width="4.6" height="33.9"/>
                  <g class="st20">
                    <g id="Group_53">
                      <rect id="Rectangle_61" class="st26" x="353.9" y="149.1" width="4.6" height="33.9"/>
                    </g>
                  </g>
                </g>
              </g>
            </g>
            <g id="Group_58" class="st31">
              <g id="Group_57">
                <g>
                  <rect class="st26" x="371.7" y="133.6" width="4.6" height="49.3"/>
                  <g class="st18">
                    <g id="Group_56">
                      <rect id="Rectangle_63" class="st26" x="371.7" y="133.6" width="4.6" height="49.3"/>
                    </g>
                  </g>
                </g>
              </g>
            </g>
            <g id="Group_61" class="st31">
              <g id="Group_60">
                <g>
                  <rect class="st26" x="389.4" y="156.6" width="4.6" height="26.4"/>
                  <g class="st19">
                    <g id="Group_59">
                      <rect id="Rectangle_65" class="st26" x="389.4" y="156.6" width="4.6" height="26.4"/>
                    </g>
                  </g>
                </g>
              </g>
            </g>
            <g id="Group_64" class="st31">
              <g id="Group_63">
                <g>
                  <rect class="st26" x="407.2" y="145.2" width="4.6" height="37.7"/>
                  <g class="st25">
                    <g id="Group_62">
                      <rect id="Rectangle_67" class="st26" x="407.2" y="145.2" width="4.6" height="37.7"/>
                    </g>
                  </g>
                </g>
              </g>
            </g>
            <g id="Group_67" class="st31">
              <g id="Group_66">
                <g>
                  <rect class="st26" x="424.9" y="152.7" width="4.6" height="30.2"/>
                  <g class="st22">
                    <g id="Group_65">
                      <rect id="Rectangle_69" class="st26" x="424.9" y="152.7" width="4.6" height="30.2"/>
                    </g>
                  </g>
                </g>
              </g>
            </g>
            <path id="Path_204" class="st26" d="M223.2,72.9c0,2.4-2,4.4-4.4,4.4s-4.4-2-4.4-4.4c0-2.4,2-4.4,4.4-4.4h0c2.4,0,4.4,2,4.4,4.4"/>
            <path id="Path_205" class="st26" d="M299.2,69.4c0,.2-14.9.3-33.3.3s-33.3-.1-33.3-.3,14.9-.3,33.3-.3,33.3.1,33.3.3"/>
            <path id="Path_206" class="st26" d="M259.3,74.8c-.3,0-.7.1-1,0h-2.8c-2.4,0-5.7.2-9.3.2s-6.9,0-9.3,0h-2.8c-.3,0-.7-.1-1-.2.3,0,.7-.1,1,0,.7,0,1.6,0,2.8,0,2.4,0,5.6,0,9.3,0s6.9,0,9.3,0c1.2,0,2.1,0,2.8,0,.3,0,.7,0,1,0"/>
            <rect id="Rectangle_71" class="st29" x="45.3" y="55.8" width="139.9" height="159.7"/>
            <path id="Path_207" class="st8" d="M185.3,215.5v-11.6c0-7.5,0-18.6,0-32.6,0-28,0-67.9-.1-115.5l.2.2H45.4l.3-.3v159.7l-.2-.2h101.3c0,.1,28.4.2,28.4.2h0-28.3c0,0-101.6.2-101.6.2h-.2V55.6h140.4v.2c0,47.7,0,87.6-.1,115.7,0,14,0,25,0,32.5v10.8c0,.2,0,.5,0,.7"/>
            <path id="Path_208" class="st26" d="M173.2,137.4c0,.1-1.6-.8-4.5-1.7-4.2-1.3-8.6-1.6-12.9-1-3,.5-5.8,1.4-8.5,2.7-3,1.6-5.9,3.6-8.4,6-2.7,2.4-5.5,5.2-8.6,7.7-3.2,2.7-7,4.8-11,5.9-2.1.6-4.3.7-6.4.4-2.1-.3-4.1-.9-5.9-1.8-3.4-1.8-6.8-3.8-10-5.9-2.9-1.9-6-3.3-9.4-4.2-2.9-.7-5.9-.9-8.9-.7-4.4.4-8.6,1.7-12.3,4-2.6,1.6-3.9,2.8-4,2.7.3-.3.6-.6.9-.9.9-.8,1.8-1.5,2.9-2.2,6.4-4.1,14.2-5.5,21.6-3.8,3.4.9,6.7,2.3,9.6,4.2,3.2,2.1,6.5,4.1,9.9,5.8,3.6,1.9,7.8,2.3,11.7,1.4,3.9-1.1,7.6-3.1,10.8-5.7,3.1-2.5,5.8-5.2,8.6-7.6,2.6-2.4,5.5-4.4,8.6-6.1,6.8-3.4,14.7-3.9,21.9-1.4,1.1.4,2.2.9,3.3,1.4.4.2.7.4,1.1.6"/>
            <g>
              <rect id="Rectangle_72" class="st10" x="83.9" y="158.8" width="11.9" height="32.2"/>
              <rect id="Rectangle_73" class="st10" x="134.3" y="158.8" width="11.9" height="32.2"/>
              <rect id="Rectangle_74" class="st10" x="151.2" y="139.9" width="11.9" height="51.1"/>
              <rect id="Rectangle_75" class="st10" x="68.5" y="180.9" width="11.9" height="10.8"/>
              <rect id="Rectangle_76" class="st10" x="100.7" y="173.3" width="11.9" height="17.6"/>
              <rect id="Rectangle_77" class="st10" x="117.5" y="169.3" width="11.9" height="21.7"/>
            </g>
            <path id="Path_209" class="st8" d="M96.2,194.8c0,.3-2.9.5-6.4.5s-6.4-.2-6.4-.5,2.9-.5,6.4-.5,6.4.2,6.4.5"/>
            <path id="Path_210" class="st8" d="M81.4,194.8c0,.3-2.9.5-6.4.5s-6.4-.2-6.4-.5,2.9-.5,6.4-.5,6.4.2,6.4.5"/>
            <path id="Path_211" class="st8" d="M165.4,194.8c0,.3-3.2.5-7.3.5s-7.3-.2-7.3-.5,3.2-.5,7.3-.5,7.3.2,7.3.5"/>
            <path id="Path_212" class="st8" d="M140.5,194.3c4,0,7.3.2,7.3.5s-3.2.5-7.3.5-7.3-.2-7.3-.5,3.2-.5,7.3-.5"/>
            <path id="Path_213" class="st8" d="M129.4,194.8c0,.3-2.9.5-6.4.5s-6.4-.2-6.4-.5,2.9-.5,6.4-.5,6.4.2,6.4.5"/>
            <path id="Path_214" class="st8" d="M112,194.8c0,.3-2.9.5-6.4.5s-6.4-.2-6.4-.5,2.9-.5,6.4-.5,6.4.2,6.4.5"/>
            <rect id="Rectangle_78" class="st1" x="68.2" y="79.1" width="97.2" height="40.4"/>
            <path id="Path_215" class="st8" d="M88.4,91.9c0,2.5-2,4.5-4.5,4.5s-4.5-2-4.5-4.5,2-4.5,4.5-4.5h0c2.5,0,4.5,2,4.5,4.5"/>
            <rect id="Rectangle_79" class="st8" x="92.9" y="88.7" width="31.6" height="1.8"/>
            <rect id="Rectangle_80" class="st27" x="92.9" y="92.7" width="61.4" height="1.8"/>
            <path id="Path_216" class="st26" d="M88.4,105.8c0,2.5-2,4.5-4.5,4.5s-4.5-2-4.5-4.5,2-4.5,4.5-4.5h0c2.5,0,4.5,2,4.5,4.5,0,0,0,0,0,0h0"/>
            <rect id="Rectangle_81" class="st26" x="92.9" y="102.7" width="16.1" height="1.8"/>
            <rect id="Rectangle_82" class="st27" x="92.9" y="106.7" width="61.4" height="1.8"/>
            <rect id="Rectangle_83" class="st29" x="471.1" y="27.2" width="153.6" height="175.4"/>
            <path id="Path_217" class="st8" d="M624.8,202.5v-12.7c0-8.3,0-20.4,0-35.8,0-30.8,0-74.6-.1-126.8l.2.2h-153.6l.3-.3c0,64.7,0,124.9,0,175.4l-.2-.2h111.5c0,.1,31.2.2,31.2.2h0l-31.1.2h-111.6c0,.1-.2.1-.2.1V26.9h154.1v.2c0,52.4,0,96.2-.1,127,0,15.4,0,27.5,0,35.7v11.8c0,.3-.1.5-.2.8"/>
            <rect id="Rectangle_84" class="st1" x="483.4" y="41.2" width="124.5" height="99.8"/>
            <rect id="Rectangle_85" class="st8" x="492.1" y="123.3" width="4.1" height="1.2"/>
            <rect id="Rectangle_86" class="st8" x="501.4" y="129.6" width="5.2" height="1.2"/>
            <rect id="Rectangle_87" class="st8" x="519.6" y="129.6" width="5.2" height="1.2"/>
            <rect id="Rectangle_88" class="st8" x="537.8" y="129.6" width="5.2" height="1.2"/>
            <rect id="Rectangle_89" class="st8" x="555.9" y="129.6" width="5.2" height="1.2"/>
            <rect id="Rectangle_90" class="st8" x="574.1" y="129.6" width="5.2" height="1.2"/>
            <rect id="Rectangle_91" class="st8" x="592.3" y="129.6" width="5.2" height="1.2"/>
            <rect id="Rectangle_92" class="st8" x="492.1" y="107.6" width="4.1" height="1.2"/>
            <rect id="Rectangle_93" class="st8" x="492.1" y="78" width="4.1" height="1.2"/>
            <rect id="Rectangle_94" class="st8" x="492.1" y="63.1" width="4.1" height="1.2"/>
            <rect id="Rectangle_95" class="st8" x="492.3" y="92.8" width="4.1" height="1.2"/>
            <path id="Path_218" class="st8" d="M597.4,124.5c-.1,0-.3,0-.4,0h-24.5c0,0-60,.2-60,.2h-14.4v-.3c0-20,0-37.7,0-50.3,0-6.3,0-11.4,0-14.9v-5c0-.1,0-.2,0-.3,0,.1,0,.2,0,.3v5c0,3.5,0,8.6,0,14.9,0,12.7,0,30.3,0,50.3l-.3-.2h74.2c0,0,18.2.2,18.2.2h5c0,0,1.3,0,1.3,0h.5Z"/>
            <path id="Path_219" class="st8" d="M598.5,93.4c0,.1-21.5.3-48.1.3s-48.1-.1-48.1-.3,21.5-.3,48.1-.3,48.1.1,48.1.3"/>
            <path id="Path_220" class="st8" d="M598.5,78.6c0,.2-21.5.3-48.1.3s-48.1-.1-48.1-.3,21.5-.3,48.1-.3,48.1,0,48.1.3"/>
            <path id="Path_221" class="st8" d="M598.5,63.7c0,.2-21.5.3-48.1.3s-48.1-.1-48.1-.3,21.5-.3,48.1-.3,48.1.1,48.1.3"/>
            <path id="Path_222" class="st8" d="M598.5,108.1c0,.2-21.5.3-48.1.3s-48.1-.1-48.1-.3,21.5-.3,48.1-.3,48.1.1,48.1.3"/>
            <path id="Path_223" class="st34" d="M503.3,121.3v-13.1l8.2-12.7,5.6,4.3,11.4-17.7,6.7,4.7,9.3-16.3,7.6,6.2,11.4-21.7,12.3,24.2,9.9-12.1,11.7-3.3v57.6h-94.1Z"/>
            <path id="Path_224" class="st26" d="M598.5,59h-12.2c0,0,.1,0,.1,0l-9.6,12.6h0c0,0-24.1,0-24.1,0h.2c-3.2,5.1-6.6,10.9-10.1,16.7l-9.9,16.5-.2.3-.2-.3c-4.7-6.5-9.1-12.6-13-17.9h.3l-12,18.6-3.3,5.1-.9,1.3c-.2.3-.3.4-.3.4,0-.2.2-.3.3-.5l.8-1.4,3.2-5.2,11.7-18.6.2-.3.2.3,13,17.9h-.4l9.9-16.5,10.1-16.8h0c0-.1,24.2-.1,24.2-.1h-.2c0,0,9.7-12.4,9.7-12.4h0c0,0,0,0,0,0h9c0,0,3,0,3,0h.3Z"/>
            <path id="Path_225" class="st26" d="M523.5,91.2c0,.5-.4.9-.9,1-.5,0-.9-.4-1-.9,0-.5.4-.9.9-1h0c.5,0,.9.4.9.9Z"/>
            <path id="Path_226" class="st26" d="M551.3,75.4c0,.5-.4,1-.9,1-.5,0-1-.4-1-.9,0-.5.4-1,.9-1h0c.5,0,.9.4.9.9"/>
            <path id="Path_227" class="st26" d="M572.8,71.6c0,.5-.4.9-.9,1-.5,0-.9-.4-1-.9,0-.5.4-.9.9-1h0c.5,0,.9.4.9.9h0Z"/>
            <path id="Path_228" class="st8" d="M602.3,155.9c0,.1-26.3.3-58.7.3s-58.7-.1-58.7-.3,26.3-.3,58.7-.3,58.7.1,58.7.3"/>
            <path id="Path_229" class="st8" d="M602.3,162.2c0,.1-26.3.3-58.7.3s-58.7-.1-58.7-.3,26.3-.3,58.7-.3,58.7.1,58.7.3"/>
            <path id="Path_230" class="st8" d="M602.3,168.6c0,.1-26.3.3-58.7.3s-58.7-.1-58.7-.3,26.3-.3,58.7-.3,58.7,0,58.7.3"/>
            <path id="Path_231" class="st8" d="M602.3,174.9c0,.1-26.3.3-58.7.3s-58.7-.1-58.7-.3,26.3-.3,58.7-.3,58.7.1,58.7.3"/>
            <path id="Path_232" class="st8" d="M556,172.4c3.2-5.4,4.2-12.6,5-18.8.4-2.9,1.1-7.1-1-8.9s-2.4-5-4.9-6.5c-2.6-1.6-5.8-1.6-8.4,0"/>
            <path id="Path_233" class="st6" d="M547.1,191.5h0c-4.8.4-8.9-3.2-9.3-8,0-.1,0-.2,0-.3-.2-4.7-.3-9.5-.3-9.5,0,0-7.1-.7-7.7-7.7s-.3-23.4-.3-23.4c8-4,17.5-3.4,24.9,1.6l-.4,24.9v13.4c0,4.5-2.4,8.7-6.9,9"/>
            <path id="Path_234" class="st8" d="M536.8,157.4c1.1-1.6,3.2-2,4.8-1.1,1.6,1.1,2.2,3.3,1.4,5.1-.7,1.3-2,2.3-3.5,2.6-1.3.3-2.3,1.6-2.1,2.9.2,1.8,3.2,2.4,4.5,3.9,2.1,2.3,6.6,3.2,9.7,3.6s2.6.4,4.4-2.1c1.2-1.7,1.8-3.7,1.7-5.7l.3-15.6c.1-1.9,0-3.8-.4-5.6-.4-1.9-1.4-3.5-3-4.6-1.7-1.1-3.9-1.2-5.8-1.9-2.5-.8-4.5-2.4-6.8-3.6s-5.1-1.9-7.4-.7c-1.6.8-2.8,2.5-4.4,3.4-2.3,1.3-5.4,1-6.5,4.4-.4,1.2-.4,2.4,0,3.6,1.5,4.6,7.2,6.4,11.3,4.4,0,.8-.7,2.5.1,4.9.3.8.4,2,1.6,2"/>
            <path id="Path_235" class="st9" d="M538.1,161.8c.2.2.6.3.9.3.8-.2,1.3-.8,1.3-1.6,0-.8-.5-1.5-1.2-1.8-.6-.2-1-.1-1-.2s.4-.3,1.1-.2c.4,0,.8.3,1.1.6.4.4.6,1,.5,1.5,0,1.1-.8,1.9-1.8,2-.3,0-.6-.2-.8-.4-.2-.2-.2-.4-.1-.4"/>
            <path id="Path_236" class="st34" d="M545.4,140.4c.2-.2.4-.4.6-.6.6-.4,1.4-.7,2.1-.8,1.2-.2,2.3,0,3.4.5,1.3.6,2.4,1.6,3.1,2.8,1.3,2.2,2,4.6,2.2,7.2.1,1,.2,2.1.2,3.1-.3-1-.5-2-.6-3-.2-2.4-1-4.8-2.3-6.9-.7-1.1-1.7-2-2.9-2.6-1.9-1-4.2-.8-5.9.5h0Z"/>
            <path id="Path_237" class="st34" d="M525.5,147.7c0,0-.2,0-.3,0-.3,0-.5-.2-.7-.3-.3-.2-.6-.6-.8-.9-.3-.5-.3-1.1-.2-1.6.2-.7.6-1.3,1.1-1.6.7-.4,1.5-.5,2.2-.4.8,0,1.5-.1,2.1-.5.6-.6,1.2-1.2,1.7-1.9,1.2-1.3,2.7-2.1,4.4-2.5,1.4-.3,2.8-.4,4.1-.1.9.2,1.8.5,2.6,1,.3.2.6.4.8.6-1.1-.6-2.3-1-3.5-1.3-1.3-.2-2.7-.2-4,.2-1.6.4-3,1.2-4.1,2.4-.5.7-1.2,1.3-1.8,1.9-.4.3-.8.5-1.2.6-.4,0-.8,0-1.2,0-.7,0-1.4,0-2,.3-.5.3-.9.8-1,1.4-.2.9.1,1.8.8,2.3.3.2.6.4.9.5"/>
            <path id="Path_238" class="st34" d="M544.4,167.4c0,0,.3-.2.9-.6.8-.6,1.5-1.3,1.9-2.2.7-1.3.8-2.8.3-4.1-.3-.8-.7-1.5-1.3-2.1-.7-.6-1.4-1.2-2.2-1.6-.8-.5-1.7-.9-2.4-1.4-.8-.5-1.4-1.1-2-1.9-.9-1.2-1.5-2.7-1.7-4.2-.1-1,0-2,.2-3,0-.3.2-.5.3-.8,0-.2.1-.3.1-.2-.3,1.3-.4,2.7-.3,4,.2,1.4.8,2.8,1.7,3.9.5.7,1.2,1.2,1.9,1.7.7.5,1.6.9,2.4,1.4.8.5,1.6,1,2.3,1.7.6.7,1.1,1.5,1.4,2.3.5,1.5.3,3.1-.5,4.5-.5.9-1.2,1.6-2.1,2.1-.3.2-.6.3-1,.4"/>
            <path id="Path_239" class="st34" d="M556.7,157c-.3.1-.6.2-.9.2-.8.1-1.7.1-2.5,0-2.8-.2-5.5-1.1-7.9-2.7-2.4-1.5-4.2-3.8-5.2-6.5-.2-.8-.3-1.7,0-2.6,0-.3.2-.6.3-.9-.3,1.1-.2,2.2.1,3.3,1,2.6,2.8,4.7,5.1,6.2,2.3,1.5,4.9,2.5,7.6,2.8,2.1.2,3.4,0,3.4,0"/>
            <path id="Path_240" class="st8" d="M557.8,152.1c2.4-2.9,6-4.5,9.8-4.4,3.7.2,7.3,2.8,8.2,6.3.7,2.7-.1,5.5-.5,8.3s0,6,2.2,7.6c1.4,1,3.1,1.2,4.7,1.6s3.4,1.2,3.9,2.8c.6,1.8-.7,3.9-2.4,4.6-1.8.6-3.8.7-5.7,0,.8,2.1-.1,4.5-2.1,5.7-2,1-4.4.9-6.3-.3-1.9-1.2-3.2-3.1-3.8-5.2-1.2,2.1-4.4,2.6-6.4,1.2-2-1.5-3-4-2.6-6.5.4-2.4,1.6-4.7,3.3-6.5.9-.9,1.6-1.9,2.3-2.9.6-1.1.7-2.4.1-3.5-.6-1-1.9-1.4-2.9-.8,0,0,0,0,0,0,0,0-.2.1-.2.2"/>
            <path id="Path_241" class="st26" d="M562.1,159.6c-.7.3-1.5.3-2.1,0-1.7-.7-2.8-2.2-3.1-4-.2-1,0-2,.3-2.9.3-.7.8-1.4,1.4-1.9.5-.5,1.1-.9,1.9-1-.6.4-1.1.8-1.6,1.3-1.2,1.2-1.7,2.8-1.4,4.4.2,1.6,1.2,3,2.7,3.8.6.2,1.3.3,2,.3"/>
            <path id="Path_242" class="st9" d="M537.2,173.6c-.5,0-1.1,0-1.6-.2-2.6-.7-4.7-2.6-5.7-5.1-.2-.5-.4-1-.4-1.6.3.5.5.9.7,1.4.6,1.1,1.3,2.2,2.3,3,.9.8,2,1.5,3.2,1.9.5.1,1,.3,1.5.5"/>
            <path id="Path_243" class="st34" d="M564.4,179.4h-.3c-.3,0-.6-.2-.9-.4-1-.7-1.7-1.8-2-3.1-.2-.8-.2-1.7,0-2.6.2-1,.5-1.9.9-2.8.9-1.9,2.3-3.6,3.3-5.7.5-1,.8-2.1,1-3.1.4-2.8-1.2-5.6-3.9-6.6-1.1-.4-2.3-.5-3.5-.2-.8.2-1.2.4-1.3.4s0,0,.3-.2c.3-.1.6-.3.9-.4,3.1-.9,6.4.8,7.6,3.8.4,1,.5,2.1.4,3.2-.2,1.2-.5,2.3-1.1,3.3-1.1,2.1-2.5,3.9-3.4,5.7-.9,1.5-1.2,3.3-.9,5.1.2,1.2.8,2.2,1.8,3,.4.2.8.4,1.2.5"/>
            <path id="Path_244" class="st34" d="M575.1,184.6c-.1,0-.3,0-.4,0-.4,0-.9,0-1.3-.2-1.5-.5-2.8-1.5-3.7-2.9-1.2-2-1.8-4.4-1.6-6.7.3-2.8.7-5.6,1.4-8.4.3-1.4.4-2.9.3-4.3,0-1.3-.4-2.6-.9-3.9-.9-2.1-2.8-3.7-5-4.1-1.5-.3-3.1-.3-4.6,0-1.1.2-1.6.5-1.6.4s.1,0,.4-.2c.4-.2.8-.3,1.2-.4,1.5-.4,3.1-.5,4.7-.2,1.1.2,2.1.7,3,1.3,1,.8,1.8,1.8,2.3,3,.6,1.3.9,2.6,1,4,0,1.5,0,3-.3,4.4-.6,2.7-1.1,5.5-1.4,8.3-.2,2.3.3,4.5,1.4,6.5.8,1.3,2,2.3,3.4,2.9.5.2,1.1.3,1.6.4"/>
            <path id="Path_245" class="st6" d="M577.2,216.8l-15,11.7,6.3,10.4,18.1-13.4-9.4-8.8Z"/>
            <path id="Path_246" class="st6" d="M536.9,177.3s0-1.3-3.2-1.4c-1.2-.1-2.4-.1-3.6-.1-.7-.9-1.3-1.9-1.6-3,0-1.1.3-2.1.7-3.1l3.3-.3-.9-2.3-2.4.2-6.6.8-2.6,11.6-18.1,33.7c-2.7,4-1.6,9.4,2.4,12.1.3.2.7.4,1,.6,4.7,2.3,10.9-2.5,12.7-7.4l10-37.5,3.5-2.7,5-.9"/>
            <path id="Path_247" class="st6" d="M495.8,401.6l24.5-141.4c0-.2.1-.4.2-.6,4.2-16.6,10.6-21.9,10.6-21.9l37.6,2.4c3.2,5.8,3.6,19.5,3.6,19.5.4,1.7-8,138.7-8,138.7l-12.6-.4-6.8-129.6-36.6,133.9-12.6-.5Z"/>
            <path id="Path_248" class="st26" d="M495.5,402.9v-1.3s13,.4,13,.4v4.2h-.9c-3.6,0-18.1.2-20.5-.5-2.6-.8,8.4-2.8,8.4-2.8"/>
            <g id="Group_70" class="st3">
              <g id="Group_69">
                <g class="st21">
                  <g id="Group_68">
                    <path id="Path_249" class="st27" d="M503.7,406c.2-1,.9-1.9,1.7-2.5.9-.6,1.9-.9,3-.8v3.4c-.1,0-4.7,0-4.7,0Z"/>
                  </g>
                </g>
              </g>
            </g>
            <g id="Group_73" class="st3">
              <g id="Group_72">
                <g class="st24">
                  <g id="Group_71">
                    <path id="Path_250" class="st27" d="M490.1,404s-3.9.9-3.4,1.5,15.2,1,21.7.6v-.3l-17.2-.3s-.4-1.5-1.1-1.6"/>
                  </g>
                </g>
              </g>
            </g>
            <path id="Path_251" class="st8" d="M508.5,405.9h-3.2c-2,0-4.7,0-7.7,0s-5.8-.2-7.7-.3h-2.3c0-.1,0-.1,0-.1h2.3c2,.2,4.7.3,7.7.4s5.8.1,7.7.1h3.2,0Z"/>
            <path id="Path_252" class="st8" d="M491.2,405.8c-.1-.8-.6-1.4-1.2-1.9.4.1.7.4.9.8.2.3.3.7.3,1.1"/>
            <path id="Path_253" class="st8" d="M495,404.1c-.1-.1-.3-.3-.4-.5-.2-.3-.3-.5-.3-.5s.2.2.4.5.3.5.3.5"/>
            <path id="Path_254" class="st8" d="M496.1,403.6c-.2,0-.3-.2-.5-.3-.2-.2-.4-.4-.3-.4.2,0,.3.2.5.3.2.2.4.4.3.4"/>
            <path id="Path_255" class="st8" d="M496.8,402.5c-.2,0-.4,0-.7,0-.2,0-.5,0-.7,0,.2,0,.4,0,.7,0,.2,0,.5,0,.7,0"/>
            <path id="Path_256" class="st8" d="M497,401.7c-.2.1-.5.2-.8.2-.3,0-.5,0-.8-.1.3,0,.5,0,.8,0,.3,0,.5,0,.8,0"/>
            <path id="Path_257" class="st8" d="M494.6,403.1c-.3,0-.5,0-.8,0-.3,0-.6-.1-.9-.2-.2,0-.3-.1-.5-.2,0,0-.2-.1-.2-.2,0-.1,0-.2.1-.3.7-.3,1.4,0,1.9.5.1.2.2.3.3.5v.2c0-.2-.2-.5-.3-.7-.2-.2-.4-.4-.7-.4-.3-.1-.7-.1-1,0-.1,0,0,.2,0,.3.1,0,.3.1.5.2.3,0,.6.2.9.2.5.1.8.1.8.1"/>
            <path id="Path_258" class="st8" d="M494.4,403.1c0-.2-.1-.4,0-.5,0-.2.1-.4.2-.6.2-.2.4-.4.7-.4.2,0,.3.2.2.4,0,.1,0,.2-.1.3-.1.2-.3.3-.4.5-.1.1-.3.2-.5.3,0,0,.2-.1.4-.4.1-.1.3-.3.4-.5.1-.2.2-.5,0-.5-.2,0-.4.1-.5.3-.1.1-.2.3-.2.5,0,.2,0,.3,0,.5"/>
            <path id="Path_259" class="st8" d="M508.4,402.6h-1c-.8,0-1.5.3-2.1.7-.6.4-1.1,1-1.4,1.7-.2.5-.2.9-.3.8,0,0,0-.2,0-.2,0-.2,0-.4.2-.6.3-.7.7-1.3,1.4-1.8.6-.4,1.4-.7,2.2-.7.2,0,.5,0,.7,0,.1,0,.2,0,.3.1"/>
            <path id="Path_260" class="st8" d="M502.1,404.8c-.6.1-1.3.2-1.9.1-.6,0-1.3,0-1.9-.2,0,0,.9,0,1.9,0,.6,0,1.3,0,1.9,0"/>
            <path id="Path_261" class="st8" d="M504.6,404.8s0,.2-.2.3-.1.3-.2.3,0-.2,0-.4.3-.3.4-.3"/>
            <path id="Path_262" class="st8" d="M505.6,403.8c0,.1-.1.2-.2.3-.1.1-.3.2-.3.2s0-.1.2-.3.3-.2.3-.2"/>
            <path id="Path_263" class="st8" d="M507,403.3c-.1,0-.3,0-.4,0-.2,0-.3.1-.4.1s0-.2.3-.3.4,0,.4,0"/>
            <path id="Path_264" class="st8" d="M507.9,403.1c0,0-.1.1-.2.1,0,0-.1,0-.2,0,0,0,0-.1.2-.1.1,0,.2,0,.2,0"/>
            <path id="Path_265" class="st8" d="M558.7,181.3c3.6.6,7,1.9,10,3.9,11.9,7.7,31.8,24,30.1,31.6-1.4,6.4-17,14.2-17,14.2l-10-12.1,6.2-3.5-15.2-10.1-4.1-24Z"/>
            <path id="Path_266" class="st8" d="M565.4,205.8l-.5,1.8-1.7,8.4-.4,12.2c9,11.6,9.2,21.4,9.2,21.4l-45.6,5.3c0-9,3.3-20.3,3.3-20.3,2.6-4.5,2.5-17.9,2-18.3-2.8-2.8-3.5-4.9-1.3-8.5,0,0-14.1,14.8-15.6,16.2-5,4.6-9.8,3.3-12,1.3-6.2-5.6.2-12.8.2-12.8l23.8-27.3c1.6-1.9,3.8-3.2,6.2-3.8,1.7-.4,3.4-.7,5.1-.9h15.9c1.6.2,3.2.4,4.7.7,3.6,1.5,6.3,4.7,6.9,8.6,1.4,6.8-.2,15.9-.2,15.9"/>
            <path id="Path_267" class="st34" d="M565.9,194.9c0,.4.1.9,0,1.3,0,.9,0,2.1,0,3.6-.3,4-.8,7.9-1.6,11.8-.3,1.6-.6,3.1-.9,4.4h0c-.1,3.5-.3,6.6-.4,8.7,0,1-.1,1.9-.2,2.5,0,.3,0,.6-.1.9,0-.3,0-.6,0-.9v-2.6c0-2.2.1-5.2.2-8.8h0c.3-1.4.6-2.9.9-4.5.9-4.5,1.4-8.7,1.7-11.7.1-1.5.2-2.7.2-3.6,0-.4,0-.9.1-1.3"/>
            <path id="Path_268" class="st34" d="M566.1,207.2c5.6,3.5,11.1,7.3,16.3,11.3-2.9-1.7-5.6-3.5-8.3-5.4-2.8-1.8-5.5-3.8-8-5.9"/>
            <path id="Path_269" class="st34" d="M536.6,189.3c0,0,.2.1.2.2.2.2.4.4.6.6.6.8,1,1.8,1.2,2.8.3,1.5.2,3.1-.3,4.6-.6,1.8-1.5,3.5-2.6,5-.6.8-1.2,1.5-1.9,2.2-.7.7-1.4,1.2-2,1.8-1.3,1.1-2.3,2.2-3.2,3.1s-1.6,1.7-2.1,2.2-.8.8-.8.8c.2-.3.4-.6.7-.9.4-.6,1.1-1.4,2-2.3s1.9-2,3.2-3.2c.6-.6,1.3-1.1,2-1.8.7-.7,1.3-1.4,1.8-2.2,1.1-1.5,1.9-3.1,2.5-4.8.5-1.4.6-2.9.4-4.4-.3-1.4-.9-2.6-1.7-3.7"/>
            <path id="Path_270" class="st34" d="M531.3,229.6l.5-6.1h31.1l-.2,4.8-31.4,1.3Z"/>
            <path id="Path_271" class="st34" d="M504.8,211.3c-.6.6-1.2,1.2-1.7,1.8-2.6,3.2-2.4,7.8.4,10.9.6.6,1.2,1.1,1.9,1.7-.2,0-.5-.1-.6-.3-.5-.3-1-.7-1.5-1.1-3.2-3-3.4-8.1-.5-11.4.4-.5.9-.9,1.4-1.2.4-.2.6-.3.6-.3"/>
            <path id="Path_272" class="st26" d="M564.4,398.3l3.5,8.2-15.8-.2-.3-8.4,12.6.3Z"/>
            <path id="Path_273" class="st8" d="M552,404.9c.7,0,1.5.1,2.2.1h10.7c.7,0,1.5-.1,2.2-.2-.7,0-1.5-.1-2.2-.1h-10.7c-.7,0-1.5.1-2.2.2"/>
            <path id="Path_274" class="st8" d="M558.6,398.1c-.2,1.1-.2,2.2,0,3.3,0,1.1.1,2.2.4,3.3.2-1.1.2-2.2,0-3.3,0-1.1-.1-2.2-.4-3.3"/>
            <g id="Group_76" class="st2">
              <g id="Group_75">
                <g class="st23">
                  <g id="Group_74">
                    <path id="Path_275" class="st27" d="M567.9,406.6l-15.8-.5v-1.5c0,0,15,.1,15,.1l.8,1.7"/>
                  </g>
                </g>
              </g>
            </g>
            <path id="Path_276" class="st34" d="M570.9,241.7c11.9,37.4-3.4,82.9.2,126.6.4,4.3,2.1,9.4-1.9,11.9-1.1.6-2.4,1-3.6.9-3.2-.1-5.9-1.8-8.7-2.9-5.5-2.2-11.6-2.4-17.2-.7-3.8,1.2-7.5,3.3-11.5,2.7-5.2-.8-8.6-5.9-13.4-8.1-4.5-2-9.7-1.3-14.6-1.4h-.1c-6.1-.2-10.9-5.4-10.6-11.5,0-.9.2-1.7.4-2.5,7.2-26.2,30.9-111.5,41.4-127l31.5-1.4c2.9,3.5,6.6,8.7,8.1,13.5"/>
            <path id="Path_277" class="st8" d="M559.9,259.4c-.5.8-1.1,1.5-1.7,2.1-1.4,1.7-3,3.3-4.6,4.8-1.7,1.4-3.5,2.7-5.5,3.8-.8.5-1.6.9-2.5,1.2-.1-.2,3.7-2,7.6-5.3,1.9-1.7,3.5-3.4,4.7-4.6.6-.7,1.3-1.3,2-1.9"/>
            <g id="Group_79" class="st32">
              <g id="Group_78">
                <g class="st12">
                  <g id="Group_77">
                    <path id="Path_278" d="M546,273.5c-9.9,25.6-11.7,53.5-5.2,80.2.6,2.3,1.1,4.9-.2,6.9-1.7,2.5-5.8,2.4-8.1.4s-3.2-5.1-3.8-8.1c-4.3-22.3,3.5-44.8,11.9-65.9"/>
                  </g>
                </g>
              </g>
            </g>
            <rect id="Rectangle_100" class="st8" x="308.1" y="286.1" width="59.6" height="2.9"/>
            <path id="Path_279" class="st8" d="M298.9,289l-11.2-41.9h46.5l10.1,41.9h-45.5Z"/>
            <path id="Path_280" class="st33" d="M341.6,285.9h-41.6l-9.7-36.8h41.8l9.5,36.8Z"/>
            <path id="Path_281" class="st7" d="M291,251.7h41.8l-.7-2.6h-41.8l.7,2.6Z"/>
            <path id="Path_282" class="st29" d="M295.5,250.4c0,.3.2.5.5.5s.5-.2.5-.5c0-.3-.2-.5-.5-.5h0c-.3,0-.5.2-.5.5"/>
            <path id="Path_283" class="st29" d="M294,250.4c0,.3.2.5.5.5s.5-.2.5-.5c0-.3-.2-.5-.5-.5h0c-.3,0-.5.2-.5.5"/>
            <path id="Path_284" class="st29" d="M292.4,250.4c0,.2.2.4.5.4s.4-.2.4-.5c0-.2-.2-.4-.4-.4-.3,0-.5.2-.5.5h0"/>
            <path id="Path_285" class="st26" d="M322.4,267.8l4.6,5.2c1.7-1.2,2.8-3.2,2.8-5.3,0-3.7-3.4-6.7-7.4-6.6s-7.4,3-7.4,6.7h7.4Z"/>
            <path id="Path_286" class="st8" d="M321.8,268.7c.5.4.9.8,1.3,1.3.8.9,2,2.2,3.4,3.7l.2.2h-.2c-2.3,1.7-5.2,2-7.7.9-1.3-.5-2.4-1.4-3.2-2.5-.7-1-1.1-2.2-1.2-3.4v-.2h5.5c.6,0,1.3,0,1.9,0-.7.1-1.3.2-2,.2-1.3,0-3,.1-5.2.2l.2-.2c0,1.1.5,2.2,1.1,3.2.8,1,1.8,1.9,3,2.4,2.4,1,5.1.8,7.2-.6v.3c-1.3-1.5-2.4-2.9-3.2-3.8-.5-.5-.9-1-1.3-1.5"/>
            <path id="Path_287" class="st8" d="M318.8,263.9c0,.2.2.4.4.4.2,0,.4-.2.4-.4,0-.2-.2-.4-.4-.4-.2,0-.4.2-.4.4h0"/>
            <path id="Path_288" class="st8" d="M310.6,260.9c1.6-.3,3.3-.4,5-.3h.8c1.1,1,2,2.1,2.9,3.3-1.2-.8-2.3-1.8-3.2-2.8h.2c0,0-.7,0-.7,0-1.7,0-3.3,0-5-.2"/>
            <path id="Path_289" class="st8" d="M301.3,266.1c-.2-.6-.4-1.3-.5-1.9-.3-1.3-.7-3.1-1.1-5.4v-.2s.2,0,.2,0h10.3c0,0,.5.3.3.1v1c.1.3.2.6.3,1,.1.6.2,1.3.3,1.9.2,1.2.4,2.4.7,3.5v.3s-.2,0-.2,0c-3.1,0-5.7,0-7.5,0h-2.1c-.2,0-.5,0-.7-.1.3,0,.5,0,.8,0h2.1c1.8-.1,4.4-.2,7.4-.2l-.2.3-.6-3.6c-.1-.6-.2-1.2-.4-1.9s-.1-.6-.2-1v-.5c0,0-.1-.2-.1-.2v-.2c-.2-.2.3.3.2.2h-10.4l.2-.2c.4,2.2.7,4,.9,5.3s.3,2,.3,2.1"/>
            <path id="Path_290" class="st8" d="M318.2,272.2c0,.2.2.4.4.4.2,0,.4-.2.4-.4,0-.2-.2-.4-.4-.4-.2,0-.4.2-.4.4h0"/>
            <path id="Path_291" class="st8" d="M311.1,272.2c1.2-.3,2.5-.4,3.8-.3,1.3,0,2.5,0,3.8.2-1.2.3-2.5.4-3.8.3-1.3,0-2.5,0-3.8-.2"/>
            <path id="Path_292" class="st8" d="M301.3,275.5c-.2-.4-.3-.9-.5-1.4-.3-.9-.7-2.3-1.1-4v-.2c0,0,.2,0,.2,0,2.8,0,6.6,0,10.7-.1l.2.2v.7c0,0,.3.7.3.7.1.5.2.9.4,1.4.2.9.5,1.8.7,2.6v.3c0,0-.2,0-.2,0-3.2,0-5.9,0-7.7,0h-2.2c-.3,0-.5,0-.8-.1.3,0,.6,0,.8,0h2.2c1.9-.1,4.5-.2,7.6-.2l-.2.3c-.2-.8-.5-1.7-.7-2.6l-.4-1.4-.2-.7v-.4c0,0-.1-.2-.1-.2v-.2c0,0,.5.4.2.2h-10.7l.2-.2c.4,1.6.7,3,.9,3.9.2.5.3,1,.3,1.5"/>
            <path id="Path_293" class="st8" d="M302.1,261c1.2-.3,2.3-.3,3.5-.3,1.2,0,2.4,0,3.5.2-1.2.3-2.4.3-3.5.3-1.2,0-2.4,0-3.5-.2"/>
            <path id="Path_294" class="st8" d="M302.2,262.2c1.2-.3,2.4-.3,3.6-.3,1.2,0,2.4,0,3.6.2-2.4.4-4.8.4-7.1,0h0Z"/>
            <path id="Path_295" class="st8" d="M302.4,263.3c1.1-.3,2.3-.4,3.4-.3,1.1,0,2.3,0,3.4.2-1.1.3-2.3.4-3.4.3-1.2,0-2.3,0-3.4-.2"/>
            <path id="Path_296" class="st8" d="M302.3,272.1c1.1-.3,2.2-.3,3.4-.3,1.1,0,2.3,0,3.4.2-1.1.3-2.2.3-3.4.3-1.1,0-2.3,0-3.4-.2"/>
            <path id="Path_297" class="st8" d="M302.7,273.4c1.9-.3,3.9-.3,5.8,0-1.9.3-3.9.3-5.8,0"/>
            <path id="Path_298" class="st8" d="M237.5,288.9v5.5h3.6v111.2h7.4v-111.2h39.2v111.2h7.4v-111.2h169.9v111.2h7.4v-111.2h3.2v-5.5h-238Z"/>
            <path id="Path_299" class="st8" d="M397.6,330.3c3.2.3,6.4.3,9.6,0-3.2-.3-6.4-.3-9.6,0"/>
            <path id="Path_300" class="st34" d="M327.7,331.2c.1,0,.3,0,.3.1s-.1.1-.3.1-.3,0-.3-.1.1-.1.3-.1"/>
            <path id="Path_301" class="st5" d="M374.7,232.5l-27.6-28-.6-3c-.1-.6-.2-1.2-.3-1.9-.1-.8-.1-1.6,0-2.5.1-1,.4-2,.9-2.9.5-.8-.3-1.8-1-1.4s-2.1,2.5-2.4,5.6-2.9-1-3.8-2.4-4.2-5.8-4.8-5.8c-1,0-1.2,1-.2,2.4s3.7,5.9,2.9,6.4c-1.5-.3-3.1.5-3.8,1.9-.7,1.3-1.5,3.2-.8,4.1,1.4,1.6,2.8,3.2,4.4,4.7l.9.8s23.9,34.6,29,35.7c3.2.7,53.2,4.8,53.2,4.8l3.8-13.8-49.7-4.5Z"/>
            <path id="Path_302" class="st5" d="M332.8,204.2l2.5,2.4c.3.3.6.5,1,.7.4.2.8,0,1.1-.2.2-.3.3-.7.1-1-.1-.3-.3-.6-.6-.9l-2.5-3"/>
            <path id="Path_303" class="st4" d="M334.5,202.3c0,0,.5.4,1.3,1.2.4.5.8.9,1.3,1.4.3.3.5.6.7.9.2.4.2,1,0,1.4-.4.4-.9.5-1.4.3-.4-.2-.7-.4-1-.7l-1.3-1.4c-.8-.8-1.2-1.3-1.1-1.4.5.3,1,.7,1.4,1.1l1.4,1.3c.2.2.5.4.8.6.3.1.6,0,.8-.2.2-.3.2-.6,0-.9-.2-.3-.4-.6-.6-.9-.4-.5-.8-1-1.2-1.5-.4-.4-.7-.9-1-1.5"/>
            <path id="Path_304" class="st5" d="M334.6,202.4l2.5,2.4c.3.3.6.5,1,.7.4.2.8.1,1.1-.2.2-.3.3-.7.1-1-.1-.3-.3-.6-.6-.9l-2.5-3"/>
            <path id="Path_305" class="st4" d="M336.3,200.5c.5.4.9.8,1.3,1.2l1.3,1.4c.3.3.5.6.7.9.2.5.2,1,0,1.4-.4.4-.9.5-1.4.3-.4-.2-.7-.4-1-.7l-1.3-1.4c-.4-.4-.8-.8-1.1-1.4.5.3,1,.7,1.4,1.1l1.4,1.3c.2.2.5.4.8.6.3.1.6,0,.8-.2.2-.3.2-.6,0-.9-.2-.3-.4-.6-.6-.9l-1.2-1.5c-.4-.4-.7-.9-1-1.5"/>
            <path id="Path_306" class="st5" d="M336.6,200.9l2.5,2.4c.3.3.6.5,1,.7.4.2,1,0,1.2-.3.1-.3.2-.6,0-.9-.1-.3-.3-.6-.6-.9-.8-1-1.6-2-2.5-3"/>
            <path id="Path_307" class="st4" d="M338.3,199c.5.4.9.8,1.3,1.2l1.3,1.4c.3.3.5.6.7.9.3.4.2,1,0,1.4-.3.4-.9.5-1.4.3-.4-.2-.7-.4-1-.7l-1.3-1.4c-.4-.4-.8-.8-1.1-1.4.5.3,1,.7,1.4,1.1l1.4,1.3c.2.2.5.4.8.6.3.1.6,0,.8-.2.2-.3.2-.6,0-.9-.2-.3-.4-.6-.6-.9l-1.2-1.5c-.4-.4-.7-.9-1-1.5"/>
            <path id="Path_308" class="st4" d="M340.7,205.2c0,0,.6-.2,1.5,0l-.3.2c-.1-.6-.2-1.2,0-1.8.1-.8.5-1.5,1-2.1.4-.5.7-.6.8-.6-.6.9-1,1.8-1.2,2.8,0,.5,0,1.1,0,1.6v.4s-.3-.1-.3-.1c-.9-.3-1.5-.4-1.5-.5"/>
            <path id="Path_309" class="st5" d="M410.8,190.5v38.4c.1,0-14.9.7-14.9.7l-.6-9.2s-7.2,1.1-8.7-4.3c-1-3.5-.7-30.3-.7-30.3l24.9,4.7Z"/>
            <path id="Path_310" class="st8" d="M382.2,189.5c1.1,2.3,6.4,6.5,6.4,6.5l2.4,6.4c2.1-1.6,4.9-1.5,5.4,2.1.4,2.6-2.9,3.2-2.9,3.2,1.9,3.2,3.2,5.9,6,8.9,3,3.3,4.7,3.7,7.9,3.7h3.6s7.3-6.1,5.9-22.3-16-11.5-19.5-15.5c-5.6-6.6-18.9-.7-15.2,6.9"/>
            <path id="Path_311" class="st34" d="M416,211.6c-.6,0-1.2,0-1.8,0-1.6-.3-3.1-1.1-4.3-2.2-1.7-1.7-3.2-3.6-4.3-5.7-1.4-2.3-2.9-4.9-5.5-6.7s-5.7-2.1-8.3-2.6c-2.4-.3-4.7-1.2-6.7-2.6-1.3-1-2.3-2.4-2.7-4-.2-.6-.2-1.2,0-1.8,0,.6,0,1.2.1,1.8.4,1.6,1.4,2.9,2.7,3.9,2,1.3,4.3,2.2,6.6,2.5,2.6.5,5.7.9,8.4,2.6s4.1,4.5,5.5,6.8c1.1,2.1,2.6,4,4.3,5.7,1.2,1.1,2.6,1.9,4.2,2.2.4,0,.9.1,1.3.2h.5Z"/>
            <path id="Path_312" class="st34" d="M416.9,198.4l-.8-.2c-.7-.2-1.5-.4-2.3-.5-1.2-.2-2.4.1-3.5.8-.6.4-1.1,1.1-1.2,1.8-.2.8,0,1.7.7,2.3.3.3.8.5,1.2.5.5,0,.9-.1,1.3-.4.9-.5,1.5-1.3,1.8-2.3,1-3-.6-6.2-3.6-7.2-.4-.1-.8-.2-1.2-.3-1.3,0-2.5,0-3.7.5-1.3.4-2.5.7-3.9.9-1.4.2-2.7.2-4.1,0-1.4-.2-2.7-.5-3.9-1.1-1.3-.5-2.2-1.6-2.7-2.8-.4-1.3,0-2.7.9-3.6,1-.9,2.4-1.1,3.5-.5.6.2,1,.7,1.3,1.2.3.5.4,1.1.3,1.7-.2,1.1-.8,2.1-1.8,2.7-.9.6-1.9.8-3,.8-1,0-1.9-.1-2.8-.4-1.6-.5-3-1.4-4.1-2.5-.9-.9-1.6-1.9-2.1-3-.3-.7-.6-1.4-.8-2.2,0-.5-.1-.8-.1-.8,0,0,0,.3.2.8.2.7.4,1.5.8,2.2.5,1.1,1.2,2.1,2.1,3,1.1,1.1,2.5,2,4.1,2.5.9.3,1.8.4,2.8.4,1,0,2-.3,2.9-.8.9-.6,1.5-1.5,1.7-2.6.2-1.1-.4-2.3-1.5-2.8-1.1-.5-2.4-.3-3.3.5-.9.9-1.2,2.2-.9,3.4.4,1.2,1.4,2.2,2.6,2.7,1.2.5,2.6.9,3.9,1,1.3.2,2.7.2,4,0,1.3-.2,2.6-.5,3.8-.9,1.2-.4,2.5-.6,3.8-.5,3.2.3,5.6,3.2,5.3,6.5h0c0,.4-.1.9-.3,1.3-.3,1-1,1.9-1.9,2.4-.4.3-.9.4-1.4.4-.5,0-.9-.2-1.3-.5-.6-.6-.9-1.5-.7-2.4.2-.8.6-1.5,1.3-1.9,1-.7,2.3-.9,3.5-.8.8.1,1.5.3,2.3.5.5.2.8.3.8.3"/>
            <path id="Path_313" class="st26" d="M397.9,396.2l-4.9-6.3,11.7-9.2,7.2,9.1-.7.6c-3.1,2.7-15.9,13.6-18.5,14.7-3,1.2,5.2-8.9,5.2-8.9"/>
            <g id="Group_82" class="st30">
              <g id="Group_81">
                <g class="st11">
                  <g id="Group_80">
                    <path id="Path_314" class="st27" d="M394,401.3s-2.7,3.8-1.8,4,14.2-10.3,19.7-15.5l-.2-.2-15.5,12.4s-1.5-1.2-2.2-.7"/>
                  </g>
                </g>
              </g>
            </g>
            <path id="Path_315" class="st8" d="M411.9,389.4c0,0-.1.1-.2.2l-.6.5-2,1.8c-1.8,1.5-4.2,3.5-6.9,5.7s-5.3,4.1-7.1,5.4l-2.2,1.6-.6.4h-.2c0,.1.2,0,.2,0l.6-.5,2.2-1.6c1.8-1.4,4.3-3.3,7.1-5.5s5.2-4.2,6.9-5.6l2.1-1.7.6-.5h.2Z"/>
            <path id="Path_316" class="st8" d="M396.4,402.2c-.4-.3-.8-.5-1.2-.7-.4-.1-.9-.2-1.4-.2,1-.2,2,.1,2.6.9"/>
            <path id="Path_317" class="st8" d="M398.5,397.7s-.3,0-.7-.1-.7-.3-.7-.3.3,0,.7.2c.2,0,.5.2.7.3"/>
            <path id="Path_318" class="st8" d="M399,396.5s-.3,0-.6,0-.6,0-.6-.1.3,0,.6,0c.2,0,.4,0,.6.1"/>
            <path id="Path_319" class="st8" d="M398.7,394.9c-.2.2-.3.4-.5.6-.3.3-.6.5-.7.4s.2-.3.5-.6.6-.5.7-.4"/>
            <path id="Path_320" class="st8" d="M398.3,394c-.2.6-.7,1-1.3,1.2.2-.2.4-.4.7-.6.4-.3.6-.6.6-.6"/>
            <path id="Path_321" class="st8" d="M397.2,397c-.2.2-.5.4-.8.6-.3.2-.6.3-.9.5-.2,0-.4.1-.6.2-.1,0-.3,0-.4,0-.1,0-.2-.2-.1-.4.4-.7,1.2-1.1,2-.9.2,0,.5.2.6.3.1.1.2.2.2.2-.3-.2-.5-.3-.9-.4-.3,0-.7,0-1,0-.4.1-.7.4-.9.8,0,.1,0,.3.2.3,0,0,0,0,0,0,.2,0,.4,0,.6-.1.3-.1.6-.3.9-.4.6-.3.8-.5.9-.5"/>
            <path id="Path_322" class="st8" d="M397.1,397.2c-.2,0-.4-.3-.5-.5-.1-.2-.2-.5-.2-.7,0-.3,0-.6.3-.9.2,0,.4,0,.5.2,0,.1.1.3.1.4,0,.2,0,.5,0,.7,0,.2,0,.5-.2.6,0-.2,0-.4,0-.7,0-.2,0-.5,0-.7,0-.2-.2-.6-.4-.5-.2.2-.3.4-.2.7,0,.2,0,.4.2.6.1.2.2.4.4.5"/>
            <path id="Path_323" class="st8" d="M409.1,386.4c-.3.2-.6.4-.8.7-1.3,1.3-1.7,3.2-1.1,4.9.1.3.3.7.4,1,0,0,0,0-.2-.2-.1-.2-.3-.5-.4-.7-.3-.9-.4-1.8-.2-2.7.2-.9.7-1.7,1.4-2.3.2-.2.4-.3.7-.5,0,0,.2,0,.3-.1"/>
            <path id="Path_324" class="st8" d="M404.1,382.5c.7.7,1.4,1.5,2,2.3.7.8,1.3,1.6,1.9,2.4-.7-.7-1.4-1.5-2-2.3-.7-.8-1.3-1.6-1.9-2.4"/>
            <path id="Path_325" class="st8" d="M405.2,393.1c-.5.6-1,1.1-1.6,1.5-.5.5-1.2.9-1.8,1.2,0,0,.8-.6,1.7-1.4s1.6-1.4,1.7-1.4"/>
            <path id="Path_326" class="st8" d="M407.5,391.3s0,.2.1.5.1.4.1.5-.2-.1-.3-.4,0-.5,0-.5"/>
            <path id="Path_327" class="st8" d="M407.5,389.5s0,.2,0,.4,0,.4-.1.4,0-.2,0-.4.1-.4.2-.4"/>
            <path id="Path_328" class="st8" d="M408.4,388.1s-.1.2-.2.4-.2.4-.2.4,0-.2,0-.5.4-.3.4-.3"/>
            <path id="Path_329" class="st8" d="M409.1,387.1v.2c0,0-.1.2-.2.2,0,0,0-.1,0-.3,0,0,.1-.2.2-.2"/>
            <g id="Group_85" class="st31">
              <g id="Group_84">
                <g class="st16">
                  <g id="Group_83">
                    <path id="Path_330" d="M408.8,386.1l-11.8,9-1.1-1.4,12.4-8.4.5.8Z"/>
                  </g>
                </g>
              </g>
            </g>
            <path id="Path_331" class="st26" d="M344.1,402.5v-8h14.9c0,0,0,11.6,0,11.6h-.9c-4.1.3-20.9,1-23.7.2-3-.9,9.6-3.8,9.6-3.8"/>
            <g id="Group_88" class="st30">
              <g id="Group_87">
                <g class="st14">
                  <g id="Group_86">
                    <path id="Path_332" class="st27" d="M337.9,404.2s-4.4,1.3-3.9,2,17.6.7,25.1,0v-.3l-19.8.2s-.5-1.9-1.4-1.9"/>
                  </g>
                </g>
              </g>
            </g>
            <path id="Path_333" class="st8" d="M359.3,405.8h-3.7c-2.3.2-5.4.3-8.9.3s-6.7,0-8.9-.1h-2.7c0-.1,2.7-.1,2.7-.1,2.3,0,5.5,0,8.9,0s6.7,0,8.9-.1h2.7c0,0,1,0,1,0h0Z"/>
            <path id="Path_334" class="st8" d="M339.3,406.3c-.1-.4-.3-.9-.5-1.3-.3-.4-.6-.7-.9-1,.9.4,1.5,1.3,1.4,2.3"/>
            <path id="Path_335" class="st8" d="M343.6,404.1c-.2-.2-.3-.4-.5-.6-.2-.2-.3-.4-.3-.7,0,0,.2.2.5.6s.4.6.3.7"/>
            <path id="Path_336" class="st8" d="M344.8,403.4c-.2,0-.4-.2-.5-.4-.3-.2-.4-.4-.4-.5s.3.1.5.4.4.4.4.5"/>
            <path id="Path_337" class="st8" d="M345.6,402c-.2,0-.5.1-.8.1-.3,0-.5,0-.8,0,.2,0,.5-.1.8-.1.3,0,.5,0,.8,0"/>
            <path id="Path_338" class="st8" d="M345.9,401c-.3.2-.6.3-.9.2-.3,0-.6,0-.9-.1.3,0,.6,0,.9,0,.3,0,.6,0,.9,0"/>
            <path id="Path_339" class="st8" d="M343.1,402.8c-.3,0-.7,0-1,0-.3,0-.7-.1-1-.2-.2,0-.4-.1-.6-.2-.1,0-.2-.2-.2-.3,0-.1,0-.3.1-.4.7-.4,1.7-.2,2.2.5.1.2.3.4.3.6,0,0,0,.2,0,.3,0-.3-.2-.6-.4-.8-.2-.3-.5-.4-.8-.5-.4-.1-.8,0-1.1,0-.1.1,0,.3,0,.4.2,0,.4.2.5.2.3.1.7.2,1,.3.6,0,1,0,1,.1"/>
            <path id="Path_340" class="st8" d="M342.9,402.8c-.1-.2-.1-.4-.1-.7,0-.3.1-.5.3-.7.2-.3.5-.5.8-.5.2,0,.3.2.3.4h0c0,.2,0,.3-.2.4-.1.2-.3.4-.4.6-.3.3-.5.4-.6.4s.2-.2.5-.5c.2-.2.3-.4.4-.6.1-.2.2-.6,0-.6s-.5.2-.6.4c-.1.2-.2.4-.3.6,0,.2,0,.4,0,.6"/>
            <path id="Path_341" class="st8" d="M359,401.7h-1.1c-.9.1-1.7.5-2.4,1-.7.6-1.2,1.3-1.5,2.1-.1.4-.2.7-.3,1.1,0,0,0-.2,0-.3,0-.3,0-.5.2-.8.3-.9.8-1.6,1.5-2.2.7-.6,1.6-.9,2.5-1,.3,0,.5,0,.8,0,.1,0,.2,0,.3.1"/>
            <path id="Path_342" class="st8" d="M357.4,395.5c.1,1,.2,2,.1,3.1,0,1,0,2,0,3.1-.1-1-.2-2-.1-3.1,0-1,0-2,0-3.1"/>
            <path id="Path_343" class="st8" d="M351.8,404.6c-.7.2-1.4.2-2.2.2-.7,0-1.5,0-2.2-.2,0,0,1,0,2.2,0s2.2,0,2.2,0"/>
            <path id="Path_344" class="st8" d="M354.8,404.6s0,.2-.2.4-.2.4-.2.4,0-.2,0-.5c0-.2.2-.3.4-.4"/>
            <path id="Path_345" class="st8" d="M355.8,403.2c0,.1-.1.2-.2.3-.1.1-.3.3-.4.2s0-.2.2-.4.3-.3.3-.2"/>
            <path id="Path_346" class="st8" d="M357.4,402.6c-.2,0-.3,0-.4.1-.2.1-.4.2-.4.2s0-.2.4-.3.5,0,.5,0"/>
            <path id="Path_347" class="st8" d="M358.5,402.3s0,.1-.2.2-.2,0-.3,0,0-.1.2-.2.2,0,.3,0"/>
            <g id="Group_91" class="st31">
              <g id="Group_90">
                <g class="st15">
                  <g id="Group_89">
                    <path id="Path_348" d="M359.1,401.1h-15s0-1.8,0-1.8h15c0,0,0,1.8,0,1.8Z"/>
                  </g>
                </g>
              </g>
            </g>
            <path id="Path_349" class="st5" d="M380.9,265.2l-6,18c-1.6,4.9-5.9,5.7-11,5.7h-33.1v-7.4l30.3-4.3,7.2-18.5,12.5,6.5Z"/>
            <path id="Path_350" class="st5" d="M327.1,279.9l-2.6-1.2s-2.8-5.5-3.5-5.3-.9,1.8.3,4.4l-3.5-1s-7.6,3.5-7.2,4c.4.9,1.4,1.3,2.3.9,0,0,0,0,0,0,.1,0,.2-.1.3-.2,1.6-.9,3.8-1.8,3.8-1.8l4.1,1.2-5.3.7-5,4.5c.9.7,2.1.6,3,0l13,2.7,4,.2v-7.4l-3.7-1.6Z"/>
            <path id="Path_351" class="st4" d="M313.9,285.9c.3-.3.5-.6.8-.9.3-.3.6-.5.9-.7.4-.2.9-.3,1.4-.4,1.3,0,2.6-.3,3.9-.7-1.3,0-2.6,0-3.9.3-.5,0-1.1.2-1.5.5-.4.2-.7.5-1,.9-.2.3-.4.7-.5,1"/>
            <path id="Path_352" class="st4" d="M315.9,286.4s0-.3.5-.4.9-.1,1.6-.2c.8,0,1.5,0,2.3-.2-.7-.3-1.5-.3-2.3-.2-.6,0-1.1.2-1.6.3-.2,0-.3.2-.4.4,0,.1,0,.2,0,.2"/>
            <path id="Path_353" class="st26" d="M383.7,261.3l-2.5,8.6-16.2-7.4c.6-1.8,3.3-9.9,8.4-22.7,2.8-7.1,9.2-12.3,16.8-13.5,5.1-.9,10.3-1.4,15.5-1.5,9.1.1,22.5,5.8,24.2,14.7,1.4,6.8,0,18.8,0,33.4l-1.1,27.9-46.5,1.6,1.4-41.1Z"/>
            <g id="Group_94" class="st31">
              <g id="Group_93">
                <g class="st13">
                  <g id="Group_92">
                    <path id="Path_354" d="M429.9,266.5c-5.7,1.2-11.5,0-17.2-.4-3.5-.2-7.4-.6-10.1,1.6-2.2,1.7-3.1,4.6-3.7,7.3-2.4,10.3-2.8,17.2-3.4,27.8l28,1.7,6.5-38Z"/>
                  </g>
                </g>
              </g>
            </g>
            <path id="Path_355" class="st8" d="M382.5,231.1c1.6.3,3,1.2,3.9,2.5,1,1.4,1.5,3.1,1.6,4.9,0,2.1,0,4.3-.5,6.4-.7,3.8-1.5,7.7-2.6,11.4-.4,1.4-.7,2.5-.9,3.4-.1.4-.2.8-.3,1.3.2-.4.3-.8.5-1.2.3-.8.6-2,1.1-3.4,1.2-3.7,2.1-7.6,2.7-11.4.4-2.1.5-4.3.5-6.5,0-1.8-.7-3.5-1.7-5-.7-1-1.7-1.7-2.9-2.1-.3-.1-.6-.2-1-.2-.2,0-.3,0-.3,0"/>
            <path id="Path_356" class="st8" d="M365.4,260.4c.7.5,1.5.9,2.3,1.3,1.4.8,3.5,1.7,5.7,2.8s4.3,1.9,5.9,2.5c.8.4,1.6.6,2.5.8-.8-.4-1.6-.8-2.4-1.1-1.5-.6-3.5-1.5-5.8-2.6s-4.3-2-5.8-2.6c-.8-.4-1.6-.8-2.4-1"/>
            <path id="Path_357" class="st8" d="M358,304.5c-7.9,4.3-10.9,14.2-6.8,22.2l40.5,69.6,18.7-11.3-31.5-62.8,22.8-14.9"/>
            <path id="Path_358" class="st8" d="M407.4,301.1l-55.6,2c-9,.3-16.1,7.8-16,16.8l2.3,79.4h23.4l-.8-75.1,46.7-1.2v-21.9Z"/>
            <path id="Path_359" class="st34" d="M360.7,326.9c0,.2,0,.5,0,.7,0,.5,0,1.2,0,2.1,0,1.8.1,4.5.2,7.8.1,6.5.2,15.6.3,25.6s.1,19,.1,25.6c0,3.2,0,5.9,0,7.8v2.1c0,.2,0,.5,0,.7,0-.2,0-.5,0-.7,0-.5,0-1.2,0-2.1,0-1.8-.1-4.5-.2-7.8-.1-6.5-.2-15.6-.3-25.6s-.1-19-.1-25.6v-9.9c0-.2,0-.5,0-.7"/>
            <path id="Path_360" class="st34" d="M431.4,250.7h-16.8c-6.8,0-12.3,5.5-12.3,12.3h0v58.7h-33.6c-4.7,0-8.5,3.8-8.5,8.5h76.8c3.8-.2,6.7-3.2,6.7-7v-60.2c0-6.8-5.5-12.3-12.3-12.3h0"/>
            <path id="Path_361" class="st8" d="M407.2,252.6c.1,0,.3,17.2.3,38.5s-.1,38.5-.3,38.5-.3-17.2-.3-38.5.1-38.5.3-38.5"/>
            <path id="Path_362" class="st34" d="M405.1,391.7v-61.6h-5.5v61.6c-3.3,6.6-11.2,11-20.8,14.7h48.8c-9.9-4-18.9-7.1-22.5-14.7"/>
            <g>
              <path id="Path_364" class="st28" d="M90.4,273.7s-4.1-13.2,3.3-21c.2-.2.5-.2.7,0,0,0,.1.2.1.3.4,2.2.9,8.9-4.1,20.8"/>
              <path id="Path_366" class="st28" d="M95.3,304.9s2.5-13.6,12.7-17c.2,0,.5,0,.6.3,0,0,0,.2,0,.3-.7,2.1-3.3,8.2-13.3,16.4"/>
              <path id="Path_368" class="st28" d="M92.5,339.1s-1.5-13.8,7.2-20c.2-.1.5-.1.6.1,0,0,0,.2,0,.3,0,2.2-.8,8.9-8,19.6"/>
              <path id="Path_370" class="st28" d="M100.2,373.5s-1-13.8,7.9-19.7c.2-.1.5,0,.6.1,0,0,0,.2,0,.3-.1,2.2-1.1,8.8-8.7,19.3"/>
              <path id="Path_372" class="st28" d="M84.4,262.1s-12.3-6.4-12.5-17.1c0-.3.2-.5.4-.5.1,0,.2,0,.3,0,1.8,1.3,6.9,5.6,11.8,17.5"/>
              <path id="Path_374" class="st28" d="M97.6,290.5s-12.7-5.7-13.6-16.4c0-.2.1-.5.4-.5,0,0,0,0,0,0,.1,0,.2,0,.3,0,1.9,1.1,7.2,5.2,12.9,16.8"/>
              <path id="Path_376" class="st28" d="M90.4,322.2s-8.7-10.8-4.6-20.7c0-.2.3-.4.6-.3,0,0,0,0,0,0,0,0,.2.1.2.2,1.2,1.9,4.1,7.9,3.8,20.8"/>
              <path id="Path_390" class="st28" d="M104.6,354.3s13.7-2.1,17.4-12.2c0-.2,0-.5-.3-.6,0,0,0,0,0,0,0,0-.2,0-.3,0-2.1.6-8.3,3.1-16.8,12.8"/>
              <path id="Path_384" class="st28" d="M100,367.4s4.3-13.2-3.1-21c-.2-.2-.5-.2-.6,0,0,0,0,0,0,0,0,0-.1.2-.1.2-.4,2.2-1,8.8,3.9,20.8"/>
              <path id="Path_387" class="st28" d="M123.3,320.9s11.4-8,10.2-18.6c0-.3-.3-.4-.5-.4,0,0-.2,0-.3.1-1.6,1.5-6.1,6.5-9.4,18.9"/>
              <path id="Path_378" class="st28" d="M99,359.5s-12.6-5.9-13.3-16.6c0-.3.2-.5.4-.5,0,0,.2,0,.3,0,1.9,1.2,7.1,5.3,12.6,17"/>
              <path id="Path_381" class="st28" d="M116.5,336.5s5.3-12.8-1.4-21.2c-.1-.2-.4-.2-.6-.1,0,0-.1.2-.2.3-.6,2.1-1.7,8.7,2.2,21"/>
            </g>
            <path id="Path_363" class="st8" d="M97.1,383.8l.2-.4.5-1c.6-1.4,1.1-2.8,1.4-4.2,1.1-5.3,1.1-10.8-.1-16.1-.8-3.7-1.8-7.3-3-10.9-1.3-3.9-2.7-7.9-4-12.4-1.4-4.6-2-9.4-1.9-14.2.2-5,1.7-10,3.3-15s3.3-9.9,3.8-14.8c.6-4.7-.4-9.5-2.7-13.7-2.2-4-4.9-7.4-6.9-10.9-1.9-3.3-3.3-6.8-4.2-10.5-1.2-5.3-1.3-10.9-.3-16.3.4-2,.9-3.9,1.7-5.8,0,.1,0,.3,0,.4,0,.3-.2.6-.3,1.1-.4,1.4-.7,2.9-1,4.3-1,5.4-.8,10.8.4,16.1.9,3.6,2.3,7.1,4.2,10.4,2,3.5,4.8,6.9,7,10.9,2.4,4.2,3.4,9.1,2.8,13.9-.5,5-2.2,9.9-3.8,14.9s-3.1,10-3.3,14.9c0,4.8.6,9.5,1.9,14.1,1.2,4.4,2.6,8.5,3.9,12.3,1.2,3.6,2.2,7.2,2.9,10.9,1.2,5.4,1.2,10.9,0,16.3-.4,1.4-.9,2.8-1.6,4.2-.2.4-.4.8-.5,1,0,.1-.1.2-.2.4"/>
            <path id="Path_365" class="st8" d="M92.9,257.1c0,.8-.1,1.6-.3,2.4-.3,1.7-.6,3.7-1,5.8s-.7,4.2-.9,5.8c0,.8-.2,1.6-.4,2.4,0-.8,0-1.6,0-2.5.1-1.5.4-3.6.8-5.9s.8-4.3,1.1-5.8c.1-.8.4-1.6.7-2.4"/>
            <path id="Path_367" class="st8" d="M105.2,291.4c-.4.7-.9,1.4-1.4,2l-3.6,4.7-3.6,4.7c-.4.7-1,1.3-1.5,1.9.3-.8.7-1.5,1.2-2.1.8-1.3,2-3,3.4-4.8s2.7-3.5,3.7-4.6c.5-.7,1.1-1.2,1.7-1.8"/>
            <path id="Path_369" class="st8" d="M98.1,323.3c-.2.8-.4,1.6-.7,2.3l-2,5.5c-.8,2.1-1.4,4-2,5.6-.2.8-.5,1.5-.9,2.3,0-.8.3-1.6.5-2.4.4-1.5,1.1-3.5,1.9-5.6s1.6-4.1,2.2-5.5c.3-.8.6-1.5,1-2.2"/>
            <path id="Path_371" class="st8" d="M106.3,357.9c-.2.8-.5,1.6-.8,2.3-.6,1.6-1.4,3.4-2.2,5.5s-1.6,3.9-2.2,5.5c-.3.8-.6,1.5-1,2.2.1-.8.3-1.6.6-2.4.5-1.4,1.2-3.4,2.1-5.5s1.7-4.1,2.4-5.4c.3-.8.7-1.5,1.2-2.2"/>
            <path id="Path_373" class="st8" d="M74.5,248.6c.6.6,1.1,1.2,1.5,1.9l3.5,4.8,3.5,4.8c.5.6,1,1.3,1.4,2-.6-.5-1.2-1.1-1.7-1.8-1-1.2-2.3-2.8-3.6-4.7s-2.5-3.6-3.3-4.9c-.5-.7-.9-1.4-1.2-2.1"/>
            <path id="Path_375" class="st8" d="M86.9,277.6c.6.6,1.2,1.2,1.6,1.8l3.8,4.6c1.4,1.7,2.7,3.2,3.8,4.6.6.6,1.1,1.2,1.5,1.9-.7-.5-1.3-1.1-1.8-1.7-1-1.1-2.4-2.7-3.9-4.5s-2.7-3.5-3.6-4.7c-.5-.6-1-1.3-1.3-2"/>
            <path id="Path_377" class="st8" d="M86.6,305.8c.3.8.5,1.6.6,2.4.4,1.7.8,3.6,1.3,5.8s.9,4.1,1.3,5.8c.2.8.4,1.6.5,2.4-.4-.7-.7-1.5-.8-2.3-.4-1.5-.9-3.5-1.4-5.8s-.9-4.3-1.1-5.8c-.2-.8-.3-1.6-.3-2.5"/>
            <path id="Path_379" class="st8" d="M88.4,346.5c.6.6,1.1,1.2,1.6,1.9l3.7,4.6c1.4,1.7,2.6,3.3,3.7,4.6.6.6,1.1,1.3,1.5,2-.7-.5-1.2-1.1-1.8-1.7-1-1.1-2.4-2.7-3.8-4.5s-2.7-3.5-3.6-4.7c-.5-.7-1-1.4-1.3-2.1"/>
            <path id="Path_380" class="st8" d="M124,305v1.2c0,.8,0,1.9-.2,3.4-.2,3-.4,7.1-.7,12-.9,5-3.4,10.6-6.9,16-2.5,4-5.2,7.6-7.4,11-2.1,2.9-3.9,6-5.6,9.2-1.1,2.2-2,4.4-2.6,6.8-.2.8-.4,1.5-.5,1.9,0,.2-.1.5-.2.7,0-.2,0-.5,0-.7,0-.5.2-1.1.4-1.9.6-2.4,1.4-4.7,2.5-6.9,1.6-3.2,3.4-6.4,5.5-9.3,2.3-3.4,4.9-7,7.4-11,3.4-5.4,6-10.9,6.9-15.8.3-4.9.6-9,.8-12,.1-1.4.2-2.5.3-3.4,0-.3,0-.6,0-.9,0,0,0-.2,0-.3"/>
            <path id="Path_382" class="st8" d="M115.5,319.8c.2.8.4,1.6.4,2.4.2,1.5.4,3.6.6,5.9s.2,4.4.2,5.9c0,.8,0,1.6-.1,2.5-.2-.8-.2-1.6-.2-2.4-.1-1.7-.2-3.7-.4-5.9s-.3-4.2-.4-5.9c-.1-.8-.1-1.6,0-2.5"/>
            <path id="Path_385" class="st8" d="M97.7,350.8c.3.8.5,1.6.6,2.4.3,1.5.7,3.5,1,5.8s.6,4.4.7,5.9c.1.8.1,1.6,0,2.5-.2-.8-.3-1.6-.4-2.4-.2-1.7-.6-3.7-.9-5.8s-.6-4.2-.9-5.9c-.1-.8-.2-1.6-.2-2.4"/>
            <path id="Path_389" class="st8" d="M131.4,306.2c-.2.8-.6,1.6-.9,2.3-.6,1.4-1.6,3.2-2.7,5.3s-2.2,3.9-3,5.1c-.4.7-.9,1.4-1.4,2,.3-.8.7-1.5,1.1-2.2.8-1.5,1.8-3.2,2.8-5.2,1.1-1.9,2-3.7,2.8-5.2.4-.8.8-1.5,1.3-2.1"/>
            <path id="Path_392" class="st8" d="M118.4,344.7c-.6.6-1.2,1.2-1.8,1.6-1.2.9-2.8,2.2-4.7,3.5s-3.6,2.5-4.9,3.3c-.7.5-1.4.9-2.2,1.1.6-.6,1.3-1,2-1.5l4.8-3.4,4.8-3.4c.6-.5,1.3-1,2.1-1.3"/>
            <path id="Path_393" class="st34" d="M91.5,379.5l-4,26.9h24.9l-3.2-26.9h-17.7Z"/>
            <path id="Path_394" class="st8" d="M110.2,387.8c-3.3.3-6.7.3-10,.3-3.3,0-6.7,0-10-.3,3.3-.3,6.7-.3,10-.3,3.3,0,6.7,0,10,.3"/>
            <path id="Path_395" class="st8" d="M110.7,390c-3.5.3-6.9.4-10.4.3-3.5,0-6.9,0-10.4-.3,0-.1,4.6-.3,10.4-.3s10.4.1,10.4.3"/>
          </g>
        </g>
      </g>
    </g>
  </g>
</svg>