<?xml version="1.0" encoding="UTF-8"?>
<svg id="Layer_1" xmlns="http://www.w3.org/2000/svg" version="1.1" viewBox="0 0 750 500">
  <!-- Generator: Adobe Illustrator 29.6.1, SVG Export Plug-In . SVG Version: 2.1.1 Build 9)  -->
  <defs>
    <style>
      .st0 {
        fill: #e0e0e0;
      }

      .st1 {
        fill: #ffbe9d;
      }

      .st2 {
        fill: #ebebeb;
      }

      .st3 {
        fill: #263238;
      }

      .st4 {
        fill: #1211ca;
      }

      .st5 {
        fill: #ffde59;
      }

      .st6 {
        fill: #fff;
      }

      .st7 {
        fill: #1abc9c;
      }

      .st8 {
        fill: #fafafa;
      }

      .st9 {
        opacity: .6;
      }

      .st10 {
        opacity: .2;
      }

      .st11 {
        opacity: .3;
      }

      .st12 {
        fill: #f5f5f5;
      }

      .st13 {
        fill: #6f4c47;
      }

      .st14 {
        fill: #455a64;
      }
    </style>
  </defs>
  <g id="freepik--background-complete--inject-25">
    <path class="st0" d="M74.1,344.1c-4.6-2.9-9.9-4.7-15.3-5.3-2.5-.3-5.2-.2-7.2,1.3-.5.3-.8.8-.8,1.3,0,.4.4.7.7.9,6.2,4.8,15.7,5.4,22.6,1.7"/>
    <path class="st0" d="M73.7,343.6c-3.5-2.6-6.9-5.5-9.9-8.7s-5.2-7.2-6.2-11.5c-.4-1.3-.2-2.7.5-3.8,7.9,6.2,14.1,14.1,15.6,24"/>
    <path class="st0" d="M74,344c-.7-4.3-.7-8.7.2-13,.9-4.3,3.3-8.1,6.9-10.7,1.4,3.2.8,6.9-.2,10.2-1.5,5.2-3.8,10-6.9,14.4"/>
    <path class="st0" d="M81.7,357.9c-4.7.6-8.8,3-12.3,6.2s-6,7.4-7,12.1c4.6-.3,8.5-3.5,11.3-7.2s4.8-7.6,7.9-11"/>
    <path class="st0" d="M83.4,360.1c-3.8-9.5-2.4-20.3,3.5-28.7,2.7,9.5,1.7,20.2-3.5,28.7"/>
    <path class="st0" d="M93.6,372.2c-8.8-.6-17.1,4.2-21,12.1-.3.5-.5,1.2,0,1.6s.9.5,1.4.4c4.1-.3,7.8-2.8,10.8-5.6s5.7-6.1,9-8.5"/>
    <path class="st0" d="M93.3,371.6c-2.2-7.1-2.3-14.6-.4-21.8.8-2.8,2.1-5.8,4.7-7.1.2-.1.5-.2.7-.1s.4.3.4.5c.9,2,1.2,4.1,1.1,6.2-.2,2.1-.5,4.3-1,6.3-.8,3.9-1.2,8-3.4,11.4-.5.8-1,1.6-1.3,2.5-.4.8-.4,1.1-.8,1.8"/>
    <path class="st0" d="M120.3,375.6c-2-7.6,0-16.9,4.9-23.1.3-.5.8-1,1.4-.9.9,0,1.1,1.3,1.1,2.1-.4,7.8-2.9,15.4-7.4,21.9"/>
    <path class="st0" d="M122.8,377.3c9.3,2.4,19.9,0,27.6-5.6-4.6-2.3-9.9-3-14.9-1.8-5,1.1-9.5,3.4-12.7,7.4"/>
    <path class="st0" d="M124.8,372.2c5.2-8.5,15.1-14,25-14.5-1.1,4-4.4,7.2-8.2,9s-7.9,2.7-12,3.5c-1.6.3-3.8.6-4.8,1.9"/>
    <path class="st0" d="M120.9,347.6c1.6-4.8,2.6-9.7,3.2-14.6.4-5-.3-10.2-2.9-14.5-4.8,9.4-5.3,20.3-.4,29.7"/>
    <path class="st0" d="M137.2,339.4c5.7-10.3,17.2-18.5,28.9-19.7-4.5,11.2-16.8,19.9-28.9,19.7"/>
    <path class="st0" d="M133.6,341.4c8.4,1.3,15.6,6.7,23.5,10,1.7.8,3.5,1.1,5.3,1,2.3,0,4.1-1.9,4.1-4.2s-.6-2.4-1.5-3.1c-1.1-1-2.4-1.8-3.9-2.3-8.6-3.6-17.8-3.7-26.9-1.5"/>
    <path class="st0" d="M128.7,347.3c1.9.5,2.6,1.5,4.1,2.8,5.2,4.4,11.3,7.5,17.9,9.2.7.2,1.6.2,1.9-.4s0-1.2-.5-1.7c-2.9-3.4-6.6-5.9-10.8-7.3-4.1-1.5-7.7-3.4-12.6-3"/>
    <path class="st0" d="M123.2,311.5c7,6.5,16.4,9.7,25.9,8.8.4,0,.9-.1,1.2-.4.6-.7-.1-1.8-.9-2.4-7.6-5.9-16.8-8.4-26.2-6"/>
    <path class="st0" d="M129.7,309.1c9.3-6.8,21.3-8.8,32.3-5.3-4.2,3.9-9.7,6.3-15.4,6.8s-11.4,0-16.9-1.4"/>
    <path class="st0" d="M127.1,292.7c-.8-7.6-.3-13.6-.8-21.2,0-.6-.2-1.3-.8-1.6-.8-.3-1.4.7-1.7,1.5-2.2,7.2-1.1,15,3.2,21.1"/>
    <path class="st0" d="M126.6,293.5c5-3.2,9.2-7.4,12.6-12.2,2.5-3.4,4.6-7.5,4-11.6-3.5,0-6.9,1.7-9.1,4.5-2.2,2.7-3.8,5.9-4.6,9.3-1,3.3-1.7,6.8-2.9,10.1"/>
    <path class="st0" d="M139,290.1c11.3-4.2,21.8-10.4,31-18.3-3.7-1.5-7.9-.6-11.6.9-8.4,3.4-15.4,9.2-19.5,17.3"/>
    <path class="st0" d="M130.1,297.7c5.7.6,11.5,1,17.2,0s10.8-3.1,16-5.3c.5-.1.9-.4,1.1-.8.2-.5,0-1-.4-1.4-.4-.3-.9-.5-1.4-.6-5.7-1.6-11.8-.9-17.4,1-5.3,1.8-10.4,4.2-15.2,7.1"/>
    <path class="st0" d="M97.4,311.8c-3.9-7.9-3.7-17.1-.3-25.2,2.4,3.6,2.7,8.2,2.2,12.5s-1.8,8.7-1.8,13"/>
    <path class="st0" d="M81.8,303.9c-9.9-.1-19.3,3.9-26.1,11.1,4.9.8,9.9-.5,14.3-2.6,4.3-2.3,8.4-5.1,12.2-8.2"/>
    <path class="st0" d="M71.4,300.4c-4.8-.4-9.3-1-13.9.4s-8.8,4.6-10.6,9c4.5.4,9-.5,13.1-2.5,4-2,7.9-4.3,11.5-7"/>
    <path class="st0" d="M86.9,300.6c-4.3-2.8-8.7-5.7-13.7-6.8s-10.8-.3-14.3,3.5c4,2.4,8.9,2.6,13.6,2.6s10.4,0,14.8,1.5"/>
    <path class="st0" d="M86.9,300.8c-7.3-7.2-10.1-20.1-7.2-30,5.8,8.9,8.3,19.5,7.2,30"/>
    <path class="st0" d="M107.1,280.4c1.4-3.2,2.3-6.6,3.6-9.9,1.1-3.3,2.9-6.4,5.1-9.1,2.3-2.7,5.6-4.4,9.1-4.7-2.3,10-8.7,18.6-17.6,23.7"/>
    <path class="st0" d="M103.4,284.7c-2.3-3.1-4.9-7.4-8-9.8s-7.1-3.8-10.9-2.9c4,7,11,11.7,19,12.6"/>
    <path class="st0" d="M104.1,280.7c-1.6-3.7-2.9-7.7-3.6-11.7-.7-4.1,0-8.3,1.8-11.9,4,7.6,5.3,15.8,2,23.7"/>
    <path class="st0" d="M107.1,257.1c2.3-7.5,9.2-13.1,16.6-15.6.9-.4,1.9-.5,2.9-.4s1.9.8,2.1,1.8c.3,1.3-.8,2.4-1.8,3.3-5.8,5-12.6,8.7-19.9,11"/>
    <path class="st0" d="M107.2,250.9c.3-4.9.6-9.8,2.2-14.4s4.6-8.9,9.1-10.9c.8,4.9-1.4,9.8-4,14s-5.8,8.2-7.3,12.9"/>
    <path class="st0" d="M107.1,254.2c-1.9-5.5-2.1-12.5-5.4-17.3-2.3-3.3-6-5.6-8-9.2-1.2,3.4-1,7.1.5,10.4,1.5,3.2,3.6,6.2,6.1,8.7,2.4,2.6,4.5,4.6,6.8,7.3"/>
    <path class="st0" d="M107.1,416c0,0-.3-36.6-.3-81.9s0-81.9.2-81.9.3,36.6.3,81.9,0,81.9-.2,81.9Z"/>
    <path class="st0" d="M139.1,306.2c-.4.2-.9.4-1.4.5l-3.8,1.2c-3.2,1.1-7.6,2.7-12.4,4.6s-9.2,3.7-11.7,5.9c-1,.8-1.8,1.9-2.3,3.1-.4.9-.4,1.4-.5,1.4s0-.1,0-.4,0-.7.3-1.1c.5-1.3,1.3-2.4,2.3-3.3,1.5-1.3,3.2-2.4,5.1-3.2,2-.9,4.3-1.9,6.7-2.9,4.8-2,9.2-3.5,12.4-4.5,1.6-.5,2.9-.9,3.9-1.1s1-.2,1.4-.3h0Z"/>
    <path class="st0" d="M149.6,280.5c-.1.2-.2.3-.4.4l-1.2,1.1-4.4,4-14.6,13c-5.7,5.1-10.6,9.9-14,13.6-1.7,1.8-3.1,3.3-4,4.4l-1,1.2c-.2.3-.4.4-.4.4,0,0,0-.2.3-.5s.6-.7,1-1.3c.9-1.1,2.2-2.6,3.9-4.5,4.4-4.8,9.1-9.4,14-13.7,5.7-5.1,10.9-9.6,14.7-12.9l4.5-3.9,1.2-1c.1-.1.2-.3.4-.4h0Z"/>
    <path class="st0" d="M122.9,304.1c-.2,0,1.1-2.8,2.2-6.3s1.8-6.4,1.9-6.4c0,2.2-.6,4.5-1.4,6.6-.5,1.5-1.1,3-1.8,4.4-.2.6-.6,1.2-1,1.7h.1Z"/>
    <path class="st0" d="M107.1,326.3c-.3-.3-.6-.6-.9-1l-2.2-2.9c-1.9-2.4-4.5-5.8-7.4-9.5s-5.6-7-7.6-9.4l-2.3-2.9c-.3-.3-.6-.7-.8-1.1.4.3.7.6,1,1,.6.6,1.4,1.6,2.4,2.7,2,2.3,4.8,5.6,7.7,9.3s5.5,7.1,7.3,9.6c.9,1.2,1.6,2.3,2.1,3,.2.3.5.7.7,1.1h0Z"/>
    <path class="st0" d="M100.1,317.3c-1.4-1.6-2.4-3.5-2.9-5.5-.5-1.8-.8-3.7-.7-5.5h.2c0,.4-.2.6-.2.6v-.7h.2c0,1.8.4,3.6.9,5.4.7,2,1.5,3.9,2.4,5.7h0Z"/>
    <path class="st0" d="M91,305.9c-.6-.5-1.3-.9-2-1.2-1.8-.6-3.8-.7-5.7-.5-1.9.1-3.9.5-5.7.9-.8.2-1.6.4-2.4.6.7-.4,1.5-.7,2.3-.9,1.9-.6,3.8-.9,5.8-1.1,2-.3,4,0,5.9.6.8.3,1.4.8,1.9,1.5h-.1Z"/>
    <path class="st0" d="M88.9,303.1s-1.2-.5-3.2-1.1c-2.5-.9-5.2-1.4-7.8-1.6-2.7-.2-5.4,0-8,.4-2,.4-3.2.8-3.3.7.3-.2.5-.3.8-.4.8-.3,1.6-.5,2.4-.7,5.4-1.2,10.9-.8,16.1,1.2.8.3,1.5.6,2.2,1,.3.1.5.3.8.5Z"/>
    <path class="st0" d="M107.1,291.5c-.9-2.6-1.7-5.3-2.3-8-.8-2.7-1.4-5.4-1.8-8.1.9,2.6,1.7,5.3,2.3,8,.8,2.7,1.4,5.4,1.8,8.1Z"/>
    <path class="st0" d="M107.2,291.5c-.7-1.6-1.6-3.2-2.5-4.8-1.1-1.4-2.3-2.7-3.8-3.9.5.1,1,.4,1.4.7,1.1.8,2,1.7,2.7,2.8,1.1,1.5,1.9,3.2,2.1,5.1h.1Z"/>
    <path class="st0" d="M107.1,396.5s-.2-.9-.6-2.4c-.6-2.2-1.4-4.3-2.4-6.3-2.5-5.2-7.1-11.7-13-18.3-2.9-3.3-5.7-6.4-8.1-9.4-2.1-2.6-4.1-5.4-5.8-8.4-1.2-2-2.1-4.1-2.9-6.2-.3-.8-.5-1.4-.6-1.8,0-.2,0-.4-.2-.6,0,0,.3.8.9,2.3.9,2.1,1.9,4.1,3.1,6.1,1.7,2.9,3.7,5.6,5.8,8.2,2.4,3,5.2,6.1,8.1,9.4,5.9,6.6,10.5,13.2,12.9,18.5,1,2.1,1.8,4.2,2.3,6.5,0,.6.3,1.2.3,1.8v.6h.2Z"/>
    <path class="st0" d="M136,363.8c-.5.3-1,.6-1.5.9-1.4.8-2.7,1.6-3.9,2.6-1.8,1.4-3.6,3-5.2,4.8-1.8,1.9-3.7,4.1-5.6,6.5-3.8,4.8-7.4,9-9.5,12.4-1.1,1.7-1.9,3.1-2.4,4.1-.2.5-.5,1-.8,1.5,0-.1,0-.3,0-.4,0-.3.3-.7.5-1.2.7-1.4,1.4-2.8,2.3-4.2,2.1-3.5,5.6-7.8,9.4-12.5,1.9-2.4,3.8-4.6,5.7-6.5,1.6-1.7,3.4-3.3,5.3-4.7,1.3-.9,2.6-1.8,4.1-2.5.5-.2.9-.4,1.2-.5.1,0,.3-.1.4-.2h-.1Z"/>
    <path class="st0" d="M136.6,374.4c-1.1.2-2.1.4-3.2.5-2.6.3-5.1.8-7.6,1.5-2.5.8-4.8,2-6.8,3.6-1.6,1.2-2.3,2.2-2.4,2.2s0-.3.5-.7c.5-.6,1.1-1.2,1.7-1.7,2-1.7,4.4-3,6.9-3.8,2.5-.8,5.1-1.2,7.7-1.4,1.1-.1,2.2-.2,3.2,0v-.2Z"/>
    <path class="st0" d="M117.5,380.9c-.2,0,1.3-2.3,2.4-5.3s1.3-5.6,1.5-5.6c0,.6,0,1.2,0,1.7-.2,1.4-.5,2.7-.9,4.1-.5,1.3-1.1,2.5-1.9,3.7-.3.5-.6,1-1.1,1.4h0Z"/>
    <path class="st0" d="M145.4,335.3c-.2.1-.3.2-.5.3l-1.5.7c-.7.3-1.5.6-2.4,1.1s-2,1-3.1,1.6l-1.8,1c-.6.4-1.2.8-1.8,1.2-1.3.8-2.6,1.8-4,2.7-2.9,2.2-5.7,4.6-8.3,7.3-2.5,2.7-4.9,5.5-7,8.5-.9,1.4-1.9,2.7-2.6,4-.4.7-.8,1.3-1.1,1.9l-.9,1.8c-.6,1.1-1.1,2.2-1.5,3.1s-.8,1.7-1,2.4-.5,1.1-.6,1.5c0,.2-.2.4-.3.5,0-.2,0-.4.2-.6,0-.4.3-.9.5-1.6s.5-1.5,1-2.4.8-2,1.4-3.2l.9-1.8c.3-.6.7-1.2,1.1-1.9.7-1.3,1.6-2.7,2.6-4.1,4.2-6.1,9.4-11.5,15.4-15.9,1.4-1,2.7-1.9,4-2.7.6-.4,1.3-.8,1.9-1.1l1.8-1c1.1-.6,2.2-1.1,3.1-1.5s1.7-.8,2.4-1l1.6-.6c.2,0,.4-.1.5-.2h0Z"/>
    <path class="st0" d="M122.5,350.7c.2-.7.7-1.4,1.3-1.9,1.4-1.2,3.2-1.9,5.1-1.9s3.6.3,5.3,1c.7.2,1.4.6,2,1-.7-.1-1.4-.4-2.1-.6-1.7-.6-3.4-.9-5.2-.9s-3.5.6-4.8,1.7c-.5.5-1,1-1.5,1.6h-.1Z"/>
    <path class="st0" d="M119.1,354.2c1.5-2.9,1.9-6.4,1.1-9.6.3.4.5.9.6,1.4.6,2.4.3,4.9-.8,7-.4.8-.8,1.3-.9,1.2Z"/>
    <path class="st0" d="M81.8,401.7c.8,14,5,28.2,11.5,42.6h28.2c6.2-14.3,10.1-28.5,10.8-42.6h-50.6,0Z"/>
    <path class="st8" d="M127.7,424.4c0,.1-9.3.3-20.8.3s-20.8-.1-20.8-.3,9.3-.3,20.8-.3,20.8.1,20.8.3Z"/>
    <path class="st8" d="M127.1,429.5c0,.1-8.7.3-19.5.3s-19.5-.1-19.5-.3,8.7-.3,19.5-.3,19.5.1,19.5.3Z"/>
    <path class="st8" d="M93.7,410.9c.3,4.3.3,8.7,0,13-.4-4.3-.4-8.7,0-13Z"/>
    <path class="st8" d="M108.8,410.9c.4,4.5.4,9,0,13.5-.3-4.5-.3-9,0-13.5Z"/>
    <path class="st8" d="M123.1,410.8c.4,4.6.4,9.2,0,13.7-.3-4.6-.3-9.2,0-13.7Z"/>
    <path class="st8" d="M131.4,410.9c0,.1-10.9.3-24.3.3s-24.3-.1-24.3-.3,10.9-.3,24.3-.3,24.3.1,24.3.3Z"/>
    <path class="st12" d="M688.5,258.2l-41.8-13.5c-2.9-.9-4.5-4-3.5-6.9l18.7-57.9c.9-2.9,4-4.5,6.9-3.5h0l26.5,8.6,13.7,27.8-13.6,41.9c-.9,2.9-4,4.5-6.9,3.5h0Z"/>
    <path class="st2" d="M695.3,184.9l-5.3,16.3c-.9,2.7.6,5.6,3.3,6.4l15.7,5.1-13.7-27.8Z"/>
    <path class="st6" d="M686.8,199.4c0,.2-4.5-1-9.8-2.8s-9.6-3.3-9.6-3.5,4.5,1,9.8,2.8,9.6,3.3,9.5,3.5h0Z"/>
    <path class="st6" d="M696.3,212.7c0,.2-7.3-1.9-16-4.8s-15.9-5.3-15.8-5.5,7.2,1.9,16,4.8,15.8,5.3,15.8,5.5Z"/>
    <path class="st6" d="M696.7,221.3c0,.2-7.9-2.1-17.5-5.2s-17.3-5.8-17.2-6,7.9,2.1,17.5,5.2,17.3,5.8,17.2,6Z"/>
    <path class="st6" d="M694.3,228.6c0,.2-7.9-2.1-17.5-5.2s-17.3-5.8-17.2-6,7.9,2.1,17.5,5.2,17.3,5.8,17.2,6Z"/>
    <path class="st6" d="M692,235.8c0,.2-7.9-2.1-17.5-5.2s-17.3-5.8-17.2-6,7.9,2.1,17.5,5.2,17.2,5.8,17.2,6Z"/>
    <path class="st6" d="M689.6,243.1c0,.2-7.9-2.1-17.5-5.2s-17.3-5.8-17.2-6,7.9,2.1,17.5,5.2,17.3,5.8,17.2,6Z"/>
    <polygon class="st12" points="572.1 411.7 572.1 445.4 621.3 445.4 675.6 445.4 675.6 411.7 572.1 411.7"/>
    <polygon class="st0" points="567.8 402.3 567.8 411.7 679.2 411.7 679.2 402.3 621.3 402.3 567.8 402.3"/>
    <polygon class="st0" points="623.5 445.4 675.6 445.4 675.6 411.7 679.2 411.7 679.2 402.3 621.3 402.3 621.3 410.8 623.5 445.4"/>
    <rect class="st0" x="586.6" y="417.1" width="21" height="5.1"/>
    <rect class="st6" x="583.9" y="428.5" width="26.9" height="10.7"/>
    <polygon class="st12" points="588 368.7 588 402.4 637.2 402.4 691.5 402.4 691.5 368.7 588 368.7"/>
    <polygon class="st0" points="583.7 359.3 583.7 368.7 695.1 368.7 695.1 359.3 637.2 359.3 583.7 359.3"/>
    <polygon class="st0" points="639.4 402.4 691.5 402.4 691.5 368.7 695.1 368.7 695.1 359.3 637.2 359.3 637.2 367.9 639.4 402.4"/>
    <rect class="st0" x="602.5" y="374.1" width="21" height="5.1"/>
    <rect class="st6" x="599.8" y="385.5" width="26.9" height="10.7"/>
  </g>
  <g id="freepik--Floor--inject-25">
    <path class="st3" d="M692.3,444.4c0,.1-141.2.3-315.3.3s-315.4-.1-315.4-.3,141.2-.3,315.4-.3,315.3.1,315.3.3Z"/>
  </g>
  <g id="freepik--Sheets--inject-25">
    <path class="st7" d="M96.2,157.2l-47.9-15.5c-3.3-1.1-5.1-4.6-4-7.9l21.5-66.3c1.1-3.3,4.6-5.1,7.9-4.1h0l30.4,9.8,15.7,31.8-15.6,48.1c-1.1,3.3-4.6,5.1-7.9,4.1h0Z"/>
    <path class="st7" d="M104,73.3l-6,18.7c-1,3.1.7,6.4,3.8,7.4h0l17.9,5.8-15.7-31.8h0Z"/>
    <g class="st10">
      <path d="M97.6,93.6s-1.7,4.4,3,7.6c.2,0,.4.2.6.3,2.2,1.2,16.7,8.9,16.9,8.6l1.6-5-18-5.8s-4.4-1.6-4.1-5.7Z"/>
    </g>
    <g class="st11">
      <path class="st6" d="M104,73.3l-6,18.7c-1,3.1.7,6.4,3.8,7.4h0l17.9,5.8-15.7-31.8h0Z"/>
    </g>
    <path class="st8" d="M94.2,89.8c0,.2-5.1-1.2-11.2-3.2s-11-3.8-10.9-4,5.1,1.2,11.2,3.2,11,3.8,10.9,4Z"/>
    <path class="st8" d="M105.1,105c0,.2-8.3-2.2-18.4-5.5s-18.2-6.1-18.1-6.3,8.3,2.2,18.4,5.5,18.2,6.1,18.1,6.3Z"/>
    <path class="st8" d="M105.5,114.9c0,.2-9-2.4-20-6s-19.8-6.6-19.8-6.9,9,2.4,20,6,19.8,6.7,19.8,6.9Z"/>
    <path class="st8" d="M102.8,123.2c0,.2-9-2.4-20-6s-19.8-6.6-19.8-6.9,9,2.4,20,6,19.8,6.6,19.8,6.9Z"/>
    <path class="st8" d="M100.1,131.5c0,.2-9.1-2.4-20-6s-19.8-6.6-19.7-6.9,9,2.4,20,6,19.8,6.6,19.7,6.9Z"/>
    <path class="st8" d="M97.4,139.8c0,.2-9-2.4-20-6s-19.8-6.6-19.8-6.8,9,2.4,20,6,19.8,6.6,19.8,6.8Z"/>
    <path class="st7" d="M677.3,96.4l-52.3,10.7c-2.5.5-5-1.1-5.5-3.7l-14.4-70.4c-.5-2.5,1.1-5,3.6-5.5h0l36.5-7.5,24.4,15.6,11.3,55.2c.5,2.5-1.1,5-3.6,5.6h0Z"/>
    <path class="st7" d="M645.2,19.9l2.9,14c.7,3.5,4.1,5.7,7.5,5h0l14-3.2s-24.4-15.8-24.4-15.8Z"/>
    <path class="st6" d="M666.6,84.1c0-.2,0-.4-.2-.7,0-.5-.2-1.1-.4-1.8-.4-1.7-.9-4-1.5-7l-5.2-24.8.3.2-35.6,7.4s.5-.8.3-.4h0v.6l.2.6.2,1.2c.2.8.3,1.6.5,2.3.3,1.5.6,3.1.9,4.6l1.9,8.9c1.2,5.8,2.3,11.2,3.3,16.2l-.3-.2,25.7-5.1,7.3-1.4,1.9-.4c.2,0,.5,0,.7,0-.2,0-.4,0-.6.2l-1.9.4-7.2,1.6-25.9,5.5h-.3v-.2c-1-5-2.2-10.4-3.3-16.2-.6-2.9-1.2-5.8-1.8-8.8s-.6-3-.9-4.6l-.5-2.3-.2-1.2v-.6c0,0-.2-.3-.2-.3h0v-.3h0c-.2.3.3-.5.3-.4l35.7-7.3h.3v.2l5,25c.6,3,1,5.3,1.3,6.9,0,.8.2,1.4.3,1.8v.6h0Z"/>
    <path class="st6" d="M648.5,88.2c-.2,0-1.9-7.6-3.8-17.1s-3.4-17.2-3.2-17.2,1.9,7.6,3.8,17.1c1.9,9.5,3.4,17.2,3.2,17.2Z"/>
    <path class="st6" d="M664.7,75.7c0,.2-8,2-17.8,4s-17.9,3.5-17.9,3.3,8-2,17.8-4,17.9-3.5,17.9-3.3Z"/>
    <path class="st6" d="M663.3,66.9c0,.2-7.9,2-17.8,4s-17.9,3.5-18,3.3,7.9-2,17.8-4,18-3.5,18-3.3Z"/>
    <path class="st6" d="M661.3,58.2c0,.2-7.9,2-17.7,4-9.8,2-17.8,3.5-17.8,3.3s7.9-2,17.7-4,17.8-3.5,17.8-3.3Z"/>
    <g class="st11">
      <path class="st6" d="M645.2,19.9l2.9,14c.7,3.5,4.1,5.7,7.5,5h0l14-3.2s-24.4-15.8-24.4-15.8Z"/>
    </g>
  </g>
  <g id="freepik--Device--inject-25">
    <path class="st14" d="M595.3,58.8H158.7c-7.5,0-13.6,6.1-13.6,13.6h0v308.4c0,7.5,6.1,13.6,13.6,13.6h167.5s10.7,33-22.4,50h156.7s-37.3-12.8-27.7-50h162.4c7.5,0,13.6-6.1,13.6-13.6h0V72.4c0-7.5-6.1-13.6-13.6-13.6h.1Z"/>
    <path class="st3" d="M382.8,361.9c5.9,8.5-3.4,17.8-11.9,11.8-.3-.2-.5-.4-.7-.7-5.9-8.5,3.4-17.8,11.9-11.8.3.2.5.4.7.7Z"/>
    <path class="st6" d="M162.3,64.4h429.4c5.4,0,9.7,4.3,9.7,9.7h0v263.8H152.6V74.1c0-5.3,4.3-9.7,9.7-9.7Z"/>
    <path class="st2" d="M161.8,64.4h432.1c4.2,0,7.5,3.4,7.5,7.5h0v15.2H152.6v-13.6c0-5.1,4.1-9.2,9.1-9.2h0Z"/>
    <circle class="st0" cx="166.9" cy="76.2" r="3.1"/>
    <circle class="st0" cx="176.3" cy="76.2" r="3.1"/>
    <circle class="st0" cx="185.2" cy="76.2" r="3.1"/>
    <path class="st3" d="M517.2,394.4c0,.1-62.1.3-138.7.3s-138.7-.1-138.7-.3,62.1-.3,138.7-.3,138.7.1,138.7.3Z"/>
  </g>
  <g id="freepik--Documents--inject-25">
    <rect class="st12" x="514.7" y="131.1" width="139.6" height="148.3" rx="11.8" ry="11.8"/>
    <path class="st6" d="M648,278.4h0v-133.9h6.3v124.3c0,4.9-5,9.9-6.3,9.5h0Z"/>
    <path class="st0" d="M526.6,131.1h115.8c6.6,0,11.9,5.3,11.9,11.9v1.4h-139.6v-1.4c0-6.6,5.3-11.9,11.9-11.9Z"/>
    <path class="st0" d="M651.2,159h0c1.7,0,3.2,1.4,3.2,3.1v17.7c0,1.7-1.4,3.1-3.2,3.1h0c-1.7,0-3.2-1.4-3.2-3.1v-17.7c0-1.7,1.4-3.1,3.2-3.1Z"/>
    <path class="st3" d="M642,279.4h1.5c5.3-.6,9.5-4.6,10.6-9.8.2-1.6.3-3.3.2-4.9v-117.5c0-1.9,0-3.9-.2-5.8-.7-3.9-3.3-7.3-6.9-8.9-1.8-.8-3.8-1.2-5.8-1.1h-114.1c-1.2,0-2.3.2-3.5.5-2.2.7-4.2,2-5.8,3.8-1.5,1.8-2.5,4-2.7,6.3,0,1.2,0,2.3,0,3.5v122.5c.2,3.7,2.2,7.2,5.3,9.2,1.5,1,3.2,1.6,5,1.9,1.8.1,3.6.2,5.3.1h105.8c0,.1,5.6.1,5.6.1h-81.2c0,.1-30.2.1-30.2.1-1.8,0-3.6,0-5.4-.1-1.8-.3-3.6-1-5.2-2-3.2-2.2-5.3-5.7-5.5-9.6v-122.2c0-1.2,0-2.4,0-3.6.2-1.2.5-2.4,1-3.5s1.1-2.1,1.9-3.1c.8-.9,1.7-1.7,2.7-2.4s2.1-1.2,3.3-1.5,2.4-.5,3.6-.5h114.1c2.1,0,4.1.3,6,1.1,3.8,1.7,6.5,5.2,7.2,9.2.2,1,.2,2,.2,3v120.3c0,1.7,0,3.3-.3,5-.3,1.4-.9,2.8-1.7,4-2,3.2-5.3,5.3-9.1,5.7h-1.6v.2Z"/>
    <rect class="st14" x="523.5" y="151.1" width="117.9" height="114.1"/>
    <g class="st11">
      <path d="M603.3,185.2c0,4.7-3.8,8.5-8.5,8.5s-8.5-3.8-8.5-8.5,3.8-8.5,8.5-8.5h0c4.7,0,8.5,3.8,8.5,8.5Z"/>
    </g>
    <g class="st11">
      <path d="M632.3,160h-99.6c0-.2-1.1,1-.6.5v95.7h.5l72.3-.2h20.2c0-.1,5.3-.2,5.3-.2h1.8l-24.2-41.4-16.2,19.8-26.7-37.5-32.1,58.5v-94.1h98.6c0,28.2.2,51.8.2,68.3s0,14.9,0,19.4v7-6.7c0-4.5,0-11,0-19.3,0-16.7.2-40.6.2-69.2v-.5h-.3.4Z"/>
    </g>
    <ellipse class="st6" cx="527.4" cy="138.3" rx="2.5" ry="2.4"/>
    <ellipse class="st6" cx="534.8" cy="138.3" rx="2.5" ry="2.4"/>
    <ellipse class="st6" cx="542.3" cy="138.3" rx="2.5" ry="2.4"/>
    <rect class="st12" x="121.7" y="131.2" width="111" height="153.3" rx="6.6" ry="6.6"/>
    <path class="st0" d="M129.4,131.2h95.7c4.2,0,7.7,3.4,7.7,7.7h0v6.2h-111v-6.2c0-4.2,3.4-7.6,7.6-7.7Z"/>
    <circle class="st6" cx="128.8" cy="138.1" r="2.2"/>
    <path class="st6" d="M137.6,138.1c0,1.2-1,2.2-2.2,2.2s-2.2-1-2.2-2.2,1-2.2,2.2-2.2,2.2,1,2.2,2.2h0Z"/>
    <circle class="st6" cx="142.1" cy="138.1" r="2.2"/>
    <rect class="st6" x="126.8" y="145" width="101" height="136.5"/>
    <path class="st0" d="M230.3,184.7h0c-1.4,0-2.5-1.1-2.5-2.5h0v-19.8c0-1.4,1.1-2.5,2.5-2.5h0c1.4,0,2.5,1.1,2.5,2.5v19.8c0,1.4-1.1,2.5-2.5,2.5s0,0,0,0Z"/>
    <path class="st3" d="M220.5,284.5c1.7,0,3.4-.4,5-1.1,1.9-.9,3.6-2.2,4.8-3.9.8-1.1,1.4-2.3,1.8-3.5.4-1.5.6-3,.6-4.5v-124.9c0-1.9,0-3.7-.3-5.6-.4-1.8-1.2-3.5-2.4-5-2.4-3-6.1-4.7-10-4.5h-91.3c-3.3.1-6,2.6-6.5,5.8,0,1.1,0,2.2,0,3.2v136.6c0,3.2,2.3,6.1,5.4,6.9.7.2,1.5.3,2.3.2h85.5c0,.1,5.2.1,5.2.1h-75c0,.1-15.8.1-15.8.1-.8,0-1.6,0-2.4-.2-3.3-.8-5.7-3.8-5.8-7.2v-139.9c.3-2.3,1.7-4.3,3.7-5.4,1-.5,2.1-.9,3.3-.9h91.3c4-.2,7.9,1.6,10.4,4.7,1.2,1.5,2,3.3,2.5,5.2,0,.5.2.9.2,1.4v129c0,1.5-.2,3.1-.6,4.5-1.1,3.3-3.5,6.1-6.7,7.5-1.2.5-2.5.9-3.8,1-1,.2-1.4.2-1.4.2v.2Z"/>
    <path class="st3" d="M162.3,199.8c0,.1-5.6.3-12.4.3s-12.4-.1-12.4-.3,5.6-.3,12.4-.3,12.4.1,12.4.3Z"/>
    <path class="st3" d="M156.9,207c-3.2.3-6.5.3-9.7.3s-6.5,0-9.7-.3c3.2-.3,6.5-.3,9.7-.3s6.5,0,9.7.3Z"/>
    <path class="st3" d="M159.1,215.1c0,.1-4.8.3-10.8.3s-10.8-.1-10.8-.3,4.8-.3,10.8-.3,10.8.1,10.8.3Z"/>
    <path class="st3" d="M162.3,222.3c0,.1-5.6.3-12.4.3s-12.4-.1-12.4-.3,5.6-.3,12.4-.3,12.4.1,12.4.3Z"/>
    <path class="st3" d="M156.9,230.4c-3.2.3-6.5.3-9.7.3s-6.5,0-9.7-.3c3.2-.3,6.5-.4,9.7-.3,3.2,0,6.5,0,9.7.3Z"/>
    <path class="st3" d="M154,237.6c-2.7.3-5.5.3-8.3.3s-5.5,0-8.3-.3c2.7-.3,5.5-.4,8.3-.3,2.8,0,5.5,0,8.3.3Z"/>
    <path class="st3" d="M212,190.5c0,.1-17.3.3-38.7.3s-38.7-.1-38.7-.3,17.3-.3,38.7-.3,38.7.1,38.7.3Z"/>
    <path class="st3" d="M178.4,251.8c-.1,0-.3-16.9-.3-37.8s.1-37.8.3-37.8.3,16.9.3,37.8-.1,37.8-.3,37.8Z"/>
    <path class="st3" d="M195.2,251.8c-.1,0-.3-16.9-.3-37.8s.1-37.8.3-37.8.3,16.9.3,37.8-.1,37.8-.3,37.8Z"/>
    <path class="st3" d="M212,251.8c-.1,0-.3-16.9-.3-37.8s.1-37.8.3-37.8.3,16.9.3,37.8-.1,37.8-.3,37.8Z"/>
    <path class="st3" d="M167.3,182.9c0,.1-6.6.3-14.7.3s-14.7-.1-14.7-.3,6.6-.3,14.7-.3,14.7.1,14.7.3Z"/>
    <path class="st3" d="M191,182.9c-1.4.3-2.8.3-4.1.3s-2.8,0-4.1-.3c1.4-.3,2.8-.3,4.1-.3s2.8,0,4.1.3Z"/>
    <path class="st3" d="M208.4,182.9c-1.4.3-2.8.3-4.1.3s-2.8,0-4.1-.3c2.7-.3,5.5-.3,8.3,0h0Z"/>
    <path class="st3" d="M211.5,245.7c0,.1-16.2.3-36.3.3s-36.2-.1-36.2-.3,16.2-.3,36.2-.3,36.3.1,36.3.3Z"/>
    <path class="st3" d="M206,248.8c-2.1.3-4.3.3-6.5,0,2.1-.3,4.3-.3,6.5,0Z"/>
    <path class="st3" d="M212.9,254.3c0,.1-10,.3-22.4.3s-22.4-.1-22.4-.3,10-.3,22.4-.3,22.4.1,22.4.3Z"/>
    <path class="st3" d="M218.7,266.2h-.6l-1.7.2-6.5.4-23.4,1.3h-.8l.7-.4c2.8-1.7,5.9-2.7,9.2-2.9,1.7,0,3.5,0,5.2.5.9.2,1.7.5,2.6.9.9.4,1.5,1.2,1.8,2.2.3,2-.7,4-2.6,4.8-1.8.8-3.8,1.1-5.7.9-2,0-4-.7-5.6-1.8-1.7-1.2-2.8-3.2-2.9-5.3,0-1.9,1-3.7,2.6-4.8,1.5-1,3.3-1.6,5.2-1.6,3.5,0,6.9.6,10.2,1.8,1.5.6,3,1.3,4.4,2.2.8.4,1.4.9,1.9,1.6.3.4.4.9.3,1.3-.2.5-.6.8-1.1.8-.8,0-1.6-.2-2.3-.6-.7-.3-1.4-.7-2-1.1-1.3-.8-2.4-1.7-3.4-2.8l.4-.2c.2.5.1,1.1-.1,1.6-.3.5-.6.8-1.1,1.1-.8.6-1.9.7-2.9.4-.9-.3-1.7-.9-2.3-1.6s-1.1-1.4-1.6-2.1l.3-.2c.3,1.1-.2,2.2-1.1,2.7-.8.6-1.8.8-2.8.5-.9-.3-1.6-.8-2.2-1.5-.5-.6-1-1.3-1.3-2.1h.3c-.9,2.3-1.8,4.2-2.5,5.9v.3c-.1,0-.2-.3-.2-.3-.9-2.3-1.5-4-2-5.2l-.5-1.4c0-.1-.1-.3-.1-.5,0,.1.2.3.2.4.1.3.3.8.6,1.3l2.1,5.2h-.2c.7-1.7,1.5-3.6,2.4-5.9v-.3c.1,0,.3.3.3.3.6,1.5,1.8,2.8,3.3,3.4.8.2,1.8,0,2.5-.5.8-.5,1.2-1.4,1-2.3l-.4-1.2.8,1.1c.9,1.4,2,2.9,3.7,3.5.8.3,1.8.1,2.5-.3.8-.4,1.2-1.3,1-2.2l-.3-.9.7.7c1,1,2.2,2,3.4,2.7.6.4,1.3.8,2,1.1.6.4,1.3.6,2.1.6s.6-.2.7-.5c0-.3,0-.7-.2-.9-.5-.6-1.1-1.1-1.8-1.4-1.4-.8-2.9-1.6-4.4-2.2-3.2-1.2-6.6-1.9-10-1.8-1.7,0-3.4.6-4.9,1.5-1.5,1-2.4,2.6-2.4,4.4.1,1.9,1.1,3.7,2.7,4.9,1.6,1.1,3.4,1.7,5.4,1.7,1.9.2,3.7-.1,5.4-.9.8-.4,1.4-1,1.9-1.7.4-.7.6-1.6.4-2.5-.2-.8-.8-1.5-1.5-1.9-.8-.4-1.6-.7-2.4-.8-1.6-.4-3.3-.6-5-.5-3.2.1-6.3,1.1-9,2.7v-.4c-.1,0,23.3-1.1,23.3-1.1l6.5-.3h2.3-.5Z"/>
    <path class="st3" d="M214.8,162.6c0,.1-17.3.3-38.6.3s-38.7-.1-38.7-.3,17.3-.3,38.7-.3,38.6.1,38.6.3h0Z"/>
    <path class="st3" d="M201.2,157.1h1.1c-3.2.2-14.2.3-27.2.3h-20.1l-6.1-.2h-2.2,8.3l20.1-.2c13,0,24,0,27.2.2h0c-.4.1-.8,0-1.1,0h0Z"/>
    <rect class="st12" x="217.8" y="74.2" width="169.7" height="234.3" rx="11.8" ry="11.8"/>
    <path class="st0" d="M229.8,74.2h145.8c6.6,0,11.9,5.3,11.9,11.9v9.2h-169.7v-9.2c0-6.6,5.3-11.9,11.9-11.9h.1Z"/>
    <circle class="st6" cx="228.6" cy="84.8" r="3.4"/>
    <circle class="st6" cx="238.7" cy="84.8" r="3.4"/>
    <circle class="st6" cx="248.9" cy="84.8" r="3.4"/>
    <rect class="st6" x="225.5" y="95.3" width="154.4" height="208.6"/>
    <path class="st0" d="M383.7,156.1h0c-2.1,0-3.8-1.7-3.8-3.8h0v-30.2c0-2.1,1.7-3.8,3.8-3.8h0c2.1,0,3.8,1.7,3.8,3.8v30.2c0,2.1-1.7,3.8-3.8,3.9h0Z"/>
    <path class="st3" d="M375.2,308.6h.5c.5,0,1,0,1.5-.2,2-.3,3.8-1.1,5.4-2.4,2.6-2,4.3-4.9,4.7-8.1.1-1,.1-2,.1-3V88.4c0-1.4,0-2.9-.2-4.3-.9-4.3-4.1-7.8-8.4-9.1-1.4-.4-2.9-.6-4.3-.5h-144.3c-5.1,0-9.7,3.2-11.4,8.1-.5,1.6-.8,3.2-.7,4.9v207.6c0,1.3,0,2.5.3,3.8.3,1.2.7,2.4,1.3,3.5s1.4,2.1,2.3,2.9c1.8,1.7,4.1,2.7,6.5,3.1,1.2.1,2.4.2,3.6.1h135.2c0,.1,8,.1,8,.1h-115.2c0,.1-27.9.1-27.9.1-1.2,0-2.5,0-3.7-.1-1.2-.2-2.5-.5-3.6-1.1-1.1-.5-2.2-1.2-3.1-2.1-.9-.9-1.7-1.9-2.4-3-.6-1.1-1.1-2.3-1.4-3.6-.2-1.3-.3-2.6-.3-3.9V87.4c0-1.7.2-3.4.7-5.1,1.8-5,6.5-8.3,11.8-8.4h144.3c1.5,0,3,0,4.5.6,4.4,1.3,7.7,5,8.6,9.4.2,1.4.3,2.9.2,4.4v206.5c0,1,0,2-.1,3-.4,3.3-2.2,6.2-4.8,8.2-1.6,1.2-3.5,2-5.5,2.3-.5,0-1,.1-1.5.1h-.6v.2Z"/>
    <path class="st3" d="M340.3,110.3h1.6c-4.6.2-20.4.3-39.2.3l-28.8-.2h-11.9,11.9l28.9-.2c18.8,0,34.5,0,39.2.2h0c0,0-1.2,0-1.2,0-.2,0-.3,0-.4-.2h-.1Z"/>
    <path class="st3" d="M366.7,128c0,.1-28.7.3-64,.3s-64.1-.1-64.1-.3,28.7-.3,64.1-.3,64,0,64,.3Z"/>
    <path class="st3" d="M366.7,137.1c0,.1-28.7.3-64,.3s-64.1-.1-64.1-.3,28.7-.3,64.1-.3,64,.1,64,.3Z"/>
    <path class="st3" d="M366.7,146.3c0,.1-28.7.3-64,.3s-64.1-.1-64.1-.3,28.7-.3,64.1-.3,64,.1,64,.3Z"/>
    <path class="st3" d="M366.7,155.5c0,.1-28.7.3-64,.3s-64.1-.1-64.1-.3,28.7-.3,64.1-.3,64,.1,64,.3Z"/>
    <path class="st3" d="M366.7,164.7c0,.1-28.7.3-64,.3s-64.1-.1-64.1-.3,28.7-.3,64.1-.3,64,.1,64,.3Z"/>
    <path class="st3" d="M366.7,173.9c0,.1-28.7.3-64,.3s-64.1-.1-64.1-.3,28.7-.3,64.1-.3,64,.1,64,.3Z"/>
    <path class="st3" d="M366.7,262.8c0,.1-28.7.3-64,.3s-64.1-.1-64.1-.3,28.7-.3,64.1-.3,64,.1,64,.3Z"/>
    <path class="st3" d="M366.7,272c0,.1-28.7.3-64,.3s-64.1-.1-64.1-.3,28.7-.3,64.1-.3,64,.1,64,.3Z"/>
    <path class="st3" d="M366.7,281.2c0,.1-28.7.3-64,.3s-64.1-.1-64.1-.3,28.7-.3,64.1-.3,64,0,64,.3Z"/>
    <path class="st3" d="M366.7,290.4c0,.1-28.7.3-64,.3s-64.1-.1-64.1-.3,28.7-.3,64.1-.3,64,.1,64,.3Z"/>
    <g>
      <rect class="st4" x="245" y="189.5" width="4.5" height="50.6"/>
      <rect class="st4" x="253.8" y="206.7" width="4.5" height="33.4"/>
      <rect class="st4" x="262.5" y="195.8" width="4.5" height="44.5"/>
      <rect class="st4" x="271.3" y="191.5" width="4.5" height="48.6"/>
      <rect class="st4" x="280" y="207.7" width="4.5" height="32.4"/>
      <rect class="st4" x="288.7" y="214.1" width="4.5" height="26"/>
      <rect class="st4" x="297.5" y="194.7" width="4.5" height="45.4"/>
      <rect class="st4" x="306.2" y="202.9" width="4.5" height="37.2"/>
      <rect class="st4" x="315" y="196.4" width="4.5" height="43.7"/>
      <rect class="st4" x="323.7" y="210.3" width="4.5" height="29.8"/>
      <rect class="st4" x="341.1" y="194.7" width="4.5" height="45.4"/>
      <rect class="st4" x="359.7" y="223.9" width="4.5" height="15.5"/>
      <rect class="st4" x="350.6" y="210.3" width="4.5" height="29.8"/>
      <rect class="st4" x="332.5" y="204.6" width="4.5" height="35.5"/>
    </g>
    <path class="st3" d="M365.5,196h-.4l-1.1-.3c-.6-.1-1.2-.2-1.9-.3-.9-.1-1.7-.2-2.6-.2-2.4,0-4.8.1-7.1.6-3.1.7-6,1.8-8.8,3.3-3.3,1.9-6.3,4.3-8.9,7.1-2.8,3.3-5.4,6.9-7.5,10.8-2.4,3.9-4.9,8.2-8.4,11.9-1.8,1.9-3.9,3.5-6.2,4.6-1.2.6-2.5,1-3.8,1.2-1.4.2-2.7.1-4.1-.1-2.6-.6-5.1-1.9-7.1-3.7-2-1.7-3.7-3.6-5.2-5.7-3-4.1-5.2-8.5-7.5-12.5-2-3.9-4.6-7.5-7.5-10.7-1.4-1.4-2.9-2.7-4.6-3.6-.8-.5-1.6-.9-2.5-1.2-.8-.3-1.7-.6-2.5-.8-3.1-.7-6.3-.6-9.3.3-2.3.7-4.4,1.7-6.4,3.1-1.2.9-2.3,1.9-3.4,3l-.8.9-.3.3c0-.1.2-.2.2-.3l.7-.9c1-1.1,2.1-2.2,3.3-3.1,1.9-1.4,4.1-2.5,6.4-3.2,3.1-.9,6.3-1,9.5-.3,3.8.9,7.3,2.8,9.9,5.7,3,3.3,5.5,6.9,7.6,10.8,2.3,4,4.5,8.4,7.5,12.5,1.5,2.1,3.2,4,5.2,5.6,2,1.7,4.3,3,6.9,3.6,1.3.3,2.6.3,3.9.1s2.5-.6,3.7-1.1c2.3-1.1,4.3-2.7,6.1-4.5,3.5-3.6,6-7.9,8.4-11.8,2.2-3.8,4.7-7.5,7.6-10.8,2.6-2.8,5.6-5.2,9-7.1,2.8-1.5,5.8-2.7,8.9-3.3,2.4-.5,4.8-.6,7.1-.5.9,0,1.7.1,2.6.3.6,0,1.3.2,1.9.4l1.1.3c.1,0,.3,0,.4.1v-.5Z"/>
    <path class="st3" d="M240.1,243.6c-.1,0-.2-14.4-.2-32.2s0-32.2.2-32.2.2,14.4.2,32.2,0,32.2-.2,32.2Z"/>
    <path class="st3" d="M364.2,243.6c0,.1-27.2.2-60.7.2s-60.7,0-60.7-.2,27.2-.2,60.7-.2,60.7,0,60.7.2Z"/>
    <path class="st3" d="M251.5,247.6c-2.2.2-4.5.2-6.7,0,2.2-.3,4.5-.3,6.7,0Z"/>
    <path class="st3" d="M262.6,247.8c-2.7.2-5.3.2-8,0,2.7-.3,5.3-.3,8,0Z"/>
    <path class="st3" d="M272.1,247.8c-2.7.2-5.3.2-8,0,2.7-.3,5.3-.3,8,0Z"/>
    <path class="st3" d="M281.6,247.8c-2.7.2-5.3.2-8,0,2.7-.3,5.3-.3,8,0Z"/>
    <path class="st3" d="M291.2,247.8c-2.7.2-5.3.2-8,0,2.7-.3,5.3-.3,8,0Z"/>
    <path class="st3" d="M300.7,247.8c-2.7.2-5.3.2-8,0,2.7-.3,5.3-.3,8,0Z"/>
    <path class="st3" d="M310.2,247.8c-2.7.2-5.3.2-8,0,2.7-.3,5.3-.3,8,0Z"/>
    <path class="st3" d="M319.7,247.8c-2.7.2-5.3.2-8,0,2.7-.3,5.3-.3,8,0Z"/>
    <path class="st3" d="M329.2,247.8c-2.7.2-5.3.2-8,0,2.7-.3,5.3-.3,8,0Z"/>
    <path class="st3" d="M338.7,247.8c-2.7.2-5.3.2-8,0,2.7-.3,5.3-.3,8,0Z"/>
    <path class="st3" d="M347.5,247.8c-2.7.3-5.3.3-8,0,2.7-.3,5.3-.3,8,0Z"/>
    <path class="st3" d="M356.4,247.8c-2.7.3-5.3.3-8,0,2.7-.2,5.3-.2,8,0Z"/>
    <path class="st3" d="M365.2,247.8c-2.7.2-5.3.2-8,0,2.7-.3,5.3-.3,8,0Z"/>
    <path class="st3" d="M286.3,213.1s.5.1.7.9,0,.9-.1,1.3c-.1.3-.4.5-.7.6-.3,0-.6,0-.9-.1-.5-.3-.8-.8-.8-1.4s.3-.9.6-1.2c.2-.2.6-.3.9-.2.2,0,.3.2.3.2,0,0-.5-.1-.9.3-.2.2-.4.6-.4.9s.2.8.6,1c.3.2.7.1.9-.2h0c.2-.3.2-.7.2-1s-.2-.7-.4-1h0Z"/>
    <path class="st3" d="M345.9,196.4h.4c.3.1.6.4.8.7.3.5.4,1.1.2,1.6-.2.7-.8,1.2-1.5,1.3-.4,0-.8-.2-1-.5s-.3-.6-.4-.9c-.1-.5,0-1.1.3-1.6.5-.8,1.2-.8,1.2-.7s-.5.2-.9.9c-.2.4-.2.9-.1,1.3.1.5.5,1,1,1s.9-.4,1.1-.9c.1-.4.1-.9,0-1.3-.2-.4-.5-.7-.9-.9h-.2Z"/>
    <rect class="st12" x="335.7" y="48.2" width="220.7" height="304.8" rx="11.8" ry="11.8"/>
    <path class="st0" d="M347.6,48.2h196.9c6.6,0,11.9,5.3,11.9,11.9v15.5h-220.7v-15.5c0-6.6,5.3-11.9,11.9-11.9Z"/>
    <circle class="st6" cx="349.7" cy="61.9" r="4.4"/>
    <path class="st6" d="M367.2,61.9c0,2.4-2,4.4-4.4,4.4s-4.4-2-4.4-4.4,2-4.4,4.4-4.4h0c2.4,0,4.4,2,4.4,4.4h0Z"/>
    <circle class="st6" cx="376.1" cy="61.9" r="4.4"/>
    <rect class="st6" x="345.7" y="75.6" width="200.8" height="271.3"/>
    <rect class="st0" x="546.5" y="105.4" width="10" height="49.3" rx="4.9" ry="4.9"/>
    <path class="st3" d="M544.2,353h.7c.7,0,1.3-.1,2-.3,2.6-.6,4.9-1.9,6.6-3.9,1.3-1.4,2.2-3.1,2.6-5,.6-2,.3-4.4.4-6.9V62.6c0-1.9,0-3.7-.5-5.6-1.1-3.7-3.8-6.6-7.4-7.9-.9-.3-1.8-.6-2.8-.7-1,0-1.9,0-2.9,0h-194.8c-4.4,0-8.5,2.4-10.6,6.3-1,1.9-1.5,4.1-1.4,6.2v278.3c-.1,1.7,0,3.3.5,4.9s1.3,3,2.3,4.3c2.1,2.5,5.1,4,8.4,4.3,3.2.1,6.4,0,9.6,0h176.9c0,.1,10.5.1,10.5.1h-197c-5.1-.3-9.5-3.8-11.1-8.7-.4-1.6-.6-3.3-.5-5V61c0-2.3.4-4.5,1.5-6.5,2.2-4.1,6.5-6.6,11.1-6.6h197.6c5,.6,9.1,4.1,10.6,8.9.5,1.9.6,3.8.5,5.7v274.2c0,2.5.2,4.9-.4,6.9-.5,1.9-1.4,3.6-2.7,5-1.7,2-4.1,3.3-6.6,3.9-.7.1-1.3.2-2,.2h-.7l-.4.3Z"/>
    <path class="st3" d="M365.3,116.6h30.5l.3,9.2h-1.3c-.6-2.9-1.4-4.8-2.4-5.6s-3-1.3-6.2-1.3h-3v27.6c0,2.1.3,3.4,1,3.9s2.1.8,4.3,1v1h-15.8v-1c2.3-.2,3.7-.6,4.3-1.1s.9-2,.9-4.4v-27h-3c-3,0-5,.4-6.1,1.3s-1.9,2.8-2.4,5.7h-1.4l.3-9.2h0Z"/>
    <path class="st3" d="M503.4,95.1h2.4c-6.5.2-28.7.3-55.1.3h-40.6c0,0-12.3-.2-12.3-.2h-4.5,4.5l12.3-.3h40.6c26.4,0,48.6,0,55.1,0h0c0,0-1.8,0-1.8,0h-.6Z"/>
    <path class="st3" d="M442.8,117c0,0-8.4.3-18.8.3s-18.8,0-18.8-.3,8.4-.3,18.8-.3,18.8,0,18.8.3Z"/>
    <path class="st3" d="M442.8,125.8c0,0-8.4.3-18.8.3s-18.8,0-18.8-.3,8.4-.3,18.8-.3,18.8,0,18.8.3Z"/>
    <path class="st3" d="M442.8,134.7c0,.1-8.4.3-18.8.3s-18.8-.1-18.8-.3,8.4-.3,18.8-.3,18.8.1,18.8.3Z"/>
    <path class="st3" d="M442.8,143.5c0,.1-8.4.3-18.8.3s-18.8-.1-18.8-.3,8.4-.3,18.8-.3,18.8.1,18.8.3Z"/>
    <path class="st3" d="M442.8,152.4c0,.1-8.4.3-18.8.3s-18.8-.1-18.8-.3,8.4-.3,18.8-.3,18.8.1,18.8.3Z"/>
    <path class="st3" d="M442.8,161.2c0,.1-17.8.3-39.6.3s-39.6-.1-39.6-.3,17.7-.3,39.6-.3,39.6.1,39.6.3Z"/>
    <path class="st3" d="M442.8,169.7c0,.1-17.8.3-39.6.3s-39.6-.1-39.6-.3,17.7-.3,39.6-.3,39.6.1,39.6.3Z"/>
    <path class="st3" d="M442.8,178.1c0,.1-17.8.3-39.6.3s-39.6-.1-39.6-.3,17.7-.3,39.6-.3,39.6.2,39.6.3Z"/>
    <path class="st3" d="M442.8,186.5c0,.1-17.8.3-39.6.3s-39.6-.1-39.6-.3,17.7-.3,39.6-.3,39.6.1,39.6.3Z"/>
    <path class="st3" d="M442.8,195c0,.1-17.8.3-39.6.3s-39.6-.1-39.6-.3,17.7-.3,39.6-.3,39.6,0,39.6.3Z"/>
    <path class="st3" d="M442.8,203.4c0,.1-17.8.3-39.6.3s-39.6-.1-39.6-.3,17.7-.3,39.6-.3,39.6.1,39.6.3Z"/>
    <path class="st3" d="M442.8,211.8c0,.1-17.8.3-39.6.3s-39.6-.1-39.6-.3,17.7-.3,39.6-.3,39.6.1,39.6.3Z"/>
    <path class="st3" d="M442.8,220.3c0,.1-17.8.3-39.6.3s-39.6-.1-39.6-.3,17.7-.3,39.6-.3,39.6.1,39.6.3Z"/>
    <path class="st3" d="M526.8,117c0,0-16.6.3-37.1.3s-37.1,0-37.1-.3,16.6-.3,37.1-.3,37.1,0,37.1.3Z"/>
    <path class="st3" d="M526.8,125.4c0,0-16.6.3-37.1.3s-37.1,0-37.1-.3,16.6-.3,37.1-.3,37.1,0,37.1.3Z"/>
    <path class="st3" d="M526.8,133.8c0,.1-16.6.3-37.1.3s-37.1-.1-37.1-.3,16.6-.3,37.1-.3,37.1.1,37.1.3Z"/>
    <path class="st3" d="M526.8,142.3c0,.1-16.6.3-37.1.3s-37.1-.1-37.1-.3,16.6-.3,37.1-.3,37.1.1,37.1.3Z"/>
    <path class="st3" d="M526.8,150.7c0,.1-16.6.3-37.1.3s-37.1-.1-37.1-.3,16.6-.3,37.1-.3,37.1.1,37.1.3Z"/>
    <path class="st3" d="M526.8,159.1c0,.1-16.6.3-37.1.3s-37.1-.1-37.1-.3,16.6-.3,37.1-.3,37.1.1,37.1.3Z"/>
    <path class="st3" d="M526.8,167.6c0,.1-16.6.3-37.1.3s-37.1-.1-37.1-.3,16.6-.3,37.1-.3,37.1.1,37.1.3Z"/>
    <path class="st3" d="M526.8,176c0,.1-16.6.3-37.1.3s-37.1-.1-37.1-.3,16.6-.3,37.1-.3,37.1.1,37.1.3Z"/>
    <path class="st3" d="M442.8,241.2c0,.1-17.6.3-39.3.3s-39.3-.1-39.3-.3,17.6-.3,39.3-.3,39.3.1,39.3.3Z"/>
    <path class="st3" d="M442.8,249.7c0,.1-17.6.3-39.3.3s-39.3-.1-39.3-.3,17.6-.3,39.3-.3,39.3.1,39.3.3Z"/>
    <path class="st3" d="M442.8,258.1c0,.1-17.6.3-39.3.3s-39.3-.1-39.3-.3,17.6-.3,39.3-.3,39.3.2,39.3.3Z"/>
    <path class="st3" d="M442.8,266.5c0,.1-17.6.3-39.3.3s-39.3-.1-39.3-.3,17.6-.3,39.3-.3,39.3.1,39.3.3Z"/>
    <path class="st3" d="M442.8,275c0,.1-17.6.3-39.3.3s-39.3-.1-39.3-.3,17.6-.3,39.3-.3,39.3,0,39.3.3Z"/>
    <path class="st3" d="M442.8,283.4c0,.1-17.6.3-39.3.3s-39.3-.1-39.3-.3,17.6-.3,39.3-.3,39.3.1,39.3.3Z"/>
    <path class="st3" d="M442.8,291.8c0,.1-17.6.3-39.3.3s-39.3-.1-39.3-.3,17.6-.3,39.3-.3,39.3.1,39.3.3Z"/>
    <path class="st3" d="M442.8,300.3c0,.1-17.6.3-39.3.3s-39.3-.1-39.3-.3,17.6-.3,39.3-.3,39.3.1,39.3.3Z"/>
    <path class="st3" d="M442.8,309.1c0,.1-17.6.3-39.3.3s-39.3-.1-39.3-.3,17.6-.3,39.3-.3,39.3.1,39.3.3Z"/>
    <path class="st3" d="M442.8,318c0,.1-17.6.3-39.3.3s-39.3-.1-39.3-.3,17.6-.3,39.3-.3,39.3.1,39.3.3Z"/>
    <path class="st3" d="M442.8,327c0,.1-17.6.3-39.3.3s-39.3-.1-39.3-.3,17.6-.3,39.3-.3,39.3,0,39.3.3Z"/>
    <rect class="st5" x="452.5" y="184.6" width="73.8" height="71.4"/>
    <g class="st11">
      <polygon points="458.2 249.9 478.6 213.2 495.3 236.6 505.5 224.2 520.6 249.9 458.2 249.9"/>
    </g>
    <g class="st11">
      <path d="M502.5,206c0,2.9-2.4,5.3-5.3,5.3s-5.3-2.4-5.3-5.3,2.4-5.3,5.3-5.3h0c2.9,0,5.3,2.4,5.3,5.3Z"/>
    </g>
    <g class="st11">
      <path d="M520.6,250.1v-16.5c0-10.4,0-25.3-.2-43.1l.3.3h-62.4s.7-.7.4-.3v59.6l-.3-.3h45.1c0,.1,12.6.2,12.6.2h4.6-17.1l-45.3.2h-.3v-59.9c-.3.3.4-.4.4-.4h62.7v.3c0,17.9,0,32.8-.2,43.3v16.5h-.3Z"/>
    </g>
    <path class="st3" d="M528.9,265.9c0,.1-17.6.3-39.3.3s-39.3-.1-39.3-.3,17.6-.3,39.3-.3,39.3.1,39.3.3Z"/>
    <path class="st3" d="M528.9,274.4c0,.1-17.6.3-39.3.3s-39.3-.1-39.3-.3,17.6-.3,39.3-.3,39.3.1,39.3.3Z"/>
    <path class="st3" d="M528.9,282.8c0,.1-17.6.3-39.3.3s-39.3-.1-39.3-.3,17.6-.3,39.3-.3,39.3.1,39.3.3Z"/>
    <path class="st3" d="M528.9,291.2c0,.1-17.6.3-39.3.3s-39.3-.1-39.3-.3,17.6-.2,39.3-.2,39.3,0,39.3.2Z"/>
    <path class="st3" d="M528.9,300.1c0,.1-17.6.3-39.3.3s-39.3-.1-39.3-.3,17.6-.3,39.3-.3,39.3.1,39.3.3Z"/>
    <path class="st3" d="M528.9,309c0,.1-17.6.3-39.3.3s-39.3-.1-39.3-.3,17.6-.3,39.3-.3,39.3.2,39.3.3Z"/>
    <path class="st3" d="M528.9,317.9c0,.1-17.6.3-39.3.3s-39.3-.1-39.3-.3,17.6-.3,39.3-.3,39.3.1,39.3.3Z"/>
  </g>
  <g id="freepik--Character--inject-25">
    <path class="st3" d="M237.9,220.7c-.2-.8-.7-1.4-1.4-1.9-1.6-.9-3.5-1.2-5.3-1-1.2-2.1-2.1-4.4-2.5-6.8.9,0,1.7-.3,2.4-.9.1,0,.3,0,.4-.1,1.7-.9,1.7-3.6.5-5-1.3-1.4-3.1-2.3-5-2.8,1.3,0,2.5.8,3.8,1.1s3-.2,3.1-1.5c0-.4,0-.8-.3-1.2-.3-.8-.6-1.5-.9-2.3-.2-.6-.6-1.2-1.1-1.6-.4-.1-.9-.2-1.4-.2-1.5-.3-2.4-2-3.9-2.4-1.1,0-2.2.2-3.2.7-1.1.3-2.5.2-2.9-.8,1.4-.8,2.7-2,3.6-3.4.9-1.5.6-3.3-.6-4.5-1.1-.6-2.5-.8-3.7-.5-1.4.2-3.2.6-3.5,2-2-.4-4,1-4.4,3v.2h-3.7c1-1.3,2.4-2.1,3.2-3.4s.5-3.5-1-3.7h-1.7c-.4-.1-.7-.5-1.1-.4-.3,0-.6.2-.8.4l-7.5,5.6,1.8-5c.5-1.6.9-3.7-.5-4.5s-3.2.6-3.4,2.2c-1.4-.2-2.7.7-2.9,2.1v.4c-1.4-.4-2.8.3-3.3,1.7-.3.8,0,1.8.5,2.5-1.3.1-2.6.6-3.6,1.4-.2-1.2-1.3-2.1-2.6-1.9-.4,0-.8.3-1.1.5,0-.8-.3-1.5-.7-2.2-.5-.6-1.3-.7-1.9-.2h-.1c.2-1.3-.8-2.7-2.2-2.9-.8-.1-1.6.1-2.2.7l-1.4-1.5c-1.4,0-2.6.7-3.2,1.9-.5,1.2.5,2.9,1.9,2.7-.9,0-.6,1.5,0,2.2l2.5,3c-1-.8-2.5-.9-3.6,0-.9-.8-2.3-.8-3.2.2h0c-.6-.8-1.8-.9-2.6-.3-.3.3-.6.7-.7,1.1-.3-.6-1.1-.6-1.7-.5-.9,0-1.8.4-2.5,1.1-.6.7-.5,2,.4,2.3-.8-.4-1.8.5-1.7,1.4s.7,1.7,1.4,2.2c.8.5,1.4,1.1,2,1.8-.8-.4-1.8-.6-2.7-.4-1.6,0-3.2.4-4.7,1.2-.3-.6-1.2-.6-1.9-.4-2.1.6-4,1.8-5.4,3.4-.7.8-1.3,1.9-.7,2.8.3.4.7.7,1.1.9l5.2,2.8c-2.7,1-5,2.9-6.6,5.3-1,.7-2.2.8-3.1,1.6s-.7,2.7.5,2.6c-.7.6-.9,1.7-.5,2.5.2.3.5.6.8.8l.6.6c.4.3.9.5,1.4.6.6.7,1.5,1,2.4.9-.9.9-1.7,1.9-2.2,3-.8,1.5-.7,3.2.3,4.6l.2.2c.2.6.5,1,1.1,1.3-.2.4-.2.8-.1,1.2-2.5,1.1-3.6,4-2.5,6.5.4.9,1.1,1.6,1.9,2.2,1.2.7,3.3.5,3.4-.9.6,1.1,1.8,1.8,3,1.9-.8,1.9,0,4,1.9,4.9,0,0,.2,0,.3.1-1.5,1.6-1.4,4.1.1,5.6s.9.7,1.4.9c-.5,1.6.3,3.3,1.9,3.8,1.6.5,3.3-.3,3.8-1.9v-.3c.5,1.1,1.3,2,2.4,2.7,1.1.6,2.4.2,3-.9h0c1,2,3.5,2.9,5.5,1.9.2-.1.5-.2.7-.4,0,1.5,1.3,2.6,2.8,2.6s2.5-1.1,2.6-2.4l6.9-.5c1.5,0,3.1-.3,4.5-.6,1.9-.5,3.7-1.5,5.1-2.8.4-.5.9-.8,1.5-1.1.7-.1,1.4,0,2.1.2,3.8.8,7.8-.4,10.5-3.2.4-.5.8-.9,1.3-1.2.6-.3,1.3-.4,2-.4,1.7-.1,3.4-.5,5-1,1.4-.3,2.7-1.3,3.4-2.5.6-1.3-.3-3.3-1.8-3.2-.2-.9,0-1.9.6-2.7.6-.7,1.8-.9,2.5-.3.5.5.5,1.4,0,1.9s-.3.3-.5.3c1.6,1,4-.7,3.9-2.6-.3-2-2-3.4-4-3.3.3-1.4.2-2.8-.2-4.2,1.1,1.2,3,1.3,4.2.2.8,1.2,2.1,2,3.6,2.3,1.5.2,2.9-.7,3.4-2.1.3-1.2-.5-2.5-1.7-2.8h-.7c.6-1.4,0-3-1.4-3.6-.4-.2-.8-.2-1.2-.2.1-1.9-1-3.7-2.9-4.3,1.1.5,2.5,0,3-1.1,0-.1,0-.2.1-.3,1,1.3,3.1.9,4.5,0,1.1-.7,2.1-1.7,1.7-3.4l.2-.3Z"/>
    <path class="st14" d="M237.9,220.7c0,.2.1.4.1.6,0,.6-.1,1.1-.4,1.6-.6.8-1.3,1.3-2.2,1.7-.6.3-1.2.4-1.8.4s-1.4-.3-1.9-.8h.2c-.4,1.3-1.7,2-2.9,1.6-.1,0-.2,0-.3-.1v-.2c2,.6,3.2,2.5,3,4.5h-.1c1-.2,1.9.2,2.5,1,.7.8.8,1.9.3,2.9v-.2c.9-.1,2,.5,2.3,1.6.4,1.1,0,2.3-1,2.9-1,.7-2.2.9-3.3.5s-2.1-1.1-2.8-2.1h.2c-1.3,1.1-3.3,1-4.5-.2l.3-.2c.4,1.4.5,2.9.2,4.3l-.2-.2c.9,0,1.9.2,2.6.8.8.5,1.3,1.4,1.5,2.4.1,1-.3,2-1.2,2.6-.8.7-2,.8-2.9.3l-.5-.3h.5c.5-.3.9-.9.7-1.4-.2-.6-.8-1-1.4-.9-.7,0-1.2.5-1.5,1.1s-.4,1.3-.2,2l-.2-.2c.5,0,1.1.2,1.4.5.7.8.9,1.9.6,2.8-.2.5-.5.9-.9,1.2-.8.7-1.6,1.2-2.6,1.5-.9.3-1.9.6-2.9.8-1.9.5-4.2-.1-5.4,1.8-1.5,1.6-3.3,2.7-5.4,3.2-1,.3-2.1.4-3.2.4s-2.2-.2-3.2-.5c-.5-.1-1,0-1.4.2-.4.3-.8.7-1.2,1-.9.7-1.8,1.3-2.8,1.8-2.1.9-4.4,1.4-6.7,1.4l-6.9.5.2-.2c0,1.6-1.4,2.9-3,2.9s-2.9-1.4-2.9-3l.4.2c-2,1.4-4.7,1-6.2-.9-.2-.2-.3-.5-.5-.8h.5c-.2.6-.7,1.1-1.4,1.3-.6.2-1.3.2-2,0-1.1-.7-2.1-1.6-2.6-2.8h.5c-.5,1.8-2.3,2.8-4.1,2.3s-2.8-2.3-2.3-4.1l.2.4c-2.2-.8-3.4-3.2-2.6-5.4.2-.5.5-1,.9-1.5v.5c-2-.7-3.1-3-2.4-5.1,0,0,0-.2.1-.3l.2.4c-1.4-.1-2.6-.9-3.3-2.1h.5c0,.2-.1.6-.4.9s-.5.4-.9.5c-.6.2-1.3.2-1.9,0-1.2-.5-2.2-1.5-2.7-2.7s-.5-2.6,0-3.9c.5-1.3,1.5-2.3,2.7-2.8l-.2.3c-.1-.5,0-1,.1-1.4v.4c-.5-.3-.9-.9-1.1-1.5h0c-1-1.1-1.4-2.7-.8-4.2.5-1.5,1.4-2.8,2.5-3.9l.3.5c-1,.1-1.9-.3-2.6-1h.2c-.8,0-1.6-.5-2.1-1.2h0c-.7-.3-1.1-.9-1.2-1.7,0-.8.2-1.5.8-2.1l.2.5c-.4,0-.7-.1-1-.4-.2-.3-.3-.6-.4-.9,0-.7.1-1.3.6-1.8,1-.9,2.2-1,3.1-1.6h0c1.6-2.4,4-4.3,6.7-5.3v.5l-2.4-1.3-1.8-1c-.6-.3-1.2-.7-1.8-1.1-.3-.3-.5-.6-.6-1,0-.4,0-.8.1-1.2.3-.7.7-1.3,1.2-1.8,1-1,2.1-1.8,3.4-2.4.6-.3,1.3-.5,1.9-.7.4,0,.7-.1,1.1,0,.4,0,.8.3,1.1.7h-.4c1.1-.8,2.4-1.2,3.7-1.3.6,0,1.3-.2,1.9-.2s1.2.1,1.8.4l-.4.4c-.6-1.1-2-1.6-2.9-2.8-.5-.6-.7-1.4-.4-2.2.2-.4.4-.7.8-.9.4-.2.8-.2,1.2,0l-.2.6c-.4-.1-.7-.4-.8-.8-.1-.3-.2-.7,0-1.1,0-.4.2-.7.5-1,.2-.3.5-.5.8-.6.6-.3,1.2-.4,1.9-.5h1c.4,0,.8.3,1,.7h-.6c.2-1,1.3-1.8,2.5-1.6.5,0,1,.4,1.3.8h-.5c.9-1.1,2.5-1.2,3.5-.4h.1c0,.1-.4.1-.4.1,1.2-.9,2.8-.9,4,0l-.4.4c-.7-.9-1.4-1.7-2.1-2.5-.4-.4-.7-.9-.9-1.5v-.9c0-.2.1-.4.3-.5s.4-.2.6-.2v.6c-.7,0-1.5-.3-1.9-1-.4-.6-.5-1.4-.2-2.1.7-1.3,2-2.1,3.4-2h.2l1.4,1.6h-.4c1.2-1.1,3-1.1,4.1.1.6.7.9,1.6.8,2.4l-.6-.4c.3-.4.8-.6,1.3-.5.5,0,.9.3,1.2.6.5.7.7,1.5.8,2.3l-.5-.2c1-.9,2.6-.9,3.6.1.3.4.6.8.6,1.3l-.4-.2c1.1-.8,2.4-1.3,3.8-1.4l-.2.5c-1-1.2-.9-3,.4-4,.8-.6,1.8-.8,2.7-.5l-.4.3c0-1.6,1.2-2.8,2.8-2.8h.5l-.3.2c0-.7.4-1.3.9-1.8s1.2-.8,1.9-.8,1.4.5,1.7,1.1.4,1.3.3,2c-.2,1.2-.6,2.5-1.1,3.6-.4,1.2-.8,2.3-1.2,3.4l-.4-.3,4.6-3.4,2.3-1.7c.4-.3.8-.6,1.2-.8h.9c.2.1.4.2.6.3h1.3c.5,0,1,.2,1.4.6.6.8.8,1.8.5,2.8-.4.9-.9,1.6-1.7,2.2-.7.5-1.3,1.1-1.9,1.8l-.2-.4h3.7c0,.1-.2.4-.2.4.3-2.2,2.2-3.7,4.4-3.5h.3l-.3.2c.2-.9.9-1.5,1.8-1.8.8-.3,1.6-.4,2.4-.5.8,0,1.6,0,2.4.1.8.2,1.5.7,1.9,1.5.7,1.4.5,3.1-.5,4.4-.9,1.1-2,2.1-3.2,2.9v-.2c.3.5.8.8,1.4.9.6,0,1.2,0,1.7-.3.6-.2,1.2-.4,1.8-.6.6-.1,1.3,0,1.9.2,1.1.6,1.8,1.6,2.8,2,.5.1,1.1.2,1.6.3.6.2,1,.7,1.2,1.3.4,1,.8,2,1.2,3s.2,1.1,0,1.6c-.3.5-.7.8-1.3.9-.5.2-1,.2-1.5.1-.5,0-1-.2-1.4-.4-.8-.4-1.7-.7-2.6-.7v-.3c1.1.3,2.1.7,3.1,1.3.9.5,1.7,1.2,2.3,2.1.5.9.6,1.9.4,2.8-.2.9-.8,1.7-1.7,1.9h0c-.7.5-1.6.8-2.5.9h0c.5,2.2,1.3,4.5,2.5,6.6h0c1.2,0,2.3,0,3.5.2.8.2,1.6.6,2.2,1.1.4.3.6.7.8,1.2,0,.1.1.3.1.5-.2-.6-.5-1.1-1-1.6-.6-.5-1.4-.9-2.1-1.1-1.1-.2-2.3-.3-3.5-.2h0c-1.2-2.1-2.1-4.4-2.6-6.8h0c0-.1.1-.1.1-.1.9,0,1.7-.3,2.4-.8h0c.8-.3,1.4-1,1.6-1.8.2-.9,0-1.9-.4-2.7-.5-.9-1.3-1.6-2.2-2-1-.5-2-.9-3.1-1.2l-.9-.3h.9c.9,0,1.9.3,2.7.7.4.2.9.3,1.3.4.5,0,.9,0,1.4-.1s.8-.4,1.1-.8c.2-.4.2-.9,0-1.4l-1.2-3c-.2-.5-.5-.9-1-1.1-.6,0-1.1-.2-1.7-.3-1.2-.5-1.8-1.5-2.8-2s-2.2,0-3.3.4c-.6.2-1.3.3-1.9.3s-1.4-.4-1.7-1.1h0c0-.1.1-.2.1-.2,1.2-.7,2.3-1.7,3.1-2.8.9-1.1,1-2.7.5-4-.3-.6-.9-1-1.6-1.2-.7-.2-1.5-.2-2.2,0-.8,0-1.5.2-2.3.4-.7.2-1.3.7-1.5,1.4v.2h-.2c-1.9-.4-3.8.9-4.1,2.8h0v.3h-3.9c0-.1-.5-.1-.5-.1l.3-.4c.6-.7,1.2-1.3,1.9-1.8s1.2-1.2,1.5-2,.2-1.7-.4-2.4c-.3-.3-.6-.4-1-.4h-1.4c-.5-.2-.8-.5-1.2-.4-.4.2-.8.5-1.1.7l-2.3,1.7-4.6,3.5-.7.5.3-.8c.4-1.2.8-2.3,1.2-3.4.5-1.1.8-2.3,1-3.5,0-.6,0-1.2-.2-1.7s-.7-.8-1.3-.8c-1.2.1-2.1,1-2.3,2.2v.3h-.3c-1.2-.3-2.4.6-2.6,1.8v.7h-.4c-1.2-.5-2.5.1-2.9,1.3-.3.8,0,1.6.4,2.2l.3.4h-.5c-1.3.1-2.5.6-3.6,1.3l-.4.3v-.5c-.2-1.1-1.2-1.8-2.3-1.6-.4,0-.7.2-1,.4l-.4.5v-.6c0-.7-.3-1.4-.7-2-.4-.5-1.3-.6-1.6-.1l-.7,1.1.2-1.3c.2-1.3-.8-2.5-2.1-2.6-.7,0-1.4.1-1.9.6l-.2.2-.2-.2-1.4-1.5h.2c-1.2,0-2.4.7-2.9,1.8-.5,1,.4,2.6,1.5,2.4v.6c-.1,0-.2,0-.2.3v.7c.2.5.4.9.8,1.3l2.1,2.5-.4.4c-.9-.8-2.3-.8-3.2,0l-.2.2-.2-.2c-.8-.7-2.1-.6-2.8.2h0l-.3.4-.2-.4c-.5-1-2.6-.6-2.7.6v1.5l-.5-1.4c-.1-.4-.8-.4-1.4-.3-.6,0-1.2.2-1.7.5-.5.2-.9.6-1,1.2-.1.5,0,1,.5,1.2l-.2.5c-.4-.2-1,.2-1.2.7-.2.6,0,1.2.3,1.6.7,1,2.1,1.5,2.9,2.8l.8,1.2-1.2-.9c-.9-.6-2.3-.3-3.5-.2-1.2,0-2.4.5-3.5,1.1l-.3.2v-.3c-.3-.4-1-.4-1.6-.3-1.9.5-3.7,1.5-5,3-.5.4-.8,1-1.1,1.6-.2.5-.1,1.2.3,1.5.6.4,1.1.7,1.7,1l1.8,1,2.4,1.3.6.3-.6.2c-2.6,1-4.9,2.8-6.4,5.2h0c-1.1.7-2.3.8-3.1,1.5-.3.3-.5.8-.4,1.3,0,.5.3.9.7.8h.9c0-.1-.7.5-.7.5-.4.4-.6,1-.6,1.6s.4,1,.9,1.3h0c.5.6,1.1,1,1.8,1.1h0c.5.7,1.3.9,2,.9h.9c0-.1-.6.5-.6.5-1.1,1-1.9,2.2-2.4,3.6-.5,1.3-.2,2.7.7,3.7h0c.1.6.5,1.1.9,1.3h.2c0,.1-.1.4-.1.4-.1.3-.2.7,0,1v.2h-.2c-1.1.6-1.9,1.5-2.4,2.6s-.5,2.3,0,3.4c.4,1.1,1.3,1.9,2.3,2.4.5.2,1.1.2,1.6,0,.5,0,.8-.5.9-1v-1.1l.5,1c.6,1,1.6,1.7,2.8,1.8h.4l-.2.4c-.7,1.7,0,3.7,1.8,4.5h.7c0,.1-.4.5-.4.5-1.4,1.5-1.2,3.8.3,5.2.4.3.8.6,1.2.7h.3v.3c-.4,1.4.4,3,1.9,3.4,1.4.4,3-.4,3.4-1.9h0l.2-.6.3.6c.5,1.1,1.3,2,2.4,2.6,1,.4,2.4,0,2.6-.9l.2-.8.3.8c.5,1.1,1.5,1.9,2.6,2.1,1.1.3,2.2,0,3.1-.6l.4-.3v.5c0,1.3,1,2.4,2.4,2.5,1.3,0,2.4-1,2.5-2.4v-.2h.2l6.9-.5c2.2,0,4.4-.5,6.5-1.3,1-.5,1.9-1,2.7-1.8.4-.4.8-.8,1.3-1.1.5-.3,1.1-.4,1.7-.3,1,.3,2.1.4,3.2.5,1,0,2.1-.1,3.1-.4,2-.5,3.8-1.6,5.2-3.1.3-.4.7-.8,1.2-1.1s1-.4,1.5-.5c1,0,2-.2,3-.4s1.9-.4,2.8-.8c.9-.3,1.7-.7,2.4-1.4.7-.6,1-1.5.8-2.4,0-.9-.8-1.5-1.7-1.6h-.2v-.2c-.2-.8,0-1.6.3-2.3s1.1-1.2,1.8-1.3c.8-.1,1.6.4,1.8,1.2s-.2,1.6-1,1.8v-.4c.9.4,1.9.3,2.6-.3.7-.5,1.1-1.4,1.1-2.3-.3-1.8-1.9-3-3.7-2.9h-.2v-.2c.3-1.4.2-2.8-.1-4.1l-.2-.7.5.6c1.1,1.1,2.8,1.2,4,.2h.1c0-.1.1,0,.1,0,.7.9,1.6,1.6,2.7,2,1,.3,2.2.2,3-.5.9-.6,1.2-1.6.9-2.6-.3-.9-1.2-1.5-2.1-1.4h-.3v-.2c.7-1.3,0-2.9-1.3-3.4-.4-.2-.8-.2-1.1-.2h-.1v-.2c.1-1.9-1-3.6-2.8-4.2v-.2c1.1.7,2.4.4,3.1-.6.1-.2.2-.4.3-.6v-.2.2c.5.5,1.2.8,1.9.8s1.2-.1,1.7-.4c.9-.4,1.6-.9,2.2-1.7.3-.5.5-1,.5-1.6s-.1-.5,0-.5l.5.7Z"/>
    <path class="st1" d="M210.1,273c-.3-3.6-.6-6.5-.6-6.5,0,0,12.3-2.6,11.8-15-.2-6-1.7-18.4-3.2-29.5-1.6-12-12.1-20.8-24.2-20.1h-1.2c-12.9,1.4-19,13.2-17.1,26.1l4.3,47.2,8.5,17.5c7.9,7.6,22.8-8.8,21.7-19.7h0Z"/>
    <path class="st13" d="M209.6,266.5c-5.7.3-11.5-1.1-16.4-4,0,0,4.3,9.3,16.7,7.5l-.2-3.6h-.1Z"/>
    <path class="st3" d="M215.9,232.8c0,1-.7,1.8-1.6,1.9-.9.1-1.8-.5-1.9-1.5h0c0-1,.7-1.8,1.6-1.9.9-.1,1.8.5,1.9,1.5h0Z"/>
    <path class="st3" d="M215.9,227.3c-.2.2-1.6-.7-3.6-.6s-3.3,1.2-3.5.9,0-.5.7-1c.8-.6,1.8-1,2.8-1s2,.2,2.9.8c.6.4.8.8.7.9h0Z"/>
    <path class="st3" d="M198.3,233.6c0,1-.7,1.8-1.6,1.9-.9.1-1.8-.5-1.9-1.5h0c0-1,.7-1.8,1.6-1.9.9-.1,1.8.5,1.9,1.5h0Z"/>
    <path class="st3" d="M197.2,229c-.2.2-1.6-.7-3.6-.6s-3.3,1.1-3.5.9,0-.5.7-1c.8-.6,1.8-1,2.8-1s2,.2,2.8.8c.7.4.9.8.8.9h0Z"/>
    <path class="st3" d="M204.8,243.4c1-.4,2-.6,3.1-.7.5,0,.9-.2,1-.5,0-.5-.1-1-.4-1.4l-1.6-3.6c-2.3-5.2-3.9-9.5-3.7-9.6s2.2,4,4.5,9.2c.5,1.3,1.1,2.5,1.6,3.7.3.6.5,1.3.3,1.9-.1.4-.4.6-.8.7-.3,0-.5.1-.8.2-1,.2-2.1.2-3.2.1h0Z"/>
    <path class="st3" d="M197.3,222.5c-.2.5-2.1.4-4.3.8s-4,1.1-4.3.7c-.1-.2.1-.7.9-1.3,1.9-1.4,4.3-1.8,6.6-1.1.8.3,1.3.7,1.2.9h0Z"/>
    <path class="st3" d="M214.8,220.9c-.3.5-1.6.1-3.2.2s-2.9.5-3.2,0c-.2-.2,0-.7.6-1.1.7-.6,1.6-.9,2.6-.9s1.9.2,2.6.7c.6.4.8.8.7,1.1h-.1Z"/>
    <path class="st13" d="M207,248.1c-.2.7-.4,1.5-.8,2.1-.4.7-1,1.2-1.8,1.3-.8,0-1.7-.2-2.2-.9s-.8-1.4-.8-2.3.2-1.7.9-1.8h.9l4,1.2"/>
    <path class="st3" d="M205.8,251.5c-.7.1-1.4.1-2.1,0-.7-.2-1.3-.6-1.7-1.2-.5-.7-.6-1.7-.3-2.5,0-.2.2-.4.3-.6q.1-.2.3-.2c.2,0,.4.1.6.2l.7.2c.9.2,1.6.5,2.3.6.7.2,1.4.4,2.2.4-.6-.4-1.3-.7-2-.9-.6-.2-1.4-.5-2.3-.8l-.7-.2c-.2,0-.4-.1-.7-.2h-.6c-.2,0-.3.2-.4.4-.2.2-.3.5-.3.8-.3,1-.2,2.2.5,3.1.5.7,1.3,1.2,2.1,1.4.6.1,1.1,0,1.7-.1.4-.2.5-.4.5-.4h-.1Z"/>
    <path class="st3" d="M220.9,211.5c0-.6-.2-1.2-.4-1.8-.4-.9-1-1.7-1.8-2.2-2.5-2.2-5.2-4.4-8.2-5-1.9-.4-3.7,0-5.6-.4-1.2-.3-2.3-.6-3.4-1-4.6-1.2-9.5-1.2-14.1.1-2.6.5-5.1,1.5-7.4,2.9-2.5,1.8-4.7,4-6.4,6.6-3,3.8-5.3,8.1-6.8,12.6-1.3,3.7-1.4,7.8-.4,11.6,1.2,3.8,4.1,7,7.4,7.4l1.1-1.6,1.7-2.4c-.2.9,0,.9.9,1.3.8.4,1.7,0,2.1-.8h0c.7.6,2-.4,1.6-1.4.8.3,1.6-.8,1.2-1.7.9.2,1.2-1.3,1.5-2.3.2-.5.4-1,.7-1.5.7-1.7.9-3.5.7-5.4.9-1.4.9-3.4.9-5.3v-3.5l.5-.9c.1.8.7,1.4,1.5,1.6.7,0,1.4,0,2-.3l2-.7,1.3.2c0,1.1.2,2.3.9,3.2.4.7.8,1.4,1.4,1.7.5.1,1-.2,1.2-.7v-.5c.5.3,1.2.2,1.5-.3,0,0,0-.1.1-.2.3-.7.3-1.4.2-2.2-.3-1.8-1.1-3.4-2.4-4.7l4,2.8c.3.2.6.4.9.4,0,.5.5.9,1,.9h.2c.5-.2.9-.6,1.2-1.1.7-1,1.4-2.7.5-3.6.4-.2.5-.7.3-1.1h0c0-.1,4.4,2.4,4.4,2.4-.4-.2-.8.5-.6,1s.6.8,1,1.1c-.3.6-.3,1.3-.2,2-.8-.5-1.7.8-1.3,1.8.4.9,1.4,1.5,2.4,1.3.8,0,1.5-.6,1.6-1.4.9,0,1.6-1.3,1.1-2.2.7.3,1.1-.9,1-1.8-.2-1.5-.6-3-1.3-4.4h.3v-.2l2.9,4.8c.9,1.3,1.5,2.8,1.9,4.4.1.7.3,1.5.9,1.5s.3,0,.4-.2c1.5-1.2,2.6-2.9,3-4.7.2-.6.3-1.3.3-2-.1-1.4-.9-2.7-1.2-4.1h-.2Z"/>
    <path class="st14" d="M203,210.8c.2-.3.3-.7.3-1s-.2-.8-.5-1.1c-.4-.3-1-.4-1.5-.2l-.3.2v-.3c.2-.6,0-1.3-.6-1.6s-1.4-.2-1.9.4l-.3-.2v-.2c0-.3,0-.5-.2-.7s-.4-.3-.7-.3-.5,0-.8.1c-.3.2-.5.3-.8.3s-.6-.3-.8-.4c-.2-.1-.4-.2-.7-.3-.4-.1-.8-.2-1.3-.1-.6,0-1.2.3-1.7.7l-.5.5c0-.2.2-.4.4-.6.5-.5,1.1-.7,1.8-.8h1.4c.2,0,.5.2.7.3s.4.3.6.3.5-.2.7-.3c.3-.1.6-.2.9-.2s.7.2.9.4c.3.3.4.6.3,1,0,.1,0,.2-.1.3l-.3-.2c.6-.8,1.7-.9,2.5-.3.6.4.8,1.2.6,1.9l-.2-.2c.6-.3,1.3-.2,1.8.2.4.3.6.8.5,1.3,0,.3-.1.6-.3.8,0,.2-.2.3-.2.2h.3Z"/>
    <path class="st14" d="M211.9,211.8c.3-.3.4-.7.5-1.1,0-.4,0-.9-.3-1.3-.3-.5-.9-.8-1.5-.8h-.2v-.2c.5-.6.7-1.3.4-1.9-.1-.3-.4-.6-.8-.7-.4-.1-.8,0-1,.3l-.8,1.2.5-1.3c.2-.5.1-1-.1-1.5-.3-.5-.8-.8-1.3-.8s-.8,0-1.1.3l-.4.3v-.4c.2-.6-.5-1.2-1.1-1.2s-1.3.3-1.7.7l-.3.2v-.4c0-.5-.2-.9-.6-1.2-.4-.2-.8-.4-1.2-.4-.7,0-1.5.1-2.2.4-.6.3-1.2.6-1.7.9,0,0,.1-.2.4-.4.4-.3.8-.5,1.3-.7.7-.3,1.5-.5,2.3-.5s1,.1,1.4.4c.5.3.8.9.7,1.4h-.2c.5-.6,1.2-.9,1.9-.9s.8.2,1.1.5.5.7.4,1.2l-.3-.2c.4-.3.9-.4,1.4-.3.7,0,1.3.4,1.6,1s.4,1.2.1,1.8l-.3-.2c.3-.4.9-.6,1.3-.4.4.1.8.4,1,.9.3.8.1,1.6-.4,2.2v-.2c.6,0,1.2.4,1.6.9.3.4.4.9.2,1.4,0,.3-.2.6-.4.8,0,.2-.2.2-.2.2h0Z"/>
    <path class="st14" d="M230.4,210.6c0-.4-.3-.7-.6-.9-.4-.2-.8-.3-1.2-.2-.6.1-1.1.3-1.6.6h-.2c-.1-.8-.7-1.3-1.4-1.4-.8,0-1.7.3-2.4.8l-1,.5.8-.8c.4-.5.3-1.3-.2-1.7h-.1c-.7-.4-1.5-.4-2.2-.2h0l-.7.2.5-.5c.5-.5.4-1.4-.2-1.8,0,0-.2-.1-.3-.2-.8-.3-1.6,0-2.2.5l-.6.7.4-.8c.4-1,.2-2.1-.5-3-.5-.7-1.4-1-2.2-1s-1.1.2-1.6.4c-.3.2-.5.4-.5.3h0c.1-.2.2-.3.3-.4.5-.3,1-.5,1.6-.6.9,0,1.8.3,2.4,1,.8.9,1,2.2.5,3.3l-.3-.2c.6-.7,1.6-1,2.5-.6.5.2.8.7.9,1.2.2.5,0,1.1-.4,1.5l-.2-.3h.1c.8-.3,1.7-.2,2.5.2.3.3.6.6.7,1.1.1.4,0,.9-.3,1.2l-.2-.3c.8-.5,1.7-.8,2.6-.7.8,0,1.5.7,1.6,1.5h-.2c.5-.4,1.1-.6,1.7-.7.5,0,.9,0,1.3.3.2.2.4.4.5.7v.2h.4Z"/>
    <path class="st14" d="M218.2,194.6c-.1.1-.3.2-.4.2-.4.1-.9.2-1.3.3-.7,0-1.3.2-1.9.6-.3.2-.5.6-.5.9s.1.8.5.9l-.2.2c-.1-.4-.7-.6-1.3-.8-.5-.2-1.1-.4-1.7-.5-.6,0-1.2.1-1.6.5-.4.3-.6.8-.5,1.4v.4c.1,0-.2-.2-.2-.2-.7-.5-1.5-.7-2.4-.6-.7,0-1.3.2-1.9.6-.5.3-1,.7-1.3,1.2,0-.2.1-.3.2-.4.3-.4.6-.7,1-.9.6-.4,1.3-.6,2-.7.9,0,1.8.1,2.6.6l-.2.2c-.1-.6,0-1.3.6-1.7.5-.4,1.2-.6,1.8-.6s1.2.2,1.8.5c.3.1.6.2.8.4.3.1.5.4.6.7v.3h-.2c-.5-.3-.8-.8-.7-1.4,0-.5.3-.9.7-1.2.6-.3,1.3-.5,2-.5s.9,0,1.3-.2c.1,0,.3,0,.5-.1h-.1Z"/>
    <path class="st14" d="M200.2,190.6c-.3,0-.6.1-.9.3-.3.2-.6.4-.8.7-.3.3-.4.8-.4,1.2v.2h-.2c-.6,0-1,.4-1.2.9-.1.6,0,1.3.2,1.9l.2.7-.5-.5h0c-.3-.4-.8-.5-1.3-.4-.4,0-.8.3-1,.7-.4.6-.6,1.4-.4,2.1.1.5.3,1,.6,1.4.1.2.2.3.3.5,0,0-.2-.1-.4-.4-.3-.4-.6-.9-.7-1.4-.2-.8-.1-1.7.4-2.4.6-.9,1.8-1.1,2.7-.5h0l-.3.3c-.3-.7-.3-1.4-.2-2.1.2-.7.8-1.1,1.5-1.1l-.2.2c0-.5.2-1,.5-1.4.2-.3.5-.5.9-.7.2,0,.5-.1.7-.1h.5Z"/>
    <path class="st14" d="M186.8,203.2h-.5c-.4,0-.8-.3-1.2-.6-.5-.4-.9-1-1-1.6,0-.4-.1-.7-.4-.9s-.7-.3-1-.7c-.6-.7-.6-1.7,0-2.4v.2c-.7-.5-1.3-1.1-1.8-1.8-.2-.3-.3-.6-.4-.9,0,0,.2.3.5.8.5.7,1.1,1.2,1.8,1.7h.2c0,.1-.2.2-.2.2-.5.5-.5,1.4,0,1.9.2.3.6.4,1,.6.3.3.4.7.5,1.1.1.6.5,1.1.9,1.5.4.3.9.6,1.5.7v.2Z"/>
    <path class="st14" d="M182.8,206.9h-1.1c-1,0-2-.4-2.7-1.1h.2c-.7,1.1-1.9,1.6-3.2,1.4-.5,0-.9-.3-1.2-.7,0-.2-.1-.3-.2-.5,0-.1-.2-.2-.3-.3-.3-.1-.5-.2-.8-.2s-.6,0-.9-.2c-.3-.1-.6-.4-.6-.8h.2c-.6.5-1.4.6-2.1.5-.5,0-1.1-.3-1.5-.7-.3-.2-.5-.5-.7-.8-.1-.2-.2-.3-.1-.3.3.4.6.7.9,1,.4.3.9.5,1.4.5.7.1,1.3,0,1.9-.4h.2c0-.1,0,.1,0,.1,0,.2.2.4.4.5.3.1.6.2.8.2.3,0,.7.1,1,.3.2,0,.3.2.4.4,0,.1.1.3.2.4.3.3.6.5,1,.5h1.2c.7-.2,1.3-.6,1.7-1.2h0c0-.1.1,0,.1,0,.7.6,1.6,1,2.6,1.1h1.1v.3Z"/>
    <path class="st14" d="M157.3,221.5h0c0-.2,0-.3-.1-.5v-1.4c.1-.7.3-1.4.6-2.1.2-.4.4-.8.6-1.2s.3-.4.5-.6c.2-.2.6-.2.8-.1l-.2.2c-.3-1.2.4-2.5,1.7-2.8.6-.1,1.2,0,1.7.3l-.3.2c0-.5,0-1,.5-1.4.4-.4.9-.5,1.4-.4.3,0,.5.2.8.4l-.3.2c0-.3,0-.6.2-.9.2-.2.5-.4.7-.4.5,0,1,0,1.5.2h-.2c.3-.5.7-.9,1.3-1.2.5-.2,1.1-.3,1.7-.2,1,.1,1.9.4,2.8.9l-.2.2c-.1-.2-.1-.4,0-.6,0-.2.2-.3.4-.4.3-.2.6-.3.9-.3.5,0,1,0,1.4.2.3,0,.6.2.8.3.2,0,.3.2.3.2-.4-.2-.8-.3-1.2-.4-.5-.1-.9-.2-1.4-.2s-.6.1-.8.3-.4.4-.3.7l.2.4-.4-.2c-.8-.4-1.8-.7-2.7-.8-.5,0-1,0-1.5.2s-.9.6-1.2,1.1h0c0,.1-.1.1-.1.1-.4-.2-.9-.2-1.4-.2s-.8.5-.7.9v.6c.1,0-.3-.4-.3-.4-.2-.2-.4-.3-.6-.3-.4,0-.8,0-1.1.3s-.4.7-.4,1.1v.4l-.3-.2c-.7-.4-1.6-.4-2.3.2-.6.5-.8,1.3-.7,2v.3h-.2c-.4-.3-.8,0-1,.5-.2.4-.4.8-.6,1.2-.3.6-.5,1.3-.7,2-.1.6-.1,1.2,0,1.7h.4Z"/>
    <path class="st14" d="M160.7,231.3l-.2-.2c-.2-.2-.4-.4-.5-.6-.3-.3-.4-.8-.5-1.2,0-.3,0-.6.1-.8.1-.3.4-.6.7-.7v.2c-.6-.7-.6-1.7,0-2.3s.8-.5,1.3-.4v.3c-.5-.4-.6-1-.3-1.5s.8-.8,1.4-.9c.3,0,.6,0,.8-.1.2,0,.4-.3.4-.5,0-.3.2-.6.3-.8.2-.3.4-.5.7-.6.6-.2,1.2-.3,1.8-.3s1.1-.2,1.4-.7c.1-.2.2-.5.4-.7.1-.3.4-.5.6-.6.5-.3,1.1-.4,1.6-.2l-.2.2c-.3-.5-.3-1.1,0-1.6.3-.4.7-.7,1.2-.8.8-.2,1.5-.2,2.3,0,.5,0,1,.2,1.4.3.2,0,.3.1.5.2-.6-.2-1.3-.3-1.9-.4-.7,0-1.5,0-2.2.1-.4.1-.8.4-1,.7-.3.4-.3.9,0,1.3l.4.5-.6-.2c-.4-.2-.9-.1-1.3.1-.2.1-.4.3-.5.5s-.2.5-.4.8-.5.4-.7.6c-.3.1-.6.2-.9.2-.6,0-1.2.1-1.7.3-.2,0-.4.2-.6.4-.1.2-.2.5-.3.7,0,.3-.3.6-.6.7-.3,0-.6,0-.8.1-.5,0-.9.3-1.2.7-.2.4-.2.9,0,1.2l.3.3h-.5c-.6,0-1.1.3-1.4.8-.2.5,0,1,.2,1.4h.1c0,.1-.2.2-.2.2-.5.2-.8.7-.7,1.3,0,.4.2.8.4,1.2.2.2.4.5.6.7h.3Z"/>
    <path class="st14" d="M160.8,250.1h-.3c-.3-.1-.6-.3-.9-.5-.4-.4-.7-.8-.8-1.4-.1-.7,0-1.4.4-2v.2c-.5-.4-.9-1-1.2-1.6-.1-.4-.2-.7,0-1.1,0-.4.3-.8.7-1v.3c-.6-.3-1.1-.9-1.1-1.7s0-.8.2-1.2.4-.7.8-.8c.3-.2.4-.4.4-.7v-1c.2-.6.6-1.1,1.1-1.6s.8-.8,1.2-1.1c.6-.6,1.2-1,2-1.3.2,0,.4-.1.6-.1h.2s-.3,0-.8.3c-.7.3-1.3.8-1.8,1.4l-1.2,1.2c-.4.4-.8.9-1,1.4,0,.3-.1.6,0,.9,0,.2,0,.4-.1.6-.1.2-.3.3-.4.4-.8.5-1.1,1.7-.5,2.5.2.3.4.5.6.6h.3c0,.1-.3.3-.3.3-.5.4-.7,1.1-.5,1.7.2.6.6,1.1,1.1,1.5h0v.2c-.4.5-.5,1.2-.4,1.8,0,.5.3.9.7,1.3.3.3.7.5,1.2.7l-.2-.2Z"/>
    <path class="st14" d="M188,217.8c-.4,0-.7,0-1.1-.2-.4-.1-.7-.4-1-.7s-.6-.9-.6-1.4v-.4.2c-.4-.2-.7-.5-.9-1-.2-.4-.2-.8,0-1.2.3-.6.7-.7.7-.7,0,0-.3.2-.5.8-.2.7.1,1.5.9,1.7h.2v.5c0,.4.2.9.5,1.2s.6.5.9.7c.3.1.7.3,1,.5h0Z"/>
    <path class="st14" d="M195.3,212.9c.1-.4.1-.9,0-1.3-.1-.5-.5-.8-1-1-.6-.2-1.2,0-1.6.5l-.2.2v-.3c-.2-.4-.4-.7-.7-.9-.2-.3-.6-.5-.9-.5-.6,0-1.1.6-.9,1h-.3c-.3-1.1-1.5-1.9-2.7-1.8-.5,0-1,.2-1.4.5,0,0,0-.1.3-.3s.7-.3,1.1-.4c.6,0,1.2,0,1.7.3.7.4,1.2,1,1.4,1.7h-.3c-.1-.2,0-.6.2-.9.3-.3.6-.5,1-.5s.9.3,1.2.6.5.7.6,1.1h-.3c.5-.6,1.2-.8,1.9-.6.5.2,1,.6,1.1,1.2.1.3.1.7,0,1,0,.2-.2.2-.2.2v.2Z"/>
    <path class="st1" d="M177.3,237c-.2,0-8.7-2.1-8,6.4s9.1,6,9.1,5.8-1.1-12.2-1.1-12.2Z"/>
    <path class="st13" d="M175.5,246.3s-.1.1-.4.3c-.3.2-.7.2-1.1.1-1.2-.6-1.9-1.8-2-3.1,0-.7,0-1.5.2-2.2.1-.5.5-1,1-1.2.3-.1.7,0,.9.3.1.2,0,.4.1.4s.2-.2,0-.5c0-.2-.2-.4-.4-.5-.2-.2-.5-.2-.8-.2-.7.2-1.2.7-1.4,1.4-.3.8-.4,1.6-.3,2.4.2,1.7,1.2,3.2,2.5,3.5.5,0,1,0,1.3-.3s.3-.4.2-.4h.2Z"/>
    <path class="st3" d="M234.1,392.2l-74.2,1s-20.8-8.7-26.5-8.9-17,.5-22.3,8.9c-5.4,8.7-6.2,24.1,10.5,35.3,16.2,10.9,90.5,20.9,100.7,20l18.8-25.2s.2-20.6,0-21.6-3.3-9.8-3.3-9.8l-3.7.4h0Z"/>
    <path class="st5" d="M189.6,427.1l-38.5,14.3,17.5,48c4.5-2,4.6-30.1,4.6-30.1l25-8.1-8.7-24h0Z"/>
    <g class="st9">
      <path class="st6" d="M170,443.6c-.6-.8-1.8-1.1-2.7-.5s-1.1,1.8-.6,2.7c.7.9,1.9,1.1,2.9.6.8-.7,1-2,.3-2.9"/>
    </g>
    <path class="st3" d="M151.2,441.4l3.9-1.4,15.4,46.6s-.2,2.5-1.7,2.8l-17.5-48h0Z"/>
    <path class="st3" d="M173.8,459.9c-.2,0-.8-1.1-1.9-1.9s-2.4-1.1-2.4-1.4,1.5-.4,2.9.7,1.6,2.6,1.4,2.6h0Z"/>
    <path class="st3" d="M173.6,465.7c-.2.1-1-.7-2.3-1.2s-2.4-.3-2.5-.5,1.2-.9,2.8-.3,2.2,2,2,2Z"/>
    <path class="st3" d="M168.6,470.8c-.1-.2.9-1,2.4-.8s2.4,1,2.3,1.2-1.1-.3-2.4-.3-2.2.2-2.3,0h0Z"/>
    <path class="st3" d="M179.3,457.4c-.2,0-.3-1.2-.9-2.5s-1.4-2.2-1.2-2.4,1.4.5,2,2,.3,2.9,0,2.8h0Z"/>
    <path class="st3" d="M184.6,454.2c-.5-.7-.8-1.5-.9-2.4-.2-.9-.2-1.9-.1-2.8,0-.6.1-1.1.2-1.6,0-.3.2-.6.3-.9.2-.4.7-.7,1.2-.6.4.1.8.4.9.8.1.3.2.6.2.9.2,1.5,0,3-.6,4.4-.6,1.5-1.4,2.2-1.4,2.1s.4-.9.9-2.4c.2-.8.4-1.7.4-2.6v-1.5c0-.6-.2-1-.5-1s-.1,0-.2.2c-.1.2-.2.4-.2.7,0,.5-.2,1-.2,1.5v2.6c.1.8.2,1.6.2,2.5h-.2Z"/>
    <path class="st3" d="M184.1,454s.6-.8,2.1-1.5c.9-.4,1.8-.6,2.7-.6h1.7c.7,0,1.4.4,1.8,1.1.2.4,0,.9-.3,1.2-.2.2-.5.4-.8.6-.5.3-1.1.5-1.6.6-.9.2-1.9.2-2.9-.1-1.6-.5-2.2-1.4-2.1-1.4.7.3,1.5.6,2.3.8.8.2,1.7.1,2.5,0,.5-.1.9-.3,1.4-.5.5-.3.8-.6.7-.8s-.6-.5-1.1-.5-1-.1-1.5-.1c-.9,0-1.7.1-2.6.4-1.4.5-2.2,1-2.3.9h0Z"/>
    <path class="st5" d="M221.4,421.2l37.2,17.2-21.2,46.4c-4.3-2.3-2.2-30.4-2.2-30.4l-24.3-10.1,10.5-23.2h0Z"/>
    <g class="st9">
      <path class="st6" d="M239.7,439.2c.7-.8,1.9-.9,2.8-.3.8.7,1,1.9.3,2.7-.7.8-2,1-2.9.3-.8-.8-.8-2.1,0-2.9"/>
    </g>
    <path class="st3" d="M258.6,438.4l-3.8-1.7-19,45.2s0,2.5,1.5,2.9l21.2-46.4h.1Z"/>
    <path class="st3" d="M234.5,455.1c.2,0,.9-1,2.1-1.8s2.5-.9,2.5-1.2-1.5-.5-2.9.5-1.8,2.4-1.6,2.5h-.1Z"/>
    <path class="st3" d="M234.3,460.9c.2.2,1-.7,2.4-1s2.4,0,2.5-.3-1.2-1-2.7-.5-2.3,1.7-2.1,1.8h0Z"/>
    <path class="st3" d="M238.9,466.4c.1-.2-.8-1-2.4-1s-2.5.8-2.4,1,1.1-.2,2.4-.2,2.2.4,2.4.1h0Z"/>
    <path class="st3" d="M229.2,452.2c.3,0,.4-1.2,1.1-2.4s1.5-2.1,1.4-2.3-1.4.4-2.2,1.8-.5,2.8-.3,2.8h0Z"/>
    <path class="st3" d="M224.2,448.6s.7-.8,1.1-2.4c.2-.9.4-1.8.4-2.8v-1.7c0-.3-.1-.6-.2-.9-.2-.5-.7-.7-1.2-.7s-.8.4-1,.7c-.1.3-.2.6-.3.9-.1.6-.2,1.1-.2,1.7,0,.9.1,1.9.4,2.8.5,1.5,1.2,2.3,1.3,2.2s-.4-.9-.7-2.4c-.2-.9-.3-1.7-.2-2.6,0-.5,0-1,.2-1.5,0-.6.3-1,.6-1s.1,0,.2.2c0,.2.1.5.2.7,0,.5.1,1,.1,1.6,0,.9,0,1.8-.2,2.6-.2.8-.3,1.6-.4,2.5h-.1Z"/>
    <path class="st3" d="M224.7,448.5s-.5-.9-2-1.6c-.8-.4-1.8-.7-2.7-.8h-1.7c-.7,0-1.4.3-1.8.9-.2.4-.1.9.2,1.3.2.2.5.5.7.6.5.3,1,.6,1.6.7.9.3,1.9.3,2.9.1,1.6-.4,2.4-1.2,2.3-1.2-.8.3-1.6.5-2.4.6-.9,0-1.7,0-2.5-.3-.5-.2-.9-.4-1.3-.7-.5-.3-.8-.7-.6-.8.3-.3.7-.5,1.2-.5h1.5c.9,0,1.7.3,2.5.6,1.4.5,2.1,1.1,2.2,1h0Z"/>
    <path class="st3" d="M237.7,391.9s32.1-12,43.8-10.4c6.6.9,16.9,5.9,17.7,14.4s-1.3,19.8-12.7,25.3c-11.4,5.5-56.9,25.9-67.7,29.1s-37.8,10.5-37.8,10.5l-10.2-29.2s56-19.3,58.9-21.5,10.4-5.1,10.4-5.1l-2.4-13h0Z"/>
    <path class="st14" d="M126.4,395.8h.2l.6-.3c.6-.2,1.4-.4,2.5-.7,1.3-.3,2.7-.6,4-.7,1.8-.2,3.6-.2,5.4,0,2.2.2,4.3.6,6.4,1.2,1.2.3,2.3.8,3.4,1.3l3.5,1.7c4.8,2.3,10.2,4.6,15.9,6.9,11.4,4.6,22.4,6.8,30.2,8.5,3.9.9,7.1,1.6,9.3,2.1l2.5.6h.9c0,.1-.2.1-.2.1l-.7-.2c-.6-.2-1.4-.4-2.5-.7-2.2-.6-5.3-1.3-9.3-2.2-7.8-1.8-18.7-4.1-30.1-8.6-5.7-2.3-11-4.6-15.8-6.9l-3.6-1.7c-1.1-.5-2.3-1-3.4-1.3-2.1-.6-4.3-1-6.5-1.2-1.8-.2-3.6-.2-5.4,0-1.4.2-2.7.4-4,.8-1.1.3-1.9.6-2.5.7l-.6.2-.2.2v.2Z"/>
    <path class="st14" d="M128,391.6s1-.1,2.5-.3c2-.2,4.1-.3,6.2-.2,2.1.1,4.1.4,6.1.8,1.5.3,2.5.6,2.5.5-.2-.1-.4-.2-.6-.3-.4-.1-1-.3-1.8-.5-2-.5-4.1-.8-6.1-.9-2.1-.1-4.1,0-6.2.3-.8.1-1.4.2-1.8.3-.2,0-.5,0-.7.2h0Z"/>
    <path class="st14" d="M251.2,400.4s.9-.6,2.5-1.6c2-1.2,4.1-2.2,6.3-3s4.5-1.3,6.8-1.6c1.8-.2,2.9-.2,2.9-.3h-2.9c-2.4.2-4.7.8-6.9,1.5-2.2.8-4.4,1.9-6.4,3.2-.6.4-1.2.8-1.7,1.3-.2.1-.4.3-.6.5Z"/>
    <path class="st14" d="M235.2,443.9h-.2c-.2.2-.4.3-.7.4-.7.3-1.6.7-2.8,1.2-2.5,1-6.2,2.4-10.9,3.9-9.5,3.1-23.1,7-39.4,11.1h.2c-3-8.3-6.4-17.7-9.9-27.4v.2l12.2-5,67.9-27.9h0c2.8-2.9,5.3-5.5,7.7-7.6,2-1.8,4.2-3.4,6.4-4.9,1.4-.9,2.9-1.7,4.4-2.5l1.2-.6.4-.2-.4.2-1.2.5c-1.5.7-3,1.5-4.5,2.4-2.3,1.4-4.5,3.1-6.5,4.8-2.4,2.1-5,4.6-7.7,7.6h0l-68,27.8-12.3,5h-.2v.2c3.6,9.8,6.9,19.1,9.9,27.5h0c0,.1.1.1.1.1,16.3-4.1,29.9-8.1,39.4-11.3,4.7-1.6,8.4-3,10.9-4,1.2-.5,2.2-1,2.8-1.2l.7-.3.4-.2v.2Z"/>
    <path class="st5" d="M172.8,277l7.2-4.1s6.6,7.7,15.6,6.8c5.6-.7,10.7-3.5,14.3-7.8l26.8,5.5h0c1.8.4,5.1,1.5,8.2,5.9l-4.2,42.1h0l-2,70.3-70.3-2-14.6-107.9s18.2-8.7,18.9-8.7h.1Z"/>
    <path class="st3" d="M240.9,295.9c-.1,0-.3,8.7-.4,19.5-.1,10.7-.1,19.5,0,19.5s.3-8.7.4-19.5c.1-10.7,0-19.5,0-19.5Z"/>
    <path class="st5" d="M153.9,285.8s-9.6,5.5-11.6,12.1c-1.2,4-10.2,54.6-11.6,64.6s1.6,17.4,5.8,20.7,17.2,7.7,17.2,7.7l18.1,5.9,5.2-13.2-17.3-24.8,1.7-16.7-7.6-56.2h.1Z"/>
    <path class="st3" d="M145.3,352.7s.6,0,1.7.3c1.5.3,3,.8,4.3,1.4,2.1.9,4,2.1,5.8,3.6,2.2,1.7,4.2,3.6,6.1,5.7,2,2.2,3.8,4.3,5.6,6.2,1.5,1.7,3.1,3.3,4.7,4.9,1.1,1,2.3,2,3.6,2.9.5.3.8.5,1.1.7.1,0,.3.2.4.2-.1-.1-.2-.2-.3-.3-.2-.2-.6-.4-1-.7-1.2-.9-2.4-1.9-3.6-2.9-1.4-1.3-3-3-4.7-4.9s-3.6-4.1-5.6-6.2c-1.9-2.1-4-4-6.2-5.7-1.8-1.4-3.8-2.6-5.9-3.5-1.4-.6-2.9-1-4.4-1.3-.4,0-.8-.1-1.2-.1h-.2l-.2-.3Z"/>
    <path class="st3" d="M143.8,347.9s1.1.2,2.7.7c4.4,1.2,8.4,3.6,11.5,6.9,1.2,1.2,1.8,2.1,1.9,2.1-.1-.2-.2-.5-.4-.7-.4-.6-.8-1.1-1.3-1.6-3.1-3.4-7.1-5.8-11.6-6.9-.7-.2-1.4-.3-2-.4h-.8,0Z"/>
    <path class="st5" d="M241.6,279.3s9.6,5.6,11.6,12.1c1.2,4,10.2,54.6,11.6,64.6s-1.6,17.4-5.8,20.7c-4.3,3.3-17.2,7.7-17.2,7.7l-18.2,5.9-5.2-13.2,17.3-24.8-1.7-16.7,7.6-56.2h0Z"/>
    <path class="st3" d="M251.7,341.5s-1.1.2-2.7.7c-4.4,1.2-8.3,3.6-11.5,6.8-1.2,1.3-1.8,2.1-1.9,2.1.1-.2.2-.4.4-.6.4-.6.8-1.1,1.3-1.6,3.1-3.4,7.1-5.8,11.6-6.9.7-.2,1.4-.3,2-.4h.8,0Z"/>
    <path class="st3" d="M207,274.5c.5.5,1.1.9,1.6,1.4.9.8,1.4,1.5,1.5,1.5-.3-.7-.7-1.3-1.3-1.7-.5-.5-1.2-.9-1.9-1.1h0Z"/>
    <path class="st3" d="M199.7,278.8s.6.8,1.2,2,.8,2.1.9,2.1c0-.8-.2-1.6-.6-2.3-.3-.7-.8-1.4-1.5-1.8h0Z"/>
    <path class="st3" d="M187.2,283.2c.3-.7.6-1.4.8-2.1.3-.7.5-1.4.7-2.1-.9,1.2-1.4,2.7-1.5,4.2Z"/>
    <path class="st3" d="M179.1,279.4c.1,0,.4-1.2,1.2-2.5s1.7-2.1,1.7-2.2c-.8.5-1.5,1.2-2,2-.6.8-.9,1.7-.9,2.7Z"/>
    <path class="st3" d="M156,302.2c-.1,0,1.1,9.6,2.7,21.5,1.6,11.8,2.9,21.4,3,21.4s-1.1-9.6-2.7-21.4-2.9-21.5-3-21.4h0Z"/>
    <path class="st3" d="M223.6,390.2c-.2-.3-.3-.6-.4-.9-.3-.7-.6-1.5-1.1-2.6-.9-2.4-2.3-5.6-3.9-9.7h0v-.2l16.6-23.7v.2c0-1.2,0-2.4.2-3.6.5-6.5,1.4-12.6,2.1-18.1.8-5.5,1.5-10.5,2.1-14.7s.9-7.6,1.2-10c.1-1.2.2-2.1.2-2.7s0-.6.1-.9v1c0,.6,0,1.5-.1,2.7-.1,2.4-.4,5.8-.9,10s-1.2,9.2-2,14.7-1.6,11.6-2.1,18.1c-.1,1.2-.2,2.4-.2,3.6h0v.2c-6.5,9.2-12.3,17.5-16.7,23.6v-.2c1.6,4.1,2.8,7.4,3.7,9.7l1,2.7c0,.3.1.6.2.9h0Z"/>
    <g class="st11">
      <path d="M157.5,387.2c-3-1.4-3.7-5.3-4-8.6l-2.7-29c-.4-4.5-.6-9.7,2.6-13,2.9-3,7.6-3.1,11.7-3.1,25.7,0,48.4.8,74.1.9l-1.3,45-80.5,7.8h0Z"/>
    </g>
    <path class="st0" d="M250.4,341.4l-2.7,52.1c-.1,2-1.8,3.6-3.8,3.6l-83.1.2c-2,0-3.7-1.5-3.8-3.6l-3.2-51.2c-.1-2.1,1.4-5,3.6-5h89.2c2.1,0,3.8,1.6,3.9,3.7v.2h0Z"/>
    <path class="st3" d="M250.4,341.4v-.8c-.1-.8-.5-1.5-1-2s-.9-.7-1.4-.9c-.6-.2-1.3-.3-2-.3h-88.4c-.6,0-1.2.1-1.7.4s-.9.8-1.3,1.3c-.7,1-1,2.2-1,3.4l.2,3.6c.3,4.7.6,9.5.9,14.4.6,9.7,1.2,19.9,1.9,30.2v1.9c.1.7.1,1.3.3,2,.3,1.3,1.2,2.5,2.5,2.9.6.2,1.3.3,2,.3h74.3c0-.1,8.8-.1,8.8-.1,1-.1,1.9-.6,2.5-1.4.6-.7.9-1.7.9-2.6s0-1.8.1-2.7c0-1.8.2-3.6.3-5.2.7-13.6,1.2-24.6,1.6-32.2.2-3.8.3-6.7.4-8.7v-3.1.8c0,.5,0,1.3-.1,2.3-.1,2-.3,5-.5,8.7-.4,7.6-1,18.6-1.7,32.2,0,1.7-.2,3.4-.3,5.2,0,.9,0,1.8-.1,2.7,0,.9-.3,1.8-.9,2.5-.6.7-1.4,1.2-2.4,1.3h-83.1c-.6,0-1.2,0-1.8-.2-1.2-.4-2-1.4-2.3-2.7,0-.6,0-1.3-.2-1.9v-1.9c-.8-10.3-1.4-20.4-2-30.2-.3-4.9-.6-9.7-.9-14.4l-.2-3.5c0-1.1.3-2.2,1-3.2.6-1,1.6-1.6,2.7-1.5h88.4c.7,0,1.3,0,2,.2,1.2.5,2.2,1.6,2.4,2.9v.7-.4Z"/>
    <path class="st6" d="M196.6,366.9c0,2.7,2.2,4.9,4.9,4.9s4.9-2.2,4.9-4.9-2.2-4.9-4.9-4.9-4.9,2.2-4.9,4.9h0Z"/>
    <path class="st3" d="M196.6,366.9s0-.4.2-1.2c.3-1,.9-2,1.8-2.6.6-.4,1.3-.7,2-.9,2.6-.5,5.1,1.2,5.5,3.8s-1.2,5.1-3.8,5.5c-.6.1-1.2.1-1.8,0-.7-.1-1.4-.4-2-.9-.9-.6-1.5-1.6-1.8-2.6-.2-.7-.2-1.2-.2-1.2v.3c0,.3,0,.6.1.9.4,1.9,2,3.4,3.9,3.7.9.2,1.8.1,2.7-.2,2.6-1,4-3.9,3-6.5-.5-1.4-1.6-2.5-3-3-.9-.3-1.8-.4-2.7-.2-1.9.4-3.4,1.8-3.9,3.7,0,.3-.1.6-.1.9v.5Z"/>
    <path class="st3" d="M247.6,347.2s-.5,8.8-.9,19.6-.7,19.5-.6,19.5.5-8.8.9-19.6.7-19.5.6-19.5Z"/>
  </g>
  <g id="freepik--Cursor--inject-25">
    <path class="st3" d="M569.1,300.8l-29.3-13.2c-.6-.3-1.2,0-1.5.5,0,.2,0,.5,0,.8l8.8,30.8c.2.6.8.9,1.4.8.2,0,.3-.1.4-.2l5.2-4.4c.5-.4,1.2-.3,1.6.1l12.4,14.4c.4.5,1.1.5,1.6.1l6.6-5.7c.5-.4.5-1.1,0-1.6l-12.4-14.4c-.4-.5-.3-1.2,0-1.6h0l5.4-4.6c.5-.4.5-1.1,0-1.6,0-.1-.2-.2-.4-.3h0Z"/>
    <path class="st3" d="M531.9,281.9c0,0-4-4-8.6-9.2s-8.3-9.5-8.2-9.6,4,4,8.6,9.2,8.3,9.5,8.2,9.6Z"/>
    <path class="st3" d="M533.7,261.7c.3.8.6,1.6.8,2.4.5,1.7,1,3.6,1.6,5.8s1.2,4.1,1.6,5.8c.3.8.5,1.6.6,2.4-.4-.7-.7-1.5-.9-2.3-.5-1.5-1.1-3.5-1.8-5.8s-1.1-4.4-1.4-5.9c-.2-.8-.4-1.6-.4-2.5h0Z"/>
    <path class="st3" d="M527.7,288.2c-2.4,0-4.8-.1-7.2-.5-2.4-.2-4.8-.5-7.1-1,4.8.1,9.5.6,14.2,1.4h0Z"/>
    <path class="st3" d="M530.2,294.1c-2.4,2.9-5.1,5.5-8,7.9,2.4-2.9,5.1-5.5,8-7.9Z"/>
    <path class="st3" d="M550.5,271.2c-1.7,3.4-3.8,6.6-6.4,9.5,2-3.3,4.1-6.4,6.4-9.5Z"/>
  </g>
  <g>
    <g>
      <polygon class="st5" points="567 388.1 650 352.5 676.2 408.1 589.6 443.6 567 388.1"/>
      <path class="st5" d="M567,388.1l26-48.5c1.1-2,3.5-3,5.7-2.4l51.3,15.2"/>
      <path class="st5" d="M567,388.1l26-48.5c1.1-2,3.5-3,5.7-2.4l51.3,15.2"/>
      <polyline class="st5" points="650 352.5 622.2 403.4 567 388.1"/>
    </g>
    <path class="st3" d="M589.6,443.5s3.5-10.2,8.1-22.5c4.6-12.4,8.4-22.4,8.6-22.4s-3.5,10.2-8.1,22.5c-4.6,12.4-8.4,22.4-8.6,22.4Z"/>
    <path class="st3" d="M676.2,408.1s-9.6-4.3-21.2-9.9c-11.6-5.6-21-10.2-20.9-10.3s9.6,4.3,21.2,9.9c11.6,5.6,21,10.2,20.9,10.3Z"/>
    <polygon class="st8" points="572.5 389.4 561.4 363.5 634 331.9 646.4 359 622.1 402.9 572.5 389.4"/>
    <path class="st3" d="M572.5,389.4s.3,0,.8.2l2.7.7,10,2.7c8.6,2.3,21.1,5.8,36.1,9.8h-.2l24.2-44.1h0c-2.3-5-4.8-10.5-7.3-16-1.6-3.8-3.4-7.4-5-11h.2l-72.6,31.6h0c3.5,8.1,6.2,14.5,8.1,18.9l2.2,5.1.6,1.3.2.5-.2-.5-.6-1.3-2.2-5.1c-1.9-4.5-4.7-10.9-8.2-19.1h0l72.6-31.5h.2c1.6,3.7,3.3,7.2,5,11,2.6,5.5,5,10.9,7.3,16.1h0l-24.3,44.2h0l-36.1-9.9-10-2.8-2.6-.7-.9-.3v.3c0,0,0,0,0,0h0Z"/>
    <path class="st3" d="M628,349.8s-11,4.9-24.7,10.8-24.9,10.5-24.9,10.5c0,0,11-4.9,24.7-10.8,13.8-5.9,24.9-10.5,24.9-10.4h0Z"/>
    <path class="st3" d="M631.1,357.2s-11,4.9-24.7,10.8-24.9,10.5-24.9,10.4,11-4.9,24.7-10.8,24.9-10.5,24.9-10.5h0Z"/>
    <path class="st3" d="M634.7,365.7s-11,4.9-24.7,10.8-24.9,10.5-24.9,10.4,11-4.9,24.7-10.8c13.8-5.9,24.9-10.5,24.9-10.5h0Z"/>
    <path class="st3" d="M638.2,374.2s-10.6,4.7-23.6,10.3c-13,5.7-23.7,10.2-23.8,10.1s10.6-4.7,23.6-10.3c13.1-5.6,23.7-10.2,23.8-10.1Z"/>
    <path class="st3" d="M631.9,385.5h-.3c0,.1-.8.5-.8.5l-3.1,1.3-10,4.5c-4,1.7-7.5,3.2-10.1,4.3l-3,1.3-.9.3s0,.3-.3.1h.3c0-.1.8-.5.8-.5l3.1-1.3,10-4.5c4-1.7,7.5-3.2,10.1-4.3l3-1.3.9-.3s0-.3.3-.1Z"/>
    <path class="st3" d="M625.6,396.7c-1.7.8-3.4,1.7-5.3,2.4-1.7.7-3.5,1.5-5.3,2.1,1.7-.8,3.4-1.7,5.3-2.4,1.7-.7,3.5-1.5,5.3-2.1Z"/>
  </g>
</svg>