<?xml version="1.0" encoding="UTF-8"?>
<svg id="Layer_1" xmlns="http://www.w3.org/2000/svg" version="1.1" viewBox="0 0 750 500">
  <!-- Generator: Adobe Illustrator 29.6.1, SVG Export Plug-In . SVG Version: 2.1.1 Build 9)  -->
  <defs>
    <style>
      .st0 {
        fill: #e0e0e0;
      }

      .st1 {
        fill: #d6b425;
      }

      .st2 {
        fill: #aa6550;
      }

      .st3 {
        fill: #b78876;
      }

      .st4 {
        fill: #ffbe9d;
      }

      .st5 {
        fill: #ebebeb;
      }

      .st6 {
        fill: #995037;
      }

      .st7 {
        fill: #263238;
      }

      .st8 {
        fill: #eb996e;
      }

      .st9 {
        fill: #1211ca;
      }

      .st10 {
        fill: #ffde59;
      }

      .st11 {
        fill: #fff;
      }

      .st12 {
        fill: #1abc9c;
      }

      .st13 {
        fill: #fafafa;
      }

      .st14 {
        opacity: .4;
      }

      .st15 {
        opacity: .6;
      }

      .st16 {
        opacity: .2;
      }

      .st17 {
        opacity: .3;
      }

      .st18 {
        fill: #f5f5f5;
      }

      .st19 {
        fill: #455a64;
      }
    </style>
  </defs>
  <g id="freepik--background-complete--inject-45">
    <polygon class="st18" points="295.3 441.4 295.3 465.6 330.7 465.6 369.7 465.6 369.7 441.4 295.3 441.4"/>
    <polygon class="st0" points="292.2 434.7 292.2 441.4 372.3 441.4 372.3 434.7 330.7 434.7 292.2 434.7"/>
    <polygon class="st0" points="332.2 465.6 369.7 465.6 369.7 441.4 372.3 441.4 372.3 434.7 330.7 434.7 330.7 440.8 332.2 465.6"/>
    <rect class="st0" x="305.7" y="445.3" width="15.1" height="3.6"/>
    <rect class="st11" x="303.8" y="453.5" width="19.4" height="7.7"/>
    <polygon class="st18" points="302.1 410.5 302.1 434.7 337.5 434.7 376.5 434.7 376.5 410.5 302.1 410.5"/>
    <polygon class="st0" points="299 403.7 299 410.5 379.1 410.5 379.1 403.7 337.5 403.7 299 403.7"/>
    <polygon class="st0" points="339.1 434.7 376.5 434.7 376.5 410.5 379.1 410.5 379.1 403.7 337.5 403.7 337.5 409.9 339.1 434.7"/>
    <rect class="st0" x="312.5" y="414.4" width="15.1" height="3.6"/>
    <rect class="st11" x="310.6" y="422.6" width="19.4" height="7.7"/>
    <path class="st18" d="M50.3,292.8s-3.9,2.9-3.9,6.8v19.9h29.1v-20.8s-.4-5.1-3.8-6h-21.4Z"/>
    <path class="st0" d="M48.6,318.5c-.3-2-.4-4.1-.4-6.1s1.4-3.9,3.4-4.5c1.5-.4,3.1.1,4.7.4,2.6.4,5.2,0,7.5-1.1,2-1,3.8-2.5,5.9-2.7,1.4-.1,3.1.5,3.5,1.9,0,.7,0,1.3,0,2-.5,3.1,0,6.9,0,9.8-8.1.4-16.6.1-24.7.3"/>
    <polyline class="st0" points="44.5 322.4 48.9 319.6 75.4 319.6 79.7 322.4 44.5 322.4"/>
    <path class="st18" d="M43.7,257.6v29.7h36v35.1h-35.2v8.4h60.6v-73.2c0-3.5-2.8-6.3-6.3-6.3h-48.9c-3.5,0-6.3,2.8-6.3,6.3h.1Z"/>
    <path class="st0" d="M105.2,258.3c0,.1-13.8.3-30.7.3s-30.7-.1-30.7-.3,13.8-.3,30.7-.3,30.7.1,30.7.3Z"/>
    <path class="st0" d="M88.1,330.9c0,0-.3-17.8-.3-39.7s0-39.7.3-39.7.3,17.8.3,39.7,0,39.7-.3,39.7Z"/>
    <path class="st0" d="M40.4,310l-.4-9c0-2.6.6-5.2,2-7.3,1.1-1.9,3.1-3.1,5.3-3.2h24.2v2.4h-23.8s-4.3.5-4.8,6.3c-.3,3.6-.3,7.2,0,10.8h-2.5Z"/>
    <rect class="st0" x="62.5" y="445.9" width="10.6" height="19.2"/>
    <rect class="st0" x="109.5" y="445.9" width="10.6" height="19.2"/>
    <rect class="st0" x="39.1" y="330.9" width="88.1" height="115"/>
    <rect class="st18" x="23" y="330.9" width="85.8" height="115"/>
    <rect class="st18" x="30.6" y="445.9" width="10.6" height="19.2"/>
    <rect class="st18" x="91.7" y="445.9" width="10.6" height="19.2"/>
    <path class="st0" d="M102,432.7v-28.4h0c0,.1-73.7.2-73.7.2h0l.2-.2v28.4l-.2-.2h68.1c0,.1,4.1.1,4.1.1H28.3c0,.1-.2.1-.2.1v-28.6h73.9v28.5h0Z"/>
    <path class="st0" d="M67.4,418.5c0-.2,0-.3,0-.5-.3-1.1-1.5-1.8-2.6-1.5h0c-.8.3-1.3,1.1-1.3,1.9,0,1.2.9,2.1,2.1,2.1s.9-.1,1.2-.4c.4-.3.7-.7.8-1.1,0-.2,0-.4,0-.5v.6c0,.5-.4,1-.8,1.3-.6.5-1.5.6-2.2.4-1.2-.4-1.9-1.8-1.5-3s1.8-1.9,3-1.5c.3,0,.5.2.7.4.4.3.7.8.8,1.3v.6h-.1Z"/>
    <path class="st0" d="M102,398.7v-28.4h0c0,.1-73.7.2-73.7.2h0l.2-.2v28.4l-.2-.2h68.1c0,.1,4.1.1,4.1.1H28.3c0,.1-.2.1-.2.1v-28.6h73.9v28.1c0,.3,0,.5,0,.5Z"/>
    <path class="st0" d="M67.4,384.5c0-.2,0-.4,0-.5,0-.5-.4-.9-.8-1.1-.9-.7-2.2-.5-2.9.4-.7.9-.5,2.2.4,2.9,0,.1.3.2.5.3,1.1.4,2.3-.2,2.7-1.3v-.2c0-.2,0-.3,0-.5v.6c0,.5-.4,1-.8,1.3-.6.5-1.5.6-2.2.4-1.2-.4-1.9-1.8-1.4-3,.2-.7.8-1.2,1.4-1.4.8-.3,1.6-.1,2.2.4.4.3.7.8.8,1.3v.6-.2Z"/>
    <path class="st0" d="M102,365.2v-28.4h0c0,.1-73.7.1-73.7.1h0l.2-.2v28.4l-.2-.2h73.6H28.2v-28.5h73.9v28.1c0,.3,0,.5,0,.5v.2Z"/>
    <path class="st0" d="M67.4,351c0-.2,0-.4,0-.5,0-.5-.4-.9-.8-1.1-.9-.7-2.2-.5-2.9.4-.7.9-.5,2.2.4,2.9.7.5,1.7.5,2.5,0,.4-.3.7-.7.8-1.1,0-.2,0-.4,0-.5v.6c0,.5-.4,1-.8,1.3-.6.5-1.5.6-2.2.4-1.2-.4-1.9-1.8-1.4-3,.4-1.2,1.8-1.9,3-1.4.2,0,.5.2.7.4.4.3.7.8.8,1.3v.6-.3Z"/>
    <path class="st0" d="M104.3,330.9c0,.1-13.4.3-29.8.3s-29.8-.1-29.8-.3,13.4-.3,29.8-.3,29.8.1,29.8.3Z"/>
    <rect class="st13" x="355.8" y="158.3" width="77.5" height="69.3"/>
    <path class="st0" d="M433.3,227.7v-69.4l.2.2h-77.5l.2-.2v69.3l-.2-.2h76.1-76.3v-69.7h77.9v68.3c0,.8-.2,1.5-.2,1.5l-.2.2Z"/>
    <path class="st0" d="M385.5,170.6c0,.1-4.1.2-9.1.2s-9.1,0-9.1-.2,4.1-.2,9.1-.2,9.1,0,9.1.2Z"/>
    <path class="st0" d="M418.4,175.9c0,.1-11.2.2-25,.2s-25-.1-25-.2,11.2-.2,25-.2,25,0,25,.2Z"/>
    <rect class="st0" x="367.5" y="184.7" width="3.3" height="3.3"/>
    <rect class="st0" x="375.5" y="184.7" width="3.3" height="3.3"/>
    <rect class="st0" x="383.7" y="184.5" width="3.3" height="3.3"/>
    <rect class="st0" x="391.6" y="184.7" width="3.3" height="3.3"/>
    <rect class="st0" x="399.6" y="184.7" width="3.3" height="3.3"/>
    <rect class="st0" x="407.6" y="184.7" width="3.3" height="3.3"/>
    <rect class="st5" x="415.7" y="184.7" width="3.3" height="3.3"/>
    <rect class="st5" x="367.5" y="191.6" width="3.3" height="3.3"/>
    <rect class="st0" x="375.5" y="191.6" width="3.3" height="3.3"/>
    <rect class="st5" x="383.5" y="191.6" width="3.3" height="3.3"/>
    <rect class="st0" x="391.6" y="191.6" width="3.3" height="3.3"/>
    <rect class="st0" x="399.6" y="191.6" width="3.3" height="3.3"/>
    <rect class="st0" x="407.8" y="191.5" width="3.3" height="3.3"/>
    <rect class="st0" x="415.7" y="191.6" width="3.3" height="3.3"/>
    <rect class="st0" x="367.5" y="198.6" width="3.3" height="3.3"/>
    <rect class="st0" x="375.6" y="198.4" width="3.3" height="3.3"/>
    <rect class="st0" x="383.5" y="198.6" width="3.3" height="3.3"/>
    <rect class="st5" x="391.6" y="198.6" width="3.3" height="3.3"/>
    <rect class="st0" x="399.6" y="198.6" width="3.3" height="3.3"/>
    <rect class="st0" x="407.6" y="198.6" width="3.3" height="3.3"/>
    <rect class="st0" x="415.7" y="198.6" width="3.3" height="3.3"/>
    <rect class="st0" x="367.5" y="205.5" width="3.3" height="3.3"/>
    <rect class="st0" x="375.5" y="205.5" width="3.3" height="3.3"/>
    <rect class="st0" x="383.5" y="205.5" width="3.3" height="3.3"/>
    <rect class="st0" x="391.7" y="205.4" width="3.3" height="3.3"/>
    <rect class="st0" x="399.6" y="205.5" width="3.3" height="3.3"/>
    <rect class="st5" x="407.6" y="205.5" width="3.3" height="3.3"/>
    <rect class="st0" x="415.7" y="205.5" width="3.3" height="3.3"/>
    <rect class="st0" x="367.5" y="212.4" width="3.3" height="3.3"/>
    <rect class="st5" x="375.5" y="212.4" width="3.3" height="3.3"/>
    <rect class="st0" x="383.5" y="212.4" width="3.3" height="3.3"/>
    <rect class="st0" x="391.6" y="212.4" width="3.3" height="3.3"/>
    <rect class="st0" x="399.6" y="212.4" width="3.3" height="3.3"/>
    <rect class="st0" x="407.8" y="212.3" width="3.3" height="3.3"/>
    <rect class="st0" x="415.7" y="212.4" width="3.3" height="3.3"/>
    <path class="st0" d="M662.1,210.5v-32.8c0-20.9,0-50.8,0-86.8l.2.2h-150.3l.3-.3v119.6l-.2-.2h108.6c0,.1,30.8.2,30.8.2h10.2-40.9l-108.7.2h-.2v-120.1h150.8v.2c0,36.1,0,66,0,86.9v30.5c0,1.4-.2,2.4-.2,2.4h-.2Z"/>
    <rect class="st0" x="531.2" y="113.1" width="5.4" height="60.7"/>
    <rect class="st5" x="541.7" y="133.7" width="5.4" height="40.1"/>
    <rect class="st0" x="552.2" y="120.6" width="5.4" height="53.5"/>
    <rect class="st5" x="562.7" y="115.4" width="5.4" height="58.4"/>
    <rect class="st0" x="573.2" y="134.9" width="5.4" height="38.9"/>
    <rect class="st5" x="583.7" y="142.6" width="5.4" height="31.2"/>
    <rect class="st0" x="594.2" y="119.3" width="5.4" height="54.5"/>
    <rect class="st5" x="604.6" y="129.1" width="5.4" height="44.7"/>
    <rect class="st0" x="615.1" y="121.3" width="5.4" height="52.5"/>
    <rect class="st5" x="625.6" y="138" width="5.4" height="35.8"/>
    <rect class="st0" x="636.1" y="131.2" width="5.4" height="42.6"/>
    <path class="st0" d="M643.8,178c0,.1-25.8.2-57.6.2s-57.6-.1-57.6-.2,25.8-.2,57.6-.2,57.6.1,57.6.2Z"/>
    <path class="st0" d="M538.9,182.8c-2.7.3-5.4.3-8.1,0,2.7-.3,5.4-.3,8.1,0Z"/>
    <path class="st0" d="M552.3,183c-3.2.3-6.4.3-9.6,0,3.2-.3,6.4-.3,9.6,0Z"/>
    <path class="st0" d="M563.7,183c-3.2.3-6.4.3-9.6,0,3.2-.3,6.4-.3,9.6,0Z"/>
    <path class="st0" d="M575.2,183c-3.2.3-6.4.3-9.6,0,3.2-.3,6.4-.3,9.6,0Z"/>
    <path class="st0" d="M586.6,183c-3.2.3-6.4.3-9.6,0,3.2-.3,6.4-.3,9.6,0Z"/>
    <path class="st0" d="M598,183c-3.2.3-6.4.3-9.6,0,3.2-.3,6.4-.3,9.6,0Z"/>
    <path class="st0" d="M609.4,183c-3.2.3-6.4.3-9.6,0,3.2-.3,6.4-.3,9.6,0Z"/>
    <path class="st0" d="M620.8,183c-3.2.3-6.4.3-9.6,0,3.2-.3,6.4-.3,9.6,0Z"/>
    <path class="st0" d="M632.2,183c-3.2.3-6.4.3-9.6,0,3.2-.3,6.4-.3,9.6,0Z"/>
    <path class="st0" d="M643.6,183c-3.2.3-6.4.3-9.6,0,3.2-.3,6.4-.3,9.6,0Z"/>
    <rect class="st5" x="507" y="90.2" width="159.4" height="4.5"/>
    <polygon class="st0" points="373.2 215.9 372.1 212.2 374.2 212.3 374.4 215.7 373.2 215.9"/>
    <polyline class="st0" points="370.1 215.8 367.7 228.8 361.7 246 395.9 241.1 382.1 226.1 376.3 214.9 370.1 215.8"/>
    <path class="st0" d="M302.8,307.2v-.5c-.2-6,4.5-11,10.5-11.2s11,4.5,11.2,10.5v1.2h-21.7Z"/>
    <path class="st0" d="M313.7,296.2c-.2,0-.4-.1-.4-.3l-14.4-54.8c0-.2,0-.5.3-.5s.5,0,.5.3l14.4,54.8c0,.2,0,.5-.3.5h-.1Z"/>
    <path class="st0" d="M309.9,297.6c-.2,0-.4-.1-.4-.3l-14.4-54.8c0-.2,0-.5.3-.5s.5,0,.5.3l14.4,54.8c0,.2,0,.5-.3.5h-.1Z"/>
    <path class="st0" d="M294.4,241.5c0,1.5,1.2,2.7,2.7,2.7s2.7-1.2,2.7-2.7-1.2-2.7-2.7-2.7h0c-1.5,0-2.7,1.2-2.7,2.7Z"/>
    <polygon class="st0" points="297.4 241.9 296.9 241.1 347.9 206 377.7 222.9 377.2 223.7 347.9 207 297.4 241.9"/>
    <rect class="st0" x="294.4" y="225.6" width="61.1" height=".9" transform="translate(-70.9 225.2) rotate(-34.7)"/>
    <path class="st0" d="M346.2,207.8c0,1.3,1.1,2.4,2.4,2.4s2.4-1.1,2.4-2.4-1.1-2.4-2.4-2.4-2.4,1.1-2.4,2.4h0Z"/>
    <polygon class="st0" points="373.6 79.2 329.9 93.9 428.6 93.9 387.6 79.2 373.6 79.2"/>
    <path class="st0" d="M385.9,92.9c-.2.9-.3,1.7-.3,2.6,0,2.4.5,4.7,1.6,6.8.7,1.3,1.6,2.7,2.2,4.4.8,1.8,1,3.8.6,5.7-.4,2.1-1.5,4-3.1,5.5-1.7,1.6-4,2.4-6.3,2.4s-4.6-.7-6.4-2.2c-3.2-2.7-4.3-7.1-2.8-11.1.7-1.5,1.6-2.9,2.6-4.2.8-1,1.6-2.2,2.1-3.4.4-.9.6-1.9.7-2.9,0-.9-.2-1.7-.6-2.5.1.2.3.4.4.6.3.6.4,1.3.4,1.9,0,1-.2,2.1-.6,3-.6,1.3-1.3,2.4-2.1,3.5-1,1.3-1.9,2.7-2.5,4.2-1.4,3.7-.3,7.9,2.8,10.5,1.7,1.4,3.9,2.1,6.1,2.1s4.3-.8,6-2.3c1.5-1.4,2.6-3.2,3-5.2.4-1.8.2-3.7-.5-5.4-.6-1.6-1.5-3-2.2-4.4-1.2-2.1-1.7-4.6-1.5-7,0-.7.1-1.3.3-1.9,0-.2,0-.4.1-.6h0Z"/>
    <path class="st0" d="M382.3,93.8c0,.6-.1,1.2-.3,1.8-.2,1.7-.4,3.3-.5,5-.1,2.5,0,5,.3,7.4,0,.3.2.6.4.8.2.2.5.3.8.3.5,0,.8-.9.7-1.6-.3-1.7-1.9-2.9-3.6-2.6-1.3.2-2.3,1.2-2.6,2.5-.1.7.2,1.3.8,1.6.6,0,1.2-.2,1.4-.8.2-.6.3-1.3.3-2v-1.9c0-1.2,0-2.3-.1-3.5-.2-1.7-.4-3.4-.8-5-.3-1.2-.5-1.8-.4-1.8,0,0,.1.3.2.4.1.3.3.7.4,1.3.5,1.6.8,3.3,1,5,.1,1.2.2,2.3.2,3.5v1.9c0,.7-.1,1.4-.4,2.1-.2.4-.4.7-.8.9-.4.3-.8.3-1.3.2-.8-.3-1.3-1.2-1.2-2.1.3-2,2.2-3.3,4.2-3,1.6.3,2.8,1.5,3,3.1,0,.4,0,.9-.2,1.2-.2.4-.5.8-1,.9-.5,0-.9,0-1.2-.4-.3-.3-.4-.7-.5-1.1-.3-2.5-.4-5-.2-7.5.1-1.7.3-3.3.7-5,.1-.6.2-1,.3-1.3,0,0,.1-.3.2-.4h.2Z"/>
    <path class="st0" d="M380.6,4.2v74.3V4.2Z"/>
    <polygon class="st0" points="373.6 79.2 376.3 67.1 385.3 67.1 387.6 79.2 373.6 79.2"/>
    <rect class="st0" x="223.5" y="76.3" width="4.9" height="105.5"/>
    <rect class="st18" x="152.2" y="77.2" width="70.5" height="104.9"/>
    <path class="st5" d="M223.5,182.9h-72v-106.4h72v106.4h0ZM153.1,181.2h68.7v-103.1h-68.7v103.1h0Z"/>
    <rect class="st13" x="159.4" y="83.6" width="56.4" height="91.9"/>
    <rect class="st5" x="171.6" y="109.7" width="31.7" height="37.1"/>
    <path class="st0" d="M200.8,142.2c0,.1-1.5.8-4.5.5-1.8-.2-3.6-.9-5.1-2-2-1.5-3.4-3.7-3.9-6.2-.6-3.1.6-6.4,3-8.4.7-.6,1.5-1,2.3-1.3.9-.3,1.9-.4,2.9-.3,1.1,0,2.1.5,2.9,1.2.9.9,1.3,2.1,1.1,3.3-.2,1.1-.8,2.1-1.6,2.9-.7.7-1.5,1.3-2.4,1.8-1.7,1-3.7,1.5-5.7,1.6-2.1.1-4.2-.4-6.1-1.4-1.9-1.1-3.5-2.7-4.5-4.6-1-2-1.3-4.3-.8-6.5.5-2.1,1.7-4,3.4-5.3.9-.7,1.8-1.1,2.9-1.4,1.1-.3,2.2-.3,3.2,0,1.1.2,2.2.8,2.9,1.7.7.9,1.1,2,1.1,3.1s-.3,2.1-.8,3c-.5.8-1.1,1.6-1.8,2.2-1.3,1.1-2.8,1.9-4.5,2.4-1.5.4-3.1.6-4.7.4-1.5-.2-2.9-.7-4.1-1.6-2.1-1.4-3.6-3.7-3.9-6.2-.2-1.9.3-3.8,1.5-5.3.7-.9,1.6-1.7,2.7-2.2.7-.3,1.2-.3,1.2-.2s-.3.3-.9.7c-.9.6-1.6,1.4-2.1,2.2-.8,1.4-1.1,3-.9,4.6.4,2,1.7,3.8,3.5,4.9,2.2,1.3,4.8,1.5,7.2.7,1.3-.4,2.6-1.1,3.6-2,1-.8,1.7-2.1,1.7-3.4s-.9-2.3-2.2-2.4c-.7,0-1.4,0-2.1,0-.7.2-1.4.5-2,1-1.2,1-2.1,2.4-2.5,3.9-.4,1.6-.1,3.3.6,4.7.8,1.5,1.9,2.7,3.4,3.5,1.4.8,3.1,1.2,4.7,1.1,1.6,0,3.2-.5,4.6-1.3.7-.3,1.3-.8,1.8-1.3.5-.4.8-.9.9-1.5,0-.4,0-.9-.4-1.2-.4-.4-1-.6-1.5-.7-.6,0-1.2,0-1.8.2s-1.2.5-1.7.9c-1,.8-1.7,1.8-2.2,3-.4,1.1-.5,2.3-.4,3.4.3,2.1,1.4,4,3,5.4,1.3,1,2.7,1.8,4.3,2.2,2.8.6,4.4.3,4.4.5l.3-.3Z"/>
  </g>
  <g id="freepik--Floor--inject-45">
    <path class="st7" d="M729.2,465c0,.1-159.6.3-356.5.3s-356.5,0-356.5-.3,159.6-.3,356.5-.3,356.5.2,356.5.3Z"/>
  </g>
  <g id="freepik--character-3--inject-45">
    <path class="st3" d="M519.9,182.8h0c2.1-3.1,3.3-5.4,4.8-7.3,1.8-2.4,2.4-3.5,2-3.8s-.4-.3-4.3,3.6c0,0,5.6-5.5,3.5-5.3-1,.1-5.7,4.7-5.7,4.7,4.1-3.3,5.1-5.2,4.6-5.8-.8-.9-6.4,4.7-6.4,4.7,0,0,4.4-4.2,5-5.1s-.8-.7-1.8-.2-7.4,4.9-9.3,6c-.6.4-1.4.3-1.8-.2,0,0,0-.1-.1-.2-1.1-3-3.6-4.7-4.5-4.9-.6,0-1,.5-1,1s.1.5.3.7c.7.8,1.3,1.8,1.7,2.8.4.8.6,1.6.7,2.5.1,1,.2,1.9.2,2.6l-2.9,15.9,10,7,5.1-18.6h0Z"/>
    <path class="st2" d="M520,177.6c2-1.6,3.8-3.4,5.3-5.4-2,1.6-3.8,3.4-5.3,5.4Z"/>
    <path class="st2" d="M518.4,176.3c1.1-.7,2.2-1.6,3.2-2.5,1.1-.8,2-1.8,2.8-2.9-2.2,1.5-4.2,3.4-6,5.4h0Z"/>
    <path class="st2" d="M516.7,174.9c2.1-1.4,4-3.1,5.7-5-1.1.6-2.1,1.4-3,2.3-1,.8-1.9,1.7-2.7,2.7Z"/>
    <path class="st3" d="M451.1,133.9c8.1-.7,15.2,5.4,15.9,13.5v.3c.4,6.9.8,14.3.7,18-.1,8-8.1,9.3-8.1,9.3,0,0,1.1,13.9,1,16.2l-21.2,1-1.9-42.8c-.4-8,5.7-14.8,13.6-15.4h0Z"/>
    <path class="st2" d="M459.6,174.8c-3.7,0-7.3-1-10.4-3,0,0,2.5,5.8,10.5,5v-2h-.1Z"/>
    <path class="st3" d="M438.2,152c-.1,0-5.5-1.6-5.3,3.9s5.6,4.2,5.6,4-.3-7.9-.3-7.9h0Z"/>
    <path class="st2" d="M436.8,157.8s-.1,0-.3.1h-.7c-.7-.4-1.2-1.2-1.2-2.1s0-.9.2-1.4c0-.3.4-.6.7-.8.2,0,.5,0,.6.2v.3s.1-.1,0-.3c0-.1-.1-.3-.2-.3-.2-.1-.3-.2-.5-.1-.5,0-.8.4-1,.9s-.3,1-.3,1.5c0,1,.6,1.9,1.5,2.3.3,0,.6,0,.9-.2.2,0,.2-.2.2-.2h0Z"/>
    <path class="st7" d="M464.9,152.8c0,.6-.5,1.1-1.1,1.2-.6,0-1.1-.4-1.2-1,0-.6.5-1.1,1.1-1.2h0c.6,0,1.1.4,1.2,1Z"/>
    <path class="st7" d="M464.9,150.5c-.1.1-1-.5-2.2-.5s-2.1.6-2.3.5,0-.3.5-.6c.5-.4,1.2-.6,1.8-.6s1.3.2,1.8.6c.4.3.5.6.4.6h0Z"/>
    <path class="st7" d="M452.8,152.8c0,.6-.5,1.1-1.1,1.2-.6,0-1.1-.4-1.2-1,0-.6.5-1.1,1.1-1.2.6,0,1.1.4,1.2,1Z"/>
    <path class="st7" d="M452.8,150.7c-.1.1-1-.5-2.2-.5s-2.1.6-2.3.5,0-.3.5-.6c.5-.4,1.2-.6,1.8-.6s1.3.2,1.8.6c.4.3.5.6.4.6h0Z"/>
    <path class="st7" d="M457.3,159.9c.6-.2,1.3-.3,2-.4.3,0,.6,0,.7-.3,0-.3,0-.6-.2-.9-.3-.8-.6-1.6-.9-2.4-.9-2-1.6-4.1-2.1-6.3,1,2,1.9,4,2.6,6.1.3.8.6,1.6.9,2.4.2.4.3.8.2,1.2,0,.2-.3.4-.5.5h-2.7Z"/>
    <path class="st7" d="M453.6,160.7c.2,0,.2,1.3,1.4,2.3s2.6.8,2.6,1-.3.3-.9.3-1.5-.3-2.1-.8-.9-1.2-1-1.9c0-.6,0-.9.1-.9h-.1Z"/>
    <path class="st7" d="M453.1,145.9c-.1.3-1.4.2-2.8.4s-2.6.6-2.8.3c0-.1.1-.4.6-.8,1.3-.8,2.9-1,4.3-.5.5.2.8.5.7.6h0Z"/>
    <path class="st7" d="M464.5,147c-.2.3-1.1,0-2.1,0s-1.9.2-2.1-.1c0-.1,0-.4.4-.7.5-.3,1.1-.5,1.7-.4.6,0,1.2.2,1.7.6.4.2.5.5.4.7h0Z"/>
    <path class="st7" d="M437.7,151.8c-.1.8-.1,1.7,0,2.5s.7,1.6,1.4,2c1.4.7,3.1-.4,3.7-1.8.5-1.5.6-3,.3-4.6-.3-2.1-.2-4.2,0-6.3.3-2.1,1.4-4,3-5.4s3.9-1.7,5.9-.9c1.1.7,2.1,1.5,3.1,2.3,1,.7,2.1,1,3.3.8,1.2-.2,2.2-1,2.5-2.1.2-1.3-.3-2.6-1.3-3.4-1-.8-2.2-1.2-3.5-1.4-3.5-.7-7.1-.4-10.4.8-3.3,1.3-6,3.8-7.5,7-1.6,3.8-.5,6.7-.7,10.9"/>
    <path class="st0" d="M519.1,187.4l-13.1-3.2-8.6,23.5-23.9-21.4h0c-2.5-1.9-6.9-2.1-10.3-2.5h-.3c-1.3-.1-1.9-.3-2.7-.4-5.8,4.3-15.6,4.6-21.3.1,0,0-4.3,1-6.9,1.5-8.1,1.6-13.9,7.4-15.5,12.9l10.1,23.3,1.9,22.1-5.6,19.8c-.5,1.8.5,3.7,2.4,4.2.2,0,.3,0,.5.1l50,.8.8-.4c1.2-1.9,1.7-4.1,1.3-6.3-2.2-9.5-.6-37.8-1.1-46.4,9.8,9.5,20.6,17.4,28.6,12.6,6.6-4.1,13.5-40.2,13.5-40.2h.2Z"/>
    <polygon class="st10" points="439.3 182.9 439.3 182.9 439.3 182.9 439.3 182.9"/>
    <polygon class="st0" points="437.3 184.9 438.5 176.9 449.4 180.9 452.5 186.4 454.4 180.4 460.4 178.4 462.9 183.7 458.5 189.9 450.3 191.6 437.3 184.9"/>
    <path class="st7" d="M452.7,187.6s-.2,0-.4-.3c-.4-.3-.7-.7-1-1.1-1.1-1.4-2-2.9-2.6-4.5h.4l-2.5,6.3c-.4,1.1-.9,2.1-1.3,3.1v.3c-.1,0-.4-.2-.4-.2-2.2-2.1-4.1-4-5.4-5.3l-1.6-1.6c-.2-.2-.4-.4-.5-.6.2.1.4.3.6.5l1.6,1.5c1.4,1.3,3.3,3.1,5.6,5.2h-.4l1.2-3.1c.9-2.3,1.8-4.4,2.6-6.3l.2-.5.2.5c.6,1.6,1.4,3.1,2.4,4.5.7,1,1.3,1.5,1.2,1.6h0Z"/>
    <path class="st7" d="M462.9,183.7c-.3.6-.8,1.2-1.3,1.8-1.2,1.4-2.6,2.7-4.2,3.7h-.2c0,.1-.1-.1-.1-.1-.4-1-.8-2-1.2-3.1-.7-1.6-1.3-3.2-1.8-4.6h.4c-.4,1.8-.8,3.3-1.1,4.3-.1.6-.3,1.1-.5,1.6,0-.6,0-1.1.2-1.7.2-1.1.6-2.6.9-4.4v-.8c.1,0,.4.8.4.8.5,1.4,1.1,2.9,1.8,4.5.4,1.1.8,2.1,1.2,3.1h-.3c1.5-1.1,3-2.2,4.2-3.6.5-.6,1-1.1,1.5-1.6h.1Z"/>
    <path class="st7" d="M456.6,269.1v-.8c0-.5.1-1.4.2-2.4s.2-2.3.3-3.8c0-.7.1-1.5.2-2.4s0-1.7.1-2.6c.2-3.7.2-8.1,0-13.1s-.4-10.3-.8-16c-.8-11.3-1.9-21.6-2.8-28.9-.4-3.7-.8-6.6-1-8.8-.1-1-.2-1.8-.3-2.4v-.8c0,.3.1.5.1.8,0,.6.2,1.4.4,2.4.3,2.1.7,5,1.2,8.7.9,7.4,2.1,17.6,2.9,28.9.4,5.7.6,11.1.7,16s0,9.4-.2,13.1c0,.9-.1,1.8-.1,2.6s-.1,1.6-.2,2.4c-.1,1.5-.2,2.8-.4,3.8s-.3,1.8-.3,2.4,0,.6-.2.9h.2Z"/>
    <path class="st7" d="M497.1,216.8c-.3-1.6-.3-3.2-.2-4.8,0-1.6,0-3.2.2-4.8.2,1.6.3,3.2.2,4.8,0,1.6,0,3.2-.2,4.8Z"/>
    <path class="st7" d="M500.4,217.4c0,.4-.7-.8-2.1-4.9-.7-1.7-1.1-3.4-1.3-5.2.7,1.6,1.3,3.3,1.8,5,.7,1.7,1.2,3.4,1.7,5.1h-.1Z"/>
    <path class="st19" d="M468.1,436.7l-.8,18.2s18.2,6.9,18.4,10.2l-35.3-.2v-28.4h17.6v.2Z"/>
    <path class="st0" d="M456.5,453.2c-.7.2-1.1.9-1,1.6.2.7.9,1.1,1.6,1,.7-.2,1.2-1,1.1-1.7-.3-.7-1.1-1.1-1.8-.9"/>
    <g class="st15">
      <path class="st11" d="M450.5,464.9v-2.9c.1,0,33.9,1.3,33.9,1.3,0,0,1.6.7,1.4,1.8l-35.3-.2h0Z"/>
    </g>
    <path class="st7" d="M467.9,454.7c0,.2-.9.2-1.7.8s-1.3,1.3-1.5,1.2.1-1.1,1.1-1.7,2.1-.4,2-.3h.1Z"/>
    <path class="st7" d="M471.6,456.2c0,.2-.7.5-1.3,1.2s-.8,1.5-.9,1.5-.3-1,.5-1.9,1.8-1,1.8-.8h-.1Z"/>
    <path class="st7" d="M473.7,460.6c-.2,0-.4-.8,0-1.8s1.2-1.3,1.3-1.2-.4.6-.8,1.4-.4,1.5-.6,1.5h.1Z"/>
    <path class="st7" d="M467.6,450.5c0,.1-.9,0-1.8,0s-1.7.4-1.8.2.6-.8,1.8-.8,2,.5,1.9.6h-.1Z"/>
    <path class="st7" d="M467.7,446.8c-.6.2-1.2.2-1.8,0-.6-.1-1.3-.3-1.9-.6-.3-.2-.7-.3-1-.5-.2-.1-.4-.3-.5-.4-.2-.3-.3-.6,0-.9s.5-.4.8-.4.4,0,.7.1c.4,0,.7.2,1.1.4.6.3,1.1.6,1.6,1.1.8.8,1.1,1.4,1,1.4s-.5-.5-1.3-1.1c-.5-.4-1-.7-1.6-.9-.3-.1-.7-.2-1-.3-.4-.1-.7-.1-.8,0s0,0,0,.2c.1.1.2.2.4.3.3.2.6.4.9.5.5.3,1.1.5,1.7.7.6,0,1.2.2,1.7.4h0Z"/>
    <path class="st7" d="M467.5,447.1c-.3-.5-.5-1.1-.5-1.7s0-1.3.2-1.9c.1-.4.3-.7.5-1.1.2-.5.6-.8,1.1-.9.3,0,.6.2.7.5,0,.2.1.4.2.6v1.2c-.1.7-.4,1.3-.8,1.8-.7.9-1.4,1.1-1.4,1.1,0,0,.5-.4,1.1-1.3.3-.5.5-1.1.6-1.7v-1c0-.4-.2-.7-.3-.6s-.5.3-.6.6c-.2.3-.3.7-.4,1-.2.6-.3,1.2-.4,1.8v1.7h0Z"/>
    <path class="st19" d="M407.3,431.3l-5.7,22.7-9.7,16.7c-.7,1.1-.3,2.6.9,3.3h.1c.7.4,1.5.4,2.2,0,4.4-2.4,20.4-11.1,20.7-12.8.4-2,7.6-23.6,7.6-23.6l-16.1-6.4h0Z"/>
    <g class="st15">
      <path class="st11" d="M392.8,474.1l23.3-14.4-.3,1c-.2.8-.7,1.5-1.5,2-1.9,1.3-7.2,4.7-19.3,11.3-.7.4-1.6.4-2.3,0h0Z"/>
    </g>
    <g class="st15">
      <path class="st11" d="M413.5,451.2c-.7.3-1.1,1-.9,1.7s1,1.1,1.7.9c.7-.3,1.1-1.1.9-1.8-.3-.7-1.1-1-1.9-.7"/>
    </g>
    <path class="st7" d="M400.7,465.7c-.4-.9-.9-1.6-1.5-2.3-.7-.6-1.6-1-2.5-1.2,0,0,.3-.2.9,0,1.5.2,2.6,1.3,3.1,2.7.1.5,0,.9,0,.9h0Z"/>
    <path class="st7" d="M398.3,468.2c-.1,0-.7-.9-1.7-1.5-.7-.3-1.4-.6-2.1-.9.8-.2,1.7,0,2.4.5,1.2.7,1.6,1.9,1.5,2h0Z"/>
    <path class="st7" d="M404.8,462.6c-.8-.9-1.6-1.8-2.5-2.5-1-.6-2.1-1.2-3.1-1.7,2.6.2,4.8,1.9,5.7,4.2h-.1Z"/>
    <path class="st7" d="M407.1,455.8c-.1.1-1.2-.8-2.8-1.3s-3-.5-3-.6c1-.3,2.2-.3,3.2.1,1.1.3,2,.9,2.6,1.8h0Z"/>
    <path class="st7" d="M409,449.2c-.9-.6-1.9-1.1-2.9-1.4-1.1-.2-2.1-.2-3.2,0,0,0,.3-.3.9-.4.8-.2,1.6-.2,2.4,0s1.5.6,2.1,1.1c.4.4.6.8.6.8h.1Z"/>
    <path class="st7" d="M406.5,446.6c0-.3,0-.6.2-.9.3-.7.7-1.4,1.3-2,.4-.5.9-.8,1.5-1,.4,0,.8.1,1,.5s.2.8,0,1.1c-.5,1.5-2.1,2.5-3.7,2.2s-2.8-1.4-3.2-3c0-.4,0-.8.2-1.1.3-.3.7-.4,1.1-.2.5.3,1,.7,1.3,1.2.5.7.8,1.4,1.1,2.2.1.3.1.6.1.9-.4-1-.9-2-1.5-2.8-.3-.4-.7-.8-1.1-1-.2,0-.4,0-.6.1-.1.2-.2.5-.1.7.3,1.3,1.4,2.3,2.8,2.6,1.4.2,2.7-.6,3.2-1.9v-.8c-.1-.2-.3-.3-.5-.3-.5.1-.9.4-1.3.8-.7.8-1.4,1.7-1.8,2.6h0Z"/>
    <g id="Tie">
      <polygon class="st9" points="447.9 184.6 450.4 185.9 449.9 190 446 189.2 447.9 184.6"/>
      <polygon class="st9" points="453.6 185.6 455.4 184 457.2 188.3 454.7 189.5 453.6 185.6"/>
      <polygon class="st9" points="450.8 191.1 449.7 240.4 458 248.6 462 237.7 454 190.8 450.8 191.1"/>
      <path class="st9" d="M450.9,184.4c.6,0,1.4-.2,2-.4.6-.1,1.2.1,1.5.7l1,1.9c.2.3.2.6.1.9l-.4,2.2c-.1.6-.6,1-1.1,1.1l-2.4.5c-.6.1-1.2-.2-1.5-.7l-1.1-2.3c-.2-.4-.2-.8,0-1.2l.8-1.9c.2-.4.6-.7,1.1-.8Z"/>
    </g>
    <g class="st14">
      <polygon points="447.9 184.6 450.4 185.9 449.9 190 446 189.2 447.9 184.6"/>
    </g>
    <path class="st7" d="M454.3,184.9c-.2.3-.4.5-.6.8-.4.5-1,1.1-1.6,1.8s-1.2,1.3-1.7,1.8c-.2.3-.5.5-.7.7.2-.3.4-.5.6-.8.4-.5,1-1.1,1.6-1.8s1.2-1.3,1.7-1.8c.2-.3.5-.5.7-.7Z"/>
    <path class="st7" d="M451.9,187.1c-.4-.3-.8-.6-1.1-1-.4-.3-.7-.7-1-1.1.4.3.8.6,1.1,1,.4.3.7.7,1,1.1Z"/>
    <path class="st7" d="M454.7,190.3c.1-1,.3-1.9.6-2.9,0-.7-.2-1.3-.6-1.9-.2-.2-.3-.5-.3-.8,0,0,.1.3.4.7.1.2.3.5.5.8.2.4.2.8.2,1.1-.2.8-.4,1.5-.5,2,0,.3-.2.6-.3.8v.2Z"/>
    <path class="st7" d="M476,268l-3.5,181c0,1.2-1,2.2-2.2,2.2l-21.1-.2c-1.2,0-2.2-1-2.2-2.3h0l3.2-155.7-27.4,154.6c-.4,1.9-2.1,3.3-4,3.3l-17.7-.6c-2.2,0-3.9-2-3.8-4.2v-.4l27.7-178.4,51,.7Z"/>
    <path class="st19" d="M409.6,441.3v-.4l.2-1.2c.2-1.1.4-2.7.8-4.8.7-4.2,1.7-10.2,2.9-17.6,2.5-14.9,5.9-35.3,9.6-58s7.1-43.1,9.4-58c1.1-7.4,2.1-13.4,2.7-17.6.3-2.1.6-3.7.8-4.8l.2-1.2v-.4.4c0,.3,0,.7-.2,1.2-.1,1.1-.4,2.7-.7,4.8-.6,4.2-1.5,10.2-2.6,17.6-2.2,14.9-5.5,35.4-9.2,58s-7.2,43.1-9.8,57.9-2.4,13.4-3.1,17.5c-.4,2-.7,3.6-.9,4.8-.1.5-.2.9-.2,1.2s-.1.4-.1.4l.2.2Z"/>
    <path class="st19" d="M463.7,442c-.1,0,.1-36.8.5-82.3s.9-82.3,1-82.3-.1,36.8-.5,82.3-.9,82.3-1,82.3Z"/>
    <path class="st19" d="M473.1,442.6c0,.1-5.8.2-12.8.2s-12.8-.1-12.8-.2,5.8-.2,12.8-.2,12.8.1,12.8.2Z"/>
    <path class="st19" d="M424,441.6c-.3,0-.7.1-1,.1h-2.8c0,.1-9.3.3-9.3.3-3.6,0-6.9.1-9.3,0h-3.8c.3,0,.7-.1,1-.1h2.8l9.3-.3c3.6,0,6.9-.1,9.3,0h3.8Z"/>
    <path class="st19" d="M453.9,270.2v3.1c-.1,1.9-.3,4.6-.5,7.5-.1,1.5-.2,2.9-.4,4.2-.1,1.2-.5,2.3-1.1,3.3-.4.7-1,1.2-1.7,1.6-.2.2-.5.2-.8.2.9-.4,1.7-1.1,2.2-2,.5-1,.9-2,1-3.1.1-1.2.2-2.7.3-4.1.2-2.9.5-5.6.7-7.5,0-1.1.2-2.1.4-3.1h-.1Z"/>
    <g class="st17">
      <path d="M426.7,252.9c2.2,2.1,5.3,2.9,8.2,2.4,2.1-.4,4-1.6,6.1-1.4,2.3.1,4.2,1.8,6.3,2.7,3.9,1.8,8.5,1.2,12.7.1,1.9-.5,3.9-1.2,5.2-2.8.9-1.3,1.4-2.7,1.6-4.3.5-2.8.7-5.7.6-8.5.1-1.8-.4-3.6-1.4-5.1-1-1.1-2.3-1.8-3.8-1.9-1.5-.1-2.9,0-4.3.2-11.4,1.9-22.2,6.5-31.5,13.5"/>
    </g>
    <path class="st0" d="M447,243.5s-26.5,11.8-29.2,12.5c-8.9,2-19.2-6.5-16.3-16.1,1-3.6,15.3-43.2,15.3-43.2l13.6,18.7-5.7,19.2,15-1,7.4,9.9h0Z"/>
    <path class="st7" d="M438.4,233.8c-.3,0-.7.1-1,.1l-2.9.2c-2.5.2-5.9.4-9.8.7h-.3v-.3c.1,0,1-3,1-3,1.3-4.5,2.6-8.5,3.5-11.4l1.1-3.4c.1-.4.3-.8.5-1.2,0,.4-.2.9-.3,1.3-.2.9-.6,2.1-1,3.5-.8,2.9-2,7-3.4,11.5-.3,1-.6,2-.9,3l-.2-.3c3.9-.2,7.4-.4,9.9-.5h2.9c.4-.1.7-.1,1.1,0l-.2-.2Z"/>
    <path class="st7" d="M444,245.1c0,.1-5.8,2.6-13,5.6s-13.1,5.3-13.2,5.2,5.8-2.6,13-5.6,13.2-5.2,13.2-5.2Z"/>
    <path class="st19" d="M440.8,232.9l-2.1-10.2c-.1-.7.3-1.4,1-1.5h26.6c.7.1,1.3.7,1.3,1.5h0c0,.1-2.7,23.4-2.7,23.4-.1.9-.9,1.6-1.8,1.6h-17.2c-.8-.1-1.5-.7-1.8-1.5l-3.4-13.2h.1Z"/>
    <path class="st3" d="M438.5,227.5h0c1.1,0,2.2.7,2.6,1.8.3,1.1.9,2.1,1.8,2.8,1.3.7,3.5,1.3,4.7.7s5.9-4.8,6.7-4.3,1.5,1.5.7,2.5-5.2,3.8-4.4,4.7,10-3.2,11.4-2.8,2.2,1.2,1.4,1.8-7,2.9-7.4,3.7c0,0,9.4-2.5,9.8-1.9s.9,1.5,0,1.9-9,2.5-9.8,2.8c-1.2.5-2.4.8-3.6,1-.2,0-2.1.6-3.8,1.2-1.9.7-4,.6-5.9-.1l-1-.4c-1.5-.6-2.4-2.1-2.3-3.7l.2-3.2-1-2.6-.2-5.8h0Z"/>
    <path class="st13" d="M454.3,225.1c0,.6-.4,1-1,1s-1-.4-1-1,.4-1,1-1,1,.4,1,1Z"/>
  </g>
  <g id="freepik--Desk--inject-45">
    <path class="st19" d="M567.5,307.4h-78.9v-2.9h75.9c1.6,0,2.9,1.3,2.9,2.9h0Z"/>
    <rect class="st19" x="488.6" y="261" width="60.4" height="45.7" rx="3.3" ry="3.3"/>
    <rect class="st13" x="491.2" y="263.2" width="55.4" height="40.7"/>
    <path class="st7" d="M546.5,303.9v-40.7h-55.4v40.6h51.4-51.5v-40.8h55.4v40.9h0Z"/>
    <path class="st0" d="M538.2,274.1h-38.2v18.7h35.1-8l-27.2.2h0v-18.9h38.3Z"/>
    <path class="st0" d="M538.2,277.3h-38.2,38.2Z"/>
    <path class="st0" d="M538,279.8h-38.2,38.2Z"/>
    <path class="st0" d="M538.2,282.5h-38.2,38.2Z"/>
    <path class="st0" d="M538.2,285.1h-38.2,38.2Z"/>
    <path class="st0" d="M538.2,287.7h-38.2,38.2Z"/>
    <path class="st0" d="M500,290.3h38.2-38.2,0Z"/>
    <path class="st0" d="M507.6,293.2v-19,19Z"/>
    <path class="st0" d="M515.2,293.2v-19,19Z"/>
    <path class="st0" d="M522.9,293.2v-19,19Z"/>
    <path class="st0" d="M530.6,293.2v-19,19Z"/>
    <path class="st0" d="M538.2,293.2v-19,19Z"/>
    <path class="st10" d="M538.2,277.3s-.2.2-.3.2l-.9.6-3.2,2.2c-2.7,1.9-6.6,4.5-10.9,7.4h0l-3.3-1.1-4.4-1.5h0l-7.7,5.1h0l-5.5,1.9-1.5.5h-.4c0,.1-.1.1-.1.1h.1l.4-.2,1.5-.6,5.5-2h0l7.7-5.2h0l4.4,1.5,3.2,1.1h0c4.3-2.9,8.2-5.5,11-7.3l3.3-2.1.9-.6s.2-.1.3-.2v.2Z"/>
    <circle class="st10" cx="507.6" cy="290.3" r=".5"/>
    <circle class="st10" cx="515.2" cy="285.1" r=".5"/>
    <circle class="st10" cx="522.9" cy="287.6" r=".5"/>
    <circle class="st10" cx="530.7" cy="282.5" r=".5"/>
    <path class="st19" d="M538.2,290.3h-.2l-.4-.3-1.5-1-5.6-3.7h0l-7.6,5.1h0l-4-5.4c-1.2-1.7-2.5-3.4-3.6-4.9h.2l-7.7,7.7h0l-5.7,1.9-1.6.5h-.4c0,.1-.1.1-.1.1h.1l.4-.2,1.5-.5,5.7-1.9h0l7.7-7.8h0c0-.1,0,0,0,0l3.6,4.9c1.4,1.9,2.8,3.7,4,5.4h-.2l7.7-5.1h0l5.6,3.8,1.5,1,.4.3v.2h0Z"/>
    <circle class="st19" cx="515.2" cy="279.9" r=".5"/>
    <circle class="st19" cx="507.6" cy="287.7" r=".5"/>
    <circle class="st19" cx="522.9" cy="290.3" r=".5"/>
    <circle class="st19" cx="530.6" cy="285.5" r=".5"/>
    <path class="st0" d="M504.4,295.1h-1.4,1.4Z"/>
    <path class="st0" d="M512.2,295.1h-1.5,1.5Z"/>
    <path class="st0" d="M520,295.1h-1.5,1.5Z"/>
    <path class="st0" d="M527.9,295.1h-1.4,1.4Z"/>
    <path class="st0" d="M535.7,295.1h-1.4,1.5,0Z"/>
    <path class="st0" d="M498.9,292.8h-1.2,1.2Z"/>
    <path class="st0" d="M498.9,289.8h-1.2,1.2Z"/>
    <path class="st0" d="M498.9,286.8h-1.2,1.2Z"/>
    <path class="st0" d="M498.9,283.8h-1.2,1.2Z"/>
    <path class="st0" d="M498.9,280.8h-1.2,1.2Z"/>
    <path class="st0" d="M498.9,277.8h-1.2,1.2Z"/>
    <path class="st0" d="M498.9,274.8h-1.2,1.2Z"/>
    <rect class="st10" x="499.8" y="267.6" width="11" height=".8"/>
    <path class="st7" d="M530.4,269.9h-30.7,30.7Z"/>
    <path class="st7" d="M519.2,298.8h-18.8,18.8Z"/>
    <path class="st7" d="M505,300.2h-4,4Z"/>
    <path class="st7" d="M536.2,298.6h-13.4,13.4Z"/>
    <path class="st7" d="M528.9,299.5h-4.2,4.2Z"/>
    <polygon class="st7" points="202.1 465 218.6 318.9 232.6 323.8 209.7 465 202.1 465"/>
    <rect class="st19" x="195" y="307.2" width="422.8" height="18.5"/>
    <path class="st7" d="M284.6,307.5s0,.1-.1.2l-.4.5c-.6.7-1.3,1.2-2.1,1.7-1.3.7-2.6,1.2-4.1,1.4-1.9.3-3.8.4-5.7.2-2.3-.1-4.6-.4-6.9-.8-2.6-.5-5.2-.8-7.8-.9-5.5-.2-11.6,1.2-17.6,3.4s-11.7,4.6-17.1,6.1c-2.5.7-5.1,1.2-7.8,1.5-2.3.2-4.6.2-6.9,0-3.3-.3-6.6-1.3-9.5-3-1.1-.6-2-1.3-2.9-2.2h.2c0,.1.6.5.6.5.7.5,1.5,1,2.3,1.5,2.9,1.6,6.1,2.6,9.4,2.8,2.3.2,4.6.2,6.8,0,2.6-.3,5.2-.8,7.7-1.6,5.4-1.5,11-4,17-6.1s12.1-3.6,17.8-3.4c2.6.2,5.3.5,7.9,1,2.2.4,4.5.7,6.8.8,1.9.1,3.8,0,5.6-.2,1.4-.2,2.7-.6,4-1.2,1.1-.6,2-1.4,2.9-2.3h0Z"/>
    <path class="st7" d="M238.3,307.7c-.4.4-.8.8-1.3,1.1-1.2.9-2.5,1.8-3.9,2.5-2,1.1-4.1,1.9-6.3,2.6-2.7.8-5.5,1.2-8.2,1.3-5.1.2-10.1-.8-14.7-3-1.4-.7-2.6-1.7-3.6-2.9-.2-.3-.4-.7-.6-1.1,0-.3-.1-.4-.1-.4.2.5.5,1,.9,1.4,1,1.2,2.2,2.1,3.6,2.7,4.6,2,9.5,3,14.6,2.9,5-.2,9.9-1.4,14.4-3.7,1.3-.7,2.7-1.5,3.9-2.3.4-.4.9-.7,1.4-.9v-.2Z"/>
    <path class="st7" d="M337.5,319.5l.6.2c.6.2,1.3.4,2,.5,2.5.4,5.1,0,7.4-1.2v.2c-2.7-2-5.8-3.3-9.2-3.6-4.2-.4-8.4.7-11.9,3.1-.5.3-.8.7-.9,1.2,0,.5.3,1,.8,1.2.5.3,1.1.5,1.6.6l1.8.4c2.4.5,4.9,1.1,7.5,1.5s5.3.6,8,.5c1.4,0,2.7-.2,4.1-.4.7-.1,1.4-.2,2-.4.7-.1,1.4-.4,2-.6,1-.4,1.9-1,2.6-1.9.7-.8.8-1.9.5-2.8-.4-.9-1.1-1.7-2-2.2s-1.8-1-2.8-1.4c-3.8-1.4-7.8-2.2-11.8-2.4-6.8-.4-13.6.7-20,3.1-4.3,1.6-8.4,3.8-12.1,6.6-1.3,1-2.3,1.8-2.9,2.4l-.8.6-.3.2.2-.2.7-.7c.6-.6,1.6-1.4,2.9-2.5,9.2-7.1,20.7-10.6,32.3-10,4.1.2,8.1,1,11.9,2.4,1,.4,2,.9,2.9,1.4,1,.6,1.8,1.4,2.2,2.5.4,1.1.2,2.4-.6,3.3-.7.9-1.7,1.6-2.8,2-.7.3-1.4.5-2.1.7s-1.4.3-2.1.4c-1.4.2-2.8.4-4.2.4-2.7,0-5.4-.1-8.1-.6-2.6-.4-5.1-.9-7.5-1.5l-1.8-.4c-.6-.1-1.2-.3-1.8-.6-.3-.2-.5-.4-.7-.6-.2-.3-.3-.6-.3-1,.1-.6.5-1.2,1.1-1.5,3.6-2.5,7.9-3.6,12.2-3.1,3.4.3,6.6,1.6,9.3,3.7h.2c0,.1-.2.2-.2.2-2.3,1.2-5,1.6-7.6,1.1-.9-.2-1.8-.5-2.6-.9h.3Z"/>
    <path class="st7" d="M391.9,307.9c.2.3.3.6.4.9.3.9.4,1.8.3,2.8-.4,3.1-1.9,5.9-4.1,8.1-1.1,1.2-2.4,2.3-3.9,3.3-1.2.7-2.4,1.3-3.7,1.8-.9.3-1.8.5-2.7.7h-1c0-.1,1.4-.3,3.6-1.1,1.3-.5,2.5-1.1,3.6-1.9,1.4-.9,2.6-2,3.7-3.2,2.2-2.1,3.6-4.8,4.1-7.8.1-1.2,0-2.5-.3-3.7h0Z"/>
    <path class="st7" d="M467.8,324.7c-.6-.7-1.3-1.3-1.9-1.9-1.9-1.6-4.2-2.6-6.6-3-1.7-.2-3.4-.2-5,.1-1.9.5-3.9.6-5.9.5-2.2-.2-4.1-1.5-5.9-2.9-1.8-1.5-3.7-2.7-5.9-3.5-4.2-1.4-8.8-1.5-13.1-.2-3.5,1.1-6.8,2.7-9.7,4.9-2,1.5-3.9,3.1-5.6,4.8l-1.4,1.4-.5.5c.1-.2.3-.4.4-.5.3-.4.8-.9,1.4-1.5,1.7-1.8,3.6-3.4,5.5-5,2.9-2.3,6.3-4,9.8-5.1,4.4-1.3,9.1-1.3,13.4.2,2.2.8,4.2,2.1,6,3.6,1.8,1.4,3.6,2.6,5.6,2.8,1.9,0,3.9,0,5.8-.5,1.7-.3,3.4-.4,5.2,0,2.5.4,4.8,1.5,6.7,3.2.7.6,1.3,1.3,1.8,2.1h0Z"/>
    <path class="st7" d="M535.6,307.4c0,.2-.3.4-.5.6-.5.6-.9,1.2-1.5,1.7-1.9,2-3.9,3.9-6.2,5.5-3.3,2.4-6.9,4.4-10.7,5.9-2.2.9-4.5,1.7-6.9,2.2-2.5.6-5.1,1-7.7,1-5,0-10-1-14.7-3-3.8-1.5-7.4-3.6-10.6-6-2.2-1.6-4.3-3.5-6.1-5.5-.7-.7-1.1-1.3-1.5-1.7-.2-.2-.3-.4-.5-.6.2.2.4.4.5.6.4.4.8,1,1.5,1.6,1.9,2,4,3.8,6.2,5.4,3.3,2.4,6.8,4.4,10.6,5.9,4.6,1.9,9.5,3,14.5,3s5.1-.4,7.6-1c2.3-.5,4.6-1.3,6.8-2.1,3.8-1.5,7.4-3.4,10.7-5.8,2.2-1.6,4.3-3.3,6.2-5.3.7-.7,1.2-1.3,1.5-1.6.2-.2.3-.5.5-.7h.3Z"/>
    <path class="st7" d="M525.9,307.2s0,.1-.4.3-.6.4-1.1.8c-1.4.9-2.8,1.7-4.2,2.4-2.2,1.1-4.4,2-6.7,2.7-2.8.9-5.8,1.4-8.7,1.5-5.4-.1-10.7-1.5-15.5-3.9-1.5-.7-2.9-1.5-4.2-2.5-.5-.3-.8-.6-1.1-.8-.1,0-.2-.2-.4-.3.5.3,1,.6,1.5.9,1.4.8,2.8,1.6,4.2,2.3,4.8,2.3,10,3.6,15.3,3.7,2.9,0,5.8-.5,8.6-1.4,2.3-.7,4.5-1.6,6.7-2.6,1.8-.9,3.3-1.7,4.3-2.2.5-.3,1-.6,1.6-.9h.1Z"/>
    <path class="st7" d="M568.9,309.1h-2.9c0-.1-5.8-.1-5.8-.1,0,.1-1.8.3-1.8.3-1.3.1-2.6.4-4,.6-3,.6-6,1.5-8.8,2.6-2.9,1.2-5.6,2.5-8.3,4.1-1.2.8-2.4,1.5-3.4,2.2l-1.5,1.1-1.3,1.1c-.8.6-1.5,1.3-2.2,1.9l-.9.8-.7.7-1,1c0,.1-.2.2-.4.3,0,0,0-.1.3-.4l.9-1,.7-.8.8-.8c.6-.6,1.3-1.3,2.2-2l1.3-1.1c.5-.4,1-.7,1.5-1.1,1-.8,2.2-1.5,3.4-2.3,2.7-1.6,5.5-3,8.3-4.1,2.9-1.1,5.9-2,8.9-2.6,1.4-.2,2.8-.5,4-.6l1.8-.2h1.7c1-.1,1.9-.1,2.9,0h1.2l1,.2,1.4.2h.7Z"/>
    <path class="st7" d="M587,305.5v1.4c-.2,1.2-.5,2.4-1,3.5-1.7,3.7-4.4,6.9-7.9,9.1-3.5,2.1-7.2,3.7-11.1,4.8-1.5.4-2.7.7-3.5.9-.4.1-.9.2-1.3.2.4-.2.8-.3,1.3-.5l3.5-1.1c3.9-1.1,7.6-2.7,11-4.8,5-2.9,8.4-7.9,9.2-13.5h-.2Z"/>
    <path class="st7" d="M475.4,324.3c-.7-1-1.5-1.9-2.3-2.8-2.4-2.2-5.4-3.8-8.5-4.8-2.2-.7-4.4-1.1-6.6-1.5-2.4-.4-5-.7-7.8-1.2-2.9-.5-5.7-1.2-8.4-2.1-2.9-1-5.9-1.7-9-2.2-6-.6-12,.2-17.5,2.4-2.4.9-4.8,2-7.1,3.2-2.2,1.1-4.2,2.2-6,3.2-3.6,2.1-6.5,3.8-8.5,5l-2.3,1.4-.6.4c-.1,0-.2.1-.2.1,0,0,.1-.1.2-.1l.6-.4c.5-.4,1.3-.9,2.2-1.5,2-1.3,4.8-3.1,8.5-5.2,1.8-1,3.8-2.2,6-3.3,2.3-1.2,4.7-2.3,7.2-3.3,5.6-2.3,11.7-3.1,17.8-2.5,3.1.5,6.1,1.2,9.1,2.2,2.7.9,5.5,1.6,8.4,2.1,2.7.5,5.3.8,7.8,1.2,2.3.3,4.5.9,6.7,1.5,3.2,1,6.1,2.7,8.5,5,.9.8,1.6,1.8,2.2,2.9l-.4.3Z"/>
    <path class="st7" d="M380.2,307.5v1.2c-.2,1.1-.4,2.1-.8,3.1-1.3,3.4-3.5,6.3-6.5,8.3-3,1.9-6.3,3.4-9.6,4.4-1.3.4-2.3.7-3.1.9-.4.1-.8.2-1.2.2.3-.2.7-.3,1.1-.4l3-1.1c3.3-1.2,6.5-2.7,9.5-4.5,2.9-2,5.1-4.8,6.4-8,.5-1.4.9-2.8,1.2-4.2h0Z"/>
    <path class="st7" d="M282.1,325.7c.3-.4.6-.7,1-1,.7-.6,1.7-1.5,3-2.5,3.4-2.6,7-4.9,10.8-7,4.4-2.4,8.5-4.4,11.5-5.7,1.5-.7,2.7-1.2,3.5-1.6.4-.2.9-.4,1.3-.5-.4.3-.8.5-1.2.7l-3.5,1.7c-2.9,1.5-7,3.4-11.4,5.8-3.7,2-7.3,4.3-10.8,6.8-1.3,1-2.4,1.8-3.1,2.3-.3.3-.7.6-1.1.9h0Z"/>
    <path class="st7" d="M302,308.2s-1-.1-2.7,0c-2.5.3-4.9,1-7,2.1-3.2,1.8-6.3,3.8-9.2,6.1-1.7,1.3-3.6,2.5-5.5,3.6-2.1,1.1-4.3,1.9-6.6,2.5-4.4,1-9,1.6-13.5,1.6-4.2.1-7.9,0-11.1.2-2.5,0-5,.3-7.4.7-.9.2-1.5.3-2,.4-.2,0-.5.1-.7.1.2-.1.4-.2.7-.2.4-.1,1.1-.3,2-.5,2.5-.5,4.9-.8,7.4-.9,3.2-.2,6.9-.1,11.1-.3,4.5,0,9-.6,13.4-1.6,2.2-.6,4.4-1.4,6.5-2.5,1.9-1,3.7-2.2,5.5-3.5,2.9-2.3,6-4.3,9.2-6.1,2.2-1.1,4.7-1.8,7.2-2h2c.3,0,.5,0,.8.1v.2Z"/>
    <path class="st7" d="M565.6,307.1c0,.1-17.7.3-39.5.3s-39.5-.1-39.5-.3,17.7-.3,39.5-.3,39.5.2,39.5.3Z"/>
    <rect class="st7" x="343.4" y="298.9" width="57" height="8.5"/>
    <rect class="st0" x="343.4" y="300.9" width="15.1" height="4.6"/>
    <rect class="st9" x="348.5" y="290.4" width="57" height="8.5"/>
    <rect class="st0" x="366.8" y="292.4" width="38.6" height="4.3"/>
    <rect class="st7" x="340" y="281.8" width="57" height="8.5"/>
    <rect class="st0" x="381.9" y="283.8" width="15.1" height="4.6"/>
  </g>
  <g id="freepik--character-4--inject-45">
    <path class="st19" d="M540.2,433.1l6.8,16.9s-14.9,12.6-14,15.8l33.2-12-9.5-26.8-16.6,6.1h0Z"/>
    <path class="st0" d="M556.7,444.8c.7,0,1.4.5,1.5,1.2,0,.7-.5,1.4-1.2,1.5-.8,0-1.5-.5-1.6-1.3,0-.7.7-1.5,1.4-1.4"/>
    <g class="st15">
      <path class="st11" d="M566.2,453.8l-1.1-2.6-31.4,12.5s-1.2,1.2-.7,2.2l33.2-12h0Z"/>
    </g>
    <path class="st7" d="M546.3,450c0,.2.9,0,1.9.2s1.7.8,1.8.6-.5-1-1.7-1.2-2.1.2-2,.4Z"/>
    <path class="st7" d="M543.4,452.7c0,.2.8.2,1.6.7s1.2,1.1,1.4,1.1,0-1-1.1-1.6-2-.3-1.9-.2Z"/>
    <path class="st7" d="M542.9,457.5c.2,0,0-.9-.6-1.6s-1.6-.8-1.6-.7.6.5,1.2,1.1.9,1.3,1.1,1.2h-.1Z"/>
    <path class="st7" d="M545.2,446c0,.1.8-.4,1.7-.6s1.8-.2,1.8-.4-.9-.5-2-.2-1.6,1.1-1.5,1.2Z"/>
    <path class="st7" d="M543.9,442.5c.6,0,1.2-.3,1.7-.6.6-.3,1.1-.7,1.5-1.2.3-.3.5-.6.8-.9,0-.2.3-.4.4-.6,0-.3,0-.7-.2-.9-.2-.2-.6-.2-.8-.1-.2,0-.4.2-.6.3-.3.2-.6.5-.9.7-.5.5-.9,1-1.2,1.6-.3.5-.5,1.1-.5,1.7,0,0,.3-.6.9-1.5.3-.5.7-1,1.2-1.4.3-.2.5-.5.8-.6.3-.2.6-.3.8-.2s0,0,0,.2-.2.3-.3.4c-.2.3-.4.6-.7.8-.4.4-.9.8-1.4,1.2-.5.3-1,.6-1.4,1h0Z"/>
    <path class="st7" d="M544.2,442.7c0-.6,0-1.2,0-1.8-.2-.6-.5-1.2-.9-1.7-.2-.3-.5-.6-.8-.9-.3-.4-.9-.6-1.4-.5-.3.1-.5.4-.5.7v.7c0,.4.2.8.4,1.1.3.6.8,1.1,1.3,1.5,1,.6,1.7.6,1.7.5-.5-.3-1-.5-1.5-.9s-.8-.8-1.1-1.4c-.2-.3-.3-.7-.3-1v-.7c.3,0,.6.1.8.3.3.2.5.5.7.8.4.5.7,1,.9,1.5.4,1,.5,1.6.6,1.6l.2.2Z"/>
    <path class="st19" d="M571.4,430l6.8,16.9s-14.9,12.6-13.9,15.8l33.2-12-9.5-26.7-16.5,6h0Z"/>
    <path class="st0" d="M587.9,441.7c.7,0,1.4.5,1.5,1.2,0,.7-.5,1.4-1.2,1.5-.8,0-1.5-.5-1.6-1.3,0-.7.7-1.5,1.4-1.4"/>
    <g class="st15">
      <path class="st11" d="M597.5,450.7l-1.1-2.7-31.4,12.5s-1.2,1.2-.7,2.1l33.2-12h0Z"/>
    </g>
    <path class="st7" d="M577.6,446.9c0,.2.9,0,1.9.2s1.7.8,1.8.6-.5-1-1.7-1.2-2.1.3-2,.4Z"/>
    <path class="st7" d="M574.6,449.6c0,.2.8.2,1.6.7s1.2,1.2,1.4,1.1,0-1-1.1-1.6-2-.3-1.9-.2Z"/>
    <path class="st7" d="M574.2,454.5c.2,0,0-.9-.6-1.6s-1.6-.8-1.6-.7.6.5,1.2,1.1.9,1.3,1.1,1.2h-.1Z"/>
    <path class="st7" d="M576.5,442.9c0,.1.8-.4,1.7-.6s1.8-.2,1.8-.4-.9-.5-2-.2-1.6,1.1-1.5,1.2Z"/>
    <path class="st7" d="M575.2,439.4c.6,0,1.2-.3,1.7-.6.6-.3,1.1-.7,1.5-1.2.3-.3.5-.6.8-.9,0-.2.3-.4.4-.6,0-.3,0-.7-.2-.9-.2-.2-.6-.2-.8-.1-.2,0-.4.2-.6.3-.3.2-.6.5-.9.7-.5.5-.9,1-1.2,1.6-.3.5-.5,1.1-.5,1.7,0,0,.3-.6.9-1.5.3-.5.7-1,1.2-1.4.3-.2.5-.5.8-.6.3-.2.6-.3.8-.2s0,0,0,.2-.2.3-.3.4c-.2.3-.4.6-.7.8-.4.4-.9.8-1.4,1.2-.5.3-1,.6-1.4,1h0Z"/>
    <path class="st7" d="M575.5,439.6c0-.6,0-1.2,0-1.8-.2-.6-.5-1.2-.9-1.7-.2-.3-.5-.6-.8-.9-.3-.4-.9-.5-1.4-.5-.3.1-.5.4-.5.7v.7c0,.4.2.8.4,1.1.3.6.8,1.1,1.3,1.5,1,.6,1.7.6,1.7.5-.5-.3-1-.5-1.5-.9s-.8-.8-1.1-1.4c-.2-.3-.3-.7-.3-1v-.7c.3,0,.6.1.8.3.3.2.5.5.7.8.4.5.7,1,.9,1.5.5,1,.5,1.7.6,1.6l.2.2Z"/>
    <path class="st4" d="M594.3,211.4l-3.2,26,4.9,12-19.5.7-4-9.4s-9.7-1.1-10-7.3c-.2-4,6.1-32.7,6.1-32.7l25.6,10.7h.1Z"/>
    <path class="st7" d="M588,242.3c2.3-1.6,3.5-2.6,4.5-5.2s1.7-5.3,2.8-7.8,3-5.1,4.1-7.7,1.8-5.8.6-8.5c0,0-.4-3.4-5-4.7,0,0-2.6-7.3-8.6-7.9-8.1-.9-7.9-3.3-13.2-5.4-2.6-1.2-5.6-.1-6.9,2.4h0s-3.3,1.5-4,4.5h0c-.7,3.1.6,6.3,3.3,7.9l1,.6c1,.5,1.8,1.1,2.5,2,.9,1.3.7,3.1.3,4.6-.5,1.5-.8,3.1-.7,4.7,0,.5.4,1.2.9,1.2s.8-.9,1-1.5c.6-1.8,3.2-2.7,4.6-1,.9,1,.9,2.5,0,3.6-.9,1.2-2.5,1.9-3,3.3-1,2.3,1.4,5,2.2,6.6.3.6.6,1.1,1,1.6,1.9,2.4,4.2,4.4,6.8,5.9,1.9,1.3,4.4,1.4,6.4.3"/>
    <path class="st4" d="M507.8,273.7h0c-3.4-1.5-5.6-2.8-7.9-3.6-2.8-1-3.9-1.6-3.7-2.2.3-.7.2-.4,5.6.7,0,0-7.7-1.7-5.7-2.6.9-.4,7.3.9,7.3.9-5.2-.6-7.1-1.7-7-2.5.2-1.1,8,.5,8,.5-2.3-.4-4.6-1-6.9-1.7-1-.5.3-1,1.4-1.1s8.9.1,11.1,0c.7,0,1.3-.4,1.4-1.2v-.2c-.6-3.1.5-5.9,1.2-6.5.5-.3,1.1-.2,1.4.3.2.2.2.5,0,.8,0,1.1,0,2.2,0,3.2,0,.9.3,1.7.7,2.5.4.9.8,1.6,1.2,2.3l10.9,11.9-4.7,11.3-14.3-13v.2Z"/>
    <path class="st8" d="M505,269.4c-1.3,0-2.5-.3-3.7-.6-1.3-.2-2.5-.6-3.6-1.1,1.3,0,2.5.3,3.7.6,1.3.2,2.5.6,3.6,1.1Z"/>
    <path class="st8" d="M505.6,267.3c-1.3,0-2.7-.1-4-.4-1.3-.1-2.7-.5-3.9-.9,2.7.1,5.4.6,8,1.4h-.1Z"/>
    <path class="st8" d="M506.3,265.2c-1.3,0-2.6,0-3.8-.4-1.3-.1-2.5-.4-3.7-.9,1.3,0,2.6,0,3.8.4,1.3.1,2.5.4,3.7.9Z"/>
    <path class="st7" d="M579.2,324.5l-46.6,7c-6.4,1-12.1,4.6-15.6,10h0c-3.6,5.5-4.6,12.4-2.8,18.8l24.6,78.5,22.2-8.4-13.7-69.4,72.1-4.8v-31.7l-40.3-1.5"/>
    <path class="st7" d="M612,324.5l-46.6,7c-6.4,1-12.1,4.6-15.6,10h0c-3.6,5.6-4.6,12.4-2.8,18.8l21.5,73.8,24.8-6.5-13.1-66.6,48.2-3.2v-31.7l-16.3-3.1"/>
    <path class="st10" d="M519.4,266.4c1-.1,32.6,24.5,32.6,24.5l-20.2,8.1-20.5-20.3s-1.3-11,8.1-12.3h0Z"/>
    <path class="st10" d="M621.8,256.7c-5.3-7.6-14.3-10.3-17.4-11-.7-.1-1.3-.2-2-.2h-27c-4.9,0-9.6,1.8-13.1,5.2-4,4-7.5,8.5-10.4,13.4l-13.6,18.9-8.3,14,1.7,2.1c3.9,5.1,10.8,6.9,16.8,4.3,2.8-1.3,4.8-3.7,6.6-6.4,3.4-5,7-10.4,9.3-14.5l13.6,38.9-7.3,4.6,30.7,12.4,31.9-13.6-8.8-31.4h0s14,1.4,15.3-4.1-11.6-23-18.1-32.3v-.3Z"/>
    <g>
      <path class="st1" d="M618.6,270.9c2.3,3.8,4.5,7.7,6.4,11.8.3.5,1,0,.8-.5-2-4-4.2-7.9-6.6-11.6-.2-.3-.7,0-.5.3h-.1Z"/>
      <path class="st1" d="M625,268.6c2.3,3.8,4.5,7.7,6.4,11.8.3.5,1,0,.8-.5-2-4-4.2-7.9-6.6-11.6-.2-.3-.7,0-.5.3h-.1Z"/>
      <path class="st1" d="M612.5,271.8c1.3,5.2,2.4,10.5,3.3,15.8,0,.8,1.3.4,1.1-.3-.9-5.3-2.2-10.6-3.9-15.7,0-.1-.2-.2-.3-.2s-.2.2-.2.3h0Z"/>
      <path class="st1" d="M598,273.3c1.5,5.1,2.4,10.4,2.6,15.7,0,.7,1.2.8,1.2,0-.2-5.4-1.3-10.8-3.2-15.9,0-.4-.7-.2-.6.2h0Z"/>
      <path class="st1" d="M609.9,286c-1.7-4.8-2.9-9.8-3.5-14.8,0-.7-1.1-.7-1.1,0,0,5.3,1.4,10.4,4,15,.2.3.7.1.6-.2h0Z"/>
      <path class="st1" d="M591.6,273.7c.2,5,.9,10.1,2.2,14.9.2.7,1.2.4,1-.3-.9-4.9-1.8-9.8-2.7-14.7,0-.3-.6-.2-.6,0h0Z"/>
      <path class="st1" d="M583.9,274.6c1.3,5.5,2.3,11,3.3,16.5,0,.5,1,.4.9-.1-.8-5.6-2.1-11.1-3.9-16.5,0-.1-.2-.2-.3-.1,0,0,0,.1,0,.2h0Z"/>
      <path class="st1" d="M576.8,275.9c0,5.1.5,10.3,1.7,15.3,0,.5.9.3.8-.2-.9-5-1.5-10-1.8-15,0-.2-.2-.3-.3-.3-.2,0-.3.1-.3.3h-.1Z"/>
      <path class="st1" d="M554.2,289.9c4.2-4,8-9,11.5-13.6.3-.4-.4-.9-.7-.5-3.8,4.4-8,9-11,14,0,.2,0,.4.3.2h0Z"/>
      <path class="st1" d="M549.2,285.4c3.9-3.5,7.2-7.6,9.8-12.1.3-.5-.5-1-.8-.5-2.9,4.3-6.2,8.2-9.4,12.2,0,0,0,.3,0,.4s.3.1.4,0h0Z"/>
      <path class="st1" d="M552.2,270.9c-2.8,3.2-5.7,6.3-8.4,9.5-.4.4.2,1.1.6.6,2.8-3.2,5.4-6.5,8.1-9.9.2-.2,0-.6-.3-.3h0Z"/>
      <path class="st1" d="M569.6,276.6c1.2,5.1,1.9,10.2,3,15.3,0,.5.9.4.9-.1-.7-5.2-1.8-10.3-3.2-15.4,0-.2-.3-.3-.5-.2-.2,0-.2.2-.2.4h0Z"/>
    </g>
    <g class="st17">
      <path d="M610.5,287.5c-2.2,0-4.3,1.1-5.7,2.9s-2.4,3.7-3,5.9c-2.3,6.7-3.3,13.7-3.2,20.8,0,2.2,0,4.6-1.6,6-1.4,1.2-3.5,1.1-5.2,1.8-2.8,1.1-5.1,4.8-4.3,7.6l15.5,5.9,7.5-50.8h0Z"/>
    </g>
    <path class="st7" d="M593.2,320.1c-.5.3-1.1.6-1.8.7-1.5.4-3,.6-4.5.7-1.5,0-3,0-4.5-.3-.6,0-1.2-.2-1.8-.5,0-.2,2.8.5,6.3.3,2.1-.2,4.2-.5,6.3-.9h0Z"/>
    <polygon class="st19" points="537.7 362.3 525.4 465.2 530.7 465.2 543.7 362.3 537.7 362.3"/>
    <polygon class="st19" points="586.5 362.3 597.8 465.2 603.6 465.2 592.6 362.3 586.5 362.3"/>
    <polyline class="st19" points="647.2 362.3 656.5 465.2 663 465.2 652.3 362.3 644.5 362.3"/>
    <path class="st19" d="M615.8,273.9h45.5c3.9,0,7.1,3.2,7.1,7.1v1l-10.8,75.1c-.4,3-3,5.2-6,5.2h-58.9l23.2-88.4h0Z"/>
    <path class="st19" d="M531.6,362.3c0-1.1,0-6.8,0-6.8l56.4,1c4.3,0,8-3,8.7-7.2l11.2-68.6c.6-3.9,4-6.7,7.9-6.7h0l-12.2,77.3c-1,6.4-6.5,11.1-13,11.1h-59Z"/>
    <path class="st7" d="M615.8,273.9v.9c-.2.6-.3,1.5-.5,2.7-.4,2.4-.9,5.7-1.5,9.8-1.3,8.3-3.1,19.6-5,32.2-1,6.3-2,12.3-2.8,17.7-.4,2.7-.9,5.3-1.3,7.7-.3,2.3-.8,4.5-1.4,6.7-.5,1.8-1.3,3.6-2.3,5.2-.8,1.2-1.8,2.3-2.9,3.1-.7.5-1.5,1-2.3,1.3-.3.1-.6.2-.9.3,1.1-.4,2.2-1,3.1-1.7,2.5-2.1,4.2-5,5-8.2.6-2.2,1-4.4,1.3-6.7.4-2.4.8-5,1.2-7.7.9-5.5,1.8-11.4,2.8-17.7,2-12.5,3.9-23.9,5.2-32.2.7-4.1,1.2-7.4,1.6-9.7.2-1.1.3-2,.5-2.6,0-.3,0-.5,0-.7v-.4Z"/>
    <path class="st7" d="M618.4,274.4c-1-1.2-2-2.5-2.7-3.9-.9-1.3-1.7-2.7-2.3-4.2,1,1.2,2,2.5,2.7,3.9.9,1.3,1.7,2.7,2.3,4.2Z"/>
    <path class="st7" d="M532.6,291c1-1.9,2.2-3.8,3.5-5.5,1.2-1.8,2.5-3.6,4-5.2-1,1.9-2.2,3.8-3.5,5.5-1.2,1.8-2.5,3.6-4,5.2Z"/>
    <path class="st7" d="M570.6,272.9c-.2.4-.4.8-.6,1.1-.5.8-1.1,1.9-1.8,3.1-1.5,2.6-3.7,6.1-6.2,10s-4.8,7.3-6.6,9.7c-.9,1.2-1.6,2.2-2.1,2.9-.2.4-.5.7-.8,1,.2-.4.4-.8.7-1.1l2-3c1.7-2.5,4-5.9,6.5-9.8l6.3-9.9c.8-1.3,1.5-2.3,1.9-3,.2-.4.5-.7.8-1h-.1Z"/>
  </g>
  <g id="freepik--character-2--inject-45">
    <path class="st7" d="M298.1,156.8c-2.1-3-.8-7.6,2.3-9.6,3.3-1.9,7.4-1.6,10.3.7,2.9,2.2,3.8,6.1,3.3,9.4-.4,2.4-4.2,7.4-7.9,5.2"/>
    <path class="st7" d="M276.1,177.6c-8.1-15.8,8.9-24.7,18.5-22.5,9.1,2.1,13.1,6.3,14.9,12.2,1.9,5.9,1.9,12.3,0,18.2-1,2.9-3,5.8-6,6.3"/>
    <path class="st4" d="M300.7,163.8c1.6,0,2.8,1.4,2.9,2.9h0l.3,41.1c.2,4.9-6.8,7.9-12,8.1h0c-5.2.1-5.5-2.4-5.9-7-.5-7.7-.6-10.6-.6-10.5s-6.7-.8-8.5-9.3c-.9-4.3-1-11.3-1-17.1s3.2-11.7,8.4-11.4l16.4,3.3h0Z"/>
    <path class="st7" d="M278.3,177.2c0,.6.5,1.1,1.1,1.1s1.1-.4,1.1-1h0c0-.6-.5-1.1-1.1-1.1s-1.1.4-1.1,1h0Z"/>
    <path class="st7" d="M277.8,175.6c.1.1,1-.5,2.1-.6s2.1.5,2.2.4,0-.3-.5-.6-1.2-.5-1.8-.5-1.2.3-1.7.6c-.4.3-.5.6-.4.6h0Z"/>
    <path class="st7" d="M289.5,176.7c0,.6.5,1.1,1.1,1.1s1.1-.4,1.1-1h0c0-.6-.5-1.1-1.1-1.1s-1.1.4-1.1,1h0Z"/>
    <path class="st7" d="M289.5,175.2c.1.1,1-.5,2.1-.6s2.1.5,2.2.3,0-.3-.5-.6-1.2-.5-1.8-.4c-.6,0-1.2.3-1.7.6-.4.3-.5.6-.4.6h0Z"/>
    <path class="st7" d="M285.6,184.2c-.7-.2-1.3-.3-2-.2-.3,0-.6,0-.7-.3,0-.3,0-.6.2-.9l.8-2.4c.7-2,1.3-4.1,1.7-6.2-.9,1.9-1.6,3.9-2.2,6l-.8,2.4c-.2.4-.2.8-.1,1.2.1.2.3.4.5.4h2.6Z"/>
    <path class="st8" d="M285.5,198.4c4.1-.1,8-1.4,11.4-3.7,0,0-2.5,6.1-11.2,5.7l-.2-2h0Z"/>
    <path class="st8" d="M286.2,187.1c.4-.6,1.1-.9,1.9-.9s1,.3,1.4.6c.3.4.4,1,.2,1.4-.4.5-1,.6-1.5.5-.6-.2-1.1-.5-1.6-.8-.1,0-.3-.2-.4-.3v-.4"/>
    <path class="st7" d="M289.1,184.9c-.2,0-.1,1.3-1.2,2.3s-2.4.9-2.4,1.1.3.2.9.2,1.5-.3,2-.8.9-1.2.9-1.9,0-.9-.2-.9h0Z"/>
    <path class="st7" d="M288.8,173.1c.1.3,1.3.1,2.7.2s2.6.4,2.7.1c0-.1-.1-.4-.6-.7-.6-.4-1.3-.6-2-.6s-1.4,0-2.1.4c-.6.2-.8.5-.7.6Z"/>
    <path class="st7" d="M278,172.1c.2.3,1,0,2-.1s1.8,0,2-.2c0-.1,0-.4-.4-.6-.5-.3-1.1-.4-1.7-.4s-1.1.3-1.6.6c-.3.3-.4.6-.3.7Z"/>
    <path class="st7" d="M278.5,161.1c-.4,3.1.9,6.2,3.5,8,1.5.9,3.2,1.6,4.9,1.9l3.3.9c2.4.8,4.9,1.2,7.4,1.3-.1,2.8-.5,4.7,1.1,7.1,1.4,2.1,3.3,3.6,5.9,3,.9-5.6,1.2-11.2,1-16.9.1-1.5-.2-2.9-.9-4.2-1.3-2-4-2.4-6.4-2.6l-10.1-.8c-1.6-.2-3.3-.2-4.9,0-1.7.2-3.2,1-4.3,2.3"/>
    <path class="st19" d="M311,173.3h-.4c-.4,0-.7,0-1.1-.2-.5-.2-1-.6-1.4-1-.5-.6-1-1.1-1.4-1.8-.6-.7-1.2-1.3-2-1.8-.9-.6-1.8-1-2.8-1.3-2.3-.6-4.7-.9-7.1-.8-2.4.1-4.8,0-7.2-.5-2-.4-3.8-1.4-5.2-2.8-.5-.5-1-1.2-1.4-1.8-.3-.5-.5-1.1-.6-1.6s-.1-1,0-1.5c0,.5.1,1,.2,1.4.1.5.3,1.1.6,1.6.4.6.8,1.2,1.4,1.8,1.4,1.4,3.2,2.3,5.1,2.6,2.4.4,4.8.6,7.2.5,2.4,0,4.9.2,7.2.8,1,.3,2,.8,2.9,1.4.8.5,1.4,1.2,2,1.9.5.7.9,1.3,1.4,1.8s.8.7,1.3,1c.4.2.9.3,1.4.4h-.1Z"/>
    <path class="st19" d="M309.6,168c0-.4,0-.8-.2-1.2-.6-1-1.5-1.7-2.6-2.1-1.6-.7-3.2-1.1-4.9-1.3-2.1-.1-4.2-.1-6.3,0-2.1.2-4.2,0-6.4-.2-1.7-.3-3.4-.9-4.8-1.9-1-.6-1.8-1.5-2.5-2.5-.2-.3-.3-.6-.4-.9,0,0,0-.2-.1-.3,0,0,.2.4.7,1.1.7.9,1.5,1.7,2.5,2.4,1.5.9,3.1,1.5,4.8,1.8,2.1.3,4.2.3,6.3.2,2.1-.2,4.2-.2,6.3,0,1.7.2,3.4.7,5,1.4,1.1.4,2,1.2,2.6,2.3.1.3.2.7.1,1v.3h-.1Z"/>
    <path class="st19" d="M313.4,151.4c0,.2.1.4.1.6,0,.5,0,1.1-.3,1.6-.8,1.6-2.1,2.9-3.6,3.8-.8.5-1.8.9-2.7,1.1-.8.1-1.6.2-2.4,0-.5,0-1.1-.1-1.6-.3-.2,0-.4-.1-.5-.2,0,0,.8.2,2.1.2s1.6,0,2.3-.1c.9-.2,1.8-.5,2.6-1,1.5-.9,2.7-2.1,3.6-3.6.3-.7.4-1.4.4-2.1Z"/>
    <path class="st19" d="M310.3,147.6v.6c0,.5-.2,1-.3,1.6-.5,1.7-1.4,3.2-2.6,4.5-1.2,1.2-2.8,2.2-4.5,2.6-.5.1-1,.2-1.5.3h-.6s.8-.1,2-.6c3.3-1.1,5.9-3.7,6.9-7,.4-1.2.5-2,.5-2h.1Z"/>
    <path class="st19" d="M309.4,185v-1.7c0-1.6-.3-3.2-.9-4.7-.4-1-1-2-1.7-2.8-.8-.9-1.9-1.6-3.1-2.1-2.5-.9-5.5-.8-8.6-.9-2.9,0-5.9-.6-8.6-1.6-2.3-.9-4.3-2.3-5.8-4.1-1.1-1.2-1.8-2.7-2.2-4.3-.1-.4-.2-.9-.2-1.3v-.5s0,.6.4,1.7c.5,1.5,1.2,2.9,2.3,4.1,1.6,1.8,3.5,3.2,5.8,4,2.7,1,5.6,1.5,8.5,1.6,3.1.1,6.1,0,8.7,1,1.2.4,2.3,1.2,3.2,2.2.7.9,1.3,1.8,1.7,2.9.5,1.5.8,3.1.8,4.8v1.3c0,.3-.1.4-.2.4h0Z"/>
    <path class="st10" d="M307.5,162.8c-.4-.4-.9-.9-1.2-1.3-2-2.1-4.4-3.8-7.1-4.9-.6-.2-1.1-.4-1.7-.7.6,0,1.2.2,1.8.5,2.8,1,5.3,2.7,7.2,5,.4.4.8.9,1,1.4h0Z"/>
    <path class="st4" d="M302.7,178.1c.1,0,4.5-2.3,4.8,2.9s-4.9,4.4-5,4.3.2-7.2.2-7.2Z"/>
    <path class="st8" d="M304,183.2s.1,0,.2.1h.7c.6-.5,1-1.2.9-2,0-.4-.1-.9-.3-1.3-.1-.3-.4-.6-.7-.6s-.4,0-.5.3v.3c0,.1-.1,0,0-.3,0-.1,0-.3.2-.3.1-.1.3-.2.5-.2.4,0,.8.3,1,.7s.4.9.4,1.4c.1.9-.4,1.8-1.2,2.3h-.8c-.2-.2-.2-.3-.2-.3h-.2Z"/>
    <path class="st4" d="M226.7,224.4s-3.5-6.8-4.4-7.5-8.6-3.4-9.3-3.1-10,2-8.9,3.1,7.6-.2,7.6-.2l.9.4s-5.6,1-6.8,1.7-.7,2,.3,1.9,5.9-1.1,6.2-1-5.3,1.4-5.9,1.8c-.8.5-.9,1.9.2,1.9s5.9-1.5,5.9-1.5c-1.6.6-3.1,1.3-4.6,2.1-.3.3-.4.8-.1,1.1.2.3.6.4.9.2.6-.1,3.6-1.6,4.4-1.8,0,0,.8.2,1.5,1.8s5.9,5.5,5.9,5.5l6.1-6.2v-.2Z"/>
    <path class="st4" d="M224.5,224.5c-.6.5-1.5.5-2.2,0-.7-.4-1.2-1-1.8-1.4-1.9-1.3-4.7-.9-6.5-2.3-.3-.2-.5-.5-.4-.8s.5-.3.8-.3h7.7"/>
    <path class="st8" d="M222.1,219.7h-7.5c-.4,0-.8,0-1.1.2-.2.2-.2.5-.1.7,0,.2.2.4.4.5.3.2.6.4,1,.6,1.3.5,2.6.8,4,1.1.6.2,1.1.4,1.6.7.4.3.8.7,1.2,1,.6.6,1.4.8,2.2.7.6-.1.8-.4.7-.4-.2.1-.5.2-.8.3-.8,0-1.5-.3-2-.8s-.8-.7-1.2-1c-.5-.3-1.1-.6-1.7-.8-1.3-.3-2.6-.7-3.9-1.2-.3-.1-.6-.3-.9-.5-.2-.2-.4-.5-.2-.6s.5-.1.8-.1h7.5v-.4Z"/>
    <path class="st8" d="M204.1,216.8c.5.3,1.1.4,1.7.4h1.9c.7,0,1.5-.2,2.3-.3l1.7-.3h-.1c1.3.5,2.6.9,4,1.2-1.3-.6-2.6-1.2-3.9-1.6h0l-1.7.3-2.3.4h-3.6Z"/>
    <path class="st19" d="M253.9,420.8l8.4,15.6s-13,13.8-11.8,16.8l30.8-15.2-12.1-24.8-15.4,7.6h.1Z"/>
    <path class="st0" d="M271.2,430.3c.7-.1,1.4.3,1.6,1,.1.7-.3,1.4-1,1.6-.7.1-1.5-.3-1.7-1.1,0-.8.5-1.4,1.2-1.5"/>
    <g class="st15">
      <path class="st11" d="M281.4,438l-1.4-2.5-29,15.5s-1.1,1.3-.4,2.2l30.8-15.2Z"/>
    </g>
    <path class="st7" d="M261.7,436.4c0,.1.9-.1,1.8,0s1.7.6,1.8.4-.5-.9-1.7-1-2,.5-1.9.6h0Z"/>
    <path class="st7" d="M259.1,439.4c0,.2.8.1,1.6.5s1.3,1,1.5.9-.2-1-1.2-1.4-1.9,0-1.9,0Z"/>
    <path class="st7" d="M259.2,444.1c.1,0,0-.9-.8-1.5s-1.7-.6-1.7-.5.6.4,1.3.9,1,1.1,1.2,1.1Z"/>
    <path class="st7" d="M260.2,432.7c.1.1.7-.4,1.6-.8s1.7-.4,1.7-.6-.9-.4-1.9,0-1.5,1.3-1.4,1.3h0Z"/>
    <path class="st7" d="M258.6,429.5c.6-.1,1.1-.4,1.5-.8.5-.4,1-.8,1.4-1.3.2-.3.5-.6.6-.9.1-.2.2-.4.3-.6,0-.3,0-.7-.3-.8-.3-.1-.6-.1-.8,0-.2,0-.4.2-.5.4-.3.2-.6.5-.8.8-.4.5-.8,1-1,1.6-.3.5-.4,1.1-.3,1.7,0,0,.2-.6.7-1.5.3-.5.6-1,1-1.5.2-.3.5-.5.8-.7s.6-.4.7-.3,0,0,0,.2-.1.3-.2.4c-.2.3-.4.6-.6.9-.4.5-.8.9-1.2,1.3-.7.7-1.3,1-1.2,1.1h-.1Z"/>
    <path class="st7" d="M258.9,429.6c0-.6,0-1.2-.3-1.7-.2-.6-.6-1.1-1-1.6-.3-.3-.5-.5-.9-.8s-.9-.4-1.4-.3c-.3.1-.4.4-.4.8s0,.4.1.6c.1.4.3.7.5,1,.4.5.9,1,1.4,1.3s1.1.4,1.7.3c-.5-.2-1-.4-1.5-.7-.5-.3-.9-.7-1.2-1.2-.2-.3-.3-.6-.4-.9-.1-.4-.1-.7,0-.7.3,0,.6,0,.8.2.3.2.5.4.8.6.4.4.8.9,1.1,1.4.5.9.6,1.6.7,1.5v.2Z"/>
    <path class="st19" d="M262.1,434.3l-3.2,17.4s-18.8,2.6-19.7,5.8l33.6,7.4,6.1-27-16.8-3.6h0Z"/>
    <path class="st0" d="M269.6,452.5c.6.3.9,1.1.6,1.8-.3.6-1.1.9-1.8.6-.7-.4-.9-1.2-.6-1.9.4-.6,1.3-.8,1.9-.4"/>
    <g class="st15">
      <path class="st11" d="M272.8,464.9l.5-2.7-32.4-6.1s-1.6.3-1.7,1.4l33.6,7.4h0Z"/>
    </g>
    <path class="st7" d="M258.4,451.4c0,.2.8.4,1.5,1.1s1,1.5,1.1,1.5.1-1-.7-1.9-1.9-.9-1.9-.7Z"/>
    <path class="st7" d="M254.6,452.1c0,.1.6.6,1,1.4s.4,1.6.6,1.6.5-.9,0-1.9-1.5-1.3-1.5-1.1h-.1Z"/>
    <path class="st7" d="M251.6,455.8c.1,0,.6-.7.3-1.7s-.9-1.5-1-1.4.3.7.4,1.5,0,1.5.2,1.6h.1Z"/>
    <path class="st7" d="M259.6,447.5c0,.2.8.1,1.8.4s1.6.7,1.7.6-.5-.9-1.5-1.2-2,0-1.9.2h-.1Z"/>
    <path class="st7" d="M260.3,444c.5.3,1.1.4,1.7.4s1.3,0,1.9-.1c.4,0,.7-.2,1.1-.3.2,0,.4-.2.6-.3.3-.2.4-.5.3-.9-.1-.3-.4-.5-.6-.5h-.6c-.4,0-.8,0-1.1.1-.6.1-1.2.4-1.8.7-.9.5-1.3,1.1-1.3,1.1,0,0,.6-.4,1.5-.8s1.8-.6,2.7-.6.7,0,.7.2v.2c-.1,0-.3.2-.4.2-.3.1-.7.2-1,.3-.6.2-1.2.3-1.7.3h-2Z"/>
    <path class="st7" d="M260.5,444.3s.5-.5.8-1.5c.2-.6.2-1.3.2-1.9s-.1-.7-.2-1.1c0-.5-.4-.9-.9-1.1-.3,0-.6,0-.8.3-.1.2-.2.4-.3.6-.1.4-.2.7-.2,1.1,0,.6,0,1.3.3,1.9.5,1,1.1,1.4,1.1,1.3-.3-.5-.5-1-.8-1.5-.2-.5-.2-1.1-.2-1.7s.1-.7.2-1,.3-.6.5-.5.4.4.5.7c.1.3.2.7.2,1v1.8c-.2,1-.5,1.6-.4,1.7h0Z"/>
    <path class="st7" d="M277.5,273.9l-51.5,66.4c-5,6.4-6.4,14.9-3.8,22.5l37.3,76.2,12.5-21.3-21.4-60.2,27.9-33.5,12.4-51.4-13.5,1.3h.1Z"/>
    <path class="st7" d="M257.5,449.1l23.1-161.2,1.1-14.4,28.3-1.5s9.9,15.4,10.4,24.9-25.8,75.5-25.8,75.5l-3.8,26.4-15.8,55.8-17.5-5.4h0Z"/>
    <path class="st19" d="M281.5,276.5c.1,0-5.1,38.7-11.7,86.3s-12.1,86.3-12.3,86.3,5.1-38.7,11.7-86.3,12.1-86.3,12.3-86.3Z"/>
    <path class="st19" d="M250.5,357.6s-.6-.4-1.7-1c-2.8-1.4-6.1-1.6-9-.4-1.1.5-1.7.9-1.8.9.5-.5,1-.9,1.6-1.1,3-1.5,6.5-1.3,9.3.4.6.3,1.1.7,1.5,1.2h0Z"/>
    <path class="st19" d="M311.7,281.9s-.2.2-.6.4c-.6.3-1.2.5-1.8.6-.9.2-1.9.4-2.9.4s-2.4,0-3.5-.4c-1.2-.3-2.3-.7-3.3-1.2-.9-.4-1.7-1-2.4-1.6-.5-.4-1-.9-1.4-1.4-.3-.4-.4-.6-.4-.6,0,0,.7.7,2,1.7.7.6,1.5,1.1,2.4,1.5,1,.5,2.1.9,3.2,1.1s2.3.4,3.4.4,1.9,0,2.8-.3c1.6-.3,2.5-.7,2.5-.6h0Z"/>
    <path class="st19" d="M229,376.6c-.3-.5-.6-1-.9-1.6-.6-1-1.3-2.5-2.2-4.4-1.1-2.2-2.1-4.4-2.9-6.7-.5-1.4-.9-2.7-1.2-4.2-.4-1.5-.6-3.1-.6-4.6s0-3.1.4-4.7c.3-1.4.8-2.8,1.3-4.2,1-2.2,2.2-4.4,3.6-6.4,1.2-1.7,2.3-3,3-3.9.4-.5.7-.8.9-1,0-.1.2-.2.3-.3-.3.5-.7,1-1.1,1.5-.7.9-1.7,2.3-2.9,4-1.4,2-2.5,4.1-3.5,6.4-.5,1.3-1,2.7-1.3,4.1-.3,1.5-.4,3-.4,4.5s.3,3.1.6,4.5.7,2.8,1.2,4.1c.9,2.6,1.9,4.9,2.8,6.7l2.1,4.5.6,1.2c0,.1.1.3.2.4h0Z"/>
    <g>
      <polygon class="st19" points="271.4 214.2 252.3 236.2 227.4 222.5 218.8 231.2 251 253.3 265.4 253.1 277.6 228.9 271.4 214.2"/>
      <path class="st19" d="M264.4,230.5l10.6,44.9,35.8-3.1,4.6-35.3,9.6-15.1s-2.4-14.2-18.1-14.3l-2.5-6-18.9,1.6-2.2,5.5s-15.5,1.1-15.1,15.2l-3.7,6.6h0Z"/>
      <path class="st19" d="M300.3,221.4c1,.9,14.3,23.7,14.3,23.7l-21.2,4.6-.7,10.5,20.9,3,9.4,1c4.2.4,8.3-1.3,10.9-4.7h0c2.6-3.5,3.2-8.1,1.5-12.1l-10.9-27.6-24.1,1.6h0Z"/>
    </g>
    <g class="st17">
      <path d="M273.5,268.6c5.5,1.5,11.4.3,16-3.1.6-.6,1.3-1,2.1-1.2.9,0,1.8,0,2.6.4,3.8,1.2,7.8,1.9,11.9,2.1,1.4.2,2.8,0,4.1-.5,1.3-.6,2.1-2,1.9-3.4-6-2.2-12.3-3.9-18.6-5-3.3-.6-6.7-1-10-.3s-6.3,2.7-9.1,4.6c-.8.4-1.4,1.1-1.8,1.9-.6,1.6,1.1,3.4.8,5.1"/>
    </g>
    <path class="st7" d="M320.4,245c0,.1-6,1.3-13.5,2.6s-13.6,2.2-13.6,2.1,6-1.3,13.5-2.6,13.6-2.3,13.6-2.1Z"/>
    <path class="st7" d="M315.4,245.8c-.2-.4-.4-.7-.6-1.1-.4-.8-.8-1.9-1.4-3.2-1.1-2.7-2.7-6.4-4.3-10.5-.8-2.1-1.6-4-2.3-5.8-.7-1.6-1-3.3-.9-5.1.1-1.2.7-2.3,1.5-3.1.2-.2.5-.4.8-.6,0,0,.2,0,.3-.1-.3.3-.6.5-.9.8-.7.8-1.2,1.9-1.3,3,0,1.7.3,3.3,1,4.9.7,1.8,1.5,3.8,2.4,5.8,1.7,4.1,3.1,7.9,4.2,10.6.5,1.3.9,2.4,1.2,3.2.2.4.3.8.4,1.2h-.1Z"/>
    <path class="st7" d="M326.3,264.3h-1.3c-.9,0-2.1,0-3.6-.1-3.1-.2-7.3-.5-12-1.2s-8.8-1.4-11.9-1.9l-3.6-.6c-.4,0-.9-.2-1.3-.3.4,0,.9,0,1.3.1.9.1,2.1.3,3.6.5,3,.4,7.2,1.1,11.9,1.7s8.9,1.1,11.9,1.3l3.6.3c.5,0,.9,0,1.4.2Z"/>
    <path class="st7" d="M270.9,250.1c0-1.3-.2-2.6-.6-3.8-.3-1.1-.9-2.5-1.2-4.1-.2-.8-.3-1.7-.3-2.5s.3-1.8.6-2.7c1.2-2.9,2.7-5.7,4.5-8.3l1.5-2.4c.2-.3.4-.6.6-.9,0,.4-.2.7-.4,1-.3.6-.8,1.4-1.4,2.5-1.7,2.6-3.1,5.4-4.3,8.3-.3.8-.5,1.7-.5,2.5s0,1.6.2,2.4c.4,1.5.9,2.9,1.1,4.1.3.9.4,1.9.4,2.9v1h-.2Z"/>
    <path class="st7" d="M288.4,209.5c-.2-1.1-.2-2.2,0-3.3,0-1.1.1-2.2.5-3.2.2,1.1.2,2.2,0,3.3,0,1.1-.1,2.2-.5,3.2Z"/>
    <path class="st7" d="M295.4,208.9c-.7-2.1-1-4.2-1-6.4.4,1,.7,2.1.8,3.1.2,1.1.3,2.1.2,3.2h0Z"/>
    <path class="st7" d="M301.4,207.7c-.8-1.6-1.4-3.4-1.5-5.2.8,1.6,1.4,3.4,1.5,5.2Z"/>
    <g class="st17">
      <path d="M306.4,224.5c.1,6.8,1.3,12.5,1.4,19.4,0,.7,0,1.3.3,1.9.8,1.5,2.5,1,4.2.9.9-.1,1.7-.3,2.5-.5.1-.5,0-1-.2-1.5-2.8-7.1-5.5-13.1-8.3-20.2"/>
    </g>
    <polygon class="st7" points="230.9 238 241.2 247.9 257.8 263.9 286.3 262.5 263.2 236.4 230.9 238"/>
    <path class="st0" d="M235.4,237.7s-7.4,3.3.1,9,18,7.9,19.6,12c1,2.3.6,5-1,7l21.8-1s6.5-5.6,1.6-10.6-17.5-12.1-19-14.1,2.1-3.5,2.1-3.5l-25.3,1.2h0Z"/>
    <polygon class="st19" points="242.4 237.4 241.5 236.4 253.3 235.7 253.3 236.9 242.4 237.4"/>
    <path class="st13" d="M256.7,240.7c-1,.3-1.9.4-2.9.4-1.8.2-4.3.4-7.1.6s-5.3.2-7.2.2-2,0-3-.2c1,0,2-.1,3-.1,1.8,0,4.4-.2,7.1-.3l7.1-.4c1,0,2-.1,3,0v-.2Z"/>
    <path class="st13" d="M259,244c-3.2.4-6.4.6-9.6.7-3.2.2-6.4.3-9.6.2,3.2-.4,6.4-.7,9.6-.7,3.2-.2,6.4-.3,9.6-.2Z"/>
    <path class="st13" d="M264.1,246.8c-.9.3-1.8.4-2.7.5-1.7.2-4,.5-6.7.7s-5,.3-6.7.4h-2.8c.9-.2,1.8-.3,2.8-.3l6.7-.5,6.7-.5c.9-.1,1.9-.2,2.8-.1v-.2Z"/>
    <path class="st13" d="M267.5,250.5c-2.7.5-5.4.8-8.2.9-2.7.3-5.5.4-8.2.4,2.7-.5,5.4-.8,8.2-.9,2.7-.3,5.5-.4,8.2-.4Z"/>
    <path class="st13" d="M272.6,253.9c-2.6.5-5.3.9-7.9,1.1-2.6.4-5.3.6-8,.6,2.6-.5,5.2-.9,7.9-1.1,2.6-.4,5.3-.6,8-.6Z"/>
    <path class="st13" d="M275,258.6c-.8.2-1.6.3-2.4.4-1.5.2-3.5.4-5.8.5s-4.3.1-5.8.1-1.6,0-2.4-.2c.8-.1,1.6-.2,2.4-.2l5.8-.3,5.8-.3c.8,0,1.6-.1,2.4,0Z"/>
    <path class="st4" d="M292.6,260l-5.4-.9-20.2.5s-1-.3-.1-.9c.4-.3,7.9-2.1,7.9-2.1l-10.7.9c1-1.9,2.4-3.6,4.1-4.9,2.6-1.8,7.6-2.9,7.6-2.9l-3.2-2.4s10.5-1.4,11.9-.2,3,3.1,3,3.1h5.8"/>
    <path class="st8" d="M278.5,256c0,.1-3.2.2-7.1.6s-7.1.9-7.1.7c.6-.3,1.3-.4,2-.5,1.3-.2,3-.5,5-.7s3.8-.2,5-.2,1.4,0,2.1,0h.1Z"/>
    <path class="st8" d="M277.8,253.4c-2,.5-4,.9-6.1,1.1-2,.4-4.1.6-6.1.6,2-.5,4-.9,6.1-1.1,2-.4,4.1-.6,6.1-.6Z"/>
  </g>
  <g id="freepik--character-1--inject-45">
    <polygon class="st19" points="179 197.7 178.1 200.7 192.6 200.7 191.8 198.7 179 197.7"/>
    <polygon class="st7" points="193.1 207.2 192.8 207 177.9 207 177.7 207.2 193.1 207.2"/>
    <path class="st7" d="M190.5,223.7l3.1-22.6h-16.5l3.1,22.6s6.3.9,10.4,0h-.1Z"/>
    <path class="st19" d="M193.8,201.5h-16.9v-.3c0-.7.6-1.3,1.3-1.4h14.2c.7,0,1.4.6,1.4,1.3h0v.3h0Z"/>
    <polygon class="st0" points="191.9 216 178.8 216 177.7 207.2 193.1 207.2 191.9 216"/>
    <path class="st7" d="M187.2,213c.8-1.5,1.3-3.3-.4-4.4,0,0-1.6-1-3.4.9-1.4,1.5-2,3.3-.9,4.6,1.3,1.6,3.8.4,4.7-1.1h0ZM184.5,212.8c-.6.4-1.1,1-1.4,1.7-.2-1.1.3-1.7,1.9-2.9.9-.6,1.5-1.6,1.6-2.7.8,2-1,3.2-2.1,4h0Z"/>
    <polygon class="st7" points="178.8 198.4 181.7 198.8 181.7 199.3 178.5 199.3 178.8 198.4"/>
    <path class="st2" d="M183.9,213.2s-24.2,24.4-26.4,25c0,0-7.4-14.3-8-14.8l-14.1,7.9,8.3,17.8c2.6,6.8,10.2,10.2,17,7.7,2.1-.8,3.9-2.1,5.3-3.7l23.8-28.1,4.8-5.3c1-1.5,1.6-3.1,1.9-4.9.1-1.1,0-2.2-.2-3.2.3-.8.2-1.7-.1-2.5-.3-.5-.8-.8-1.3-.9,1.1-2.6-1.8-3.9-3.2-1.7"/>
    <path class="st2" d="M183,214.1c-.4-1.2-1.1-2.3-2.2-3-1-.8-2.1-1.2-3.4-1.3,0,0,.3-1.7,3.2-1.4s3.6,2.2,7.2,1.4l.8,3.3-5.6,1Z"/>
    <path class="st6" d="M195.1,207.7c.1,0-.3,1.1-1.2,2s-2,1.4-2,1.3.8-.7,1.7-1.6,1.4-1.7,1.6-1.6h-.1Z"/>
    <path class="st6" d="M196.2,211.5c.1,0,0,.8-.7,1.5s-1.3,1.1-1.4.9.4-.6.9-1.3.9-1.2,1.1-1.2h0Z"/>
    <path class="st6" d="M155.4,248c-.2-1.8,0-3.5.3-5.3.2-1.8.7-3.5,1.5-5.1.1,0-.5,2.3-1,5.1s-.6,5.2-.8,5.2h0Z"/>
    <polygon class="st19" points="68.4 199.4 67.5 202.4 81.9 202.4 81.2 200.4 68.4 199.4"/>
    <polygon class="st7" points="82.4 208.9 82.2 208.7 67.2 208.7 67 208.9 82.4 208.9"/>
    <path class="st7" d="M79.9,225.4l3.1-22.6h-16.6l3.1,22.6s6.3.9,10.4,0Z"/>
    <path class="st19" d="M83.2,203.2h-16.9v-.3c0-.7.6-1.4,1.3-1.4h14.2c.7,0,1.4.6,1.4,1.4v.3Z"/>
    <polygon class="st0" points="81.2 217.7 68.2 217.7 67 208.9 82.4 208.9 81.2 217.7"/>
    <path class="st7" d="M76.5,214.7c.8-1.5,1.3-3.3-.4-4.4,0,0-1.6-1-3.4.9-1.4,1.5-2,3.3-.9,4.6,1.3,1.6,3.8.4,4.7-1.1ZM73.9,214.5c-.6.4-1.1,1-1.4,1.7-.2-1.1.3-1.7,1.9-2.9.9-.7,1.5-1.6,1.6-2.7.9,2-1,3.2-2.1,4h0Z"/>
    <polygon class="st7" points="68.2 200.1 71 200.5 71 201 67.9 201 68.2 200.1"/>
    <path class="st2" d="M68.4,259.1s-2.9-3.4-2.1-27.6l-.2-13,11.3-3.4,7.8,43.8h-16.8v.2Z"/>
    <path class="st2" d="M77,216c.5-1.3,1.3-2.5,2.5-3.4,1-.8,2.1-1.2,3.4-1.3,0,0-.3-1.8-3.2-1.4s-3.6,2.2-7.2,1.4l-4.1,7.3,8.7-2.6h-.1Z"/>
    <path class="st2" d="M73.2,211.9c-.2-.4-6-5.1-6-5.1,0,0-3,.1-1.9,2.9-1.3.5-1.9,1.9-1.4,3.2,0,.2,0,.3.2.5,0,0-1.3.9-.4,3.6.7,1.8,1.5,3.4,2.5,5l6.9-10h.1Z"/>
    <path class="st2" d="M74.8,237.7l-6.6,15.7c-1.5,4.7,1.1,9.7,5.8,11.1h0c4.6,1.5,9.6-1,11.1-5.5l5.3-15.5s-15.6-5.8-15.6-5.8Z"/>
    <path class="st6" d="M68.8,252.1c0-.7.3-1.5.5-2.2.4-1.3,1-3.1,1.8-5.1s1.6-3.7,2.2-4.9c.3-.7.7-1.4,1.1-2-.2.7-.5,1.4-.8,2.1-.5,1.3-1.3,3-2.1,4.9s-1.5,3.7-2,5c-.2.7-.5,1.4-.8,2.1h.1Z"/>
    <path class="st6" d="M73.5,240.4c0,.2-1.1.3-2.2,1.1s-1.7,1.8-1.8,1.7.3-1.3,1.5-2.1c.7-.6,1.6-.8,2.5-.7Z"/>
    <path class="st7" d="M101.3,156.7c.7,1.9-1.6,3.5-3.5,3.9s-4.3.7-5.2,2.5c-.8,1.6,0,3.5-.7,5.1-1.3,3-6.7,2.4-7.8,5.5-.7,2.1,1.3,4.3,1,6.6-.2,1.9-2,3.2-3.5,4.4s-3.2,2.8-2.9,4.7c.3,2.2,3,3.8,2.8,6s-3.2,3.2-3.6,5.4c-.5,2.6,2.7,4.2,3.8,6.6.8,1.8.3,4.2,1.6,5.7s3.9,1.2,5.9.8l20-4.2c-1.3-3.2,0-6.9,1.8-9.7s4.5-5.2,6.2-8.3,2.2-7.1,0-9.7"/>
    <path class="st7" d="M136.5,172.7c-.1-1.1-.4-2.1-.7-3.2-.2-.5-.4-.9-.8-1.3s-.9-.1-1.2.4c-1.2,2.6-1.2,5.5,0,8.1.3.5.8.8,1.2.4.4-.4.6-.8.8-1.3.3-1,.5-2.1.7-3.2,0,.3.1.6,0,.9,0,.8-.1,1.6-.4,2.4-.2.6-.5,1.1-.9,1.5s-.7.4-1.1.2c-.3-.1-.6-.4-.8-.7-1.3-2.7-1.3-5.9,0-8.6.2-.3.5-.6.8-.7.4-.1.8,0,1.1.2.4.4.7.9.9,1.5.2.8.4,1.6.4,2.4v.9h0Z"/>
    <path class="st7" d="M103.8,191.2c-3.6-6.1-4.7-14.3-5.6-21.3-.4-3.3-1.2-8,1.2-10.1,2.5-2.2,2.7-5.6,5.6-7.4,2.9-1.8,6.6-1.8,9.5.1"/>
    <path class="st2" d="M113.9,212.8h0c5.4.4,10.1-3.6,10.6-9v-.4c.2-5.4.4-10.8.4-10.8,0,0,8.1-.7,8.7-8.7s.4-26.5.4-26.5h0c-9-4.6-19.8-3.9-28.2,1.7l.4,28.2v15.2c0,5,2.6,9.8,7.7,10.2h0Z"/>
    <path class="st7" d="M125.6,174.1c-1.2-1.8-3.6-2.3-5.5-1.2-1.9,1.3-2.5,3.8-1.6,5.8.8,1.5,2.3,2.6,3.9,3,1.5.3,2.6,1.8,2.4,3.3-.2,2-3.6,2.8-5.1,4.4-2.3,2.6-7.5,3.7-11,4.1s-3,.4-5-2.4c-1.3-1.9-2-4.2-1.9-6.5,0-5.9-.2-11.8-.3-17.7,0-2.1,0-4.3.4-6.4.4-2.1,1.6-4,3.4-5.2,1.9-1.3,4.4-1.4,6.7-2.1,2.8-.9,5.1-2.7,7.7-4.1s5.8-2.1,8.4-.8c1.9,1,3.1,2.8,4.9,3.9,2.6,1.5,6.1,1.2,7.4,5,.4,1.3.4,2.8,0,4.1-1.8,5.2-8.2,7.2-12.8,5,0,.9.8,2.8-.2,5.6-.3.9-.4,2.2-1.8,2.3"/>
    <path class="st6" d="M124.2,179.1s0,.1,0,.3c-.2.3-.5.4-.9.4-1.2,0-2.1-1-2.1-2.2s.2-1.2.6-1.7c.3-.4.8-.6,1.3-.7.8-.2,1.3.1,1.3.2s-.5,0-1.2.2c-.9.3-1.4,1.1-1.4,2s.6,1.7,1.5,1.8c.7,0,.9-.4,1-.4h0Z"/>
    <path class="st7" d="M136.5,172.3c-1.8.6-3.6.9-5.4,1.1-1.8.4-3.6.6-5.5.6,1.8-.5,3.6-.9,5.4-1.1,1.8-.4,3.6-.6,5.5-.6Z"/>
    <path class="st7" d="M104.5,199c.5,1,1.7,1.5,2.8,1.1,1-.4,2-1,2.7-1.8s1.6-1.5,2.7-1.9c2.1-.6,4.8.8,6.6-.6,1.6-1.2,1.4-3.9,3-5.2.8-.7,2-.8,2.9-1.4,1.6-1.2,1.4-3.9,0-5.4s-3.4-2.1-5.4-2.6l-17.2,7.3,2,10.4h0Z"/>
    <path class="st19" d="M125,167.9h-.2c0,.2-.3.3-.4.4-.6.3-1.2.5-1.9.7-1,.2-2.1.4-3.1.5-1.4.1-2.8.3-4.1.6-1.6.3-3.1,1.1-4.2,2.3-1.2,1.4-1.6,3.3-2.5,5.2-.5,1-1.1,1.9-2,2.5-.9.7-1.9,1.2-3,1.5-2.1.7-4.4,1.1-6.2,2.6-.9.7-1.4,1.7-1.6,2.8v3.4c.3,2.3-.9,4.5-3,5.5-1.8,1.1-3.7,1.6-5.2,2.6-.7.4-1.4,1-1.8,1.7s-.7,1.4-.7,2.2c0,1.4.2,2.7.6,4.1.3,1,.3,2.1.3,3.2s-.2,1.3-.6,1.9c0,.2-.3.4-.4.6.5-.7.8-1.6.8-2.5s0-2.1-.4-3.1c-.4-1.4-.6-2.8-.6-4.2s.3-1.7.7-2.4c.5-.8,1.2-1.4,2-1.9,1.6-1,3.5-1.6,5.2-2.6.9-.5,1.6-1.2,2.1-2.1.5-.9.7-2,.6-3.1v-3.4c.2-1.2.8-2.3,1.8-3.1,1.9-1.6,4.3-2,6.4-2.7,1-.3,2-.8,2.9-1.4.8-.6,1.5-1.4,1.9-2.3.9-1.8,1.3-3.8,2.6-5.2,1.2-1.3,2.8-2.1,4.5-2.4,1.4-.3,2.8-.4,4.2-.5,1,0,2.1-.2,3.1-.4.9-.2,1.7-.5,2.5-.8l-.3-.2Z"/>
    <path class="st19" d="M120.3,170.7s-.6,0-1.7.2c-1.5.4-2.8,1.2-3.9,2.3-.7.8-1.2,1.7-1.5,2.7-.3,1.2-.4,2.4-.3,3.6,0,1.4,0,2.8-.6,4.1-.3.7-.9,1.3-1.5,1.7s-1.3.8-2,1.1c-.6.3-1.2.7-1.7,1.2-.4.5-.7,1.2-.7,1.8,0,1.3.2,2.8-.5,4.1-.6,1.1-1.6,2-2.7,2.7-1,.6-2,1-2.8,1.5-.8.4-1.4,1-2,1.6-.4.5-.7,1.1-.9,1.7,0,.5,0,1.1,0,1.7,0-.1,0-.3-.2-.4,0-.4,0-.9,0-1.3,0-.7.4-1.3.8-1.9.5-.7,1.2-1.3,2-1.8s1.8-1,2.8-1.6,1.9-1.4,2.5-2.5.3-2.5.4-3.9c0-.8.3-1.5.8-2.1s1.2-1,1.9-1.4c1.3-.7,2.7-1.3,3.3-2.5.5-1.2.7-2.6.6-3.9,0-1.3,0-2.5.4-3.7.3-1.1.9-2,1.7-2.8,1.1-1.2,2.5-2,4.1-2.3.4,0,.9-.1,1.3-.1h.5v.2Z"/>
    <path class="st0" d="M92.8,271.1l5.6-16.2-3.9-19.7-3,8.7-18.8-6.9s12.2-24.3,12.8-25.6c5.6-11.7,20.3-11.7,20.3-11.7l18.8.5c6.1-.4,12,1.9,16.2,6.3,5.4,5.4,17.7,29.2,17.7,29.2l-19.8,6.2-3.9-7.3,1.1,15.4,3.9,23.6-47-2.5Z"/>
    <path class="st7" d="M132.1,205.3s-.5,0-1.4.4c-1.2.5-2.2,1.4-2.9,2.6-1,1.7-1.4,3.6-1.2,5.6.4,2.4,1.1,4.7,2.2,6.8,2.2,4.7,4.1,8.9,5.5,12l1.6,3.7c.2.4.4.9.5,1.4-.3-.4-.5-.8-.7-1.3-.5-.9-1.1-2.2-1.8-3.6-1.5-3-3.4-7.3-5.6-12-1.1-2.2-1.9-4.6-2.2-7-.2-2,.2-4.1,1.4-5.8.7-1.2,1.8-2.1,3.1-2.6.3-.1.7-.2,1.1-.2h.4,0Z"/>
    <path class="st7" d="M98.5,255.8c-.2,0-2.4-10.2-5-22.8s-4.7-22.9-4.5-22.9,2.4,10.2,5,22.8,4.7,22.9,4.5,22.9Z"/>
    <path class="st7" d="M126.8,240.4v1.4c0,1.2-.4,2.4-.9,3.6-1.6,3.8-4.5,6.9-8.2,8.8-3.7,1.8-7.8,2.6-11.9,2.4-1.2,0-2.5-.2-3.7-.4-.4,0-.9-.2-1.3-.3,0-.1,1.9.2,5,.3,4,.1,8-.8,11.6-2.5,3.6-1.8,6.4-4.8,8.1-8.4.6-1.5,1.1-3.1,1.3-4.8h0Z"/>
    <g>
      <path class="st7" d="M140.1,205.9c0,.1-11.4.3-25.5.3s-25.5-.1-25.5-.3,11.4-.3,25.6-.3,25.5.1,25.5.3h-.1Z"/>
      <path class="st7" d="M146.5,214.3c0,.1-14,.3-31.2.3s-31.2-.1-31.2-.3,14-.3,31.2-.3,31.2.1,31.2.3Z"/>
      <path class="st7" d="M151.1,222.2c0,.1-15.8.3-35.3.3s-35.3-.1-35.3-.3,15.8-.3,35.3-.3,35.3,0,35.3.3Z"/>
      <path class="st7" d="M154.2,229.4c0,.1-17.4.3-38.8.3s-38.8-.1-38.8-.3,17.4-.3,38.8-.3,38.8.1,38.8.3Z"/>
      <path class="st7" d="M93.1,238.2c-.9-.2-1.8-.4-2.7-.7-1.7-.5-3.9-1.2-6.5-1.8s-4.9-1.2-6.5-1.6c-.9-.2-1.8-.4-2.7-.7.9,0,1.9.1,2.8.3,1.7.3,4,.8,6.6,1.5s4.8,1.4,6.4,2c.9.3,1.8.6,2.6,1.1h0Z"/>
      <path class="st7" d="M135.2,236.9h-20.4c0-.1-18.8-.1-18.8-.1h-1.6c.5,0,1.1-.1,1.6-.1,1,0,2.5-.1,4.4-.2,3.7-.1,8.8-.2,14.4-.2s10.7.1,14.4.3c1.8,0,3.3.1,4.4.2.5,0,1.1,0,1.6.1h0Z"/>
      <path class="st7" d="M157.2,233.3h-.7c0,.1-2.2.5-2.2.5-1.9.3-4.5.8-7.4,1.2s-5.6.8-7.5,1.1c-1,.2-2.1.3-3.1.3,1-.3,2-.5,3.1-.7,1.9-.3,4.5-.8,7.4-1.2s5.5-.8,7.5-1c.9-.1,1.7-.2,2.3-.2h.8c0,0,0,0,0,0h-.2Z"/>
      <path class="st7" d="M125.9,243.9c0,.1-6.7.3-14.8.3s-14.8-.1-14.8-.3,6.7-.3,14.8-.3,14.8.1,14.8.3Z"/>
      <path class="st7" d="M135.5,246.3c-1.7.3-3.4.3-5.1.3s-3.4,0-5.1-.3c1.7-.3,3.4-.3,5.1-.3s3.4,0,5.1.3Z"/>
      <path class="st7" d="M119.4,252.6c-1,.2-2.1.2-3.1.2h-7.6c-3,0-5.6-.2-7.6-.4-1,0-2.1-.2-3.1-.4h3.1l7.5.2h7.5c1,.1,2.1.2,3.1.3h.2Z"/>
      <path class="st7" d="M136.3,254.7c-3.4.3-6.8.4-10.2.3-3.4,0-6.8,0-10.2-.3,3.4-.3,6.8-.3,10.2-.3s6.8,0,10.2.3Z"/>
      <path class="st7" d="M137.9,262.1h-6.1c-3.8,0-9-.1-14.7-.3s-11-.4-14.7-.6c-1.9-.1-3.4-.2-4.4-.3-.5,0-1.1,0-1.6-.2h1.6l4.5.2,14.7.5,14.7.5,4.5.2c.5,0,1.1,0,1.6.1h-.1Z"/>
      <path class="st7" d="M139.2,270.5h-1.8l-4.9-.2c-4.1-.2-9.7-.5-16-.8s-11.9-.7-16-1l-4.8-.4c-.6,0-1.2,0-1.8-.2h1.8l4.8.2c4.1.2,9.8.5,16,.8s11.9.7,16,1l4.8.4c.6,0,1.2,0,1.8.2h0Z"/>
    </g>
    <g class="st16">
      <path d="M99.9,254.5c3.5,2.6,8.7,1.8,13.1,1,4.4-.7,8.4-2.8,11.4-6.2,1.4-1.4,2.2-3.4,2.1-5.4-.2-2-1.9-3.9-3.9-3.6-2.2.3-3.3,2.8-4.4,4.8-3.6,6.4-10.9,9.9-18.2,8.6,0,0-.7.3,0,.8h0Z"/>
    </g>
    <g class="st16">
      <path d="M126.8,216.1c1.1,8.9,2.5,16.2,4.4,24.9.9,4.3,2,8.8,5,12.1l-1.7-19.7-7.7-17.3Z"/>
    </g>
    <path class="st7" d="M101.6,197.6c-3.3,1.3-4.9,5-3.7,8.3.2.5.4.9.7,1.3.5.5.7,1.1.8,1.8,0,1.6-2.6,1.6-3.4,3-.4,1-.2,2.2.7,2.9.8.7,1.7,1.2,2.6,1.8.9.5,1.5,1.5,1.6,2.6.9,0,1.4-1.1,1.3-2-.2-.9-.6-1.7-1.1-2.4-.5-.8-.5-1.7,0-2.6.6-.8,1.8-.9,2.7-1.2,1.9-.8,2.8-3,2-4.9-.6-1.3-1.9-2.6-1.3-3.8.4-.7,1.2-1,1.9-1.4,2.4-1.3,3.2-4.3,1.9-6.7-.3-.6-.8-1.1-1.3-1.5"/>
    <polygon class="st2" points="83.4 349.7 77.8 453.1 94.9 457.2 107.7 351.9 83.4 349.7"/>
    <polygon class="st19" points="77.3 452.7 74.4 465.4 94.1 465.4 94.9 457.1 77.3 452.7"/>
    <path class="st7" d="M94.4,463.6c-.9.1-1.9.2-2.8.2-1.8,0-4.2,0-6.9-.1l-6.9-.3c-1,0-1.9,0-2.8-.2.9-.1,1.9-.2,2.9-.1,1.8,0,4.2,0,6.9.1l6.9.3c1,0,1.9,0,2.8.2h0Z"/>
    <path class="st7" d="M86.1,455.1c.2,1.4.2,2.8,0,4.1,0,1.4-.2,2.8-.6,4.1-.2-1.4-.2-2.8,0-4.1,0-1.4.2-2.8.6-4.1Z"/>
    <g class="st15">
      <polyline class="st11" points="74.4 465.4 94.1 465.4 94.2 463.6 74.8 463.1 74.4 465.2"/>
    </g>
    <polygon class="st2" points="145.1 428.9 149.2 460.1 164.3 459 161.1 430.4 145.1 428.9"/>
    <path class="st19" d="M164.5,455.6h0s17,5.7,17.2,8.8l-32.4.9-.3-8.5,1.2.2c4.8,1,9.8.4,14.3-1.5h0Z"/>
    <g class="st15">
      <path class="st11" d="M152.8,458.4c-.6.2-1,.9-.9,1.5.2.6.9,1,1.5.9.7-.2,1.1-.9.9-1.6-.3-.7-1-1-1.7-.7"/>
    </g>
    <g class="st15">
      <path class="st11" d="M149.3,465.4v-2.6h31.1s1.5.7,1.3,1.7l-32.4.9h0Z"/>
    </g>
    <path class="st7" d="M165,455.5c0,.2-.8.2-1.6.8s-1.1,1.2-1.3,1.1,0-1,1-1.6,1.9-.5,1.9-.3h0Z"/>
    <path class="st7" d="M168.4,456.8c0,.1-.6.4-1.2,1.1s-.6,1.4-.8,1.4-.3-.9.4-1.7,1.6-.9,1.6-.8Z"/>
    <path class="st7" d="M170.5,460.8c-.1,0-.4-.8,0-1.6s1.1-1.2,1.2-1.1-.4.6-.7,1.3-.4,1.4-.5,1.4h0Z"/>
    <path class="st7" d="M164.6,455.4c-.5.1-1.1.1-1.6,0-.6,0-1.2-.2-1.7-.5-.3-.1-.6-.3-.9-.5-.2,0-.4-.2-.5-.4-.2-.2-.3-.6-.1-.8.2-.2.4-.4.7-.4h.6c.3,0,.7.2,1,.3.6.2,1.1.6,1.5.9.8.7,1.1,1.3,1,1.3s-.4-.4-1.2-1c-.5-.3-.9-.6-1.5-.8-.3-.1-.6-.2-.9-.3h-.7c0,0,0,0,0,.2.1.1.2.2.4.3.3.2.6.3.9.5.5.2,1,.4,1.6.6.5,0,1.1.2,1.6.4l-.2.2Z"/>
    <path class="st7" d="M164.4,455.6c-.3-.5-.5-1-.5-1.5s0-1.2.2-1.8c0-.3.2-.7.4-1,.2-.4.5-.8,1-.9.3,0,.6.2.7.4,0,.2.1.4.2.6v1.1c0,.6-.3,1.2-.6,1.7-.6.9-1.3,1.1-1.3,1,.3-.4.7-.8.9-1.2.3-.5.4-1,.5-1.5v-.9c0-.4-.2-.6-.3-.6s-.4.3-.6.5c-.2.3-.3.6-.4.9-.2.5-.3,1.1-.3,1.6,0,1,.2,1.6.1,1.6h0Z"/>
    <path class="st19" d="M92.8,271.1s-12,20-12,31.9l-3,145.6,20.7,3,14.6-142.3s33.1,144.1,34.2,144.1,18.3-3.1,18.3-3.1l-26.1-178.7-46.7-.7v.2Z"/>
    <path class="st7" d="M126.1,312.6c0,.2-6.3-1.2-14.1-3.1s-14-3.5-13.9-3.7,6.3,1.2,14.1,3.1,14,3.5,13.9,3.7Z"/>
    <path class="st7" d="M100.4,306.9v.4l-.2,1.1c-.2,1-.4,2.4-.7,4.1-.6,3.6-1.4,8.7-2.3,15.1-1.9,12.8-4.3,30.4-6.3,50s-3.3,37.4-3.9,50.3c-.3,6.5-.6,11.7-.8,15.3l-.2,4.1v1.5-5.7c0-3.6.3-8.8.6-15.3.6-12.9,1.8-30.7,3.8-50.3s4.5-37.3,6.5-50c1-6.4,1.9-11.5,2.5-15.1.3-1.8.6-3.1.8-4.1,0-.4.2-.8.2-1.1v-.4h0Z"/>
    <path class="st7" d="M130.4,309.3c.1,0,5.9,31.9,12.9,71.4s12.5,71.4,12.4,71.5-5.9-31.9-12.9-71.4-12.5-71.4-12.4-71.5Z"/>
    <path class="st19" d="M79,189c.3.3.5.6.7.9.6.8,1.1,1.8,1.5,2.7.3.7.4,1.4.3,2.2,0,.9-.3,1.7-.8,2.4-.5.8-1.1,1.4-1.7,2.1-.6.7-.9,1.6-1,2.5,0,.9.3,1.8.8,2.6s1,1.5,1.5,2.2.9,1.4,1.3,2.1c.3.7.4,1.4.4,2.1s0,1.1.2,1.7c0,.4.3.8.6,1.1.3.3.6.4,1,.5,0,0-.5.2-1.1-.4-.4-.3-.6-.7-.8-1.1,0-.6-.2-1.2-.2-1.8s-.2-1.4-.4-2c-.3-.7-.8-1.4-1.2-2-.6-.7-1.1-1.5-1.6-2.2-.5-.9-.8-1.9-.8-2.9s.4-2,1-2.8,1.2-1.4,1.7-2.1c.9-1.2,1.1-2.8.5-4.2-.3-1-.8-1.9-1.3-2.7-.2-.3-.4-.6-.5-1h0Z"/>
  </g>
  <g id="freepik--Plant--inject-45">
    <rect class="st7" x="648.4" y="416.7" width="57.8" height="8"/>
    <path class="st7" d="M706.4,424.7h-58.1v-8.1h58.1v8.1ZM648.5,424.5h57.7v-7.8h-57.7v7.8Z"/>
    <polygon class="st7" points="653.8 422 662.1 463.1 693 463.1 701 424.6 653.8 422"/>
    <polygon class="st7" points="653.8 459.2 658.2 465.3 695.7 465.3 701 459.2 653.8 459.2"/>
    <path class="st7" d="M675.2,423.2c0,0-.3-19-.3-42.5v-42.5s.3,19,.3,42.5v42.5Z"/>
    <path class="st7" d="M688.1,375.5c0,.2,0,.3-.2.5,0,.3-.3.7-.5,1.2l-.4.9-.4,1.1c0,.4-.3.8-.5,1.2s-.3.9-.4,1.4c-.7,2.3-1.2,4.7-1.6,7.1-.5,2.9-.8,5.9-.9,8.9-.2,5.4,0,10.8.5,16.2.2,2.1.4,3.7.5,4.9l.2,1.3v.5-.5c0-.4,0-.8-.2-1.3-.2-1.1-.4-2.8-.6-4.9-.6-5.4-.8-10.8-.6-16.2,0-3,.5-6,.9-8.9.4-2.4,1-4.8,1.7-7.1.2-.5.3-1,.5-1.4l.5-1.2.4-1.1.4-.9c.2-.5.4-.9.6-1.2,0-.1,0-.3.2-.4h-.1Z"/>
    <path class="st7" d="M686.6,360.1c0,.2,0,.4-.2.6l-.6,1.8-.4,1.3c-.2.5-.3,1-.5,1.5-.3,1.1-.7,2.4-1.1,3.8-.2.7-.4,1.4-.6,2.2s-.3,1.6-.5,2.4c-.4,1.6-.7,3.5-1.1,5.3-.6,3.8-1.2,8-1.6,12.4s-.5,8.6-.6,12.5,0,7.3.2,10.2c0,1.5,0,2.8.2,3.9s0,2.1.2,3,0,1.4,0,1.9v.7-.6c0-.5,0-1.1-.2-1.9s-.2-1.8-.3-2.9-.2-2.5-.3-3.9c-.2-2.9-.3-6.4-.3-10.2s.2-8.1.5-12.5,1-8.6,1.6-12.4c.4-1.9.7-3.7,1.1-5.4.2-.8.4-1.6.6-2.4s.4-1.5.6-2.2c.4-1.4.8-2.6,1.1-3.8.2-.5.3-1.1.5-1.5s.3-.9.5-1.3l.7-1.7c0-.2.2-.4.3-.6v-.2Z"/>
    <path class="st7" d="M671.5,426.5v-.9c0-.6,0-1.5-.2-2.5,0-2.2-.3-5.4-.6-9.3-.5-7.8-1.2-18.6-2.5-30.5-.7-5.9-1.5-11.6-2.3-16.7-.4-2.5-.8-5-1.3-7.2s-.8-4.4-1.2-6.3-.8-3.6-1.2-5.2-.7-2.8-.9-3.9-.5-1.9-.6-2.5l-.2-.6v-.2.2l.2.6c.2.6.4,1.4.7,2.4s.6,2.4,1,3.9.8,3.2,1.2,5.1.9,4,1.3,6.3.9,4.7,1.3,7.2c.8,5.1,1.6,10.8,2.3,16.7,1.3,11.9,2,22.7,2.4,30.5s.4,7.1.5,9.3v3.6Z"/>
    <g id="Leaves">
      <path class="st12" d="M674.7,347.3c-.3-2.7-3-4.7-5.7-4.8-2.7.1-5.3,1.5-6.9,3.7-1.6,2.2-2.7,4.7-3.3,7.4-2,6.3-2.6,13-2,19.6.7,6.6,3.5,12.9,8.2,17.7.8.8,1.8,1.5,2.8,1.3.6-.2,1.1-.5,1.5-.9,9.3-8.5,14.5-20.7,14.2-33.3,0-2.5-.5-5-1.8-7.2-1.4-2.1-4.6-4.3-7-3.5"/>
      <path class="st12" d="M654.5,325.7c-1.3,2.3-2.6,4.6-3.8,6.9,0,.2-.2.4-.4.4s-.3-.2-.5-.3l-10.1-15.5,2.3-1.3,12.4,9.9h0Z"/>
      <path class="st12" d="M675,338.1l-34.4-20.3c-.4-.2-.7-.5-.8-.9,0-.5.2-1.1.6-1.4,4.8-5,11.5-7.6,18.4-7.2,6.9.5,13.1,4.4,16.6,10.3,3.3,5.9,3.4,13.8-.4,19.4"/>
      <path class="st12" d="M659.1,340.9c-3-2.2-6.1-2.7-9.8-2.5-3.7.3-7.3,1.2-10.7,2.8-5.8,2.5-11.2,6.3-14.7,11.6s-4.7,12.3-2.1,18.1c.2.6.6,1.1,1.2,1.4.6.2,1.3.1,1.9-.1,6.6-2.1,13.2-4.3,19.3-7.7s11.6-8.1,14.8-14.2c.8-1.4,1.4-3.1,1.6-4.7.2-1.7-.4-3.4-1.5-4.6"/>
      <path class="st12" d="M686.2,361.3l3.1-.3c2.2-.2,4.3-.8,6.3-1.9.9-.6,1.9-1,2.9-1.5,3.8-1.5,8.1-1.3,12.2-1.5,6.8-.3,13.4-2,19.5-5,.4-.2.7-.4.8-.8.6-1.2-.5-2.2-1.6-2.8-5.2-3.2-10.6-6.5-16.5-8.1s-12.7-1.3-17.7,2.2c-5.9,4.1-8.1,12.5-9.1,19.6"/>
      <path class="st12" d="M690.8,374.5c-3-.8-6.5,2.1-7.1,5.1s.5,6.1,1.8,8.8c2.8,6.2,7,11.7,12.2,16,5.3,4.3,11.9,6.8,18.7,6.9-1.2-5.8.3-11.9-.4-17.8-1.3-10.7-9.8-19.1-20.5-20.3-1.9-.2-4.1-.5-4.8,1.2"/>
      <g class="st16">
        <path d="M654.5,325.7c-1.3,2.3-2.6,4.6-3.8,6.9,0,.2-.2.4-.4.4s-.3-.2-.5-.3l-10.1-15.5,2.3-1.3,12.4,9.9h0Z"/>
      </g>
    </g>
    <path class="st7" d="M645.5,311.4h1.8c1.6,0,3.2.1,4.8.4,5.2.9,10.1,3.2,14.1,6.8,3.9,3.6,6.8,8.2,8.2,13.3.4,1.5.7,3.1.8,4.7v1.8s0-.6-.2-1.7c-.8-6.8-4.1-13.1-9.1-17.8-5.1-4.5-11.7-7.1-18.6-7.3h-1.8v-.2Z"/>
    <path class="st7" d="M670.3,324.1c-.5.3-1.1.6-1.7.8-1.1.4-2.6,1-4.3,1.5s-3.3,1-4.4,1.3c-.6.2-1.2.3-1.9.4.6-.3,1.2-.5,1.8-.6l4.4-1.4,4.4-1.4c.6-.2,1.2-.4,1.8-.5h0Z"/>
    <path class="st7" d="M664.9,309.6c.5,2.5.5,5.1.2,7.7-.2-1.3-.2-2.6-.2-3.9,0-1.3,0-2.6,0-3.8h0Z"/>
    <path class="st7" d="M640.3,317.5c.8-.4,1.6-.7,2.5-.9,1.6-.5,3.7-1.1,6.2-1.7s4.6-1,6.2-1.3c.9-.2,1.7-.3,2.6-.4-.8.3-1.7.5-2.6.6-1.6.4-3.8.8-6.2,1.4s-4.6,1.1-6.2,1.5c-.8.3-1.7.5-2.6.6v.2Z"/>
    <path class="st7" d="M659.2,340.2c-.2,0-.3.1-.5.2l-1.4.5-1,.3-1.2.5c-.8.3-1.8.7-2.8,1.2l-1.6.7c-.6.3-1.1.6-1.7.9-1.2.6-2.4,1.3-3.7,2.1-2.7,1.7-5.4,3.7-7.8,5.8-2.4,2.2-4.7,4.5-6.7,7-.9,1.2-1.8,2.3-2.5,3.4-.4.5-.8,1.1-1.1,1.6s-.6,1-.9,1.5c-.6,1-1.1,1.9-1.5,2.6-.2.4-.4.8-.6,1.1s-.3.7-.5,1l-.7,1.3c0,.2-.2.3-.2.5,0-.2,0-.3.2-.5,0-.4.3-.8.6-1.4,0-.3.3-.6.4-1s.4-.7.6-1.1c.4-.8.9-1.7,1.5-2.7l.9-1.5c.3-.5.7-1.1,1.1-1.6.7-1.1,1.6-2.2,2.5-3.4,2.1-2.5,4.3-4.9,6.8-7.1,2.5-2.1,5.1-4.1,7.9-5.8,1.3-.8,2.5-1.5,3.7-2.1s1.2-.6,1.7-.9l1.6-.7c1-.5,2-.8,2.9-1.1.4-.1.8-.3,1.2-.4l1-.3,1.4-.4h.5v-.2Z"/>
    <path class="st7" d="M636,352.7c-2.4.9-4.8,1.7-7.2,2.3-2.4.8-4.8,1.4-7.3,1.9,2.4-.9,4.8-1.7,7.2-2.3,2.4-.8,4.8-1.4,7.3-1.9Z"/>
    <path class="st7" d="M635.8,368.6c0-.7-.2-1.5-.2-2.2v-5.4c0-2.1.2-4,.3-5.4,0-.8,0-1.5.3-2.2v2.2c0,1.5,0,3.4-.2,5.4s0,3.9,0,5.4c0,.7,0,1.5,0,2.2Z"/>
    <path class="st7" d="M649.3,361.7c0,0-.5-3.9-.8-8.7s-.5-8.7-.4-8.7.5,3.9.8,8.7.5,8.7.4,8.7Z"/>
    <path class="st7" d="M632.4,343.9c.8,0,1.5-.1,2.3,0,1.4,0,3.4,0,5.5.1s4.1.2,5.5.2,1.5,0,2.3.2c-.8,0-1.5.1-2.3,0-1.4,0-3.4,0-5.5-.1s-4.1-.2-5.6-.2-1.5,0-2.3-.2h0Z"/>
    <path class="st7" d="M666.4,392.8v-6.9c0-2.1.2-4.6.4-7.4s.7-5.8,1.2-9,1.2-6.1,2-8.8,1.5-5.1,2.1-7.1,1.3-3.6,1.7-4.7l.5-1.2c0-.1,0-.3.2-.4,0,.2,0,.3,0,.5,0,.3-.3.8-.5,1.3-.4,1.1-1,2.7-1.6,4.7s-1.4,4.4-2.1,7.1-1.3,5.7-1.9,8.8-1,6.2-1.2,8.9-.4,5.2-.5,7.3,0,3.8,0,5v1.4c0,.2,0,.3-.2.5h0Z"/>
    <path class="st7" d="M668.2,369.3c-.4.6-.9,1.1-1.4,1.5-.9.9-2.2,2.1-3.6,3.3s-2.8,2.4-3.8,3.1c-.5.4-1.1.8-1.7,1.2.4-.5.9-1,1.5-1.4l3.7-3.2,3.7-3.2c.5-.5,1-.9,1.6-1.3Z"/>
    <path class="st7" d="M679.1,378c-.5-.6-1-1.3-1.5-2-.9-1.4-2.1-3.1-3.4-5s-2.5-3.6-3.5-4.9c-.5-.7-1-1.4-1.4-2.1.6.6,1.1,1.2,1.6,1.9,1,1.2,2.2,2.9,3.6,4.9s2.5,3.7,3.3,5c.5.7.9,1.4,1.2,2.2h.1Z"/>
    <path class="st7" d="M673.4,350.5c0,.1-3.5,2.5-8.1,5.4s-8.2,5.2-8.3,5.1,3.6-2.5,8.1-5.4,8.2-5.2,8.3-5.1Z"/>
    <path class="st7" d="M683.6,361.5c-1.9-1.6-3.7-3.3-5.5-5.1-1.8-1.7-3.6-3.5-5.2-5.4,1.9,1.6,3.7,3.3,5.5,5.1,1.8,1.7,3.6,3.5,5.2,5.4Z"/>
    <path class="st7" d="M731.1,350c-.2,0-.4-.1-.5-.2l-1.5-.8c-1.3-.7-3.1-1.7-5.4-2.8-2.7-1.3-5.5-2.4-8.4-3.2-3.5-1-7.3-1.3-10.9-.9-3.7.4-7.1,1.9-9.9,4.3-2.2,2-4,4.5-5.2,7.3-.8,1.8-1.6,3.7-2.2,5.7l-.5,1.6c0,.2,0,.4-.2.5,0-.2,0-.4,0-.6,0-.4.3-.9.5-1.6.6-2,1.3-3.9,2.1-5.8,1.2-2.8,3-5.3,5.2-7.4,2.9-2.4,6.4-4,10.1-4.4,3.7-.4,7.5-.1,11.1.9,2.9.9,5.7,2,8.4,3.4,2.3,1.1,4.1,2.2,5.4,2.9.6.3,1.1.6,1.4.8.2,0,.3.2.5.3h0Z"/>
    <path class="st7" d="M723.7,354s-4.1-2.5-9.1-5.9-8.9-6.1-8.8-6.2,4.1,2.5,9.1,5.9,8.9,6.1,8.8,6.2Z"/>
    <path class="st7" d="M719.8,341.5c-1,.4-2.1.6-3.2.6-1.1.2-2.2.2-3.2,0,1.1-.2,2.1-.3,3.2-.4,1.1-.2,2.1-.2,3.2-.2Z"/>
    <path class="st7" d="M701.6,338.3c-.8,1.8-1.8,3.6-3,5.1.3-.9.8-1.8,1.3-2.7.4-.9,1-1.7,1.7-2.5h0Z"/>
    <path class="st7" d="M705.2,356.4c-.7-.3-1.4-.6-2-1.1-1.2-.7-2.8-1.8-4.5-3s-3.2-2.4-4.3-3.2c-.6-.4-1.2-.9-1.7-1.4.7.3,1.3.7,1.9,1.2l4.3,3.1c1.7,1.2,3.2,2.3,4.4,3.1.6.4,1.3.8,1.8,1.3h0Z"/>
    <path class="st7" d="M716.5,411.3c0,0-.3-.1-.4-.2-.4-.2-.8-.5-1.1-.7-1.2-1.1-2.2-2.4-2.9-3.9-.5-.9-1-1.9-1.5-3l-1.6-3.5c-.6-1.3-1.3-2.5-2-3.8-.8-1.3-1.7-2.5-2.7-3.7-2-2.4-4.2-4.4-6.1-6.4-1.7-1.7-3.3-3.6-4.6-5.6-.9-1.3-1.7-2.8-2.3-4.3-.2-.5-.3-1-.4-1.3v-.5s.2.6.6,1.7c.6,1.5,1.4,2.9,2.4,4.2,1.4,1.9,3,3.8,4.7,5.5,1.9,2,4.1,4,6.1,6.4,1,1.2,1.9,2.4,2.7,3.7.7,1.2,1.4,2.5,2,3.8l1.6,3.5c.5,1.1,1,2.1,1.5,3,.7,1.5,1.6,2.8,2.8,3.9.9.8,1.5,1,1.4,1.1h-.2Z"/>
    <path class="st7" d="M701.1,406.5c0-.7,0-1.3.3-2,.2-1.2.6-2.9,1.1-4.7s1.1-3.5,1.5-4.6c.2-.6.5-1.3.8-1.8,0,.7-.3,1.3-.5,1.9-.4,1.2-.9,2.8-1.4,4.6s-.9,3.5-1.2,4.7c0,.7-.3,1.3-.6,1.9h0Z"/>
    <path class="st7" d="M715.9,392.2c-.7,0-1.4-.3-2.1-.5-1.3-.3-3-.8-5-1.2s-3.8-.8-5-1c-.7,0-1.4-.2-2.1-.5.7,0,1.4,0,2.1.2,1.3.2,3.1.5,5.1.9s3.7,1,5,1.4c.7.2,1.3.4,2,.7Z"/>
    <path class="st7" d="M690.2,396.3c0-.8,0-1.6.3-2.3.3-1.4.7-3.4,1.2-5.5s1.2-4,1.6-5.4c.2-.7.5-1.5.8-2.2,0,.8-.3,1.5-.6,2.3-.4,1.4-.9,3.3-1.5,5.4s-1,4-1.3,5.4c0,.8-.3,1.5-.6,2.3h0Z"/>
    <path class="st7" d="M709.1,379.8c-2.8,0-5.5-.3-8.2-.7-4.5-.5-8.2-1-8.2-1.1,2.8,0,5.5.3,8.3.7,4.5.5,8.2,1,8.2,1.1h0Z"/>
    <path class="st19" d="M706.4,424.6c0,.1-13,.2-29,.2s-29,0-29-.2,13-.2,29-.2,29,0,29,.2Z"/>
    <path class="st19" d="M697.3,441.3c0,.1-8.8.2-19.5.2s-19.6,0-19.6-.2,8.8-.2,19.6-.2,19.5,0,19.5.2Z"/>
    <path class="st19" d="M697.7,443.7c0,.1-8.8.2-19.5.2s-19.6-.1-19.6-.2,8.8-.2,19.6-.2,19.5,0,19.5.2Z"/>
    <path class="st19" d="M697.7,439.3c0,.1-9,.2-20.2.2s-20.2,0-20.2-.2,9-.2,20.2-.2,20.2,0,20.2.2Z"/>
  </g>
</svg>