<?xml version="1.0" encoding="UTF-8"?>
<svg id="Layer_1" xmlns="http://www.w3.org/2000/svg" version="1.1" viewBox="0 0 750 500">
  <!-- Generator: Adobe Illustrator 29.6.1, SVG Export Plug-In . SVG Version: 2.1.1 Build 9)  -->
  <defs>
    <style>
      .st0 {
        fill: #e0e0e0;
      }

      .st1 {
        fill: #ebebeb;
      }

      .st2 {
        fill: #a56959;
      }

      .st3 {
        fill: #263238;
      }

      .st4 {
        fill: #ffde59;
      }

      .st5 {
        fill: #fff;
      }

      .st6 {
        fill: #1abc9c;
      }

      .st7 {
        fill: #fafafa;
      }

      .st8 {
        opacity: .8;
      }

      .st9 {
        opacity: .2;
      }

      .st10 {
        opacity: .3;
      }

      .st11 {
        fill: #f5f5f5;
      }

      .st12 {
        fill: #455a64;
      }

      .st13 {
        fill: #7c4435;
      }
    </style>
  </defs>
  <g id="freepik--background-complete--inject-38">
    <rect class="st7" x="287.6" y="68.5" width="365.8" height="245"/>
    <rect class="st1" x="287.6" y="68.5" width="365.8" height="24.5"/>
    <path class="st7" d="M303.5,80.7c.1,1.7-1.1,3.1-2.7,3.2s-3.1-1.1-3.2-2.7,1.1-3.1,2.7-3.2c0,0,.2,0,.2,0,1.6,0,2.9,1.1,3,2.7,0,0,0,0,0,0Z"/>
    <path class="st7" d="M313,80.7c.1,1.7-1.1,3.1-2.7,3.2s-3.1-1.1-3.2-2.7,1.1-3.1,2.7-3.2c0,0,.2,0,.2,0,1.6,0,2.9,1.1,3,2.7,0,0,0,0,0,0Z"/>
    <path class="st7" d="M322.5,80.7c.1,1.7-1.1,3.1-2.7,3.2s-3.1-1.1-3.2-2.7,1.1-3.1,2.7-3.2c0,0,.2,0,.2,0,1.6,0,2.9,1.1,3,2.7,0,0,0,0,0,0Z"/>
  </g>
  <g id="freepik--Plant--inject-38">
    <path class="st6" d="M621.5,345.5c-19.1-13.4-23.5-38.1-22.7-60.4.1-3.7-.3-7.6,1.5-10.9s5.9-5.5,9.2-3.9c2.8,1.3,4,4.5,5.5,7.2,2.1,3.5,5.1,6.4,8.7,8.3,2.4,1.2,5.3,2,7.6.7,3.2-1.8,3.6-6.2,3.6-9.9,0-6.9,0-13.8-.1-20.7,0-3.7,0-7.5,1.1-11s3.7-6.8,7.2-7.8,7.9,1,8.6,4.7c.1,1.5.2,3.1,0,4.6.1,1.5.8,3.2,2.3,3.7s3-.6,4.1-1.7c3.8-3.7,6.4-8.6,8.8-13.3s4.8-9.7,8.2-13.8,8.3-7.3,13.5-7.6,11,3,12.3,8.2-1.7,10.5-5,14.7c-4.9,6.3-10.7,11.8-17.2,16.4-1.2.8-2.4,1.7-2.9,3.1-.8,2.5,1.5,4.9,4,5.7,2.8.9,5.8.6,8.6,1s6,1.6,7.1,4.3c1.5,3.8-1.7,7.7-4.8,10.3-6.2,5.2-13.3,9.3-20.9,12.1-2.7,1-5.6,1.9-7.8,3.8s-3.5,5.2-2.2,7.9,4.7,3.4,7.6,2.9,5.4-2.1,8.1-3.1c5.1-1.9,11.7-1.6,14.9,2.8,2.1,2.9,2.3,6.9,1.2,10.4-1.2,3.4-3.1,6.5-5.6,9.1-8.1,9.6-18.6,17.3-30.4,21.3s-22.7,5.2-34.4.9"/>
    <path class="st3" d="M621.2,362c1-10.3,3-20.5,6-30.5,3.7-12.1,8.1-24.1,13.2-35.7l3.9-9.2c1.3-3,2.6-6,4-8.8,2.8-5.4,5.8-10.7,9.2-15.9,3.2-4.9,6.3-9.4,9.4-13.7s5.9-8.1,8.7-11.5c4.4-5.4,9.2-10.5,14.4-15.2,1.8-1.6,3.3-2.9,4.3-3.7l1.1-.9.4-.3c-.1.1-.2.3-.4.4l-1.1,1c-1,.9-2.4,2.1-4.2,3.8-5.1,4.7-9.8,9.8-14.2,15.2-2.8,3.4-5.6,7.3-8.6,11.5s-6.2,8.8-9.3,13.7c-3.3,5.1-6.4,10.4-9.1,15.8-1.4,2.8-2.7,5.8-4,8.8l-3.9,9.2c-5.1,11.6-9.5,23.5-13.2,35.6-3,9.9-5.1,20-6.2,30.3"/>
    <path class="st3" d="M648.6,277.8c-.2-.5-.3-1-.4-1.6-.2-1-.4-2.5-.7-4.4-.5-3.7-1.1-8.8-1.7-14.4s-1.2-10.7-1.8-14.4c-.3-1.8-.5-3.3-.7-4.3-.1-.5-.2-1.1-.2-1.6.2.5.4,1,.5,1.6.3,1,.6,2.5.9,4.3.7,3.6,1.4,8.8,2,14.4s1.1,10.6,1.5,14.4c.2,1.7.3,3.2.5,4.4,0,.5.1,1.1,0,1.6Z"/>
    <path class="st3" d="M696.2,268.9c-.6.1-1.3.2-1.9.2-1.2.1-3,.3-5.2.5-4.4.5-10.3,1.3-16.9,2.6s-12.5,2.6-16.7,3.8c-2.1.5-3.8,1-5,1.4-.6.2-1.2.4-1.9.5.6-.3,1.2-.5,1.8-.7,1.2-.4,2.8-1,5-1.6,4.2-1.2,10.1-2.7,16.7-4,5.6-1.1,11.3-1.9,17-2.4,2.2-.2,4-.3,5.2-.3.6,0,1.3,0,1.9,0Z"/>
    <path class="st3" d="M627.9,330.6s-.1-.2-.3-.6-.5-1-.8-1.7c-.7-1.5-1.7-3.7-2.8-6.4-2.3-5.4-5.2-13.1-8.3-21.5s-6-16.1-8.2-21.6l-2.6-6.5-.7-1.8c0-.2-.2-.4-.2-.6.1.2.2.4.3.6.2.5.5,1,.8,1.7.7,1.5,1.7,3.7,2.8,6.4,2.3,5.5,5.2,13.1,8.3,21.5s6,16.1,8.2,21.6l2.6,6.5.7,1.8c0,.2.2.4.2.6Z"/>
    <path class="st3" d="M691.1,310.2c-.2.1-.4.2-.6.3l-1.8.6-6.8,2.2c-5.7,1.9-13.6,4.5-22.3,7.4s-16.6,5.5-22.3,7.2c-2.9.9-5.2,1.5-6.8,2l-1.9.5c-.2,0-.4.1-.7.1.2-.1.4-.2.6-.3l1.8-.6,6.8-2.2c5.7-1.9,13.6-4.5,22.3-7.4s16.6-5.5,22.3-7.3c2.9-.9,5.2-1.5,6.8-2l1.9-.5c.2,0,.4-.1.7-.1Z"/>
  </g>
  <g id="freepik--Sparkles--inject-38">
    <path class="st3" d="M202.4,184.4c0,.2-1.6.4-3.6.4s-3.6-.2-3.6-.4,1.6-.4,3.6-.4,3.6.2,3.6.4Z"/>
    <path class="st3" d="M206.1,174.7c.2,0,.4,1.6.4,3.6s-.2,3.6-.4,3.6-.4-1.6-.4-3.6.2-3.6.4-3.6Z"/>
    <path class="st3" d="M210.1,184.1c0-.2,1.6-.4,3.5-.4s3.6.2,3.6.4-1.6.4-3.6.4-3.5-.2-3.5-.4Z"/>
    <path class="st3" d="M206.4,193.8c-.2,0-.4-1.6-.4-3.6s.2-3.6.4-3.6.4,1.6.4,3.6-.2,3.6-.4,3.6Z"/>
    <path class="st3" d="M212.1,189.6c-.2.1-.9-.4-1.6-1.3s-1.1-1.6-1-1.8.9.4,1.6,1.3,1.2,1.6,1,1.8Z"/>
    <path class="st3" d="M211.8,178.7c.2.1-.3.9-1,1.6s-1.4,1.2-1.6,1,.3-.9,1-1.6,1.4-1.1,1.6-1Z"/>
    <path class="st3" d="M203.6,181.5c-.1.2-.8-.2-1.5-.7s-1.1-1.2-1-1.3.8.2,1.5.7,1.1,1.2,1,1.3Z"/>
    <path class="st3" d="M203.3,186.3c.2.1-.2.9-.9,1.6s-1.3,1.2-1.5,1,.2-.9.9-1.6,1.3-1.1,1.5-1Z"/>
    <path class="st3" d="M60.9,290.9c-.6.2-1.3.3-2,.2-.7,0-1.4,0-2-.2.6-.2,1.3-.3,2-.2.7,0,1.4,0,2,.2Z"/>
    <path class="st3" d="M63,285.4c.3,1.3.3,2.7,0,4.1-.3-1.3-.3-2.7,0-4.1Z"/>
    <path class="st3" d="M65.3,290.7c.6-.2,1.3-.3,2-.2.7,0,1.4,0,2,.2-.6.2-1.3.3-2,.2-.7,0-1.4,0-2-.2Z"/>
    <path class="st3" d="M63.2,296.2c-.2-.6-.3-1.3-.2-2,0-.7,0-1.4.2-2,.2.7.3,1.4.2,2,0,.7,0,1.4-.2,2Z"/>
    <path class="st3" d="M66.4,293.9c0,0-.5-.2-.9-.7s-.6-.9-.5-1,.5.2.9.7.6.9.5,1Z"/>
    <path class="st3" d="M66.2,287.6c0,0-.2.5-.6.9s-.8.7-.9.6.2-.5.6-.9.8-.7.9-.6Z"/>
    <path class="st3" d="M61.6,289.2c0,.1-.5,0-.8-.4s-.7-.7-.6-.8.5.1.8.4.6.7.6.8Z"/>
    <path class="st3" d="M61.4,292c0,0-.1.5-.5.9s-.7.7-.8.6.1-.5.5-.9.7-.7.8-.6Z"/>
    <path class="st3" d="M211.7,273l.2.6c.4,1,1.2,1.7,2.2,2.1l.6.2-.6.2c-1,.4-1.8,1.2-2.2,2.2l-.2.4-.2-.5c-.4-.9-1.2-1.6-2.2-2l-.5-.2.7-.3c.9-.4,1.5-1.1,1.9-2l.3-.7Z"/>
    <path class="st3" d="M104.1,201.7l.2.6c.4,1,1.2,1.7,2.2,2.1l.6.2-.6.2c-1,.4-1.8,1.2-2.2,2.2l-.2.4-.2-.5c-.4-.9-1.2-1.7-2.2-2l-.5-.2.7-.3c.9-.4,1.5-1.1,1.9-2l.3-.7Z"/>
  </g>
  <g id="freepik--Device--inject-38">
    <rect class="st3" x="222.8" y="115.9" width="402" height="265.9" rx="14.6" ry="14.6"/>
    <path class="st3" d="M206,362.1h435.5v5.5c0,9.8-8,17.8-17.8,17.8H223.8c-9.8,0-17.8-8-17.8-17.8v-5.5h0Z"/>
    <rect class="st12" x="233.6" y="126.5" width="379.3" height="224.5"/>
    <polygon class="st12" points="384.2 362.1 389.6 370.7 465.6 370.7 470.6 362.1 384.2 362.1"/>
    <rect class="st1" x="241.4" y="134.1" width="364.5" height="216.2" rx="3.3" ry="3.3"/>
    <rect class="st7" x="241.4" y="149.9" width="364.5" height="200.4"/>
    <path class="st3" d="M271.3,142.4c0,1.6-1.3,2.9-2.9,2.9s-2.9-1.3-2.9-2.9,1.3-2.9,2.9-2.9,2.9,1.3,2.9,2.9h0Z"/>
    <path class="st3" d="M253.6,142.4c0,1.6-1.3,2.9-2.9,2.9-1.6,0-2.9-1.3-2.9-2.9,0-1.6,1.3-2.9,2.9-2.9,1.6,0,2.9,1.3,2.9,2.9,0,0,0,0,0,0Z"/>
    <path class="st3" d="M262.1,142.4c0,1.6-1.3,2.9-2.9,2.9-1.6,0-2.9-1.3-2.9-2.9,0-1.6,1.3-2.9,2.9-2.9,1.6,0,2.9,1.3,2.9,2.9,0,0,0,0,0,0Z"/>
    <path class="st12" d="M621.4,362.1c0,.1-89.2.3-199.3.3s-199.3-.1-199.3-.3,89.2-.3,199.3-.3,199.3.2,199.3.3Z"/>
    <rect class="st0" x="266.6" y="250.9" width="83.2" height="5.6"/>
    <rect class="st0" x="374.1" y="173.6" width="83.2" height="5.6"/>
    <path class="st0" d="M581,194.3c0,.1-46.3.3-103.4.3s-103.5-.1-103.5-.3,46.3-.3,103.5-.3,103.4.1,103.4.3Z"/>
    <path class="st0" d="M581,206.5c0,.1-46.3.3-103.4.3s-103.5-.1-103.5-.3,46.3-.3,103.5-.3,103.4.1,103.4.3Z"/>
    <path class="st0" d="M581,218.6c0,.1-46.3.3-103.4.3s-103.5-.1-103.5-.3,46.3-.3,103.5-.3,103.4.1,103.4.3Z"/>
    <path class="st0" d="M581,230.8c0,.1-46.3.3-103.4.3s-103.5-.1-103.5-.3,46.3-.3,103.5-.3,103.4.1,103.4.3Z"/>
    <path class="st0" d="M581,242.9c0,.1-46.3.3-103.4.3s-103.5-.1-103.5-.3,46.3-.3,103.5-.3,103.4.1,103.4.3Z"/>
    <path class="st0" d="M454.8,255.1c0,.1-18.1.3-40.4.3s-40.4-.1-40.4-.3,18.1-.3,40.4-.3,40.4.1,40.4.3Z"/>
    <path class="st0" d="M579.5,278.6c0,.1-30.5.3-68,.3s-68-.1-68-.3,30.4-.3,68-.3,68,.1,68,.3Z"/>
    <path class="st0" d="M579.5,291.5c0,.1-30.5.3-68,.3s-68-.1-68-.3,30.4-.3,68-.3,68,.1,68,.3Z"/>
    <path class="st0" d="M579.5,304.4c0,.1-30.5.3-68,.3s-68-.1-68-.3,30.4-.3,68-.3,68,.1,68,.3Z"/>
    <path class="st0" d="M579.5,317.3c0,.1-30.5.3-68,.3s-68-.1-68-.3,30.4-.3,68-.3,68,.1,68,.3Z"/>
    <path class="st0" d="M350,277.4c0,.1-18.1.3-40.5.3s-40.5-.1-40.5-.3,18.1-.3,40.5-.3,40.5.1,40.5.3Z"/>
    <path class="st0" d="M350,287.5c0,.1-18.1.3-40.5.3s-40.5-.1-40.5-.3,18.1-.3,40.5-.3,40.5.1,40.5.3Z"/>
    <path class="st0" d="M350,297.7c0,.1-18.1.3-40.5.3s-40.5-.1-40.5-.3,18.1-.3,40.5-.3,40.5.1,40.5.3Z"/>
    <path class="st0" d="M350,307.8c0,.1-18.1.3-40.5.3s-40.5-.1-40.5-.3,18.1-.3,40.5-.3,40.5.1,40.5.3Z"/>
    <path class="st0" d="M350,317.9c0,.1-18.1.3-40.5.3s-40.5-.1-40.5-.3,18.1-.3,40.5-.3,40.5.1,40.5.3Z"/>
    <rect class="st11" x="374" y="272.5" width="59" height="57.1"/>
    <polygon class="st1" points="378.6 324.7 394.9 295.3 408.3 314.1 416.4 304.1 428.5 324.7 378.6 324.7"/>
    <path class="st1" d="M414,289.6c0,2.3-1.9,4.2-4.2,4.2s-4.2-1.9-4.2-4.2,1.9-4.2,4.2-4.2c2.3,0,4.2,1.9,4.2,4.2,0,0,0,0,0,0Z"/>
    <path class="st1" d="M428.5,324.9c0,0,0-.2,0-.2v-3.2c0-2.3,0-5.5,0-9.7,0-8.3,0-20.2-.1-34.5l.2.2h-49.9c0,0,.5-.5.3-.3h0v47.6l-.2-.2h36c0,.1,10.2.2,10.2.2h3.6-13.7c0,0-36.2.2-36.2.2h-.2v-47.7h0c-.3.2.3-.4.3-.3h50.1v.2c0,14.3-.1,26.2-.1,34.6,0,4.1,0,7.4,0,9.6,0,1.1,0,1.9,0,2.5v.6c0,0-.1.2-.2.2Z"/>
    <rect class="st11" x="268.2" y="164.1" width="80" height="77.4"/>
    <polygon class="st0" points="274.4 234.9 296.6 195.1 314.7 220.5 325.7 207 342 234.9 274.4 234.9"/>
    <path class="st0" d="M322.4,187.3c0,3.2-2.6,5.8-5.8,5.8s-5.8-2.6-5.8-5.8,2.6-5.8,5.8-5.8,5.8,2.6,5.8,5.8h0Z"/>
    <path class="st0" d="M342,235.1v-4.7c0-3.1,0-7.5,0-13.1,0-11.3-.1-27.4-.2-46.8l.3.3h-67.6l.4-.4v64.6l-.3-.3,48.9.2h13.8c0,0,3.7,0,3.7,0h1.3c0,0-.2,0-.3,0h-18.2c0,0-49.1.3-49.1.3h-.3v-64.7l.4-.4h67.6c0,0,.3,0,.3,0v.3c0,19.4-.1,35.6-.2,47,0,5.6,0,10,0,13.1v4.3c0,.1-.2.2-.3.3Z"/>
  </g>
  <g id="freepik--Padlock--inject-38">
    <path class="st3" d="M463.8,221.8h-8c0-.1.3-21.9.3-21.9,0-16.1-13.1-29.1-29.2-29.1s-29.1,13.1-29.1,29.2l-.3,21.8h-8c0-.1.3-21.9.3-21.9,0-20.5,16.7-37.1,37.2-37.1s37.1,16.7,37.1,37.2h0l-.3,21.8Z"/>
    <rect class="st4" x="372" y="211.2" width="110.9" height="108.3" rx="18.3" ry="18.3"/>
    <g class="st10">
      <path d="M438.5,259.6c0-6.1-4.9-11.1-11-11.1-6.1,0-11.1,4.9-11.1,11,0,3.8,2,7.4,5.2,9.4l-2.8,13.1h18.1s-2-8.2-3.3-13.3c3-2,4.9-5.5,4.9-9.1Z"/>
    </g>
    <g class="st9">
      <path class="st5" d="M379.1,286.7c-.7,0-1-12.6-.7-28.2s1.2-28.2,1.9-28.2,1,12.6.7,28.2c-.3,15.6-1.2,28.2-1.9,28.2Z"/>
    </g>
    <g class="st9">
      <path class="st5" d="M379.2,299.2c-.7,0-1.3-1.2-1.3-2.8s.5-2.8,1.3-2.8,1.3,1.2,1.3,2.8-.6,2.8-1.3,2.8Z"/>
    </g>
    <g class="st9">
      <path class="st5" d="M413.9,283.9c-.6-.2.8-6,3.1-13.6l.3,1.3c-1.1-1.1-2.2-2.2-3.3-3.4-1.8-2-2.9-4.6-3-7.4-.1-2.2.4-4.4,1.5-6.2.7-1.3,1.6-2.3,2.8-3.2.8-.6,1.4-.7,1.5-.6.3.3-1.4,1.6-2.6,4.6-1.5,3.7-.8,8,1.8,11l3.2,3.4.5.6-.2.7c-2.6,7.6-5,13-5.5,12.9Z"/>
    </g>
    <g class="st9">
      <path class="st5" d="M459.7,218.7c0,.4-4.4.7-11.6.8s-17,.2-28,.2c-5.5,0-10.7-.1-15.4-.2s-9-.4-12.4,0c-2.7.2-5.3,1.1-7.6,2.6-1.6,1.1-2.2,2-2.4,1.9s.2-1.2,1.8-2.7c2.3-2,5-3.2,8-3.6,2-.3,4-.5,6-.5h6.7c4.7,0,9.9,0,15.4,0,10.9,0,20.8.3,28,.6s11.5.6,11.5,1Z"/>
    </g>
  </g>
  <g id="freepik--Character--inject-38">
    <path class="st12" d="M85.6,450.2l-.7,2.7s-9.6,15.7-8.5,17.2c1.6,2,4.3,2.8,6.7,2,3.3-.8,17.5-14.3,17.5-14.3l.8-2.1-15.8-5.4Z"/>
    <g class="st10">
      <path d="M77.3,466.4s4.2-1.8,6.6,3.5c0,0,1.8-.7,6.8-4.9s9.8-8.3,9.8-8.3c0,0,.5-.4.4,0s-.4,1.1-.4,1.1l-9.7,8.5s-5.8,5-7.2,5.4-2.9.9-4.8,0c-1.2-.4-2.2-1.3-2.8-2.4,0-.2,1.2-3.1,1.2-3.1Z"/>
    </g>
    <path class="st3" d="M84.5,471.7c0,0-.2-.5-.5-1.3-.9-2.1-2.8-3.7-5-4.2-.8-.2-1.4-.2-1.4-.3.5,0,1,0,1.4.1,1.2.2,2.3.7,3.2,1.5.9.8,1.6,1.7,2,2.9.2.4.3.9.3,1.4Z"/>
    <path class="st3" d="M101.4,456.1c0,0-.1.2-.2.2l-.7.6-2.5,2.2-8.4,7.1c-1.5,1.4-3.1,2.6-4.8,3.7-1.4.9-3.1,1.3-4.8,1.1-1.1-.1-2.2-.7-3-1.5-.3-.3-.5-.6-.7-1,.2.4.5.7.7,1,.8.7,1.8,1.2,2.9,1.3,1.6.1,3.2-.3,4.6-1.2,1.7-1.1,3.3-2.3,4.8-3.6,3.2-2.7,6.2-5.1,8.4-7l2.6-2.1.7-.6c0,0,.2-.2.3-.2Z"/>
    <path class="st3" d="M86.1,462.7c-.6-.3-1.2-.7-1.8-1.1-.6-.3-1.2-.7-1.7-1.2.7.2,1.3.5,1.9.9.6.3,1.2.8,1.6,1.4Z"/>
    <path class="st3" d="M88.2,460.5c-.8-.2-1.5-.5-2.2-.9-.7-.3-1.5-.6-2.1-1,.8.1,1.6.3,2.3.7.7.3,1.4.7,2.1,1.2Z"/>
    <path class="st3" d="M90.1,458.5c0,0-.9-.7-2.2-1.3s-2.4-.9-2.4-1c.9,0,1.7.2,2.5.7.8.4,1.5.9,2.1,1.6Z"/>
    <path class="st3" d="M91.2,456.2c0,0-.9-.5-2-1s-2.1-.7-2.1-.8c.8,0,1.5.2,2.2.5.7.3,1.4.7,1.9,1.3Z"/>
    <path class="st3" d="M90.7,454c-.4-.2-.9-.5-1.2-.8-.4-.3-.8-.7-1.1-1.1-.2-.2-.4-.5-.6-.8-.1-.1-.2-.3-.2-.5,0-.2,0-.4,0-.6.3-.3.7-.3,1.1-.1.3.1.6.3.8.5.4.4.6.9.7,1.4,0,.3.1.7,0,1,0,.2,0,.4,0,.4s0-.6-.2-1.4c-.1-.5-.4-.9-.7-1.3-.2-.2-.4-.4-.7-.5-.2-.1-.5-.1-.7,0-.2.2,0,.5.2.7s.3.5.5.7c.3.4.6.8,1,1.1.6.7,1.1,1,1.1,1Z"/>
    <path class="st3" d="M90.5,453.8s0-.1,0-.4c.1-.3.3-.6.6-.9.6-.7,1.3-1.1,2.2-1.4.2,0,.4,0,.6,0,.2,0,.4.2.5.5,0,.4-.1.7-.4,1-.2.2-.5.5-.7.6-.5.3-1,.5-1.5.6-.4,0-.7,0-1.1,0-.2,0-.4-.1-.4-.1.5,0,1,0,1.4-.1.5-.1,1-.3,1.4-.6.2-.2.5-.4.7-.6.2-.2.3-.5.3-.8,0-.2-.4-.3-.7-.2-.3,0-.6.2-.8.3-.5.2-.9.5-1.2.9-.3.4-.6.8-.8,1.2Z"/>
    <path class="st3" d="M98.6,454.9c-.5-.1-.9,0-1.4,0-1,.4-1.9,1.2-2.4,2.2-.5,1-.8,2.1-.6,3.2,0,.9.3,1.4.3,1.4-.3-.4-.4-.9-.5-1.4-.2-1.2,0-2.4.6-3.4.6-1.1,1.5-1.9,2.6-2.3.5-.2,1-.2,1.4.1Z"/>
    <path class="st3" d="M92.9,461.2c-.5.6-1,1.1-1.6,1.6-.5.5-1.2,1-1.8,1.4.5-.6,1-1.1,1.6-1.6.5-.5,1.2-1,1.8-1.4Z"/>
    <path class="st3" d="M94.8,460.2c0,0,.2.2.3.5s0,.5,0,.5-.2-.2-.3-.5,0-.5,0-.5Z"/>
    <path class="st3" d="M95.1,458.2c0,0,0,.3,0,.5s-.2.5-.3.5,0-.2,0-.5.2-.5.3-.5Z"/>
    <path class="st3" d="M96.1,456.5c0,0,0,.3-.2.5s-.3.3-.4.3,0-.3.2-.5.4-.3.4-.3Z"/>
    <path class="st3" d="M97.8,455.5c0,0-.2.2-.4.4s-.5.1-.5,0,.1-.2.4-.4.5-.1.5,0Z"/>
    <path class="st3" d="M99.8,455.2c0,0-.2.2-.5.2s-.5,0-.5-.1.2-.2.5-.2.5,0,.5.1Z"/>
    <path class="st2" d="M218.4,202c-.6.8-1.5,8.7-1.5,8.7,0,0-14.6,25-16.7,25.4s-10.9-17.4-10.9-17.4l-9.1,8.4s4.8,22.3,19.6,26.2c7,1.8,19.3-20.5,27.5-39,.1-.3,4.4-10.4,4.4-10.4l-13.2-1.9Z"/>
    <path class="st2" d="M231.5,204.8s0,.1,0,.2c-.4,1.2-2.6,6.1-3.4,6.1s-2.3-1.2-2.1-1.9,3.1-6.1,3.1-6.1c0,0,.5-.8,2.1-.4,1,.3.4,2.1.4,2.1Z"/>
    <path class="st2" d="M229.3,201.6v.3c-.4,1.2-2.6,6.1-3.4,6.1s-2.3-1.2-2.1-1.9,3-6.1,3-6.1c0,0,.5-.8,2.1-.4,1,.3.4,2.1.4,2.1Z"/>
    <path class="st2" d="M226.8,199.5v.2c-.4,1.2-2.6,6.1-3.4,6.1s-2.3-1.2-2.1-1.9,3-6.1,3-6.1c0,0,.5-.8,2.1-.4,1,.3.4,2.1.4,2.1Z"/>
    <path class="st2" d="M224.2,197.4c0,0,0,.2,0,.2-.4,1.2-2.6,6.1-3.4,6.1s-2.3-1.2-2.1-1.9,3-6.1,3-6.1c0,0,.5-.8,2.1-.4,1,.3.4,2.1.4,2.1Z"/>
    <path class="st13" d="M226.6,207.7c.5-.7,1-1.5,1.3-2.3.4-.8.8-1.6,1-2.4-.5.7-1,1.5-1.3,2.3-.4.8-.8,1.6-1,2.4Z"/>
    <path class="st13" d="M223.6,206.4c.7-1.1,1.3-2.2,1.8-3.3.6-1.1,1.1-2.3,1.5-3.5-.7,1.1-1.3,2.2-1.8,3.3-.6,1.1-1.1,2.3-1.5,3.5Z"/>
    <g class="st8">
      <path class="st13" d="M220.8,204.9c.7-1.1,1.3-2.2,1.8-3.3.6-1.1,1.1-2.3,1.5-3.5-.7,1.1-1.3,2.2-1.8,3.3-.6,1.1-1.1,2.3-1.5,3.5Z"/>
    </g>
    <path class="st2" d="M218.4,211.8l-1-4.4c-.4-1.9-.1-3.9.9-5.6l.8-1.3,9.6,4.8s-2.4,3.1-4.8,1.3l1.8,3.8-7.2,1.4Z"/>
    <path class="st13" d="M224.8,210.8c0,0,0-.5,0-1.4-.2-1.2-.8-2.2-1.7-3l-.9-.7,1.1.4,2.5.8h0c1.1.2,2.2-.3,2.9-1.2,0,0,0-.1.1-.2v.3c-2.6-1.2-5.1-2.4-6.9-3.4-1-.5-1.9-1-2.7-1.7,1,.4,2,.8,2.9,1.4,1.8.9,4.3,2,7,3.2h.2c0,.1,0,.3,0,.3,0,.1,0,.2-.2.3-.4.6-.9,1-1.6,1.2-.6.2-1.2.3-1.8.2h0l-2.5-.9.2-.4c1,.8,1.6,2,1.7,3.3,0,.5,0,.9-.1,1.4Z"/>
    <path class="st13" d="M227.3,206.5c.1,0,0,.5,0,1.2,0,.4.3.7.7.8.5,0,.9-.3,1.2-.7.6-1,1.3-1.9,1.7-2.6s.6-1.1.7-1.1,0,.5-.3,1.3c-.5.9-1,1.9-1.6,2.7-.3.6-1,.9-1.6.9-.6-.1-1-.6-1-1.2,0-.3,0-.7.1-1,0-.2.1-.3.2-.3Z"/>
    <path class="st12" d="M185.8,270.5s-8.1-20.1-8.1-20.4l2.1-7.5.9-4.3,2.8,3.2,13.5-14.1c.2.3-6.1-8.9-12.5-17.9-4.5-6.3-9.3-7.7-12.2-7.9-1.2-.4-2.4-.6-3.6-.7l-23.2-.2c-5.1,0-9.9,1.8-13.8,5.1-1.1.9-9.9,12.7-16,24.4l18.6,13.4,3.1-5.4h0c.3,1.9,1.4,7.3,1.7,9.1,1.1,5.6,1.5,12.4-1.3,17.1-2.1,5.2-3.9,10.5-5.3,16h57.2s-1.8-5-3.8-9.8Z"/>
    <path class="st2" d="M139.8,262.1l-2-1.6v-.2h0c0,.1-12.9-10.3-12.9-10.3l5.6-9.1-13.4-9.8c0,.6-12.4,19.2-10.7,22.8,2.4,5.1,18.6,15.4,25.3,19.5-1.8.2-3.6.6-5.4,1.1-1.7.5,3.8,2,5.2,2.3.5.1,1.6-.7,2.7-1.8l.3.2.4-.8c1.2-1.3,2.4-2.6,3.4-4,.3-.4.3-2.4.2-4.4l1.6-3.7Z"/>
    <path class="st12" d="M211.4,455.6v-1.9c0,0-19.2.5-19.2.5l.2,6.2h1.2c5.3.1,26.8.3,30.3-.8,3.9-1.2-12.4-4.1-12.4-4.1Z"/>
    <g class="st10">
      <path d="M199.3,460.2c-.3-1.5-1.3-2.9-2.6-3.7-1.3-.9-2.9-1.3-4.5-1.2v5c.1,0,7.1-.1,7.1-.1Z"/>
    </g>
    <g class="st10">
      <path d="M219.4,457.3s5.7,1.4,5,2.3-22.4,1.4-32.1.9v-.4l25.4-.5s.5-2.3,1.6-2.3Z"/>
    </g>
    <path class="st3" d="M192.1,460.1h4.8c2.9,0,7,0,11.5-.1s8.5-.3,11.4-.5l3.5-.2h.9c0,0,.3,0,.3,0h-1.3l-3.5.2c-2.9.1-7,.3-11.4.4s-8.5.1-11.5.2h-4.7Z"/>
    <path class="st3" d="M217.8,459.9c.1-.5.3-1.1.6-1.6.3-.5.7-.9,1.1-1.3-.6.2-1,.6-1.3,1.2-.4.5-.5,1.1-.4,1.7Z"/>
    <path class="st3" d="M212.1,457.4c0,0,.3-.3.6-.7s.4-.8.4-.8-.3.3-.6.7-.4.8-.4.8Z"/>
    <path class="st3" d="M210.5,456.7c0,0,.3-.1.7-.4s.6-.5.5-.6-.3.1-.7.4-.5.5-.5.6Z"/>
    <path class="st3" d="M209.5,455c.3.1.7.1,1,0,.3,0,.7,0,1-.1-.3-.1-.7-.1-1,0-.3,0-.7,0-1,.1Z"/>
    <path class="st3" d="M209.1,453.9c.7.3,1.5.4,2.3.1-.4,0-.8,0-1.1,0-.4,0-.8,0-1.1,0Z"/>
    <path class="st3" d="M212.7,455.8c.4,0,.8,0,1.2,0,.4,0,.9-.2,1.3-.3.3,0,.5-.2.7-.3.1,0,.2-.2.3-.4,0-.2,0-.4-.2-.5-1-.4-2.1-.1-2.8.7-.2.2-.3.5-.4.8v.3c.1-.4.3-.7.5-1,.3-.3.6-.5,1-.7.5-.2,1-.1,1.5,0,.2.1.1.4,0,.5-.2.1-.4.2-.7.3-.4.1-.8.3-1.2.3-.7.1-1.2.1-1.2.2Z"/>
    <path class="st3" d="M213,455.9c.1-.2.2-.5.1-.8,0-.3-.2-.6-.4-.8-.2-.3-.6-.5-1-.5-.2,0-.4.3-.4.5,0,0,0,0,0,0,0,.2.1.4.2.5.2.2.4.5.6.7.2.2.4.4.7.4,0,0-.2-.2-.6-.5-.2-.2-.4-.4-.5-.7-.2-.2-.3-.7,0-.7s.6.2.8.5c.2.2.3.5.4.7,0,.3,0,.5,0,.8Z"/>
    <path class="st3" d="M192.3,455.2s.5,0,1.4,0c1.1,0,2.2.5,3.1,1.1.9.6,1.6,1.5,2,2.5.3.8.4,1.3.4,1.3s0-.1,0-.4c0-.3-.1-.7-.2-1-.4-1.1-1.1-2-2-2.6-1-.7-2.1-1-3.2-1.1-.3,0-.7,0-1.1,0-.1,0-.3.1-.4.2Z"/>
    <path class="st3" d="M201.6,458.4c1.9.3,3.7.2,5.6-.1,0,0-1.2,0-2.8,0s-2.8,0-2.8,0Z"/>
    <path class="st3" d="M197.9,458.5s.1.2.2.5.2.5.3.5,0-.3,0-.6-.4-.5-.4-.4Z"/>
    <path class="st3" d="M196.4,456.9s0,.2.3.4.4.3.4.2,0-.2-.3-.4-.4-.3-.4-.2Z"/>
    <path class="st3" d="M194.4,456.2c0,0,.3,0,.6.1s.5.2.5.2-.1-.3-.5-.4-.6,0-.6,0Z"/>
    <path class="st3" d="M193,455.9s0,.1.2.2.3,0,.3,0-.1-.1-.3-.2-.3,0-.3,0Z"/>
    <path class="st3" d="M155.3,153.6c-2.3-1.9-5.6-2.2-8.1-.6-1.2.8-2.2,2-3.5,2.6-2.2,1-4.8.2-7.2.6-3.6.7-6.3,3.9-6.2,7.6.1,1.9.9,4,0,5.7-.8,1.5-2.7,2-4,3.1-2.3,2-2.6,5.4-.8,7.7.8.8,1.5,1.6,2.2,2.4.9,1.5.8,3.4,1,5.1s1.2,3.7,3,3.8c1.4,0,2.7-1.1,4.1-1,2,.2,2.8,2.5,3.9,4.1,1.5,2.1,4,3.1,6.5,2.8,1.8-.2,3.6-1.2,5.3-.7,2.2.6,3.5,3.1,5.8,3.4,1.7.2,3.2-.9,4.5-2s2.5-2.4,4.2-2.8c2-.4,3.9.9,5.9,1.1,2.7.3,5.3-1,6.6-3.3,1.1-2,1.1-4.5,2.1-6.5.8-1.3,1.7-2.5,2.7-3.7,1-1.2,1.4-2.8,1-4.3-.4-1-1.2-1.8-1.7-2.8-.6-1.5-.2-3.2,0-4.9s-.2-3.6-1.7-4.3c-.7-.2-1.3-.4-1.9-.6-1.2-.7-1.1-2.4-1.2-3.8,0-2-1.1-3.9-2.8-5.1-1.8-1-4.3-.5-5.2,1.3"/>
    <path class="st4" d="M144.1,172c-3.5-6.3-1.1-14.2,5.2-17.6.6-.3,1.2-.6,1.8-.8,2.5-.8,5.2-1.1,7.9-.9,2.3,0,4.5.4,6.6,1.4,2.1.9,3.6,2.8,4.1,5.1"/>
    <path class="st2" d="M156.6,212.5h0c5.1.4,9.5-3.4,9.9-8.4,0-.1,0-.2,0-.4.2-5,.4-10.1.4-10.1,0,0,7.6-.7,8.1-8.2s.3-24.8.3-24.8h0c-8.5-4.3-18.6-3.6-26.4,1.7l-1.2.8.4,40.3c0,4.8,3.7,8.7,8.5,9.1Z"/>
    <path class="st3" d="M171.7,173.8c-.4-.4-.4-1.1,0-1.5.4-.4,1.1-.4,1.5,0,.4.4.4,1.1,0,1.5,0,0,0,0,0,0-.4.4-1.1.4-1.5,0Z"/>
    <path class="st3" d="M174.6,172.5c-.1.1-.8-.5-1.9-.6s-1.8.4-1.9.3,0-.3.4-.5c.9-.6,2.2-.5,3,.2.3.3.4.5.4.6Z"/>
    <path class="st3" d="M161.9,172.4c.5.3.7,1,.4,1.5s-1,.7-1.5.4c0,0,0,0-.1,0-.5-.3-.7-1-.4-1.5s1-.7,1.5-.4c0,0,0,0,.1,0Z"/>
    <path class="st3" d="M163.3,172.8c-.5-.5-1.2-.7-1.9-.6-1,0-1.8.4-1.9.3s0-.3.4-.5c.5-.3,1-.4,1.5-.4.5,0,1.1.3,1.5.6.3.3.4.5.3.6Z"/>
    <path class="st3" d="M167,180.8c.5-.2,1.1-.3,1.7-.2.3,0,.5,0,.5-.2,0-.3,0-.5-.1-.8-.2-.7-.4-1.4-.7-2.1-.7-1.8-1.1-3.7-1.4-5.6.2,0,1,2.4,2,5.4l.6,2.2c.2.4.2.8,0,1.1,0,.2-.3.4-.5.4-.2,0-.3,0-.5,0-.6,0-1.1,0-1.7-.1Z"/>
    <path class="st13" d="M166.8,193.5c-3.5-.1-6.8-1.3-9.6-3.4,0,0,2,5.5,9.5,5.3v-1.9Z"/>
    <path class="st3" d="M154.5,158c.4,3.2,2.8,5.7,6,6.2,1.8.2,3.8-.3,5.5.5,1.1.7,2.1,1.7,2.8,2.8.7,1.1,2,1.9,3.3,2,.6,0,1.3-.2,1.9-.4.6-.2,1.3-.1,1.9.2,1-2.2,1.3-4.6,1.1-7-.3-2.4-1.9-4.5-4.1-5.4-1.5-.4-3.1-.2-4.6-.4-1.2-.3-2.5-.7-3.6-1.3-1.9-1-4-1.5-6.2-1.3-2.1.3-4.2,2.1-4.1,4.2"/>
    <path class="st3" d="M148.2,178.5c2.7,2.2,6-3.5,7.4-7,1.3-3.6,2-7.5,2.1-11.4.2-1.3,0-2.5-.7-3.6-.8-1.1-1.1.2-2-.8-1.7-1.9-4.8-.9-6.3-.2-2.5,1.1-4.1,3.9-4.6,6.8-.3,2.9-.2,5.8.3,8.7.2,1.3.4,2.6.6,4,0,.9.3,1.8.8,2.7.4.8,1.4,1.2,2.3.9"/>
    <path class="st2" d="M148.1,172.4c0-.6-.5-1.1-1.1-1.1-1.4,0-3.7.5-3.9,4.4-.3,5.5,5,4.1,5,4s0-5.1,0-7.2Z"/>
    <path class="st13" d="M146.9,177.4s-.1,0-.3.1c-.2,0-.5,0-.7,0-.7-.5-1.1-1.3-1-2.2,0-.5.1-.9.3-1.4.1-.3.4-.6.8-.7.2,0,.5,0,.6.3,0,.2,0,.3,0,.3s.1,0,0-.3c0-.1,0-.3-.2-.4-.1-.1-.3-.2-.5-.2-.5,0-.9.4-1.1.8-.3.5-.4,1-.4,1.5-.1,1,.4,2,1.3,2.5.3.1.6,0,.9,0,.2-.1.2-.3.2-.3Z"/>
    <path class="st13" d="M164.4,182.1c-.4.7-.2,1.6.5,2,.7.4,1.5.2,2-.4.5-.7.3-1.6-.3-2.1-.7-.5-1.6-.3-2.1.3"/>
    <path class="st3" d="M167.8,183.2c-.8.3-1.6.3-2.3,0-1.3-.4-2-1.3-1.9-1.4s.9.5,2,.9,2.2.4,2.2.6Z"/>
    <path class="st4" d="M153.7,153.7c-2.1-.3-3.5-2.3-3.9-4.3-.2-2.1,0-4.1.7-6.1,3.5,2.4,4.7,7,2.9,10.8"/>
    <path class="st4" d="M153.7,153.4c-.4-1.6.3-3.2,1.7-4,1.4-.7,3-1,4.5-.8.1,0,.3,0,.4.1.1.1.2.3.2.5.1,1.6-.7,3-2.1,3.7-1.4.6-2.9,1-4.4,1-.2,0-.5,0-.7,0-.2,0-.3-.4-.3-.6,0,0,0,0,0,0"/>
    <path class="st3" d="M181,163.3s0-.1-.1-.3c-.2-.2-.4-.4-.7-.4-.4-.1-.9.1-1,.5-.1.5.1,1.1.6,1.3.6.2,1.3,0,1.7-.6.4-.7.5-1.5.1-2.2-.8-1.7-2.6-2.7-4.5-2.2h-.3c0,0-1.4.5-1.4.5l1.1-.9c.7-.6.9-1.5.7-2.4-.3-.8-.9-1.4-1.7-1.7-1.4-.5-3-.2-4.2.6-.5.3-1,.7-1.5,1-.4.2-.9.4-1.3.4-.8,0-1.1-.4-1.1-.4.3.2.7.3,1.1.2.4,0,.8-.2,1.2-.4.4-.3.9-.7,1.4-1.1.6-.4,1.3-.7,2-.9.8-.2,1.7-.2,2.6.1.9.3,1.7,1.1,2,2,.4,1.1,0,2.3-.8,3l-.2-.4h.4c2.1-.6,4.2.5,5.1,2.4.4.9.3,1.9-.3,2.6-.5.7-1.4.9-2.2.6-.6-.3-.9-1.1-.7-1.8.1-.3.3-.5.6-.6.2,0,.5,0,.7,0,.3,0,.6.2.7.5.2.2.1.3.1.3Z"/>
    <path class="st3" d="M126.1,172.2c.2,0,.4,0,.6,0,.9.3,1.5,1.1,1.6,2,0,.5-.1.9-.5,1.3-.4.4-.9.7-1.4.7-.6.1-1.2,0-1.7-.5-.9-1-1.1-2.5-.6-3.8.5-1.5,1.6-2.7,3.1-3.3.8-.3,1.6-.4,2.3-.6.8-.2,1.4-.7,1.8-1.4.3-.7.4-1.6.3-2.4-.2-.9-.4-1.7-.7-2.5-.3-.9-.5-1.8-.5-2.7,0-.9.4-1.8,1-2.6.6-.7,1.4-1.1,2.2-1.4.8-.2,1.7-.3,2.5-.2,1.6.2,3,1,4.3,1.2.6.1,1.3,0,1.8-.2.5-.3,1-.7,1.4-1.1.7-.9,1.5-1.6,2.4-2.1.8-.3,1.6-.5,2.4-.4.5,0,1,.2,1.5.4.1,0,.2.1.4.2h.1c-.6-.2-1.3-.4-1.9-.4-.8,0-1.6.1-2.3.5-.9.5-1.7,1.3-2.3,2.1-.4.5-.9.9-1.5,1.2-.6.3-1.4.4-2.1.3-1.5-.2-2.8-1-4.3-1.1-1.6-.3-3.2.3-4.3,1.4-.5.6-.8,1.4-.8,2.2,0,.9.2,1.7.5,2.5.3.9.6,1.7.7,2.6.2.9,0,1.9-.3,2.7-.5.8-1.2,1.4-2.1,1.6-.8.2-1.6.4-2.3.6-1.3.5-2.4,1.6-2.9,3-.5,1.1-.4,2.5.4,3.4.8.6,2,.5,2.7-.2.5-.6.6-1.4.2-2.1-.2-.5-.6-.8-1.1-1-.3-.1-.5-.1-.5-.1Z"/>
    <path class="st3" d="M157.9,177.5c-.1,0-.3,0-.3,0,0,0,0,0,0,0,0-.1,0-.3.2-.3.1,0,.3,0,.3.1,0,.1,0,.3-.2.3Z"/>
    <path class="st3" d="M159.9,177.3c-.1,0-.3,0-.3-.2,0,0,0,0,0,0,0-.2,0-.3.2-.3,0,0,0,0,0,0,.2,0,.3.2.3.3,0,.1,0,.2-.2.3Z"/>
    <path class="st3" d="M161.7,177.7c-.2,0-.3-.2-.2-.4,0-.2.2-.3.3-.3.2,0,.3.2.2.4,0,.2-.1.3-.3.3Z"/>
    <ellipse class="st3" cx="159.6" cy="178.7" rx=".3" ry=".2"/>
    <path class="st3" d="M172,178c-.2,0-.3,0-.3-.2,0-.2,0-.3.2-.3.2,0,.3,0,.3.2,0,0,0,0,0,0,0,.2,0,.3-.2.3Z"/>
    <path class="st3" d="M173.3,178.1c-.1,0-.2-.2-.1-.4s.2-.3.4-.3.2.2.1.5-.2.3-.4.3Z"/>
    <path class="st3" d="M172.7,179.9c-.1,0-.2-.2-.2-.3,0,0,0,0,0,0,0-.1.1-.3.3-.2,0,0,0,0,0,0,.1,0,.2.2.2.3,0,0,0,0,0,0,0,.2-.1.3-.3.2Z"/>
    <path class="st3" d="M212.8,454.3l-22.6-163.5h0l-.6-10.5-56.4-2.7-2.4,8.9c-7.9,27.9-47.9,162.9-47.9,162.9l19.6,6.2,58.2-154.7,27.1,153.1,25.1.3Z"/>
    <path class="st12" d="M186.7,278.7c-.1,0-.3-.3-.3-.7s0-.8.2-.8.3.3.3.7,0,.8-.2.8Z"/>
    <path class="st12" d="M187.3,284.6c-.1,0-.3-.6-.4-1.5s0-1.5.1-1.5.3.6.4,1.5,0,1.5-.1,1.5Z"/>
    <path class="st12" d="M187.9,290.6c-.1,0-.3-.6-.4-1.5s0-1.5.1-1.5.3.6.4,1.5,0,1.5-.1,1.5Z"/>
    <path class="st12" d="M188.6,296.5c-.1,0-.3-.6-.4-1.5s0-1.5,0-1.5.3.6.4,1.5,0,1.5,0,1.5Z"/>
    <path class="st12" d="M189.2,302.5c-.1,0-.3-.6-.4-1.5s0-1.5,0-1.5.3.6.4,1.5,0,1.5,0,1.5Z"/>
    <path class="st12" d="M189.9,308.4c-.1,0-.3-.6-.4-1.5s0-1.5,0-1.5.3.6.4,1.5,0,1.5,0,1.5Z"/>
    <path class="st12" d="M190.6,314.3c-.1,0-.3-.6-.4-1.5s0-1.5,0-1.5.3.6.4,1.5,0,1.5,0,1.5Z"/>
    <path class="st12" d="M191.3,320.3c-.1,0-.3-.6-.4-1.5s0-1.5,0-1.5.3.6.4,1.5,0,1.5,0,1.5Z"/>
    <path class="st12" d="M192.1,326.2c-.1,0-.4-.6-.4-1.5s0-1.5,0-1.5.3.6.4,1.5,0,1.5,0,1.5Z"/>
    <path class="st12" d="M192.8,332.1c-.1,0-.4-.6-.4-1.5s0-1.5,0-1.5.3.6.4,1.5.1,1.5,0,1.5Z"/>
    <path class="st12" d="M193.6,338.1c-.1,0-.3-.6-.4-1.5s0-1.5,0-1.5.3.6.4,1.5,0,1.5,0,1.5Z"/>
    <path class="st12" d="M194.4,344c-.1,0-.3-.6-.4-1.5s0-1.5,0-1.5.3.6.4,1.4,0,1.5,0,1.5Z"/>
    <path class="st12" d="M195.1,349.9c-.1,0-.4-.6-.5-1.5s0-1.5,0-1.5.4.6.5,1.5,0,1.5,0,1.5Z"/>
    <path class="st12" d="M195.9,355.8c-.1,0-.4-.6-.5-1.5s0-1.5,0-1.5.4.6.5,1.5,0,1.5,0,1.5Z"/>
    <path class="st12" d="M196.7,361.8c-.1,0-.3-.6-.5-1.5s0-1.5,0-1.5.4.6.5,1.5,0,1.5,0,1.5Z"/>
    <path class="st12" d="M197.5,367.7c-.1,0-.4-.6-.5-1.5s0-1.5,0-1.5.4.6.5,1.4,0,1.5,0,1.5Z"/>
    <path class="st12" d="M198.3,373.6c-.1,0-.4-.6-.5-1.4s0-1.5,0-1.5.4.6.5,1.5.1,1.5,0,1.5Z"/>
    <path class="st12" d="M199.1,379.5c-.1,0-.4-.6-.5-1.4s-.1-1.5,0-1.5.4.6.5,1.4.1,1.5,0,1.5Z"/>
    <path class="st12" d="M200,385.4c-.1,0-.4-.6-.5-1.4s-.1-1.5,0-1.5.4.6.5,1.4.2,1.5,0,1.5Z"/>
    <path class="st12" d="M200.9,391.3c-.1,0-.4-.6-.5-1.4s-.1-1.5,0-1.5.4.6.5,1.4.1,1.5,0,1.5Z"/>
    <path class="st12" d="M201.8,397.2c-.1,0-.4-.6-.5-1.4s-.1-1.5,0-1.5.4.6.5,1.4.2,1.5,0,1.5Z"/>
    <path class="st12" d="M202.7,403.1c-.1,0-.4-.6-.5-1.4s-.1-1.5,0-1.5.4.6.5,1.4.1,1.5,0,1.5Z"/>
    <path class="st12" d="M203.6,409.1c-.1,0-.4-.6-.5-1.4s-.1-1.5,0-1.5.4.6.5,1.4.2,1.5,0,1.5Z"/>
    <path class="st12" d="M204.5,415c-.1,0-.4-.6-.5-1.4s-.1-1.5,0-1.5.4.6.5,1.4.2,1.5,0,1.5Z"/>
    <path class="st12" d="M205.4,420.9c-.1,0-.4-.6-.5-1.4s-.1-1.5,0-1.5.4.6.5,1.4.1,1.5,0,1.5Z"/>
    <path class="st12" d="M206.3,426.8c-.1,0-.4-.6-.5-1.4s-.1-1.5,0-1.5.4.6.5,1.4.1,1.5,0,1.5Z"/>
    <path class="st12" d="M207.2,432.7c-.1,0-.4-.6-.5-1.4s-.1-1.5,0-1.5.4.6.5,1.4.1,1.5,0,1.5Z"/>
    <path class="st12" d="M208.1,438.6c-.1,0-.4-.6-.5-1.4s-.1-1.5,0-1.5.4.6.5,1.4.2,1.5,0,1.5Z"/>
    <path class="st12" d="M209,444.5c-.1,0-.4-.6-.5-1.4s-.1-1.5,0-1.5.4.6.5,1.4.1,1.5,0,1.5Z"/>
    <path class="st12" d="M209.9,450.4c-.1,0-.4-.6-.5-1.4s-.1-1.5,0-1.5.4.6.5,1.4.1,1.5,0,1.5Z"/>
    <path class="st12" d="M210.5,454.9c-.1,0-.3-.3-.4-.7s0-.8.1-.8.3.3.4.7,0,.8-.2.8Z"/>
    <path class="st12" d="M101,451.3c.1,0,.2.4,0,.8s-.3.7-.5.6-.2-.4,0-.8.3-.7.5-.6Z"/>
    <path class="st12" d="M102.9,445.5c.1,0,0,.7-.2,1.5s-.6,1.4-.7,1.4,0-.7.2-1.5.6-1.4.7-1.4Z"/>
    <path class="st12" d="M104.7,439.7c.1,0,0,.7-.2,1.5s-.6,1.4-.7,1.4,0-.7.2-1.5.6-1.4.7-1.4Z"/>
    <path class="st12" d="M106.6,434c.1,0,0,.7-.2,1.5s-.6,1.4-.7,1.4,0-.7.2-1.5.6-1.4.7-1.4Z"/>
    <path class="st12" d="M108.6,428.2c.1,0,0,.7-.2,1.5s-.6,1.4-.7,1.4,0-.7.2-1.5.6-1.4.7-1.4Z"/>
    <path class="st12" d="M110.5,422.5c.1,0,0,.7-.2,1.5s-.6,1.4-.7,1.4,0-.7.2-1.5.6-1.4.7-1.4Z"/>
    <path class="st12" d="M112.5,416.7c.1,0,0,.7-.2,1.5s-.6,1.4-.8,1.4,0-.7.3-1.5.6-1.4.7-1.4Z"/>
    <path class="st12" d="M114.6,411c.1,0,0,.7-.3,1.5s-.6,1.4-.8,1.4,0-.7.3-1.5.6-1.4.8-1.4Z"/>
    <path class="st12" d="M116.6,405.2c.1,0,0,.7-.3,1.5s-.6,1.4-.8,1.4,0-.7.3-1.5.6-1.4.8-1.4Z"/>
    <path class="st12" d="M118.6,399.5c.1,0,0,.7-.3,1.5s-.6,1.4-.8,1.3,0-.7.3-1.5.6-1.4.8-1.3Z"/>
    <path class="st12" d="M120.7,393.8c.1,0,0,.7-.3,1.5s-.6,1.4-.8,1.3,0-.7.3-1.5.6-1.4.8-1.3Z"/>
    <path class="st12" d="M122.8,388.1c.1,0,0,.7-.3,1.5s-.6,1.4-.8,1.3,0-.7.3-1.5.6-1.4.8-1.3Z"/>
    <path class="st12" d="M124.9,382.4c.1,0,0,.7-.3,1.5s-.6,1.4-.8,1.3,0-.7.3-1.5.6-1.4.8-1.3Z"/>
    <path class="st12" d="M127.1,376.7c.1,0,0,.7-.3,1.5s-.6,1.4-.8,1.3,0-.7.3-1.5.6-1.4.8-1.3Z"/>
    <path class="st12" d="M129.2,371c.1,0,0,.7-.3,1.5s-.6,1.4-.8,1.3,0-.7.3-1.5.6-1.3.8-1.3Z"/>
    <path class="st12" d="M131.4,365.3c.1,0,0,.7-.3,1.5s-.6,1.4-.8,1.3,0-.7.3-1.5.7-1.4.8-1.3Z"/>
    <path class="st12" d="M133.5,359.6c.1,0,0,.7-.3,1.5s-.6,1.4-.8,1.3,0-.7.3-1.5.6-1.4.8-1.3Z"/>
    <path class="st12" d="M135.7,354c.1,0,0,.7-.3,1.5s-.7,1.4-.8,1.3,0-.7.3-1.5.7-1.4.8-1.3Z"/>
    <path class="st12" d="M137.9,348.3c.1,0,0,.7-.3,1.5s-.7,1.4-.8,1.3,0-.7.3-1.5.7-1.4.8-1.3Z"/>
    <path class="st12" d="M140.1,342.6c.1,0,0,.7-.3,1.5s-.7,1.4-.8,1.3,0-.7.3-1.5.7-1.4.8-1.3Z"/>
    <path class="st12" d="M142.3,336.9c.1,0,0,.7-.3,1.5s-.7,1.4-.8,1.3,0-.7.3-1.5.7-1.4.8-1.3Z"/>
    <path class="st12" d="M144.5,331.3c.1,0,0,.7-.3,1.5s-.7,1.4-.8,1.3,0-.7.3-1.5.7-1.4.8-1.3Z"/>
    <path class="st12" d="M146.7,325.6c.1,0,0,.7-.3,1.5s-.7,1.4-.8,1.3,0-.7.3-1.5.7-1.4.8-1.3Z"/>
    <path class="st12" d="M149,319.9c.1,0,0,.7-.3,1.5s-.7,1.4-.8,1.3,0-.7.3-1.5.6-1.4.8-1.3Z"/>
    <path class="st12" d="M151.3,314.3c.1,0,0,.7-.4,1.5s-.7,1.4-.8,1.3,0-.7.4-1.5.7-1.4.8-1.3Z"/>
    <path class="st12" d="M153.9,308.8c.1,0,0,.7-.4,1.5s-.8,1.3-.9,1.2,0-.7.4-1.5.8-1.3.9-1.2Z"/>
    <path class="st12" d="M157.1,303.7c.1,0-.2.7-.6,1.4s-1,1.2-1.1,1.1.2-.7.6-1.4,1-1.2,1.1-1.1Z"/>
    <path class="st12" d="M160.6,300.9c0,.1-.2.3-.6.5s-.7.3-.8.2.1-.4.5-.6.8-.2.8,0Z"/>
    <path class="st12" d="M151.4,215.2l-35.8-1h-36.5c-4.9,0-8.7,4.1-8.7,9v24.8c-.1,17.1,4,34,11.9,49.2,6.7,12.6,17.2,25.7,33.2,33.9,14.8-5.5,25.8-20.3,32.5-33,7.9-15.2,12-32.1,11.9-49.2v-24.8c0-4.9-3.8-8.9-8.7-9Z"/>
    <polygon class="st5" points="114.4 273.1 101.2 262.1 105.7 256.7 113.7 263.3 126.7 248.4 132 253 114.4 273.1"/>
    <g class="st10">
      <path d="M151.4,215.2l-35.8-1h-36.5c-4.9,0-8.7,4.1-8.7,9v24.8c-.1,17.1,4,34,11.9,49.2,6.7,12.6,17.2,25.7,33.2,33.9,14.8-5.5,25.8-20.3,32.5-33,7.9-15.2,12-32.1,11.9-49.2v-24.8c0-4.9-3.8-8.9-8.7-9ZM150.3,250.8c0,13.6-3.1,26.9-9.4,38.9-5.3,10-13.2,20.3-25.9,26.9-12.7-6.5-20.2-16.9-25.6-26.9-6.3-12-9.5-25.4-9.4-38.9v-19.6c0-3.9,3-7,6.8-7.1h56.6c3.9,0,6.9,3.3,6.9,7.1v19.6Z"/>
    </g>
  </g>
</svg>