<?xml version="1.0" encoding="UTF-8"?>
<svg id="Layer_1" xmlns="http://www.w3.org/2000/svg" version="1.1" viewBox="0 0 500 500">
  <!-- Generator: Adobe Illustrator 29.6.1, SVG Export Plug-In . SVG Version: 2.1.1 Build 9)  -->
  <defs>
    <style>
      .st0 {
        fill: #e0e0e0;
      }

      .st1 {
        fill: #ffbe9d;
      }

      .st2 {
        fill: #ebebeb;
      }

      .st3 {
        fill: #263238;
      }

      .st4 {
        fill: #eb996e;
      }

      .st5 {
        fill: #1211ca;
      }

      .st6 {
        fill: #ffde59;
      }

      .st7 {
        fill: #fff;
      }

      .st8 {
        fill: #1abc9c;
      }

      .st9 {
        fill: #fafafa;
      }

      .st10 {
        opacity: .6;
      }

      .st11 {
        opacity: .3;
      }

      .st12 {
        fill: #f5f5f5;
      }

      .st13 {
        fill: #455a64;
      }

      .st14 {
        display: none;
      }
    </style>
  </defs>
  <g id="freepik--background-complete--inject-49">
    <path class="st0" d="M298.7,471.2c0,2.7-17.4,5-39,5s-39-2.2-39-5,17.4-5,39-5,39,2.3,39,5Z"/>
    <path class="st12" d="M183,150.2c3.2-1.9,6.7-3.5,10.3-4.5l2.1-10.2,17.2-.3,2.5,10.1c3.7.9,7.2,2.3,10.5,4.1l8.7-5.7,12.4,12-5.4,8.9c1.9,3.2,3.5,6.7,4.5,10.3l10.2,2.1.3,17.2-10.1,2.5c-.9,3.7-2.3,7.2-4.1,10.5l5.7,8.7-12,12.4-8.9-5.4c-3.2,1.9-6.7,3.5-10.3,4.5l-2.1,10.2-17.2.3-2.5-10.1c-3.7-.9-7.2-2.3-10.5-4.1l-8.7,5.7-12.4-12,5.4-8.9c-1.9-3.2-3.5-6.7-4.5-10.3l-10.2-2.1-.3-17.2,10.1-2.5c.9-3.7,2.3-7.2,4.1-10.5l-5.7-8.7,12-12.4,8.9,5.4h0ZM192.2,173.2c-7.1,7.4-6.9,19.1.5,26.2,7.4,7.1,19.1,6.9,26.2-.5,7.1-7.4,6.9-19.1-.5-26.2-7.3-7.1-19-6.9-26.2.4h0Z"/>
    <path class="st2" d="M284.4,180.3c2.7-.9,5.5-1.5,8.4-1.7l3.2-7.3,12.9,2.5.2,7.9c2.6,1.3,5,2.8,7.1,4.7l7.4-2.9,7.4,10.9-5.5,5.8c.9,2.7,1.5,5.5,1.7,8.4l7.3,3.2-2.5,12.9-8,.2c-1.3,2.6-2.8,5-4.7,7.1l2.9,7.4-10.9,7.4-5.8-5.4c-2.7.9-5.5,1.5-8.4,1.7l-3.2,7.3-12.9-2.5-.2-8c-2.6-1.2-5-2.8-7.1-4.7l-7.4,2.9-7.3-10.9,5.4-5.8c-.9-2.7-1.5-5.5-1.7-8.4l-7.3-3.2,2.5-12.9,7.9-.2c1.3-2.6,2.8-5,4.7-7.1l-2.9-7.4,10.9-7.3,5.8,5.4h0ZM287.6,198.8c-6.5,4.4-8.2,13.1-3.8,19.6,4.4,6.5,13.1,8.2,19.6,3.8s8.2-13.1,3.8-19.6c0,0,0,0,0,0-4.4-6.5-13.1-8.2-19.6-3.8h0Z"/>
    <path class="st0" d="M355.6,380.5c.7.4.8,1.3.4,2-.4.7-1.3.8-2,.4-.6-.4-.8-1.3-.4-2,.4-.7,1.3-.8,2-.4,0,0,0,0,0,0Z"/>
    <path class="st0" d="M365.4,383.4c0,.2,0,.4-.3.4-.2,0-.4,0-.4-.3s0-.4.3-.4c.2,0,.4,0,.4.3h0Z"/>
    <path class="st0" d="M365.2,342.6c0,.2,0,.4-.3.4-.2,0-.4,0-.4-.3h0c0-.2,0-.4.3-.4,0,0,0,0,0,0,.2,0,.4,0,.4.3,0,0,0,0,0,0Z"/>
    <path class="st12" d="M345.6,134.8c-3-8-7.7-15.2-13.6-21.3-10.3-10.5-22.1-19.8-35.4-26.4s-35-12.3-50.8-12.2c-8.2-.3-12.3.2-19.7,3.1-4.6,1.8-8.5,5.9-8.8,10.8-.3,4.5,2.5,10.1,6.2,12.7,16.1,11.3,28.3,11.9,43.9,16.9s31.6,12.4,40,26.3c4.6,7.5,7.2,17.2,15.1,21.1,7.7,3.9,17.8.1,22.5-7s3.6-16.1.6-24Z"/>
    <path class="st0" d="M131.8,277.1s-.4.2-1.2.6-1.9,1-3.4,1.9c-4.4,2.5-8.6,5.2-12.6,8.2-6.4,4.7-12.3,10-17.8,15.7-3.4,3.6-6.6,7.4-9.5,11.4-3.3,4.4-6.2,9.2-8.6,14.2-1.3,2.7-2.3,5.5-3.2,8.3-.9,3-1.5,6-1.8,9.1-.3,3.2-.1,6.5.5,9.6.3,1.6.8,3.2,1.3,4.8.6,1.6,1.3,3.1,2.1,4.6,3.6,6.1,8.8,11.1,15,14.5,6.6,3.6,13.8,6,21.2,7,3.8.6,7.7,1.1,11.6,1.4,2,.2,4,.2,5.9.3l6,.3c2,.1,4,0,6.1,0h6.1c2.1,0,4.1-.1,6.2-.2l6.3-.3c17.3-1.1,34.4-3.7,51.3-7.7,34.7-8.1,66.4-20.6,94.3-33.6,14-6.5,27.1-13.2,38.1-21.4,5.3-3.9,10.3-8.4,14.7-13.3l1.6-1.8c.5-.6,1-1.2,1.5-1.8l1.4-1.8,1.3-1.9c1.7-2.4,3.2-5,4.5-7.7,2.4-5,3.6-10.5,3.5-16,0-5-2.1-9.7-5.5-13.3-3.1-3-7.1-4.9-11.3-5.6-3.6-.6-7.2-.6-10.8,0-2.8.5-5.6,1.2-8.4,2.2-2.4.8-4.3,1.6-5.9,2.3l-3.6,1.5-1.2.5,1.2-.6c.8-.4,2-.9,3.6-1.6s3.5-1.5,5.9-2.4c2.7-1,5.5-1.7,8.4-2.3,3.6-.7,7.3-.7,10.9,0,4.3.7,8.3,2.6,11.5,5.6,3.5,3.6,5.6,8.4,5.7,13.5,0,5.6-1.1,11.1-3.5,16.2-1.2,2.7-2.7,5.3-4.5,7.8l-1.3,1.9-1.4,1.8c-.5.6-1,1.2-1.5,1.9l-1.6,1.8c-4.4,4.9-9.4,9.4-14.7,13.3-11,8.2-24.2,15-38.1,21.5-27.9,13.1-59.7,25.6-94.4,33.7s-69.1,10.4-99.7,6.1c-7.5-1.1-14.7-3.5-21.3-7.1-6.3-3.5-11.5-8.5-15.2-14.7-.8-1.5-1.6-3-2.2-4.6-.6-1.6-1-3.2-1.3-4.9-.6-3.2-.8-6.5-.5-9.8.3-3.1.9-6.2,1.8-9.2.9-2.9,2-5.7,3.2-8.4,2.4-5,5.3-9.8,8.7-14.2,7.7-10.4,16.9-19.5,27.4-27.1,4-3,8.3-5.7,12.7-8.1,3-1.7,4.6-2.5,4.6-2.5Z"/>
    <g class="st14">
      <path class="st0" d="M329.6,41.1s0,0,.2.2.4.3.7.5c.9.7,1.8,1.3,2.8,1.8,1.5.9,3.1,1.6,4.8,2.1,2.2.7,4.5,1,6.8.9,2.8-.2,5.6-.5,8.3-1,3.2-.5,6.4-.7,9.6-.3,3.6.4,7,1.4,10.2,3,7,3.4,12.4,9.4,14.9,16.7,1.2,3.4,1.7,7,1.6,10.5-.1,3.4-.6,6.6-.7,9.6-.1,2.8.2,5.6,1.1,8.2.7,2.2,1.8,4.3,3.1,6.1,1,1.4,2.2,2.7,3.5,3.8.5.5,1,.8,1.5,1.2s.8.6,1.1.8l.7.4c.2.1.2.2.2.2,0,0-.2,0-.3-.1l-.8-.4c-.3-.2-.7-.5-1.2-.8s-1-.7-1.5-1.2c-3.1-2.6-5.5-6.1-6.8-10-.9-2.7-1.3-5.5-1.1-8.3,0-3,.5-6.2.6-9.6.1-3.5-.4-7.1-1.6-10.4-2.5-7.3-7.8-13.2-14.8-16.5-3.2-1.6-6.6-2.6-10.1-3-3.2-.3-6.4-.3-9.6.3-2.8.5-5.5.8-8.4,1-2.3,0-4.7-.3-6.9-1-2.7-.9-5.3-2.2-7.5-4-.3-.2-.5-.4-.6-.6l-.2-.2Z"/>
      <path class="st0" d="M346.8,19c1.1,1,2.2,2.1,3.2,3.2,1.2,1.3,2.3,2.7,3.2,4.2,1.3,2,2.3,4.1,2.9,6.4.2.7.3,1.3.3,2v2.1c0,1.4,0,2.9,0,4.5,0,3.1-.2,6.4-.1,9.8,0,3.6.7,7.2,2,10.5,1.4,3.6,3.5,6.9,6.2,9.7,2.7,2.8,6,4.8,9.7,6.1,3.4,1.2,7,1.6,10.6,1.1,3.4-.5,6.6-1.5,9.6-2,1.5-.3,3-.4,4.5-.4,1.4,0,2.8.2,4.1.4,2.3.5,4.5,1.4,6.6,2.6,1.5.9,2.9,2,4.2,3.3.8.8,1.5,1.7,2.2,2.6l.5.7.2.3c0,0-.1-.2-.2-.2-.1-.2-.3-.4-.5-.7-1.7-2.3-3.9-4.3-6.4-5.8-2-1.2-4.2-2-6.5-2.5-1.3-.3-2.7-.4-4-.4-1.5,0-2.9.2-4.4.4-3,.5-6.2,1.6-9.6,2-3.6.5-7.3.2-10.8-1-3.7-1.3-7.1-3.4-9.8-6.2-2.7-2.8-4.9-6.1-6.2-9.8-1.3-3.4-2-7-2-10.7,0-3.5,0-6.8.1-9.8,0-1.5,0-3,.1-4.4v-2.1c0-.7-.1-1.3-.3-2-.6-2.3-1.5-4.4-2.8-6.4-1-1.5-2-2.9-3.2-4.2-1-1.1-1.7-1.9-2.3-2.5l-.6-.6-.3-.2Z"/>
      <path class="st0" d="M356.3,35.9c0,0-1.9,2.6-4.5,5.6s-4.7,5.5-4.7,5.4,1.9-2.6,4.5-5.6,4.7-5.5,4.7-5.4Z"/>
      <path class="st0" d="M354.6,29.5c0,0-3.4,3.7-7.8,8.1s-8,8-8,7.9,3.4-3.7,7.8-8.1,7.9-8,8-7.9Z"/>
      <path class="st0" d="M351,23.6c0,0-4.2,4.4-9.5,9.7-5.3,5.3-9.6,9.5-9.7,9.5s4.2-4.4,9.5-9.7,9.6-9.5,9.7-9.5Z"/>
      <path class="st0" d="M389,69.4c0,0-2.4,2.3-5.5,5s-5.7,4.8-5.7,4.7,2.4-2.3,5.5-5,5.6-4.8,5.7-4.7Z"/>
      <path class="st0" d="M385.7,60.6c-.2.2-.4.5-.6.7-.4.4-1,1-1.7,1.7-1.4,1.4-3.4,3.2-5.7,5.2s-4.4,3.7-5.9,5c-.8.6-1.4,1.1-1.9,1.4-.2.2-.5.4-.7.5.2-.2.4-.4.6-.6l1.8-1.5c1.5-1.3,3.6-3,5.9-5s4.3-3.8,5.8-5.2l1.7-1.7c.2-.2.4-.4.7-.6Z"/>
      <path class="st0" d="M380.6,53.9c-.2.2-.5.4-.7.6l-2,1.7c-1.7,1.4-4.1,3.3-6.6,5.6s-4.8,4.3-6.4,5.8l-1.9,1.8c-.2.2-.5.5-.7.6.2-.3.4-.5.6-.7.4-.4,1-1.1,1.8-1.9,1.6-1.6,3.8-3.7,6.3-5.9s4.9-4.2,6.7-5.5c.9-.7,1.6-1.2,2.1-1.6.2-.2.5-.4.8-.5Z"/>
      <path class="st0" d="M372.2,49.3c-.2.2-.3.4-.5.5l-1.5,1.4c-1.3,1.2-3,2.8-4.9,4.6s-3.6,3.5-4.8,4.7l-1.4,1.4c-.2.2-.4.4-.6.5.1-.2.3-.4.5-.6.3-.4.8-.9,1.4-1.5,1.2-1.2,2.8-2.9,4.7-4.8s3.7-3.4,5-4.5c.6-.5,1.2-1,1.6-1.3.2-.2.4-.3.6-.4Z"/>
      <path class="st0" d="M365.8,45.7c-1.4,1.6-3,3.1-4.5,4.5-1.5,1.5-3.1,2.9-4.8,4.2,1.5-1.6,3-3,4.6-4.4,1.5-1.5,3.1-2.9,4.8-4.3Z"/>
      <path class="st0" d="M401.5,76.5c-.1.2-.3.4-.5.5l-1.3,1.2c-1.2,1.1-2.7,2.5-4.4,4.1s-3.2,3-4.4,4.1l-1.3,1.2c-.2.2-.3.3-.5.4,0,0,.1-.2.4-.5s.7-.8,1.3-1.3c1.1-1.1,2.6-2.6,4.3-4.2s3.3-3,4.5-4c.6-.5,1.1-.9,1.4-1.2.2-.2.3-.3.5-.4Z"/>
      <path class="st0" d="M409.6,79.6c0,0-4,4-9.1,8.7s-9.3,8.6-9.4,8.5,4-4,9.1-8.7,9.3-8.6,9.4-8.5Z"/>
      <path class="st0" d="M415.2,82.7c0,0-4.3,4.5-9.8,10s-10,9.8-10.1,9.7,4.3-4.5,9.8-10,10-9.8,10.1-9.7Z"/>
      <path class="st2" d="M443.9,60.6l1.1,1.8c1.2,2,3,3.7,5.2,4.8l1.9.9-1.8,1.1c-2,1.2-3.7,3-4.8,5.2l-.9,1.9-1.1-1.8c-1.2-2-3-3.7-5.2-4.8l-1.9-.9,1.8-1.1c2-1.2,3.7-3,4.8-5.2l1-1.9Z"/>
      <path class="st2" d="M456.4,88.9l1,1.6c1.1,1.8,2.6,3.2,4.5,4.1l1.7.8-1.6,1c-1.8,1.1-3.2,2.6-4.1,4.5l-.8,1.7-.9-1.6c-1.1-1.8-2.6-3.2-4.5-4.1l-1.7-.8,1.6-1c1.8-1.1,3.2-2.6,4.1-4.5l.8-1.7Z"/>
    </g>
    <g class="st14">
      <circle class="st2" cx="124.4" cy="350.4" r="18.9"/>
      <g class="st11">
        <path class="st7" d="M118.1,351.1c-1.5.8-3.4.2-4.2-1.3-.8-1.5-.2-3.4,1.3-4.2,1.5-.8,3.4-.2,4.2,1.3,0,0,0,0,0,0,.8,1.5.2,3.4-1.3,4.2Z"/>
      </g>
      <g class="st11">
        <path class="st7" d="M123.8,343c-.9.5-2,.1-2.4-.7s-.1-2,.7-2.4c.9-.5,1.9-.1,2.4.7.5.9.1,2-.7,2.4Z"/>
      </g>
      <path class="st0" d="M111.7,336.5c-.2.2-21.7-6.7-22.6-1.5s14.9,16.8,32.7,24.3c17.8,7.5,37.2,12.6,38.9,7.5s-17.4-16.2-17.4-16.2l-.2,2.7s11.8,6.6,11,11.1-15.4.7-31.5-7.1-29.2-16.6-27.7-19.8,14.8,1.2,14.8,1.2l1.9-2.1Z"/>
      <g class="st11">
        <path class="st7" d="M131.2,335c0,.2-1.6-.4-4.3-.6-6.9-.8-13.5,2.6-17,8.6-1.3,2.3-1.8,3.9-2,3.8s-.1-1.8,1.1-4.3c.7-1.5,1.6-2.8,2.7-4,1.4-1.5,3-2.7,4.8-3.7,1.8-.9,3.7-1.5,5.8-1.7,1.6-.2,3.3-.1,4.9.2,2.7.6,4.2,1.6,4.1,1.7Z"/>
      </g>
      <path class="st2" d="M91.1,418.4l1.1,1.8c1.2,2.1,3,3.7,5.2,4.8l1.9.9-1.8,1.1c-2,1.2-3.7,3-4.8,5.2l-.9,1.9-1.1-1.8c-1.2-2-3-3.7-5.2-4.8l-1.9-.9,1.8-1.1c2-1.2,3.7-3,4.8-5.1l.9-1.9Z"/>
      <path class="st2" d="M70,397.8l.8,1.3c.9,1.4,2.1,2.6,3.7,3.4l1.3.7-1.3.8c-1.4.9-2.6,2.1-3.4,3.6l-.7,1.4-.8-1.3c-.9-1.4-2.2-2.6-3.7-3.4l-1.3-.7,1.3-.8c1.4-.9,2.6-2.1,3.4-3.6l.7-1.4Z"/>
    </g>
    <path class="st2" d="M400.8,411.9l.8,1.3c.9,1.5,2.1,2.6,3.6,3.4l1.3.7-1.3.8c-1.4.9-2.6,2.1-3.4,3.6l-.7,1.4-.8-1.3c-.9-1.4-2.1-2.6-3.6-3.4l-1.4-.7,1.3-.8c1.5-.9,2.6-2.1,3.4-3.6l.7-1.4Z"/>
    <g class="st14">
      <path class="st0" d="M423,377.1l.2-.4v-.2c.1,0,.2-.2.2-.3,0-.2.2-.5.2-.7,0-.1,0-.3,0-.5v-.5c0-.2,0-.4,0-.6v-.6c-.1-1-.3-1.9-.7-2.8-1-2.5-2.4-4.8-4.1-6.9-2.2-2.8-4.7-5.3-7.4-7.6-3.2-2.8-6.7-5.4-10.2-7.8-4.1-2.7-8.4-5.1-12.9-7.2-2.4-1.1-4.8-2.1-7.4-3.1-2.6-1-5.3-1.7-8-2.4-2.8-.7-5.7-1-8.5-.9-1.5,0-2.9.3-4.3.8-.7.2-1.3.6-2,1-.6.4-1.1,1-1.5,1.6-.4.6-.6,1.4-.7,2.1,0,.7,0,1.5,0,2.2.3,1.4.8,2.8,1.4,4.1,1.3,2.5,3,4.9,4.9,7,1.9,2.1,3.8,4,5.9,5.8,2,1.8,4.1,3.4,6.2,5,4,2.9,8.2,5.5,12.5,7.8,3.8,2,7.7,3.8,11.8,5.2,3.3,1.2,6.8,2.1,10.2,2.7,2.6.5,5.3.6,8,.2,1-.1,1.9-.4,2.8-.8.2,0,.4-.2.5-.3.2,0,.3-.2.5-.3l.4-.3.4-.3c.2-.2.4-.3.5-.5,0,0,.1-.1.2-.2v-.2c.1,0,.4-.4.4-.4l-.2.4v.2c-.1,0-.3.2-.3.2-.2.2-.3.4-.5.5l-.4.3-.4.3c-.2.1-.3.2-.5.3-.2,0-.4.2-.5.3-.9.4-1.9.6-2.8.8-2.7.3-5.4.3-8-.2-3.5-.6-6.9-1.5-10.3-2.7-4-1.5-8-3.2-11.8-5.2-4.4-2.3-8.6-4.9-12.6-7.8-2.1-1.5-4.2-3.2-6.3-5-2.1-1.8-4.1-3.8-5.9-5.9-2-2.1-3.6-4.5-5-7.1-.7-1.3-1.2-2.7-1.5-4.2-.1-.7-.1-1.5,0-2.2.1-.8.3-1.5.7-2.1.4-.6.9-1.2,1.5-1.7.6-.4,1.3-.8,2-1,1.4-.5,2.9-.7,4.4-.8,2.9,0,5.8.3,8.6.9,2.7.6,5.4,1.4,8,2.4,2.6.9,5,2,7.4,3.1,4.5,2.1,8.8,4.5,12.9,7.2,3.6,2.3,7,4.9,10.2,7.8,2.7,2.3,5.1,4.9,7.4,7.6,1.7,2.1,3.1,4.4,4.1,6.9.3.9.6,1.9.7,2.8v.6c0,.2,0,.4,0,.6v.5c0,.2,0,.3,0,.5,0,.3-.1.5-.2.7,0,.1,0,.2-.1.3v.2c-.1,0-.3.4-.3.4Z"/>
      <path class="st0" d="M428.4,349.9s0-.1-.1-.4c0,0,0-.1,0-.2v-.3c-.2-.2-.3-.5-.4-.7,0-.1-.1-.3-.2-.4l-.3-.4c-.1-.2-.2-.3-.4-.4-.1-.2-.3-.3-.4-.4-.7-.7-1.5-1.2-2.4-1.7-2.4-1.2-5-2-7.6-2.4-3.5-.6-7-.8-10.6-.8-4.3,0-8.6.4-12.8,1-4.9.7-9.7,1.8-14.4,3.2-2.5.8-5,1.6-7.5,2.6-2.6,1-5.1,2.2-7.5,3.5-2.5,1.4-4.9,3.1-7,5-1.1,1-2,2.2-2.7,3.4-.3.6-.6,1.3-.8,2-.3,1.5,0,3,.8,4.2.4.6.9,1.1,1.5,1.6,1.2.9,2.4,1.6,3.8,2.1,2.7,1,5.5,1.6,8.4,2,2.8.3,5.5.5,8.3.4,2.7,0,5.4-.2,8-.5,4.9-.5,9.7-1.3,14.5-2.5,4.2-1,8.3-2.4,12.2-4,3.3-1.3,6.5-2.9,9.5-4.8,2.3-1.4,4.3-3.1,6.1-5.1.6-.7,1.2-1.6,1.6-2.4,0-.2.2-.4.2-.6,0-.2.1-.3.2-.5v-.5c.1-.1.2-.3.2-.5,0-.3,0-.5,0-.8,0,0,0-.2,0-.3v-.2c0-.3,0-.5,0-.5v.5c0,0,0,.2,0,.2v.3c0,.3,0,.5,0,.8,0,.1,0,.3,0,.5s0,.3-.1.5c0,.2-.1.4-.2.5,0,.2-.1.4-.2.6-.4.9-1,1.7-1.6,2.5-1.8,2-3.8,3.8-6.1,5.2-3,1.9-6.2,3.5-9.5,4.8-4,1.6-8.1,3-12.2,4-4.8,1.2-9.6,2.1-14.5,2.6-2.6.3-5.2.4-8,.5-2.8,0-5.6,0-8.3-.4-2.9-.3-5.7-1-8.4-2-1.4-.5-2.7-1.2-3.9-2.2-.6-.5-1.1-1-1.5-1.6-.4-.6-.7-1.3-.9-2.1-.1-.7-.1-1.5,0-2.3.2-.7.4-1.4.8-2.1.7-1.3,1.7-2.5,2.8-3.5,2.1-2,4.5-3.6,7-5,2.4-1.3,5-2.5,7.6-3.5,2.5-1,5.1-1.9,7.5-2.6,4.7-1.4,9.6-2.5,14.5-3.2,4.2-.6,8.5-1,12.8-1,3.5,0,7.1.2,10.6.8,2.6.4,5.2,1.2,7.6,2.4.9.5,1.7,1,2.4,1.7.2.1.3.3.4.4.1.1.2.3.4.4.1.1.2.3.3.4s.2.3.2.4c.1.2.2.4.3.7,0,0,0,.2.1.3v.2c.2.3.2.4.2.4Z"/>
      <path class="st0" d="M408.4,321.4l-.4-.2h-.2c0,0-.3-.2-.3-.2-.2,0-.5-.1-.8-.1h-.5s-.5,0-.5,0c-.2,0-.4,0-.5,0-.2,0-.4,0-.6,0-1,.2-1.9.5-2.8.9-2.4,1.2-4.6,2.7-6.5,4.5-2.6,2.4-5,5-7.1,7.9-2.6,3.4-4.9,7-7,10.8-2.4,4.3-4.5,8.7-6.3,13.3-.9,2.4-1.8,5-2.5,7.6-.8,2.7-1.4,5.4-1.8,8.1-.5,2.8-.6,5.7-.3,8.6.1,1.5.5,2.9,1,4.2.3.7.7,1.3,1.1,1.9.5.6,1.1,1,1.7,1.4.7.3,1.4.5,2.1.5.7,0,1.5,0,2.2-.2,1.4-.4,2.8-.9,4-1.7,2.4-1.5,4.7-3.3,6.7-5.4,1.9-2,3.8-4.1,5.4-6.3,1.6-2.2,3.1-4.4,4.5-6.6,2.6-4.2,4.9-8.5,6.9-13,1.7-3.9,3.2-8,4.4-12.1,1-3.4,1.6-6.9,2-10.4.3-2.7.2-5.4-.3-8-.2-1-.5-1.9-1-2.8,0-.2-.2-.4-.3-.5,0-.2-.2-.3-.3-.5l-.3-.4c-.1-.1-.2-.2-.3-.3-.2-.2-.4-.4-.6-.5,0,0-.2-.1-.2-.2h-.2c0-.1-.4-.4-.4-.4l.4.2h.2c0,.2.2.2.2.3.2.1.4.3.6.5.1.1.2.2.3.3l.3.4c.1.1.2.3.3.5.1.2.2.3.3.5.5.9.8,1.8,1,2.8.5,2.6.6,5.3.3,8-.4,3.5-1,7-2,10.4-1.2,4.1-2.6,8.2-4.4,12.1-2,4.5-4.3,8.9-6.9,13.1-1.4,2.2-2.9,4.4-4.5,6.6-1.7,2.2-3.5,4.3-5.4,6.3-2,2.1-4.2,3.9-6.7,5.5-1.3.8-2.6,1.4-4.1,1.7-.7.2-1.5.2-2.2.2-1.6,0-3-.8-4-2-.5-.6-.9-1.2-1.2-1.9-.6-1.4-.9-2.8-1-4.3-.2-2.9-.1-5.8.3-8.6.4-2.8,1-5.5,1.8-8.1.8-2.6,1.6-5.1,2.5-7.6,1.8-4.6,3.9-9,6.3-13.2,2.1-3.8,4.5-7.3,7.1-10.8,2.1-2.8,4.5-5.5,7.1-7.9,2-1.8,4.2-3.4,6.6-4.5.9-.4,1.8-.7,2.8-.9.2,0,.4,0,.6,0,.2,0,.4,0,.6,0h1c.3,0,.5.1.8.2h.3c0,0,.2.2.2.2h.5Z"/>
      <path class="st0" d="M426.1,321.5c.2.8-.3,1.5-1.1,1.7-.8.2-1.5-.3-1.7-1.1-.2-.8.3-1.5,1.1-1.7,0,0,0,0,0,0,.8-.2,1.5.3,1.7,1.1Z"/>
      <path class="st0" d="M424.6,350.7c0,.2,0,.4-.3.4,0,0,0,0,0,0-.2,0-.4,0-.4-.3,0,0,0,0,0,0,0-.2,0-.4.3-.4,0,0,0,0,0,0,.2,0,.4,0,.4.3,0,0,0,0,0,0Z"/>
      <path class="st0" d="M426.2,333.1c0,.2,0,.4-.3.4,0,0,0,0,0,0-.2,0-.4,0-.4-.3,0,0,0,0,0,0,0-.2,0-.4.3-.4,0,0,0,0,0,0,.2,0,.4,0,.4.3,0,0,0,0,0,0Z"/>
      <circle class="st0" cx="390.6" cy="357.4" r="7"/>
      <path class="st2" d="M422.2,188.6l-12.5,46-38,10.5c-1.3.4-2,1.8-1.7,3.1h0l41.6-10.7,1.4-.5,49.3-13.2,5.5-21.8,7.1-25.6c.4-1,0-2.2-1.1-2.6-.4-.2-.8-.2-1.2-.1l-49.1,13.5c-.7.2-1.2.8-1.3,1.4Z"/>
      <polygon class="st9" points="424.8 190.1 413.4 232 458.1 219.7 468.1 178.4 424.8 190.1"/>
      <path class="st0" d="M472.7,173.6c0,0,0,.2,0,.2,0,.2-.1.4-.2.7-.2.6-.4,1.6-.6,2.7-.6,2.4-1.5,5.8-2.5,10-2.2,8.5-5.2,20.4-8.6,33.8h0c0,.1-.1.1-.1.1l-7.1,1.9-38.5,10.3-11.7,3.1-3.2.8-.8.2h-.3c0,0,.2,0,.3,0l.8-.2,3.2-.9,11.6-3.2,38.5-10.4,7.2-1.9-.2.2c3.5-13.4,6.5-25.2,8.8-33.7,1.1-4.2,2-7.6,2.6-10,.3-1.1.6-2,.7-2.7,0-.3.1-.5.2-.7s0-.2,0-.2Z"/>
      <path class="st2" d="M444.7,278.6l.8,1.3c.9,1.4,2.1,2.6,3.6,3.4l1.4.7-1.3.8c-1.4.9-2.6,2.1-3.4,3.6l-.7,1.4-.8-1.3c-.9-1.4-2.1-2.6-3.6-3.4l-1.4-.7,1.3-.8c1.4-.9,2.6-2.1,3.4-3.6l.7-1.4Z"/>
    </g>
    <g class="st14">
      <path class="st12" d="M104.1,51.9l1,4.5c.4,1.8-.2,3.6-1.5,4.8l-30.1,28.5c-3,2.9-3.2,7.6-.3,10.6.5.5,1.1,1,1.7,1.4l19,11c3.8,2.2,8.7.9,10.9-3,.4-.7.7-1.4.8-2.1l9.3-40.2c.4-1.8,1.8-3.3,3.6-3.8l3.8-1.1-18.3-10.6Z"/>
      <path class="st0" d="M109.7,83.5c-2.1-.7-4.1-1.8-5.6-3.4-1.5-1.5-2.6-3.4-4-5s-3.3-3-5.4-3.1l-18.8,18.3c-2.5,2.5-2.6,6.5-.1,9,.4.4.9.8,1.4,1.1l17,9.9c3.1,1.8,7,.7,8.8-2.3.3-.5.5-1,.6-1.6l6.2-23Z"/>
      <g class="st11">
        <path class="st7" d="M80.6,99.6c0,0-.5-.1-1-.7-.7-1-1.1-2.1-1.1-3.3,0-.8.1-1.6.4-2.4.3-.9.8-1.7,1.3-2.4,1.2-1.6,2.6-3.1,4.1-4.5,5.9-6.1,10.9-10.8,11.2-10.5s-4.3,5.4-10.3,11.4c-1.4,1.4-2.7,2.8-4,4.3-.5.7-.9,1.4-1.3,2.1-.3.6-.4,1.3-.5,2,0,1,0,2.1.6,3,.3.6.6,1,.6,1Z"/>
      </g>
      <path class="st9" d="M107.3,86.3c-.2,0-.5,0-.7,0-.5,0-1.1-.2-2-.3-1-.2-1.9-.5-2.8-1-.5-.3-1-.6-1.5-1-.5-.4-.9-.9-1.3-1.3-.8-1-1.4-2.1-2-3-.5-.8-1.2-1.5-2-2.1-.5-.4-1.1-.7-1.8-.8-.4,0-.7,0-.7-.1s0,0,.2,0c.2,0,.4,0,.5,0,.7.1,1.3.4,1.9.8.8.6,1.5,1.3,2.1,2.1.7.9,1.3,2,2.1,3,.4.5.8,1,1.2,1.4.4.4.9.7,1.4,1,.9.4,1.8.8,2.7,1,.8.2,1.5.3,1.9.4.2,0,.5,0,.7.1Z"/>
      <path class="st12" d="M143.5,46.9c-.4-2-1.5-3.8-3.1-5.1-2.5-2.5-5.7-4.2-9.2-4.7-3.7-.5-7.5.5-10.5,2.9-2.9,2.3-4.6,5.7-4.8,9.3-.3,2.4,2.1,4.3,4.5,4.5s4.6-1,6.7-2.1c2.1-1.1,4.5-2.1,6.8-1.6s4.6,2.3,6.9,1.7c1.9-.5,2.9-2.8,2.6-4.8Z"/>
      <path class="st12" d="M159.2,43c-.1-1.8-1.6-4.8-5-4.3-1.4,0-2.9,1.7-3.3,3.1-.3,1.4.1,2.9,1.2,3.8,1.1.9,2.6,1.3,4,.9,1.6-.4,3.2-1.8,3-3.5Z"/>
      <path class="st0" d="M29.1,192.5l-.5,1.4c-.3.9-.3,1.8.2,2.7l28.3,54.1c.4.8,1.1,1.4,2,1.6l1.6.4c.4.1.7.1,1.1.1l33-2.6c1.6-.1,2.9-1.4,3-3.1h0c0-.6-.1-1.2-.4-1.7l-30-55.9c-.6-1.1-1.8-1.8-3.1-1.7l-32.3,2.6c-1.3,0-2.4.9-2.9,2.1Z"/>
      <polygon class="st9" points="31.2 191.7 61.2 247.8 95.2 245.1 65.5 189 31.2 191.7"/>
      <path class="st0" d="M64.7,234.3c2.6-1,5.5.2,6.5,2.7,1,2.6-.2,5.5-2.7,6.5-2.5,1-5.4-.1-6.5-2.6-1.1-2.5,0-5.5,2.6-6.6,0,0,0,0,.1,0Z"/>
      <path class="st7" d="M66.7,236.6v.9c-.2.1,0,.2,0,.3h.2c0,0,.3.2.2.4s-.6,1.4-.6,1.4c0,0-.1.3-.4.2h-.2c0-.1-.2-.1-.2,0l-.6.8c0,0,0,.2,0,.3l.2.2s0,0,.2.1c.2,0,.3,0,.5,0,.9-.5,1.5-1.4,1.8-2.4.5-1.6,0-2.2,0-2.3-.1-.1-.3-.2-.4-.2h-.2c-.1,0-.3,0-.3.2,0,0,0,0,0,0Z"/>
      <path class="st0" d="M77.9,240.7c-2.1-1.8-2.3-5-.5-7.1s5-2.3,7.1-.5c2.1,1.8,2.3,4.9.5,7-1.8,2.1-4.9,2.4-7,.6,0,0,0,0,0,0Z"/>
      <path class="st7" d="M79,237.9l.9-.3c.1,0,.2-.1.2-.2v-.2c0-.2,0-.3.2-.4,0,0,0,0,0,0,.2,0,1.6-.1,1.6-.1,0,0,.4,0,.4.2v.3c0,0,0,.2.2.2l1,.2c.1,0,.2,0,.2-.1v-.3c.1,0,.1-.1,0-.2,0-.2,0-.3-.2-.4-.9-.6-1.9-.8-2.9-.5-1.6.2-2,.9-2,1.1,0,.2,0,.3,0,.5v.2c.1.1.3.2.4.1Z"/>
      <path class="st2" d="M63.4,212.7c1.3-.9,1.6-2.7.8-4.6-1.1-2.5-4-4.3-6.3-3.9s-3.3,2.6-2.2,5.1c.9,1.9,2.6,3.3,4.7,3.8-6.1,2-2.5,9-2.5,9l16.7-1.3s-4.2-8.1-11.1-8.1Z"/>
      <path class="st2" d="M83.1,226.5c0,.3-6,.9-13.4,1.5s-13.5.9-13.5.6,6-1,13.4-1.5,13.5-.9,13.5-.6Z"/>
      <path class="st2" d="M60.3,43.2l.8,1.3c.9,1.4,2.1,2.6,3.6,3.4l1.3.7-1.3.8c-1.5.9-2.6,2.2-3.4,3.7l-.7,1.3-.8-1.3c-.9-1.4-2.1-2.6-3.7-3.4l-1.3-.6,1.3-.8c1.4-.9,2.6-2.1,3.4-3.7l.7-1.3Z"/>
      <path class="st2" d="M57,136.2l.8,1.3c.9,1.5,2.1,2.6,3.7,3.4l1.3.7-1.3.8c-1.5.9-2.6,2.1-3.4,3.6l-.7,1.3-.8-1.2c-.9-1.4-2.1-2.6-3.7-3.4l-1.3-.7,1.3-.8c1.5-.9,2.6-2.1,3.4-3.6l.6-1.4Z"/>
    </g>
  </g>
  <g id="freepik--Floor--inject-49">
    <path class="st3" d="M457.9,463c0,.1-88.7.3-198.2.3s-198.2-.2-198.2-.3,88.7-.3,198.2-.3,198.2,0,198.2.3Z"/>
  </g>
  <g id="freepik--Sparkles--inject-49">
    <path class="st13" d="M109.8,152.6l.7,1.2c.8,1.3,2,2.4,3.4,3.1l1.3.6-1.2.7c-1.3.8-2.4,2-3.1,3.4l-.6,1.2-.7-1.2c-.8-1.3-2-2.4-3.4-3.1l-1.2-.6,1.2-.7c1.3-.8,2.4-2,3.1-3.4l.6-1.2Z"/>
    <path class="st13" d="M369.4,284.3l.7,1.2c.8,1.3,2,2.4,3.4,3.1l1.3.6-1.2.7c-1.3.8-2.4,2-3.1,3.4l-.6,1.2-.7-1.2c-.8-1.3-2-2.4-3.4-3.1l-1.3-.6,1.2-.7c1.3-.8,2.4-2,3.1-3.4l.6-1.3Z"/>
    <path class="st13" d="M228.4,37l.7,1.2c.8,1.3,2,2.4,3.4,3.1l1.3.6-1.2.7c-1.3.8-2.4,1.9-3.1,3.3l-.6,1.3-.7-1.2c-.8-1.3-2-2.4-3.4-3.1l-1.2-.6,1.2-.7c1.3-.8,2.4-2,3.1-3.4l.6-1.2Z"/>
    <path class="st13" d="M397.1,150l.7,1.2c.8,1.3,2,2.4,3.4,3.1l1.2.6-1.2.7c-1.3.8-2.4,2-3.1,3.4l-.6,1.3-.7-1.2c-.8-1.3-2-2.4-3.4-3.1l-1.2-.6,1.2-.7c1.3-.8,2.4-2,3.1-3.4l.6-1.3Z"/>
    <path class="st13" d="M137.1,198.8l.5.9c.6,1,1.5,1.8,2.5,2.3l.9.4-.9.5c-1,.6-1.8,1.5-2.3,2.5l-.4.9-.5-.9c-.6-1-1.5-1.8-2.5-2.3l-.9-.4.9-.5c1-.6,1.8-1.5,2.3-2.5l.5-.9Z"/>
    <path class="st13" d="M161,310.9l.5.9c.6,1,1.4,1.8,2.5,2.3l.9.5-.9.5c-1,.6-1.8,1.5-2.3,2.5l-.4.9-.5-.9c-.6-1-1.4-1.8-2.5-2.3l-.9-.5.9-.5c1-.6,1.8-1.5,2.3-2.5l.4-.9Z"/>
    <path class="st13" d="M389.3,116l.5.9c.6,1,1.5,1.8,2.5,2.3l.9.5-.9.5c-1,.6-1.8,1.5-2.3,2.5l-.5.9-.5-.9c-.6-1-1.5-1.8-2.5-2.3l-.9-.4.9-.5c1-.6,1.8-1.5,2.3-2.5l.5-.9Z"/>
    <path class="st13" d="M90.3,175.2l.5.9c.6,1,1.5,1.8,2.5,2.3l.9.4-.9.5c-1,.6-1.8,1.5-2.3,2.5l-.4.9-.5-.9c-.6-1-1.5-1.8-2.5-2.3l-.9-.4.9-.5c1-.6,1.8-1.5,2.3-2.5l.5-.9Z"/>
    <path class="st13" d="M414.6,121.4l.3.5c.3.6.8,1,1.4,1.3l.5.3-.5.3c-.6.3-1,.8-1.3,1.4l-.3.5-.3-.5c-.3-.6-.8-1-1.4-1.3l-.5-.3.5-.3c.6-.3,1-.8,1.3-1.4l.3-.5Z"/>
    <path class="st13" d="M395.9,265.4l.3.5c.3.6.8,1,1.4,1.3l.5.3-.5.3c-.6.3-1,.8-1.3,1.4l-.3.5-.3-.5c-.3-.6-.8-1-1.4-1.3l-.5-.3.5-.3c.6-.3,1-.8,1.3-1.4l.3-.5Z"/>
    <path class="st13" d="M266.6,25.7l.3.5c.3.6.8,1,1.4,1.3l.5.3-.5.3c-.6.3-1,.8-1.3,1.4l-.3.5-.3-.5c-.3-.6-.8-1-1.4-1.3l-.5-.2.5-.3c.6-.3,1-.8,1.3-1.4l.3-.6Z"/>
    <path class="st13" d="M209.3,51.3l.3.5c.3.6.8,1,1.4,1.3l.5.3-.5.3c-.6.3-1,.8-1.3,1.4l-.3.5-.3-.5c-.3-.6-.8-1-1.4-1.3l-.5-.3.5-.3c.6-.3,1-.8,1.3-1.4l.3-.5Z"/>
    <path class="st13" d="M167.4,324l.3.5c.3.6.8,1,1.4,1.3l.5.3-.5.3c-.6.3-1,.8-1.3,1.4l-.3.5-.3-.5c-.3-.6-.8-1-1.4-1.3l-.5-.3.5-.3c.6-.3,1-.8,1.3-1.4l.3-.5Z"/>
  </g>
  <g id="freepik--light-bulb--inject-49">
    <path class="st13" d="M314.6,397.8l-124-.3c-5.1,0-9.3-3.6-9.3-8.1h0c0-4.4,4.2-8,9.3-8l124,.3c5.1,0,9.3,3.6,9.3,8.1h0c0,4.4-4.2,8-9.3,8Z"/>
    <path class="st13" d="M314.6,378.3l-124-.3c-5.1,0-9.3-3.6-9.3-8.1h0c0-4.5,4.2-8,9.3-8l124,.3c5.1,0,9.3,3.6,9.3,8.1h0c0,4.4-4.2,8-9.3,8Z"/>
    <path class="st13" d="M309.6,400.8l-113.5-.3c-4.7.3-8.2,4.4-7.9,9.1.3,4.2,3.7,7.6,7.9,7.9h12.5l16.5,31.6c1.9,3.6,5.6,5.9,9.7,5.9h40.6c4.1.1,7.9-2.2,9.8-5.8l16.1-31.3h8.5c4.7-.3,8.2-4.4,7.9-9.1-.3-4.2-3.7-7.6-7.9-7.9h0Z"/>
    <path class="st3" d="M348.6,268.7h0s-.3.5-.9,1.4l-2.7,4-2,3c-.7,1.1-1.4,2.3-2.2,3.7l-2.6,4.3c-1,1.5-1.8,3.2-2.8,5-.5.9-1,1.8-1.5,2.8-.2.5-.5,1-.8,1.4s-.5,1-.7,1.5c-1,2-2,4.2-3,6.4l-2.9,7.2c-.9,2.5-1.9,5.2-2.8,7.9-1.9,5.9-3.5,12-4.7,18.1-1.4,6.9-2,13.9-2,21v.2h-132.5c0,0-.2,0-.2,0v-.2c-1.4-15.5-5.4-30.6-11.9-44.8-3.4-7.5-7.3-14.7-11.8-21.7-2.2-3.5-4.6-7-7.1-10.4s-5.3-6.7-8-10l-.3-.4h.5l-.2.4c-12.4-15.9-20.9-34.6-24.7-54.4-.5-2.5-.9-5.1-1.3-7.7-.2-1.3-.3-2.6-.4-3.9l-.2-2v-2c-.2-1.3-.3-2.6-.4-3.9s0-2.6,0-4,0-2.6,0-4,0-2.7.1-4c.6-10.7,2.5-21.3,5.7-31.6,9.2-28.9,28.4-53.7,54.1-69.9,6.1-3.9,12.6-7.2,19.2-10,6.6-2.7,13.3-4.9,20.2-6.5,13.4-3.1,27.2-4,40.9-2.8,6.6.6,13.1,1.7,19.6,3.3,6.2,1.6,12.4,3.7,18.3,6.1,5.8,2.5,11.3,5.3,16.7,8.5,5.2,3.2,10.1,6.7,14.8,10.5,8.9,7.3,16.8,15.8,23.5,25.2,6.2,8.7,11.2,18.1,15,28,1,2.3,1.7,4.7,2.5,7.1s1.4,4.7,2,7c.5,2.4,1.1,4.7,1.6,7,.2,1.2.4,2.3.6,3.4s.4,2.3.5,3.4c1.2,8.5,1.6,17.1,1.2,25.7-.8,13.8-3.9,27.3-9,40.2-1.9,4.7-4,9.2-6.4,13.6-2.1,3.8-4.1,7-5.7,9.4l-2.2,3.2-1.7,2.3-1.4,1.9,1.3-1.9,1.7-2.3,2.2-3.3c1.6-2.5,3.6-5.6,5.7-9.4,2.4-4.4,4.5-9,6.4-13.6,8.3-20.9,10.9-43.5,7.7-65.8-.1-1.1-.3-2.3-.5-3.4s-.4-2.3-.6-3.4c-.5-2.3-1-4.6-1.6-7s-1.3-4.7-2-7-1.5-4.7-2.5-7.1c-3.8-9.9-8.8-19.3-15-27.9-6.7-9.4-14.5-17.8-23.4-25.1-4.7-3.8-9.6-7.3-14.8-10.5-5.4-3.2-10.9-6-16.7-8.5-5.9-2.5-12-4.5-18.3-6.1-6.4-1.6-12.9-2.7-19.5-3.3-13.7-1.3-27.4-.3-40.8,2.8-6.9,1.6-13.6,3.7-20.2,6.4-6.6,2.8-13.1,6.1-19.1,10-25.6,16.2-44.7,40.9-53.9,69.8-3.2,10.2-5.1,20.8-5.7,31.5,0,1.3,0,2.6-.1,4s-.1,2.6,0,3.9,0,2.6,0,3.9.2,2.6.2,3.9v2c.1,0,.3,2,.3,2,.1,1.3.3,2.6.4,3.9.4,2.6.7,5.1,1.2,7.7,3.8,19.7,12.2,38.3,24.6,54.2l.3.4h-.5l.2-.4c2.7,3.3,5.5,6.5,8,10s4.9,6.9,7.2,10.5c4.4,7,8.4,14.2,11.8,21.7,6.5,14.2,10.6,29.4,12,44.9l-.2-.2h132.4c0,0-.2.2-.2.2,0-7.1.7-14.1,2.1-21,1.2-6.1,2.8-12.2,4.7-18.1,1-2.8,1.9-5.4,2.8-7.9s2-4.9,3-7.2,2.1-4.4,3-6.4l.7-1.5.8-1.4c.5-.9,1-1.9,1.5-2.8,1-1.8,1.8-3.5,2.8-5l2.6-4.3c.8-1.3,1.5-2.6,2.3-3.6s1.4-2.1,2-2.9l2.7-4,1-1.4h0v-.2Z"/>
    <path class="st3" d="M136.7,233.6c0,0,0-.2-.1-.3,0-.2-.2-.5-.3-.9-.3-.8-.6-1.9-1.1-3.3l-.8-2.4c-.2-.9-.5-1.8-.7-2.9-.5-2.1-1.2-4.4-1.6-7-.2-1.3-.5-2.7-.8-4.1s-.4-2.9-.6-4.5c-.5-3.1-.6-6.4-.9-10-.3-7.6,0-15.3,1-22.9,1.1-7.6,2.8-15,5.1-22.3,1.2-3.3,2.2-6.5,3.5-9.4.6-1.4,1.1-2.9,1.8-4.2l1.8-3.8c1.1-2.4,2.4-4.5,3.4-6.3.5-.9,1-1.8,1.5-2.6l1.4-2.1,1.9-2.9.5-.7c.1-.2.2-.2.2-.2s0,0-.1.3l-.5.8-1.8,2.9-1.3,2.1c-.5.8-.9,1.7-1.4,2.6-1,1.9-2.2,3.9-3.3,6.4l-1.8,3.8c-.6,1.3-1.1,2.7-1.7,4.2-1.3,2.9-2.3,6-3.4,9.4-2.3,7.3-3.9,14.7-5,22.2-1,7.6-1.3,15.2-1.1,22.8.2,3.5.4,6.8.8,9.9.2,1.6.3,3.1.6,4.5s.5,2.8.7,4.1c.4,2.6,1,5,1.5,7,.2,1,.5,2,.7,2.9s.5,1.6.7,2.4c.4,1.4.7,2.5,1,3.3l.2.9c0,.1,0,.2,0,.3Z"/>
    <path class="st3" d="M174.9,99c-2.2,2.2-4.5,4.3-6.9,6.3-2.3,2.1-4.7,4.1-7.2,5.9,2.2-2.2,4.5-4.3,6.9-6.3,2.3-2.1,4.7-4.1,7.2-5.9Z"/>
    <path class="st3" d="M350,248.1s0,0,0-.2l.3-.6,1.2-2.5.9-1.8c.3-.6.6-1.4,1-2.1.7-1.6,1.5-3.3,2.2-5.3l1.2-3.1c.4-1.1.8-2.2,1.2-3.4.8-2.4,1.5-4.9,2.3-7.6,1.5-5.9,2.7-11.9,3.5-17.9.7-6,1-12.1.9-18.2-.1-2.8-.2-5.5-.4-8-.1-1.2-.2-2.4-.3-3.6s-.3-2.2-.4-3.3c-.2-2.1-.6-4-.9-5.6-.1-.8-.3-1.6-.4-2.3s-.3-1.3-.4-1.9l-.6-2.7c0-.3-.1-.5-.1-.7,0,0,0-.2,0-.2,0,0,0,.2,0,.2,0,.2.1.4.2.7.2.6.4,1.5.7,2.6l.5,1.9c.2.7.3,1.5.5,2.3.3,1.7.7,3.6,1,5.7l.5,3.3c.1,1.2.2,2.4.4,3.6.3,2.5.4,5.2.5,8,.3,12.2-1.2,24.4-4.4,36.2-.8,2.7-1.5,5.3-2.4,7.6-.4,1.2-.8,2.3-1.2,3.4l-1.2,3.1c-.8,2-1.6,3.7-2.3,5.3-.4.8-.7,1.5-1,2.1l-.9,1.8-1.3,2.4-.3.6c0,0-.1.2-.2.2Z"/>
  </g>
  <g id="freepik--Robot--inject-49">
    <path class="st8" d="M308.5,125.7c-6.8-3.9-14-7.5-21.7-9.2-1.1-.3-2.2-.4-3.3-.3-1.1.1-2.1.8-2.6,1.8-.7,1.4,0,3,.8,4.3,1.9,2.8,4.6,4.8,7.4,6.7,7.6,5.1,15.9,9.2,24,13.3-1-5.8-3.1-10.9-4.6-16.6"/>
    <path class="st8" d="M360.9,140.8c2.2,7.6,4.9,15.1,9.3,21.6.6,1,1.3,1.8,2.2,2.5.9.7,2.1.9,3.1.6,1.4-.5,2.1-2.1,2.4-3.6.6-3.3,0-6.7-.7-9.9-2-9-5.1-17.6-8.2-26.2-3.3,4.9-5.3,10-8.1,15.2"/>
    <path class="st8" d="M308.4,125.5s.5,52.4,29.9,53.4,30.6-53,30.6-53.4c0,0-3.5-7.8-30.3-7.5s-30.3,7.5-30.3,7.5Z"/>
    <path class="st3" d="M347.4,146.3c-.4,5.6-5.3,9.8-10.8,9.4s-9.8-5.3-9.4-10.8c.4-5.6,5.3-9.8,10.8-9.4,0,0,0,0,0,0,5.6.4,9.8,5.3,9.4,10.8Z"/>
    <path class="st7" d="M344.7,146.1c-.3,4.1-3.8,7.1-7.9,6.8-4.1-.3-7.1-3.8-6.8-7.9s3.8-7.1,7.9-6.8c0,0,0,0,0,0,4.1.3,7.1,3.8,6.8,7.9Z"/>
    <path class="st8" d="M341.1,147.5c0-.4,0-.8,0-1.2v-3.2h0c0,.1-3.8-2.1-3.8-2.1h.2l-3.8,2.1c-.1.2.1-.2.1-.2h0v4.4-.2c-.1,0,3.6,2.3,3.6,2.3h-.2c1.2-.6,2.1-1.1,2.8-1.5.4-.2.7-.4,1.1-.5-.3.2-.6.4-1,.6-.6.4-1.6,1-2.8,1.6h0c0,0,0,0,0,0l-3.8-2.2h-.1v-4.5h0s.2-.4.1-.2l3.9-2.1h.1c0,0,.1,0,.1,0l3.8,2.3h0c0,1.5,0,2.6-.1,3.3,0,.4,0,.8-.1,1.2Z"/>
    <path class="st3" d="M308.3,125.5h.2l.4.2,1.7.6,1.2.4,1.5.5c1.1.3,2.3.7,3.6,1l2.1.5c.7.2,1.5.3,2.3.5,1.6.4,3.4.6,5.2.9,8,1.1,16,1.1,24,0,1.8-.3,3.6-.5,5.2-.9.8-.2,1.6-.3,2.3-.5l2.1-.6c1.4-.3,2.6-.7,3.6-1,.5-.2,1-.3,1.5-.4l1.2-.4,1.7-.6.4-.2h.2c0,0,0,0-.1,0l-.4.2-1.7.6-1.2.5c-.5.2-1,.3-1.5.5-1.1.3-2.3.7-3.6,1.1l-2.1.6c-.7.2-1.5.3-2.3.5-1.6.4-3.4.6-5.2.9-8,1.2-16.1,1.2-24.1,0-1.8-.3-3.6-.6-5.2-.9-.8-.2-1.6-.3-2.3-.5l-2.1-.6c-1.4-.3-2.6-.8-3.6-1.1l-1.5-.5-1.2-.5-1.7-.6-.4-.2h-.1Z"/>
    <g class="st11">
      <path d="M308.4,125.5s3.5-7.2,30.3-7.5,30.3,7.5,30.3,7.5c0,0-27,13.3-60.5,0Z"/>
    </g>
    <path class="st7" d="M317.6,162.8s0,0,0,0v-.2c-.1,0-.6-.9-.6-.9l-.3-.7-.4-.8c-.3-.6-.6-1.2-.9-2l-.5-1.2-.5-1.3c-.4-.9-.6-1.9-1-2.9-.6-2-1.2-4.3-1.8-6.7s-.9-4.7-1.2-6.8-.5-4-.6-5.6c0-.8-.1-1.5-.2-2.2s0-1.2,0-1.6v-1.4h0v.4c0,.3,0,.6,0,1s0,1,.1,1.6.1,1.4.2,2.2c.1,1.6.4,3.5.7,5.6s.7,4.4,1.3,6.8,1.1,4.6,1.8,6.7c.3,1,.6,2,1,2.9l.5,1.3.5,1.2c.3.8.6,1.4.8,2l.4.8.3.7.5.9v.2c.1,0,.1,0,.1,0Z"/>
    <path class="st7" d="M331.8,175.4c-.2,0-.3,0-.5,0-.4,0-.8-.2-1.2-.3-.6-.2-1.2-.4-1.8-.7-.7-.3-1.4-.7-2-1.2-.6-.5-1.2-1-1.8-1.5-.5-.5-.9-.9-1.2-1.4-.3-.3-.5-.7-.7-1.1,0-.1-.2-.3-.2-.4,0,0,.4.6,1,1.4.4.5.8,1,1.3,1.4.6.5,1.2,1,1.8,1.5.6.4,1.3.8,2,1.2.6.3,1.1.5,1.7.7,1,.3,1.7.5,1.7.5Z"/>
    <path class="st7" d="M337.9,156.9h-1.1c-1,0-2-.2-2.9-.5-1.4-.4-2.7-1.1-3.9-2.1-2.9-2.3-4.5-5.9-4.1-9.5,0-.8.2-1.6.4-2.3.2-.7.4-1.3.7-1.9.4-.9,1-1.7,1.7-2.5.2-.2.4-.4.6-.6.1-.1.2-.2.2-.2s-.3.3-.7.8c-.6.7-1.2,1.6-1.6,2.5-.3.6-.5,1.2-.7,1.9-.2.7-.3,1.5-.4,2.3-.3,3.6,1.2,7.1,4.1,9.4.6.5,1.3.9,1.9,1.3.6.3,1.2.6,1.9.8.9.3,1.9.5,2.9.5.7,0,1.1,0,1.1,0Z"/>
    <path class="st8" d="M336.6,71.1s-25.6-.3-29.6,21.9,17.6,22.6,23.8,23c2.8.2,8.9.2,14.2.1,11.8-.2,20.1-2.5,23-13.4.3-1.3.6-2.6.6-3.9.7-12-7.4-28.2-32.1-27.6Z"/>
    <path class="st3" d="M355.2,104.9l-37.2.6c-3.9,0-7.1-3.1-7.2-6.9,0,0,0,0,0,0h0c0-3.9,3-7.1,7-7.2l37.2-.5c3.9,0,7.1,3.1,7.2,7h0c0,3.9-3.1,7.1-7,7.2Z"/>
    <path class="st7" d="M325.7,97.8c-.2,1.2-1.4,2-2.7,1.8-1.2-.2-2-1.4-1.8-2.7s1.4-2,2.7-1.8c0,0,0,0,0,0,1.2.2,2,1.4,1.8,2.7Z"/>
    <path class="st7" d="M351.7,97.3c-.2,1.2-1.4,2-2.7,1.8-1.2-.2-2-1.4-1.8-2.7.2-1.2,1.4-2,2.7-1.8,0,0,0,0,0,0,1.2.2,2,1.4,1.8,2.7Z"/>
    <path class="st7" d="M332.2,96.7c.2,0,0,.8.6,1.9.3.6.7,1.1,1.2,1.6.6.5,1.3.8,2.1.9.8,0,1.6-.1,2.3-.5.6-.3,1.1-.8,1.5-1.3.7-.9.7-1.7.9-1.7s.1.2.1.6c0,.5-.2,1.1-.4,1.5-.4.7-.9,1.3-1.6,1.8-.8.6-1.9.8-2.9.8-1-.1-2-.6-2.7-1.3-.6-.5-1-1.2-1.2-2-.2-.5-.2-1.1-.1-1.6,0-.4.2-.6.2-.6Z"/>
    <path class="st7" d="M333.4,72.8h-.4c-.2,0-.6,0-1,0-1.3.1-2.5.3-3.8.6-1.8.4-3.6,1.1-5.4,1.9-2.1,1-4.1,2.2-5.9,3.7-3.2,2.7-5.8,6.1-7.6,10-.5,1.2-1,2.4-1.3,3.6-.1.4-.2.8-.3,1v.3c0,0,0,0,0,0h0c0,0,0-.4,0-.4,0-.2.1-.6.2-1,.3-1.2.7-2.5,1.2-3.6.8-1.8,1.7-3.4,2.8-5,3.9-5.4,9.6-9.2,16.1-10.6,1.3-.3,2.5-.5,3.8-.6h1.4Z"/>
    <path class="st7" d="M308.3,103.5c-.2-.2-.3-.5-.4-.8-.2-.6-.4-1.3-.5-2-.1-.7-.1-1.4-.1-2.1,0-.3,0-.6.1-.9,0,0,0,1.3.2,3s.7,2.8.7,2.8Z"/>
    <path class="st7" d="M349,89.5c0,0-4.9.1-10.9.1s-11,0-11-.1,4.9,0,11,0,10.9,0,10.9,0Z"/>
    <path class="st7" d="M330.4,114.4h-2.7c-1,0-2,0-2.9-.2-1.2-.1-2.4-.3-3.5-.6-1.2-.3-2.3-.6-3.4-1-.9-.3-1.8-.7-2.7-1.1-.4-.2-.7-.4-1-.5s-.5-.3-.7-.4l-.5-.3h-.1c0-.1,0-.1.2,0l.5.2c.2.1.5.2.8.4s.6.3,1,.5c.8.3,1.7.7,2.7,1.1,1.1.4,2.3.7,3.4,1,1.2.3,2.3.5,3.5.6,1.1.1,2.1.2,2.9.2h2.7Z"/>
    <path class="st7" d="M361.7,128.7h-.4c0,.1-1.1.5-1.1.5-.5.2-1.1.4-1.8.6s-1.5.5-2.4.7l-1.4.4-1.5.4c-1,.2-2.2.4-3.4.7-2.6.4-5.2.7-7.8.9-2.6.1-5.2.1-7.9,0-1.2,0-2.4-.1-3.4-.3l-1.5-.2-1.4-.2c-.9-.1-1.7-.3-2.4-.4s-1.3-.2-1.8-.4l-1.1-.3h-.3c0,0-.1,0-.1,0h.4c0,0,1.2.3,1.2.3.5.1,1.1.2,1.8.3s1.5.3,2.4.4l1.4.2c.5,0,1,.1,1.5.1,1.1.1,2.2.2,3.4.2,2.4.1,5.1.1,7.9,0s5.4-.5,7.8-.9c1.2-.2,2.3-.4,3.4-.7.5-.1,1-.2,1.5-.3l1.4-.4c.9-.2,1.7-.5,2.4-.7s1.3-.4,1.8-.6l1.1-.4h.3c0,0,0,0,0,0Z"/>
  </g>
  <g id="freepik--Rocket--inject-49">
    <path class="st5" d="M118.4,300.9v13.9c0,0,23.1-13,16.3-25.5l-16.3,11.6Z"/>
    <path class="st5" d="M120.6,268.8s-16.6-6.1-29.2,5.2l12.9,7.3,16.2-12.5Z"/>
    <path class="st12" d="M104.4,281.3c.5.7,14,19.5,14,19.5l35.2-25c5.8-4.1,7.2-12.1,3.1-17.9-.2-.3-.4-.6-.6-.8h0c-4.4-5.2-12.2-6.1-17.7-1.9l-34,26.1Z"/>
    <path class="st3" d="M104.4,281.3c0,0,.2-.2.3-.2l.9-.7,3.4-2.7,12.8-9.9,8.9-6.9,4.9-3.8,2.6-2c.9-.7,1.9-1.3,2.9-1.7.5-.2,1.1-.4,1.6-.6.6-.1,1.1-.3,1.7-.3,1.2-.2,2.4-.2,3.6,0,2.5.3,4.8,1.4,6.6,2.9,1,.8,1.8,1.8,2.5,2.8.7,1.1,1.3,2.2,1.6,3.5.7,2.5.7,5.2-.1,7.8-.8,2.4-2.2,4.5-4.2,6.1-2,1.5-3.9,2.8-5.9,4.2l-11.1,7.9-19,13.4h-.2c0,.1-.1,0-.1,0-4.3-6.1-7.8-11-10.2-14.4l-2.7-3.9-.7-1c0-.1-.2-.2-.2-.3,0,.1.2.2.3.4.2.2.4.6.8,1l2.8,3.9,10.3,14.2h-.3l18.9-13.5c3.6-2.5,7.3-5.1,11.1-7.9,1.9-1.4,3.9-2.7,5.8-4.2,1.9-1.5,3.3-3.6,4-5.9.8-2.4.8-5,0-7.5-.4-1.2-.9-2.3-1.6-3.3-2-3-5.2-5.1-8.8-5.6-1.1-.2-2.3-.2-3.4,0-.6,0-1.1.2-1.7.3-.5.1-1.1.3-1.6.6-2.1.8-3.7,2.4-5.4,3.6l-4.9,3.8-8.8,6.7-12.9,9.8-3.5,2.7-.9.7-.3.2Z"/>
    <path class="st5" d="M121.2,280.2l-22,15.8s1,2.4,1.6,2.2,17.1-11.5,22.5-15.2c.8-.5,1-1.6.5-2.4,0,0-.1-.1-.2-.2h0c-.6-.6-1.6-.7-2.3-.2Z"/>
    <path class="st7" d="M144.1,270.3c.3,4.1-2.8,7.6-6.9,7.8-4.1.3-7.6-2.8-7.8-6.9-.3-4.1,2.8-7.6,6.9-7.8,0,0,0,0,0,0,4.1-.3,7.5,2.8,7.8,6.9Z"/>
    <path class="st3" d="M144.1,270.3s0-.6-.4-1.7c-.5-1.5-1.6-2.9-2.9-3.8-2-1.3-4.6-1.5-6.8-.5-2.7,1.2-4.4,4-4.2,7,.1,1.5.7,2.9,1.6,4.1,1.8,2.1,4.6,3,7.2,2.4,1.1-.3,2.1-.8,2.9-1.5,1.2-1.1,2.1-2.5,2.4-4.1.1-.6.2-1.2.2-1.8,0,.2,0,.3,0,.5,0,.5,0,.9,0,1.4-.5,2.9-2.6,5.3-5.4,6-2.8.7-5.8-.2-7.7-2.4-1-1.2-1.7-2.8-1.8-4.4-.2-3.2,1.6-6.2,4.6-7.4,1.2-.5,2.6-.7,3.9-.6,2.9.4,5.3,2.4,6.2,5.2.1.4.2.9.2,1.3,0,.1,0,.3,0,.4Z"/>
    <path class="st5" d="M155.2,274.5c11.8-11.1,9.7-23.9,9.7-23.9-15.9-4.2-26.6,4.6-26.6,4.6,10.6,1.5,16.3,7.9,16.9,19.3Z"/>
  </g>
  <g id="freepik--Character--inject-49">
    <path class="st1" d="M280.9,227.4l4.1,37.8,24.3,8.1,1,11.8-34.3-2.3s-10.6.3-12.9-13.7l-.6-36.6,18.3-5Z"/>
    <path class="st1" d="M331.4,284.9c-.4.5-1.2.7-1.8.5-.1,0-.3-.1-.4-.2-.9-.5-.3-2.4-.3-2.4l-4.3-1.9s-6.8,2.2-9.6,4.2-7.5-1.5-7.5-1.5l.7-10,10.2-5.3s-.6.3.3-.9,3.4,0,3.4,0c.6-.6,2.3-.4,2.3-.4l7,2.7c1.4.6,2.5,1.8,3,3.2l1.8,5.6s.7,3.9.2,4.7c-.4.6-1.3.9-1.9.5,0,0-1,2.2-1.6,2.1-.6-.2-1.2-.5-1.7-.9h0Z"/>
    <path class="st4" d="M317,283.9c.2,0,.4-.1.5-.2l1.5-.6c1.8-.8,3.7-1.4,5.6-2h-.1l4.3,2v-.2c-.2.4-.3.7-.3,1.1,0,.4,0,.8.2,1.2.1.2.3.3.5.4.2.1.4.2.6.2.5,0,.9,0,1.3-.3,0,0,.2-.1.3-.2h0c0,0-.3,0-.3,0h.1c0,.1.5.5.5.5.2.1.4.2.6.3.1,0,.2,0,.3.1.1,0,.3,0,.4,0,.2,0,.4-.3.6-.5.1-.2.3-.4.4-.6.2-.4.4-.8.6-1.2h-.3c.6.4,1.3.4,1.8,0,.3-.2.5-.5.5-.8,0-.3.2-.6.2-.9,0-1.2-.2-2.4-.4-3.5h0c-.3-1-.6-2-1-3-.2-.6-.4-1.3-.6-1.9-.2-.7-.4-1.3-.7-1.9-.3-.6-.8-1.1-1.3-1.5-.5-.4-1.1-.7-1.7-.9l-6.6-2.6h0c-.4,0-.9,0-1.3,0-.4,0-.9.2-1.2.5h.3c-.7-.5-1.5-.7-2.4-.5-.7.3-1.3.8-1.6,1.5h0c0,0-7,3.5-7,3.5l-1.9,1c-.2.1-.4.2-.6.4.2,0,.5-.2.7-.3l1.9-.9,7.1-3.5h0c.3-.7.8-1.1,1.4-1.4.7-.2,1.4,0,2,.4h.1c0,.1.1,0,.1,0,.3-.2.6-.3,1-.3.4,0,.8,0,1.2,0h0l6.6,2.6c.6.2,1.1.5,1.6.8.5.4.9.8,1.2,1.4.3.6.5,1.2.7,1.8.2.6.4,1.3.6,1.9.3,1,.6,2,1,3h0c.2,1.1.3,2.3.4,3.5,0,.3,0,.5,0,.8,0,.2-.2.4-.4.6-.4.3-.9.3-1.3,0h-.2c0,0,0,.1,0,.1-.2.4-.4.8-.6,1.1-.2.3-.4.6-.7.8,0,0-.1,0-.2,0,0,0-.2,0-.3-.1-.2,0-.4-.2-.5-.3-.2-.1-.3-.2-.5-.3h-.1c.3,0-.4,0-.3,0h0c0,.1-.1.2-.2.2-.3.2-.6.3-1,.3-.2,0-.3,0-.5-.2-.2,0-.3-.1-.4-.3-.2-.6-.2-1.4,0-2v-.2h-.1c0,0-4.3-2-4.3-2h-.1c-1.9.6-3.8,1.3-5.6,2.2-.6.3-1.1.5-1.4.7-.2,0-.4,0-.6.2Z"/>
    <path class="st4" d="M322.7,270.1c.6.5,1.4,1,2.1,1.3,1.9.9,3.8,1.6,5.9,2l-.2-.2c0,.4,0,.8.1,1.2.3,2.3,1,4.6,2.2,6.7.3.6.7,1.2,1.2,1.8.3.4.5.6.5.6s-.6-.9-1.4-2.5c-1-2.1-1.7-4.3-2-6.6,0-.4,0-.8-.1-1.2v-.2h-.2c-2-.4-3.9-1-5.8-1.8-1.4-.7-2.2-1.2-2.3-1.1Z"/>
    <path class="st4" d="M328.5,276.1c-.1,3.1,1,6.2,3.1,8.5.1,0-1.1-1.8-1.9-4.1s-1-4.4-1.2-4.4Z"/>
    <path class="st4" d="M306.9,280.2s0,0,.2.2c.2.2.4.3.6.5.8.5,1.8.9,2.8,1.1,1.5.3,3.1.2,4.5-.4,1.8-.7,3.3-2,4.3-3.7h-.3c2.2,1.2,4.7,1.8,7.2,2,.7,0,1.3,0,2-.1.4,0,.7-.3.9-.6.2-.3.3-.7.2-1.1,0-.4-.3-.7-.6-.9l-.8-.4c-2.1-1.1-4-2-5.6-2.7s-3-1.2-3.9-1.6c-.5-.2-1-.4-1.5-.5.5.2.9.5,1.4.6.9.4,2.2,1,3.8,1.7s3.5,1.7,5.5,2.8l.8.4c.2.1.4.3.4.6,0,.2,0,.5-.1.7-.2.2-.4.3-.6.4-.6.1-1.2.2-1.8.1-2.4-.1-4.8-.8-7-1.8h-.2c0-.1-.1.1-.1.1-.9,1.6-2.3,2.9-4,3.6-1.4.6-2.8.7-4.3.5-1-.2-1.9-.5-2.7-.9-.6-.4-.9-.6-1-.6Z"/>
    <path class="st3" d="M336.2,421.4c0-.3,0-.6,0-.9-.1-.9-.5-1.7-1-2.4-.2-.3-.3-.5-.6-.7-.3-.3-.7-.4-1.1-.2-.2,0-.4.3-.5.5,0,.2,0,.4,0,.6.1.3.3.7.5,1,.4.6.7,1.2,1.1,1.9.3.4.8.6,1.3.6.4,0,.9-.3,1.2-.5.7-.5,1.3-1,1.8-1.7.3-.3.5-.6.7-.9.2-.3.4-.7.5-1.1.1-.5-.1-.9-.5-1.1-.4-.1-.8,0-1.1.3-.5.4-.9.9-1.2,1.4-.5.7-.9,1.5-1.2,2.3-.1.3-.2.6-.2.9.5-1.1,1-2.1,1.7-3,.3-.5.7-.9,1.1-1.2.2-.2.4-.2.7-.2.2.1.3.4.2.6,0,.3-.3.6-.5.9-.2.3-.4.6-.7.9-.5.6-1.1,1.1-1.7,1.6-.3.2-.6.4-1,.4-.3,0-.6,0-.8-.4-.4-.6-.8-1.3-1.1-1.9-.2-.3-.3-.6-.5-.9-.1-.3,0-.5.1-.5.4-.2.9.3,1.1.7.6.9,1.1,2,1.3,3.1Z"/>
    <polygon class="st1" points="311.8 422.2 299.7 448.5 280.1 439.4 292.7 406.9 311.8 422.2"/>
    <path class="st13" d="M302,446.7l-7.1,13.5s18.1,18.8,16.4,22.9l-42.6-20.4,11.7-27.1,21.6,11.1Z"/>
    <path class="st0" d="M282.6,452.1c-1-.1-1.9.5-2.1,1.4-.2,1,.4,1.9,1.4,2.1,1,.2,2-.5,2.3-1.5,0-1-.7-1.9-1.7-2.1"/>
    <g class="st10">
      <path class="st7" d="M268.7,462.7l1.8-3.4,40.2,20.9s1.5,1.7.6,3l-42.6-20.5Z"/>
    </g>
    <path class="st3" d="M295.7,460.3c-.1.2-1.2-.2-2.5,0s-2.3.8-2.5.6.7-1.2,2.4-1.4,2.8.6,2.6.8Z"/>
    <path class="st3" d="M299.3,464.3c0,.2-1.1.1-2.2.7s-1.8,1.4-2,1.3.2-1.4,1.6-2,2.7-.2,2.6,0Z"/>
    <path class="st3" d="M299.3,470.9c-.2,0,0-1.2,1.1-2.1s2.3-.9,2.3-.6-.9.5-1.8,1.3-1.4,1.6-1.6,1.5Z"/>
    <path class="st3" d="M297.7,455.1c-.2.1-1-.6-2.2-1.1s-2.3-.5-2.3-.8,1.2-.5,2.6,0,2.1,1.7,1.9,1.9Z"/>
    <path class="st3" d="M306,443.2l32-80s-.7-13.6-3.2-18-78.6-29.4-78.6-29.4c0,0-19.4-4.7-32.3,0s-22.6,20.8-20.8,29.8,10.1,16.3,10.1,16.3l55.3,1,30.5,11.1-20.5,58.9,27.8,10.3Z"/>
    <polygon class="st1" points="334.4 388.6 335.1 417.5 313.6 418 310.5 383.3 334.4 388.6"/>
    <path class="st13" d="M336.4,414.9l-.4,15.2s24.5,8.8,24.9,13.3l-47.3.5-1.5-29.5,24.3.4Z"/>
    <path class="st0" d="M321.4,428.3c-.9.3-1.5,1.3-1.3,2.2.3,1,1.2,1.5,2.2,1.3,1-.3,1.6-1.3,1.4-2.4-.4-1-1.4-1.5-2.4-1.1"/>
    <g class="st10">
      <path class="st7" d="M313.6,444v-3.8c0,0,45.4,1,45.4,1,0,0,2.1.9,1.9,2.4l-47.3.4Z"/>
    </g>
    <path class="st3" d="M336.8,429.9c0,.2-1.2.4-2.3,1.1s-1.7,1.7-1.9,1.6.1-1.4,1.5-2.3,2.8-.6,2.7-.4Z"/>
    <path class="st3" d="M341.8,431.9c0,.2-.9.6-1.7,1.6s-1,2-1.2,2-.4-1.3.6-2.5,2.3-1.3,2.3-1.1Z"/>
    <path class="st3" d="M344.6,437.8c-.2,0-.5-1.1,0-2.4s1.7-1.8,1.8-1.6-.6.9-1,1.9-.5,2-.8,2Z"/>
    <path class="st3" d="M336.3,424.4c0,.2-1.2-.1-2.5,0s-2.3.5-2.4.3.9-1,2.4-1.1,2.6.6,2.5.8Z"/>
    <path class="st3" d="M321.8,308.3s12.9-1,14.3,13,2.8,79.3,2.8,79.3l-30.2,2.5-4.7-66.8-48.1-20.5s57.1-9.4,65.8-7.6Z"/>
    <path class="st3" d="M268.6,289.4s7.8,22,6.3,24.4-21.6,12.5-21.6,12.5l-50.4,19.4s-5.2-8.2-5.2-20.9,17.5-35.4,17.5-35.4h53.3Z"/>
    <path class="st13" d="M253.7,314.7s0,0,.2.1l.7.3,2.8,1.2,10.5,4.6,36.2,15.6-.2-.2c.5,6.6,1,13.7,1.5,21.1,1.2,17.2,2.4,33.1,3.2,45.7v.2h.2l22-1.9,6-.6,1.6-.2c.2,0,.4,0,.5,0h-2.1c0,.1-6.1.6-6.1.6l-22,1.7.2.2c-.9-12.6-2-28.5-3.1-45.7-.5-7.4-1-14.5-1.5-21.1v-.2h-.1c0,0-36.2-15.5-36.2-15.5l-10.5-4.4-2.8-1.2-.7-.3h-.2Z"/>
    <path class="st13" d="M213.6,316.9c.5,0,1-.2,1.4-.4l3.8-1.2c4.1-1.4,8.4-2.5,12.7-3.2,4.3-.7,8.7-.7,13,.2,1.8.4,3.5.9,5.2,1.5-.4-.3-.8-.5-1.3-.7-1.2-.5-2.5-.9-3.8-1.2-4.3-.9-8.8-1.1-13.2-.3-4.3.7-8.6,1.9-12.7,3.4-1.6.6-2.9,1-3.7,1.4-.5.1-.9.3-1.3.5Z"/>
    <path class="st13" d="M220.7,305.4c1.5,0,2.9,0,4.4,0,1.4,0,3,.3,4.8.5s3.8.5,5.8.8c3.5.6,6.9,1.8,9.9,3.7,1.2.8,2.3,1.8,3.4,2.8-.2-.4-.4-.7-.7-1-.7-.8-1.6-1.5-2.5-2.1-3-2-6.4-3.3-10-3.9-2.1-.4-4.1-.6-5.9-.8s-3.4-.4-4.8-.4c-1.1,0-2.2,0-3.3.1-.4,0-.8.1-1.1.3Z"/>
    <path class="st3" d="M243,128.9c-5.8-1-10.9,1.2-15.8,4.5-4.9,3.4-8.6,8.1-10.7,13.7-2.3,5.8-2.7,12.2-1.1,18.2,1.7,6,5.8,11.1,11.3,14.1,7.5,3.8,17.2,2.5,23.9-2.6s10.6-13.5,10.9-22c.3-5.9-1.2-11.7-4.4-16.6-3.2-4.9-8.4-8.3-14.2-9.3"/>
    <path class="st3" d="M226.5,148.6c.9-2.2.5-4.7.9-7.1.7-5.2,4.9-9.3,9.7-11.4,4.5-1.9,10-1.5,15.4.3,3.8,1.1,7.1,3.3,9.7,6.3,3.3,4.1,4.4,9.5,3,14.6l-26.5-3.9c-2.5,2.1-5,4.1-8,5.3-.9.4-1.8.5-2.8.4-1-.1-1.8-.8-2.1-1.7-.3-1,.3-2,.7-2.9Z"/>
    <path class="st1" d="M253,137.8l-23.1,4.9c-2.2.2-4,2-4,4.2l.3,50.1c0,3.4,1.2,6.7,3.3,9.4l2.2,2.9c5,6.5,15.2,5.8,19.1-1.4.2-.4.4-.9.5-1.3,0-.4.2-.8.2-1.1l.4-4.9c.2-4.5.2-9,.2-8.9s9.5-1.2,11.9-13.4c1.2-6.1,1.3-16.1,1.1-24.3-.2-7.4-4.7-16.6-12.1-16.1Z"/>
    <path class="st3" d="M261.2,164.1c0,.9-.7,1.5-1.6,1.5-.8,0-1.5-.6-1.6-1.4,0,0,0,0,0,0,0-.9.7-1.5,1.6-1.5.8,0,1.5.6,1.6,1.4,0,0,0,0,0,0Z"/>
    <path class="st3" d="M262.7,159c-.2.2-1.4-.7-3-.8s-3,.7-3.1.5.1-.5.7-.8c.8-.5,1.6-.7,2.5-.7.9,0,1.7.3,2.4.9.5.4.7.9.6.9Z"/>
    <path class="st3" d="M245.6,163.3c0,.9-.7,1.5-1.6,1.5-.8,0-1.5-.6-1.6-1.5,0,0,0,0,0,0,0-.9.7-1.5,1.6-1.5.8,0,1.5.6,1.6,1.4,0,0,0,0,0,0Z"/>
    <path class="st3" d="M246.7,158.6c-.2.2-1.4-.7-3.1-.8s-3,.7-3.1.5.1-.5.7-.8c.8-.5,1.6-.7,2.5-.7.9,0,1.7.3,2.4.9.5.4.7.8.6.9Z"/>
    <path class="st3" d="M251.7,171.5c.9-.2,1.8-.4,2.8-.4.4,0,.9-.1.9-.4,0-.4,0-.9-.2-1.3-.4-1.1-.8-2.2-1.1-3.3-1.6-4.8-2.7-8.7-2.5-8.7s1.6,3.7,3.2,8.5c.4,1.2.8,2.3,1.1,3.4.3.5.3,1.1.2,1.7-.1.3-.4.5-.7.6-.2,0-.5,0-.7,0-.9,0-1.9,0-2.8-.1Z"/>
    <path class="st4" d="M252.1,191.6c-5.8-.1-11.4-1.9-16.3-5,0,0,3.8,8.7,16.1,8v-3Z"/>
    <path class="st4" d="M250.9,175.6c-.6-.9-1.6-1.3-2.7-1.2-.8,0-1.5.4-2,1-.5.6-.6,1.4-.2,2,.5.7,1.4.9,2.2.6.8-.2,1.6-.7,2.2-1.2.2-.1.4-.3.5-.5.1-.2.1-.4,0-.6"/>
    <path class="st3" d="M246.7,172.5c.3,0,.2,1.8,1.7,3.2s3.5,1.2,3.5,1.5-.4.3-1.3.3c-1.1,0-2.1-.4-2.9-1.1-.8-.7-1.3-1.6-1.3-2.7,0-.8.2-1.2.3-1.2Z"/>
    <path class="st3" d="M246.6,153.6c-.2.4-1.9.2-3.9.3s-3.6.6-3.9.2c-.1-.2.2-.6.9-1.1,1.8-1,4-1.2,5.9-.4.7.3,1.1.7,1,.9Z"/>
    <path class="st3" d="M262.5,151.6c-.3.4-1.5,0-2.9-.1s-2.6.1-2.9-.3c-.1-.2,0-.6.6-.9.7-.4,1.5-.6,2.4-.5.8,0,1.6.3,2.3.9.5.4.6.8.5,1Z"/>
    <path class="st3" d="M222.3,145c2.4-7,12.9-16.6,20.3-16l11.7,7.3c-.9,4.1-3.9,7.4-7.9,8.6-2.1.6-4.6.7-5.9,2.5s-.6,4.5-1.8,6.4c-1.7,2.6-6.2,2.4-7.5,5.2-.6,1.2-.3,2.7-.9,3.9-.8,1.6-5,3.6-6.7,3s-1.7-3.5-2.2-5c-.7-1.7-.7-3.7-.1-5.4.8-3.4,0-7.1,1.1-10.5Z"/>
    <path class="st1" d="M228.6,167.6c0-.9-.9-3.1-1.8-3.3-2.4-.5-6.8-.4-7,5.7-.4,8.4,8.1,7,8.1,6.8s.6-6,.7-9.2Z"/>
    <path class="st4" d="M225.4,173.5s-.1.1-.4.2c-.3.1-.7.1-1.1,0-.9-.4-1.6-1.8-1.5-3.3,0-.7.2-1.4.5-2.1.2-.5.6-.9,1.1-1.1.3,0,.7.1.8.4.1.2,0,.4,0,.4s.2-.1.1-.5c0-.2-.2-.4-.3-.5-.2-.2-.5-.3-.8-.2-.7.1-1.3.6-1.6,1.2-.4.7-.6,1.5-.6,2.3,0,1.7.8,3.3,2,3.7.4.1.9,0,1.3-.2.2-.2.3-.4.3-.4Z"/>
    <path class="st3" d="M220.5,142.9h0c0-2.6-3.2-4.3-5.8-4.9-2.6-.4-5.3,0-7.5,1.4-1.4.7-2.7,1.8-3,3.3s1.1,3.3,2.6,2.8c-2.6.8-4.2,3.6-3.4,6.2.8,2.6,3.6,4.2,6.2,3.4.7-.2,1.4-.6,2-1.1-.7,2.4-2.3,4.5-4.4,5.9,6.8,1,13.1-3.8,14.1-10.6.3-2.2,0-4.4-.8-6.4h0Z"/>
    <path class="st13" d="M214.7,156.2c-.2-.8-.3-1.7-.3-2.5,0-4.1,1.3-8.2,3.9-11.4.5-.7,1.1-1.3,1.8-1.8.2.1-2.6,2.9-4.1,7.4s-1,8.4-1.2,8.4Z"/>
    <path class="st3" d="M251.8,133.9c.8,3.4,6,7.8,8.2,10.4,4.3,5.1,5.2,6.7,5.1,18,2-3.9,3.6-7.7,3.5-12.1,0-4.5-1.8-8.7-4.8-12-3.1-3.3-7.5-4.9-12-4.3"/>
    <path class="st6" d="M287.3,226.9s-9-15-11.5-18.1c-2-2.3-4.5-4.2-7.4-5.4-1.1-.5-2.3-.8-3.5-1l-13-2.9s0,8.8-9.3,9.4-17.1-12.4-17.1-12.4c0,0-15,2.3-18.6,4.2s-9.2,4.2-12.3,19.7l-2.2,15.2,25.9,2.4,2.5,38.4,12.8,8.9s35.5,9.2,37.8,9.8,3-57.1,3-57.1c0,0,9.1-5.9,12.9-11.1Z"/>
    <path class="st3" d="M270.3,220.5c.2.3.4.7.5,1.1.3.7.7,1.8,1.1,3.1,2.2,7,3.1,14.3,2.6,21.6,0,1.4-.2,2.5-.3,3.3,0,.4,0,.8-.2,1.2,0-.4,0-.8,0-1.2,0-.8.1-1.9.1-3.3,0-3.6,0-7.2-.5-10.8-.5-3.6-1.2-7.1-2.1-10.6-.4-1.3-.7-2.4-.9-3.2-.1-.4-.2-.8-.3-1.2Z"/>
    <path class="st1" d="M269.2,283.4l-48.6-10.6-2.2-34.8-21.6-2s.8,23.8,1.6,30.8c1.2,10.2,7.2,24,10.7,26.8s62.3,1.5,62.3,1.5l-2.2-11.8Z"/>
    <path class="st1" d="M296.8,289.6c-.3.7-1,1.1-1.8,1.1-.2,0-.3,0-.5-.1-1.1-.3-1-2.5-1-2.5l-5.1-.8s-6.7,4.3-9.1,7.2-8.5.5-8.5.5l-2.1-11,9.5-8.6s-.6.5,0-1.1,3.6-1,3.6-1c.5-.8,2.4-1.1,2.4-1.1l8.3,1c1.7.2,3.2,1.2,4.2,2.6l3.5,5.6s1.9,4,1.6,5c-.3.8-1.1,1.3-1.9,1.1,0,0-.4,2.6-1.1,2.7-.7,0-1.4-.2-2.1-.5h0Z"/>
    <path class="st4" d="M279.1,281.8c0,0,1.1,0,2.9,0,2.3.1,4.6.5,6.8,1.3,1.2.4,2.4.9,3.5,1.5,1,.6,2,1,2.4,1.8.2.3.1.7,0,1-.2.2-.4.4-.6.5-.2,0-.5.1-.7.1,0,0,.3.2.8,0,.3,0,.6-.3.8-.5.3-.4.4-.9.2-1.3-.2-.5-.6-.9-1-1.2-.5-.3-.9-.6-1.5-.9-1.1-.6-2.3-1.2-3.6-1.6-2.2-.8-4.6-1.1-7-1.1-1,0-2,0-2.9.3Z"/>
    <path class="st4" d="M278.5,287.1c0,.2,3.4,0,7.6.3s7.5.8,7.5.6c-.7-.3-1.4-.5-2.2-.5-1.8-.3-3.6-.5-5.3-.6-1.8-.1-3.6-.1-5.4,0-.7,0-1.5,0-2.2.3Z"/>
    <path class="st4" d="M296.8,289.4c0-.3.1-.6.1-.9,0-.8,0-1.6,0-2.4,0-.6-.1-1.1-.2-1.7-.1-.7-.4-1.3-.8-1.8-.8-1.3-1.9-2.3-3.1-3.2-1.2-.9-2.6-1.5-4-2-1.2-.3-2.4-.5-3.6-.5h-2.4c-.3,0-.6,0-.9,0,1.1.2,2.2.2,3.3.3,1.2,0,2.3.3,3.5.6,1.4.5,2.6,1.2,3.8,2,1.2.8,2.2,1.8,3,3,.6,1,1,2.1,1.1,3.2.2,2,.2,3.3.3,3.3Z"/>
    <path class="st4" d="M284.7,274.4c0,0,1.2.1,3.2.3s5,.4,6.7,3.1c1.7,2,3.1,4.2,4.2,6.5.4,1,.6,2.1.8,3.1,0-.3,0-.6,0-.9,0-.8-.2-1.6-.5-2.4-1-2.5-2.4-4.7-4.1-6.7-.5-.6-1-1.2-1.6-1.6-.6-.4-1.3-.7-2-.9-1.2-.3-2.3-.5-3.5-.6-1.1-.1-2.2-.1-3.2,0Z"/>
    <path class="st4" d="M281.1,292.6c.2-.1.3-.2.5-.4.4-.3.8-.7,1.4-1.1,1.8-1.4,3.6-2.6,5.5-3.8h-.1l5.1.9-.2-.2c0,.4,0,.8.1,1.3,0,.5.3.9.6,1.2.2.2.4.3.7.3.2,0,.5,0,.7,0,.5,0,1-.3,1.3-.7,0,0,.2-.2.2-.3h0c0-.1-.3,0-.3,0h.2c0,0,.7.3.7.3.2,0,.5.1.7.2.1,0,.3,0,.4,0,.2,0,.3,0,.5,0,.2-.2.4-.4.5-.7.1-.2.2-.5.3-.7.1-.5.3-1,.3-1.5l-.3.2c.7.1,1.4-.1,1.9-.7.2-.3.4-.6.4-1,0-.3,0-.7-.2-1-.4-1.3-.9-2.5-1.4-3.7h0c-.6-1-1.2-2-1.9-3l-1.2-1.9c-.4-.7-.8-1.3-1.3-1.8-.5-.5-1.2-1-1.9-1.2-.7-.3-1.4-.4-2.1-.4l-7.8-.9h0c-.5,0-.9.2-1.4.4-.5.1-.9.4-1.2.8h.3c-.9-.5-1.9-.4-2.7,0-.7.5-1.2,1.3-1.3,2.1h0c0-.1-6.5,5.8-6.5,5.8-.7.7-1.3,1.2-1.8,1.6-.2.2-.4.4-.6.6.2-.1.5-.3.7-.5l1.8-1.5,6.7-5.8h0c.1-.8.6-1.5,1.2-1.9.7-.4,1.5-.4,2.3,0h.2c0,0,.1,0,.1,0,.3-.3.6-.5,1-.6.4-.1.8-.3,1.3-.3h0l7.8.9c.7,0,1.4.2,2,.4.6.3,1.2.6,1.7,1.1.5.5.9,1.1,1.2,1.7l1.2,1.9,1.9,3h0c.5,1.2,1,2.4,1.4,3.6,0,.3.1.6.2.9,0,.3,0,.5-.2.7-.3.4-.9.6-1.4.5h-.3v.2c0,.5-.2.9-.3,1.4,0,.4-.3.8-.5,1.1,0,0-.1,0-.2,0-.1,0-.2,0-.3,0-.2,0-.4,0-.6-.2-.2,0-.4-.1-.6-.2h-.1c0,0-.3,0-.3,0h0c0,.1-.1.2-.2.3-.3.3-.6.5-1,.6-.2,0-.4,0-.6,0-.2,0-.3,0-.5-.2-.4-.6-.6-1.4-.6-2.1v-.2h-.2l-5.2-.8h-.1c-1.9,1.2-3.7,2.5-5.4,3.9-.6.5-1,.9-1.3,1.2-.2.1-.4.2-.5.4Z"/>
    <path class="st0" d="M350.1,257.7l-64,.5c-2.1,0-4.1,1-4.4,3l-7,46.7h-33c-1.1,0-1.9.9-1.9,1.9s.9,1.9,1.9,1.9h105.4l7.2-49.3c.3-2.3-1.3-4.4-3.6-4.7-.2,0-.4,0-.6,0Z"/>
    <path class="st3" d="M350.1,257.7c.3,0,.7,0,1,0,1,.2,1.9.8,2.5,1.6.4.6.7,1.3.8,2,0,.9,0,1.8-.2,2.6l-.9,6.5c-1.4,9.8-3.4,23.9-5.9,41.2v.2h-102.4c0,0-2.8,0-2.8,0-.5,0-1,0-1.5-.3-.5-.3-.8-.7-1-1.2-.4-1,0-2.1,1-2.7.4-.2.9-.3,1.4-.3h32.6l-.2.2,7-46.3c0-.9.5-1.8,1.2-2.4.7-.6,1.5-1,2.5-1.1.9,0,1.7-.1,2.6,0h12.2c0,0,17.1-.2,17.1-.2h24.4c0-.1,6.5-.1,6.5-.1h2.2-8.8c0,.1-24.4.4-24.4.4l-17.1.2h-9.6c0,0-2.5,0-2.5,0-.8,0-1.7,0-2.5,0-.8.1-1.6.5-2.2,1-.6.6-1,1.4-1,2.2-2.1,14-4.4,29.6-6.9,46.3v.2h-32.9c-.4,0-.8,0-1.2.2-.7.4-1,1.2-.8,2,.1.4.4.7.8.9.4.2.8.3,1.2.2h105c0,0-.2.2-.2.2l6.1-41.2c.4-2.4.7-4.6,1-6.5.2-.9.3-1.7.3-2.6,0-.7-.3-1.4-.7-2-.6-.8-1.4-1.4-2.4-1.6-.3,0-.7,0-1,0Z"/>
    <path class="st7" d="M311.3,284.2c0,2.2,1.8,4,4,4s4-1.8,4-4-1.8-4-4-4-4,1.8-4,4Z"/>
    <path class="st3" d="M277.2,311.4c0,0,2.1-11.9,4.5-26.5s4.3-26.6,4.2-26.6-2.1,11.9-4.5,26.5-4.3,26.6-4.2,26.6Z"/>
  </g>
</svg>