<?xml version="1.0" encoding="UTF-8"?>
<svg id="Layer_1" xmlns="http://www.w3.org/2000/svg" version="1.1" viewBox="0 0 750 500">
  <!-- Generator: Adobe Illustrator 29.6.1, SVG Export Plug-In . SVG Version: 2.1.1 Build 9)  -->
  <defs>
    <style>
      .st0 {
        fill: #e0e0e0;
      }

      .st1 {
        isolation: isolate;
      }

      .st1, .st2 {
        opacity: .4;
      }

      .st3 {
        fill: #aa6550;
      }

      .st4 {
        fill: #b78876;
      }

      .st5 {
        fill: #ffbe9d;
      }

      .st6 {
        fill: #ebebeb;
      }

      .st7 {
        fill: #263238;
      }

      .st8 {
        fill: #eb996e;
      }

      .st9 {
        fill: #1211ca;
      }

      .st10 {
        fill: #ffde59;
      }

      .st11 {
        fill: #fff;
      }

      .st12 {
        fill: #1abc9c;
      }

      .st13 {
        fill: #fafafa;
      }

      .st14 {
        opacity: .5;
      }

      .st15 {
        opacity: .2;
      }

      .st16 {
        opacity: .3;
      }

      .st17 {
        fill: #f5f5f5;
      }

      .st18 {
        fill: #455a64;
      }
    </style>
  </defs>
  <g id="freepik--background-complete--inject-3">
    <rect class="st6" x="173.8" y="104.2" width="27.4" height="58.5"/>
    <rect class="st6" x="202.3" y="166.9" width="33.6" height="56.6"/>
    <polygon class="st6" points="240 103.2 271.9 103.2 271.9 51.3 273 51.3 273 103.2 302.6 103.2 302.6 50.1 240 50.1 240 103.2"/>
    <rect class="st6" x="173.8" y="166.9" width="27.4" height="56.6"/>
    <rect class="st6" x="273" y="166.9" width="29.5" height="56.6"/>
    <rect class="st6" x="202.3" y="104.2" width="33.6" height="58.5"/>
    <rect class="st6" x="273" y="104.2" width="29.5" height="58.5"/>
    <rect class="st6" x="173.8" y="224.4" width="27.4" height="51"/>
    <polygon class="st6" points="201.2 103.2 201.2 51.3 202.3 51.3 202.3 103.2 235.9 103.2 235.9 50.1 173.8 50.1 173.8 103.2 201.2 103.2"/>
    <rect class="st6" x="202.3" y="224.4" width="33.6" height="51"/>
    <rect class="st6" x="273" y="224.4" width="29.5" height="51"/>
    <rect class="st6" x="240" y="104.2" width="31.9" height="58.5"/>
    <rect class="st6" x="240" y="224.4" width="31.9" height="51"/>
    <rect class="st6" x="240" y="166.9" width="31.9" height="56.6"/>
    <rect class="st6" x="517.3" y="104.2" width="27.3" height="58.5"/>
    <rect class="st6" x="545.8" y="166.9" width="33.6" height="56.6"/>
    <polygon class="st6" points="583.5 103.2 615.4 103.2 615.4 51.3 616.5 51.3 616.5 103.2 646.1 103.2 646.1 50.1 583.5 50.1 583.5 103.2"/>
    <rect class="st6" x="517.3" y="166.9" width="27.3" height="56.6"/>
    <rect class="st6" x="616.5" y="166.9" width="29.5" height="56.6"/>
    <rect class="st6" x="545.8" y="104.2" width="33.6" height="58.5"/>
    <rect class="st6" x="616.5" y="104.2" width="29.5" height="58.5"/>
    <rect class="st6" x="517.3" y="224.4" width="27.3" height="51"/>
    <polygon class="st6" points="544.6 103.2 544.6 51.3 545.8 51.3 545.8 103.2 579.4 103.2 579.4 50.1 517.3 50.1 517.3 103.2 544.6 103.2"/>
    <rect class="st6" x="545.8" y="224.4" width="33.6" height="51"/>
    <rect class="st6" x="616.5" y="224.4" width="29.5" height="51"/>
    <rect class="st6" x="583.5" y="104.2" width="31.9" height="58.5"/>
    <rect class="st6" x="583.5" y="224.4" width="31.9" height="51"/>
    <rect class="st6" x="583.5" y="166.9" width="31.9" height="56.6"/>
    <rect class="st0" x="117.7" y="107.2" width="34.5" height="52.5"/>
    <rect class="st13" x="119.2" y="109.1" width="31.6" height="48.8"/>
    <rect class="st0" x="130.6" y="125.5" width="8.7" height="15.9"/>
    <rect class="st0" x="673.6" y="169.6" width="44.2" height="29.1"/>
    <rect class="st13" x="675.2" y="170.8" width="41.1" height="26.6"/>
    <rect class="st0" x="689" y="180.5" width="13.4" height="7.3"/>
    <rect class="st0" x="672.2" y="71.8" width="47.4" height="72.1"/>
    <rect class="st13" x="674.3" y="74.3" width="43.3" height="67"/>
    <rect class="st0" x="690" y="96.9" width="11.9" height="21.9"/>
  </g>
  <g id="freepik--Floor--inject-3">
    <path class="st7" d="M726.6,462.2c0,.1-157.4.3-351.5.3s-351.6-.1-351.6-.3,157.4-.3,351.6-.3,351.5,0,351.5.3Z"/>
  </g>
  <g id="freepik--character-4--inject-3">
    <path class="st7" d="M650.7,437.3l-3.7-5.2,14.2-9.9,5.9,8-.8.7c-3.6,3.1-18.7,15.3-21.8,16.5-3.5,1.3,6.3-10.1,6.3-10.1Z"/>
    <g class="st14">
      <path class="st11" d="M662,433.9c-.7-1.3-.9-2.8-.6-4.2.3-1.5,1.3-2.8,2.7-3.5l2.8,3.8-4.9,3.8Z"/>
    </g>
    <g class="st14">
      <path class="st11" d="M646.1,443.1s-3.2,4.2-2.2,4.5,16.7-11.6,23.1-17.4l-.2-.3-18.2,14s-1.7-1.4-2.5-.8Z"/>
    </g>
    <path class="st7" d="M667,429.7s0,0-.2.2l-.7.6-2.4,2c-2,1.7-4.9,3.9-8.1,6.4s-6.2,4.6-8.3,6.1c-1,.7-1.9,1.3-2.6,1.8l-.7.5c0,0-.2.1-.2.1,0,0,.1-.1.2-.2l.7-.5c.7-.5,1.5-1.1,2.5-1.8,2.1-1.5,5.1-3.7,8.3-6.1s6.1-4.7,8.2-6.3l2.5-1.9.7-.5.2-.2Z"/>
    <path class="st7" d="M648.8,444.1c-.4-.3-.9-.6-1.3-.8-.5-.2-1-.3-1.5-.3.5-.2,1.1-.1,1.6.1.5.2,1,.5,1.3,1Z"/>
    <path class="st7" d="M651.3,439c0,0-.4,0-.8-.2s-.8-.3-.8-.4c.3,0,.6,0,.8.2.4.2.8.4.8.4Z"/>
    <path class="st7" d="M652,437.6c-.2,0-.5,0-.7,0-.4,0-.7-.1-.7-.2s.3,0,.7,0,.7.1.7.2Z"/>
    <path class="st7" d="M651.8,435.8s-.3.3-.7.6c-.2.2-.5.4-.8.5,0,0,.2-.3.7-.6s.7-.5.8-.5Z"/>
    <path class="st7" d="M651.3,434.7s-.2.5-.6.8c-.2.3-.6.4-.9.5,0,0,.4-.3.8-.7.2-.2.5-.5.8-.7Z"/>
    <path class="st7" d="M650,438.2c-.3.3-.6.5-.9.7-.3.2-.7.4-1.1.5-.2,0-.5.2-.7.2-.1,0-.3,0-.4-.1-.1-.1-.2-.3-.1-.5.4-.9,1.4-1.3,2.3-1,.3,0,.5.2.7.4.2.1.2.2.2.2-.3-.2-.6-.4-1-.4-.4,0-.8,0-1.1,0-.4.2-.8.5-1,.9,0,.2.1.3.3.3.2,0,.4,0,.7-.2.4-.1.7-.3,1.1-.5.6-.3,1-.6,1-.5Z"/>
    <path class="st7" d="M649.8,438.4s-.3-.1-.5-.5c-.2-.2-.2-.5-.2-.8,0-.4.1-.8.4-1,.2-.1.5,0,.6.2,0,0,0,0,0,0,0,.2.1.3.2.5,0,.3,0,.6,0,.8,0,.3-.1.5-.2.7,0-.3,0-.5,0-.8,0-.3,0-.5,0-.8,0-.3-.2-.7-.4-.5-.2.2-.3.5-.3.8,0,.3,0,.5.2.8.1.2.2.4.4.6Z"/>
    <path class="st7" d="M664,426.3s-.4.3-1,.8c-.7.7-1.3,1.6-1.5,2.6-.3,1-.2,2,0,3,.2.7.5,1.1.5,1.2,0,0-.2-.2-.2-.3-.2-.3-.3-.5-.4-.8-.3-1-.4-2.1-.1-3.1.3-1,.8-1.9,1.6-2.6.2-.2.5-.4.8-.5,0,0,.2-.1.3-.2Z"/>
    <path class="st7" d="M659.3,433.8c-.5.6-1.2,1.2-1.9,1.7-.6.5-1.4,1-2.1,1.4,0,0,.9-.7,2-1.5s2-1.6,2-1.5Z"/>
    <path class="st7" d="M662,431.8c0,0,0,.2.1.5s.2.5,0,.5-.2-.2-.3-.5,0-.6,0-.5Z"/>
    <path class="st7" d="M662.1,429.8c0,0,0,.2,0,.5s-.1.5-.2.4,0-.2,0-.5,0-.4.2-.4Z"/>
    <path class="st7" d="M663.1,428.1s-.2.2-.3.4-.2.4-.3.4,0-.3,0-.5.5-.4.5-.3Z"/>
    <path class="st7" d="M663.9,427.1s0,.2,0,.3-.2.2-.2.2,0-.2,0-.3.2-.2.2-.2Z"/>
    <g class="st16">
      <polygon points="663.6 425.4 649.3 435.3 648.8 434.7 662.8 424.3 663.6 425.4"/>
    </g>
    <polygon class="st7" points="630 361.4 664.9 423.6 646.2 436.3 615.4 381.5 620.6 361.4 630 361.4"/>
    <path class="st18" d="M717.9,351.5l.2-48.1c0-4,0-8.2-2.1-11.6s-5.8-5.4-9.7-6.2-7.9-.5-11.8-.2l-20.4,64.6c-6.4,1.9-12.4,4.6-16.8,9.3-2.1,2-3.6,4.6-4.2,7.5-.5,2.9.7,5.9,3.1,7.6.4.2.7.4,1.1.6-.8,6.1-12.5,87.3-12.5,87.3h4l10.4-58.4,21.5-9.8,23.4,13.1,9.4,55.3h4s-11.6-86-11.8-87.8h0c1.4-.4,2.8-.9,4.1-1.6,7.3-3.8,8.3-11.8,8.1-21.7ZM659.4,401.9l3.2-17.9,16.1,9-19.3,8.9ZM662.9,382.2l1.1-6.3h27.3c2.4.1,4.9.1,7.4,0l1.3,7.4-19.2,8.8-17.8-9.9ZM682.6,393.2l17.6-8,3.3,19.7-21-11.7Z"/>
    <path class="st4" d="M688.7,280.7h0c-5,0-9.1-3.2-9.1-18.3,0-3,0-5.6,0-5.6,0,0-7.1-.6-7.7-7.6s-.1-23-.1-23h0c7.9-3.9,17.4-3.3,24.7,1.6l1.1.7-.3,34c0,4.8-3.8,18.1-8.6,18.1Z"/>
    <path class="st3" d="M679.7,256.7c3.3-.1,6.4-1.2,9.1-3.1,0,0-1.9,5.1-9,4.9v-1.8Z"/>
    <path class="st7" d="M673.6,237.4c0,.5.4,1,1,1,.5,0,1-.4,1-.9,0,0,0,0,0,0,0-.6-.4-1-1-1-.5,0-.9.4-1,.9Z"/>
    <path class="st7" d="M673.3,236.3c.1.1.9-.4,1.9-.4s1.8.5,2,.4,0-.3-.4-.5c-.5-.3-1-.5-1.6-.5-.6,0-1.1.2-1.5.5-.4.3-.5.5-.4.5Z"/>
    <path class="st7" d="M684,237.6c0,.6.4,1,1,1,.5,0,1-.3,1-.9,0,0,0,0,0,0,0-.6-.4-1-1-1-.5,0-1,.3-1,.9,0,0,0,0,0,0Z"/>
    <path class="st7" d="M683.8,236.5c.1.1.9-.4,1.9-.4s1.8.5,2,.4,0-.3-.4-.5c-.5-.3-1-.5-1.6-.5-.6,0-1.1.2-1.5.5-.4.2-.5.5-.4.5Z"/>
    <path class="st7" d="M680,244.2c-.6-.2-1.1-.3-1.7-.3-.3,0-.5,0-.6-.3,0-.3,0-.6.2-.8l.8-2c.8-1.7,1.4-3.5,1.8-5.3-.9,1.7-1.6,3.4-2.2,5.2-.3.7-.5,1.4-.8,2-.2.3-.2.7-.1,1.1,0,.2.2.3.5.4.2,0,.3,0,.5,0,.6,0,1.2,0,1.8,0Z"/>
    <path class="st7" d="M683.1,245c-.2,0-.2,1.1-1.2,1.9s-2.2.7-2.2.8.3.2.8.2c.7,0,1.3-.2,1.9-.6.5-.4.8-1,.9-1.6,0-.5,0-.7-.2-.7Z"/>
    <path class="st7" d="M683.6,232.4c.1.3,1.2.1,2.4.3s2.3.5,2.4.2,0-.4-.5-.7c-1.1-.7-2.5-.8-3.7-.4-.5.2-.7.4-.6.5Z"/>
    <path class="st7" d="M673.7,233.3c.2.2.9,0,1.8,0s1.6.2,1.8,0,0-.4-.4-.6c-.4-.3-.9-.4-1.5-.4-.5,0-1,.2-1.4.5-.3.2-.4.5-.3.6Z"/>
    <path class="st7" d="M670.3,227.1c3.1,4.2,10,3,14.4.2,1.9,2.4,5.1,3.4,8.1,2.5,0,1.8-.4,3.5-.4,5.2-.2,1.8.3,3.5,1.4,4.9,1.2,1.3,3.5,1.6,4.7.4.8-1,1.1-2.4.8-3.6-.3-1.2-.4-2.5-.3-3.8.3-1.9,2.4-.5,2.5-4.6,0-5.5-4.7-5.3-4.7-5.3-.4-1.2-1-2.3-1.8-3.3-.5-.7-1.2-1.3-2-1.7-.8-.4-1.8-.2-2.4.4-1.7-1.5-3.8-2.5-6-2.9-2.2-.3-4.8.7-5.6,2.7-2.1-.8-5.5-.7-7.2.9s-3.5,6-1.5,8.1"/>
    <path class="st4" d="M695.9,236.2c.1,0,4.5-.6,4.1,4.4s-5.5,3-5.5,2.8,1.4-7.2,1.4-7.2Z"/>
    <path class="st3" d="M696.2,241.8s0,0,.2.1c.2.1.4.1.7,0,.7-.4,1.2-1.1,1.2-1.9,0-.4,0-.9-.2-1.3,0-.3-.3-.6-.6-.7-.2,0-.4,0-.5.2,0,0,0,.2,0,.2,0,0-.1,0,0-.3,0-.1.1-.2.2-.3.1,0,.3-.1.5,0,.4.1.7.4.9.9.2.4.3.9.2,1.4,0,.9-.6,1.7-1.5,2.1-.3,0-.6,0-.8-.2-.2,0-.2-.3-.2-.3Z"/>
    <path class="st7" d="M581.4,454.7l1.8-5.8,16,3.5-1.9,9.5h-1c-4.6-.8-23.3-3.6-26.2-5.1-3.2-1.6,11.4-2.1,11.4-2.1Z"/>
    <g class="st14">
      <path class="st11" d="M591.3,460.6c.5-1.4,1.4-2.5,2.7-3.2,1.3-.7,2.9-.9,4.2-.3l-.9,4.5-6-1Z"/>
    </g>
    <g class="st14">
      <path class="st11" d="M574.2,455.1s-5.2.5-4.7,1.4,19.3,4.5,27.8,5.4v-.4l-22-4s0-2.1-1-2.4Z"/>
    </g>
    <path class="st7" d="M597.5,461.5h-1.1c0-.1-3-.6-3-.6-2.5-.4-6.1-1-9.9-1.7s-7.4-1.5-9.9-2l-3-.7-.8-.2h-.3c0,0,.3,0,.3,0l.8.2,3,.6c2.5.5,6,1.3,9.9,2s7.4,1.4,9.9,1.8l3,.5h.8c0,.2.2.2.3.2Z"/>
    <path class="st7" d="M575.2,457.8c0-.5-.1-1-.3-1.5-.2-.5-.5-.9-.8-1.3.5.3.8.7,1,1.2.2.5.3,1.1,0,1.6Z"/>
    <path class="st7" d="M580.6,456.3c0,0-.2-.3-.4-.7-.1-.2-.2-.5-.2-.8,0,0,.2.3.4.7.1.2.2.5.2.8Z"/>
    <path class="st7" d="M582,455.8s-.3-.2-.5-.5-.4-.6-.3-.6.3.2.5.5.4.6.3.6Z"/>
    <path class="st7" d="M583.2,454.5c0,0-.4,0-.9,0s-.9-.2-.8-.3c.3,0,.6,0,.9,0,.3,0,.6.1.8.2Z"/>
    <path class="st7" d="M583.7,453.4c-.3.1-.7.2-1,0-.4,0-.7-.1-1-.3.7,0,1.3.2,2,.2Z"/>
    <path class="st7" d="M580.3,454.7c-.4,0-.7,0-1.1-.2-.4-.1-.7-.3-1.1-.5-.2-.1-.4-.2-.6-.4-.1,0-.2-.2-.2-.4,0-.2,0-.3.2-.4.9-.2,1.9.2,2.3,1,.1.2.2.5.2.8v.3c0-.3-.1-.7-.3-1-.2-.3-.5-.6-.8-.8-.4-.2-.8-.3-1.3-.2-.2,0-.2.3,0,.5.2.1.3.3.5.4.3.2.7.3,1,.5.6.3,1,.3,1,.4Z"/>
    <path class="st7" d="M580,454.7c0-.2,0-.5,0-.8,0-.3.2-.5.4-.7.2-.3.6-.4,1-.4.2,0,.3.3.2.5,0,.2-.1.3-.3.4-.2.2-.4.4-.6.5-.2.2-.4.3-.7.3,0,0,.2-.1.6-.4.2-.2.4-.3.6-.5.2-.2.4-.6,0-.7-.3,0-.6,0-.8.3-.2.2-.3.4-.4.6,0,.2-.1.5-.1.7Z"/>
    <path class="st7" d="M598,457s-.5-.1-1.2-.2c-1,0-2,.1-2.9.6-.9.5-1.6,1.1-2.1,2-.4.6-.5,1.1-.5,1.1,0-.1,0-.2,0-.3,0-.3.2-.6.3-.8.5-.9,1.2-1.6,2.1-2.1.9-.5,2-.7,3-.5.3,0,.6.1.9.2,0,0,.2,0,.3.1Z"/>
    <path class="st7" d="M589.5,458.6c-.8,0-1.6,0-2.5-.2-.8-.1-1.6-.3-2.4-.6,0,0,1.1.2,2.4.5s2.4.4,2.4.4Z"/>
    <path class="st7" d="M592.7,459.2s-.1.2-.3.4-.2.4-.3.4,0-.3.2-.5.4-.4.4-.3Z"/>
    <path class="st7" d="M594.2,458s-.1.2-.3.3-.4.2-.4.2,0-.2.3-.3.4-.2.4-.2Z"/>
    <path class="st7" d="M596.1,457.6s-.2,0-.5,0-.5.1-.5,0,.2-.2.5-.3.6.1.5.2Z"/>
    <path class="st7" d="M597.4,457.5c0,0,0,.1-.2.1s-.3,0-.3,0,0-.1.2-.1.3,0,.3,0Z"/>
    <path class="st3" d="M624.9,307.2c-.9-1.2-2-2.2-3.3-3.1-.5-.2-8.7-3.6-8.9-3.2s-1.1,2.3.5,3.2l1.3.4-4.7.4s-5.3,3.9-5.2,4.7.8,1.4,1.2,1-1.2,2.7-1.2,2.7c0,0,0,1.3.7,1.1.7-.4,1.3-.9,1.8-1.5,0,0-1,1.6-.7,1.9s1.8.4,2,0,.4-1.1.4-1.1h.9v1.3l14,.4,1.2-8.3Z"/>
    <path class="st7" d="M694.7,341s4.8,17.1-6.1,20.6-67.5,5.2-67.5,5.2l-21.4,88.5-18-4.2,15.9-93.1c1.1-6.5,6.2-11.6,12.8-12.8,16.8-3,47.2-8.5,47.6-9.1.8-1.7,1.4-3.5,1.9-5.3l34.8,10.2Z"/>
    <path class="st18" d="M656,365.2c-.2,0-.4,0-.7,0h-1.9c0,.1-7.2.4-7.2.4l-25.3.9.2-.2c-1.7,6.9-3.5,14.5-5.3,22.5-3.6,15.7-6.9,29.9-9.3,40.1-1.2,5.1-2.3,9.3-3,12.1-.4,1.4-.7,2.5-.8,3.3l-.2.9c0,.2,0,.3,0,.3s0-.1,0-.3.1-.5.2-.9c.2-.8.4-1.9.8-3.3.7-2.9,1.6-7.1,2.8-12.2,2.4-10.3,5.6-24.5,9.2-40.2,1.9-8,3.7-15.6,5.4-22.5v-.2h.2l25.3-.7,7.2-.2h1.9c.3,0,.5,0,.8,0Z"/>
    <path class="st18" d="M649.8,338c0,0-.2,0-.2,0l-.7.2c-.6.1-1.6.4-2.8.6-2.4.5-5.9,1.2-10.2,2s-9.5,1.7-15.2,2.8c-2.8.5-5.8,1.2-9,1.8s-6.3,1.4-8.9,3.5c-1.2,1-2.2,2.4-2.9,3.9-.7,1.5-1.2,3-1.5,4.5-.7,2.9-1.3,5.9-1.8,8.9-.9,5.7-1.7,10.9-2.4,15.3s-1.2,7.8-1.6,10.3l-.5,2.8c0,.3,0,.5-.1.7,0,0,0,.2,0,.2,0,0,0-.2,0-.2v-.7c.2-.7.3-1.6.4-2.8.3-2.5.8-6,1.4-10.3s1.4-9.5,2.3-15.3c.4-3,1-6,1.7-9,.4-1.6.9-3.1,1.6-4.6.7-1.5,1.7-2.9,3-4,2.7-2.2,6-3,9.1-3.6s6.1-1.2,9-1.8c5.7-1.1,10.9-1.9,15.2-2.7s7.8-1.4,10.3-1.8l2.8-.5h.7c0-.2.2-.2.3-.2Z"/>
    <polygon class="st10" points="679.1 268.6 674.8 273.6 657.7 303.5 624.4 306.8 623.7 316.5 662.1 320.1 683.5 281.3 679.1 268.6"/>
    <g class="st15">
      <polygon points="679.1 268.6 674.8 273.6 657.7 303.5 624.4 306.8 623.7 316.5 662.1 320.1 683.5 281.3 679.1 268.6"/>
    </g>
    <path class="st10" d="M675.7,283.1l3.3-12.5v-4.1c0,0,18.6-8.4,18.6-8.4l3.6,4.4-.4.2c1.5,1.5,12.3,13.2,11.6,21.8-.6,7.8-16.9,56.6-16.9,56.6l-37.2-10.9,17.5-47.2Z"/>
    <path class="st7" d="M679.1,266.6s.1.8.3,2.3.3,3.5.8,6v.3c0,0,.3-.1.3-.1l6.6-3.8c3.8-2.2,7.3-4.2,9.8-5.7l2.9-1.8c.4-.2.7-.4,1-.7-.4.1-.8.3-1.1.5l-3,1.7c-2.5,1.4-6,3.4-9.8,5.6l-6.6,3.9h.3c-.5-2.3-.7-4.4-1-5.8-.1-.7-.2-1.3-.3-1.7,0-.2,0-.4-.1-.6Z"/>
    <path class="st10" d="M709,293.8c0,.5-33.6,33-33.6,33l-45.4-8.9,1.5-9.7,31,.8c3.2.3,6.3-1.1,8.2-3.7,6.7-8.6,21.1-27.4,21.5-27.9s16.9,16.3,16.9,16.3Z"/>
    <path class="st7" d="M631.5,308.2s0,.2-.1.6l-.3,1.8c-.3,1.6-.6,4.1-1.1,7.2h0c0,.1,0,.1,0,.1l36.2,7,3,.6c1,.2,2.1.3,3.1.3,2.2,0,4.3-.7,6.2-1.9,1-.6,1.8-1.3,2.6-2.1.8-.8,1.5-1.7,2.2-2.5l4.5-5.2,19.4-22.3h0c0-.1,0-.2.1-.4.7-1.7,1.1-3.4,1.1-5.2,0-1.8-.4-3.6-1.3-5.1-.9-1.5-2.2-2.7-3.7-3.6-1.5-.9-3.1-1.4-4.9-1.6-1.7-.2-3.4.1-5,.9-1.5.8-2.8,1.8-3.9,3.1-1.1,1.2-2,2.5-2.9,3.8l-2.7,3.8c-3.6,5-7.2,9.6-10.7,13.8l-2.6,3c-.8,1-1.7,2-2.6,2.9-.9.8-2.1,1.3-3.3,1.4-1.2.1-2.4.1-3.5,0l-22.1-.3h-6c0,0-2.1,0-2.1,0h2.1s6,.2,6,.2l22,.5c1.2,0,2.4,0,3.6,0,1.3-.1,2.5-.6,3.5-1.4.9-.9,1.8-1.9,2.6-2.9.8-1,1.7-2,2.6-3.1,3.5-4.2,7.1-8.9,10.7-13.8.9-1.2,1.8-2.5,2.7-3.8.9-1.3,1.9-2.6,2.9-3.8,1-1.2,2.3-2.2,3.7-3,1.5-.7,3.1-1,4.7-.8,3.4.3,6.4,2.2,8.3,5,.9,1.5,1.3,3.2,1.2,4.9,0,1.7-.4,3.5-1.1,5.1,0,.1,0,.2-.1.3h0c0,0-19.4,22.3-19.4,22.3l-4.5,5.2c-.7.9-1.5,1.7-2.2,2.5-.7.8-1.6,1.5-2.5,2-1.8,1.1-3.9,1.7-6,1.8-1,0-2,0-3-.3l-3-.6-36.2-6.7h0c.5-3,.8-5.4,1-7.1.1-.8.2-1.4.3-1.9s.1-.6.1-.6Z"/>
    <path class="st0" d="M696.9,303.8c-.8-.5-1.6-1.1-2.3-1.8-1.3-1.2-3.2-2.8-5.1-4.7s-3.6-3.7-4.8-5.1c-.7-.7-1.3-1.5-1.8-2.3.7.6,1.4,1.3,2.1,2,1.2,1.3,2.9,3,4.9,5s3.7,3.6,5,4.8c.7.6,1.4,1.3,2,2Z"/>
    <path class="st0" d="M699.3,300.2c-.8-.5-1.6-1.1-2.3-1.8-1.4-1.2-3.2-2.8-5.1-4.7s-3.6-3.7-4.8-5.1c-.7-.7-1.3-1.4-1.8-2.3.7.6,1.4,1.3,2.1,2,1.2,1.3,3,3,4.9,5s3.7,3.6,5,4.8c.7.6,1.4,1.3,2,2Z"/>
    <path class="st0" d="M673.2,289.5c-1-.4-2-.9-2.9-1.6-1-.6-1.8-1.2-2.6-2.1,1,.4,2,.9,2.9,1.6,1,.6,1.8,1.2,2.6,2.1Z"/>
    <path class="st0" d="M674.4,286c-.9-.3-1.7-.7-2.3-1.3-.8-.5-1.4-1-2-1.7.9.3,1.7.7,2.3,1.3,1.2.9,2.1,1.7,2,1.7Z"/>
    <path class="st18" d="M663.7,372.7c-6.6-.4-3.5-9.9-3.3-20.4,0-6.6,4.5-13,9.2-17.6,2.4-2.1,5.3-3.7,8.4-4.7,8.2-2.6,16.9-3.2,25.4-1.6,0,0,12.4,47.7-39.7,44.3Z"/>
    <path class="st4" d="M612,308.2l8.1-2.2,6.7,3.4h3.8l.6.2-1.1,7.3h-1c-1,.7-2.1,1.2-3.2,1.4-2.1.5-5.3-.9-5.3-.9l-4.3-2.4-3.1-.9-2.3,1.3c-.1.4-.2.8-.2,1.2,0,.3-.8.7-1.3.7s-.6-1.1-.6-1.1l.5-2.3-1.1,1h-2.7v-1.7l6.3-5.1Z"/>
    <path class="st0" d="M597.7,318.9c-.7-1-10.6-43.2-10.6-43.2h3.6l10.5,40.4h39v3l-42.4-.2Z"/>
  </g>
  <g id="freepik--desk-2--inject-3">
    <path class="st12" d="M399.2,281.9c1.7-4.3,3.8-8.4,6.5-12.3.8-1.4,1.9-2.5,3.3-3.1,2.4-.9,5.1.6,7.2,2l5,3.3c.3.2.6.4.7.8,0,.6-.7,1-1.3,1-2.2.2-4.3-.3-6.1-1.5-1.4-.9-2.7-2.3-4.3-2.1-2,.2-2.9,2.6-3.7,4.5-1.7,4.1-4.7,7.5-8.6,9.6"/>
    <path class="st12" d="M399.2,282.7c.4-10.1.8-20.2,3.2-30s7-19.3,14.6-25.9c-1,8.5-4.1,16.6-7.1,24.5l-12.4,32.2"/>
    <path class="st12" d="M397.5,286.4c-1.4-9.2-4-18.1-7.6-26.7-.4-1.3-1.2-2.5-2.3-3.3-1.7-1-3.9-.4-5.8.5-4.4,2-8.4,4.6-12,7.8-.3.2-.5.5-.6.9,0,.6.4,1.1.9,1.2.6.1,1.1,0,1.7-.1l10.1-2.3c1-.3,2.1-.4,3.1,0,1.1.6,2,1.6,2.4,2.8,3.3,6.7,6.6,13.3,9.9,19.9"/>
    <g class="st2">
      <path d="M399.2,281.9c1.7-4.3,3.8-8.4,6.5-12.3.8-1.4,1.9-2.5,3.3-3.1,2.4-.9,5.1.6,7.2,2l5,3.3c.3.2.6.4.7.8,0,.6-.7,1-1.3,1-2.2.2-4.3-.3-6.1-1.5-1.4-.9-2.7-2.3-4.3-2.1-2,.2-2.9,2.6-3.7,4.5-1.7,4.1-4.7,7.5-8.6,9.6"/>
    </g>
    <g class="st2">
      <path d="M399.2,282.7c.4-10.1.8-20.2,3.2-30s7-19.3,14.6-25.9c-1,8.5-4.1,16.6-7.1,24.5l-12.4,32.2"/>
    </g>
    <g class="st16">
      <path d="M397.5,286.4c-1.4-9.2-4-18.1-7.6-26.7-.4-1.3-1.2-2.5-2.3-3.3-1.7-1-3.9-.4-5.8.5-4.4,2-8.4,4.6-12,7.8-.3.2-.5.5-.6.9,0,.6.4,1.1.9,1.2.6.1,1.1,0,1.7-.1l10.1-2.3c1-.3,2.1-.4,3.1,0,1.1.6,2,1.6,2.4,2.8,3.3,6.7,6.6,13.3,9.9,19.9"/>
    </g>
    <path class="st12" d="M412.8,210.4c-8.4,10-13.3,22.4-14,35.5-.9,21.4-2.2,36.9-2.2,36.9h2.4s4.7-43.2,7.9-50.8,8-18.3,6-21.6Z"/>
    <path class="st7" d="M412.8,210.4c0,.2-.2.5-.3.7-.2.5-.5,1.1-.9,1.9-.8,1.7-1.9,4.1-3.1,7.2s-2.5,6.8-3.8,11c-1.4,4.5-2.5,9.2-3.3,13.9-.4,2.5-.6,4.9-.8,7.3s-.3,4.7-.4,6.9c-.3,4.4-.5,8.3-.9,11.6s-.8,6-1.2,7.8c-.2.9-.4,1.6-.5,2.1,0,.2-.1.5-.2.7,0,0,0-.3.1-.7s.2-1.2.4-2.1c.3-1.8.7-4.5,1-7.8s.6-7.2.8-11.6c.1-2.2.2-4.5.4-6.9s.4-4.9.8-7.4c.8-4.7,1.9-9.3,3.3-13.9,1.3-4.2,2.6-7.9,3.9-11s2.4-5.5,3.2-7.2c.4-.8.8-1.5,1-1.9.1-.2.2-.4.4-.6Z"/>
    <path class="st12" d="M421.6,230.5s-16,15.2-17.8,29.6-2.7,22.1-2.7,22.1h1.6s3.8-20.5,8.7-26.9,11.3-23,10.2-24.8Z"/>
    <path class="st7" d="M421.4,231.5c0,.2-.1.3-.2.5l-.8,1.3c-.7,1.2-1.6,2.9-2.8,4.9-2.3,4.2-5.6,9.9-8.5,16.6-2.5,5.7-4.5,11.6-5.7,17.7-.5,2.3-.7,4.2-.9,5.6,0,.7-.1,1.2-.2,1.5,0,.2,0,.4,0,.5,0-.2,0-.4,0-.5,0-.4,0-.9,0-1.5.1-1.9.4-3.8.7-5.6,1.2-6.1,3-12.1,5.6-17.8,2.6-5.7,5.5-11.2,8.6-16.6,1.2-2.1,2.2-3.7,2.9-4.9l.8-1.3c0-.2.2-.3.3-.4Z"/>
    <path class="st12" d="M390.7,233.2s-2.4,30.1,3.1,48.1h1.9s1.2-38.9-5-48.1Z"/>
    <path class="st7" d="M392,238.9c0,.1,0,.3,0,.4,0,.3,0,.7.1,1.2,0,1.1.2,2.6.4,4.5.3,3.8.7,9,1.1,14.8.4,5.8.8,11,1,14.9.1,1.9.2,3.4.2,4.5v1.2c0,.1,0,.3,0,.4,0-.1,0-.3,0-.4,0-.3,0-.7-.1-1.2-.1-1.1-.2-2.6-.4-4.5-.3-3.8-.7-9-1.1-14.8s-.8-11-1-14.8c-.1-1.9-.2-3.4-.3-4.5v-1.2c0-.1,0-.3,0-.4Z"/>
    <path class="st18" d="M387,279.5s5.8,4.2,5.5,6.1-14.2,12.3-13.4,20.5,7.6,13.8,19,13.4,19.1-7.6,18.1-14.9-12.4-18.8-12.5-19.4c-.4-1.6,5.1-5.7,5.1-5.7h-21.8Z"/>
    <path class="st13" d="M407.8,290.1c0,.1-4.2.2-9.4.2s-9.4-.1-9.4-.2,4.2-.2,9.4-.2,9.4.1,9.4.2Z"/>
    <path class="st13" d="M409.1,292c0,.1-5,.2-11.1.2s-11.1-.1-11.1-.2,5-.2,11.1-.2,11.1.1,11.1.2Z"/>
    <path class="st13" d="M411.1,294.2c0,.1-5.9.2-13.1.2s-13.1-.1-13.1-.2,5.9-.2,13.1-.2,13.1.1,13.1.2Z"/>
    <path class="st13" d="M412.9,297.1c0,.1-6.8.2-15.1.2s-15.1-.1-15.1-.2,6.8-.2,15.1-.2,15.1,0,15.1.2Z"/>
    <polygon class="st7" points="678.1 319.1 374.1 319.1 374.1 325.8 395 325.8 395 462 402.3 462 402.3 325.8 606.2 325.8 606.2 462 613.6 462 613.6 325.8 678.1 325.8 678.1 319.1"/>
  </g>
  <g id="freepik--character-3--inject-3">
    <path class="st7" d="M473.2,244c0-.3-.1-.7-.2-1-.1-.9-.5-1.7-1-2.5-.3-.5-.8-.9-1.4-1.1-.6-.2-1.3,0-1.9.3-2.3,2.3-2.4,6-.2,8.3,0,0,.1.1.2.2.5.4,1.2.5,1.9.3.6-.2,1.1-.6,1.4-1.1.5-.7.9-1.6,1-2.5,0-.3,0-.7.2-1,0,.3,0,.7,0,1,0,.9-.4,1.9-.9,2.6-.4.6-.9,1-1.6,1.3-.8.3-1.6.2-2.3-.3-2.6-2.3-2.8-6.3-.4-8.9.1-.1.3-.3.4-.4.7-.5,1.5-.6,2.3-.3.6.2,1.2.7,1.6,1.3.5.8.8,1.7.9,2.7,0,.4,0,.7,0,1.1Z"/>
    <polygon class="st8" points="474.6 458 473.7 412.3 489.8 413.5 487.3 457.8 474.6 458"/>
    <path class="st0" d="M488,458.1v-1.5s-14,.3-14,.3v4.9h.9c3.8.1,19.4.4,22-.5,2.8-.9-8.9-3.3-8.9-3.3Z"/>
    <g class="st2">
      <path class="st11" d="M479.1,461.6c-.2-1.2-.9-2.2-1.8-2.9-.9-.7-2.1-1-3.2-.9v3.9c0,0,5.1,0,5.1,0Z"/>
    </g>
    <g class="st2">
      <path class="st11" d="M493.7,459.5s4.1,1.1,3.6,1.8-16.3,1-23.3.6v-.3l18.4-.2s.4-1.8,1.2-1.8Z"/>
    </g>
    <path class="st7" d="M473.9,461.6c0,0,.2,0,.2,0h3.2c2.1,0,5.1,0,8.3,0s6.2-.2,8.3-.3l2.5-.2h.9-3.4c-2.1.2-5,.3-8.3.4s-6.2,0-8.3,0h-3.4Z"/>
    <path class="st7" d="M492.5,461.5c.1-.4.3-.8.4-1.2.2-.4.5-.7.8-1-.8.4-1.3,1.3-1.3,2.2h0Z"/>
    <path class="st7" d="M488.4,459.5s.2-.2.4-.5.3-.6.3-.6-.2.2-.4.5-.3.6-.3.6Z"/>
    <path class="st7" d="M487.3,459s.2-.1.5-.3.4-.4.4-.5-.2.1-.5.3-.4.5-.4.5Z"/>
    <path class="st7" d="M486.5,457.7c.2,0,.5,0,.7,0,.2,0,.5,0,.7,0-.2,0-.5-.1-.7,0-.2,0-.5,0-.7,0Z"/>
    <path class="st7" d="M486.3,456.8c.2.1.5.2.8.2.3,0,.6,0,.8-.1-.3,0-.5,0-.8,0-.3,0-.5,0-.8,0Z"/>
    <path class="st7" d="M488.9,458.3c.3,0,.6,0,.9,0,.3,0,.6-.1,1-.2.2,0,.4-.1.5-.2.1,0,.2-.2.2-.3,0-.1,0-.3-.1-.4-.7-.3-1.5-.1-2,.5-.1.2-.2.4-.3.6v.2c0-.3.2-.5.4-.8.2-.2.5-.4.8-.5.3-.1.7-.1,1.1,0,.1.1,0,.3,0,.4-.2,0-.3.2-.5.2-.3.1-.6.2-.9.2-.6,0-.9,0-.9.1Z"/>
    <path class="st7" d="M489.1,458.4c.1-.2.1-.4,0-.6,0-.2-.1-.5-.3-.6-.2-.3-.4-.4-.8-.4-.2,0-.3.2-.3.4,0,.1,0,.3.2.4.1.2.3.4.4.5.3.3.5.4.5.4s-.2-.1-.4-.4c-.1-.2-.3-.3-.4-.5-.1-.2-.2-.5,0-.6s.5.2.6.4c.1.2.2.4.3.6,0,.2,0,.4,0,.6Z"/>
    <path class="st7" d="M474.1,457.8h1c.8,0,1.6.4,2.2.9.6.5,1.1,1.2,1.4,1.9.2.6.2,1,.3,1,0,0,0-.2,0-.3,0-.3,0-.5-.2-.8-.3-.8-.8-1.5-1.5-2-.7-.5-1.5-.8-2.3-.9-.3,0-.5,0-.8,0,0,0-.2,0-.3,0Z"/>
    <path class="st7" d="M480.8,460.3c.7.1,1.3.2,2,.1.7,0,1.3,0,2-.2,0,0-.9,0-2,0s-2,0-2,0Z"/>
    <path class="st7" d="M478.1,460.3s0,.2.2.4.1.4.2.4,0-.2,0-.5-.3-.4-.3-.3Z"/>
    <path class="st7" d="M477.1,459.1s0,.2.2.3.3.2.3.2,0-.2-.2-.3-.3-.3-.3-.2Z"/>
    <path class="st7" d="M475.6,458.5s.2,0,.4.1.4.2.4.1,0-.2-.3-.3-.5,0-.5,0Z"/>
    <path class="st7" d="M474.5,458.3s0,.1.2.2.2,0,.2,0,0-.1-.2-.2-.2,0-.2,0Z"/>
    <polygon class="st5" points="492.2 457.7 491.1 415.3 507.2 413.5 505.1 457.6 492.2 457.7"/>
    <path class="st7" d="M449.3,338.9c15.7.1,31.4.2,47,1.6,6.2.6,13,1.6,17.3,6.1,4.1,4.2,5,10.5,5.8,16.3l6.8,53.1c-21.7,2.2-43.6,1.6-65.1-2,.2-13.2.3-26.3.5-39.5l.3-6.2-24.1-1.6,11.5-27.9Z"/>
    <rect class="st7" x="482.5" y="316.4" width="63.8" height="3.1"/>
    <polygon class="st7" points="556.2 319.5 568.1 274.7 518.3 274.7 507.5 319.5 556.2 319.5"/>
    <polygon class="st17" points="510.5 316.1 555 316.1 565.3 276.8 520.6 276.8 510.5 316.1"/>
    <polygon class="st0" points="521.7 284.4 518.9 295.5 548.5 295.5 551.6 284.4 521.7 284.4"/>
    <path class="st18" d="M545.4,282.9c0,.1-5.2.2-11.6.2s-11.6-.1-11.6-.2,5.2-.2,11.6-.2,11.6,0,11.6.2Z"/>
    <path class="st7" d="M531.9,286.5c-3.1.3-6.2.3-9.3,0,3.1-.3,6.2-.3,9.3,0Z"/>
    <path class="st7" d="M539.4,286.4c-2,.3-4.1.3-6.1,0,2-.3,4-.3,6.1,0Z"/>
    <path class="st18" d="M547.8,288.5c0,.1-5.7.2-12.7.2s-12.8-.1-12.8-.2,5.7-.2,12.8-.2,12.7.1,12.7.2Z"/>
    <path class="st0" d="M530.1,290.4c-2.7.3-5.5.3-8.3,0,2.7-.3,5.5-.3,8.3,0Z"/>
    <path class="st18" d="M545.5,293c0,.1-5.3.2-11.8.2s-11.8-.1-11.8-.2,5.3-.2,11.8-.2,11.8.1,11.8.2Z"/>
    <path class="st18" d="M528.1,298.8c-3,.3-6.1.3-9.2,0,3-.3,6.1-.3,9.2,0Z"/>
    <path class="st7" d="M536,298.8c-1,.2-2.1.3-3.1.2-1,0-2.1,0-3.1-.2,1-.2,2.1-.3,3.1-.2,1,0,2.1,0,3.1.2Z"/>
    <path class="st7" d="M540.4,298.6c0,.1-.6.2-1.3.2s-1.3-.1-1.3-.2.6-.2,1.3-.2,1.3,0,1.3.2Z"/>
    <path class="st0" d="M522.1,301c0,.1-.7.2-1.5.2s-1.5-.1-1.5-.2.7-.2,1.5-.2,1.5.1,1.5.2Z"/>
    <path class="st7" d="M530.8,301c-2.3.3-4.6.3-7,0,2.3-.3,4.6-.3,7,0Z"/>
    <path class="st18" d="M551.5,300.8c0,.1-4.2.2-9.3.2s-9.3-.1-9.3-.2,4.2-.2,9.3-.2,9.3,0,9.3.2Z"/>
    <path class="st7" d="M521.6,303.4c0,.1-.7.2-1.5.2s-1.5-.1-1.5-.2.7-.2,1.5-.2,1.5.1,1.5.2Z"/>
    <path class="st7" d="M526.2,303.3c-1.2.3-2.4.3-3.6,0,1.2-.3,2.4-.3,3.6,0Z"/>
    <path class="st18" d="M539.8,303.1c-3.9.3-7.8.3-11.7,0,3.9-.3,7.8-.3,11.7,0Z"/>
    <path class="st18" d="M532.6,307.3c-4.7.3-9.4.3-14.2,0,4.7-.3,9.4-.3,14.2,0Z"/>
    <path class="st0" d="M540.9,307.1c-2.1.3-4.3.3-6.4,0,2.1-.3,4.3-.3,6.4,0Z"/>
    <path class="st7" d="M553.2,307.1c-3.5.3-7.1.3-10.6,0,3.5-.3,7.1-.3,10.6,0Z"/>
    <path class="st7" d="M550.3,282.8c0,.1-.5.2-1.1.2s-1.1,0-1.1-.2.5-.2,1.1-.2,1.1.1,1.1.2Z"/>
    <path class="st0" d="M527.9,281.2c-1.6.3-3.2.3-4.8,0,1.6-.3,3.2-.3,4.8,0Z"/>
    <path class="st6" d="M564.6,279.6h-44.8l.8-2.8h44.7l-.7,2.8Z"/>
    <path class="st13" d="M523,278.2c0,.3-.2.5-.5.5s-.5-.2-.5-.5.2-.5.5-.5.5.2.5.5Z"/>
    <path class="st13" d="M524.6,278.2c0,.3-.2.5-.5.5,0,0,0,0,0,0-.3,0-.5-.2-.5-.5,0,0,0,0,0,0,0-.3.2-.5.5-.5,0,0,0,0,0,0,.3,0,.5.2.5.5Z"/>
    <path class="st13" d="M526.3,278.2c0,.3-.2.5-.5.5s-.5-.2-.5-.5.2-.5.5-.5.5.2.5.5Z"/>
    <path class="st5" d="M471.7,298.5l6.4,19.2c1.7,5.2,6.3,6.1,11.7,6.1h35.5v-8l-32.5-4.6-7.7-19.8-13.5,7.1Z"/>
    <path class="st5" d="M529.3,314.1l2.8-1.3s3-5.9,3.7-5.6.9,2-.3,4.7l3.8-1.1s8.1,3.8,7.8,4.3c-.4.9-1.5,1.4-2.5,1-.1,0-.2-.1-.3-.2-1.8-.9-4.1-2-4.1-2l-4.4,1.2,5.6.7,5.3,4.8c-1,.7-2.3.7-3.2,0l-13.8,3-4.3.2v-8l3.9-1.6Z"/>
    <path class="st8" d="M543.5,320.6c0,0-.3-.4-.8-.9-.3-.3-.6-.6-1-.8-.5-.2-1-.3-1.5-.4-1.4,0-2.8-.3-4.1-.7,1.4,0,2.8,0,4.2.3,1.1,0,2,.5,2.7,1.4.3.3.5.7.6,1.1Z"/>
    <path class="st8" d="M541.3,321.1s0-.3-.5-.4-1-.1-1.7-.2c-.8,0-1.6,0-2.4-.2.8-.3,1.6-.3,2.5-.2.6,0,1.2.2,1.7.4.2,0,.4.2.4.4,0,.1,0,.2,0,.2Z"/>
    <path class="st5" d="M446,231.7l-2,39.1,16.7,1.6.9-9.5s5.9,1.5,7.7-4c1.1-3.5,2.2-30.8,2.2-30.8l-25.5,3.6Z"/>
    <path class="st0" d="M472.7,306.6l2.5,10.1,20.3-5.1c-.6-1.9-6-14.2-11.5-27.9-3.1-7.6-9.9-13.1-18-14.5-5.5-1-11-1.5-16.6-1.6-9.7.1-22.3,4.2-24.2,13.7-1.5,7.3,1.8,19.2,1.8,34.8l-2.3,32.8,48.3,1.6-4.9-28.8,4.6-15.2Z"/>
    <g class="st15">
      <path d="M425.2,313.9c6.1,1.2,10.6-1.8,16.8-2.1,3.8-.2,7.9-.6,10.9,1.7,2.4,1.8,3.3,4.9,4,7.8,1.5,6.3,2.5,19.3,3.2,31.4.5,8.2,5.3,15.5,12.6,19.1,1.9,1,7,1,7.1,1.6l-49.5,2-4.9-61.5Z"/>
    </g>
    <path class="st7" d="M471.3,225.5c-2.8-1.6-6.1-1.9-9.4-2-1.4-.3-2.8-.5-4.3-.5,0,0-13-1.4-17,10.6h0c-.4,1.3-.7,2.6-.9,4,0,.2,0,.3,0,.5,0,0,0,0,0,0h0v.3c-.2.8-.4,1.5-.7,2.2-.5.6-1,1.2-1.6,1.7-2.2,2-5,3.8-6.1,6.5-.8,2-.7,4.3-.7,6.5s-.3,4.6-1.8,6.2c-1.1,1.2-2.6,1.8-3.9,2.7-3.5,2.6-4.3,7.8-3,12,.4,1.4,1,2.8.7,4.2-.4,1.8-2.1,3.1-2.3,4.9,0,1.4.7,2.8,2,3.4,1.2.7,2.6.9,4,.8.4,0,.8,0,1.2-.1-.4,1.2-1.1,2.3-2.1,3.1,4.4.7,8.9,1.1,13.3,1.1l2.6-7,3.5,6.9c5.1-.2,10.2-.6,15.2-1.1-1.8-4.2-1.7-9,.4-13.1,1.2-2.4,3.2-4.8,2.9-7.5-.4-3.7-5.1-6.4-4.2-10.1.2-.6.5-1.2.9-1.7,1.8-.8,3.6-1.8,5.1-3.1,1.7-1.5,2.1-2.3,2.2-5.6h0c1.4-4.2,1.8-8.6,1.2-13v-.3s3.6.6,3.8-2.2c.4,0,.8,0,1.2,0,0-.7.2-2.3.2-3,.2.4.5,2.1.8,2.5.6-.1,1.2-.4,1.8-.4.6-3.4-1.9-8-5.1-9.7Z"/>
    <path class="st7" d="M441.9,245.3s0,.2-.3.5l-.9,1.3c-1.1,1.5-2,3.2-2.6,5-.4,1.2-.6,2.5-.6,3.8,0,1.5.5,2.9,1.3,4.2,1,1.4,1.6,3,1.8,4.7,0,1.9-.9,3.6-2.3,4.9-1.3,1.2-2.6,2.4-3.8,3.7-1,1.3-1.5,2.9-1.6,4.5,0,1.5,0,3,.3,4.4.2,1.3.3,2.6.4,3.9.1,1.9-.3,3.9-1.4,5.5-.3.4-.7.8-1.1,1.1-.1.1-.3.2-.5.3.5-.5,1-1,1.4-1.5.9-1.6,1.4-3.5,1.2-5.4,0-1.3-.2-2.6-.5-3.9-.3-1.5-.4-3-.4-4.5,0-1.7.6-3.4,1.6-4.8,1.2-1.3,2.5-2.6,3.8-3.8,1.3-1.1,2.1-2.8,2.2-4.5,0-1.7-1-3.1-1.7-4.5-.4-.7-.7-1.4-1-2.2-.2-.7-.4-1.5-.4-2.2,0-1.3.2-2.7.6-3.9.7-1.8,1.6-3.5,2.8-5,.4-.5.7-.9,1-1.2s.4-.4.4-.4Z"/>
    <path class="st0" d="M505.8,458.1v-1.5l-13.9.3v4.9h.9c3.8.1,19.4.4,22-.5,2.8-.9-9-3.3-9-3.3Z"/>
    <g class="st2">
      <path class="st11" d="M497,461.6c-.2-1.2-.9-2.2-1.8-2.9-.9-.7-2.1-1-3.3-.9v3.9c0,0,5.1,0,5.1,0Z"/>
    </g>
    <g class="st2">
      <path class="st11" d="M511.6,459.5s4.1,1.1,3.6,1.8-16.3,1-23.3.6v-.3l18.4-.2s.4-1.8,1.2-1.8Z"/>
    </g>
    <path class="st7" d="M491.8,461.5c0,0,.2,0,.2,0h3.2c2.1,0,5.1,0,8.3,0s6.2-.2,8.3-.3l2.5-.2h.7s.2,0,.2,0h-3.4c-2.1.2-5.1.3-8.3.4s-6.2,0-8.3,0h-3.5Z"/>
    <path class="st7" d="M510.4,461.5c.1-.4.3-.8.5-1.2.2-.4.5-.7.8-1-.4.2-.8.5-1,.9-.3.4-.4.9-.3,1.3Z"/>
    <path class="st7" d="M506.3,459.5s.2-.2.4-.5.3-.6.3-.6-.2.2-.4.5-.3.6-.3.6Z"/>
    <path class="st7" d="M505.1,459s.2-.1.5-.3.4-.4.4-.5-.2.1-.5.3-.4.4-.4.5Z"/>
    <path class="st7" d="M504.4,457.7c.2,0,.5,0,.7,0,.4,0,.7,0,.7,0s-.3,0-.7,0c-.2,0-.5,0-.7,0Z"/>
    <path class="st7" d="M504.1,456.8c.2.2.5.2.8.2.3,0,.6,0,.8-.1-.3,0-.5,0-.8,0-.3,0-.5,0-.8,0Z"/>
    <path class="st7" d="M506.7,458.3c.3,0,.6,0,.9,0,.3,0,.6-.1.9-.2.2,0,.4-.1.5-.2.1,0,.2-.2.2-.3,0-.1,0-.3-.1-.4-.7-.3-1.5,0-2,.5-.1.2-.2.4-.3.6,0,0,0,.2,0,.2,0-.3.2-.5.4-.8.2-.2.5-.4.8-.5.3-.1.7-.1,1.1,0,.1.1,0,.3,0,.4-.2,0-.3.2-.5.2-.3.1-.6.2-.9.3-.6,0-.9,0-.9.1Z"/>
    <path class="st7" d="M506.9,458.4s.1-.2,0-.6c0-.2-.1-.5-.3-.6-.2-.3-.4-.4-.8-.4-.2,0-.3.2-.3.4,0,0,0,0,0,0,0,.1,0,.3.2.4.1.2.3.4.4.5.3.3.5.4.5.4s-.2-.1-.4-.4c-.1-.2-.3-.3-.4-.5-.1-.2-.2-.5,0-.6s.5.2.6.4c.1.2.2.4.3.6,0,.2,0,.4,0,.6Z"/>
    <path class="st7" d="M492,457.8h1c1.7.1,3.1,1.2,3.7,2.8.2.6.2,1,.3,1,0,0,0-.2,0-.3,0-.3,0-.5-.2-.8-.5-1.7-2-2.8-3.8-2.9-.3,0-.5,0-.8,0,0,0-.2,0-.3.1Z"/>
    <path class="st7" d="M498.7,460.2c.7.1,1.3.2,2,.1.7,0,1.3,0,2-.2,0,0-.9,0-2,0s-2,0-2,0Z"/>
    <path class="st7" d="M496,460.3s0,.2.2.4.1.4.2.4,0-.2,0-.5-.4-.4-.4-.3Z"/>
    <path class="st7" d="M494.9,459.1s0,.2.2.3.3.2.3.2,0-.2-.2-.3-.2-.2-.3-.2Z"/>
    <path class="st7" d="M493.4,458.5s.2,0,.4.1.4.2.4.1,0-.2-.3-.3-.5,0-.5,0Z"/>
    <path class="st7" d="M492.4,458.2s0,.1.2.2.2,0,.2,0,0-.1-.2-.2-.2,0-.2,0Z"/>
    <path class="st7" d="M486.3,410.9c-.1,0,.2-7.4.9-16.6s1.3-16.5,1.4-16.5-.2,7.4-.9,16.6-1.2,16.5-1.4,16.5Z"/>
    <path class="st7" d="M494.3,412.8c0-.4-.1-.9-.1-1.4,0-1-.2-2.2-.3-3.7-.2-3.1-.5-7.5-1-12.3s-.9-9.1-1.2-12.3c-.2-1.5-.3-2.7-.4-3.7,0-.5-.1-.9,0-1.4.1.4.2.9.3,1.3.1.9.4,2.1.6,3.7.5,3.1,1,7.5,1.4,12.3s.7,9.2.8,12.3c0,1.6,0,2.9.1,3.7,0,.5,0,.9,0,1.4Z"/>
    <g class="st15">
      <path d="M497.6,377.1c-5.4,9.9-14.8,16.9-25.8,19.1-2.2.4-4.7.6-6.7-.5-2.7-1.6-3.5-5.1-3.5-8.2s0-7.4,0-10.4h36.1Z"/>
    </g>
    <path class="st18" d="M435.2,378.3c-.2,1.7-11.2,83.5-11.2,83.5h3.8c0,.1,14.1-82.7,14.1-82.7l-6.7-.8Z"/>
    <path class="st18" d="M481.5,378.1c.2,1.7,12,84,12,84h-3.8l-14.7-82.7,6.5-1.3Z"/>
    <path class="st18" d="M466.3,305.2c0-7-5.7-12.7-12.7-12.7-7.9,0-16.9,0-19,.5-3.7.8-7.3,2.7-9.3,5.9s-2,7.3-2,11.1c0,16,.1,32.1.2,48.1l43-.2-.2-52.7Z"/>
    <path class="st18" d="M423.5,355.9c-.1,9.5.8,17.2,7.8,20.9,5.2,2.8,11.6,2.8,17.6,2.8h26.1c2.6-.1,5.5-.2,7.6-1.7,2.3-1.7,3.4-4.5,2.9-7.3-.6-2.7-2-5.2-4-7.1-7.6-7.8-19.5-10.1-30.6-12"/>
    <path class="st18" d="M482,373.8c6.3-.4,3.3-9.5,3.2-19.5,0-6.3-4.3-12.5-8.9-16.8-2.3-2.1-5-3.6-8-4.5-7.9-2.5-16.2-3.1-24.3-1.6,0,0-12,45.6,38,42.4Z"/>
    <polygon class="st18" points="438.6 385.5 483 405.9 482.4 407.4 437.8 387.1 438.6 385.5"/>
    <polygon class="st18" points="436 407.8 478.1 384.3 478.9 385.7 436.6 409.5 436 407.8"/>
    <path class="st7" d="M511.3,415.6c0-.2-.1-.5-.1-.8,0-.5-.2-1.3-.3-2.2-.2-2-.5-4.7-.9-8.1-.7-6.9-1.7-16.3-2.8-26.7-.3-2.6-.5-5.1-.8-7.6-.2-2.4-.6-4.7-1.4-6.9-.7-2-2-3.7-3.8-5-1.5-1.1-3.2-1.9-5-2.4-2.6-.6-5.3-.9-8-.8h-2.2c-.3,0-.5,0-.8,0,.3,0,.5,0,.8,0,.5,0,1.2,0,2.2-.1,2.7-.2,5.5,0,8.1.7,1.8.5,3.6,1.3,5.1,2.4,1.8,1.3,3.2,3.1,4,5.1.8,2.3,1.3,4.6,1.5,7,.3,2.5.5,5,.8,7.6,1,10.4,2,19.8,2.7,26.7.3,3.4.6,6.1.8,8.1,0,.9.1,1.7.2,2.2,0,.3,0,.5,0,.8Z"/>
    <path class="st7" d="M471.9,272c0,0-.5.2-1.5.6-1.3.7-2.4,1.7-3.2,2.8-1.2,1.7-1.9,3.8-2.1,5.9,0,2.6.4,5.2,1.3,7.7,1.6,5.4,3.5,10.1,4.8,13.6l1.5,4.1c.2.5.4,1,.5,1.5-.3-.5-.5-.9-.7-1.5-.4-.9-1-2.3-1.7-4-1.3-3.4-3.3-8.1-4.9-13.5-.9-2.5-1.3-5.2-1.2-7.9.2-2.2.9-4.3,2.2-6.1.9-1.2,2-2.2,3.4-2.8.4-.2.7-.3,1.1-.4.1,0,.3,0,.4-.1Z"/>
    <path class="st7" d="M473.2,244c-1.9.3-3.9.3-5.8,0,1.9-.3,3.9-.3,5.8,0Z"/>
  </g>
  <g id="freepik--character-2--inject-3">
    <path class="st7" d="M345.6,215.2c.3-3.6,2.7-7.4,1.1-10.7-1.1-2.4-3.8-3.5-5.3-5.7-2.1-3.2-1-7.6-2.6-11-.4-.9-1-1.7-1.7-2.3.6.1,1.1.2,1.7.2,2.2,0,4.2-1.4,5-3.5.6-2.3-.5-4.7-2.6-5.8-2.2-1-4.7-.5-6.4,1.2-1.4,1.4-2.1,3.3-2,5.3-1.8-.7-3.8-1.2-5.7-1.6l-22.2,3.8c1.3,3.4-.5,7-2.3,10.1s-3.6,6.8-2.4,10.1c.7,1.8,2.2,3.6,1.5,5.4-.4.9-2.4,4.2-2.8,5.1-2.9,7.2-.8,12,.4,16,17.8,2.9,30.9,12.3,48,6.8,11.6-6.8-2.2-19.8-1.9-23.4Z"/>
    <path class="st5" d="M243.8,254.5c-1.2-.6-2.3-1.3-3.4-2.1-.6-.4-1-.9-1.4-1.5-.5-.7-.9-1.4-1.2-2.2,0-.4-.5-.7-.9-.6-.2,0-.4.2-.6.4-.3.7.2,2.8,1.8,4.7s-2.3,1.2-3.7.9-5.9-.9-6.3-.5c-.6.6-.1,1.3,1.3,1.6s5.7,1.2,5.5,2-7.4-.7-7.4-.7c0,0-1.5-.6-1.7.3-.4,1.5,7.4,2.5,8.1,2.6.5,0,.4.9-.2.8s-7.2-1.6-7.6,0c-.3,1.2,6.4.9,7.6,1.9s-5.1-.2-5.4.9c-.1.4-.1.8,3.6,1,1.3,0,3.3,0,5.4-.1h0l10.6.4,3.3-9.7h-7.4Z"/>
    <path class="st10" d="M225.1,236.8c.2.8,20,28.5,20,28.5l-20.1,14.2-20.9-29.1,21-13.7Z"/>
    <path class="st1" d="M225.1,236.8c.2.8,20,28.5,20,28.5l-20.1,14.2-20.9-29.1,21-13.7Z"/>
    <path class="st10" d="M225.3,234.9c.2.9,20,28.5,20,28.5l-20.1,14.2-20.9-29.1,21-13.7Z"/>
    <polygon class="st13" points="239.4 255.1 239.1 257.6 243.7 264.6 245.3 263.4 239.4 255.1"/>
    <path class="st7" d="M226.4,249.6c-2.7,2.1-5.5,4-8.6,5.5,1.3-1.1,2.7-2.1,4.1-3,1.4-1,2.9-1.8,4.4-2.5Z"/>
    <path class="st7" d="M224.4,249.3c-.8.7-1.7,1.4-2.7,1.8-.9.6-1.9,1.1-3,1.4.8-.8,1.7-1.4,2.7-1.8.9-.6,1.9-1.1,3-1.4Z"/>
    <polygon class="st5" points="334.6 408.4 367 448.2 375.2 438.1 350.7 402.6 334.6 408.4"/>
    <path class="st18" d="M366.3,449.1l-1-.9,9.5-11.1,4.1,3.7-.6.7c-2.5,3.1-13.2,15.5-15.6,17-2.7,1.5,3.6-9.4,3.6-9.4Z"/>
    <g class="st14">
      <path class="st11" d="M375.2,444.6c-.8-1-1.1-2.2-1-3.5,0-1.2.6-2.4,1.5-3.2l3,2.8-3.5,3.9Z"/>
    </g>
    <g class="st14">
      <path class="st11" d="M363.4,454.6s-2,4-1.1,4.1,12.1-12.1,16.6-17.9l-.2-.2-13,14.3s-1.6-.9-2.2-.3Z"/>
    </g>
    <path class="st7" d="M378.8,440.5v.2c-.3.2-.4.4-.6.6-.5.5-1,1.2-1.7,2-1.5,1.7-3.5,4-5.8,6.5s-4.4,4.7-6,6.3l-1.9,1.9-.5.5-.2.2s0,0,.2-.2l.5-.5,1.8-1.9c1.5-1.6,3.7-3.8,6-6.3s4.4-4.8,5.8-6.5l1.7-2,.5-.5c0,0,.1-.2.1-.2Z"/>
    <path class="st7" d="M365.8,455.1c-.4-.2-.8-.4-1.3-.5-.4,0-.9,0-1.4,0,.9-.4,1.9-.2,2.6.5h0Z"/>
    <path class="st7" d="M367.1,450.5h-.7c-.2,0-.5,0-.7-.2,0,0,.3,0,.7,0s.7.2.7.2Z"/>
    <path class="st7" d="M367.5,449.2s-.3.1-.6.1-.6,0-.6,0c0,0,.3-.1.6-.1s.6,0,.6,0Z"/>
    <path class="st7" d="M367,447.7s-.2.3-.4.6-.5.5-.6.5.2-.3.4-.6.5-.5.6-.5Z"/>
    <path class="st7" d="M366.4,446.9c0,.3-.2.6-.4.8-.3.4-.6.6-.7.6s.2-.3.5-.7.5-.7.5-.7Z"/>
    <path class="st7" d="M365.9,450c-.2.3-.4.5-.6.7-.3.2-.5.4-.8.6-.2.1-.4.2-.5.3-.1,0-.3,0-.4,0-.1,0-.2-.2-.2-.4.2-.8,1-1.3,1.8-1.2.2,0,.5,0,.7.2,0,0,.2,0,.2.1-.3-.1-.6-.2-.9-.2-.3,0-.6,0-.9.2-.3.2-.6.5-.7.9,0,.2.1.3.3.2.2,0,.4-.1.5-.2.3-.2.6-.3.8-.5.5-.4.7-.6.7-.6Z"/>
    <path class="st7" d="M365.7,450.2s-.3,0-.5-.4c-.2-.2-.3-.4-.3-.6,0-.3,0-.6.2-.9.2-.1.4,0,.5,0,0,.1.2.3.2.4,0,.2.1.5.1.7,0,.2,0,.4,0,.6v-.6c0-.2,0-.5-.1-.7,0-.2-.3-.5-.5-.4-.1.2-.2.5-.1.7,0,.2.1.4.3.6.1.2.3.3.4.4Z"/>
    <path class="st7" d="M375.6,438c-.2.3-.5.5-.7.8-1,1.4-1.2,3.3-.4,4.9.3.6.6.9.6.9s0,0-.2-.2c-.2-.2-.3-.4-.5-.6-.4-.8-.7-1.7-.6-2.5,0-.9.4-1.7,1-2.4.2-.2.4-.4.6-.6,0-.2.2-.2.2-.2Z"/>
    <path class="st7" d="M373,445c-.4.6-.8,1.2-1.3,1.7-.5.5-1,1-1.6,1.4,0,0,.7-.7,1.4-1.5s1.4-1.6,1.4-1.6Z"/>
    <path class="st7" d="M374.9,442.9s0,.2.2.4.2.4.2.4-.2-.1-.3-.4,0-.5,0-.5Z"/>
    <path class="st7" d="M374.6,441.2s0,.2.1.4,0,.4,0,.4,0-.2-.1-.4,0-.4,0-.4Z"/>
    <path class="st7" d="M375.2,439.7s-.1.2-.2.4-.1.4-.2.4-.1-.2,0-.5.3-.4.4-.3Z"/>
    <path class="st7" d="M375.7,438.7v.2c0,.1-.1.2-.2.2s0-.1,0-.2.1-.2.2-.2Z"/>
    <polygon class="st5" points="279.6 440.7 276.7 458.3 291.7 458.3 295.2 443.9 279.6 440.7"/>
    <path class="st18" d="M277.2,458.6v-1.3s14.6,0,14.6,0l-.2,5.5h-.9c-4,0-20.4.1-23-.8-3-1,9.4-3.3,9.4-3.3Z"/>
    <g class="st14">
      <path class="st11" d="M286.4,462.5c.3-1.2,1-2.3,2-3,1-.7,2.2-1.1,3.4-.9v4c-.1,0-5.4-.1-5.4-.1Z"/>
    </g>
    <g class="st14">
      <path class="st11" d="M271.1,460s-4.4,1.1-3.9,1.8,17.1,1.3,24.4.9v-.3l-19.3-.5s-.3-1.9-1.2-1.9Z"/>
    </g>
    <path class="st7" d="M291.9,462.4c0,0-.2,0-.2,0h-3.4c-2.2,0-5.3,0-8.7-.1s-6.5-.3-8.7-.5l-2.6-.2h-.7c0,0-.2,0-.2,0h3.6c2.2.3,5.3.4,8.7.5s6.5.2,8.7.2h3.6Z"/>
    <path class="st7" d="M272.3,462.1c-.1-.4-.3-.9-.5-1.3-.2-.4-.5-.7-.9-1,.4.2.8.5,1,1,.3.4.4.9.3,1.3Z"/>
    <path class="st7" d="M276.7,460.1s-.2-.2-.4-.6c-.1-.2-.2-.4-.3-.7,0,0,.2.2.4.6.1.2.2.4.3.7Z"/>
    <path class="st7" d="M277.9,459.5s-.3-.1-.5-.4-.4-.5-.4-.5.3.1.5.4.4.5.4.5Z"/>
    <path class="st7" d="M278.7,458.2c-.5.1-1,.1-1.5,0,.5-.1,1-.1,1.5,0Z"/>
    <path class="st7" d="M279,457.2c-.3.2-.6.2-.9.2-.3,0-.6,0-.9-.1.3,0,.6,0,.9,0,.3,0,.6,0,.9,0Z"/>
    <path class="st7" d="M276.2,458.8c-.3,0-.6,0-.9,0-.3,0-.7-.1-1-.2-.2,0-.4-.2-.6-.3-.1,0-.2-.2-.2-.3,0-.1,0-.3.1-.4.7-.3,1.6,0,2.1.6.1.2.2.4.3.6v.2c0-.3-.2-.6-.4-.8-.2-.3-.5-.4-.8-.5-.4-.1-.8-.1-1.1,0-.1.1-.1.3,0,.4.2.1.3.2.5.2.3.1.6.2,1,.3.6.1.9.1.9.2Z"/>
    <path class="st7" d="M276,458.9c-.1-.2-.1-.4,0-.6,0-.2.1-.5.3-.7.2-.3.5-.4.8-.5.2,0,.3.2.3.4,0,.1,0,.3-.2.4-.1.2-.3.4-.5.5-.2.2-.3.3-.5.4,0,0,.2-.2.5-.5.2-.2.3-.4.4-.5.1-.2.2-.5,0-.6s-.5.2-.6.4c-.1.2-.2.4-.3.6,0,.2,0,.4,0,.6Z"/>
    <path class="st7" d="M291.7,458.5c-.4,0-.7,0-1.1,0-.9,0-1.7.4-2.4.9-.7.5-1.2,1.2-1.5,2-.2.6-.3,1-.3,1,0,0,0-.2,0-.3,0-.3,0-.5.2-.8.6-1.7,2.2-2.9,4-3,.3,0,.5,0,.8,0,.2,0,.3.1.3.1Z"/>
    <path class="st7" d="M284.6,461c-.7.1-1.4.2-2.1.1-.7,0-1.4,0-2.1-.3,0,0,1,0,2.1,0s2.1,0,2.1,0Z"/>
    <path class="st7" d="M287.5,461.1s0,.2-.2.4-.2.4-.2.4,0-.2,0-.5.3-.4.3-.3Z"/>
    <path class="st7" d="M288.6,459.8s0,.2-.2.3-.3.2-.3.2,0-.2.2-.3.3-.2.3-.2Z"/>
    <path class="st7" d="M290.1,459.2s-.2,0-.4.1-.4.2-.4.1.1-.2.4-.3.5,0,.5,0Z"/>
    <path class="st7" d="M291.2,459s0,.1-.2.2-.2,0-.2,0,0-.1.2-.2.2,0,.2,0Z"/>
    <path class="st7" d="M304.8,299.7s-12.5,37.8-16.8,70.5-10.3,77.7-10.3,77.7l17.5,1.1,26.7-88.5,17.2-24.4c7.3-10.3,10.5-23,9.1-35.6l-.6-5.1-42.9,4.3Z"/>
    <path class="st7" d="M304.6,307.8l9.2,75.5c.9,7.3,4,14.1,9,19.6l33,36.2,11.6-14.1-30.3-48.2,6.8-75.8-40.9,7.8"/>
    <path class="st18" d="M337.3,376.2c-1.1.8-2.1,1.7-3.1,2.6-.9,1-1.7,2.1-2.4,3.3.8-2.8,2.9-4.9,5.6-5.9h0Z"/>
    <path class="st18" d="M336.8,376.8c-1.1.2-2.1.3-3.2.3-1.1.2-2.1.3-3.2.4,1-.5,2.1-.8,3.2-.9,1.1-.2,2.2-.1,3.3.2Z"/>
    <path class="st18" d="M347.1,317.6c0,.3,0,.6-.1.9l-.2,1c0,.4-.2.9-.4,1.4-1,2.9-2.3,5.7-4.1,8.2-2.1,3.3-5.1,6.9-8.3,10.9-1.7,2.1-3.2,4.3-4.6,6.6-1.5,2.5-2.8,5-4,7.6-2.5,5.4-4.5,10.6-6.2,15.5s-3.1,9.2-4.3,12.9l-2.8,8.8c-.3,1-.6,1.8-.8,2.4,0,.3-.2.5-.3.8,0-.3.1-.6.2-.8.2-.6.4-1.4.7-2.4l2.6-8.8c1.1-3.7,2.5-8.1,4.2-13,1.8-5.3,3.8-10.5,6.1-15.5,1.2-2.6,2.5-5.2,4-7.7,1.4-2.3,3-4.5,4.7-6.6,3.2-4,6.2-7.5,8.4-10.8,1.8-2.5,3.2-5.2,4.2-8.1.2-.5.3-1,.4-1.4s.2-.7.3-1c0-.3.2-.6.3-.9Z"/>
    <path class="st10" d="M302.9,230.6c-1.2,6.1-1.5,12.3-.8,18.4,1.1,11,5,23.7,5,23.7l-2.8,28.3,45.1-.6-8.6-33.2,2-7.6,5.3-30c-3.7-3.1-8.4-4.9-13.3-4.9-8,0-19.6,0-19.6,0,0,0-8.9-1.3-12.3,5.9Z"/>
    <path class="st10" d="M304,228.7l-16.7,25-40.7.6-1.6,10.5s44.8,7.6,47.8,6.6c4.7-1.5,13.1-12.9,13.1-12.9l-2-29.8Z"/>
    <path class="st7" d="M325.7,261.1c.5.9,32.3,26.2,32.3,26.2l-18.4,22.9-33.5-26.6,19.7-22.5Z"/>
    <path class="st10" d="M325.3,257.8c.5.9,32.3,26.2,32.3,26.2l-18.4,22.9-33.5-26.6,19.7-22.5Z"/>
    <path class="st1" d="M325.3,257.8c.5.9,32.3,26.2,32.3,26.2l-18.4,22.9-33.5-26.6,19.7-22.5Z"/>
    <path class="st18" d="M325,255.7c.5.9,32.3,26.2,32.3,26.2l-18.4,22.9-33.5-26.6,19.7-22.5Z"/>
    <polygon class="st13" points="347.8 274.3 348.2 277.2 355.8 283.7 357.3 281.9 347.8 274.3"/>
    <path class="st7" d="M331,272.1c-1.1,1.7-2.4,3.3-3.8,4.7-1.3,1.6-2.7,3-4.2,4.4,1.1-1.7,2.4-3.2,3.8-4.7,1.3-1.6,2.7-3,4.2-4.4Z"/>
    <path class="st7" d="M328.6,272.5c-.7,1.1-1.6,2.1-2.5,3-.9,1-1.8,1.9-2.9,2.6.7-1.1,1.6-2.1,2.5-3,.8-1,1.8-1.9,2.9-2.6Z"/>
    <path class="st5" d="M329.5,301.7h0l8.7-7.3-4.2-10.1-5.9,5.3c-1.4.4-2.8.6-4.2.7-.7,0-1.5,0-2.2-.2-.9-.2-1.8-.5-2.6-.9-.4-.3-.9-.2-1.2.1-.2.2-.2.5-.2.7.3.7,2.2,2,4.8,2.4,2.4.4-.3,2.1-1.8,3.1-.3.2-.4.5-.2.8.8,1.8,3.9,7.7,8.9,5.1Z"/>
    <path class="st7" d="M306.4,269c-.2-.3-.3-.7-.4-1.1-.3-.7-.6-1.8-1-3.1-.9-3.4-1.6-7-1.9-10.5-.3-3.6-.2-7.1.4-10.7.2-1.1.4-2.1.6-3.2,0-.4.2-.8.4-1.1,0,0-.3,1.7-.6,4.4-.4,3.5-.5,7-.2,10.6.3,3.5.9,7,1.7,10.5.3,1.3.6,2.4.8,3.1.1.4.2.8.2,1.2Z"/>
    <path class="st10" d="M348.4,229.6s14.8,19.8,18.7,37.6c1.2,5.6-32.3,32.1-32.3,32.1l-7.7-10.3,23-22.5s-10.9-19.6-11.4-25.8c-.7-6.9,5.2-12.4,9.8-11.1Z"/>
    <path class="st7" d="M340.6,230c-1,.8-1.8,1.8-2.4,2.9-.6,1.3-.9,2.6-.9,4,0,1.7.3,3.4.9,5,1,3,2.3,5.8,3.7,8.6,1.1,2.2,1.8,3.5,1.7,3.5-.2-.3-.4-.5-.6-.9-.4-.6-.9-1.4-1.4-2.5-1.5-2.8-2.8-5.7-3.8-8.7-.6-1.7-.9-3.4-.9-5.2,0-1.5.4-2.9,1-4.2.4-.9,1.1-1.6,1.8-2.2.3-.2.6-.4.9-.5Z"/>
    <path class="st7" d="M356.5,266.5c0,.1-1.6-.3-3.5-.4s-3.5.3-3.5.2c2.2-1,4.8-.9,7,.2h0Z"/>
    <path class="st7" d="M355.1,269c-.1.1-1-.9-2.5-1.7s-2.8-.9-2.8-1.1c1.1-.2,2.1,0,3.1.6,1,.4,1.8,1.2,2.3,2.1Z"/>
    <path class="st5" d="M315.2,219.3s-6.4-1.1-7.7-9.4c-.7-4.1-.5-11-.1-16.5.3-4.9,4.5-8.5,9.3-8.2.1,0,.3,0,.4,0l14.5,1.5c1.5.2,1.5,1.3,1.5,2.8l.9,37.6c0,5.1-4.2,9.3-9.3,9.3h0c-5.1,0-9.3-4.1-9.3-9.2v-7.9"/>
    <path class="st7" d="M309.6,198.8c0,.6.4,1,1,1.1.5,0,1-.3,1.1-.9,0,0,0,0,0-.1,0-.6-.4-1-1-1.1-.5,0-1,.3-1.1.9,0,0,0,0,0,.1Z"/>
    <path class="st7" d="M308.9,196.9c.1.1.9-.5,2.1-.5s2,.6,2.1.4,0-.3-.4-.6c-.5-.3-1.1-.5-1.7-.5-.6,0-1.2.2-1.7.5-.3.3-.5.5-.4.6Z"/>
    <path class="st7" d="M320.8,198.8c0,.6.4,1,1,1.1.5,0,1-.3,1.1-.9,0,0,0,0,0-.1,0-.6-.4-1-1-1.1-.5,0-1,.3-1.1.9,0,0,0,0,0,.1Z"/>
    <path class="st7" d="M320.2,197.1c.1.1,1-.5,2.1-.4s2,.6,2.1.4,0-.3-.4-.6c-.5-.3-1.1-.5-1.7-.5-.6,0-1.2.2-1.7.5-.3.3-.5.5-.4.6Z"/>
    <path class="st7" d="M316,205.7c-.6-.2-1.2-.3-1.9-.3-.3,0-.6,0-.6-.3,0-.3,0-.6.2-.9.3-.7.6-1.4.9-2.2.8-1.9,1.5-3.8,2-5.9-1,1.8-1.8,3.7-2.4,5.7-.3.8-.6,1.5-.8,2.3-.2.4-.2.8-.1,1.1,0,.2.3.4.5.4.2,0,.3,0,.5,0,.6,0,1.3,0,1.9,0Z"/>
    <path class="st8" d="M315.2,219.3c3.9,0,7.8-1,11.2-3,0,0-2.7,5.7-11.1,5v-2Z"/>
    <path class="st8" d="M316.5,208.4c.4-.6,1.1-.8,1.9-.8.5,0,1,.3,1.3.7.3.4.3.9,0,1.4-.4.4-1,.6-1.5.4-.5-.2-1-.5-1.5-.9-.1,0-.2-.2-.3-.3,0-.1,0-.3,0-.4"/>
    <path class="st7" d="M319.4,206.5c-.2,0-.2,1.2-1.3,2.1s-2.4.8-2.4.9.3.2.9.2c.7,0,1.4-.2,2-.7.6-.4.9-1.1,1-1.8,0-.5,0-.8-.2-.8Z"/>
    <path class="st7" d="M319.7,195.1c.1.3,1.3.2,2.6.3s2.4.5,2.6.2-.1-.4-.5-.7c-.6-.4-1.3-.6-2-.7-.7,0-1.4,0-2,.2-.5.2-.8.5-.7.6Z"/>
    <path class="st7" d="M309.3,194.6c.2.3,1,0,2,0s1.8.2,2-.1,0-.4-.4-.6c-1-.6-2.2-.6-3.1,0-.4.2-.5.5-.4.7Z"/>
    <path class="st7" d="M304.3,186c.5-2.3,2.2-4.1,4.5-4.7,1.5-.3,3,.2,4.5,0,1.2,0,1.7-1.1,2.9-1.4,2-.6,3.5-2.8,7.7-2.4,1.1.1,2.6,1.4,3.6,2.9,1.6-.7,3.8,0,4.9.6,2.4,1,3.9,3.8,4.4,6.5.3,2.8.2,5.6-.3,8.4-.2,1.3-.4,2.5-.5,3.8,0,.8-.3,1.7-.7,2.4l1.7,22.7c-7-.2-8.4-6-9.2-10-.7-3.5,1.2-7.1.9-10.7-.2-2.1-1.4-4.1-1.4-6.2,0-.7.1-1.4.3-2.1h0c-3.4-2.8-4.3-5-4.1-7.5-1,.7-2.3,1.1-3.5,1.2-1.8,0-3.6-.7-5.3,0-1.2.6-2.2,1.4-3,2.4-.8,1-2.1,1.6-3.4,1.6-.6-.1-1.2-.4-1.8-.6-.6-.3-1.2-.3-1.8,0-.7-2.2-.8-4.6-.3-6.9Z"/>
  </g>
  <g id="freepik--character-1--inject-3">
    <path class="st5" d="M212.1,265c-1.1-.2-2.1-.2-3.2,0,2.2-.4,3.1-1,3-1.6,0-1-5.2-.5-7.5-.2,2.2-.2,4.4-.6,6.5-1.1,1.1-.5-.2-1.1-1.4-1.4s-9.7-.6-12.1-.8c-.8,0-1.4-.6-1.4-1.4,0,0,0-.1,0-.2,1-3.4,0-6.5-.8-7.2s-1.9,0-1.7,1.1c0,1.2,0,2.4-.3,3.5-.2.9-.5,1.8-1,2.6-.6.9-1.1,1.7-1.5,2.4l-33.1,26.6-4.8-4.1-10.5,12.4,8.1,7.8c3.4,3.3,8.9,3.4,12.4.1l32.5-29.8,12.3-4.3c3.2-.9,4.4-1.5,4.2-2-.3-.8-.1-.5-6.1.3,0,0,8.5-1.2,6.5-2.4Z"/>
    <path class="st8" d="M202.9,267.7c1.4,0,2.8,0,4.1-.4,1.4-.1,2.7-.4,4-.9-2.8,0-5.5.5-8.2,1.3h0Z"/>
    <path class="st8" d="M202.3,265.4c1.5.1,3,0,4.4-.1,1.5,0,2.9-.3,4.4-.7-1.5-.1-3,0-4.4.1-1.5,0-2.9.3-4.4.7Z"/>
    <path class="st8" d="M202.1,263.2c1.4.2,2.8.2,4.2,0,1.4,0,2.8-.2,4.1-.6-1.4-.2-2.8-.1-4.2,0-1.4,0-2.8.2-4.1.6Z"/>
    <path class="st18" d="M129.6,374.2c.2,1.8,12.5,87.7,12.5,87.7h-4l-15.3-86.4,6.8-1.3Z"/>
    <path class="st18" d="M155.9,369.5c6.6-.2,3.5-9.9,3.3-20.4-.1-6.6-4.5-13-9.3-17.6-2.4-2.1-5.3-3.7-8.4-4.7-8.2-2.6-16.9-3.2-25.4-1.6,0,0-2,45.6,39.7,44.3Z"/>
    <path class="st18" d="M198.7,405.8l-3.6-7.4-13.9,6.6,5.1,10.9.9-.4c3.9-1.6,19.9-8.5,22.1-10.5,2.5-2.2-10.6.7-10.6.7Z"/>
    <path class="st7" d="M186,415.7h.2c0,0,.7-.4.7-.4l2.6-1.1c2.2-.9,5.1-2.3,8.4-3.8s6.2-3,8.3-4.1l2.5-1.3.7-.4c0,0,.2,0,.2-.1h-.2c0,.1-.7.4-.7.4l-2.5,1.2c-2.1,1.1-5.1,2.5-8.3,4s-6.2,2.9-8.4,3.9l-2.5,1.2-.7.3c-.2,0-.3.1-.3.1Z"/>
    <path class="st7" d="M205,407.1c0-.5-.1-1-.1-1.4,0-.5.2-.9.4-1.4-.4.4-.6.8-.6,1.4,0,.5,0,1,.3,1.5Z"/>
    <path class="st7" d="M199.9,407s.1-.3.2-.7c0-.3,0-.5,0-.8,0,0-.1.3-.2.7,0,.3,0,.5,0,.8Z"/>
    <path class="st7" d="M198.4,407c0,0,.2-.2.3-.6s.2-.6.2-.6-.2.2-.3.6-.2.6-.2.6Z"/>
    <path class="st7" d="M197.1,406s.4,0,.8-.2.7-.4.7-.4-.4,0-.8.2c-.3,0-.5.2-.7.4Z"/>
    <path class="st7" d="M196.4,405.2c.3,0,.6,0,.9-.1.3,0,.6-.3.8-.5,0,0-.4.1-.9.3-.3,0-.6.2-.8.3Z"/>
    <path class="st7" d="M199.8,405.6c.3,0,.6-.2.9-.4.3-.2.6-.4.9-.7.2-.1.3-.3.4-.5,0-.1.1-.3,0-.4,0-.2-.2-.3-.3-.3-.9,0-1.6.6-1.8,1.4,0,.2,0,.5,0,.7,0,0,0,.2.1.2,0-.3,0-.7,0-1,0-.3.3-.6.5-.9.3-.3.7-.4,1.1-.4.2,0,.2.2.1.4-.1.2-.2.3-.4.5-.2.3-.5.5-.8.7-.5.4-.8.6-.8.6Z"/>
    <path class="st7" d="M200,405.5c0-.2,0-.5-.2-.7-.1-.2-.3-.4-.6-.5-.3-.2-.7-.2-1-.1-.2.1-.2.4,0,.5,0,.1.2.2.3.3.2.1.4.3.7.3.2,0,.5.1.7.1,0,0-.3,0-.6-.2-.2,0-.4-.2-.6-.4-.2-.1-.5-.4-.2-.6.3,0,.5,0,.8.1.2.1.4.3.5.5.1.2.3.4.3.6Z"/>
    <path class="st7" d="M184.5,411.7s.4-.2,1.1-.5c.9-.3,1.8-.3,2.7-.1.9.2,1.7.7,2.3,1.3.5.5.7.9.7.9,0,0,0-.2-.1-.3-.1-.2-.3-.5-.5-.7-1.3-1.4-3.4-1.9-5.2-1.2-.3,0-.5.2-.8.4,0,0-.2.1-.2.2Z"/>
    <path class="st7" d="M183.2,405.2c.4,1,.8,2,1.2,2.9.4,1,.9,1.9,1.4,2.8-.4-1-.8-2-1.2-2.9-.4-1-.9-1.9-1.4-2.8Z"/>
    <path class="st7" d="M192.5,411.2c.7-.2,1.5-.4,2.1-.8.7-.3,1.4-.7,2-1.1,0,0-.9.4-2,1s-2.1.8-2.1.9Z"/>
    <path class="st7" d="M189.7,412.5s.2.1.4.3.3.3.4.3,0-.3-.3-.4-.5-.2-.5-.2Z"/>
    <path class="st7" d="M188.1,411.7s.1.1.4.2.4.1.4,0-.1-.1-.4-.2-.4-.1-.4,0Z"/>
    <path class="st7" d="M186.4,411.8s.2,0,.4,0,.4,0,.5,0-.2-.2-.5-.1-.5.2-.4.2Z"/>
    <path class="st7" d="M185.2,412s.1,0,.3,0,.2,0,.2-.1-.1,0-.3,0-.2.1-.2.1Z"/>
    <path class="st18" d="M158.8,457.7v-8.2c-.1,0-15.6.2-15.6.2v12c0,0,1.1,0,1.1,0,4.2.2,21.6.6,24.5-.2,3.1-1-10-3.8-10-3.8Z"/>
    <path class="st7" d="M143.1,461.4h3.8c2.4.1,5.6.2,9.2.1s6.9-.1,9.2-.2h2.8c0-.1.8-.2.8-.2,0,0,.2,0,.3,0h-3.8c-2.4.2-5.6.2-9.2.3s-6.9,0-9.2,0h-3.9Z"/>
    <path class="st7" d="M163.8,461.5c.1-.5.3-.9.5-1.3.3-.4.6-.8.9-1.1-.5.2-.9.5-1.1,1-.3.4-.4.9-.3,1.4Z"/>
    <path class="st7" d="M159.3,459.3s.3-.2.5-.6c.2-.2.3-.4.3-.7,0,0-.3.2-.5.6s-.4.7-.3.7Z"/>
    <path class="st7" d="M158,458.6s.3-.1.5-.4.4-.5.4-.5-.3.1-.5.4-.4.5-.4.5Z"/>
    <path class="st7" d="M157.2,457.2c.3,0,.5.1.8,0,.3,0,.5,0,.8,0-.3,0-.5-.1-.8-.1-.3,0-.5,0-.8.1Z"/>
    <path class="st7" d="M156.9,456.2c.3.2.6.3.9.2.3,0,.6,0,.9-.1-.3,0-.6,0-.9,0-.3,0-.6,0-.9,0Z"/>
    <path class="st7" d="M159.8,458c.3,0,.7,0,1,0,.4,0,.7-.1,1.1-.2.2,0,.4-.2.6-.3.1,0,.2-.2.2-.3,0-.2,0-.3-.2-.4-.8-.4-1.7-.1-2.2.5-.2.2-.3.4-.3.7,0,0,0,.2,0,.3,0-.3.2-.6.4-.9.2-.3.5-.5.8-.6.4-.1.8-.1,1.2,0,.2.1.1.3,0,.4-.2,0-.4.2-.6.2-.3.1-.7.2-1,.3-.6,0-1,0-1,.1Z"/>
    <path class="st7" d="M160,458c.1-.2.2-.5.1-.7,0-.3-.1-.5-.3-.7-.2-.3-.5-.5-.8-.5-.2,0-.3.3-.3.5,0,.2,0,.3.2.4.1.2.3.4.5.6.2.2.3.3.6.4,0,0-.2-.2-.5-.5-.2-.2-.3-.4-.4-.6-.1-.2-.2-.6,0-.6s.5.2.7.4c.1.2.2.4.3.6,0,.2,0,.4,0,.7Z"/>
    <path class="st7" d="M143.3,457.1h1.1c1.9.2,3.4,1.4,4.1,3.2.2.7.3,1.1.3,1.1,0-.1,0-.2,0-.3,0-.3,0-.6-.2-.8-.3-.9-.8-1.7-1.6-2.3-.7-.6-1.6-.9-2.6-1-.3,0-.6,0-.9,0-.1,0-.2,0-.3.1Z"/>
    <path class="st7" d="M144.9,450.7c0,1.1-.1,2.1-.1,3.2,0,1.1,0,2.1,0,3.2,0-1.1.1-2.1.1-3.2,0-1.1,0-2.1,0-3.2Z"/>
    <path class="st7" d="M150.8,460c.7.2,1.5.2,2.2.2.8,0,1.5,0,2.2-.2,0,0-1,0-2.2,0h-2.2Z"/>
    <path class="st7" d="M147.8,460s0,.2.2.4.2.4.2.4,0-.2,0-.5-.4-.4-.4-.4Z"/>
    <path class="st7" d="M146.6,458.6s0,.2.2.4.3.3.4.2,0-.2-.2-.4-.3-.3-.4-.2Z"/>
    <path class="st7" d="M145,458s.2,0,.4.1.4.2.4.2,0-.2-.4-.3-.5,0-.5,0Z"/>
    <path class="st7" d="M143.8,457.7s0,.1.2.2.2,0,.3,0,0-.1-.2-.2-.3,0-.3,0Z"/>
    <path class="st18" d="M95.5,375.7h27.3c2.8-.1,5.7-.2,8-1.7,2.4-1.7,3.6-4.7,3.1-7.6-.6-2.9-2.1-5.5-4.2-7.5-4.5-4.6-10.4-7.4-16.8-9.3l-20.4-64.6c-3.9-.3-7.9-.6-11.8.2s-7.7,2.8-9.7,6.2-2.1,7.6-2.1,11.6c0,16,.1,32,.2,48.1-.2,9.9.8,17.9,8.1,21.7,1.3.7,2.7,1.2,4.1,1.6h0c-.2,1.8-11.8,87.8-11.8,87.8h4l9.4-55.3,23.4-13.2,24.3,11,.6-1.6-23-10.5,18.7-10.5-.8-1.5-19.9,11.1-19.3-8.8,1.3-7.4c2.5.2,4.9.2,7.4.2ZM104.2,392.8l-21,11.7,3.4-19.7,17.6,8Z"/>
    <path class="st0" d="M83.2,278.4l6.9,34.6-1.2,26,49.5-1.6-4.7-28.9v-18.8l6.4,8.1,13.5-15.8-15.9-16.9h0c-3-3.1-6.6-5.5-10.7-6.9-2.1-.8-4.4-1.2-6.7-1.3h0c-5.3,1.7-10.9,1.7-16.2,0l-2.7.3h-.2c-9.9,1.2-17.5,9.4-18,19.4v1.8Z"/>
    <path class="st7" d="M133.6,289.9c-.3-2.5-.3-5-.3-7.5,0-2.5,0-5,.3-7.5.3,2.5.3,5,.3,7.5,0,2.5,0,5-.3,7.5Z"/>
    <path class="st0" d="M101.5,257.2s-19.2.1-21.5,20.4l-1.2,15,17.4-.3,5.3-35Z"/>
    <path class="st7" d="M78.8,292.6c.4,0,.9-.1,1.3-.1h3.6c0-.1,12.6-.5,12.6-.5l-.2.2c.2-2.9.4-6,.6-9.4.2-3.7.5-7.3.7-10.5,0-1.5,0-3-.3-4.5-.3-1.3-.8-2.5-1.6-3.5-1.1-1.6-2.9-2.4-4.9-2.4-.7,0-1.4.2-2,.5.1-.1.3-.2.5-.3.5-.2,1-.4,1.5-.4.8,0,1.7,0,2.5.3,1.1.4,2,1.1,2.7,2,.8,1.1,1.4,2.3,1.7,3.7.3,1.5.4,3.1.4,4.6-.2,3.2-.4,6.8-.7,10.5-.2,3.3-.4,6.5-.6,9.4v.2h-.2l-12.7.2h-3.7c-.4,0-.9,0-1.3,0Z"/>
    <path class="st0" d="M108.5,269.7c-1.4-.8-2.7-1.7-3.9-2.7-1.3-.9-2.6-1.8-3.7-2.9,1.4.7,2.8,1.5,4,2.5,1.3.9,2.6,1.9,3.7,3.1Z"/>
    <path class="st0" d="M108.3,276.3c-.6.9-1.4,1.8-2.2,2.5-.8.8-1.6,1.6-2.6,2.1.6-.9,1.4-1.8,2.2-2.5.8-.8,1.6-1.6,2.6-2.1Z"/>
    <path class="st0" d="M118.9,282c-.6-.7-1.2-1.6-1.5-2.5-.5-.8-.8-1.7-1-2.7,1.1,1.6,2,3.3,2.5,5.2Z"/>
    <path class="st0" d="M130.2,269.4c-.7.7-1.5,1.3-2.4,1.7-.8.6-1.7,1-2.7,1.2.7-.7,1.5-1.3,2.4-1.7.8-.6,1.7-1,2.7-1.2Z"/>
    <path class="st0" d="M127.8,264.4c-1.1,0-2.2-.2-3.2-.5-1.1-.2-2.1-.5-3.1-1,1.1,0,2.2.2,3.2.5,1.1.2,2.1.5,3.1,1Z"/>
    <path class="st0" d="M140.7,277.9c-.2-1,0-2,.3-3,.2-1,.6-2,1.3-2.8-.2,1-.4,2-.8,2.9-.2,1-.4,1.9-.8,2.9Z"/>
    <path class="st0" d="M104.4,298.1c-.8-.6-1.6-1.4-2.2-2.2-.7-.8-1.3-1.6-1.8-2.6,1.6,1.4,2.9,3,3.9,4.8Z"/>
    <path class="st0" d="M113.8,291.2c-.1,0-.7-.8-1.3-1.9-.4-.6-.8-1.4-.9-2.1.1,0,.7.8,1.3,1.9s1.1,2.1.9,2.1Z"/>
    <path class="st0" d="M130.3,306.2c-.6.8-1.2,1.5-1.9,2.2-.5.8-1.1,1.5-1.8,2.2.2-1,.7-1.9,1.4-2.6.6-.8,1.4-1.5,2.3-1.9Z"/>
    <path class="st0" d="M144.7,282.3c0,.1-.6.6-1.6.8s-1.8,0-1.8,0,.8-.3,1.7-.5,1.7-.4,1.7-.3Z"/>
    <path class="st0" d="M90.3,271.2c.3-.8.7-1.6,1.2-2.2.8-1.2,1.5-2,1.7-2-.3.8-.7,1.6-1.2,2.2-.8,1.2-1.5,2.1-1.7,2Z"/>
    <path class="st0" d="M86,274.2c-.1,0-.7-.8-1.2-2-.4-.7-.6-1.4-.7-2.2.1,0,.7.8,1.2,2,.4.7.6,1.4.7,2.2Z"/>
    <path class="st0" d="M88.5,281c-.7,0-1.4,0-2.1-.4-1.1-.3-2-.7-2-.9.7,0,1.4.1,2.1.4,1.2.3,2.1.7,2,.9Z"/>
    <path class="st0" d="M93.8,279.3c-.1-.8-.1-1.7,0-2.5,0-.8.2-1.7.6-2.4.2.8.1,1.7,0,2.5,0,.8-.2,1.7-.6,2.4Z"/>
    <path class="st0" d="M88.8,288.4c-.8-.2-1.7-.5-2.4-1-1.2-.7-2.2-1.3-2.1-1.5.8.2,1.6.5,2.4,1,1.2.7,2.2,1.3,2.1,1.5Z"/>
    <path class="st0" d="M115.6,267.4c-.2,0-.2-.8-.3-1.8s-.2-1.8,0-1.9.5.8.6,1.8,0,1.9-.2,1.9Z"/>
    <path class="st0" d="M128.7,283.3c-.1,0-.8-.8-1.5-2-.5-.7-.8-1.4-1-2.2.1,0,.8.8,1.5,2,.5.6.8,1.4,1,2.2Z"/>
    <path class="st0" d="M109.9,332.7c-.8-.4-1.6-1-2.2-1.6-1.1-1-2-1.9-1.9-2,.8.4,1.6,1,2.2,1.6,1.1,1,2,1.9,1.8,2Z"/>
    <path class="st0" d="M119.2,327.3c-1.4,1.1-2.9,1.9-4.6,2.4.6-.6,1.4-1.1,2.2-1.4.7-.5,1.6-.8,2.4-1Z"/>
    <path class="st0" d="M129.1,329.6c-.1.1-.9-.5-1.8-1.3s-1.6-1.6-1.5-1.7.9.5,1.8,1.3c.9.8,1.6,1.6,1.5,1.7Z"/>
    <path class="st0" d="M119.8,313c.1.1-.3.7-.9,1.4s-1.2,1.1-1.3,1,.3-.7.9-1.4,1.2-1.1,1.3-1Z"/>
    <path class="st0" d="M96.8,303.4c-.2,0-.2-.9-.2-2s.2-1.9.3-1.9.2.9.2,2-.2,1.9-.3,1.9Z"/>
    <path class="st7" d="M100.8,230c0-1.3-1.1-3.1-2.2-4.2-1.3-1.2-1.8-3-1.2-4.6.4-1.6,1.5-1.5,1.9-2.5.2-.7.3-1.5.2-2.3.3-2.6,2.7-4.5,5.4-4.1.1,0,.2,0,.3,0,1-3.5,4.7-5.5,8.2-4.5,1.7.5,3.2,1.7,4,3.3,2.5-1.3,5.6-.3,6.9,2.2.3.6.5,1.3.6,2,1.6-1,3.6-.7,4.8.7,1.1,1.4,1.2,3.4.3,5-.9,1.6-2.5,2.6-4.3,2.9-1.8.2-3.6-.1-5.2-1-1.6-.8-3-1.9-4.3-3.2"/>
    <path class="st5" d="M114.9,214.5c6.8,0,12.4,5.5,12.5,12.3.1,6.2.2,12.8-.2,14.8-1.2,7.8-7.2,8.8-7.2,8.8,0,0,0,4.9-.1,9.5,0,4.4-3.9,8.1-8.6,8.2h0c-4.5.3-8.3-3.1-8.6-7.6,0,0,0,0,0-.1l-.4-33.2c0-6.9,5.5-12.6,12.4-12.6,0,0,0,0,.1,0Z"/>
    <path class="st7" d="M125.8,230.5c0,.6-.4,1-1,1-.5,0-.9-.4-1-.9,0-.6.4-1,1-1,.5,0,.9.4,1,.9Z"/>
    <path class="st7" d="M126,229.4c-.1.1-.9-.4-2-.4s-1.9.5-2,.4,0-.3.4-.6c.5-.3,1-.5,1.6-.5.6,0,1.1.2,1.6.5.4.2.5.5.4.6Z"/>
    <path class="st7" d="M115,230.5c0,.6-.4,1-1,1-.5,0-.9-.4-1-.9,0-.6.4-1,1-1,.5,0,.9.4,1,.9Z"/>
    <path class="st7" d="M115.4,229.6c-.1.1-.9-.4-2-.4s-1.9.5-2,.4,0-.3.4-.5c.5-.3,1-.5,1.6-.5.6,0,1.1.2,1.6.5.4.2.5.5.4.5Z"/>
    <path class="st7" d="M119.3,237.6c.6-.2,1.2-.3,1.8-.3.3,0,.5,0,.6-.3,0-.3,0-.6-.2-.8-.3-.7-.5-1.4-.8-2.1-.8-1.8-1.4-3.6-1.8-5.5.9,1.7,1.6,3.5,2.3,5.3.3.7.5,1.4.8,2.1.2.3.2.7.2,1.1,0,.2-.3.4-.5.4-.2,0-.3,0-.5,0-.6,0-1.2,0-1.8,0Z"/>
    <path class="st8" d="M120.1,250.3c-3.7,0-7.3-.9-10.5-2.8,0,0,2.5,5.4,10.4,4.6v-1.9Z"/>
    <path class="st7" d="M116.1,238.3c.2,0,.2,1.2,1.2,2s2.2.7,2.2.9-.3.2-.8.2c-.7,0-1.3-.2-1.9-.7-.5-.4-.8-1-.9-1.7,0-.5,0-.8.2-.8Z"/>
    <path class="st7" d="M115.7,225.4c-.1.3-1.2.2-2.4.3s-2.3.5-2.5.2c0-.1.1-.4.5-.7.5-.4,1.2-.6,1.8-.6.6,0,1.3,0,1.9.2.5.2.7.4.7.6Z"/>
    <path class="st7" d="M125.6,226.3c-.2.2-.9,0-1.8,0s-1.6.2-1.8-.1,0-.4.4-.6c.9-.6,2.1-.5,2.9,0,.3.2.4.5.3.6Z"/>
    <path class="st5" d="M103.4,229.9c-.1,0-4.5-1.5-4.6,3s4.5,3.7,4.6,3.5,0-6.5,0-6.5Z"/>
    <path class="st8" d="M102,234.7s0,0-.2.1c-.2,0-.4,0-.6,0-.6-.4-.9-1.1-.9-1.8,0-.4,0-.8.2-1.1,0-.3.3-.5.6-.6.2,0,.4,0,.5.2,0,.1,0,.2,0,.2s0,0,0-.3c0-.1,0-.2-.2-.3-.1,0-.3-.1-.4-.1-.4,0-.7.3-.8.7-.2.4-.3.8-.3,1.3,0,.8.4,1.6,1.1,2,.2,0,.5,0,.7-.1.2-.1.2-.2.2-.2Z"/>
    <path class="st7" d="M128.4,222.2s-4,2-9.3-.7c-3.4-1.7-7.4-2.6-8.3-1.9s-1.1,4.2-4.5,5.3c0,0,.2,6.8-2.5,6.5s-2.7-12.1-2.7-12.1l8-5.9,8.7-.7,7,2.9,3.9,2.9-.3,3.6Z"/>
    <path class="st5" d="M141.2,289.6c-1.2-.9-5.8,5.5-5.6,3.5s6.6-7.1,5.3-8c-1.6-1.1-6.4,5.7-6.9,6.2s-1.2-.1-.8-.6c.6-.7,6.9-7.9,5.3-9-.9-.6-1.8,1.1-1.8,1.1,0,0-5.4,7.2-6.1,6.7s2.3-4.9,3.4-6.3.9-2.5,0-2.5-4.2,4.2-5.3,5.6-4,5.3-4.1,2.2h0c0-3.2-1-5.6-1.8-6.1-.5-.3-1.2,0-1.4.5-.1.2-.1.4-.1.7,0,.1,0,.3.1.4,0,0,0,.1,0,.2.2,1,.4,2.1.4,3.1,0,.9,0,1.9-.4,2.8-.3,1-.7,1.9-.9,2.6l-.5.6-26.1,14.8h0l.7-15.1v-.6h-15.4c0,.1-.3,20.3-.3,20.3,0,2,.2,4,.6,5.9.7,3,1.7,5.7,4.3,7.4,5.8,3.9,15.3,2.7,20.5-2l21.7-19.7,4.5-4.1h0c2.9-2.1,5.6-4.4,8.2-6.9,3.3-3.3,2.9-3.6,2.5-3.9Z"/>
    <path class="st7" d="M91.8,342.2s70.6-20.6,77-17.6,32.8,76.9,32.8,76.9l-20.3,9.9-25.8-63s-50.2,19.5-58.2,17.9-5.6-24-5.6-24Z"/>
    <path class="st7" d="M121.7,340.1c1,.3,39.7,13,42.4,18s-1.3,96.6-1.3,96.6l-24.5,1,1.1-88.4-42.4-1,24.7-26.2Z"/>
    <path class="st18" d="M96.8,366.3c.2,0,.4,0,.6,0l1.8-.3c1.5-.3,3.8-.7,6.5-1.3,5.4-1.2,13-2.9,21.2-5.3,4.1-1.2,8-2.4,11.4-3.6s6.6-2.4,9.2-3.5c1.3-.5,2.4-1,3.5-1.5s1.9-.9,2.6-1.2l1.6-.8c.2,0,.4-.2.6-.3-.2,0-.4.1-.6.2l-1.6.7c-.7.3-1.6.7-2.6,1.1-1,.4-2.2.9-3.5,1.4-2.6,1.1-5.7,2.2-9.2,3.4s-7.4,2.4-11.4,3.6c-8.2,2.4-15.7,4.2-21.1,5.4l-6.4,1.5-1.8.4c-.2,0-.4.1-.6.2Z"/>
    <path class="st18" d="M164.6,378c.1-.4.2-.8.2-1.2,0-.9.2-2,.4-3.4.1-1.5.3-3.2.5-5.1.3-2.1.3-4.2,0-6.3-.4-2.1-1.5-4-3.2-5.4-1.3-1.1-2.8-2.1-4.3-2.8-1.3-.6-2.4-1-3.2-1.3-.4-.2-.8-.3-1.2-.4,0,0,1.7.7,4.3,1.9,1.5.7,2.9,1.7,4.2,2.8,1.5,1.4,2.6,3.2,3,5.2.3,2,.3,4.1,0,6.2-.1,1.9-.3,3.6-.4,5.1s-.1,2.5-.2,3.4c0,.4,0,.8,0,1.3Z"/>
    <path class="st18" d="M110.6,372.3c6.6-.4,3.5-9.9,3.3-20.4,0-6.6-4.5-13-9.2-17.6-2.4-2.1-5.3-3.7-8.4-4.7-8.2-2.6-16.9-3.2-25.4-1.6,0,0-12.4,47.7,39.7,44.3Z"/>
    <polygon class="st18" points="117.6 317.5 190.8 317.5 201.7 280.8 150.1 281.2 138.1 314.8 117.6 315.1 117.6 317.5"/>
    <circle class="st11" cx="171.7" cy="299.9" r="2.9"/>
  </g>
  <g id="freepik--desk-1--inject-3">
    <path class="st7" d="M26.5,317.5v6.7h17.8v137.9h7.3v-128.6h217.1v128.5h7.3v-137.8h14.4v-6.7H26.5ZM51.6,331.8v-7.5h217.1v7.5H51.6Z"/>
    <rect class="st18" x="226.3" y="282.6" width="40.5" height="5.4"/>
    <path class="st13" d="M231.9,282.8c.3,1.7.3,3.4,0,5.1-.3-1.7-.3-3.4,0-5.1Z"/>
    <path class="st13" d="M231,282.7c.3,1.7.3,3.4,0,5.1-.3-1.7-.3-3.4,0-5.1Z"/>
    <path class="st13" d="M263.7,282.8c.3,1.7.3,3.4,0,5.1-.3-1.7-.3-3.4,0-5.1Z"/>
    <path class="st13" d="M262.8,282.7c.3,1.7.3,3.4,0,5.1-.3-1.7-.3-3.4,0-5.1Z"/>
    <path class="st13" d="M257.5,285.4c0,.1-4.6.2-10.4.2s-10.4-.1-10.4-.2,4.6-.3,10.4-.3,10.4.1,10.4.3Z"/>
    <rect class="st0" x="226" y="306.7" width="40.5" height="10.8"/>
    <path class="st13" d="M267,314.5c0,0-.1,0-.2.1-.1,0-.4.2-.7.3-.9.4-1.8.6-2.7.8-1.5.3-3.1,0-4.5-.6-.8-.5-1.6-1.1-2.1-1.9-.6-.9-.9-2-.7-3.1,0-.6.3-1.2.7-1.6.4-.5,1.1-.8,1.7-.8.7,0,1.3.4,1.7.9.4.5.7,1.2.8,1.9.1,1.4-.4,2.8-1.4,3.8-1,1.1-2.4,1.8-3.9,1.9-1.5.2-3.1,0-4.5-.6-1.5-.5-2.9-1.4-3.9-2.6-.5-.7-.9-1.5-.9-2.3,0-.9.2-1.8.9-2.4.3-.3.8-.5,1.3-.6.5,0,.9.1,1.3.4.8.5,1.3,1.3,1.5,2.2.3,1.8-.3,3.6-1.6,4.8-1.3,1.1-2.9,1.7-4.6,1.9-1.6.2-3.2,0-4.7-.5-1.5-.5-2.8-1.5-3.6-2.8-.8-1.3-1-2.9-.4-4.3.3-.7.9-1.2,1.6-1.4.7-.1,1.4,0,2,.5,1,.9,1.4,2.3,1,3.6-.4,1.1-1.1,2.1-2,2.9-1.6,1.3-3.5,2.1-5.6,2.1-1.5,0-3-.3-4.4-1-.9-.4-1.6-1-2.3-1.7-.2-.2-.3-.4-.5-.6-.1-.1-.1-.2-.1-.2.9.9,1.9,1.7,3,2.3,1.3.7,2.8,1,4.3.9,2-.1,3.8-.9,5.3-2.1.9-.7,1.5-1.6,1.9-2.7.4-1.1,0-2.4-.8-3.2-.5-.4-1.1-.5-1.7-.4-.6.1-1.1.6-1.3,1.1-.5,1.3-.3,2.7.4,3.9.8,1.2,2,2.1,3.3,2.6,1.5.5,3,.6,4.5.4,1.6-.1,3.1-.7,4.3-1.7,1.2-1.1,1.7-2.7,1.4-4.3-.2-.8-.6-1.4-1.3-1.9-.6-.5-1.5-.4-2,.1-.5.5-.8,1.3-.7,2,0,.8.3,1.5.8,2.1,1,1.2,2.3,2,3.7,2.5,1.4.5,2.8.7,4.3.5,1.4-.1,2.7-.7,3.6-1.7.9-.9,1.4-2.2,1.3-3.5,0-1.2-.9-2.2-2.1-2.4-.5,0-1.1.2-1.4.6-.3.4-.6.9-.7,1.4-.1,1,0,2,.6,2.9.5.8,1.2,1.4,2,1.8,1.3.7,2.8.9,4.3.7.9-.1,1.8-.4,2.7-.7.3-.1.6-.2.9-.3Z"/>
    <rect class="st7" x="229.6" y="288" width="36.8" height="18.8"/>
    <path class="st0" d="M235.8,288.6c.3,3,.3,6.1.2,9.1,0,3,0,6.1-.2,9.1-.3-3-.3-6-.3-9.1,0-3,0-6.1.3-9.1Z"/>
    <path class="st0" d="M238.6,288.4c.3,3,.3,6,.3,9,0,3,0,6-.3,9-.3-3-.3-6-.2-9,0-3,0-6,.2-9Z"/>
    <path class="st0" d="M262.3,287.8c.3,3.1.3,6.3.2,9.4,0,3.1,0,6.3-.2,9.4-.3-3.1-.3-6.3-.2-9.4,0-3.1,0-6.3.2-9.4Z"/>
    <path class="st0" d="M259,288c.3,3.1.3,6.1.2,9.2,0,3.1,0,6.1-.2,9.2-.3-3.1-.3-6.1-.3-9.2,0-3.1,0-6.1.3-9.2Z"/>
  </g>
  <g id="freepik--Pictures--inject-3">
    <rect class="st7" x="361" y="78.7" width="54.1" height="122.7"/>
    <rect class="st13" x="363.5" y="81.4" width="49.1" height="117.2"/>
    <rect class="st18" x="369.9" y="89.5" width="36.1" height="101.6"/>
    <rect class="st7" x="427.8" y="78.7" width="54.1" height="122.7"/>
    <rect class="st13" x="430.4" y="81.4" width="49.1" height="117.2"/>
    <rect class="st7" x="436.7" y="89.5" width="36.1" height="101.6"/>
    <rect class="st7" x="42" y="86.2" width="54.1" height="122.7"/>
    <rect class="st13" x="44.5" y="88.9" width="49.1" height="117.2"/>
    <rect class="st9" x="50.8" y="96.9" width="36.1" height="101.6"/>
  </g>
</svg>