<?xml version="1.0" encoding="UTF-8"?>
<svg id="Layer_1" xmlns="http://www.w3.org/2000/svg" version="1.1" viewBox="0 0 500 500">
  <!-- Generator: Adobe Illustrator 29.6.1, SVG Export Plug-In . SVG Version: 2.1.1 Build 9)  -->
  <defs>
    <style>
      .st0 {
        fill: #e0e0e0;
      }

      .st1 {
        fill: #ffbe9d;
      }

      .st2 {
        fill: #ebebeb;
      }

      .st3 {
        fill: #263238;
      }

      .st4 {
        fill: #eb996e;
      }

      .st5 {
        fill: #1211ca;
      }

      .st6 {
        fill: #ffde59;
      }

      .st7 {
        fill: #fff;
      }

      .st8 {
        fill: #1abc9c;
      }

      .st9 {
        fill: #fafafa;
      }

      .st10 {
        opacity: .8;
      }

      .st11 {
        opacity: .6;
      }

      .st12 {
        opacity: .3;
      }

      .st13 {
        fill: #f5f5f5;
      }

      .st14 {
        fill: #455a64;
      }
    </style>
  </defs>
  <g id="freepik--background-complete--inject-45">
    <path class="st0" d="M124.8,359.3c-2-2.1-4.9-2.9-7.7-3.9-21.4-7.9-32.3-31.6-24.4-52.9,1.4-3.7,3.2-7.1,5.5-10.3l-.4-2.1c-.9-9.9-12.8-16.9-21.9-13s-12.2,17.4-5.7,24.8c-10.7.9-17.7,13-16.2,23.6s9.3,19.3,17.9,25.6c14.3,10.4,31.5,16.1,49.2,16.3,1.2.1,2.4-.1,3.5-.6,2.5-1.5,2.2-5.5.2-7.6Z"/>
    <path class="st0" d="M422.2,316.2c2.5-4,2.8-9.4.3-13.3s-8-6-12.2-4c2.6-4.2,1.3-9.7-2.9-12.3-4.2-2.6-9.7-1.3-12.3,2.9h0c-2.8,4.4-1.3,10.3,1.1,14.9s5.8,9,6.6,14.1-1.2,10.7-4.4,15-7.4,7.7-11.5,11l-.8.8c7.6,2.6,16,1.9,23-2,3.9-2.2,7.5-5.8,7.8-10.2.1-2.5-.8-5-.4-7.5.5-3.5,3.7-6.2,5.7-9.3Z"/>
    <path class="st0" d="M207.1,479.7c-3.9-.5-7.8-2.2-10.1-5.4-1.5-2-2.2-4.5-3.4-6.7s-3.5-4.1-6-3.9c-3.9.4-6.5,5.7-10.2,4.8-2.3-.6-3.3-3.2-3.4-5.6s.7-4.7.4-7c-.8-6.5-9.2-9.7-15.4-7.7s-15.7,9.5-19.8,14.7c4.3,7.1,13.1,9.9,21.1,11.9,13.5,3.4,27.1,6.2,40.8,8.6,3.2.5,6.5,1.1,9.7.6s6.4-2.2,7.9-5.1c-3.8.6-7.8,1.2-11.7.7Z"/>
    <path class="st0" d="M362,429.5c-1-5.6-6.5-10.5-12-9.2,4.6-3.8,4.6-11.3,1-16s-9.9-6.7-15.8-6.5-11.6,2.2-17.1,4.5c2.7-3.4-1.2-8.8-5.6-9s-8.2,2.5-11.8,5-7.6,5.2-11.9,4.5l4,1.6c9.6,1.5,19.4,3.7,27.7,8.8s15.2,13.3,16.7,22.9-3.6,20.5-12.8,23.8c12.6.7,24.7-4.8,32.5-14.7,3.4-4.5,6-10.1,5-15.7Z"/>
    <path class="st0" d="M44.9,285.4c-.3-3.1-.3-6.2-.3-9.3,0-3.1,0-6.2.3-9.3.3,3.1.4,6.2.3,9.3,0,3.1,0,6.2-.3,9.3Z"/>
    <path class="st0" d="M54.6,276c-3.2.3-6.4.3-9.6.3-3.2,0-6.4,0-9.6-.3,3.2-.3,6.4-.4,9.6-.3,3.2,0,6.4,0,9.6.3Z"/>
    <path class="st0" d="M416.4,381.1c-.3-3.1-.4-6.2-.3-9.3,0-3.1,0-6.2.3-9.3.3,3.1.3,6.2.3,9.3,0,3.1,0,6.2-.3,9.3Z"/>
    <path class="st0" d="M426,371.8c-3.2.3-6.4.4-9.6.3-3.2,0-6.4,0-9.6-.3,3.2-.3,6.4-.3,9.6-.3,3.2,0,6.4,0,9.6.3Z"/>
    <path class="st0" d="M359.9,61.5c-.3-3.1-.4-6.2-.3-9.3,0-3.1,0-6.2.3-9.3.3,3.1.3,6.2.3,9.3,0,3.1,0,6.2-.3,9.3Z"/>
    <path class="st0" d="M369.5,52.1c-3.2.3-6.4.4-9.6.3-3.2,0-6.4,0-9.6-.3,3.2-.3,6.4-.3,9.6-.3,3.2,0,6.4,0,9.6.3Z"/>
    <circle class="st0" cx="55.7" cy="197.9" r="5.7"/>
    <path class="st0" d="M282.8,440.2c0,3.1-2.5,5.7-5.7,5.7-3.1,0-5.7-2.5-5.7-5.7s2.5-5.7,5.7-5.7h0c3.1,0,5.7,2.5,5.7,5.7h0Z"/>
    <path class="st0" d="M335.7,332.7c0,3.1-2.5,5.7-5.7,5.7-3.1,0-5.7-2.5-5.7-5.7,0-3.1,2.5-5.7,5.7-5.7,3.1,0,5.7,2.5,5.7,5.7,0,0,0,0,0,0Z"/>
    <path class="st0" d="M166.6,49.3c0,3.1-2.5,5.7-5.7,5.7s-5.7-2.5-5.7-5.7,2.5-5.7,5.7-5.7,5.7,2.5,5.7,5.7h0Z"/>
    <circle class="st0" cx="190.7" cy="386" r="2.9"/>
    <path class="st0" d="M124.9,371.8c0,1.6-1.3,2.9-2.8,2.9-1.6,0-2.9-1.3-2.9-2.8,0-1.6,1.3-2.9,2.8-2.9,0,0,0,0,0,0,1.6,0,2.8,1.3,2.8,2.8,0,0,0,0,0,0Z"/>
    <path class="st0" d="M195.1,55c0,1.6-1.3,2.9-2.9,2.9s-2.8-1.3-2.8-2.8,1.3-2.8,2.8-2.9c1.6,0,2.8,1.3,2.9,2.8Z"/>
    <path class="st0" d="M320.4,208.9c0,1.6-1.3,2.8-2.9,2.8s-2.9-1.3-2.9-2.9c0-1.6,1.3-2.8,2.9-2.8s2.9,1.3,2.9,2.8h0Z"/>
    <path class="st2" d="M47.1,46.5s-6.3,3.3,2.5,16.5c8.9,13.3,14.7,19.7,14.7,19.7,0,0,1.7,3.1-1,4s-8.9.6-9.7,4.1,2.1,6.7,7.6,9,17.3,7.7,18.4,8.2,2.2,1.9.5,2.8-15.2,3.9-13.4,10.2,18.2,10.2,20,10.6,2.3,1.1,2.2,2.1-4.7,1.6-8.5,2.6-8,2.9-6.7,6.4,11.6,10.2,34.4,9.7l10.6-.9,4.7-9.6c8.8-21.1,6.4-33,3.5-35.6s-6.1.7-8.4,3.9-4.6,7.3-5.5,7-1.3-1-1.1-2.9,2.6-18.5-2.6-22.5-13,7.4-14.4,8.8-2.3-.3-2.4-1.4-.8-14.3-.9-20.2-1.8-9.8-5.6-10.4-5.6,5.4-7.4,7.6-4.1-.5-4.1-.5c0,0-3.8-7.8-13-20.9s-14.6-8.3-14.6-8.3"/>
    <path class="st0" d="M119.6,153.9c-6.7-9.6-18.2-27-28.2-41.9s-19-28.3-25.7-38l-7.8-11.4c-.9-1.3-1.6-2.4-2.1-3.1-.2-.4-.4-.6-.5-.8s-.2-.3-.2-.3l.2.3.6.8,2.2,3.1c1.9,2.7,4.6,6.6,7.9,11.4,6.7,9.7,15.8,23,25.8,37.9s21.5,32.2,28.1,41.9"/>
    <path class="st0" d="M62.3,91.5c.3,0,.5,0,.8.1.5,0,1.2.2,2,.5,1.7.4,4.1,1,6.7,1.8l6.6,1.9,2,.6c.3,0,.5.1.7.2-.3,0-.5,0-.8-.1-.5,0-1.2-.2-2-.5-1.7-.4-4.1-1.1-6.7-1.8l-6.6-1.9-2-.6c-.3,0-.5-.1-.7-.2Z"/>
    <path class="st0" d="M81.7,95.8c0,0,1-4.9,2.4-11s2.6-10.9,2.7-10.9-1,4.9-2.4,11-2.6,10.9-2.7,10.9Z"/>
    <path class="st0" d="M96,119.3c0-.2.2-.5.3-.7l1-1.9c.9-1.6,2.1-3.7,3.3-6.2s2.3-4.7,3-6.3l.9-1.9c0-.2.2-.5.4-.7,0,.3-.1.5-.2.7-.2.5-.4,1.2-.8,2-.7,1.7-1.7,3.9-3,6.4s-2.5,4.6-3.4,6.2c-.5.8-.9,1.4-1.1,1.8,0,.2-.2.4-.3.6Z"/>
    <path class="st0" d="M77.6,119.3c.2,0,.5,0,.7,0h2c1.7,0,4-.2,6.5-.2s4.8,0,6.5,0h2c.2,0,.5,0,.7,0-.2,0-.5,0-.7,0h-2c-1.7.1-4,.2-6.5.2s-4.8,0-6.5,0h-2c-.2,0-.5,0-.7,0Z"/>
    <path class="st0" d="M87.6,141.6c.3,0,.6,0,.9,0h2.5c2.1-.2,5.1-.3,8.3-.3s6.2-.1,8.3-.1h2.5c.3,0,.6,0,.9,0-.3,0-.6,0-.9,0h-2.5c-2.1.2-5.1.3-8.3.3s-6.2.1-8.3.1h-2.5c-.3,0-.6,0-.9,0Z"/>
    <path class="st0" d="M110.6,141c.1-.3.3-.6.4-.9l1.2-2.4c1.1-2,2.5-4.8,4-8s2.8-6,3.7-8.1l1.1-2.5c.1-.3.3-.6.4-.9,0,.3-.2.6-.3.9-.2.6-.6,1.5-1,2.5-.9,2.1-2.1,5-3.6,8.2-1.5,3.2-3,5.9-4.1,7.9-.6,1-1,1.8-1.3,2.4-.2.3-.3.6-.5.9Z"/>
    <path class="st13" d="M390.5,237c-11.3-9.8-12.3-25.9-10.3-40.1.3-2.4.3-4.9,1.7-6.9s4.1-3.1,6.1-1.9c1.7,1,2.2,3.1,3,5,1.1,2.4,2.8,4.4,5,5.9,1.4.9,3.2,1.6,4.8,1,2.2-.9,2.7-3.7,3-6.1.5-4.4.9-8.8,1.3-13.2.1-2.4.6-4.7,1.5-6.9.9-2.2,2.8-3.9,5.1-4.4,2.3-.4,5,1.2,5.2,3.6,0,1,0,2-.2,2.9-.1,1,.3,2,1.2,2.5,1,.2,2,0,2.7-.8,2.6-2.3,4.8-4.9,6.5-7.9,1.7-3,3.8-5.7,6.2-8.2,2.5-2.4,5.8-4.1,9.2-3.9s6.8,2.6,7.3,6-1.8,6.6-4.2,9.1c-3.6,3.7-7.6,6.8-12.1,9.3-.9.4-1.6,1-2,1.8-.7,1.5.6,3.2,2.1,3.9,1.7.8,3.6.8,5.4,1.2s3.7,1.4,4.2,3.2c.7,2.5-1.6,4.8-3.8,6.3-4.3,2.9-9.1,5-14.2,6.3-1.8.3-3.6.9-5.2,1.9-1.5,1.1-2.6,3.1-1.9,4.9s2.8,2.5,4.6,2.4c1.8-.3,3.6-.8,5.4-1.4,3.4-.9,7.5-.2,9.3,2.8,1.1,2.1,1.1,4.6,0,6.7-1,2.1-2.5,3.9-4.2,5.4-5.8,5.6-13,9.6-20.8,11.5-7.8,1.8-14.9,1.8-22-1.8"/>
    <path class="st0" d="M395.1,228.5c3.2-7.5,6.8-14.8,10.9-21.9l3.1-5.6c1-1.8,2.1-3.6,3.2-5.4,2.2-3.3,4.5-6.5,7-9.5,2.4-2.9,4.7-5.6,6.9-8.1s4.3-4.8,6.3-6.7c3.2-3.2,6.6-6.1,10.2-8.7,1.3-.9,2.3-1.6,3-2.1l.8-.5.3-.2c0,0-.2.1-.2.2l-.8.6c-.7.5-1.7,1.2-2.9,2.1-3.6,2.7-6.9,5.6-10.1,8.8-2,2-4.1,4.3-6.3,6.8s-4.5,5.2-6.9,8.1c-2.5,3-4.8,6.2-6.9,9.5-1.1,1.7-2.1,3.5-3.1,5.3l-3.1,5.6c-4,7.1-7.6,14.3-10.9,21.8"/>
    <path class="st0" d="M412.4,195.7c0-.3-.1-.7-.1-1,0-.7-.1-1.6-.1-2.8,0-2.4,0-5.7,0-9.3s0-6.9-.1-9.3c0-1.2-.1-2.1-.2-2.8,0-.3,0-.7,0-1,.1.3.2.7.2,1,.1.7.2,1.6.3,2.8.2,2.4.3,5.7.3,9.3s0,6.8,0,9.3v2.8c0,.3,0,.7,0,1Z"/>
    <path class="st0" d="M443.4,193.3c-.4,0-.8,0-1.2,0h-3.3c-2.8,0-6.7.1-11,.5s-8.1.8-10.9,1.2c-1.4.2-2.5.4-3.3.5-.4,0-.8.1-1.2.2.4-.2.8-.3,1.2-.3.8-.2,1.9-.4,3.3-.7,2.8-.5,6.6-1,10.9-1.4,3.7-.3,7.3-.4,11-.4,1.4,0,2.5.1,3.3.2.4,0,.8,0,1.2.1Z"/>
    <path class="st0" d="M395.6,228c0-.1-.1-.3-.2-.4-.1-.3-.2-.7-.4-1.1-.3-1-.8-2.5-1.3-4.3-1.1-3.6-2.4-8.7-3.9-14.3s-2.7-10.7-3.7-14.3c-.5-1.8-.9-3.2-1.2-4.3-.1-.5-.2-.9-.3-1.2,0-.1,0-.3,0-.4,0,.1.1.3.2.4l.4,1.1c.4,1,.8,2.5,1.4,4.3,1.1,3.6,2.4,8.7,3.8,14.3s2.7,10.7,3.7,14.3c.5,1.8.9,3.2,1.2,4.3l.3,1.2c0,.1,0,.3,0,.4Z"/>
    <path class="st0" d="M437.3,219.3c-.1,0-.3,0-.4.1l-1.2.3-4.5.9c-3.8.8-9,1.9-14.7,3.2s-11,2.4-14.7,3.1c-1.9.4-3.4.6-4.5.8l-1.2.2c-.1,0-.3,0-.4,0h.4c0-.1,1.2-.4,1.2-.4l4.5-.9c3.8-.8,9-1.9,14.7-3.2s11-2.4,14.7-3.1c1.9-.4,3.4-.6,4.5-.8l1.2-.2c.1,0,.3,0,.4,0Z"/>
    <path class="st0" d="M303.6,68c1.8-10.4,6.8-25.7,12.7-34.4s15.1-15.6,25.6-17.1,22,3.5,26.7,12.9c2.5,5.1,3,10.9,4.8,16.3s5.9,10.7,11.5,11.2c5,.4,9.8-3.2,14.8-2.3,6.4,1.2,8.9,9.1,8.9,15.7s-.9,13.8,3.1,18.9c3.3,4.2,8.9,5.7,13.4,8.5,9.8,6.1,14,18.8,13,30.3s-6.3,22.2-11.9,32.3c-4.7-16.6-11.1-32.6-19-47.9-4.5-8.7-12.9-16.1-20.2-22.7-11.3-10-36.1-14.8-51-16.7s-17.6-2.2-32.5-5"/>
  </g>
  <g id="freepik--back-screens--inject-45">
    <path class="st5" d="M203.7,80.3c-37.1,2.7-77.6,7.6-107.2,19l9.4,63.4s57.5-20.6,104.3-19.2l-6.5-63.3Z"/>
    <g class="st10">
      <path class="st7" d="M203.7,80.3c-37.1,2.7-77.6,7.6-107.2,19l9.4,63.4s57.5-20.6,104.3-19.2l-6.5-63.3Z"/>
    </g>
    <path class="st5" d="M201,135.2h-.4c0,0-1.1.2-1.1.2l-4,.5c-1.8.2-3.9.5-6.4.8s-5.3.7-8.4,1.2c-12.5,1.9-29.7,5.1-48.4,10-6.5,1.7-12.8,3.4-18.5,5.2h-.3c0,0,0-.2,0-.2-2-14.5-3.9-27.1-5.4-36-.8-4.4-1.4-8-1.8-10.4-.2-1.2-.4-2.1-.5-2.8,0-.3,0-.5-.1-.7,0,0,0-.2,0-.2,0,0,0,.2,0,.2,0,.2,0,.4.2.7.1.7.3,1.6.6,2.8.5,2.4,1.2,5.9,1.9,10.4,1.6,8.9,3.6,21.4,5.6,36l-.3-.2c5.8-1.8,12-3.6,18.5-5.2,16-4.1,32.2-7.4,48.5-9.8,3.1-.5,6-.8,8.5-1.1s4.6-.6,6.4-.8l4.1-.4h1.1c0-.1.2-.1.2-.2Z"/>
    <path class="st5" d="M202.3,119.8s-.1-.4-.4-1.3c-.5-1.2-1.1-2.3-1.9-3.3-1.2-1.6-2.8-2.9-4.5-3.9-.5-.3-1.1-.6-1.6-.8-.6-.3-1.2-.5-1.8-.7-1.3-.4-2.7-.6-4.1-.4-1.5.2-3,.7-4.2,1.7-1.3,1-2.5,2.2-3.4,3.7-2,2.9-3.2,6.4-4.7,10.1-.7,1.9-1.9,3.6-3.5,5-.8.7-1.8,1.2-2.9,1.4-1.1.2-2.2,0-3.3-.4-4.2-1.7-6.1-6.5-10.4-8-2.1-.7-4.4-.5-6.3.5-1,.5-1.8,1.1-2.5,1.9-.7.8-1.2,1.7-1.7,2.7-.9,1.9-1.7,4-3.3,5.4-.8.7-1.8,1.2-2.9,1.3-1,0-2.1-.2-3-.6-1.7-1-3.2-2.4-4.1-4.1-.9-1.6-1.6-3.3-2.2-5-.6-1.6-1.3-3.1-2.2-4.5-.8-1.3-2-2.4-3.3-3.1-2.4-1.3-5.2-1.3-7.6-.2-1.9.8-3.5,2-4.8,3.5-.8,1-1.4,2.1-1.8,3.3-.3.8-.3,1.3-.3,1.3,0-.4.1-.9.2-1.3.3-1.2.9-2.4,1.8-3.4,1.3-1.6,3-2.8,4.9-3.6,2.5-1.2,5.4-1.1,7.9.2,1.4.7,2.6,1.8,3.5,3.2.9,1.4,1.7,3,2.2,4.6.6,1.7,1.3,3.3,2.2,4.9,1,1.6,2.3,3,4,3.9.8.4,1.8.6,2.8.6,1,0,1.9-.5,2.6-1.2,1.5-1.4,2.2-3.4,3.1-5.3.5-1,1-1.9,1.7-2.8.7-.9,1.7-1.6,2.7-2.1,2.1-1.1,4.5-1.3,6.7-.6,2.3.8,3.9,2.5,5.4,4.1,1.4,1.7,3.1,3,5,4,.9.4,2,.5,3,.4,1-.2,1.9-.6,2.7-1.3,1.5-1.3,2.6-3,3.4-4.8,1.5-3.6,2.8-7.2,4.8-10.1.9-1.4,2.1-2.7,3.5-3.7,1.3-.9,2.8-1.5,4.4-1.7,1.4-.2,2.9,0,4.3.4.6.2,1.2.4,1.9.7,2.4,1.2,4.5,2.9,6.1,5,.8,1,1.4,2.2,1.9,3.4.1.3.2.7.3,1,0,0,0,.1,0,.2Z"/>
    <path class="st5" d="M104.1,111.4c0,.1-.5.3-1.1.5s-1.2,0-1.2,0,.4-.3,1.1-.5,1.1-.1,1.2,0Z"/>
    <path class="st5" d="M105.7,123c0,.1-.3.4-.8.7s-1,.3-1,.2.3-.4.8-.7.9-.3,1-.2Z"/>
    <path class="st5" d="M107.7,135.7c0,.1-.3.4-.8.6s-1,.2-1,0,.3-.4.8-.6,1-.2,1,0Z"/>
    <path class="st5" d="M110.2,148.1c0,.1-.4.4-1,.6s-1.1.2-1.1,0,.4-.4.9-.6,1.1-.2,1.2,0Z"/>
    <path class="st5" d="M180.1,88.4c.4-.1.8-.2,1.2-.3.8-.1,2-.3,3.4-.5,3-.4,7.2-1,12.3-1.6h.2v.2c.4,4.3.9,9.2,1.3,14.4v.5h-.2l-16.6,2h-.2v-.2c-.5-4.3-.9-8-1.1-10.6-.1-1.2-.2-2.2-.3-2.9,0-.3,0-.7,0-1,0,.3.1.7.2,1.1.1.7.2,1.7.4,3,.3,2.6.8,6.2,1.3,10.5l-.2-.2,16.6-2.1-.2.3v-.2c-.5-5.2-.9-10.1-1.3-14.4l.3.2-17,1.9Z"/>
    <path class="st5" d="M195.5,90.9c0,.2-2.9.2-6.3.5s-6.3,1-6.3.8c4.1-1.3,8.4-1.8,12.6-1.3Z"/>
    <path class="st5" d="M195.7,94.6c0,.2-2.7.2-5.9.6s-5.9.7-5.9.6c1.9-.6,3.9-1,5.9-1.1,2-.3,4-.3,6,0Z"/>
    <path class="st5" d="M191.7,97.8c-1.1.4-2.2.6-3.4.7-1.1.2-2.3.3-3.4.2,1.1-.4,2.2-.6,3.4-.7,1.1-.2,2.3-.3,3.4-.2Z"/>
    <g>
      <path class="st14" d="M384.4,99c-36.3-11.1-66.9-20.5-108-20.2l-6.3,64.6c42.7,3.8,57,6.6,96.4,20.9l17.9-65.2Z"/>
      <g class="st10">
        <path class="st7" d="M384.4,99c-36.3-11.1-66.9-20.5-108-20.2l-6.3,64.6c42.7,3.8,57,6.6,96.4,20.9l17.9-65.2Z"/>
      </g>
      <path class="st14" d="M302.2,110.1l1.6-13.7c-4-.4-8,.7-11.2,3.1-4.3,3.2-6.9,8.2-6.9,13.5,0,.7,0,1.3,0,2h0l16-1.8.4-3.1Z"/>
      <path class="st14" d="M318.8,107.8c-1.6-5.4-5.9-9.6-11.4-10.8h-.5c0,0-.3-.2-.3-.2h-.9c0-.1,0-.1,0-.1l-1.6,13.6-.4,3.2,15.1,5.5h0c.4-1.1.6-2.3.8-3.5.3-2.6,0-5.2-.7-7.7Z"/>
      <g class="st12">
        <path d="M318.8,107.8c-1.6-5.4-5.9-9.6-11.4-10.8h-.5c0,0-.3-.2-.3-.2h-.9c0-.1,0-.1,0-.1l-1.6,13.6-.4,3.2,15.1,5.5h0c.4-1.1.6-2.3.8-3.5.3-2.6,0-5.2-.7-7.7Z"/>
      </g>
      <path class="st14" d="M302.5,115.1l-16,1.8c.7,7.8,6.3,14.2,13.9,15.1s14.7-4,17.2-11.4l-15.1-5.5"/>
      <path class="st14" d="M370.4,111.3c-.5-.1-1-.3-1.4-.6-.9-.4-2.2-1-3.8-1.7-4.2-1.8-8.5-3.3-12.9-4.5-4.4-1.3-8.8-2.3-13.3-3-1.7-.3-3.1-.5-4.1-.6-.5,0-1-.1-1.5-.3.5,0,1,0,1.5,0,1,0,2.4.2,4.1.4,9.1,1.2,17.9,3.8,26.3,7.5,1.6.7,2.9,1.3,3.8,1.8.5.2.9.5,1.3.8Z"/>
      <path class="st14" d="M369.3,118c-.5-.2-1-.3-1.4-.6-.9-.4-2.2-1-3.8-1.6-8.4-3.5-17.2-6.1-26.2-7.5-1.7-.3-3.1-.5-4.1-.6-.5,0-1-.1-1.5-.3.5,0,1,0,1.5,0,1,0,2.4.2,4.1.4,4.5.6,9,1.6,13.4,2.8,4.4,1.3,8.7,2.8,12.9,4.7,1.6.7,2.9,1.3,3.8,1.8.5.2.9.5,1.3.8Z"/>
      <path class="st14" d="M368.2,124.8c-.5-.1-1-.3-1.4-.6-.9-.4-2.2-1-3.8-1.7-4.2-1.8-8.5-3.3-12.9-4.5-4.4-1.3-8.8-2.3-13.3-3-1.7-.3-3.1-.5-4.1-.6-.5,0-1-.1-1.5-.3.5,0,1,0,1.5,0,1,0,2.4.2,4.1.4,4.5.6,9,1.6,13.4,2.8,4.4,1.3,8.7,2.8,12.9,4.7,1.6.7,2.9,1.3,3.8,1.8.5.2.9.5,1.3.8Z"/>
      <path class="st14" d="M366,131.5c-.5-.2-.9-.3-1.4-.6-.9-.4-2.1-1-3.7-1.6-8.1-3.5-16.7-6-25.4-7.5-1.7-.3-3-.5-4-.6-.5,0-1-.1-1.5-.3.5,0,1,0,1.5,0,1,0,2.3.2,4,.4,4.4.6,8.8,1.6,13,2.8,4.3,1.3,8.5,2.8,12.5,4.7,1.5.7,2.8,1.3,3.6,1.8.4.2.9.4,1.3.7Z"/>
      <path class="st14" d="M361.2,136.9c-.4-.1-.8-.3-1.2-.5l-3.3-1.5c-7.2-3.3-14.9-5.5-22.8-6.5l-3.6-.5c-.4,0-.9-.1-1.3-.2.4,0,.9,0,1.3,0,.9,0,2.1.2,3.6.3,8,.8,15.7,3.1,22.9,6.5,1.4.7,2.5,1.2,3.2,1.6.4.2.8.4,1.1.7Z"/>
      <path class="st14" d="M345.1,137.7c-.9-.1-1.7-.3-2.6-.5-1.6-.4-3.8-.9-6.2-1.3s-4.7-.7-6.3-1c-.9,0-1.7-.2-2.6-.4.9,0,1.8,0,2.6,0,1.6.1,3.9.4,6.3.8,2.1.4,4.2.8,6.2,1.4.9.2,1.7.5,2.5.9Z"/>
      <path class="st14" d="M282.7,86.4h.8c0,0,2.5-.1,2.5-.1,2.2,0,5.4,0,9.5.2,11.3.8,22.5,2.8,33.3,6h.2v.2c-2.5,14.3-5.5,31.4-8.7,49.6-.1.7-.3,1.5-.4,2.2v.3h-.3c-7.3-2-14.7-3.5-22.2-4.7-7.2-1.1-14-1.9-20.4-2.3h-.2v-.2c1.8-15.3,3.2-28.1,4.2-37.1.5-4.5.9-8,1.2-10.4.1-1.2.3-2.1.3-2.7,0-.3,0-.5,0-.7s0-.2,0-.2c0,0,0,.2,0,.2,0,.2,0,.4,0,.7,0,.7-.2,1.6-.3,2.8-.2,2.4-.6,6-1.1,10.5-1,9-2.4,21.8-4,37l-.2-.2c6.4.4,13.2,1.1,20.4,2.2,7.5,1.1,14.9,2.7,22.3,4.6l-.3.2c.1-.7.3-1.5.4-2.2,3.2-18.2,6.2-35.2,8.7-49.6v.2c-10.7-3.2-21.8-5.3-33-6.1-4.1-.3-7.3-.3-9.4-.3h-3.4Z"/>
    </g>
  </g>
  <g id="freepik--Character--inject-45">
    <polyline class="st6" points="243 218.4 278.4 226.3 283.9 218.4 283 208.4 277.6 203.4 259.1 203.4 241.7 219"/>
    <g class="st12">
      <polyline points="243 218.4 278.4 226.3 283.9 218.4 283 208.4 277.6 203.4 259.1 203.4 241.7 219"/>
    </g>
    <path class="st1" d="M297,145.5l44.7-6,7-2s16.1-3.5,17.6-4.1c1.7-.6,2.5,0,2.6.7.3,1-.7,2.2-2.2,2.8-.5.2-8.7,3-8.7,3,.9.2,1.9.5,2.8.8,2,.7,3.8,3.2,4.8,6.1s1,3.8-.2,4.3c-.4.1-.9,0-1.3-.2-.6-.4-1.1-1-1.3-1.7-1.6-4.7-4.5-5.1-4.5-5.1l-.9.3s3,2.1,3,4.7c0,.4,0,.7-.2,1.1.7,2-.4,4.2-2.4,4.9-.6.2-1.3.3-1.9.2-.6-.1-1.3-.5-1.4-1.1,0-.3,0-.7.2-1,0-.2.1-.4.2-.5l-2.7.4s-6.1.5-8.7,1l-41.8,12.6c-5.7,1.7-11.8-1.5-13.5-7.2,0,0,0-.1,0-.2h0c-1.6-5.8,1.7-11.7,7.5-13.4.5-.1,1-.2,1.5-.3Z"/>
    <path class="st1" d="M342.7,140.7c.2.9,1,1.7,1.9,1.8.9.2,1.9,0,2.8.2,2.8.4,5,2.9,7.7,3.1.4,0,.9,0,1-.4s-.2-.7-.5-.9l-7-6.2"/>
    <path class="st4" d="M348.8,138.3c.3.2.6.4.8.6.5.4,1.2,1,2.1,1.8l3.1,2.6.9.8c.3.3.7.5.8,1.1,0,.3-.2.6-.5.7-.2,0-.5.1-.8.1-.5,0-.9-.1-1.3-.3-1.5-.6-3-1.4-4.5-2.3-.6-.3-1.3-.5-2-.7-.6-.1-1.3,0-1.9-.1-1,0-1.9-.4-2.5-1.1-.4-.6-.3-1-.3-1,.1.3.3.6.5.8.6.6,1.5.9,2.4.9.6,0,1.3,0,1.9,0,.7.1,1.5.3,2.1.6,1.4.8,2.9,1.6,4.4,2.2.4.1.8.2,1.2.2.4,0,.7-.1.7-.3s-.3-.5-.6-.8l-.9-.8-3-2.7-2-1.9c-.5-.4-.7-.7-.7-.7Z"/>
    <path class="st4" d="M357.4,144.4c.6-.1,1.2-.1,1.8,0,.6.2,1.1.5,1.5,1,.5.6.8,1.3,1.1,2.1.3.8.6,1.5,1,2.2.4.6.9,1.1,1.5,1.4.4.2.9.2,1.4,0,.3-.1.4-.3.4-.3s-.2,0-.4.2c-.4.1-.8,0-1.2-.1-.5-.3-1-.8-1.3-1.4-.4-.7-.7-1.4-1-2.2-.3-.8-.7-1.5-1.2-2.2-.4-.5-1-.9-1.7-1.1-.4-.1-.9-.1-1.4,0-.3.2-.4.3-.4.3Z"/>
    <path class="st4" d="M367.4,136.7c-.6.1-1.1.3-1.6.6l-3.9,1.4-3.9,1.4c-.6.1-1.1.4-1.6.6.6,0,1.1-.2,1.7-.4,1-.3,2.4-.7,3.9-1.3s2.9-1.1,3.9-1.5c.5-.2,1-.5,1.5-.8Z"/>
    <path class="st4" d="M356.2,146.9s.1.2.4.4c.3.3.5.8.5,1.2,0,.3-.2.5-.5.7-.3.1-.7.2-1.1.3-.5,0-.9.3-1.2.6-.3.4-.4,1-.2,1.5.2.5.5.9,1,1.1.4.2.9.3,1.3.2.7-.2,1.4-.4,2.1-.8.4-.2.9-.5,1.2-.9.1-.1.2-.3.3-.5,0,0-.1.1-.4.4-.4.3-.8.6-1.2.8-.6.3-1.3.5-2,.7-.8.1-1.7-.3-2-1.1-.1-.4,0-.8.1-1.2.3-.3.6-.5,1-.5.4,0,.8-.2,1.1-.4.3-.2.6-.5.6-.9,0-.5-.2-1-.6-1.4-.2-.2-.4-.3-.4-.3Z"/>
    <path class="st4" d="M355.2,152.4s-.2,0-.4.2c-.4.3-.5.8-.5,1.2,0,.7.5,1.3,1.2,1.6.8.3,1.6.3,2.4,0,.8-.3,1.5-.8,1.9-1.5.4-.6.6-1.2.6-1.9,0-.4,0-.9-.1-1.3,0-.2-.1-.3-.2-.4.1.6.1,1.2.1,1.7-.2,1.4-1.1,2.5-2.5,3-.7.3-1.5.3-2.2,0-.6-.2-1-.7-1.1-1.3,0-.4,0-.8.4-1.1.2-.1.4-.2.4-.2Z"/>
    <path class="st4" d="M347.8,148.8s0-.3-.3-.8c-.4-.6-1-1.1-1.6-1.3v.3c.3-.2.7-.3,1-.6,1.2-.7,2.2-1.7,2.8-2.9-.9,1-1.9,1.8-3,2.6-.3.2-.7.4-1,.6l-.3.2h.4c.6.3,1.2.7,1.6,1.3.4.4.5.7.5.7Z"/>
    <path class="st4" d="M361.7,144c0,0-.5.5-.6,1.3s.3,1.4.4,1.4-.1-.6,0-1.3.3-1.2.2-1.3Z"/>
    <path class="st1" d="M153.2,159.6s-6.5-10.6-7.7-11.5-11.5-4.7-12.4-4.4-13.4,2.4-12,3.9,10.2-.1,10.2-.1l1.2.6s-7.6,1.2-9.1,2.1-1,2.6.4,2.5,7.9-1.4,8.3-1.1-7.1,1.8-7.9,2.2c-1.1.6-1.2,2.6.2,2.5.8,0,7.9-1.9,7.9-1.9-2.1.8-4.1,1.7-6.1,2.7-.8.8-.2,2,1,1.8.8-.2,4.8-2.1,5.9-2.3,0,0,1,.3,2,2.4.4,1,2.5,7.1,6.1,7.1,3.3,0,6.5,2.6,6.5,2.6l5.5-9Z"/>
    <path class="st4" d="M121.2,147.6c.7.4,1.5.6,2.3.6.9.1,1.7.2,2.6.1,1-.1,2-.2,3.1-.4l2.3-.3h-.1c1.7.7,3.6,1.3,5.4,1.7-1.7-.9-3.4-1.6-5.2-2.2h-.1l-2.3.3-3.1.4c-.8,0-1.7,0-2.5,0-1.4-.1-2.3-.3-2.3-.2Z"/>
    <path class="st1" d="M148.3,158.3c-.9.6-2,.6-2.9,0-.9-.5-1.6-1.4-2.4-2-2.5-1.8-6.2-1.4-8.7-3.3-.3-.3-.7-.7-.5-1.1s.7-.4,1.1-.4l10.3.2"/>
    <path class="st4" d="M145.2,151.8c-.4,0-.7-.1-1.1-.1-.7,0-1.8-.1-3-.2l-4.5-.2h-1.3c-.5,0-1.1,0-1.5.3-.3.3-.3.7-.2,1,.1.3.3.5.5.7.4.3.8.6,1.3.8,1.7.6,3.5,1.1,5.4,1.5.7.2,1.5.6,2.1,1,.6.4,1.1.9,1.6,1.3.8.7,1.8,1.1,2.9,1,.8-.1,1-.6,1-.6-.3.2-.7.3-1,.3-1,0-1.9-.4-2.6-1.1-.5-.4-1-.9-1.6-1.4-.7-.5-1.4-.8-2.2-1.1-1.8-.4-3.5-.9-5.2-1.5-.4-.2-.8-.4-1.2-.7-.3-.3-.5-.6-.3-.8s.6-.2,1.1-.2h8.8c.4,0,.7,0,1.1-.1Z"/>
    <path class="st6" d="M204,393.8l-2.4,26.2-7.9,20.2c-.5,1.4.2,3,1.5,3.5,0,0,.1,0,.2,0h0c.8.3,1.7.1,2.4-.4,4.4-3.4,20.7-15.9,20.7-17.8,0-2.2,4.4-27.5,4.4-27.5l-19-4.2Z"/>
    <g class="st11">
      <path class="st7" d="M195.5,443.8l23.4-20v1.1c-.2,1-.7,1.8-1.4,2.5-1.9,1.8-7.2,6.5-19.5,16-.7.6-1.7.7-2.5.4h0Z"/>
    </g>
    <g class="st11">
      <path class="st7" d="M214.4,414.7c-.7.4-1,1.3-.7,2.1.4.7,1.3,1,2,.7.8-.4,1.1-1.4.7-2.2-.5-.7-1.5-.9-2.2-.5"/>
    </g>
    <path class="st3" d="M202.8,433c-.2,0-.6-1.4-2.1-2.3-.9-.5-1.9-.8-2.9-.9,0,0,.3-.2,1-.2.8,0,1.6.2,2.3.7.7.4,1.2,1.1,1.6,1.8.2.6.2,1,.1,1Z"/>
    <path class="st3" d="M200.5,436.3c-.1.1-.9-.9-2.2-1.4-.8-.3-1.7-.5-2.5-.6.9-.4,1.9-.4,2.7,0,1.5.6,2.1,1.9,2,1.9Z"/>
    <path class="st3" d="M206.7,428.9c-1-.9-2.1-1.7-3.2-2.4-1.9-1-3.8-1.2-3.8-1.4,1.4-.2,2.8,0,4.1.8,1.3.6,2.3,1.6,3,2.9Z"/>
    <path class="st3" d="M208.1,421c0,.1-1.5-.6-3.3-.9s-3.4,0-3.4-.2c2.3-.9,4.9-.5,6.8,1.1Z"/>
    <path class="st3" d="M209,413.3c-1.1-.5-2.3-.8-3.4-1-1.2,0-2.4.2-3.6.5,0,0,.3-.4.9-.6.8-.4,1.8-.5,2.7-.4.9,0,1.8.4,2.6.8.6.4.9.7.8.8Z"/>
    <path class="st3" d="M205.8,410.8c0-.3,0-.7,0-1,.2-.9.6-1.7,1.1-2.5.3-.6.9-1,1.5-1.3.4-.1.9,0,1.2.4.2.4.3.8.3,1.2-.3,1.8-1.9,3.1-3.7,3.1-1.8,0-3.4-1.1-4.1-2.8-.2-.4-.1-.9,0-1.3.3-.4.7-.6,1.2-.4.6.2,1.2.6,1.6,1.1.7.6,1.2,1.4,1.6,2.2.2.3.3.6.3,1-.6-1.1-1.3-2-2.1-2.9-.4-.4-.9-.7-1.4-.9-.2,0-.5,0-.6.2-.1.3-.1.6,0,.8.6,1.4,2,2.4,3.5,2.4,1.5,0,2.9-1.1,3.2-2.6,0-.3,0-.6-.2-.9-.1-.2-.4-.3-.6-.2-.5.2-1,.6-1.3,1.1-.7,1-1.2,2.1-1.5,3.3Z"/>
    <path class="st3" d="M228.1,409.2l19.6-155.4-6.3-36.1-37,2-4.6,186.7c0,1.4.9,2.6,2.3,2.9l21.6,3.3c2.1.3,4.1-1.1,4.4-3.2,0,0,0,0,0,0Z"/>
    <path class="st3" d="M247.2,258.9l35.7,35.3-51.4,12.5,3.6,25.9,69.5-9.5c5.9-.8,11.3-4,14.8-8.9h0c5.4-7.5,5.5-17.5.3-25.1l-54.2-79.5-24.2,7.9,5.7,41.3Z"/>
    <path class="st14" d="M245.2,249.9c.6,1.4,1,2.9,1.2,4.4.4,1.5.7,3,.7,4.5-.6-1.4-1-2.9-1.2-4.4-.4-1.5-.7-3-.7-4.5Z"/>
    <path class="st14" d="M240,310l.9-.3,2.5-.8,9.6-2.9,34.9-10.5v.3c0,0-42.9-45.6-42.9-45.6h.4c-.9,7-1.7,14.5-2.6,22.2-4.4,37-8.6,70.5-11.8,94.7-1.6,12.1-3,21.9-4,28.7-.6,3.4-1,6-1.3,7.8-.2.9-.3,1.5-.4,2s-.2.7-.2.7c0,0,0-.2.1-.7s.2-1.1.4-2c.4-1.8.7-4.4,1.2-7.8,1-6.8,2.3-16.6,3.9-28.7,3.1-24.2,7.2-57.7,11.6-94.8.9-7.6,1.8-15.1,2.6-22.3v-.6c0,0,.4.4.4.4l42.7,45.7.2.2h-.3c0,0-34.9,10.4-34.9,10.4l-9.6,2.8-2.5.7c-.5.2-.9.2-.9.2Z"/>
    <path class="st14" d="M228.5,406.2c-.1,0,3.9-33,9.1-73.7s9.5-73.6,9.6-73.6-3.9,33-9.1,73.7-9.5,73.6-9.6,73.6Z"/>
    <path class="st14" d="M241.4,233.5c.4.8.6,1.6.8,2.4.4,1.5,1,3.6,1.5,5.9s.9,4.5,1.1,6c.2.8.3,1.7.2,2.5-.3-.8-.5-1.6-.6-2.5-.4-1.7-.8-3.7-1.3-6s-1-4.3-1.3-6c-.2-.8-.4-1.6-.5-2.4Z"/>
    <path class="st14" d="M243.7,230.4s.5-.5,1.4-.2c.6.2,1,.7,1.1,1.3.1.7-.2,1.5-.8,1.9-.6.3-1.4.3-2-.2-.5-.4-.6-1-.5-1.6,0-.4.3-.7.7-.9.2-.1.4-.1.4-.1-.3.3-.6.6-.7,1.1,0,.4,0,.9.4,1.2.4.3,1,.4,1.5.1.4-.3.7-.8.6-1.4,0-.4-.4-.8-.8-1-.4-.2-.9-.3-1.4-.2Z"/>
    <path class="st14" d="M293.4,300.3c-.1.1-2.1-1.7-5-3.4s-5.5-2.5-5.4-2.7c2,.4,4,1.1,5.7,2.2,1.8,1,3.4,2.3,4.7,3.9Z"/>
    <path class="st6" d="M216.2,111.6l-20.5,9.9,8.8,61.7-3.5,27.7c-.5,3.6.9,7.1,3.6,9.5h0l33.1-.6,23.2-12.7,10.6-1.8-4.4-21.1,2-29.9,24.2,12.9c1.9,1,4,1.3,6.1.7l44.4-11.5-2.3-17.1-40.2,4.6-30.6-27.1-22.8-5.1-4-6.7h-23.3l-1.7,1.2c-.8.6-1.4,1.4-1.7,2.3l-1.1,3.2Z"/>
    <path class="st6" d="M195.8,121.5c-4.3,2.9-7.5,7.1-9.2,12-2.3,7.3-7.6,36.7-7.6,36.7l-23.3-14.4-13.4,14.1,31,27.4c4.8,4.2,11.6,5.1,17.3,2.4h0c4.8-2.3,8.1-6.8,8.8-12.1l3.8-27.9-7.3-38.2Z"/>
    <polygon class="st1" points="265.7 209.7 264.2 207.6 248.9 210.4 246.1 216.9 265.7 209.7"/>
    <path class="st6" d="M204.7,220.4c13.7,5.5,28.3,3.5,41.4-3.4,3.9-2.1,7.6-4.7,11.6-6.7,4-2.1,8.3-3.6,12.8-3.3s8.9,2.8,10.7,6.9,0,9.6-4.2,11.2l1.5,1.3c6.1-2.9,9.1-11.1,6.1-17.2-2.3-4.7-7.1-7.4-10.7-11.3-5.2-5.6-5.8-16.4-5.8-24.9"/>
    <path class="st3" d="M234.8,123.5c-.3,0-.7,0-1,0-.9,0-1.8.5-2.4,1.1-.9,1.1-1.3,2.5-1.2,3.9,0,1.8.4,3.6,1.1,5.2l.4.9-.8-.6c-1.9-1.4-3.6-2.9-5.2-4.6-3.4-3.5-6.1-7.6-7.9-12.2-.5-1.4-1-2.8-1.3-4.2-.1-.5-.2-1.1-.2-1.6.5,1.9,1.1,3.8,1.9,5.7,1.9,4.4,4.6,8.5,8,11.9,1.6,1.6,3.3,3.2,5.1,4.5l-.4.3c-.4-.9-.7-1.8-.9-2.8-.2-.9-.2-1.8-.2-2.6,0-1.5.4-3,1.4-4.1.7-.7,1.6-1.1,2.6-1.1.3,0,.7,0,1,.2Z"/>
    <path class="st6" d="M236,123.5c1.7-.7,4.2.3,5.4,1.7.8.9,1.2,2.2,2.3,2.8s4.4,1.1,5.4.3c0,0,.6-2.8.9-4,1.1-4.5,1.9-9.1,2.3-13.7-3.2-1.6-2.3-3.6-8.1-3.2.8,2.7.9,5.5.2,8.2"/>
    <path class="st3" d="M244.3,115.6c0,0,.2-.8.3-2.2.1-2-.1-4-.7-5.9v-.2c0,0,.2,0,.2,0,1.4-.2,2.9,0,4.3.4.8.3,1.4.8,2,1.4.6.6,1.3,1,2,1.4h.2v.2c-.3,2.4-.6,5.1-1,7.8-.3,1.8-.7,3.5-1.1,5.2s-.8,3.2-1.1,4.7h0c0,.1,0,.2,0,.2-.5.3-1.1.4-1.7.4-.5,0-1.1,0-1.6-.1-.5,0-1-.2-1.5-.3-.5-.1-.9-.4-1.3-.7-.6-.7-1.1-1.4-1.5-2.1-.4-.6-1-1.1-1.6-1.4-.9-.6-1.9-.9-2.9-.9-.4,0-.7,0-1.1.2.3-.2.7-.3,1.1-.3,1.1,0,2.1.2,3,.8.7.4,1.2.9,1.7,1.5.4.7,1,1.4,1.5,2,.8.5,1.7.9,2.6.9.5,0,1,0,1.5,0,.5,0,1,0,1.4-.3h0c.3-1.4.7-3,1.1-4.6s.8-3.4,1.1-5.1c.5-2.7.8-5.4,1-7.8v.2c-.7-.4-1.4-.9-2-1.5-.5-.6-1.1-1-1.8-1.4-1.3-.4-2.7-.6-4.1-.4l.2-.2c.6,2,.8,4,.6,6.1,0,.6-.2,1.1-.3,1.6,0,.2,0,.4-.2.5Z"/>
    <path class="st3" d="M278.5,210v-1.1c0-1.1-.4-2.2-1-3.1-.9-1.5-2.2-2.7-3.7-3.6-2-1.1-4.3-1.7-6.6-1.8-2.5-.2-5.4,0-8.4-.3-3.2-.2-6.4-.9-9.5-2-3.4-1.3-6.3-3.5-8.5-6.4-1.1-1.5-2-3.3-2.4-5.1-.5-1.9-.7-3.9-.6-5.8.1-4,1.1-7.7,1.6-11.4.5-3.5.9-7,1-10.6.3-10.1-1.2-20.1-4.3-29.7-.4-1.4-.8-2.4-1.1-3.1-.1-.3-.2-.6-.3-.8,0,0,0-.2,0-.3,0,0,0,0,.1.3s.2.5.3.8c.3.7.7,1.7,1.2,3.1,1.3,3.8,2.4,7.8,3.1,11.8,1.1,5.9,1.6,12,1.4,18-.1,3.6-.4,7.1-1,10.6-.5,3.7-1.4,7.4-1.6,11.3-.3,3.8.7,7.5,2.9,10.6,2.1,2.8,5,5,8.3,6.2,3,1.1,6.1,1.8,9.3,2,3,.2,5.8.1,8.4.4,2.4.1,4.7.8,6.7,2,1.5.9,2.8,2.2,3.7,3.7.6,1,.9,2.1.9,3.2,0,.3,0,.6,0,.9,0,.2,0,.3,0,.3Z"/>
    <path class="st3" d="M263.5,191.8c-.3.4-.7.8-1.1,1.2-.4.4-.9.8-1.4,1.3s-1.2,1.1-2,1.6c-1.8,1.4-3.6,2.7-5.5,3.8-4.7,2.8-9.8,5-15.2,6.4-2.2.6-4.4,1-6.6,1.2-.9.1-1.8.2-2.6.3s-1.4.1-1.9.1c-.6,0-1.1,0-1.7,0,.5-.1,1.1-.2,1.6-.2.5,0,1.2,0,1.9-.2s1.6-.2,2.6-.3c2.2-.3,4.4-.8,6.5-1.4,2.6-.7,5.2-1.6,7.7-2.6,2.5-1.1,4.9-2.3,7.3-3.7,1.9-1.1,3.8-2.4,5.6-3.7.8-.6,1.4-1.1,2-1.6s1.1-.9,1.5-1.2c.4-.4.9-.7,1.3-1.1Z"/>
    <path class="st3" d="M257.1,159c0,.2,0,.4,0,.6l-.4,1.6c-.2.8-.4,1.6-.7,2.4-.3.9-.6,2-1.1,3.2-.2.6-.5,1.2-.7,1.8s-.6,1.3-.9,1.9c-.6,1.4-1.3,2.7-2.1,4.2-3.5,6.2-8.1,11.8-13.7,16.3-1.3,1-2.5,2-3.7,2.8-.6.4-1.2.8-1.8,1.2l-1.7,1c-1,.7-2.1,1.1-2.9,1.6-.7.4-1.5.8-2.3,1.1l-1.5.6c-.2,0-.3.1-.5.2.2-.1.3-.2.5-.3l1.4-.7c.6-.3,1.4-.7,2.2-1.1s1.9-1,2.9-1.7l1.6-1c.6-.4,1.1-.8,1.7-1.2,1.2-.8,2.4-1.8,3.7-2.8,2.7-2.3,5.2-4.8,7.5-7.5,2.2-2.7,4.3-5.6,6.1-8.7.8-1.4,1.6-2.8,2.1-4.1.3-.7.6-1.3.9-1.9l.7-1.8c.5-1.1.8-2.2,1.1-3.1s.6-1.7.8-2.4l.4-1.5c0-.2.1-.4.2-.5Z"/>
    <path class="st3" d="M214.9,225.4c-.7-.3-1.3-.8-1.8-1.4-2.7-2.6-4.2-6.2-4.2-9.9,0-.8,0-1.5.3-2.2,0,0,0,.9,0,2.2.2,3.6,1.6,7,4.1,9.7.9,1,1.6,1.5,1.6,1.6Z"/>
    <path class="st3" d="M214.2,217.6c.1,0-.1,1.3,0,2.9s.6,2.8.5,2.9c-1.1-1.7-1.3-3.9-.5-5.8h0Z"/>
    <path class="st3" d="M204.3,181.8c0-.1-.1-.3-.1-.5,0-.4-.1-.8-.2-1.4-.2-1.3-.5-3-.8-5-.7-4.2-1.7-10.1-2.9-16.5s-2.4-12.2-3.2-16.5c-.4-2-.8-3.7-1-5-.1-.5-.2-1-.3-1.4,0-.2,0-.3,0-.5,0,.1.1.3.2.5.1.4.2.8.4,1.3.3,1.2.7,2.9,1.2,4.9,1,4.2,2.2,10,3.4,16.4s2.1,12.3,2.7,16.5c.3,2.1.5,3.9.7,5,0,.6.1,1,.1,1.4,0,.2,0,.4,0,.6Z"/>
    <path class="st3" d="M268.3,181.8c0-.2,0-.3,0-.5v-6.6c0-4.4.2-10.5.8-17.2s1.2-12.8,1.7-17.1c.3-2.1.5-3.9.7-5.2,0-.6.1-1,.2-1.4,0-.2,0-.3.1-.5,0,.2,0,.3,0,.5,0,.4,0,.9-.1,1.4-.1,1.3-.3,3.1-.5,5.2-.4,4.4-1,10.4-1.5,17.1s-.8,12.8-.9,17.2c0,2.1-.1,3.9-.1,5.2v1.4c0,.2-.1.3-.2.5Z"/>
    <path class="st3" d="M188.4,184.4c-.2,0-1.5-3.6-4-7.5s-5.6-6.4-5.4-6.6c.7.4,1.4,1,2,1.6,1.5,1.4,2.8,3,3.9,4.7,1.1,1.7,2,3.5,2.8,5.4.3.8.6,1.6.7,2.4Z"/>
    <path class="st3" d="M190.1,180c-.4-.6-.8-1.3-1.1-2-.9-1.5-2.1-2.9-3.5-4-1.4-1.1-2.9-2.1-4.6-2.8-.7-.3-1.4-.6-2-1,.8.1,1.5.3,2.2.6,1.7.7,3.3,1.6,4.8,2.7,1.4,1.2,2.6,2.6,3.4,4.3.4.7.6,1.4.8,2.1Z"/>
    <path class="st9" d="M200.4,156s0,.2-.2.4c-.2.4-.5.8-.9,1.1-1.4,1.1-3.2,1.6-4.9,1.3-2.6-.5-4.8-2.1-6.2-4.4-.8-1.3-1.5-2.6-2-4-.3-.7-.6-1.5-.8-2.2-.3-.8-.4-1.7-.3-2.5.1-.9.5-1.7,1.2-2.3.7-.5,1.6-.7,2.5-.4,1.5.4,2.8,1.6,3.3,3.1.5,1.4.3,2.9-.4,4.1-.7,1.1-1.7,1.8-2.9,2.2-1,.3-2,.2-3-.1-.7-.3-1.3-.7-1.9-1.3-.3-.3-.6-.7-.8-1.2-.1-.3-.2-.5-.1-.5.3.5.6,1.1,1.1,1.5.5.5,1.1.9,1.8,1.1.9.3,1.9.3,2.8,0,1.1-.4,2-1.1,2.6-2.1.7-1.1.8-2.5.3-3.7-.5-1.4-1.6-2.4-3-2.8-.7-.2-1.4,0-2,.4-.6.5-.9,1.2-1,1.9-.2,1.6.5,3.1,1,4.5.5,1.4,1.2,2.7,2,4,1.3,2.2,3.4,3.7,5.8,4.3,1.7.3,3.4-.1,4.7-1.1.5-.4.9-.9,1.2-1.4Z"/>
    <path class="st9" d="M239.7,171.3l-.3.2c-.2.2-.5.4-.8.6-1.1.8-2.2,1.5-3.4,2.2-.9.4-1.8.8-2.8.9-1.2.2-2.4.1-3.5-.2-2.7-1.1-4.9-3-6.3-5.6-3.9-6.6-3.9-14.8.2-21.2,1.1-1.9,2.7-3.4,4.7-4.4,1.1-.5,2.2-.6,3.4-.4,1.2.2,2.3.8,3,1.7.7,1,1.1,2.2.9,3.4,0,1.2-.5,2.4-1.1,3.4-1.3,2.1-3.3,3.7-5.6,4.5-2.3.8-4.7,1.1-7.1.7-2.3-.4-4.5-1.3-6.4-2.7-3.5-2.7-6.2-6.4-7.6-10.6-.8-1.9-1.1-4-.9-6.1.2-1,.6-2,1.2-2.8.6-.8,1.5-1.4,2.4-1.6,1.9-.3,3.8.3,5,1.7,1.1,1.3,1.6,3.1,1.2,4.8-.3,1.5-1,2.9-2.1,4-1,1-2.1,1.7-3.4,2.2-2,.8-4.2,1.1-6.4,1-1.3,0-2.7-.2-4-.4l-1.1-.2h-.4c0,0,.4,0,.4,0h1.1c.9.2,2.3.4,4,.4,2.1.1,4.3-.2,6.2-1,1.2-.5,2.3-1.2,3.2-2.2,1-1.1,1.7-2.4,1.9-3.9.3-1.6-.1-3.2-1.1-4.5-1.2-1.3-2.9-1.9-4.6-1.6-1.8.5-3.1,2.1-3.2,4-.2,2,.1,4,.9,5.8,1.4,4.1,4,7.7,7.4,10.4,1.8,1.3,4,2.2,6.2,2.6,2.3.4,4.7.1,6.9-.7,2.2-.8,4.1-2.3,5.3-4.3.6-1,.9-2.1,1-3.2.1-1.1-.2-2.2-.8-3.1-.7-.8-1.6-1.4-2.7-1.5-1-.2-2.1,0-3.1.4-1.9.9-3.4,2.4-4.5,4.2-2.1,3.3-3.2,7.2-3.1,11.1,0,3.4,1,6.8,2.8,9.7,1.3,2.5,3.5,4.4,6.1,5.5,2,.6,4.2.4,6.1-.6,1.2-.6,2.4-1.3,3.5-2.1l.9-.6c.1,0,.2-.1.4-.2Z"/>
    <path class="st9" d="M212.1,115.2c0,.3-.2.6-.3.9-.4.8-.8,1.5-1.3,2.2-3.3,4.8-9,7.5-14.8,7.1-.9,0-1.7-.2-2.6-.4-.3,0-.6-.2-.9-.3,0,0,1.3.3,3.5.4,5.7.2,11.1-2.4,14.5-6.9,1.3-1.7,1.8-3,1.9-2.9Z"/>
    <path class="st9" d="M226.9,119.5c-1,.3-2,.8-2.8,1.4-.8.7-1.4,1.6-1.8,2.6,0,0,0-.4.1-1,.6-1.6,1.9-2.7,3.5-3,.6,0,1,0,1,0Z"/>
    <path class="st9" d="M248,125.3c-.3,0-.6-.2-.9-.4-.7-.5-1.4-1-1.9-1.7-.8-1-1.3-2.3-1.4-3.5,0-.8.2-1.6.6-2.2.5-.8,1.4-1.2,2.3-1,.9.2,1.6.9,1.8,1.8.3.8,0,1.7-.5,2.3-.9,1.1-2.3,1.5-3.6,1-.8-.3-1.5-.9-2-1.6-.2-.3-.3-.5-.4-.9,0,0,.2.3.5.7.5.6,1.2,1.1,1.9,1.4,1.1.4,2.4,0,3.1-.9.4-.5.6-1.2.4-1.8-.2-.7-.8-1.2-1.4-1.4-.7-.1-1.4.2-1.8.8-.4.6-.6,1.2-.5,1.9,0,1.2.5,2.4,1.2,3.4.7.9,1.5,1.7,2.4,2.3Z"/>
    <path class="st9" d="M252,113.7c-1-.9-2.1-1.7-3.3-2.3-1.3-.4-2.6-.7-4-.7,0,0,.4-.2,1.2-.3,1,0,2.1,0,3,.5.9.4,1.8,1,2.5,1.7.5.6.7,1,.6,1.1Z"/>
    <path class="st9" d="M279.5,125.3s0,0-.2.1l-.6.3c-.5.3-1.3.6-2.4,1-3,1.1-6.2,1.7-9.4,1.8-1.1,0-2.1,0-3.2-.3-1.2-.2-2.2-.8-3.1-1.5-1-.9-1.5-2.1-1.5-3.4,0-1.4.5-2.7,1.3-3.8,2.1-2.2,5.2-2.9,8-2,3,.8,5.4,3.2,6.4,6.2.9,3,.2,6.3-1.9,8.7-2,2.1-4.6,3.5-7.4,4-2.5.5-5,.7-7.6.8-2.2,0-4.4.3-6.6.6-3.1.5-6,2.1-8.1,4.6-.7.9-1.2,2-1.5,3.1,0,0,0-.2,0-.2,0-.1,0-.4.2-.7.3-.8.7-1.6,1.2-2.3,2-2.6,4.9-4.3,8.1-4.8,2.2-.4,4.4-.7,6.6-.7,2.5,0,5-.3,7.5-.8,2.7-.5,5.2-1.9,7.1-3.9,2-2.2,2.6-5.3,1.8-8.2-.9-2.8-3.1-5-6-5.8-2.6-.9-5.5-.1-7.5,1.9-.8,1-1.2,2.2-1.2,3.4,0,1.2.5,2.3,1.4,3.1.9.7,1.9,1.2,3,1.5,1,.2,2.1.3,3.1.3,3.2,0,6.3-.6,9.4-1.6,1.1-.4,1.9-.7,2.4-.9.3-.1.5-.3.8-.4Z"/>
    <path class="st9" d="M254.6,164.6c0,0-.4-.8-1.4-2-2.4-3.1-6.4-4.6-10.2-3.8-1.4.3-2.3.7-2.3.6.7-.5,1.4-.8,2.2-1,4-1,8.3.6,10.6,4,.5.7.9,1.4,1,2.2Z"/>
    <path class="st9" d="M266.2,172.1c-.3.8-.8,1.5-1.4,2-2.9,3-7.6,3.4-11,.9-.7-.4-1.3-1.1-1.7-1.8,0,0,.6.7,1.9,1.5,1.6,1,3.5,1.5,5.4,1.4,1.9-.2,3.7-1,5.1-2.2,1.1-1,1.6-1.8,1.7-1.7Z"/>
    <path class="st9" d="M269.3,152.2c0,0-.6-.3-1.7-.6-2.8-.8-5.8.2-7.7,2.4-.7.9-1,1.5-1.1,1.5.1-.6.4-1.2.8-1.7,1.8-2.6,5.1-3.6,8.1-2.6.6.2,1.2.5,1.6.9Z"/>
    <path class="st9" d="M306.5,143.1c0,.2.1.5.2.7,0,.3.1.6.1.9,0,.4,0,.8,0,1.3-.1,2.7-1.1,5.3-2.9,7.4-1.2,1.5-2.6,2.7-4.3,3.6-1.9,1-4.1,1.5-6.2,1.4-5,0-9.7-2.4-12.9-6.4-.8-1-1.4-2.2-1.8-3.5-.4-1.2-.3-2.6,0-3.8.4-1.2,1.2-2.2,2.3-2.9,1.1-.5,2.3-.7,3.5-.4,1.1.2,2.2.8,3,1.6.7.8,1.3,1.7,1.6,2.7.6,1.8.5,3.8,0,5.6-.5,1.5-1.3,2.9-2.4,4-.8.8-1.7,1.6-2.8,2.1-.6.3-1.3.6-2,.8-.2,0-.5.1-.8.1.9-.3,1.8-.7,2.7-1.1,2.3-1.3,4-3.5,4.9-6,.6-1.7.6-3.6,0-5.3-.3-.9-.8-1.8-1.5-2.5-.8-.7-1.7-1.2-2.7-1.4-1.1-.2-2.2-.1-3.2.4-1,.6-1.8,1.5-2.1,2.6-.4,1.1-.4,2.4,0,3.5.4,1.2.9,2.3,1.7,3.3,3,3.8,7.6,6.1,12.4,6.2,4,.1,7.8-1.6,10.3-4.7,1.7-2,2.7-4.6,3-7.2,0-1,0-2-.2-3Z"/>
    <path class="st9" d="M314.2,163.8c-.2-.2-.4-.4-.6-.7-.5-.7-.9-1.4-1.1-2.3-.3-1.2-.4-2.5-.1-3.7.2-1.5.6-3,1-4.4.9-2.6,2.1-5.1,3.6-7.4.6-.9,1-1.6,1.4-2.1.2-.3.4-.5.6-.7-.5,1-1,2-1.6,3-1.4,2.3-2.5,4.8-3.4,7.3-.4,1.4-.7,2.9-1,4.3-.2,1.2-.2,2.4,0,3.6.3,1.1.8,2.1,1.3,3Z"/>
    <path class="st9" d="M333.2,140.8c.1.2.2.5.3.7.2.7.4,1.4.5,2.1.8,4.7-.3,9.5-3,13.4-.4.6-.8,1.1-1.3,1.6-.4.4-.5.6-.6.5s.7-.9,1.6-2.4c1.2-1.9,2.1-4.1,2.6-6.3.5-2.2.6-4.5.3-6.8-.2-1.7-.5-2.8-.4-2.8Z"/>
    <path class="st9" d="M267.8,187.5c-.2,0-.3-.1-.4-.2-.4-.2-.8-.5-1.2-.7-1.5-.7-3.2-1.2-4.9-1.4-2.5-.2-5,.2-7.3,1.2-1.4.6-2.6,1.4-3.7,2.4-.6.5-1.1,1.1-1.4,1.8-.4.7-.6,1.4-.5,2.2,0,.7.5,1.4,1.1,1.9.6.4,1.4.4,2,0,1.3-.7,2-2.1,1.9-3.5,0-2.5-1.5-4.8-3.7-6-1.5-.8-3.2-1-4.9-.6-.6.2-1.2.3-1.8.6.1-.1.3-.2.4-.3.4-.2.9-.4,1.3-.5,1.7-.5,3.5-.3,5.1.5,2.4,1.2,3.9,3.7,4,6.3,0,.8-.1,1.5-.4,2.3-.3.8-.9,1.4-1.7,1.7-.8.4-1.8.3-2.5-.1-.7-.5-1.2-1.3-1.3-2.2,0-.9.1-1.8.6-2.5.4-.7.9-1.4,1.5-1.9,1.1-1.1,2.4-1.9,3.8-2.5,2.4-1,5-1.4,7.6-1.1,1.7.2,3.4.7,4.9,1.6.4.2.8.5,1.2.8.3.2.4.3.4.3Z"/>
    <path class="st9" d="M271.4,195.8c-.2.8-.7,1.6-1.2,2.3-.8,1.2-1.5,2.1-1.6,2,.2-.8.7-1.6,1.2-2.3.8-1.2,1.5-2.1,1.6-2Z"/>
    <path class="st9" d="M284.1,210.1c0,0-.2-.4-.6-.9-.9-1.4-2.4-2.2-4.1-2.3-.6,0-1,0-1,0s.4-.3,1-.3c1.8-.1,3.6.8,4.4,2.4.3.6.3,1,.2,1Z"/>
    <path class="st9" d="M242.8,205c0,0-1.2.7-3.1,1.8-2.5,1.4-4.8,3.1-6.8,5.2-1.9,2.1-3.2,4.8-3.6,7.6,0,1.2,0,2.4,0,3.6-.1-.3-.2-.6-.3-.9-.2-.9-.2-1.8-.1-2.7.3-3,1.6-5.7,3.6-7.9,2-2.2,4.4-3.9,7-5.2,1-.5,1.8-.9,2.4-1.1.3-.2.6-.3.9-.3Z"/>
    <path class="st9" d="M257.5,209.9s-.6-.3-1.1-1.2c-1.3-2.4-1.1-5.3.6-7.5.3-.4.8-.8,1.3-1,0,0-.4.4-1,1.2-1.4,2.1-1.7,4.8-.6,7.1.4.8.8,1.3.8,1.4Z"/>
    <path class="st9" d="M234.5,191.8s-.2-.2-.6-.6c-.6-.5-1.3-.8-2.1-.9-1.2-.2-2.4,0-3.5.7-1.4.9-2.5,2.1-3.3,3.5-1,1.5-1.8,3.4-3.1,5.1-1.3,1.9-3.3,3.4-5.5,4.1-2.5.8-5.2.7-7.6-.4-2.6-1.2-4.6-3.3-5.6-5.9-.5-1.3-.6-2.8-.2-4.2.5-1.3,1.4-2.5,2.6-3.2,1.1-.7,2.5-1,3.9-.9,1.3.2,2.5.8,3.4,1.6,1.8,1.6,2.7,3.9,2.7,6.3,0,2-.7,4-1.9,5.7-.9,1.4-2.2,2.5-3.6,3.4-1.1.6-2.2,1.1-3.4,1.5-.8.2-1.5.4-2.3.5h-.6c0,0-.2,0-.2,0,.3,0,.5-.1.8-.2.8-.1,1.5-.3,2.3-.6,1.2-.4,2.3-.9,3.3-1.6,1.4-.9,2.6-2,3.5-3.4,1.1-1.6,1.7-3.5,1.7-5.5,0-2.3-.9-4.4-2.6-5.9-.9-.8-2-1.3-3.2-1.5-1.2-.1-2.5.2-3.5.8-1.1.7-1.9,1.7-2.4,2.9-.4,1.3-.3,2.6.2,3.9,1,2.5,2.9,4.5,5.3,5.6,2.3,1.1,4.8,1.2,7.2.4,2.1-.7,4-2.1,5.3-3.9,1.2-1.7,2.1-3.5,3.1-5.1.9-1.4,2.1-2.7,3.5-3.6,1.1-.7,2.4-.9,3.7-.7.8.1,1.5.5,2.1,1,.2.2.4.4.5.7Z"/>
    <path class="st9" d="M234.8,207.4c-.6-.3-1.2-.7-1.6-1.3-2.3-2.5-3.3-5.9-2.8-9.3,0-.7.3-1.4.6-2,0,0-.1.8-.3,2-.3,3.2.6,6.5,2.7,9,.8,1,1.4,1.5,1.3,1.6Z"/>
    <path class="st9" d="M238.5,184.3s-.7-.3-2-.9c-4.6-1.8-9.6-2.2-14.4-1.1-1.7.4-3.3,1-4.8,1.8-.8.4-1.3,1.1-1.6,1.9-.2.8.2,1.6,1,2,.4,0,.7,0,1-.3.3-.3.5-.7.6-1.1.2-.9.3-1.8.2-2.7,0-1.7-.5-3.4-1.3-4.9-.7-1.4-1.6-2.6-2.8-3.6-1-.9-2.2-1.5-3.5-2-1.9-.7-3.8-.9-5.8-.6-1.4.2-2.1.5-2.1.5.2-.1.3-.2.5-.2,2.4-.9,5.1-.9,7.5,0,1.3.4,2.6,1.1,3.6,2,1.2,1,2.3,2.3,3,3.7.8,1.6,1.3,3.3,1.4,5.1,0,.9,0,1.9-.2,2.8-.1.5-.4,1-.7,1.3-.4.4-1,.6-1.6.4-.5-.2-1-.6-1.2-1.1-.2-.5-.3-1-.2-1.5.3-1,.9-1.8,1.8-2.2,1.6-.8,3.2-1.4,4.9-1.8,2.9-.7,5.9-.8,8.9-.3,2,.3,3.9.9,5.7,1.7.5.2,1,.5,1.5.8.3.2.5.3.5.3Z"/>
    <path class="st9" d="M160.6,187.2s.6-.5,1.6-1.5c1.4-1.4,2.5-3.1,3.1-5,1.1-2.7,1-5.8-.2-8.5-.7-1.5-1.8-2.9-3.2-3.9-1.4-1.1-3.2-1.8-5-1.9-.9,0-1.8.2-2.6.6-.8.3-1.4,1-1.8,1.8-.3.8-.1,1.6.4,2.3.5.7,1.1,1.2,1.9,1.4,1.5.4,3.1.1,4.3-.7,1.1-.7,2-1.8,2.6-3,.8-1.8,1.2-3.8,1.2-5.7,0-.7,0-1.2,0-1.6,0-.2,0-.4,0-.6,0,.2,0,.4,0,.6v1.6c0,2.1-.3,4.1-1.1,6-.6,1.3-1.5,2.4-2.7,3.2-1.4,1-3.1,1.3-4.7.8-.9-.3-1.6-.8-2.2-1.6-.6-.8-.7-1.8-.4-2.8.4-.9,1.1-1.7,2-2.1.9-.4,1.9-.6,2.9-.6,1.9.1,3.8.8,5.3,2,1.4,1.1,2.6,2.5,3.3,4.1.7,1.5,1,3.1,1,4.7,0,1.4-.3,2.8-.8,4.1-.7,1.9-1.9,3.6-3.4,5-.4.4-.8.7-1.3,1-.3.2-.5.3-.5.3Z"/>
    <path class="st9" d="M181.3,202.1c-.3-.2-.6-.5-.8-.8-.7-.8-1.2-1.7-1.7-2.6-3.4-6.2-2.9-13.8,1.3-19.6.6-.8,1.3-1.6,2-2.4.3-.3.6-.5.9-.7,0,0-1.2,1.1-2.6,3.3-3.9,5.7-4.4,13-1.3,19.2.7,1.2,1.4,2.4,2.2,3.6Z"/>
    <path class="st9" d="M200.8,180.3c0,0-.5-1.5-1.8-3.7-3.3-5.8-9.1-9.7-15.8-10.4-2.5-.3-4.1,0-4.1-.2.4-.1.7-.2,1.1-.2,1,0,2,0,3,0,6.9.5,12.9,4.5,16.1,10.6.5.9.9,1.8,1.2,2.8.1.3.2.7.3,1.1Z"/>
    <g class="st12">
      <path d="M228.2,208.3c-1,.4-.9,1.9,0,2.6.9.6,2,.8,3,.6,11.9-.7,22.9-6.8,29.6-16.6-9,7.4-20.9,10.2-32.3,12.8"/>
    </g>
    <g class="st12">
      <path d="M226.4,198.1c-1-1.5-.3-3.6,1-4.9,1.4-1.2,2.9-2.1,4.6-2.8,5.9-2.9,10.7-7.8,13.5-13.8,1.8-3.9,3.2-8.8,7.2-10.4-2.3,14.2-12.2,25.9-25.7,30.7"/>
    </g>
    <g class="st12">
      <path d="M198,146.2c1,10.9.2,22-2.3,32.7-.7,2.2-1,4.6-1.1,6.9.2,2.5,1.4,4.9,3.3,6.5,1.7-3.8,1.7-7.5,2.4-11.6.6-3.7,1.7-12.4,1.7-12.5.1-7.6-1.6-14.1-4.6-20.9"/>
    </g>
    <g class="st12">
      <path d="M216.8,113.4c1.5,8.1,5.5,15.5,11.3,21.2,2.2,2.1,5,4.1,8.1,4-1.8-3.7-2.3-7.8-1.6-11.8,2.6,1.8,5.4,3.3,8.2,4.5,2.9,1.2,6.1,1.6,9.2,1l1.9-16.5c.1-.6,0-1.3-.2-1.9-.3-.5-.9-.7-1.4-.5,0,0-.1,0-.2,0-.2.2-.3.5-.3.7-1.1,4.8-1.8,9.2-2.9,14.1-.8.8-3.3.5-4.9-.1-1.4-.5-2-1.7-2.9-2.9s-.8-1-2.2-1.6c-2.6-1.1-7.5-.2-8.6,2.1-1.1,2.3-.3,5.4.5,7.6-7.2-4.7-12.4-11.9-14.6-20.2"/>
    </g>
    <g class="st12">
      <path d="M271.4,136.9c-.2.4,6.2,22.1,6.2,22.1l-8.3-4.8,2.1-17.3Z"/>
    </g>
    <path class="st1" d="M219.6,74v34.5c0,2,.7,3.9,2,5.4h0c1.9,2.3,4.3,4.3,6.9,5.7l7,3.9,5.8-5.2c1.7-1.5,2.7-3.6,2.8-5.9.1-2.5,0-5,0-5,0,0,9.8-.7,10.7-10.3.4-4.5.6-13.8.6-22.4,0-9.8-7.5-18.1-17.3-18.8h-.3c-9.9-.2-18.1,7.6-18.3,17.5,0,.2,0,.4,0,.5Z"/>
    <path class="st4" d="M244.1,107.4c-4.4-.4-8.7-2-12.2-4.8,0,0,2.5,7.3,12.2,7.2v-2.5Z"/>
    <path class="st3" d="M252.5,80.9c0,.7-.7,1.3-1.4,1.3-.7,0-1.3-.6-1.3-1.3,0,0,0,0,0,0,0-.7.7-1.3,1.4-1.3.7,0,1.3.6,1.3,1.3,0,0,0,0,0,0Z"/>
    <path class="st3" d="M252.9,78.6c-.2.2-1.2-.7-2.6-.8s-2.6.5-2.8.3.1-.4.6-.7c.7-.4,1.5-.6,2.2-.5.8,0,1.5.4,2.1.9.4.4.5.7.5.8Z"/>
    <path class="st3" d="M238.6,80.2c0,.7-.7,1.3-1.4,1.3-.7,0-1.3-.6-1.3-1.3,0,0,0,0,0,0,0-.7.7-1.3,1.4-1.3.7,0,1.3.6,1.3,1.3,0,0,0,0,0,0Z"/>
    <path class="st3" d="M238.4,77.7c-.2.2-1.2-.7-2.6-.8s-2.6.5-2.8.3.1-.4.6-.7c.7-.4,1.5-.6,2.2-.5.8,0,1.5.4,2.1.9.4.4.6.8.5.8Z"/>
    <path class="st3" d="M242.8,89.1c.8-.2,1.6-.3,2.4-.2.4,0,.8,0,.8-.3,0-.4,0-.8-.2-1.1-.3-1-.6-1.9-.9-3-1.2-4.2-2-7.7-1.9-7.7s1.3,3.3,2.5,7.6c.3,1,.6,2,.8,3,.2.5.2,1,0,1.5-.1.3-.4.4-.7.5-.2,0-.4,0-.6,0-.8,0-1.6,0-2.4-.2Z"/>
    <path class="st3" d="M238.4,89.8c.2,0,.1,1.6,1.4,2.9s3,1.2,3,1.4-.4.3-1.1.2c-.9,0-1.8-.5-2.5-1.1-.7-.6-1-1.5-1.1-2.4,0-.7.2-1.1.3-1Z"/>
    <path class="st3" d="M239.2,71.9c-.2.4-1.6,0-3.4.1s-3.2.4-3.4,0c0-.2.2-.5.8-.9,1.6-.8,3.5-.9,5.2-.1.6.3.9.7.8.9Z"/>
    <path class="st3" d="M252.7,74.3c-.3.3-1.3-.1-2.5-.2s-2.3,0-2.5-.3c-.1-.2.1-.5.6-.8,1.3-.7,2.9-.5,4,.5.4.4.5.7.4.9Z"/>
    <path class="st3" d="M230.9,64.3h0c-1.6,1.1-2.8,2.8-3.2,4.7v.2c-.6,2.7-.8,5.5-1.4,8.2s-.5,4.8-3.2,5.4c-1.5.3-3-.3-3.8-1.5-.2-.4-.3-.8-.3-1.3,0-6.7-1.3-9.3-.7-16.2.2-1.9,1.2-3.6,2.8-4.6,1.5-.9,3.4-1.9,5-1s3.4,4.1,4.5,5.5"/>
    <path class="st1" d="M222.5,78.6c-.1,0-6.4-2.5-6.8,4.1s6.4,5.6,6.4,5.4.4-9.5.4-9.5Z"/>
    <path class="st4" d="M220.2,85.5s-.1,0-.3.2c-.3.1-.6.1-.9,0-.8-.6-1.3-1.6-1.2-2.6,0-.6.2-1.1.4-1.6.1-.4.5-.7.9-.8.3,0,.6,0,.7.3,0,.2,0,.3,0,.3s.1,0,.1-.4c0-.2-.1-.3-.2-.4-.2-.1-.4-.2-.6-.2-.6,0-1,.5-1.3,1-.3.6-.5,1.2-.5,1.8-.1,1.2.5,2.4,1.5,2.9.4.1.7,0,1.1-.1.2-.2.3-.4.2-.4Z"/>
    <path class="st3" d="M225.7,59.2c-1.4-2.8,3.4-6.2,6.7-6.9s7.5,1.2,10.6,2.5c2,.8,3.9,2,6.1,2,1.4,0,2.9-.3,4.3-.7,1.4-.4,2.8-.6,4.3-.5,1.5.2,2.8,1.1,3.3,2.5.4,1.3-.3,2.7-1.6,3.1-.1,0-.3,0-.4,0,1.6-.7,3.6,0,4.3,1.6.7,1.6,0,3.6-1.6,4.3-.7.3-1.5.4-2.3.1,1-.6,2.3.7,2.1,1.8-.4,1.1-1.3,2-2.5,2.3-2.9,1-6,.3-8.8-.9s-5.3-2.9-8-4.2-7.3-3.5-10.2-2.7c-2.1.6-3.8,3-4.9,2.3-1.1-.7-1.7-1.8-1.8-3.1,0-1.3,0-2.5.4-3.7"/>
    <path class="st14" d="M259.8,61.3s-.4.5-1.1,1.2c-1.1,1-2.4,1.7-3.9,2.1-2.1.6-4.4.3-6.3-.8-2.1-1.2-3.9-3.3-5.9-5.4-1.9-2.1-4.4-3.5-7.1-4.2-2.3-.5-4.7.1-6.5,1.7-1.2,1.1-1.8,2.6-1.8,4.1,0,.4,0,.8.2,1.2,0,.1,0,.3.2.4,0-.5-.1-1.1-.1-1.6.1-1.5.8-2.8,1.9-3.8,1.7-1.4,3.9-1.9,6.1-1.4,2.6.6,5,2,6.8,4,2,2,3.8,4.2,6.1,5.5,3.5,1.8,7.8,1.2,10.6-1.6.3-.3.6-.6.8-1,.2-.2.2-.3.2-.3Z"/>
    <path class="st14" d="M220.8,78.2s.3-.2.6-.7c.4-.7.6-1.5.5-2.4,0-2.1-1.7-4.6-1.7-7.5,0-1.4.3-2.7,1.1-3.9.6-.9,1.6-1.6,2.6-1.9.7-.2,1.5-.3,2.2-.1.5.1.8.3.8.2s-.2-.3-.8-.5c-.8-.3-1.6-.3-2.4,0-1.2.3-2.3,1-3,2-.9,1.2-1.3,2.7-1.2,4.2,0,1.5.4,2.9.9,4.2.5,1,.8,2.2.9,3.3,0,1-.1,2.1-.7,3Z"/>
  </g>
  <g id="freepik--Lines--inject-45">
    <path class="st14" d="M248,268.9h-5.9c-3.8.1-9.5.3-16.8.6s-16.2,1-26.5,2.2c-5.1.6-10.6,1.3-16.4,2.3s-11.9,2.1-18.2,3.5-13,3.2-19.7,5.4c-7,2.2-13.9,5.1-20.4,8.4-3.4,1.8-6.7,3.9-9.8,6.3-3.2,2.4-5.9,5.4-8,8.8-.2.4-.5.9-.7,1.3l-.6,1.4-.3.7c0,.2-.1.5-.2.7l-.3,1.5c-.3,2-.2,4.1.3,6.1,1,4,3.7,7.5,6.7,10.5,6.3,5.9,14.2,10,22.5,13.4,8.5,3.4,17.3,6.2,26.3,8.3,18.8,4.4,38,7.2,57.3,8.4,19.3,1.3,38.7,1.4,58,.2,18-1,35.9-3.3,53.6-7,8.2-1.7,16.3-3.9,24.3-6.5,7.5-2.4,14.8-5.6,21.7-9.5,3.2-1.9,6.3-4.1,9.1-6.5,2.8-2.3,5-5.2,6.6-8.4l.5-1.2c.2-.4.3-.8.4-1.2l.3-1.3c0-.2.1-.4.1-.6v-.6c.2-1.7,0-3.4-.4-5-.5-1.6-1.2-3.1-2.1-4.5-.9-1.4-2-2.6-3.1-3.8-2.2-2.2-4.7-4.3-7.3-6-2.5-1.7-5.1-3.2-7.8-4.6-4.9-2.6-9.9-4.8-15.1-6.7-8.3-3.1-16.8-5.7-25.4-7.8-7.1-1.8-12.6-2.9-16.4-3.6-1.9-.4-3.3-.6-4.3-.8l-1.5-.3s2,.3,5.8,1,9.3,1.8,16.4,3.5c8.6,2.1,17.1,4.7,25.4,7.7,5.2,1.9,10.3,4.2,15.2,6.7,2.7,1.4,5.3,2.9,7.8,4.6,2.7,1.8,5.1,3.8,7.4,6.1,1.2,1.2,2.2,2.5,3.1,3.9.9,1.4,1.7,3,2.2,4.6.5,1.7.6,3.5.4,5.2v.7c0,.2-.1.4-.2.6l-.3,1.3c-.1.4-.2.9-.4,1.3l-.5,1.2c-1.6,3.3-3.9,6.2-6.7,8.6-2.9,2.5-5.9,4.7-9.2,6.6-6.9,3.9-14.2,7.1-21.8,9.5-8,2.6-16.1,4.8-24.3,6.6-17.7,3.7-35.6,6-53.6,7-19.3,1.2-38.7,1.1-58.1-.2-19.3-1.2-38.6-4-57.4-8.5-9-2.1-17.8-4.9-26.3-8.3-8.3-3.5-16.3-7.6-22.7-13.5-3.1-3-5.8-6.5-6.8-10.7-.5-2.1-.6-4.2-.3-6.3l.4-1.5c0-.3.1-.5.2-.8l.3-.7.6-1.4c.2-.5.5-.9.8-1.4,2.1-3.5,4.9-6.5,8.2-8.9,3.1-2.4,6.4-4.5,9.9-6.3,6.6-3.4,13.5-6.2,20.5-8.4,6.8-2.2,13.4-3.9,19.8-5.4s12.5-2.6,18.3-3.5,11.3-1.6,16.4-2.2c10.3-1.1,19.2-1.8,26.5-2.1s12.9-.4,16.8-.5h5.9Z"/>
    <path class="st14" d="M166.3,193.1s-.6.1-1.7.4-2.8.5-4.9,1c-4.3.9-10.7,2.3-18.8,4.5-9.9,2.6-19.5,6.1-28.8,10.2-2.7,1.2-5.5,2.6-8.3,4.2-2.9,1.6-5.6,3.4-8.3,5.3-2.8,2-5.4,4.4-7.7,7-2.4,2.7-4.2,6-5.2,9.5-1,3.7-.7,7.7.8,11.2,1.6,3.7,4,7,6.9,9.7,5.9,5.7,13.4,10,21.4,13.7,16.1,7.3,34.5,12.2,54,15.9,20.5,3.7,41.2,6,62,6.8,22.3,1,44.7.6,67-1.2,22.9-1.9,45.1-5.3,66.1-10.8,10.3-2.6,20.3-6.1,30.1-10.3,4.7-2.1,9.2-4.5,13.5-7.2,4.3-2.6,8.1-5.9,11.5-9.7,3.2-3.7,5.5-8.3,5.7-13.1,0-.6,0-1.2,0-1.8,0-.6,0-1.2-.2-1.8l-.4-1.7c-.2-.6-.3-1.1-.6-1.7-.9-2.2-2-4.3-3.4-6.1-2.9-3.6-6.3-6.8-10.1-9.4-3.7-2.5-7.6-4.8-11.6-6.8-7.7-3.7-15.6-6.8-23.8-9.3-7.8-2.4-15.5-4.4-22.8-6-23.3-4.9-46.9-7.9-70.6-9-8.4-.4-14.9-.4-19.4-.6h-5c0-.1-1.7-.2-1.7-.2h6.7c4.4.1,11,.1,19.4.5,23.8,1,47.4,4,70.7,8.9,7.4,1.6,15,3.6,22.9,6,8.2,2.5,16.2,5.6,23.9,9.3,4.1,2,8,4.2,11.7,6.7,3.9,2.6,7.3,5.8,10.2,9.4,1.5,1.9,2.6,4,3.5,6.2.2.6.4,1.1.6,1.7l.4,1.8c.1.6.2,1.2.2,1.8,0,.6,0,1.2,0,1.8,0,2.5-.7,4.9-1.7,7.2-1,2.3-2.4,4.4-4,6.3-3.4,3.8-7.3,7.1-11.6,9.8-4.4,2.8-8.9,5.2-13.6,7.3-9.8,4.3-19.8,7.7-30.1,10.4-21,5.5-43.2,8.9-66.1,10.8-22.3,1.8-44.7,2.2-67,1.2-20.8-.9-41.5-3.2-62-6.9-19.6-3.7-38-8.6-54.1-16-8-3.7-15.6-8-21.5-13.8-3-2.8-5.4-6.1-7-9.8-1.5-3.6-1.8-7.6-.8-11.4,1-3.6,2.8-6.9,5.3-9.6,2.3-2.6,4.9-5,7.7-7.1,2.7-1.9,5.4-3.7,8.3-5.3,2.8-1.6,5.6-2.9,8.3-4.2,9.4-4.1,19-7.5,28.9-10.1,8.1-2.2,14.5-3.6,18.9-4.4s6.5-1.2,6.5-1.2Z"/>
    <path class="st14" d="M201.3,344l-5,.8c-3.3.5-8.1,1.4-14.2,2.7-7.5,1.6-14.8,3.7-22,6.2-4.5,1.6-8.9,3.5-13.1,5.7-2.3,1.2-4.5,2.6-6.6,4.1-2.2,1.6-4.3,3.4-6.1,5.4-.9,1.1-1.7,2.2-2.4,3.5-.7,1.2-1.2,2.6-1.5,4,0,.4-.1.7-.2,1.1v1.1c0,.7,0,1.5,0,2.2.2.7.3,1.5.6,2.2l.4,1,.2.5.3.5c1.5,2.7,3.6,5.1,6,7.1,2.5,2.1,5.2,3.9,8.1,5.4,6,3.2,12.3,5.9,18.9,7.9,6.9,2.2,13.9,4,21,5.4,15.3,3,30.7,4.8,46.3,5.5,16.7.8,33.4.5,50-.9,17.1-1.5,33.7-4.1,49.3-8.5,7.7-2.1,15.1-4.9,22.2-8.5,3.4-1.7,6.7-3.8,9.6-6.2.8-.6,1.4-1.3,2.1-1.9s1.3-1.4,1.9-2.1c1.2-1.4,2.1-3,2.8-4.8,1.4-3.4,1.2-7.3-.4-10.5-1.7-3.1-4.1-5.8-6.9-8-5.5-4.4-11.8-7.3-17.9-9.8-5.9-2.3-12-4.3-18.2-5.8-5.9-1.5-11.7-2.7-17.2-3.7-17.5-3-35.2-4.6-53-4.9h-19.5c0-.1,6.9-.2,19.5-.1,17.8.2,35.5,1.8,53,4.8,5.5,1,11.3,2.2,17.3,3.7,6.2,1.6,12.3,3.5,18.3,5.9,6.1,2.5,12.4,5.4,18,9.8,2.9,2.2,5.3,4.9,7,8.1,1.7,3.4,1.9,7.3.5,10.8-.7,1.7-1.7,3.4-2.9,4.8-.6.7-1.2,1.4-1.9,2.1s-1.4,1.3-2.1,1.9c-3,2.4-6.3,4.5-9.7,6.3-7.1,3.5-14.6,6.4-22.2,8.5-16.1,4.4-32.7,7.2-49.3,8.5-16.6,1.4-33.4,1.7-50.1.9-15.5-.7-31-2.6-46.3-5.5-7.1-1.4-14.1-3.2-21-5.4-6.5-2-12.9-4.7-18.9-7.9-2.9-1.5-5.6-3.4-8.1-5.5-2.5-2-4.5-4.4-6.1-7.1l-.3-.5-.2-.5-.4-1.1c-.3-.7-.4-1.5-.6-2.2s-.2-1.5-.2-2.3v-1.1c0-.4.2-.7.2-1.1.3-1.4.8-2.8,1.5-4.1.7-1.3,1.5-2.4,2.4-3.5,1.8-2.1,3.9-3.9,6.1-5.5,2.1-1.5,4.4-2.9,6.7-4.1,4.2-2.2,8.6-4.1,13-5.7,7.2-2.5,14.6-4.6,22.1-6.2,6.1-1.3,11-2.1,14.2-2.6s5-.7,5-.7Z"/>
    <path class="st14" d="M331.9,435.5c0-1.3-.3-2.5-.8-3.6-.9-2.3-3.4-5.1-7.3-7.7-7.9-5.2-21-9.5-37.5-12.2-9-1.4-18.1-2.3-27.2-2.7-10.5-.4-21-.2-31.4.6-5.5.4-11.2,1.1-16.9,2-5.9.9-11.6,2.1-17.4,3.7-2.9.8-5.8,1.7-8.7,2.7-2.9,1-5.7,2.3-8.5,3.7-2.8,1.4-5.4,3.2-7.7,5.3-2.3,2.1-4.1,5-4.2,8.2s1.9,6.1,4.2,8.2c2.3,2.1,4.8,3.9,7.6,5.3,2.7,1.4,5.6,2.7,8.5,3.7,2.9,1.1,5.8,2,8.7,2.8,5.7,1.5,11.5,2.8,17.4,3.7,5.7.9,11.4,1.5,16.9,2,10.5.8,21,1,31.5.6,9.2-.4,18.3-1.3,27.3-2.7,16.5-2.7,29.7-7,37.5-12.2,3.9-2.6,6.4-5.4,7.3-7.7.5-1.2.8-2.4.8-3.6,0,.1,0,.4,0,1,0,.4,0,.8-.2,1.2-.1.5-.3,1-.5,1.5-.9,2.3-3.4,5.2-7.3,7.8-7.9,5.2-21,9.6-37.5,12.2-9,1.4-18.2,2.3-27.3,2.7-10.5.4-21,.3-31.5-.6-5.5-.4-11.2-1.1-16.9-2-5.9-.9-11.7-2.1-17.4-3.7-2.9-.8-5.8-1.7-8.7-2.8-2.9-1-5.8-2.3-8.5-3.7-2.8-1.4-5.4-3.2-7.7-5.4-1.2-1.1-2.2-2.4-2.9-3.8-1.7-2.8-1.7-6.4,0-9.2.8-1.4,1.8-2.7,3-3.7,2.3-2.1,4.9-3.9,7.7-5.4,2.8-1.4,5.6-2.7,8.5-3.7,2.9-1.1,5.8-2,8.7-2.8,5.7-1.5,11.5-2.8,17.4-3.7,5.7-.9,11.4-1.5,16.9-2,10.5-.8,21-1,31.5-.6,9.1.3,18.3,1.2,27.3,2.7,16.5,2.7,29.7,7,37.5,12.2,3.9,2.6,6.4,5.5,7.3,7.8.2.5.4,1,.5,1.5.1.4.2.8.2,1.2,0,.6,0,.8,0,1Z"/>
    <path class="st14" d="M111,280.4c0,1.8-1.4,3.2-3.2,3.2-1.8,0-3.2-1.4-3.2-3.2,0-1.8,1.4-3.2,3.2-3.2s3.2,1.4,3.2,3.2c0,0,0,0,0,0Z"/>
    <circle class="st14" cx="396.5" cy="282.5" r="3.2"/>
    <path class="st14" d="M269.5,400.2c0,1.8-1.4,3.2-3.2,3.2-1.8,0-3.2-1.4-3.2-3.2,0-1.8,1.4-3.2,3.2-3.2,0,0,0,0,0,0,1.8,0,3.2,1.4,3.2,3.2h0Z"/>
    <path class="st14" d="M172.6,318.1c0,.9-.7,1.6-1.6,1.6-.9,0-1.6-.7-1.6-1.6s.7-1.6,1.6-1.6,1.6.7,1.6,1.6h0Z"/>
    <path class="st14" d="M371.1,356.8c0,.9-.7,1.6-1.6,1.6-.9,0-1.6-.7-1.6-1.6,0-.9.7-1.6,1.6-1.6,0,0,0,0,0,0,.9,0,1.6.7,1.6,1.6Z"/>
    <path class="st14" d="M245,430.6c0,.9-.7,1.6-1.6,1.6-.9,0-1.6-.7-1.6-1.6,0-.9.7-1.6,1.6-1.6,0,0,0,0,0,0,.9,0,1.6.7,1.6,1.6Z"/>
    <circle class="st14" cx="161.7" cy="151.2" r=".8"/>
  </g>
  <g id="freepik--front-screens--inject-45">
    <g>
      <path class="st8" d="M305.6,274c-38.8,10.3-76.1,9.5-116.9,0l-4.8-74.5c42.1,8.2,84.3,7.1,121.6-1.8v76.2Z"/>
      <g class="st10">
        <path class="st7" d="M305.6,274c-38.8,10.3-76.1,9.5-116.9,0l-4.8-74.5c42.1,8.2,84.3,7.1,121.6-1.8v76.2Z"/>
      </g>
      <path class="st8" d="M299.6,262.6c0,0-.2,0-.2.1l-.7.3c-.6.3-1.6.7-2.8,1.1-3.5,1.3-7.1,2.4-10.7,3.4-12,3-24.4,4.4-36.8,4.2-12.4-.2-24.7-1.6-36.9-3.9-4.7-.9-8.4-1.7-11-2.3-1.3-.3-2.3-.5-3-.7l-.8-.2c-.2,0-.3,0-.2,0h1.1c0,.1,3,.8,3,.8,2.6.5,6.4,1.3,11,2.1,12.1,2.3,24.5,3.5,36.8,3.8,12.4.2,24.7-1.1,36.7-4,4.6-1.2,8.2-2.3,10.8-3.2,1.3-.4,2.2-.8,2.9-1l.8-.3c0,0,.2,0,.3,0Z"/>
      <path class="st8" d="M242.7,265.7c-4.9,1.3-10.1,1.2-14.9-.5v-26.5c4.9-1,10-1,14.9,0v27Z"/>
      <path class="st8" d="M266.8,264.1c0,0,0-.1,0-.2v-.6c0-.5,0-1.3,0-2.2,0-2,0-4.7-.2-8.2-.1-7-.2-16.9-.4-28.3l.2.2c-5.1-1-10.3-1-15.4,0l.2-.2v.5c.2,15.7.3,29.8.4,39.9v-.2c2,.5,4.2.7,6.4.8,1.6,0,3.3-.1,4.9-.4,1-.2,2-.5,3-.8l.8-.3c0,0,.2,0,.3,0h-.2c0,.1-.8.4-.8.4-1,.4-2,.7-3,.9-1.6.3-3.3.5-5,.5-2.2,0-4.4-.3-6.6-.7h-.1v-.2c-.1-10.1-.4-24.2-.6-39.9v-.8h.2c5.2-1,10.5-1,15.6,0h.2v.2c0,11.5.2,21.4.2,28.4v10.9c0,.1,0,.2,0,.2Z"/>
      <path class="st8" d="M289.7,261c-4,2.2-9.2,2.5-14.9,2.1v-43.8c4.9-1.2,10-1.2,14.9,0v41.7Z"/>
      <path class="st8" d="M219,263.5s0-.4,0-1.1,0-1.8,0-3.1c0-2.7,0-6.4-.1-10.7v.2c-4.4-1.8-9.3-2.7-14.2-2.4h0l.2-.3v14.9-.2c1.7.8,3.7,1.3,5.6,1.6,1.8.3,3.3.5,4.6.6l3,.2c.4,0,.7,0,1.1.1-.4,0-.7,0-1.1,0-.7,0-1.7,0-3-.1s-2.9-.2-4.6-.5c-2-.3-4-.8-5.9-1.6h-.1v-15.4h.3c5-.3,10,.6,14.6,2.5h.1v.2c0,4.4,0,8.2-.1,10.9,0,1.2,0,2.2,0,3,0,.4,0,.7-.2,1Z"/>
      <path class="st8" d="M226,224.8c-1,.2-1.9.2-2.9.2-1.8,0-4.3,0-7.1-.2s-5.2-.4-7-.7c-1,0-1.9-.3-2.9-.5,1,0,1.9,0,2.9.2,1.8.1,4.3.3,7,.5s5.2.3,7,.3c1,0,2,0,2.9.2Z"/>
      <path class="st8" d="M223.8,228.1c-.9,0-1.7,0-2.6,0-1.6,0-3.8-.2-6.2-.4s-4.6-.4-6.2-.6c-.9,0-1.7-.2-2.5-.4.9,0,1.7,0,2.6,0,1.6,0,3.8.2,6.2.4s4.6.4,6.1.6c.9,0,1.7.2,2.5.4Z"/>
      <path class="st8" d="M229.2,232.3v-.9c0-.6,0-1.5.1-2.6.1-2.3.2-5.4.4-9.4l.2.2c-9.2,0-18.5-.4-27.6-1.5l.3-.2h0v1.7c0,.6-.1,1.1-.2,1.7,0,1.1-.1,2.2-.2,3.3-.1,2.1-.2,4.2-.4,6.2l-.2-.3c8,1,14.9,1.4,19.8,1.6l5.7.2h1.5c0,0,.6,0,.6,0-.2,0-.3,0-.5,0-.3,0-.9,0-1.6,0h-5.7c-4.9-.1-11.8-.5-19.8-1.4h-.2v-.2c.1-2,.2-4.1.4-6.2,0-1.1.1-2.2.2-3.3v-1.7c0,0,0-.8,0-.8v-.8h0l.3-.2c9.2,1.1,18.4,1.7,27.7,1.7h.2v.2c-.3,3.9-.5,7.2-.6,9.4,0,1.1-.1,1.9-.2,2.5,0,.3,0,.6-.1.9Z"/>
      <path class="st8" d="M232.6,237.9c-.8-.8-1.4-1.7-1.9-2.7-.7-.9-1.2-1.9-1.5-2.9.8.8,1.4,1.7,1.9,2.7.7.9,1.2,1.9,1.5,2.9Z"/>
    </g>
    <g>
      <path class="st14" d="M70.6,141l12.7,76.7s19.3,36.2,70.8,44.4l-8.3-68.4s-47.5-14.7-75.1-52.6Z"/>
      <g class="st10">
        <path class="st7" d="M70.6,141l12.7,76.7s19.3,36.2,70.8,44.4l-8.3-68.4s-47.5-14.7-75.1-52.6Z"/>
      </g>
      <path class="st14" d="M147.4,256.6h-.3c0,0-1-.3-1-.3l-3.6-1.1c-1.6-.5-3.5-1-5.7-1.9l-3.5-1.3c-1.2-.5-2.6-1-3.9-1.6-2.7-1.2-5.6-2.5-8.7-4.2s-6.2-3.5-9.5-5.6c-7.1-4.6-13.5-10.2-19.1-16.6-2.6-3-4.9-6.2-6.9-9.6h0l-5.8-37.5c-.7-4.7-1.3-8.4-1.7-11.1l-.4-3v-.8c-.1,0-.1-.2,0-.3,0,0,0,.2,0,.3l.2.8.5,3c.4,2.6,1,6.4,1.8,11,1.5,9.4,3.6,22.5,6,37.5h0c1.9,3.3,4.2,6.5,6.8,9.4,5.6,6.3,12,11.9,19,16.5,3.3,2.1,6.4,4.1,9.4,5.6s5.9,3,8.6,4.2c1.3.6,2.6,1.2,3.9,1.6l3.5,1.4c2.1.9,4.1,1.4,5.6,2l3.6,1.2.9.3c0,0,.2,0,.3,0Z"/>
      <path class="st14" d="M142.9,234.3s0,0-.2.2l-.6.4-2.1,1.7-8.1,6.2h-.1c0,.1-.1,0-.1,0-2.7-3.8-6.1-8.4-9.9-13.7h.3c0,0-7.6,5.4-7.6,5.4l-.2.2v-.3c-3.1-8-6.4-17-9.9-26.5l-1.4-3.8h.5l-6.2,12.2-.3.5-.2-.6c-5.4-15.5-9.9-28.6-12.9-37.1h.3c-.8,3.4-1.4,6.1-1.9,8-.2.9-.4,1.6-.5,2.1v.5c-.2,0-.2.1-.2.2v-.2c0-.1,0-.3,0-.5l.4-2.1c.4-1.9,1-4.6,1.8-8v-.5c.1,0,.3.5.3.5,3,8.5,7.6,21.6,13.1,37.1h-.5l6.2-12.2.3-.5.2.6,1.4,3.8c3.5,9.5,6.8,18.5,9.7,26.5h-.4c0-.1,7.6-5.5,7.6-5.5h.2c0-.1.1,0,.1,0l9.8,13.7h-.2l8.2-6.1,2.2-1.6.6-.4.2-.2Z"/>
      <path class="st14" d="M141.1,197.6c-.4,0-.7-.1-1.1-.2-.7-.2-1.7-.5-2.9-.9-3.1-1-6.2-2.3-9.2-3.6-3-1.4-6-2.9-8.8-4.5-1.1-.6-2-1.2-2.6-1.6-.3-.2-.6-.4-.9-.6.4.1.7.3,1,.5l2.6,1.4c2.2,1.2,5.3,2.8,8.9,4.4s6.8,2.9,9.1,3.8c1.1.4,2,.8,2.8,1,.3.1.7.3,1,.5Z"/>
      <path class="st14" d="M143.2,200.7c-.8,0-1.7-.2-2.5-.4-2-.5-3.9-1.1-5.8-1.7-1.9-.7-3.8-1.5-5.6-2.4-.8-.3-1.5-.7-2.2-1.2.8.2,1.6.5,2.4.9,1.4.6,3.4,1.4,5.6,2.2s4.3,1.4,5.8,1.9c.8.2,1.6.5,2.4.8Z"/>
      <path class="st14" d="M122.9,229.1c0,.6-.4,1.1-.9,1.1s-.9-.5-.9-1.1.4-1.1.9-1.1.9.5.9,1.1Z"/>
      <ellipse class="st14" cx="103.3" cy="204.9" rx=".9" ry="1.1"/>
      <path class="st14" d="M85.1,179.6c0,.6-.4,1.1-.9,1.1s-.9-.5-.9-1.1.4-1.1.9-1.1.9.5.9,1.1Z"/>
    </g>
    <g>
      <path class="st14" d="M406,154.6l-6.4,77.9s-18.6,33.3-69.6,34.6l6.3-78.4s44.6-1.8,69.7-34.1Z"/>
      <path class="st14" d="M405,150.6c-1.7-5.4-5.7-13.1-15.3-14.7l-11.3,104.8s21.3-4.2,21.9-15.9c0-1,4.3-53.1,5.4-66,.3-2.7.1-5.5-.6-8.2Z"/>
      <g class="st10">
        <path class="st7" d="M406,154.6l-6.4,77.9s-18.6,33.3-69.6,34.6l6.3-78.4s44.6-1.8,69.7-34.1Z"/>
      </g>
      <path class="st14" d="M404.5,174.5c-5.1,7.4-7.9,16.2-8.1,25.2,0,2.6.1,5.3-.9,7.6s-3.5,4.4-6,3.7-3.8-3.8-6-5.2c-2.1-1.2-4.8-1.1-6.9.1-2,1.3-3.6,3.2-4.5,5.5-1.9,4.3-2,9.1-3.3,13.5s-4.7,8.9-9.4,9.1c-1.7,0-3.4-.4-5.1-.4-3.6.1-6.7,2.8-8.4,6s-2.2,6.8-2.7,10.4c0,0,27.2,2.6,57.8-33.5l3.5-42.1Z"/>
      <path class="st14" d="M361.2,221.8c0,1-.5,1.8-1.1,1.8s-1.1-.8-1.1-1.8.5-1.8,1.1-1.8,1.1.8,1.1,1.8Z"/>
      <path class="st14" d="M374,189.4c0,1-.5,1.8-1.1,1.8s-1.1-.8-1.1-1.8.5-1.8,1.1-1.8,1.1.8,1.1,1.8Z"/>
      <path class="st14" d="M403.8,178.3c0,.2,0,.3-.2.4l-.6,1.3c-.5,1.1-1.3,2.7-2.2,4.8l-8.1,16.9v.2c-.1,0-.3-.1-.3-.1l-19.2-12.2h.4c-.2.5-.5,1.2-.8,1.9l-12.4,30.4v.2c0,0-.3-.1-.3-.1-4.8-2.7-8.7-4.9-11.4-6.4-1.4-.7-2.4-1.3-3.2-1.7l-.8-.4h-.3c1.5.4,3,1.1,4.4,1.9,2.8,1.4,6.7,3.5,11.5,6.2h-.3c0,.1,12.3-30.4,12.3-30.4.3-.7.5-1.3.8-2v-.3c.1,0,.4.2.4.2l19.2,12.2h-.3c3.4-6.8,6.3-12.6,8.3-16.7l2.4-4.7.6-1.2c0-.1.1-.3.2-.4Z"/>
    </g>
  </g>
</svg>